<?xml version="1.0" encoding="UTF-8" standalone="no"?><svg xmlns="http://www.w3.org/2000/svg" xmlns:xlink="http://www.w3.org/1999/xlink" clip-rule="evenodd" stroke-miterlimit="4.00" viewBox="0 0 217 18"><desc>SVG generated by Keynote</desc><defs></defs><g transform="matrix(1.00, 0.00, -0.00, -1.00, 0.0, 18.0)"><text xml:space="preserve" font-family="AkkuratStd" font-size="14.0" fill="#52575F" transform="matrix(1.00, 0.00, -0.00, -1.00, 1.0, 5.0)">d</text><text xml:space="preserve" font-family="AkkuratStd" font-size="14.0" fill="#52575F" transform="matrix(1.00, 0.00, -0.00, -1.00, 9.3, 5.0)">i</text><text xml:space="preserve" font-family="AkkuratStd" font-size="14.0" fill="#52575F" transform="matrix(1.00, 0.00, -0.00, -1.00, 13.2, 5.0)">r</text><text xml:space="preserve" font-family="AkkuratStd" font-size="14.0" fill="#52575F" transform="matrix(1.00, 0.00, -0.00, -1.00, 18.4, 5.0)">e</text><text xml:space="preserve" font-family="AkkuratStd" font-size="14.0" fill="#52575F" transform="matrix(1.00, 0.00, -0.00, -1.00, 26.1, 5.0)">c</text><text xml:space="preserve" font-family="AkkuratStd" font-size="14.0" fill="#52575F" transform="matrix(1.00, 0.00, -0.00, -1.00, 33.5, 5.0)">t</text><text xml:space="preserve" font-family="AkkuratStd" font-size="14.0" fill="#52575F" transform="matrix(1.00, 0.00, -0.00, -1.00, 38.9, 5.0)">l</text><text xml:space="preserve" font-family="AkkuratStd" font-size="14.0" fill="#52575F" transform="matrix(1.00, 0.00, -0.00, -1.00, 42.8, 5.0)">y</text><text xml:space="preserve" font-family="AkkuratStd" font-size="14.0" fill="#52575F" transform="matrix(1.00, 0.00, -0.00, -1.00, 49.8, 5.0)"> </text><text xml:space="preserve" font-family="AkkuratStd" font-size="14.0" fill="#52575F" transform="matrix(1.00, 0.00, -0.00, -1.00, 53.0, 5.0)">i</text><text xml:space="preserve" font-family="AkkuratStd" font-size="14.0" fill="#52575F" transform="matrix(1.00, 0.00, -0.00, -1.00, 56.8, 5.0)">s</text><text xml:space="preserve" font-family="AkkuratStd" font-size="14.0" fill="#52575F" transform="matrix(1.00, 0.00, -0.00, -1.00, 64.1, 5.0)"> </text><text xml:space="preserve" font-family="AkkuratStd" font-size="14.0" fill="#52575F" transform="matrix(1.00, 0.00, -0.00, -1.00, 67.3, 5.0)">r</text><text xml:space="preserve" font-family="AkkuratStd" font-size="14.0" fill="#52575F" transform="matrix(1.00, 0.00, -0.00, -1.00, 72.6, 5.0)">e</text><text xml:space="preserve" font-family="AkkuratStd" font-size="14.0" fill="#52575F" transform="matrix(1.00, 0.00, -0.00, -1.00, 80.3, 5.0)">m</text><text xml:space="preserve" font-family="AkkuratStd" font-size="14.0" fill="#52575F" transform="matrix(1.00, 0.00, -0.00, -1.00, 92.6, 5.0)">o</text><text xml:space="preserve" font-family="AkkuratStd" font-size="14.0" fill="#52575F" transform="matrix(1.00, 0.00, -0.00, -1.00, 100.3, 5.0)">v</text><text xml:space="preserve" font-family="AkkuratStd" font-size="14.0" fill="#52575F" transform="matrix(1.00, 0.00, -0.00, -1.00, 107.1, 5.0)">e</text><text xml:space="preserve" font-family="AkkuratStd" font-size="14.0" fill="#52575F" transform="matrix(1.00, 0.00, -0.00, -1.00, 114.8, 5.0)">d</text><text xml:space="preserve" font-family="AkkuratStd" font-size="14.0" fill="#52575F" transform="matrix(1.00, 0.00, -0.00, -1.00, 123.1, 5.0)"> </text><text xml:space="preserve" font-family="AkkuratStd" font-size="14.0" fill="#52575F" transform="matrix(1.00, 0.00, -0.00, -1.00, 126.3, 5.0)">i</text><text xml:space="preserve" font-family="AkkuratStd" font-size="14.0" fill="#52575F" transform="matrix(1.00, 0.00, -0.00, -1.00, 130.1, 5.0)">n</text><text xml:space="preserve" font-family="AkkuratStd" font-size="14.0" fill="#52575F" transform="matrix(1.00, 0.00, -0.00, -1.00, 138.3, 5.0)"> </text><text xml:space="preserve" font-family="AkkuratStd" font-size="14.0" fill="#52575F" transform="matrix(1.00, 0.00, -0.00, -1.00, 141.5, 5.0)">f</text><text xml:space="preserve" font-family="AkkuratStd" font-size="14.0" fill="#52575F" transform="matrix(1.00, 0.00, -0.00, -1.00, 146.6, 5.0)">a</text><text xml:space="preserve" font-family="AkkuratStd" font-size="14.0" fill="#52575F" transform="matrix(1.00, 0.00, -0.00, -1.00, 154.3, 5.0)">v</text><text xml:space="preserve" font-family="AkkuratStd" font-size="14.0" fill="#52575F" transform="matrix(1.00, 0.00, -0.00, -1.00, 161.1, 5.0)">o</text><text xml:space="preserve" font-family="AkkuratStd" font-size="14.0" fill="#52575F" transform="matrix(1.00, 0.00, -0.00, -1.00, 168.9, 5.0)">r</text><text xml:space="preserve" font-family="AkkuratStd" font-size="14.0" fill="#52575F" transform="matrix(1.00, 0.00, -0.00, -1.00, 174.3, 5.0)"> </text><text xml:space="preserve" font-family="AkkuratStd" font-size="14.0" fill="#52575F" transform="matrix(1.00, 0.00, -0.00, -1.00, 177.5, 5.0)">o</text><text xml:space="preserve" font-family="AkkuratStd" font-size="14.0" fill="#52575F" transform="matrix(1.00, 0.00, -0.00, -1.00, 185.2, 5.0)">f</text><text xml:space="preserve" font-family="AkkuratStd" font-size="14.0" fill="#52575F" transform="matrix(1.00, 0.00, -0.00, -1.00, 190.3, 5.0)"> </text><text xml:space="preserve" font-family="AkkuratStd" font-size="14.0" fill="#52575F" transform="matrix(1.00, 0.00, -0.00, -1.00, 193.6, 5.0)">t</text><text xml:space="preserve" font-family="AkkuratStd" font-size="14.0" fill="#52575F" transform="matrix(1.00, 0.00, -0.00, -1.00, 198.9, 5.0)">h</text><text xml:space="preserve" font-family="AkkuratStd" font-size="14.0" fill="#52575F" transform="matrix(1.00, 0.00, -0.00, -1.00, 207.2, 5.0)">e</text></g></svg>