<?xml version="1.0" encoding="UTF-8" standalone="no"?><svg xmlns="http://www.w3.org/2000/svg" xmlns:xlink="http://www.w3.org/1999/xlink" clip-rule="evenodd" stroke-miterlimit="4.00" viewBox="0 0 1280 720"><desc>SVG generated by Keynote</desc><defs></defs><g transform="matrix(1.00, 0.00, -0.00, -1.00, 0.0, 720.0)"><path d="M 0.0 720.0 L 1280.0 720.0 L 1280.0 0.0 L 0.0 0.0 Z M 0.0 720.0 " fill="#FEFFFE"></path><text xml:space="preserve" font-family="Sonus" font-size="20.0" fill="#52575F" transform="matrix(1.00, 0.00, -0.00, -1.00, 68.0, 625.0)">S</text><text xml:space="preserve" font-family="Sonus" font-size="20.0" fill="#52575F" transform="matrix(1.00, 0.00, -0.00, -1.00, 78.6, 625.0)">e</text><text xml:space="preserve" font-family="Sonus" font-size="20.0" fill="#52575F" transform="matrix(1.00, 0.00, -0.00, -1.00, 88.9, 625.0)">t</text><text xml:space="preserve" font-family="Sonus" font-size="20.0" fill="#52575F" transform="matrix(1.00, 0.00, -0.00, -1.00, 95.7, 625.0)"> </text><text xml:space="preserve" font-family="Sonus" font-size="20.0" fill="#52575F" transform="matrix(1.00, 0.00, -0.00, -1.00, 100.0, 625.0)">c</text><text xml:space="preserve" font-family="Sonus" font-size="20.0" fill="#52575F" transform="matrix(1.00, 0.00, -0.00, -1.00, 109.2, 625.0)">a</text><text xml:space="preserve" font-family="Sonus" font-size="20.0" fill="#52575F" transform="matrix(1.00, 0.00, -0.00, -1.00, 119.4, 625.0)">n</text><text xml:space="preserve" font-family="Sonus" font-size="20.0" fill="#52575F" transform="matrix(1.00, 0.00, -0.00, -1.00, 130.7, 625.0)">d</text><text xml:space="preserve" font-family="Sonus" font-size="20.0" fill="#52575F" transform="matrix(1.00, 0.00, -0.00, -1.00, 142.1, 625.0)">i</text><text xml:space="preserve" font-family="Sonus" font-size="20.0" fill="#52575F" transform="matrix(1.00, 0.00, -0.00, -1.00, 146.9, 625.0)">d</text><text xml:space="preserve" font-family="Sonus" font-size="20.0" fill="#52575F" transform="matrix(1.00, 0.00, -0.00, -1.00, 158.3, 625.0)">a</text><text xml:space="preserve" font-family="Sonus" font-size="20.0" fill="#52575F" transform="matrix(1.00, 0.00, -0.00, -1.00, 168.5, 625.0)">t</text><text xml:space="preserve" font-family="Sonus" font-size="20.0" fill="#52575F" transform="matrix(1.00, 0.00, -0.00, -1.00, 175.2, 625.0)">e</text><text xml:space="preserve" font-family="Sonus" font-size="20.0" fill="#52575F" transform="matrix(1.00, 0.00, -0.00, -1.00, 185.5, 625.0)">s</text><text xml:space="preserve" font-family="Sonus" font-size="20.0" fill="#52575F" transform="matrix(1.00, 0.00, -0.00, -1.00, 193.8, 625.0)"> </text><text xml:space="preserve" font-family="Sonus" font-size="20.0" fill="#52575F" transform="matrix(1.00, 0.00, -0.00, -1.00, 198.1, 625.0)">u</text><text xml:space="preserve" font-family="Sonus" font-size="20.0" fill="#52575F" transform="matrix(1.00, 0.00, -0.00, -1.00, 209.5, 625.0)">p</text><text xml:space="preserve" font-family="Sonus" font-size="20.0" fill="#52575F" transform="matrix(1.00, 0.00, -0.00, -1.00, 220.9, 625.0)"> </text><text xml:space="preserve" font-family="Sonus" font-size="20.0" fill="#52575F" transform="matrix(1.00, 0.00, -0.00, -1.00, 225.2, 625.0)">f</text><text xml:space="preserve" font-family="Sonus" font-size="20.0" fill="#52575F" transform="matrix(1.00, 0.00, -0.00, -1.00, 231.6, 625.0)">o</text><text xml:space="preserve" font-family="Sonus" font-size="20.0" fill="#52575F" transform="matrix(1.00, 0.00, -0.00, -1.00, 242.6, 625.0)">r</text><text xml:space="preserve" font-family="Sonus" font-size="20.0" fill="#52575F" transform="matrix(1.00, 0.00, -0.00, -1.00, 249.8, 625.0)"> </text><text xml:space="preserve" font-family="Sonus" font-size="20.0" fill="#52575F" transform="matrix(1.00, 0.00, -0.00, -1.00, 254.1, 625.0)">s</text><text xml:space="preserve" font-family="Sonus" font-size="20.0" fill="#52575F" transform="matrix(1.00, 0.00, -0.00, -1.00, 262.4, 625.0)">u</text><text xml:space="preserve" font-family="Sonus" font-size="20.0" fill="#52575F" transform="matrix(1.00, 0.00, -0.00, -1.00, 273.9, 625.0)">c</text><text xml:space="preserve" font-family="Sonus" font-size="20.0" fill="#52575F" transform="matrix(1.00, 0.00, -0.00, -1.00, 283.0, 625.0)">c</text><text xml:space="preserve" font-family="Sonus" font-size="20.0" fill="#52575F" transform="matrix(1.00, 0.00, -0.00, -1.00, 292.1, 625.0)">e</text><text xml:space="preserve" font-family="Sonus" font-size="20.0" fill="#52575F" transform="matrix(1.00, 0.00, -0.00, -1.00, 302.3, 625.0)">s</text><text xml:space="preserve" font-family="Sonus" font-size="20.0" fill="#52575F" transform="matrix(1.00, 0.00, -0.00, -1.00, 310.6, 625.0)">s</text><text xml:space="preserve" font-family="Sonus" font-size="20.0" fill="#52575F" transform="matrix(1.00, 0.00, -0.00, -1.00, 318.9, 625.0)"> </text><text xml:space="preserve" font-family="Sonus" font-size="20.0" fill="#52575F" transform="matrix(1.00, 0.00, -0.00, -1.00, 323.3, 625.0)">d</text><text xml:space="preserve" font-family="Sonus" font-size="20.0" fill="#52575F" transform="matrix(1.00, 0.00, -0.00, -1.00, 334.6, 625.0)">u</text><text xml:space="preserve" font-family="Sonus" font-size="20.0" fill="#52575F" transform="matrix(1.00, 0.00, -0.00, -1.00, 346.0, 625.0)">r</text><text xml:space="preserve" font-family="Sonus" font-size="20.0" fill="#52575F" transform="matrix(1.00, 0.00, -0.00, -1.00, 353.0, 625.0)">i</text><text xml:space="preserve" font-family="Sonus" font-size="20.0" fill="#52575F" transform="matrix(1.00, 0.00, -0.00, -1.00, 357.9, 625.0)">n</text><text xml:space="preserve" font-family="Sonus" font-size="20.0" fill="#52575F" transform="matrix(1.00, 0.00, -0.00, -1.00, 369.3, 625.0)">g</text><text xml:space="preserve" font-family="Sonus" font-size="20.0" fill="#52575F" transform="matrix(1.00, 0.00, -0.00, -1.00, 379.5, 625.0)"> </text><text xml:space="preserve" font-family="Sonus" font-size="20.0" fill="#52575F" transform="matrix(1.00, 0.00, -0.00, -1.00, 383.8, 625.0)">t</text><text xml:space="preserve" font-family="Sonus" font-size="20.0" fill="#52575F" transform="matrix(1.00, 0.00, -0.00, -1.00, 390.6, 625.0)">h</text><text xml:space="preserve" font-family="Sonus" font-size="20.0" fill="#52575F" transform="matrix(1.00, 0.00, -0.00, -1.00, 402.0, 625.0)">e</text><text xml:space="preserve" font-family="Sonus" font-size="20.0" fill="#52575F" transform="matrix(1.00, 0.00, -0.00, -1.00, 412.2, 625.0)"> </text><text xml:space="preserve" font-family="Sonus" font-size="20.0" fill="#52575F" transform="matrix(1.00, 0.00, -0.00, -1.00, 416.6, 625.0)">h</text><text xml:space="preserve" font-family="Sonus" font-size="20.0" fill="#52575F" transform="matrix(1.00, 0.00, -0.00, -1.00, 428.0, 625.0)">i</text><text xml:space="preserve" font-family="Sonus" font-size="20.0" fill="#52575F" transform="matrix(1.00, 0.00, -0.00, -1.00, 432.9, 625.0)">r</text><text xml:space="preserve" font-family="Sonus" font-size="20.0" fill="#52575F" transform="matrix(1.00, 0.00, -0.00, -1.00, 439.9, 625.0)">i</text><text xml:space="preserve" font-family="Sonus" font-size="20.0" fill="#52575F" transform="matrix(1.00, 0.00, -0.00, -1.00, 444.7, 625.0)">n</text><text xml:space="preserve" font-family="Sonus" font-size="20.0" fill="#52575F" transform="matrix(1.00, 0.00, -0.00, -1.00, 456.2, 625.0)">g</text><text xml:space="preserve" font-family="Sonus" font-size="20.0" fill="#52575F" transform="matrix(1.00, 0.00, -0.00, -1.00, 466.3, 625.0)"> </text><text xml:space="preserve" font-family="Sonus" font-size="20.0" fill="#52575F" transform="matrix(1.00, 0.00, -0.00, -1.00, 470.6, 625.0)">p</text><text xml:space="preserve" font-family="Sonus" font-size="20.0" fill="#52575F" transform="matrix(1.00, 0.00, -0.00, -1.00, 482.0, 625.0)">r</text><text xml:space="preserve" font-family="Sonus" font-size="20.0" fill="#52575F" transform="matrix(1.00, 0.00, -0.00, -1.00, 488.8, 625.0)">o</text><text xml:space="preserve" font-family="Sonus" font-size="20.0" fill="#52575F" transform="matrix(1.00, 0.00, -0.00, -1.00, 499.8, 625.0)">c</text><text xml:space="preserve" font-family="Sonus" font-size="20.0" fill="#52575F" transform="matrix(1.00, 0.00, -0.00, -1.00, 508.9, 625.0)">e</text><text xml:space="preserve" font-family="Sonus" font-size="20.0" fill="#52575F" transform="matrix(1.00, 0.00, -0.00, -1.00, 519.1, 625.0)">s</text><text xml:space="preserve" font-family="Sonus" font-size="20.0" fill="#52575F" transform="matrix(1.00, 0.00, -0.00, -1.00, 527.4, 625.0)">s</text><text xml:space="preserve" font-family="Sonus" font-size="20.0" fill="#52575F" transform="matrix(1.00, 0.00, -0.00, -1.00, 535.7, 625.0)"> </text><path d="M 70.0 721.0 L 1210.0 721.0 L 1210.0 703.5 L 70.0 703.5 Z M 70.0 721.0 " fill="#EF6823"></path><g><clipPath id="clip-19282"><path d="M 69.0 36.0 L 125.0 36.0 L 125.0 92.0 L 69.0 92.0 Z M 69.0 36.0 "></path></clipPath><g clip-path="url(#clip-19282)"><path d="M 94.7 81.9 C 84.8 80.6 77.8 71.6 79.1 61.7 C 80.4 51.8 89.4 44.8 99.3 46.1 C 109.2 47.4 116.2 56.4 114.9 66.3 C 113.6 76.2 104.6 83.2 94.7 81.9 M 106.4 67.3 L 103.5 57.8 C 102.1 53.4 105.0 54.6 105.0 54.6 C 105.0 54.6 104.5 52.9 102.1 52.9 C 100.5 52.9 99.6 54.0 99.8 56.1 C 99.8 56.1 99.8 56.3 99.8 56.3 C 99.9 56.9 100.4 58.5 100.4 58.5 C 100.5 58.8 102.6 65.9 102.6 65.9 C 103.0 67.1 103.4 68.2 103.4 68.6 C 103.3 68.9 103.1 69.0 102.9 69.0 C 102.3 69.0 101.3 68.4 100.4 67.2 L 97.3 57.5 L 93.9 57.5 L 96.7 65.9 C 97.1 67.1 97.4 68.2 97.4 68.6 C 97.4 68.9 97.2 69.0 96.9 69.0 C 96.3 69.0 95.4 68.4 94.5 67.3 L 91.3 57.5 L 88.7 57.5 L 88.1 57.5 C 88.1 57.5 87.7 57.5 88.0 57.9 C 88.1 58.0 88.2 58.2 88.3 58.4 C 89.8 61.3 91.9 69.2 91.9 69.2 C 88.9 68.2 86.4 67.6 86.5 66.1 C 86.5 65.6 86.8 65.3 87.1 65.2 C 87.3 65.1 87.5 64.9 87.1 64.8 C 85.9 64.6 83.8 64.3 83.7 66.0 C 83.4 69.1 92.0 70.4 92.8 72.4 C 92.9 72.6 93.0 72.6 93.0 72.6 C 93.0 72.6 94.4 72.6 94.6 72.6 C 95.0 72.6 95.8 72.4 95.2 70.9 L 94.8 69.8 C 96.0 71.5 98.0 72.4 99.0 72.4 C 100.2 72.4 100.9 71.4 101.0 70.4 C 102.3 71.7 103.9 72.4 105.0 72.4 C 106.3 72.4 106.9 71.3 107.0 70.1 C 107.0 69.4 106.8 68.5 106.4 67.3 " fill="#D2D1D1"></path><path d="M 124.3 57.8 C 124.7 59.4 124.9 61.1 125.0 62.8 L 120.8 64.5 L 120.2 69.5 L 123.8 72.3 C 123.3 73.9 122.6 75.5 121.9 76.9 L 117.3 76.4 L 114.3 80.4 L 116.1 84.6 C 114.8 85.7 113.5 86.7 112.1 87.6 L 108.4 84.9 L 103.8 86.8 L 103.2 91.3 C 101.6 91.7 99.9 91.9 98.2 92.0 L 96.5 87.8 L 91.5 87.2 L 88.7 90.8 C 87.1 90.3 85.5 89.6 84.1 88.9 L 84.6 84.3 L 80.6 81.3 L 76.5 83.0 C 75.3 81.8 74.3 80.5 73.4 79.1 L 76.1 75.4 L 74.2 70.8 L 69.7 70.2 C 69.3 68.6 69.1 66.9 69.0 65.2 L 73.2 63.5 L 73.8 58.5 L 70.2 55.7 C 70.7 54.1 71.4 52.5 72.1 51.1 L 76.7 51.6 L 79.7 47.6 L 77.9 43.5 C 79.2 42.3 80.5 41.3 81.9 40.4 L 85.6 43.1 L 90.2 41.2 L 90.8 36.7 C 92.4 36.3 94.1 36.1 95.8 36.0 L 97.5 40.2 L 102.5 40.8 L 105.3 37.2 C 106.9 37.7 108.5 38.4 109.9 39.1 L 109.4 43.7 L 113.4 46.7 L 117.5 45.0 C 118.7 46.2 119.7 47.5 120.6 48.9 L 117.9 52.6 L 119.8 57.2 Z M 99.7 42.9 C 88.1 41.4 77.4 49.7 75.9 61.3 C 74.4 72.9 82.7 83.6 94.3 85.1 C 105.9 86.6 116.6 78.3 118.1 66.7 C 119.6 55.1 111.3 44.4 99.7 42.9 " fill="#D2D1D1"></path></g></g><image xlink:href="05CC13156036B8D660D95BAC8B71EF78.png" width="643.00" height="462.00" transform="matrix(1.00, 0.00, -0.00, -1.00, 566.4, 538.2)" opacity="0.70"></image><g><clipPath id="clip-19283"><path d="M 569.0 536.0 L 1207.0 536.0 L 1207.0 79.0 L 569.0 79.0 Z M 568.5 536.1 "></path></clipPath><g clip-path="url(#clip-19283)"><image xlink:href="DE54B3B0F94DB30ACA3B4745753AE984.png" width="639.00" height="461.00" transform="matrix(1.00, 0.00, -0.00, -1.00, 569.0, 540.0)"></image></g></g><path d="M 0.0 0.0 L 0.0 457.3 L 638.6 457.3 L 638.6 0.0 L 0.0 0.0 Z M 0.0 0.0 " fill="none" stroke="#F2F6F5" stroke-width="0.25" transform="matrix(1.00, 0.00, 0.00, -1.00, 568.5, 536.1)"></path><text xml:space="preserve" font-family="Sonus-Bold" font-weight="bold" font-size="40.0" fill="#000000" transform="matrix(1.00, 0.00, -0.00, -1.00, 67.0, 579.0)">E</text><text xml:space="preserve" font-family="Sonus-Bold" font-weight="bold" font-size="40.0" fill="#000000" transform="matrix(1.00, 0.00, -0.00, -1.00, 89.8, 579.0)">n</text><text xml:space="preserve" font-family="Sonus-Bold" font-weight="bold" font-size="40.0" fill="#000000" transform="matrix(1.00, 0.00, -0.00, -1.00, 113.6, 579.0)">c</text><text xml:space="preserve" font-family="Sonus-Bold" font-weight="bold" font-size="40.0" fill="#000000" transform="matrix(1.00, 0.00, -0.00, -1.00, 132.4, 579.0)">o</text><text xml:space="preserve" font-family="Sonus-Bold" font-weight="bold" font-size="40.0" fill="#000000" transform="matrix(1.00, 0.00, -0.00, -1.00, 155.6, 579.0)">u</text><text xml:space="preserve" font-family="Sonus-Bold" font-weight="bold" font-size="40.0" fill="#000000" transform="matrix(1.00, 0.00, -0.00, -1.00, 179.4, 579.0)">r</text><text xml:space="preserve" font-family="Sonus-Bold" font-weight="bold" font-size="40.0" fill="#000000" transform="matrix(1.00, 0.00, -0.00, -1.00, 194.7, 579.0)">a</text><text xml:space="preserve" font-family="Sonus-Bold" font-weight="bold" font-size="40.0" fill="#000000" transform="matrix(1.00, 0.00, -0.00, -1.00, 216.4, 579.0)">g</text><text xml:space="preserve" font-family="Sonus-Bold" font-weight="bold" font-size="40.0" fill="#000000" transform="matrix(1.00, 0.00, -0.00, -1.00, 238.0, 579.0)">e</text><text xml:space="preserve" font-family="Sonus-Bold" font-weight="bold" font-size="40.0" fill="#000000" transform="matrix(1.00, 0.00, -0.00, -1.00, 259.3, 579.0)"> </text><text xml:space="preserve" font-family="Sonus-Bold" font-weight="bold" font-size="40.0" fill="#000000" transform="matrix(1.00, 0.00, -0.00, -1.00, 268.0, 579.0)">q</text><text xml:space="preserve" font-family="Sonus-Bold" font-weight="bold" font-size="40.0" fill="#000000" transform="matrix(1.00, 0.00, -0.00, -1.00, 291.8, 579.0)">u</text><text xml:space="preserve" font-family="Sonus-Bold" font-weight="bold" font-size="40.0" fill="#000000" transform="matrix(1.00, 0.00, -0.00, -1.00, 315.7, 579.0)">e</text><text xml:space="preserve" font-family="Sonus-Bold" font-weight="bold" font-size="40.0" fill="#000000" transform="matrix(1.00, 0.00, -0.00, -1.00, 337.0, 579.0)">s</text><text xml:space="preserve" font-family="Sonus-Bold" font-weight="bold" font-size="40.0" fill="#000000" transform="matrix(1.00, 0.00, -0.00, -1.00, 354.7, 579.0)">t</text><text xml:space="preserve" font-family="Sonus-Bold" font-weight="bold" font-size="40.0" fill="#000000" transform="matrix(1.00, 0.00, -0.00, -1.00, 369.6, 579.0)">i</text><text xml:space="preserve" font-family="Sonus-Bold" font-weight="bold" font-size="40.0" fill="#000000" transform="matrix(1.00, 0.00, -0.00, -1.00, 380.7, 579.0)">o</text><text xml:space="preserve" font-family="Sonus-Bold" font-weight="bold" font-size="40.0" fill="#000000" transform="matrix(1.00, 0.00, -0.00, -1.00, 403.9, 579.0)">n</text><text xml:space="preserve" font-family="Sonus-Bold" font-weight="bold" font-size="40.0" fill="#000000" transform="matrix(1.00, 0.00, -0.00, -1.00, 427.7, 579.0)">s</text><text xml:space="preserve" font-family="Sonus-Bold" font-weight="bold" font-size="40.0" fill="#000000" transform="matrix(1.00, 0.00, -0.00, -1.00, 445.4, 579.0)"> </text><text xml:space="preserve" font-family="Sonus-Bold" font-weight="bold" font-size="40.0" fill="#000000" transform="matrix(1.00, 0.00, -0.00, -1.00, 454.0, 579.0)">a</text><text xml:space="preserve" font-family="Sonus-Bold" font-weight="bold" font-size="40.0" fill="#000000" transform="matrix(1.00, 0.00, -0.00, -1.00, 475.4, 579.0)">n</text><text xml:space="preserve" font-family="Sonus-Bold" font-weight="bold" font-size="40.0" fill="#000000" transform="matrix(1.00, 0.00, -0.00, -1.00, 499.2, 579.0)">d</text><text xml:space="preserve" font-family="Sonus-Bold" font-weight="bold" font-size="40.0" fill="#000000" transform="matrix(1.00, 0.00, -0.00, -1.00, 523.2, 579.0)"> </text><text xml:space="preserve" font-family="Sonus-Bold" font-weight="bold" font-size="40.0" fill="#000000" transform="matrix(1.00, 0.00, -0.00, -1.00, 531.8, 579.0)">e</text><text xml:space="preserve" font-family="Sonus-Bold" font-weight="bold" font-size="40.0" fill="#000000" transform="matrix(1.00, 0.00, -0.00, -1.00, 553.1, 579.0)">n</text><text xml:space="preserve" font-family="Sonus-Bold" font-weight="bold" font-size="40.0" fill="#000000" transform="matrix(1.00, 0.00, -0.00, -1.00, 577.2, 579.0)">g</text><text xml:space="preserve" font-family="Sonus-Bold" font-weight="bold" font-size="40.0" fill="#000000" transform="matrix(1.00, 0.00, -0.00, -1.00, 598.6, 579.0)">a</text><text xml:space="preserve" font-family="Sonus-Bold" font-weight="bold" font-size="40.0" fill="#000000" transform="matrix(1.00, 0.00, -0.00, -1.00, 620.3, 579.0)">g</text><text xml:space="preserve" font-family="Sonus-Bold" font-weight="bold" font-size="40.0" fill="#000000" transform="matrix(1.00, 0.00, -0.00, -1.00, 641.9, 579.0)">e</text><text xml:space="preserve" font-family="Sonus-Bold" font-weight="bold" font-size="40.0" fill="#000000" transform="matrix(1.00, 0.00, -0.00, -1.00, 663.2, 579.0)">m</text><text xml:space="preserve" font-family="Sonus-Bold" font-weight="bold" font-size="40.0" fill="#000000" transform="matrix(1.00, 0.00, -0.00, -1.00, 699.3, 579.0)">e</text><text xml:space="preserve" font-family="Sonus-Bold" font-weight="bold" font-size="40.0" fill="#000000" transform="matrix(1.00, 0.00, -0.00, -1.00, 720.6, 579.0)">n</text><text xml:space="preserve" font-family="Sonus-Bold" font-weight="bold" font-size="40.0" fill="#000000" transform="matrix(1.00, 0.00, -0.00, -1.00, 744.4, 579.0)">t</text><text xml:space="preserve" font-family="Sonus-Bold" font-weight="bold" font-size="40.0" fill="#000000" transform="matrix(1.00, 0.00, -0.00, -1.00, 760.8, 579.0)">.</text><text xml:space="preserve" font-family="Sonus-Light" font-size="20.0" fill="#5D5D5D" transform="matrix(1.00, 0.00, -0.00, -1.00, 75.0, 391.0)">M</text><text xml:space="preserve" font-family="Sonus-Light" font-size="20.0" fill="#5D5D5D" transform="matrix(1.00, 0.00, -0.00, -1.00, 90.9, 391.0)">a</text><text xml:space="preserve" font-family="Sonus-Light" font-size="20.0" fill="#5D5D5D" transform="matrix(1.00, 0.00, -0.00, -1.00, 100.9, 391.0)">r</text><text xml:space="preserve" font-family="Sonus-Light" font-size="20.0" fill="#5D5D5D" transform="matrix(1.00, 0.00, -0.00, -1.00, 107.8, 391.0)">r</text><text xml:space="preserve" font-family="Sonus-Light" font-size="20.0" fill="#5D5D5D" transform="matrix(1.00, 0.00, -0.00, -1.00, 114.5, 391.0)">i</text><text xml:space="preserve" font-family="Sonus-Light" font-size="20.0" fill="#5D5D5D" transform="matrix(1.00, 0.00, -0.00, -1.00, 119.1, 391.0)">o</text><text xml:space="preserve" font-family="Sonus-Light" font-size="20.0" fill="#5D5D5D" transform="matrix(1.00, 0.00, -0.00, -1.00, 129.9, 391.0)">t</text><text xml:space="preserve" font-family="Sonus-Light" font-size="20.0" fill="#5D5D5D" transform="matrix(1.00, 0.00, -0.00, -1.00, 136.4, 391.0)">t</text><text xml:space="preserve" font-family="Sonus-Light" font-size="20.0" fill="#5D5D5D" transform="matrix(1.00, 0.00, -0.00, -1.00, 142.9, 391.0)"> </text><text xml:space="preserve" font-family="Sonus-Light" font-size="20.0" fill="#5D5D5D" transform="matrix(1.00, 0.00, -0.00, -1.00, 147.2, 391.0)">e</text><text xml:space="preserve" font-family="Sonus-Light" font-size="20.0" fill="#5D5D5D" transform="matrix(1.00, 0.00, -0.00, -1.00, 157.2, 391.0)">n</text><text xml:space="preserve" font-family="Sonus-Light" font-size="20.0" fill="#5D5D5D" transform="matrix(1.00, 0.00, -0.00, -1.00, 168.3, 391.0)">c</text><text xml:space="preserve" font-family="Sonus-Light" font-size="20.0" fill="#5D5D5D" transform="matrix(1.00, 0.00, -0.00, -1.00, 177.4, 391.0)">o</text><text xml:space="preserve" font-family="Sonus-Light" font-size="20.0" fill="#5D5D5D" transform="matrix(1.00, 0.00, -0.00, -1.00, 188.2, 391.0)">u</text><text xml:space="preserve" font-family="Sonus-Light" font-size="20.0" fill="#5D5D5D" transform="matrix(1.00, 0.00, -0.00, -1.00, 199.4, 391.0)">r</text><text xml:space="preserve" font-family="Sonus-Light" font-size="20.0" fill="#5D5D5D" transform="matrix(1.00, 0.00, -0.00, -1.00, 206.0, 391.0)">a</text><text xml:space="preserve" font-family="Sonus-Light" font-size="20.0" fill="#5D5D5D" transform="matrix(1.00, 0.00, -0.00, -1.00, 216.1, 391.0)">g</text><text xml:space="preserve" font-family="Sonus-Light" font-size="20.0" fill="#5D5D5D" transform="matrix(1.00, 0.00, -0.00, -1.00, 226.0, 391.0)">e</text><text xml:space="preserve" font-family="Sonus-Light" font-size="20.0" fill="#5D5D5D" transform="matrix(1.00, 0.00, -0.00, -1.00, 236.1, 391.0)">s</text><text xml:space="preserve" font-family="Sonus-Light" font-size="20.0" fill="#5D5D5D" transform="matrix(1.00, 0.00, -0.00, -1.00, 244.1, 391.0)"> </text><text xml:space="preserve" font-family="Sonus-Light" font-size="20.0" fill="#5D5D5D" transform="matrix(1.00, 0.00, -0.00, -1.00, 248.5, 391.0)">p</text><text xml:space="preserve" font-family="Sonus-Light" font-size="20.0" fill="#5D5D5D" transform="matrix(1.00, 0.00, -0.00, -1.00, 259.5, 391.0)">o</text><text xml:space="preserve" font-family="Sonus-Light" font-size="20.0" fill="#5D5D5D" transform="matrix(1.00, 0.00, -0.00, -1.00, 270.3, 391.0)">t</text><text xml:space="preserve" font-family="Sonus-Light" font-size="20.0" fill="#5D5D5D" transform="matrix(1.00, 0.00, -0.00, -1.00, 276.8, 391.0)">e</text><text xml:space="preserve" font-family="Sonus-Light" font-size="20.0" fill="#5D5D5D" transform="matrix(1.00, 0.00, -0.00, -1.00, 286.9, 391.0)">n</text><text xml:space="preserve" font-family="Sonus-Light" font-size="20.0" fill="#5D5D5D" transform="matrix(1.00, 0.00, -0.00, -1.00, 297.9, 391.0)">t</text><text xml:space="preserve" font-family="Sonus-Light" font-size="20.0" fill="#5D5D5D" transform="matrix(1.00, 0.00, -0.00, -1.00, 304.4, 391.0)">i</text><text xml:space="preserve" font-family="Sonus-Light" font-size="20.0" fill="#5D5D5D" transform="matrix(1.00, 0.00, -0.00, -1.00, 309.0, 391.0)">a</text><text xml:space="preserve" font-family="Sonus-Light" font-size="20.0" fill="#5D5D5D" transform="matrix(1.00, 0.00, -0.00, -1.00, 319.0, 391.0)">l</text><text xml:space="preserve" font-family="Sonus-Light" font-size="20.0" fill="#5D5D5D" transform="matrix(1.00, 0.00, -0.00, -1.00, 323.6, 391.0)"> </text><text xml:space="preserve" font-family="Sonus-Light" font-size="20.0" fill="#5D5D5D" transform="matrix(1.00, 0.00, -0.00, -1.00, 327.9, 391.0)">c</text><text xml:space="preserve" font-family="Sonus-Light" font-size="20.0" fill="#5D5D5D" transform="matrix(1.00, 0.00, -0.00, -1.00, 337.1, 391.0)">a</text><text xml:space="preserve" font-family="Sonus-Light" font-size="20.0" fill="#5D5D5D" transform="matrix(1.00, 0.00, -0.00, -1.00, 347.0, 391.0)">n</text><text xml:space="preserve" font-family="Sonus-Light" font-size="20.0" fill="#5D5D5D" transform="matrix(1.00, 0.00, -0.00, -1.00, 358.1, 391.0)">d</text><text xml:space="preserve" font-family="Sonus-Light" font-size="20.0" fill="#5D5D5D" transform="matrix(1.00, 0.00, -0.00, -1.00, 369.2, 391.0)">i</text><text xml:space="preserve" font-family="Sonus-Light" font-size="20.0" fill="#5D5D5D" transform="matrix(1.00, 0.00, -0.00, -1.00, 373.8, 391.0)">d</text><text xml:space="preserve" font-family="Sonus-Light" font-size="20.0" fill="#5D5D5D" transform="matrix(1.00, 0.00, -0.00, -1.00, 384.8, 391.0)">a</text><text xml:space="preserve" font-family="Sonus-Light" font-size="20.0" fill="#5D5D5D" transform="matrix(1.00, 0.00, -0.00, -1.00, 394.8, 391.0)">t</text><text xml:space="preserve" font-family="Sonus-Light" font-size="20.0" fill="#5D5D5D" transform="matrix(1.00, 0.00, -0.00, -1.00, 401.3, 391.0)">e</text><text xml:space="preserve" font-family="Sonus-Light" font-size="20.0" fill="#5D5D5D" transform="matrix(1.00, 0.00, -0.00, -1.00, 411.4, 391.0)">s</text><text xml:space="preserve" font-family="Sonus-Light" font-size="20.0" fill="#5D5D5D" transform="matrix(1.00, 0.00, -0.00, -1.00, 419.5, 391.0)"> </text><text xml:space="preserve" font-family="Sonus-Light" font-size="20.0" fill="#5D5D5D" transform="matrix(1.00, 0.00, -0.00, -1.00, 423.8, 391.0)">t</text><text xml:space="preserve" font-family="Sonus-Light" font-size="20.0" fill="#5D5D5D" transform="matrix(1.00, 0.00, -0.00, -1.00, 430.3, 391.0)">o</text><text xml:space="preserve" font-family="Sonus-Light" font-size="20.0" fill="#5D5D5D" transform="matrix(1.00, 0.00, -0.00, -1.00, 441.1, 391.0)"> </text><text xml:space="preserve" font-family="Sonus-Light" font-size="20.0" fill="#5D5D5D" transform="matrix(1.00, 0.00, -0.00, -1.00, 75.0, 362.0)">i</text><text xml:space="preserve" font-family="Sonus-Light" font-size="20.0" fill="#5D5D5D" transform="matrix(1.00, 0.00, -0.00, -1.00, 79.6, 362.0)">n</text><text xml:space="preserve" font-family="Sonus-Light" font-size="20.0" fill="#5D5D5D" transform="matrix(1.00, 0.00, -0.00, -1.00, 90.7, 362.0)">t</text><text xml:space="preserve" font-family="Sonus-Light" font-size="20.0" fill="#5D5D5D" transform="matrix(1.00, 0.00, -0.00, -1.00, 97.2, 362.0)">e</text><text xml:space="preserve" font-family="Sonus-Light" font-size="20.0" fill="#5D5D5D" transform="matrix(1.00, 0.00, -0.00, -1.00, 107.2, 362.0)">r</text><text xml:space="preserve" font-family="Sonus-Light" font-size="20.0" fill="#5D5D5D" transform="matrix(1.00, 0.00, -0.00, -1.00, 113.8, 362.0)">a</text><text xml:space="preserve" font-family="Sonus-Light" font-size="20.0" fill="#5D5D5D" transform="matrix(1.00, 0.00, -0.00, -1.00, 123.8, 362.0)">c</text><text xml:space="preserve" font-family="Sonus-Light" font-size="20.0" fill="#5D5D5D" transform="matrix(1.00, 0.00, -0.00, -1.00, 133.1, 362.0)">t</text><text xml:space="preserve" font-family="Sonus-Light" font-size="20.0" fill="#5D5D5D" transform="matrix(1.00, 0.00, -0.00, -1.00, 139.6, 362.0)"> </text><text xml:space="preserve" font-family="Sonus-Light" font-size="20.0" fill="#5D5D5D" transform="matrix(1.00, 0.00, -0.00, -1.00, 143.9, 362.0)">w</text><text xml:space="preserve" font-family="Sonus-Light" font-size="20.0" fill="#5D5D5D" transform="matrix(1.00, 0.00, -0.00, -1.00, 157.7, 362.0)">i</text><text xml:space="preserve" font-family="Sonus-Light" font-size="20.0" fill="#5D5D5D" transform="matrix(1.00, 0.00, -0.00, -1.00, 162.3, 362.0)">t</text><text xml:space="preserve" font-family="Sonus-Light" font-size="20.0" fill="#5D5D5D" transform="matrix(1.00, 0.00, -0.00, -1.00, 168.8, 362.0)">h</text><text xml:space="preserve" font-family="Sonus-Light" font-size="20.0" fill="#5D5D5D" transform="matrix(1.00, 0.00, -0.00, -1.00, 180.0, 362.0)"> </text><text xml:space="preserve" font-family="Sonus-Light" font-size="20.0" fill="#5D5D5D" transform="matrix(1.00, 0.00, -0.00, -1.00, 184.3, 362.0)">t</text><text xml:space="preserve" font-family="Sonus-Light" font-size="20.0" fill="#5D5D5D" transform="matrix(1.00, 0.00, -0.00, -1.00, 190.8, 362.0)">h</text><text xml:space="preserve" font-family="Sonus-Light" font-size="20.0" fill="#5D5D5D" transform="matrix(1.00, 0.00, -0.00, -1.00, 202.0, 362.0)">e</text><text xml:space="preserve" font-family="Sonus-Light" font-size="20.0" fill="#5D5D5D" transform="matrix(1.00, 0.00, -0.00, -1.00, 212.1, 362.0)">m</text><text xml:space="preserve" font-family="Sonus-Light" font-size="20.0" fill="#5D5D5D" transform="matrix(1.00, 0.00, -0.00, -1.00, 229.5, 362.0)"> </text><text xml:space="preserve" font-family="Sonus-Light" font-size="20.0" fill="#5D5D5D" transform="matrix(1.00, 0.00, -0.00, -1.00, 233.8, 362.0)">t</text><text xml:space="preserve" font-family="Sonus-Light" font-size="20.0" fill="#5D5D5D" transform="matrix(1.00, 0.00, -0.00, -1.00, 240.3, 362.0)">h</text><text xml:space="preserve" font-family="Sonus-Light" font-size="20.0" fill="#5D5D5D" transform="matrix(1.00, 0.00, -0.00, -1.00, 251.5, 362.0)">r</text><text xml:space="preserve" font-family="Sonus-Light" font-size="20.0" fill="#5D5D5D" transform="matrix(1.00, 0.00, -0.00, -1.00, 258.0, 362.0)">o</text><text xml:space="preserve" font-family="Sonus-Light" font-size="20.0" fill="#5D5D5D" transform="matrix(1.00, 0.00, -0.00, -1.00, 268.8, 362.0)">u</text><text xml:space="preserve" font-family="Sonus-Light" font-size="20.0" fill="#5D5D5D" transform="matrix(1.00, 0.00, -0.00, -1.00, 280.0, 362.0)">g</text><text xml:space="preserve" font-family="Sonus-Light" font-size="20.0" fill="#5D5D5D" transform="matrix(1.00, 0.00, -0.00, -1.00, 289.9, 362.0)">h</text><text xml:space="preserve" font-family="Sonus-Light" font-size="20.0" fill="#5D5D5D" transform="matrix(1.00, 0.00, -0.00, -1.00, 301.1, 362.0)"> </text><text xml:space="preserve" font-family="Sonus-Light" font-size="20.0" fill="#5D5D5D" transform="matrix(1.00, 0.00, -0.00, -1.00, 305.5, 362.0)">s</text><text xml:space="preserve" font-family="Sonus-Light" font-size="20.0" fill="#5D5D5D" transform="matrix(1.00, 0.00, -0.00, -1.00, 313.7, 362.0)">e</text><text xml:space="preserve" font-family="Sonus-Light" font-size="20.0" fill="#5D5D5D" transform="matrix(1.00, 0.00, -0.00, -1.00, 323.7, 362.0)">v</text><text xml:space="preserve" font-family="Sonus-Light" font-size="20.0" fill="#5D5D5D" transform="matrix(1.00, 0.00, -0.00, -1.00, 332.7, 362.0)">e</text><text xml:space="preserve" font-family="Sonus-Light" font-size="20.0" fill="#5D5D5D" transform="matrix(1.00, 0.00, -0.00, -1.00, 342.8, 362.0)">r</text><text xml:space="preserve" font-family="Sonus-Light" font-size="20.0" fill="#5D5D5D" transform="matrix(1.00, 0.00, -0.00, -1.00, 349.4, 362.0)">a</text><text xml:space="preserve" font-family="Sonus-Light" font-size="20.0" fill="#5D5D5D" transform="matrix(1.00, 0.00, -0.00, -1.00, 359.4, 362.0)">l</text><text xml:space="preserve" font-family="Sonus-Light" font-size="20.0" fill="#5D5D5D" transform="matrix(1.00, 0.00, -0.00, -1.00, 364.0, 362.0)"> </text><text xml:space="preserve" font-family="Sonus-Light" font-size="20.0" fill="#5D5D5D" transform="matrix(1.00, 0.00, -0.00, -1.00, 368.3, 362.0)">d</text><text xml:space="preserve" font-family="Sonus-Light" font-size="20.0" fill="#5D5D5D" transform="matrix(1.00, 0.00, -0.00, -1.00, 379.3, 362.0)">i</text><text xml:space="preserve" font-family="Sonus-Light" font-size="20.0" fill="#5D5D5D" transform="matrix(1.00, 0.00, -0.00, -1.00, 383.9, 362.0)">ﬀ</text><text xml:space="preserve" font-family="Sonus-Light" font-size="20.0" fill="#5D5D5D" transform="matrix(1.00, 0.00, -0.00, -1.00, 395.6, 362.0)">e</text><text xml:space="preserve" font-family="Sonus-Light" font-size="20.0" fill="#5D5D5D" transform="matrix(1.00, 0.00, -0.00, -1.00, 405.6, 362.0)">r</text><text xml:space="preserve" font-family="Sonus-Light" font-size="20.0" fill="#5D5D5D" transform="matrix(1.00, 0.00, -0.00, -1.00, 412.1, 362.0)">e</text><text xml:space="preserve" font-family="Sonus-Light" font-size="20.0" fill="#5D5D5D" transform="matrix(1.00, 0.00, -0.00, -1.00, 422.2, 362.0)">n</text><text xml:space="preserve" font-family="Sonus-Light" font-size="20.0" fill="#5D5D5D" transform="matrix(1.00, 0.00, -0.00, -1.00, 433.3, 362.0)">t</text><text xml:space="preserve" font-family="Sonus-Light" font-size="20.0" fill="#5D5D5D" transform="matrix(1.00, 0.00, -0.00, -1.00, 439.8, 362.0)"> </text><text xml:space="preserve" font-family="Sonus-Light" font-size="20.0" fill="#5D5D5D" transform="matrix(1.00, 0.00, -0.00, -1.00, 75.0, 333.0)">s</text><text xml:space="preserve" font-family="Sonus-Light" font-size="20.0" fill="#5D5D5D" transform="matrix(1.00, 0.00, -0.00, -1.00, 83.2, 333.0)">o</text><text xml:space="preserve" font-family="Sonus-Light" font-size="20.0" fill="#5D5D5D" transform="matrix(1.00, 0.00, -0.00, -1.00, 94.0, 333.0)">c</text><text xml:space="preserve" font-family="Sonus-Light" font-size="20.0" fill="#5D5D5D" transform="matrix(1.00, 0.00, -0.00, -1.00, 103.1, 333.0)">i</text><text xml:space="preserve" font-family="Sonus-Light" font-size="20.0" fill="#5D5D5D" transform="matrix(1.00, 0.00, -0.00, -1.00, 107.7, 333.0)">a</text><text xml:space="preserve" font-family="Sonus-Light" font-size="20.0" fill="#5D5D5D" transform="matrix(1.00, 0.00, -0.00, -1.00, 117.6, 333.0)">l</text><text xml:space="preserve" font-family="Sonus-Light" font-size="20.0" fill="#5D5D5D" transform="matrix(1.00, 0.00, -0.00, -1.00, 122.2, 333.0)"> </text><text xml:space="preserve" font-family="Sonus-Light" font-size="20.0" fill="#5D5D5D" transform="matrix(1.00, 0.00, -0.00, -1.00, 126.6, 333.0)">m</text><text xml:space="preserve" font-family="Sonus-Light" font-size="20.0" fill="#5D5D5D" transform="matrix(1.00, 0.00, -0.00, -1.00, 143.9, 333.0)">e</text><text xml:space="preserve" font-family="Sonus-Light" font-size="20.0" fill="#5D5D5D" transform="matrix(1.00, 0.00, -0.00, -1.00, 154.0, 333.0)">d</text><text xml:space="preserve" font-family="Sonus-Light" font-size="20.0" fill="#5D5D5D" transform="matrix(1.00, 0.00, -0.00, -1.00, 165.0, 333.0)">i</text><text xml:space="preserve" font-family="Sonus-Light" font-size="20.0" fill="#5D5D5D" transform="matrix(1.00, 0.00, -0.00, -1.00, 169.6, 333.0)">a</text><text xml:space="preserve" font-family="Sonus-Light" font-size="20.0" fill="#5D5D5D" transform="matrix(1.00, 0.00, -0.00, -1.00, 179.6, 333.0)"> </text><text xml:space="preserve" font-family="Sonus-Light" font-size="20.0" fill="#5D5D5D" transform="matrix(1.00, 0.00, -0.00, -1.00, 183.9, 333.0)">n</text><text xml:space="preserve" font-family="Sonus-Light" font-size="20.0" fill="#5D5D5D" transform="matrix(1.00, 0.00, -0.00, -1.00, 195.0, 333.0)">e</text><text xml:space="preserve" font-family="Sonus-Light" font-size="20.0" fill="#5D5D5D" transform="matrix(1.00, 0.00, -0.00, -1.00, 205.1, 333.0)">t</text><text xml:space="preserve" font-family="Sonus-Light" font-size="20.0" fill="#5D5D5D" transform="matrix(1.00, 0.00, -0.00, -1.00, 211.6, 333.0)">w</text><text xml:space="preserve" font-family="Sonus-Light" font-size="20.0" fill="#5D5D5D" transform="matrix(1.00, 0.00, -0.00, -1.00, 225.4, 333.0)">o</text><text xml:space="preserve" font-family="Sonus-Light" font-size="20.0" fill="#5D5D5D" transform="matrix(1.00, 0.00, -0.00, -1.00, 236.2, 333.0)">r</text><text xml:space="preserve" font-family="Sonus-Light" font-size="20.0" fill="#5D5D5D" transform="matrix(1.00, 0.00, -0.00, -1.00, 243.1, 333.0)">k</text><text xml:space="preserve" font-family="Sonus-Light" font-size="20.0" fill="#5D5D5D" transform="matrix(1.00, 0.00, -0.00, -1.00, 252.8, 333.0)">s</text><text xml:space="preserve" font-family="Sonus-Light" font-size="20.0" fill="#5D5D5D" transform="matrix(1.00, 0.00, -0.00, -1.00, 261.0, 333.0)">.</text><text xml:space="preserve" font-family="Sonus-Light" font-size="20.0" fill="#5D5D5D" transform="matrix(1.00, 0.00, -0.00, -1.00, 264.8, 333.0)"> </text><g><clipPath id="clip-19284"><path d="M 529.9 51.8 L 1208.4 51.8 L 1208.4 89.3 L 529.9 89.3 Z M 529.9 51.8 "></path></clipPath><g clip-path="url(#clip-19284)"><text xml:space="preserve" font-family="Sonus-Light" font-size="14.0" fill="#A6AAA8" transform="matrix(1.00, 0.00, -0.00, -1.00, 893.3, 54.5)">h</text><text xml:space="preserve" font-family="Sonus-Light" font-size="14.0" fill="#A6AAA8" transform="matrix(1.00, 0.00, -0.00, -1.00, 901.2, 54.5)">t</text><text xml:space="preserve" font-family="Sonus-Light" font-size="14.0" fill="#A6AAA8" transform="matrix(1.00, 0.00, -0.00, -1.00, 905.7, 54.5)">t</text><text xml:space="preserve" font-family="Sonus-Light" font-size="14.0" fill="#A6AAA8" transform="matrix(1.00, 0.00, -0.00, -1.00, 910.3, 54.5)">p</text><text xml:space="preserve" font-family="Sonus-Light" font-size="14.0" fill="#A6AAA8" transform="matrix(1.00, 0.00, -0.00, -1.00, 918.0, 54.5)">:</text><text xml:space="preserve" font-family="Sonus-Light" font-size="14.0" fill="#A6AAA8" transform="matrix(1.00, 0.00, -0.00, -1.00, 920.9, 54.5)">/</text><text xml:space="preserve" font-family="Sonus-Light" font-size="14.0" fill="#A6AAA8" transform="matrix(1.00, 0.00, -0.00, -1.00, 926.2, 54.5)">/</text><text xml:space="preserve" font-family="Sonus-Light" font-size="14.0" fill="#A6AAA8" transform="matrix(1.00, 0.00, -0.00, -1.00, 931.5, 54.5)">w</text><text xml:space="preserve" font-family="Sonus-Light" font-size="14.0" fill="#A6AAA8" transform="matrix(1.00, 0.00, -0.00, -1.00, 941.1, 54.5)">w</text><text xml:space="preserve" font-family="Sonus-Light" font-size="14.0" fill="#A6AAA8" transform="matrix(1.00, 0.00, -0.00, -1.00, 950.8, 54.5)">w</text><text xml:space="preserve" font-family="Sonus-Light" font-size="14.0" fill="#A6AAA8" transform="matrix(1.00, 0.00, -0.00, -1.00, 959.8, 54.5)">.</text><text xml:space="preserve" font-family="Sonus-Light" font-size="14.0" fill="#A6AAA8" transform="matrix(1.00, 0.00, -0.00, -1.00, 962.5, 54.5)">m</text><text xml:space="preserve" font-family="Sonus-Light" font-size="14.0" fill="#A6AAA8" transform="matrix(1.00, 0.00, -0.00, -1.00, 974.6, 54.5)">a</text><text xml:space="preserve" font-family="Sonus-Light" font-size="14.0" fill="#A6AAA8" transform="matrix(1.00, 0.00, -0.00, -1.00, 981.6, 54.5)">r</text><text xml:space="preserve" font-family="Sonus-Light" font-size="14.0" fill="#A6AAA8" transform="matrix(1.00, 0.00, -0.00, -1.00, 986.4, 54.5)">r</text><text xml:space="preserve" font-family="Sonus-Light" font-size="14.0" fill="#A6AAA8" transform="matrix(1.00, 0.00, -0.00, -1.00, 991.1, 54.5)">i</text><text xml:space="preserve" font-family="Sonus-Light" font-size="14.0" fill="#A6AAA8" transform="matrix(1.00, 0.00, -0.00, -1.00, 994.3, 54.5)">o</text><text xml:space="preserve" font-family="Sonus-Light" font-size="14.0" fill="#A6AAA8" transform="matrix(1.00, 0.00, -0.00, -1.00, 1001.9, 54.5)">t</text><text xml:space="preserve" font-family="Sonus-Light" font-size="14.0" fill="#A6AAA8" transform="matrix(1.00, 0.00, -0.00, -1.00, 1006.4, 54.5)">t</text><text xml:space="preserve" font-family="Sonus-Light" font-size="14.0" fill="#A6AAA8" transform="matrix(1.00, 0.00, -0.00, -1.00, 1011.4, 54.5)">.</text><text xml:space="preserve" font-family="Sonus-Light" font-size="14.0" fill="#A6AAA8" transform="matrix(1.00, 0.00, -0.00, -1.00, 1014.1, 54.5)">c</text><text xml:space="preserve" font-family="Sonus-Light" font-size="14.0" fill="#A6AAA8" transform="matrix(1.00, 0.00, -0.00, -1.00, 1020.4, 54.5)">o</text><text xml:space="preserve" font-family="Sonus-Light" font-size="14.0" fill="#A6AAA8" transform="matrix(1.00, 0.00, -0.00, -1.00, 1028.0, 54.5)">m</text><text xml:space="preserve" font-family="Sonus-Light" font-size="14.0" fill="#A6AAA8" transform="matrix(1.00, 0.00, -0.00, -1.00, 1040.4, 54.5)">/</text><text xml:space="preserve" font-family="Sonus-Light" font-size="14.0" fill="#A6AAA8" transform="matrix(1.00, 0.00, -0.00, -1.00, 1044.9, 54.5)">c</text><text xml:space="preserve" font-family="Sonus-Light" font-size="14.0" fill="#A6AAA8" transform="matrix(1.00, 0.00, -0.00, -1.00, 1051.2, 54.5)">a</text><text xml:space="preserve" font-family="Sonus-Light" font-size="14.0" fill="#A6AAA8" transform="matrix(1.00, 0.00, -0.00, -1.00, 1058.2, 54.5)">r</text><text xml:space="preserve" font-family="Sonus-Light" font-size="14.0" fill="#A6AAA8" transform="matrix(1.00, 0.00, -0.00, -1.00, 1062.8, 54.5)">e</text><text xml:space="preserve" font-family="Sonus-Light" font-size="14.0" fill="#A6AAA8" transform="matrix(1.00, 0.00, -0.00, -1.00, 1069.8, 54.5)">e</text><text xml:space="preserve" font-family="Sonus-Light" font-size="14.0" fill="#A6AAA8" transform="matrix(1.00, 0.00, -0.00, -1.00, 1076.9, 54.5)">r</text><text xml:space="preserve" font-family="Sonus-Light" font-size="14.0" fill="#A6AAA8" transform="matrix(1.00, 0.00, -0.00, -1.00, 1081.5, 54.5)">s</text><text xml:space="preserve" font-family="Sonus-Light" font-size="14.0" fill="#A6AAA8" transform="matrix(1.00, 0.00, -0.00, -1.00, 1087.2, 54.5)">/</text><text xml:space="preserve" font-family="Sonus-Light" font-size="14.0" fill="#A6AAA8" transform="matrix(1.00, 0.00, -0.00, -1.00, 1091.6, 54.5)">c</text><text xml:space="preserve" font-family="Sonus-Light" font-size="14.0" fill="#A6AAA8" transform="matrix(1.00, 0.00, -0.00, -1.00, 1097.9, 54.5)">o</text><text xml:space="preserve" font-family="Sonus-Light" font-size="14.0" fill="#A6AAA8" transform="matrix(1.00, 0.00, -0.00, -1.00, 1105.5, 54.5)">n</text><text xml:space="preserve" font-family="Sonus-Light" font-size="14.0" fill="#A6AAA8" transform="matrix(1.00, 0.00, -0.00, -1.00, 1113.2, 54.5)">n</text><text xml:space="preserve" font-family="Sonus-Light" font-size="14.0" fill="#A6AAA8" transform="matrix(1.00, 0.00, -0.00, -1.00, 1121.0, 54.5)">e</text><text xml:space="preserve" font-family="Sonus-Light" font-size="14.0" fill="#A6AAA8" transform="matrix(1.00, 0.00, -0.00, -1.00, 1128.0, 54.5)">c</text><text xml:space="preserve" font-family="Sonus-Light" font-size="14.0" fill="#A6AAA8" transform="matrix(1.00, 0.00, -0.00, -1.00, 1134.5, 54.5)">t</text><text xml:space="preserve" font-family="Sonus-Light" font-size="14.0" fill="#A6AAA8" transform="matrix(1.00, 0.00, -0.00, -1.00, 1139.6, 54.5)">-</text><text xml:space="preserve" font-family="Sonus-Light" font-size="14.0" fill="#A6AAA8" transform="matrix(1.00, 0.00, -0.00, -1.00, 1143.9, 54.5)">w</text><text xml:space="preserve" font-family="Sonus-Light" font-size="14.0" fill="#A6AAA8" transform="matrix(1.00, 0.00, -0.00, -1.00, 1153.5, 54.5)">i</text><text xml:space="preserve" font-family="Sonus-Light" font-size="14.0" fill="#A6AAA8" transform="matrix(1.00, 0.00, -0.00, -1.00, 1156.8, 54.5)">t</text><text xml:space="preserve" font-family="Sonus-Light" font-size="14.0" fill="#A6AAA8" transform="matrix(1.00, 0.00, -0.00, -1.00, 1161.3, 54.5)">h</text><text xml:space="preserve" font-family="Sonus-Light" font-size="14.0" fill="#A6AAA8" transform="matrix(1.00, 0.00, -0.00, -1.00, 1169.2, 54.5)">-</text><text xml:space="preserve" font-family="Sonus-Light" font-size="14.0" fill="#A6AAA8" transform="matrix(1.00, 0.00, -0.00, -1.00, 1173.4, 54.5)">u</text><text xml:space="preserve" font-family="Sonus-Light" font-size="14.0" fill="#A6AAA8" transform="matrix(1.00, 0.00, -0.00, -1.00, 1181.3, 54.5)">s</text><text xml:space="preserve" font-family="Sonus-Light" font-size="14.0" fill="#A6AAA8" transform="matrix(1.00, 0.00, -0.00, -1.00, 1187.0, 54.5)">.</text><text xml:space="preserve" font-family="Sonus-Light" font-size="14.0" fill="#A6AAA8" transform="matrix(1.00, 0.00, -0.00, -1.00, 1189.7, 54.5)">m</text><text xml:space="preserve" font-family="Sonus-Light" font-size="14.0" fill="#A6AAA8" transform="matrix(1.00, 0.00, -0.00, -1.00, 1201.8, 54.5)">i</text></g></g><g><clipPath id="clip-19285"><path d="M 892.3 52.1 L 1205.0 52.1 L 1205.0 54.8 L 892.3 54.8 Z M 892.3 52.1 "></path></clipPath><g clip-path="url(#clip-19285)"><path d="M 363.8 39.6 L 675.5 39.6 " fill="none" stroke="#A6AAA8" stroke-width="0.70" stroke-miterlimit="0.00" transform="matrix(1.00, 0.00, 0.00, -1.00, 529.5, 93.0)"></path></g></g><g><clipPath id="clip-19286"><path d="M 62.0 507.0 L 262.1 507.0 L 262.1 418.0 L 62.0 418.0 Z M 62.0 507.0 "></path></clipPath><g clip-path="url(#clip-19286)"><g><clipPath id="clip-19287"><path d="M 72.0 428.0 L 252.0 428.0 L 252.0 497.0 L 72.0 497.0 Z M 72.0 428.0 "></path></clipPath><g clip-path="url(#clip-19287)"><path d="M 238.5 435.5 C 236.3 436.7 235.9 440.0 236.0 448.1 L 236.0 460.5 L 231.7 460.5 L 232.7 462.8 L 236.0 462.8 L 236.0 468.7 L 244.0 471.6 L 244.0 463.0 L 247.6 463.0 L 246.6 460.5 L 244.0 460.5 L 243.9 439.0 C 244.1 437.3 244.7 436.3 245.5 435.5 L 238.5 435.5 Z M 160.4 488.5 C 161.0 486.9 162.4 485.1 161.4 483.2 C 161.0 481.3 159.1 479.7 157.2 479.4 C 155.1 479.2 153.2 479.5 151.7 480.8 C 150.6 486.4 152.9 491.6 157.3 494.7 Z M 168.3 471.3 C 167.3 467.9 157.2 470.2 154.0 475.8 C 158.2 475.3 162.9 479.0 163.0 483.2 Z M 172.4 471.8 C 172.9 472.0 173.8 472.4 174.1 473.4 L 163.2 496.9 C 162.5 497.0 162.0 497.1 161.0 496.4 Z M 177.3 476.9 C 181.9 483.9 178.1 495.3 168.1 496.9 Z M 176.3 461.8 C 177.8 463.1 180.3 463.1 182.0 462.3 C 182.7 462.0 183.4 461.5 183.8 460.9 L 180.6 455.9 C 180.2 456.2 179.9 456.4 179.4 456.6 C 177.8 457.3 176.1 456.9 175.1 456.1 L 175.1 441.6 C 175.1 439.1 175.6 436.8 176.9 435.6 L 169.6 435.6 C 168.1 436.8 167.7 438.6 167.5 440.2 L 167.5 459.5 C 167.6 461.1 167.2 461.8 166.5 462.6 L 174.1 462.6 C 174.7 462.2 174.7 461.4 175.0 460.8 Z M 185.5 457.1 C 185.4 458.9 185.9 461.1 184.7 462.7 L 191.6 462.7 C 192.1 462.3 192.4 461.8 192.5 461.2 C 192.9 460.7 192.9 460.0 193.0 459.4 L 193.1 438.9 C 193.4 437.7 193.9 436.4 194.8 435.5 L 187.3 435.5 C 184.8 437.8 185.6 441.7 185.4 445.7 Z M 203.8 442.4 C 204.2 441.1 204.9 439.5 206.4 439.3 C 207.3 439.3 208.0 440.1 208.5 440.7 C 210.1 443.9 209.9 447.4 209.9 451.0 C 209.4 453.7 210.0 457.4 207.1 459.1 C 206.1 459.4 205.3 458.7 204.7 458.1 C 203.5 456.4 203.4 454.4 203.3 452.3 C 202.9 448.8 203.3 445.9 203.8 442.4 Z M 196.6 456.9 C 197.3 459.0 199.7 460.0 201.4 461.2 C 204.0 462.1 206.9 464.5 209.8 462.5 C 212.3 460.9 214.4 459.1 216.0 456.7 C 216.4 455.7 216.5 454.6 216.8 453.6 C 216.8 452.3 217.1 451.2 217.1 449.9 C 217.1 448.4 217.1 447.1 217.1 445.6 C 217.0 443.1 215.8 440.9 213.9 439.2 C 210.9 436.6 207.3 433.7 203.3 435.7 C 199.8 437.4 195.6 440.6 195.8 445.1 C 195.7 448.3 195.6 451.1 196.0 454.2 C 196.2 455.1 196.1 456.1 196.6 456.9 Z M 222.2 435.5 C 220.0 436.7 219.6 440.0 219.7 448.1 L 219.7 460.5 L 215.5 460.5 L 216.4 462.8 L 219.7 462.8 L 219.7 468.7 L 227.7 471.6 L 227.7 463.0 L 231.3 463.0 L 230.4 460.5 L 227.7 460.5 L 227.7 439.0 C 227.8 437.3 228.4 436.3 229.3 435.5 L 222.2 435.5 Z M 149.6 459.5 C 149.5 461.1 149.3 461.8 148.6 462.6 L 156.2 462.6 C 156.8 462.2 156.8 461.4 157.1 460.8 L 158.4 461.8 C 159.9 463.1 162.4 463.1 164.1 462.3 C 164.8 462.0 165.5 461.5 165.9 460.9 L 162.7 455.9 C 162.3 456.2 162.0 456.4 161.5 456.7 C 159.9 457.3 158.2 456.9 157.2 456.1 L 157.2 441.6 C 157.2 439.1 157.7 436.8 159.0 435.6 L 151.7 435.6 C 150.2 436.8 149.7 438.5 149.6 440.2 Z M 92.6 451.9 L 89.8 446.3 C 87.9 442.9 85.3 438.9 81.3 437.9 C 79.7 437.3 78.4 437.8 76.9 437.9 L 72.0 430.0 C 72.4 429.6 72.9 429.3 73.4 429.1 C 81.9 425.8 85.4 429.3 93.8 448.3 L 101.7 431.4 L 112.3 431.4 L 107.3 442.8 L 110.1 448.7 L 118.0 431.7 L 128.1 431.6 L 110.4 470.5 L 102.2 466.4 L 108.6 451.9 L 105.8 446.2 L 94.1 471.5 L 85.5 467.1 Z M 138.5 450.5 C 138.4 451.6 137.6 451.7 137.1 451.7 C 135.3 451.4 133.7 449.9 132.9 448.4 C 132.1 447.0 131.9 445.9 131.8 444.7 C 131.8 443.4 131.7 442.4 132.3 441.4 C 132.6 440.8 133.2 440.5 133.8 440.3 C 135.0 440.1 136.1 440.4 137.0 441.0 C 139.1 442.2 138.7 444.6 138.7 446.7 Z M 125.1 445.0 C 125.3 447.9 126.9 450.5 129.5 451.9 C 132.1 453.5 135.1 454.2 137.8 455.5 C 138.2 455.9 138.8 456.4 138.9 457.0 C 138.9 457.8 138.5 458.3 137.8 458.6 C 133.8 459.5 130.4 456.9 127.4 454.4 C 127.8 456.2 128.1 458.3 129.0 460.0 C 129.4 460.5 129.7 461.1 130.2 461.5 C 133.1 462.9 136.7 463.3 140.0 463.1 C 142.6 462.9 145.1 461.0 146.0 458.6 C 146.4 457.5 146.4 456.2 146.5 455.0 L 146.5 439.3 C 146.5 437.9 147.2 436.6 148.0 435.5 L 140.5 435.5 C 139.5 436.3 139.1 437.4 138.9 438.6 C 136.7 436.8 132.3 434.0 129.7 435.9 C 127.0 437.1 124.5 441.2 125.1 445.0 Z M 249.3 437.4 L 249.4 437.4 L 249.6 437.4 C 249.7 437.4 249.8 437.4 249.8 437.4 C 249.9 437.3 250.0 437.3 250.0 437.2 C 250.0 437.1 250.0 437.0 250.1 436.9 C 250.1 436.7 250.1 436.6 250.1 436.5 L 250.8 436.5 L 250.7 436.6 C 250.7 436.6 250.7 436.6 250.7 436.7 C 250.7 436.7 250.7 436.7 250.7 436.7 L 250.7 437.0 C 250.7 437.2 250.6 437.4 250.5 437.6 C 250.4 437.6 250.3 437.7 250.1 437.7 C 250.3 437.7 250.4 437.8 250.6 437.9 C 250.7 438.0 250.7 438.1 250.7 438.4 C 250.7 438.6 250.6 438.9 250.4 439.0 C 250.2 439.1 250.1 439.1 249.9 439.1 L 248.6 439.1 L 248.6 436.5 L 249.3 436.5 Z M 249.9 438.0 C 249.8 437.9 249.7 437.9 249.6 437.9 L 249.3 437.9 L 249.3 438.7 L 249.5 438.7 C 249.6 438.7 249.8 438.7 249.9 438.6 C 250.0 438.6 250.1 438.5 250.1 438.3 C 250.1 438.2 250.0 438.1 249.9 438.0 Z M 251.3 439.5 C 250.9 440.0 250.3 440.2 249.6 440.2 C 249.0 440.2 248.5 440.0 248.0 439.5 C 247.5 439.1 247.3 438.5 247.3 437.8 C 247.3 437.2 247.5 436.6 248.0 436.1 C 248.4 435.7 249.0 435.5 249.6 435.5 C 250.3 435.5 250.8 435.7 251.3 436.1 C 251.8 436.6 252.0 437.2 252.0 437.8 C 252.0 438.5 251.8 439.0 251.3 439.5 M 251.0 439.2 C 251.4 438.8 251.6 438.4 251.6 437.8 C 251.6 437.3 251.4 436.8 251.0 436.4 C 250.6 436.1 250.2 435.9 249.6 435.9 C 249.1 435.9 248.6 436.1 248.3 436.4 C 247.9 436.8 247.7 437.3 247.7 437.8 C 247.7 438.4 247.9 438.8 248.3 439.2 C 248.6 439.6 249.1 439.8 249.6 439.8 C 250.2 439.8 250.6 439.6 251.0 439.2 " fill="#C50000"></path></g></g></g></g></g></svg>