<?xml version="1.0" encoding="UTF-8" standalone="no"?><svg xmlns="http://www.w3.org/2000/svg" xmlns:xlink="http://www.w3.org/1999/xlink" clip-rule="evenodd" stroke-miterlimit="4.00" viewBox="0 0 239 18"><desc>SVG generated by Keynote</desc><defs></defs><g transform="matrix(1.00, 0.00, -0.00, -1.00, 0.0, 18.0)"><text xml:space="preserve" font-family="AkkuratStd" font-size="14.0" fill="#52575F" transform="matrix(1.00, 0.00, -0.00, -1.00, 1.0, 5.0)">d</text><text xml:space="preserve" font-family="AkkuratStd" font-size="14.0" fill="#52575F" transform="matrix(1.00, 0.00, -0.00, -1.00, 9.3, 5.0)">e</text><text xml:space="preserve" font-family="AkkuratStd" font-size="14.0" fill="#52575F" transform="matrix(1.00, 0.00, -0.00, -1.00, 17.0, 5.0)">v</text><text xml:space="preserve" font-family="AkkuratStd" font-size="14.0" fill="#52575F" transform="matrix(1.00, 0.00, -0.00, -1.00, 23.7, 5.0)">e</text><text xml:space="preserve" font-family="AkkuratStd" font-size="14.0" fill="#52575F" transform="matrix(1.00, 0.00, -0.00, -1.00, 31.4, 5.0)">l</text><text xml:space="preserve" font-family="AkkuratStd" font-size="14.0" fill="#52575F" transform="matrix(1.00, 0.00, -0.00, -1.00, 35.4, 5.0)">o</text><text xml:space="preserve" font-family="AkkuratStd" font-size="14.0" fill="#52575F" transform="matrix(1.00, 0.00, -0.00, -1.00, 43.2, 5.0)">p</text><text xml:space="preserve" font-family="AkkuratStd" font-size="14.0" fill="#52575F" transform="matrix(1.00, 0.00, -0.00, -1.00, 51.6, 5.0)">m</text><text xml:space="preserve" font-family="AkkuratStd" font-size="14.0" fill="#52575F" transform="matrix(1.00, 0.00, -0.00, -1.00, 63.9, 5.0)">e</text><text xml:space="preserve" font-family="AkkuratStd" font-size="14.0" fill="#52575F" transform="matrix(1.00, 0.00, -0.00, -1.00, 71.6, 5.0)">n</text><text xml:space="preserve" font-family="AkkuratStd" font-size="14.0" fill="#52575F" transform="matrix(1.00, 0.00, -0.00, -1.00, 79.8, 5.0)">t</text><text xml:space="preserve" font-family="AkkuratStd" font-size="14.0" fill="#52575F" transform="matrix(1.00, 0.00, -0.00, -1.00, 85.2, 5.0)"> </text><text xml:space="preserve" font-family="AkkuratStd" font-size="14.0" fill="#52575F" transform="matrix(1.00, 0.00, -0.00, -1.00, 88.4, 5.0)">o</text><text xml:space="preserve" font-family="AkkuratStd" font-size="14.0" fill="#52575F" transform="matrix(1.00, 0.00, -0.00, -1.00, 96.2, 5.0)">n</text><text xml:space="preserve" font-family="AkkuratStd" font-size="14.0" fill="#52575F" transform="matrix(1.00, 0.00, -0.00, -1.00, 104.4, 5.0)"> </text><text xml:space="preserve" font-family="AkkuratStd" font-size="14.0" fill="#52575F" transform="matrix(1.00, 0.00, -0.00, -1.00, 107.6, 5.0)">t</text><text xml:space="preserve" font-family="AkkuratStd" font-size="14.0" fill="#52575F" transform="matrix(1.00, 0.00, -0.00, -1.00, 113.0, 5.0)">h</text><text xml:space="preserve" font-family="AkkuratStd" font-size="14.0" fill="#52575F" transform="matrix(1.00, 0.00, -0.00, -1.00, 121.2, 5.0)">e</text><text xml:space="preserve" font-family="AkkuratStd" font-size="14.0" fill="#52575F" transform="matrix(1.00, 0.00, -0.00, -1.00, 128.9, 5.0)"> </text><text xml:space="preserve" font-family="AkkuratStd" font-size="14.0" fill="#52575F" transform="matrix(1.00, 0.00, -0.00, -1.00, 132.1, 5.0)">m</text><text xml:space="preserve" font-family="AkkuratStd" font-size="14.0" fill="#52575F" transform="matrix(1.00, 0.00, -0.00, -1.00, 144.4, 5.0)">a</text><text xml:space="preserve" font-family="AkkuratStd" font-size="14.0" fill="#52575F" transform="matrix(1.00, 0.00, -0.00, -1.00, 152.3, 5.0)">i</text><text xml:space="preserve" font-family="AkkuratStd" font-size="14.0" fill="#52575F" transform="matrix(1.00, 0.00, -0.00, -1.00, 156.1, 5.0)">n</text><text xml:space="preserve" font-family="AkkuratStd" font-size="14.0" fill="#52575F" transform="matrix(1.00, 0.00, -0.00, -1.00, 164.3, 5.0)"> </text><text xml:space="preserve" font-family="AkkuratStd" font-size="14.0" fill="#52575F" transform="matrix(1.00, 0.00, -0.00, -1.00, 167.5, 5.0)">s</text><text xml:space="preserve" font-family="AkkuratStd" font-size="14.0" fill="#52575F" transform="matrix(1.00, 0.00, -0.00, -1.00, 174.8, 5.0)">i</text><text xml:space="preserve" font-family="AkkuratStd" font-size="14.0" fill="#52575F" transform="matrix(1.00, 0.00, -0.00, -1.00, 178.6, 5.0)">t</text><text xml:space="preserve" font-family="AkkuratStd" font-size="14.0" fill="#52575F" transform="matrix(1.00, 0.00, -0.00, -1.00, 183.9, 5.0)">e</text><text xml:space="preserve" font-family="AkkuratStd" font-size="14.0" fill="#52575F" transform="matrix(1.00, 0.00, -0.00, -1.00, 191.6, 5.0)"> </text><text xml:space="preserve" font-family="AkkuratStd" font-size="14.0" fill="#52575F" transform="matrix(1.00, 0.00, -0.00, -1.00, 194.8, 5.0)">c</text><text xml:space="preserve" font-family="AkkuratStd" font-size="14.0" fill="#52575F" transform="matrix(1.00, 0.00, -0.00, -1.00, 202.2, 5.0)">a</text><text xml:space="preserve" font-family="AkkuratStd" font-size="14.0" fill="#52575F" transform="matrix(1.00, 0.00, -0.00, -1.00, 210.1, 5.0)">n</text><text xml:space="preserve" font-family="AkkuratStd" font-size="14.0" fill="#52575F" transform="matrix(1.00, 0.00, -0.00, -1.00, 218.3, 5.0)"> </text><text xml:space="preserve" font-family="AkkuratStd" font-size="14.0" fill="#52575F" transform="matrix(1.00, 0.00, -0.00, -1.00, 221.5, 5.0)">b</text><text xml:space="preserve" font-family="AkkuratStd" font-size="14.0" fill="#52575F" transform="matrix(1.00, 0.00, -0.00, -1.00, 229.8, 5.0)">e</text></g></svg>