<?xml version="1.0" encoding="UTF-8" standalone="no"?><svg xmlns="http://www.w3.org/2000/svg" xmlns:xlink="http://www.w3.org/1999/xlink" clip-rule="evenodd" stroke-miterlimit="4.00" viewBox="0 0 746 163"><desc>SVG generated by Keynote</desc><defs></defs><g transform="matrix(1.00, 0.00, -0.00, -1.00, 0.0, 163.0)"><text xml:space="preserve" font-family="AkkuratStd-Bold" font-weight="bold" font-size="111.0" fill="#A6AAA8" transform="matrix(1.00, 0.00, -0.00, -1.00, 102.0, 81.0)">N</text><text xml:space="preserve" font-family="AkkuratStd-Bold" font-weight="bold" font-size="111.0" fill="#A6AAA8" transform="matrix(1.00, 0.00, -0.00, -1.00, 180.0, 81.0)">e</text><text xml:space="preserve" font-family="AkkuratStd-Bold" font-weight="bold" font-size="111.0" fill="#A6AAA8" transform="matrix(1.00, 0.00, -0.00, -1.00, 238.0, 81.0)">w</text><text xml:space="preserve" font-family="AkkuratStd-Bold" font-weight="bold" font-size="111.0" fill="#A6AAA8" transform="matrix(1.00, 0.00, -0.00, -1.00, 319.7, 81.0)">s</text><text xml:space="preserve" font-family="AkkuratStd-Bold" font-weight="bold" font-size="111.0" fill="#A6AAA8" transform="matrix(1.00, 0.00, -0.00, -1.00, 374.2, 81.0)">l</text><text xml:space="preserve" font-family="AkkuratStd-Bold" font-weight="bold" font-size="111.0" fill="#A6AAA8" transform="matrix(1.00, 0.00, -0.00, -1.00, 403.8, 81.0)">e</text><text xml:space="preserve" font-family="AkkuratStd-Bold" font-weight="bold" font-size="111.0" fill="#A6AAA8" transform="matrix(1.00, 0.00, -0.00, -1.00, 461.8, 81.0)">t</text><text xml:space="preserve" font-family="AkkuratStd-Bold" font-weight="bold" font-size="111.0" fill="#A6AAA8" transform="matrix(1.00, 0.00, -0.00, -1.00, 502.8, 81.0)">t</text><text xml:space="preserve" font-family="AkkuratStd-Bold" font-weight="bold" font-size="111.0" fill="#A6AAA8" transform="matrix(1.00, 0.00, -0.00, -1.00, 542.8, 81.0)">e</text><text xml:space="preserve" font-family="AkkuratStd-Bold" font-weight="bold" font-size="111.0" fill="#A6AAA8" transform="matrix(1.00, 0.00, -0.00, -1.00, 601.3, 81.0)">r</text><text xml:space="preserve" font-family="AkkuratStd-Bold" font-weight="bold" font-size="111.0" fill="#A6AAA8" transform="matrix(1.00, 0.00, -0.00, -1.00, 641.8, 81.0)"> </text><text xml:space="preserve" font-family="AkkuratStd" font-size="22.0" fill="#A6AAA8" transform="matrix(1.00, 0.00, -0.00, -1.00, 0.0, 33.0)">N</text><text xml:space="preserve" font-family="AkkuratStd" font-size="22.0" fill="#A6AAA8" transform="matrix(1.00, 0.00, -0.00, -1.00, 15.7, 33.0)">e</text><text xml:space="preserve" font-family="AkkuratStd" font-size="22.0" fill="#A6AAA8" transform="matrix(1.00, 0.00, -0.00, -1.00, 27.3, 33.0)">w</text><text xml:space="preserve" font-family="AkkuratStd" font-size="22.0" fill="#A6AAA8" transform="matrix(1.00, 0.00, -0.00, -1.00, 43.6, 33.0)">s</text><text xml:space="preserve" font-family="AkkuratStd" font-size="22.0" fill="#A6AAA8" transform="matrix(1.00, 0.00, -0.00, -1.00, 54.6, 33.0)">l</text><text xml:space="preserve" font-family="AkkuratStd" font-size="22.0" fill="#A6AAA8" transform="matrix(1.00, 0.00, -0.00, -1.00, 60.5, 33.0)">e</text><text xml:space="preserve" font-family="AkkuratStd" font-size="22.0" fill="#A6AAA8" transform="matrix(1.00, 0.00, -0.00, -1.00, 72.1, 33.0)">t</text><text xml:space="preserve" font-family="AkkuratStd" font-size="22.0" fill="#A6AAA8" transform="matrix(1.00, 0.00, -0.00, -1.00, 80.1, 33.0)">t</text><text xml:space="preserve" font-family="AkkuratStd" font-size="22.0" fill="#A6AAA8" transform="matrix(1.00, 0.00, -0.00, -1.00, 87.9, 33.0)">e</text><text xml:space="preserve" font-family="AkkuratStd" font-size="22.0" fill="#A6AAA8" transform="matrix(1.00, 0.00, -0.00, -1.00, 99.6, 33.0)">r</text><text xml:space="preserve" font-family="AkkuratStd" font-size="22.0" fill="#A6AAA8" transform="matrix(1.00, 0.00, -0.00, -1.00, 107.4, 33.0)">s</text><text xml:space="preserve" font-family="AkkuratStd" font-size="22.0" fill="#A6AAA8" transform="matrix(1.00, 0.00, -0.00, -1.00, 118.4, 33.0)"> </text><text xml:space="preserve" font-family="AkkuratStd" font-size="22.0" fill="#A6AAA8" transform="matrix(1.00, 0.00, -0.00, -1.00, 123.0, 33.0)">a</text><text xml:space="preserve" font-family="AkkuratStd" font-size="22.0" fill="#A6AAA8" transform="matrix(1.00, 0.00, -0.00, -1.00, 134.9, 33.0)">r</text><text xml:space="preserve" font-family="AkkuratStd" font-size="22.0" fill="#A6AAA8" transform="matrix(1.00, 0.00, -0.00, -1.00, 142.6, 33.0)">e</text><text xml:space="preserve" font-family="AkkuratStd" font-size="22.0" fill="#A6AAA8" transform="matrix(1.00, 0.00, -0.00, -1.00, 154.3, 33.0)"> </text><text xml:space="preserve" font-family="AkkuratStd" font-size="22.0" fill="#A6AAA8" transform="matrix(1.00, 0.00, -0.00, -1.00, 159.0, 33.0)">t</text><text xml:space="preserve" font-family="AkkuratStd" font-size="22.0" fill="#A6AAA8" transform="matrix(1.00, 0.00, -0.00, -1.00, 167.0, 33.0)">a</text><text xml:space="preserve" font-family="AkkuratStd" font-size="22.0" fill="#A6AAA8" transform="matrix(1.00, 0.00, -0.00, -1.00, 178.8, 33.0)">r</text><text xml:space="preserve" font-family="AkkuratStd" font-size="22.0" fill="#A6AAA8" transform="matrix(1.00, 0.00, -0.00, -1.00, 186.6, 33.0)">g</text><text xml:space="preserve" font-family="AkkuratStd" font-size="22.0" fill="#A6AAA8" transform="matrix(1.00, 0.00, -0.00, -1.00, 198.0, 33.0)">e</text><text xml:space="preserve" font-family="AkkuratStd" font-size="22.0" fill="#A6AAA8" transform="matrix(1.00, 0.00, -0.00, -1.00, 209.5, 33.0)">t</text><text xml:space="preserve" font-family="AkkuratStd" font-size="22.0" fill="#A6AAA8" transform="matrix(1.00, 0.00, -0.00, -1.00, 217.6, 33.0)"> </text><text xml:space="preserve" font-family="AkkuratStd" font-size="22.0" fill="#A6AAA8" transform="matrix(1.00, 0.00, -0.00, -1.00, 222.2, 33.0)">r</text><text xml:space="preserve" font-family="AkkuratStd" font-size="22.0" fill="#A6AAA8" transform="matrix(1.00, 0.00, -0.00, -1.00, 230.0, 33.0)">e</text><text xml:space="preserve" font-family="AkkuratStd" font-size="22.0" fill="#A6AAA8" transform="matrix(1.00, 0.00, -0.00, -1.00, 241.6, 33.0)">m</text><text xml:space="preserve" font-family="AkkuratStd" font-size="22.0" fill="#A6AAA8" transform="matrix(1.00, 0.00, -0.00, -1.00, 260.5, 33.0)">i</text><text xml:space="preserve" font-family="AkkuratStd" font-size="22.0" fill="#A6AAA8" transform="matrix(1.00, 0.00, -0.00, -1.00, 266.1, 33.0)">n</text><text xml:space="preserve" font-family="AkkuratStd" font-size="22.0" fill="#A6AAA8" transform="matrix(1.00, 0.00, -0.00, -1.00, 278.5, 33.0)">d</text><text xml:space="preserve" font-family="AkkuratStd" font-size="22.0" fill="#A6AAA8" transform="matrix(1.00, 0.00, -0.00, -1.00, 291.2, 33.0)">e</text><text xml:space="preserve" font-family="AkkuratStd" font-size="22.0" fill="#A6AAA8" transform="matrix(1.00, 0.00, -0.00, -1.00, 302.9, 33.0)">r</text><text xml:space="preserve" font-family="AkkuratStd" font-size="22.0" fill="#A6AAA8" transform="matrix(1.00, 0.00, -0.00, -1.00, 310.6, 33.0)">s</text><text xml:space="preserve" font-family="AkkuratStd" font-size="22.0" fill="#A6AAA8" transform="matrix(1.00, 0.00, -0.00, -1.00, 321.7, 33.0)"> </text><text xml:space="preserve" font-family="AkkuratStd" font-size="22.0" fill="#A6AAA8" transform="matrix(1.00, 0.00, -0.00, -1.00, 326.3, 33.0)">f</text><text xml:space="preserve" font-family="AkkuratStd" font-size="22.0" fill="#A6AAA8" transform="matrix(1.00, 0.00, -0.00, -1.00, 333.6, 33.0)">o</text><text xml:space="preserve" font-family="AkkuratStd" font-size="22.0" fill="#A6AAA8" transform="matrix(1.00, 0.00, -0.00, -1.00, 345.4, 33.0)">r</text><text xml:space="preserve" font-family="AkkuratStd" font-size="22.0" fill="#A6AAA8" transform="matrix(1.00, 0.00, -0.00, -1.00, 353.4, 33.0)"> </text><text xml:space="preserve" font-family="AkkuratStd" font-size="22.0" fill="#A6AAA8" transform="matrix(1.00, 0.00, -0.00, -1.00, 358.0, 33.0)">c</text><text xml:space="preserve" font-family="AkkuratStd" font-size="22.0" fill="#A6AAA8" transform="matrix(1.00, 0.00, -0.00, -1.00, 369.3, 33.0)">a</text><text xml:space="preserve" font-family="AkkuratStd" font-size="22.0" fill="#A6AAA8" transform="matrix(1.00, 0.00, -0.00, -1.00, 381.2, 33.0)">n</text><text xml:space="preserve" font-family="AkkuratStd" font-size="22.0" fill="#A6AAA8" transform="matrix(1.00, 0.00, -0.00, -1.00, 393.6, 33.0)">d</text><text xml:space="preserve" font-family="AkkuratStd" font-size="22.0" fill="#A6AAA8" transform="matrix(1.00, 0.00, -0.00, -1.00, 406.2, 33.0)">i</text><text xml:space="preserve" font-family="AkkuratStd" font-size="22.0" fill="#A6AAA8" transform="matrix(1.00, 0.00, -0.00, -1.00, 411.8, 33.0)">d</text><text xml:space="preserve" font-family="AkkuratStd" font-size="22.0" fill="#A6AAA8" transform="matrix(1.00, 0.00, -0.00, -1.00, 424.4, 33.0)">a</text><text xml:space="preserve" font-family="AkkuratStd" font-size="22.0" fill="#A6AAA8" transform="matrix(1.00, 0.00, -0.00, -1.00, 436.2, 33.0)">t</text><text xml:space="preserve" font-family="AkkuratStd" font-size="22.0" fill="#A6AAA8" transform="matrix(1.00, 0.00, -0.00, -1.00, 444.0, 33.0)">e</text><text xml:space="preserve" font-family="AkkuratStd" font-size="22.0" fill="#A6AAA8" transform="matrix(1.00, 0.00, -0.00, -1.00, 455.7, 33.0)">s</text><text xml:space="preserve" font-family="AkkuratStd" font-size="22.0" fill="#A6AAA8" transform="matrix(1.00, 0.00, -0.00, -1.00, 466.7, 33.0)"> </text><text xml:space="preserve" font-family="AkkuratStd" font-size="22.0" fill="#A6AAA8" transform="matrix(1.00, 0.00, -0.00, -1.00, 471.3, 33.0)">p</text><text xml:space="preserve" font-family="AkkuratStd" font-size="22.0" fill="#A6AAA8" transform="matrix(1.00, 0.00, -0.00, -1.00, 484.0, 33.0)">r</text><text xml:space="preserve" font-family="AkkuratStd" font-size="22.0" fill="#A6AAA8" transform="matrix(1.00, 0.00, -0.00, -1.00, 491.6, 33.0)">o</text><text xml:space="preserve" font-family="AkkuratStd" font-size="22.0" fill="#A6AAA8" transform="matrix(1.00, 0.00, -0.00, -1.00, 503.3, 33.0)">v</text><text xml:space="preserve" font-family="AkkuratStd" font-size="22.0" fill="#A6AAA8" transform="matrix(1.00, 0.00, -0.00, -1.00, 513.6, 33.0)">i</text><text xml:space="preserve" font-family="AkkuratStd" font-size="22.0" fill="#A6AAA8" transform="matrix(1.00, 0.00, -0.00, -1.00, 519.1, 33.0)">d</text><text xml:space="preserve" font-family="AkkuratStd" font-size="22.0" fill="#A6AAA8" transform="matrix(1.00, 0.00, -0.00, -1.00, 531.8, 33.0)">i</text><text xml:space="preserve" font-family="AkkuratStd" font-size="22.0" fill="#A6AAA8" transform="matrix(1.00, 0.00, -0.00, -1.00, 537.4, 33.0)">n</text><text xml:space="preserve" font-family="AkkuratStd" font-size="22.0" fill="#A6AAA8" transform="matrix(1.00, 0.00, -0.00, -1.00, 549.8, 33.0)">g</text><text xml:space="preserve" font-family="AkkuratStd" font-size="22.0" fill="#A6AAA8" transform="matrix(1.00, 0.00, -0.00, -1.00, 561.2, 33.0)"> </text><text xml:space="preserve" font-family="AkkuratStd" font-size="22.0" fill="#A6AAA8" transform="matrix(1.00, 0.00, -0.00, -1.00, 565.8, 33.0)">u</text><text xml:space="preserve" font-family="AkkuratStd" font-size="22.0" fill="#A6AAA8" transform="matrix(1.00, 0.00, -0.00, -1.00, 578.2, 33.0)">s</text><text xml:space="preserve" font-family="AkkuratStd" font-size="22.0" fill="#A6AAA8" transform="matrix(1.00, 0.00, -0.00, -1.00, 589.2, 33.0)">e</text><text xml:space="preserve" font-family="AkkuratStd" font-size="22.0" fill="#A6AAA8" transform="matrix(1.00, 0.00, -0.00, -1.00, 600.8, 33.0)">f</text><text xml:space="preserve" font-family="AkkuratStd" font-size="22.0" fill="#A6AAA8" transform="matrix(1.00, 0.00, -0.00, -1.00, 608.2, 33.0)">u</text><text xml:space="preserve" font-family="AkkuratStd" font-size="22.0" fill="#A6AAA8" transform="matrix(1.00, 0.00, -0.00, -1.00, 620.6, 33.0)">l</text><text xml:space="preserve" font-family="AkkuratStd" font-size="22.0" fill="#A6AAA8" transform="matrix(1.00, 0.00, -0.00, -1.00, 626.5, 33.0)"> </text><text xml:space="preserve" font-family="AkkuratStd" font-size="22.0" fill="#A6AAA8" transform="matrix(1.00, 0.00, -0.00, -1.00, 631.1, 33.0)">i</text><text xml:space="preserve" font-family="AkkuratStd" font-size="22.0" fill="#A6AAA8" transform="matrix(1.00, 0.00, -0.00, -1.00, 636.7, 33.0)">n</text><text xml:space="preserve" font-family="AkkuratStd" font-size="22.0" fill="#A6AAA8" transform="matrix(1.00, 0.00, -0.00, -1.00, 649.1, 33.0)">f</text><text xml:space="preserve" font-family="AkkuratStd" font-size="22.0" fill="#A6AAA8" transform="matrix(1.00, 0.00, -0.00, -1.00, 656.4, 33.0)">o</text><text xml:space="preserve" font-family="AkkuratStd" font-size="22.0" fill="#A6AAA8" transform="matrix(1.00, 0.00, -0.00, -1.00, 668.3, 33.0)">r</text><text xml:space="preserve" font-family="AkkuratStd" font-size="22.0" fill="#A6AAA8" transform="matrix(1.00, 0.00, -0.00, -1.00, 676.4, 33.0)">m</text><text xml:space="preserve" font-family="AkkuratStd" font-size="22.0" fill="#A6AAA8" transform="matrix(1.00, 0.00, -0.00, -1.00, 695.2, 33.0)">a</text><text xml:space="preserve" font-family="AkkuratStd" font-size="22.0" fill="#A6AAA8" transform="matrix(1.00, 0.00, -0.00, -1.00, 707.0, 33.0)">t</text><text xml:space="preserve" font-family="AkkuratStd" font-size="22.0" fill="#A6AAA8" transform="matrix(1.00, 0.00, -0.00, -1.00, 715.0, 33.0)">i</text><text xml:space="preserve" font-family="AkkuratStd" font-size="22.0" fill="#A6AAA8" transform="matrix(1.00, 0.00, -0.00, -1.00, 720.6, 33.0)">o</text><text xml:space="preserve" font-family="AkkuratStd" font-size="22.0" fill="#A6AAA8" transform="matrix(1.00, 0.00, -0.00, -1.00, 732.4, 33.0)">n</text><text xml:space="preserve" font-family="AkkuratStd" font-size="22.0" fill="#A6AAA8" transform="matrix(1.00, 0.00, -0.00, -1.00, 744.9, 33.0)"> </text><text xml:space="preserve" font-family="AkkuratStd" font-size="22.0" fill="#A6AAA8" transform="matrix(1.00, 0.00, -0.00, -1.00, 42.0, 7.0)">o</text><text xml:space="preserve" font-family="AkkuratStd" font-size="22.0" fill="#A6AAA8" transform="matrix(1.00, 0.00, -0.00, -1.00, 53.8, 7.0)">n</text><text xml:space="preserve" font-family="AkkuratStd" font-size="22.0" fill="#A6AAA8" transform="matrix(1.00, 0.00, -0.00, -1.00, 66.3, 7.0)"> </text><text xml:space="preserve" font-family="AkkuratStd" font-size="22.0" fill="#A6AAA8" transform="matrix(1.00, 0.00, -0.00, -1.00, 70.9, 7.0)">a</text><text xml:space="preserve" font-family="AkkuratStd" font-size="22.0" fill="#A6AAA8" transform="matrix(1.00, 0.00, -0.00, -1.00, 82.7, 7.0)"> </text><text xml:space="preserve" font-family="AkkuratStd" font-size="22.0" fill="#A6AAA8" transform="matrix(1.00, 0.00, -0.00, -1.00, 87.4, 7.0)">r</text><text xml:space="preserve" font-family="AkkuratStd" font-size="22.0" fill="#A6AAA8" transform="matrix(1.00, 0.00, -0.00, -1.00, 95.2, 7.0)">e</text><text xml:space="preserve" font-family="AkkuratStd" font-size="22.0" fill="#A6AAA8" transform="matrix(1.00, 0.00, -0.00, -1.00, 106.8, 7.0)">g</text><text xml:space="preserve" font-family="AkkuratStd" font-size="22.0" fill="#A6AAA8" transform="matrix(1.00, 0.00, -0.00, -1.00, 118.1, 7.0)">u</text><text xml:space="preserve" font-family="AkkuratStd" font-size="22.0" fill="#A6AAA8" transform="matrix(1.00, 0.00, -0.00, -1.00, 130.4, 7.0)">l</text><text xml:space="preserve" font-family="AkkuratStd" font-size="22.0" fill="#A6AAA8" transform="matrix(1.00, 0.00, -0.00, -1.00, 136.4, 7.0)">a</text><text xml:space="preserve" font-family="AkkuratStd" font-size="22.0" fill="#A6AAA8" transform="matrix(1.00, 0.00, -0.00, -1.00, 148.2, 7.0)">r</text><text xml:space="preserve" font-family="AkkuratStd" font-size="22.0" fill="#A6AAA8" transform="matrix(1.00, 0.00, -0.00, -1.00, 156.2, 7.0)"> </text><text xml:space="preserve" font-family="AkkuratStd" font-size="22.0" fill="#A6AAA8" transform="matrix(1.00, 0.00, -0.00, -1.00, 160.9, 7.0)">b</text><text xml:space="preserve" font-family="AkkuratStd" font-size="22.0" fill="#A6AAA8" transform="matrix(1.00, 0.00, -0.00, -1.00, 173.5, 7.0)">a</text><text xml:space="preserve" font-family="AkkuratStd" font-size="22.0" fill="#A6AAA8" transform="matrix(1.00, 0.00, -0.00, -1.00, 185.4, 7.0)">s</text><text xml:space="preserve" font-family="AkkuratStd" font-size="22.0" fill="#A6AAA8" transform="matrix(1.00, 0.00, -0.00, -1.00, 196.4, 7.0)">i</text><text xml:space="preserve" font-family="AkkuratStd" font-size="22.0" fill="#A6AAA8" transform="matrix(1.00, 0.00, -0.00, -1.00, 202.0, 7.0)">s</text><text xml:space="preserve" font-family="AkkuratStd" font-size="22.0" fill="#A6AAA8" transform="matrix(1.00, 0.00, -0.00, -1.00, 213.0, 7.0)"> </text><text xml:space="preserve" font-family="AkkuratStd" font-size="22.0" fill="#A6AAA8" transform="matrix(1.00, 0.00, -0.00, -1.00, 217.6, 7.0)">a</text><text xml:space="preserve" font-family="AkkuratStd" font-size="22.0" fill="#A6AAA8" transform="matrix(1.00, 0.00, -0.00, -1.00, 229.5, 7.0)">n</text><text xml:space="preserve" font-family="AkkuratStd" font-size="22.0" fill="#A6AAA8" transform="matrix(1.00, 0.00, -0.00, -1.00, 241.9, 7.0)">d</text><text xml:space="preserve" font-family="AkkuratStd" font-size="22.0" fill="#A6AAA8" transform="matrix(1.00, 0.00, -0.00, -1.00, 254.5, 7.0)"> </text><text xml:space="preserve" font-family="AkkuratStd" font-size="22.0" fill="#A6AAA8" transform="matrix(1.00, 0.00, -0.00, -1.00, 259.2, 7.0)">i</text><text xml:space="preserve" font-family="AkkuratStd" font-size="22.0" fill="#A6AAA8" transform="matrix(1.00, 0.00, -0.00, -1.00, 264.7, 7.0)">s</text><text xml:space="preserve" font-family="AkkuratStd" font-size="22.0" fill="#A6AAA8" transform="matrix(1.00, 0.00, -0.00, -1.00, 275.8, 7.0)"> </text><text xml:space="preserve" font-family="AkkuratStd" font-size="22.0" fill="#A6AAA8" transform="matrix(1.00, 0.00, -0.00, -1.00, 280.4, 7.0)">a</text><text xml:space="preserve" font-family="AkkuratStd" font-size="22.0" fill="#A6AAA8" transform="matrix(1.00, 0.00, -0.00, -1.00, 292.2, 7.0)"> </text><text xml:space="preserve" font-family="AkkuratStd" font-size="22.0" fill="#A6AAA8" transform="matrix(1.00, 0.00, -0.00, -1.00, 296.8, 7.0)">r</text><text xml:space="preserve" font-family="AkkuratStd" font-size="22.0" fill="#A6AAA8" transform="matrix(1.00, 0.00, -0.00, -1.00, 304.6, 7.0)">e</text><text xml:space="preserve" font-family="AkkuratStd" font-size="22.0" fill="#A6AAA8" transform="matrix(1.00, 0.00, -0.00, -1.00, 316.3, 7.0)">m</text><text xml:space="preserve" font-family="AkkuratStd" font-size="22.0" fill="#A6AAA8" transform="matrix(1.00, 0.00, -0.00, -1.00, 335.2, 7.0)">i</text><text xml:space="preserve" font-family="AkkuratStd" font-size="22.0" fill="#A6AAA8" transform="matrix(1.00, 0.00, -0.00, -1.00, 340.8, 7.0)">n</text><text xml:space="preserve" font-family="AkkuratStd" font-size="22.0" fill="#A6AAA8" transform="matrix(1.00, 0.00, -0.00, -1.00, 353.2, 7.0)">d</text><text xml:space="preserve" font-family="AkkuratStd" font-size="22.0" fill="#A6AAA8" transform="matrix(1.00, 0.00, -0.00, -1.00, 365.8, 7.0)">e</text><text xml:space="preserve" font-family="AkkuratStd" font-size="22.0" fill="#A6AAA8" transform="matrix(1.00, 0.00, -0.00, -1.00, 377.5, 7.0)">r</text><text xml:space="preserve" font-family="AkkuratStd" font-size="22.0" fill="#A6AAA8" transform="matrix(1.00, 0.00, -0.00, -1.00, 385.5, 7.0)"> </text><text xml:space="preserve" font-family="AkkuratStd" font-size="22.0" fill="#A6AAA8" transform="matrix(1.00, 0.00, -0.00, -1.00, 390.2, 7.0)">t</text><text xml:space="preserve" font-family="AkkuratStd" font-size="22.0" fill="#A6AAA8" transform="matrix(1.00, 0.00, -0.00, -1.00, 398.0, 7.0)">o</text><text xml:space="preserve" font-family="AkkuratStd" font-size="22.0" fill="#A6AAA8" transform="matrix(1.00, 0.00, -0.00, -1.00, 409.8, 7.0)"> </text><text xml:space="preserve" font-family="AkkuratStd" font-size="22.0" fill="#A6AAA8" transform="matrix(1.00, 0.00, -0.00, -1.00, 414.4, 7.0)">c</text><text xml:space="preserve" font-family="AkkuratStd" font-size="22.0" fill="#A6AAA8" transform="matrix(1.00, 0.00, -0.00, -1.00, 425.7, 7.0)">o</text><text xml:space="preserve" font-family="AkkuratStd" font-size="22.0" fill="#A6AAA8" transform="matrix(1.00, 0.00, -0.00, -1.00, 437.5, 7.0)">n</text><text xml:space="preserve" font-family="AkkuratStd" font-size="22.0" fill="#A6AAA8" transform="matrix(1.00, 0.00, -0.00, -1.00, 449.9, 7.0)">t</text><text xml:space="preserve" font-family="AkkuratStd" font-size="22.0" fill="#A6AAA8" transform="matrix(1.00, 0.00, -0.00, -1.00, 458.0, 7.0)">i</text><text xml:space="preserve" font-family="AkkuratStd" font-size="22.0" fill="#A6AAA8" transform="matrix(1.00, 0.00, -0.00, -1.00, 463.5, 7.0)">n</text><text xml:space="preserve" font-family="AkkuratStd" font-size="22.0" fill="#A6AAA8" transform="matrix(1.00, 0.00, -0.00, -1.00, 476.0, 7.0)">u</text><text xml:space="preserve" font-family="AkkuratStd" font-size="22.0" fill="#A6AAA8" transform="matrix(1.00, 0.00, -0.00, -1.00, 488.3, 7.0)">e</text><text xml:space="preserve" font-family="AkkuratStd" font-size="22.0" fill="#A6AAA8" transform="matrix(1.00, 0.00, -0.00, -1.00, 500.0, 7.0)"> </text><text xml:space="preserve" font-family="AkkuratStd" font-size="22.0" fill="#A6AAA8" transform="matrix(1.00, 0.00, -0.00, -1.00, 504.6, 7.0)">r</text><text xml:space="preserve" font-family="AkkuratStd" font-size="22.0" fill="#A6AAA8" transform="matrix(1.00, 0.00, -0.00, -1.00, 512.4, 7.0)">e</text><text xml:space="preserve" font-family="AkkuratStd" font-size="22.0" fill="#A6AAA8" transform="matrix(1.00, 0.00, -0.00, -1.00, 524.0, 7.0)">t</text><text xml:space="preserve" font-family="AkkuratStd" font-size="22.0" fill="#A6AAA8" transform="matrix(1.00, 0.00, -0.00, -1.00, 532.0, 7.0)">u</text><text xml:space="preserve" font-family="AkkuratStd" font-size="22.0" fill="#A6AAA8" transform="matrix(1.00, 0.00, -0.00, -1.00, 544.4, 7.0)">r</text><text xml:space="preserve" font-family="AkkuratStd" font-size="22.0" fill="#A6AAA8" transform="matrix(1.00, 0.00, -0.00, -1.00, 552.5, 7.0)">n</text><text xml:space="preserve" font-family="AkkuratStd" font-size="22.0" fill="#A6AAA8" transform="matrix(1.00, 0.00, -0.00, -1.00, 564.9, 7.0)">i</text><text xml:space="preserve" font-family="AkkuratStd" font-size="22.0" fill="#A6AAA8" transform="matrix(1.00, 0.00, -0.00, -1.00, 570.5, 7.0)">n</text><text xml:space="preserve" font-family="AkkuratStd" font-size="22.0" fill="#A6AAA8" transform="matrix(1.00, 0.00, -0.00, -1.00, 582.9, 7.0)">g</text><text xml:space="preserve" font-family="AkkuratStd" font-size="22.0" fill="#A6AAA8" transform="matrix(1.00, 0.00, -0.00, -1.00, 594.4, 7.0)"> </text><text xml:space="preserve" font-family="AkkuratStd" font-size="22.0" fill="#A6AAA8" transform="matrix(1.00, 0.00, -0.00, -1.00, 599.0, 7.0)">t</text><text xml:space="preserve" font-family="AkkuratStd" font-size="22.0" fill="#A6AAA8" transform="matrix(1.00, 0.00, -0.00, -1.00, 606.8, 7.0)">o</text><text xml:space="preserve" font-family="AkkuratStd" font-size="22.0" fill="#A6AAA8" transform="matrix(1.00, 0.00, -0.00, -1.00, 618.6, 7.0)"> </text><text xml:space="preserve" font-family="AkkuratStd" font-size="22.0" fill="#A6AAA8" transform="matrix(1.00, 0.00, -0.00, -1.00, 623.3, 7.0)">t</text><text xml:space="preserve" font-family="AkkuratStd" font-size="22.0" fill="#A6AAA8" transform="matrix(1.00, 0.00, -0.00, -1.00, 631.3, 7.0)">h</text><text xml:space="preserve" font-family="AkkuratStd" font-size="22.0" fill="#A6AAA8" transform="matrix(1.00, 0.00, -0.00, -1.00, 643.8, 7.0)">e</text><text xml:space="preserve" font-family="AkkuratStd" font-size="22.0" fill="#A6AAA8" transform="matrix(1.00, 0.00, -0.00, -1.00, 655.4, 7.0)"> </text><text xml:space="preserve" font-family="AkkuratStd" font-size="22.0" fill="#A6AAA8" transform="matrix(1.00, 0.00, -0.00, -1.00, 660.1, 7.0)">s</text><text xml:space="preserve" font-family="AkkuratStd" font-size="22.0" fill="#A6AAA8" transform="matrix(1.00, 0.00, -0.00, -1.00, 671.1, 7.0)">i</text><text xml:space="preserve" font-family="AkkuratStd" font-size="22.0" fill="#A6AAA8" transform="matrix(1.00, 0.00, -0.00, -1.00, 676.7, 7.0)">t</text><text xml:space="preserve" font-family="AkkuratStd" font-size="22.0" fill="#A6AAA8" transform="matrix(1.00, 0.00, -0.00, -1.00, 684.5, 7.0)">e</text><text xml:space="preserve" font-family="AkkuratStd" font-size="22.0" fill="#A6AAA8" transform="matrix(1.00, 0.00, -0.00, -1.00, 695.7, 7.0)">.</text></g></svg>