<?xml version="1.0" encoding="UTF-8" standalone="no"?><svg xmlns="http://www.w3.org/2000/svg" xmlns:xlink="http://www.w3.org/1999/xlink" clip-rule="evenodd" stroke-miterlimit="4.00" viewBox="0 0 1280 720"><desc>SVG generated by Keynote</desc><defs></defs><g transform="matrix(1.00, 0.00, -0.00, -1.00, 0.0, 720.0)"><path d="M 0.0 720.0 L 1280.0 720.0 L 1280.0 0.0 L 0.0 0.0 Z M 0.0 720.0 " fill="#FEFFFF"></path><text xml:space="preserve" font-family="AkkuratStd-Bold" font-weight="bold" font-size="111.0" fill="#A6AAA8" transform="matrix(1.00, 0.00, -0.00, -1.00, 370.0, 311.0)">N</text><text xml:space="preserve" font-family="AkkuratStd-Bold" font-weight="bold" font-size="111.0" fill="#A6AAA8" transform="matrix(1.00, 0.00, -0.00, -1.00, 448.0, 311.0)">e</text><text xml:space="preserve" font-family="AkkuratStd-Bold" font-weight="bold" font-size="111.0" fill="#A6AAA8" transform="matrix(1.00, 0.00, -0.00, -1.00, 506.0, 311.0)">w</text><text xml:space="preserve" font-family="AkkuratStd-Bold" font-weight="bold" font-size="111.0" fill="#A6AAA8" transform="matrix(1.00, 0.00, -0.00, -1.00, 587.7, 311.0)">s</text><text xml:space="preserve" font-family="AkkuratStd-Bold" font-weight="bold" font-size="111.0" fill="#A6AAA8" transform="matrix(1.00, 0.00, -0.00, -1.00, 642.2, 311.0)">l</text><text xml:space="preserve" font-family="AkkuratStd-Bold" font-weight="bold" font-size="111.0" fill="#A6AAA8" transform="matrix(1.00, 0.00, -0.00, -1.00, 671.8, 311.0)">e</text><text xml:space="preserve" font-family="AkkuratStd-Bold" font-weight="bold" font-size="111.0" fill="#A6AAA8" transform="matrix(1.00, 0.00, -0.00, -1.00, 729.8, 311.0)">t</text><text xml:space="preserve" font-family="AkkuratStd-Bold" font-weight="bold" font-size="111.0" fill="#A6AAA8" transform="matrix(1.00, 0.00, -0.00, -1.00, 770.8, 311.0)">t</text><text xml:space="preserve" font-family="AkkuratStd-Bold" font-weight="bold" font-size="111.0" fill="#A6AAA8" transform="matrix(1.00, 0.00, -0.00, -1.00, 810.8, 311.0)">e</text><text xml:space="preserve" font-family="AkkuratStd-Bold" font-weight="bold" font-size="111.0" fill="#A6AAA8" transform="matrix(1.00, 0.00, -0.00, -1.00, 869.3, 311.0)">r</text><text xml:space="preserve" font-family="AkkuratStd-Bold" font-weight="bold" font-size="111.0" fill="#A6AAA8" transform="matrix(1.00, 0.00, -0.00, -1.00, 909.8, 311.0)"> </text><text xml:space="preserve" font-family="AkkuratStd" font-size="22.0" fill="#A6AAA8" transform="matrix(1.00, 0.00, -0.00, -1.00, 268.0, 263.0)">N</text><text xml:space="preserve" font-family="AkkuratStd" font-size="22.0" fill="#A6AAA8" transform="matrix(1.00, 0.00, -0.00, -1.00, 283.7, 263.0)">e</text><text xml:space="preserve" font-family="AkkuratStd" font-size="22.0" fill="#A6AAA8" transform="matrix(1.00, 0.00, -0.00, -1.00, 295.3, 263.0)">w</text><text xml:space="preserve" font-family="AkkuratStd" font-size="22.0" fill="#A6AAA8" transform="matrix(1.00, 0.00, -0.00, -1.00, 311.6, 263.0)">s</text><text xml:space="preserve" font-family="AkkuratStd" font-size="22.0" fill="#A6AAA8" transform="matrix(1.00, 0.00, -0.00, -1.00, 322.6, 263.0)">l</text><text xml:space="preserve" font-family="AkkuratStd" font-size="22.0" fill="#A6AAA8" transform="matrix(1.00, 0.00, -0.00, -1.00, 328.5, 263.0)">e</text><text xml:space="preserve" font-family="AkkuratStd" font-size="22.0" fill="#A6AAA8" transform="matrix(1.00, 0.00, -0.00, -1.00, 340.1, 263.0)">t</text><text xml:space="preserve" font-family="AkkuratStd" font-size="22.0" fill="#A6AAA8" transform="matrix(1.00, 0.00, -0.00, -1.00, 348.1, 263.0)">t</text><text xml:space="preserve" font-family="AkkuratStd" font-size="22.0" fill="#A6AAA8" transform="matrix(1.00, 0.00, -0.00, -1.00, 355.9, 263.0)">e</text><text xml:space="preserve" font-family="AkkuratStd" font-size="22.0" fill="#A6AAA8" transform="matrix(1.00, 0.00, -0.00, -1.00, 367.6, 263.0)">r</text><text xml:space="preserve" font-family="AkkuratStd" font-size="22.0" fill="#A6AAA8" transform="matrix(1.00, 0.00, -0.00, -1.00, 375.4, 263.0)">s</text><text xml:space="preserve" font-family="AkkuratStd" font-size="22.0" fill="#A6AAA8" transform="matrix(1.00, 0.00, -0.00, -1.00, 386.4, 263.0)"> </text><text xml:space="preserve" font-family="AkkuratStd" font-size="22.0" fill="#A6AAA8" transform="matrix(1.00, 0.00, -0.00, -1.00, 391.0, 263.0)">a</text><text xml:space="preserve" font-family="AkkuratStd" font-size="22.0" fill="#A6AAA8" transform="matrix(1.00, 0.00, -0.00, -1.00, 402.9, 263.0)">r</text><text xml:space="preserve" font-family="AkkuratStd" font-size="22.0" fill="#A6AAA8" transform="matrix(1.00, 0.00, -0.00, -1.00, 410.6, 263.0)">e</text><text xml:space="preserve" font-family="AkkuratStd" font-size="22.0" fill="#A6AAA8" transform="matrix(1.00, 0.00, -0.00, -1.00, 422.3, 263.0)"> </text><text xml:space="preserve" font-family="AkkuratStd" font-size="22.0" fill="#A6AAA8" transform="matrix(1.00, 0.00, -0.00, -1.00, 427.0, 263.0)">t</text><text xml:space="preserve" font-family="AkkuratStd" font-size="22.0" fill="#A6AAA8" transform="matrix(1.00, 0.00, -0.00, -1.00, 435.0, 263.0)">a</text><text xml:space="preserve" font-family="AkkuratStd" font-size="22.0" fill="#A6AAA8" transform="matrix(1.00, 0.00, -0.00, -1.00, 446.8, 263.0)">r</text><text xml:space="preserve" font-family="AkkuratStd" font-size="22.0" fill="#A6AAA8" transform="matrix(1.00, 0.00, -0.00, -1.00, 454.6, 263.0)">g</text><text xml:space="preserve" font-family="AkkuratStd" font-size="22.0" fill="#A6AAA8" transform="matrix(1.00, 0.00, -0.00, -1.00, 466.0, 263.0)">e</text><text xml:space="preserve" font-family="AkkuratStd" font-size="22.0" fill="#A6AAA8" transform="matrix(1.00, 0.00, -0.00, -1.00, 477.5, 263.0)">t</text><text xml:space="preserve" font-family="AkkuratStd" font-size="22.0" fill="#A6AAA8" transform="matrix(1.00, 0.00, -0.00, -1.00, 485.6, 263.0)"> </text><text xml:space="preserve" font-family="AkkuratStd" font-size="22.0" fill="#A6AAA8" transform="matrix(1.00, 0.00, -0.00, -1.00, 490.2, 263.0)">r</text><text xml:space="preserve" font-family="AkkuratStd" font-size="22.0" fill="#A6AAA8" transform="matrix(1.00, 0.00, -0.00, -1.00, 498.0, 263.0)">e</text><text xml:space="preserve" font-family="AkkuratStd" font-size="22.0" fill="#A6AAA8" transform="matrix(1.00, 0.00, -0.00, -1.00, 509.6, 263.0)">m</text><text xml:space="preserve" font-family="AkkuratStd" font-size="22.0" fill="#A6AAA8" transform="matrix(1.00, 0.00, -0.00, -1.00, 528.5, 263.0)">i</text><text xml:space="preserve" font-family="AkkuratStd" font-size="22.0" fill="#A6AAA8" transform="matrix(1.00, 0.00, -0.00, -1.00, 534.1, 263.0)">n</text><text xml:space="preserve" font-family="AkkuratStd" font-size="22.0" fill="#A6AAA8" transform="matrix(1.00, 0.00, -0.00, -1.00, 546.5, 263.0)">d</text><text xml:space="preserve" font-family="AkkuratStd" font-size="22.0" fill="#A6AAA8" transform="matrix(1.00, 0.00, -0.00, -1.00, 559.2, 263.0)">e</text><text xml:space="preserve" font-family="AkkuratStd" font-size="22.0" fill="#A6AAA8" transform="matrix(1.00, 0.00, -0.00, -1.00, 570.9, 263.0)">r</text><text xml:space="preserve" font-family="AkkuratStd" font-size="22.0" fill="#A6AAA8" transform="matrix(1.00, 0.00, -0.00, -1.00, 578.6, 263.0)">s</text><text xml:space="preserve" font-family="AkkuratStd" font-size="22.0" fill="#A6AAA8" transform="matrix(1.00, 0.00, -0.00, -1.00, 589.7, 263.0)"> </text><text xml:space="preserve" font-family="AkkuratStd" font-size="22.0" fill="#A6AAA8" transform="matrix(1.00, 0.00, -0.00, -1.00, 594.3, 263.0)">f</text><text xml:space="preserve" font-family="AkkuratStd" font-size="22.0" fill="#A6AAA8" transform="matrix(1.00, 0.00, -0.00, -1.00, 601.6, 263.0)">o</text><text xml:space="preserve" font-family="AkkuratStd" font-size="22.0" fill="#A6AAA8" transform="matrix(1.00, 0.00, -0.00, -1.00, 613.4, 263.0)">r</text><text xml:space="preserve" font-family="AkkuratStd" font-size="22.0" fill="#A6AAA8" transform="matrix(1.00, 0.00, -0.00, -1.00, 621.4, 263.0)"> </text><text xml:space="preserve" font-family="AkkuratStd" font-size="22.0" fill="#A6AAA8" transform="matrix(1.00, 0.00, -0.00, -1.00, 626.0, 263.0)">c</text><text xml:space="preserve" font-family="AkkuratStd" font-size="22.0" fill="#A6AAA8" transform="matrix(1.00, 0.00, -0.00, -1.00, 637.3, 263.0)">a</text><text xml:space="preserve" font-family="AkkuratStd" font-size="22.0" fill="#A6AAA8" transform="matrix(1.00, 0.00, -0.00, -1.00, 649.2, 263.0)">n</text><text xml:space="preserve" font-family="AkkuratStd" font-size="22.0" fill="#A6AAA8" transform="matrix(1.00, 0.00, -0.00, -1.00, 661.6, 263.0)">d</text><text xml:space="preserve" font-family="AkkuratStd" font-size="22.0" fill="#A6AAA8" transform="matrix(1.00, 0.00, -0.00, -1.00, 674.2, 263.0)">i</text><text xml:space="preserve" font-family="AkkuratStd" font-size="22.0" fill="#A6AAA8" transform="matrix(1.00, 0.00, -0.00, -1.00, 679.8, 263.0)">d</text><text xml:space="preserve" font-family="AkkuratStd" font-size="22.0" fill="#A6AAA8" transform="matrix(1.00, 0.00, -0.00, -1.00, 692.4, 263.0)">a</text><text xml:space="preserve" font-family="AkkuratStd" font-size="22.0" fill="#A6AAA8" transform="matrix(1.00, 0.00, -0.00, -1.00, 704.2, 263.0)">t</text><text xml:space="preserve" font-family="AkkuratStd" font-size="22.0" fill="#A6AAA8" transform="matrix(1.00, 0.00, -0.00, -1.00, 712.0, 263.0)">e</text><text xml:space="preserve" font-family="AkkuratStd" font-size="22.0" fill="#A6AAA8" transform="matrix(1.00, 0.00, -0.00, -1.00, 723.7, 263.0)">s</text><text xml:space="preserve" font-family="AkkuratStd" font-size="22.0" fill="#A6AAA8" transform="matrix(1.00, 0.00, -0.00, -1.00, 734.7, 263.0)"> </text><text xml:space="preserve" font-family="AkkuratStd" font-size="22.0" fill="#A6AAA8" transform="matrix(1.00, 0.00, -0.00, -1.00, 739.3, 263.0)">p</text><text xml:space="preserve" font-family="AkkuratStd" font-size="22.0" fill="#A6AAA8" transform="matrix(1.00, 0.00, -0.00, -1.00, 752.0, 263.0)">r</text><text xml:space="preserve" font-family="AkkuratStd" font-size="22.0" fill="#A6AAA8" transform="matrix(1.00, 0.00, -0.00, -1.00, 759.6, 263.0)">o</text><text xml:space="preserve" font-family="AkkuratStd" font-size="22.0" fill="#A6AAA8" transform="matrix(1.00, 0.00, -0.00, -1.00, 771.3, 263.0)">v</text><text xml:space="preserve" font-family="AkkuratStd" font-size="22.0" fill="#A6AAA8" transform="matrix(1.00, 0.00, -0.00, -1.00, 781.6, 263.0)">i</text><text xml:space="preserve" font-family="AkkuratStd" font-size="22.0" fill="#A6AAA8" transform="matrix(1.00, 0.00, -0.00, -1.00, 787.1, 263.0)">d</text><text xml:space="preserve" font-family="AkkuratStd" font-size="22.0" fill="#A6AAA8" transform="matrix(1.00, 0.00, -0.00, -1.00, 799.8, 263.0)">i</text><text xml:space="preserve" font-family="AkkuratStd" font-size="22.0" fill="#A6AAA8" transform="matrix(1.00, 0.00, -0.00, -1.00, 805.4, 263.0)">n</text><text xml:space="preserve" font-family="AkkuratStd" font-size="22.0" fill="#A6AAA8" transform="matrix(1.00, 0.00, -0.00, -1.00, 817.8, 263.0)">g</text><text xml:space="preserve" font-family="AkkuratStd" font-size="22.0" fill="#A6AAA8" transform="matrix(1.00, 0.00, -0.00, -1.00, 829.2, 263.0)"> </text><text xml:space="preserve" font-family="AkkuratStd" font-size="22.0" fill="#A6AAA8" transform="matrix(1.00, 0.00, -0.00, -1.00, 833.8, 263.0)">u</text><text xml:space="preserve" font-family="AkkuratStd" font-size="22.0" fill="#A6AAA8" transform="matrix(1.00, 0.00, -0.00, -1.00, 846.2, 263.0)">s</text><text xml:space="preserve" font-family="AkkuratStd" font-size="22.0" fill="#A6AAA8" transform="matrix(1.00, 0.00, -0.00, -1.00, 857.2, 263.0)">e</text><text xml:space="preserve" font-family="AkkuratStd" font-size="22.0" fill="#A6AAA8" transform="matrix(1.00, 0.00, -0.00, -1.00, 868.8, 263.0)">f</text><text xml:space="preserve" font-family="AkkuratStd" font-size="22.0" fill="#A6AAA8" transform="matrix(1.00, 0.00, -0.00, -1.00, 876.2, 263.0)">u</text><text xml:space="preserve" font-family="AkkuratStd" font-size="22.0" fill="#A6AAA8" transform="matrix(1.00, 0.00, -0.00, -1.00, 888.6, 263.0)">l</text><text xml:space="preserve" font-family="AkkuratStd" font-size="22.0" fill="#A6AAA8" transform="matrix(1.00, 0.00, -0.00, -1.00, 894.5, 263.0)"> </text><text xml:space="preserve" font-family="AkkuratStd" font-size="22.0" fill="#A6AAA8" transform="matrix(1.00, 0.00, -0.00, -1.00, 899.1, 263.0)">i</text><text xml:space="preserve" font-family="AkkuratStd" font-size="22.0" fill="#A6AAA8" transform="matrix(1.00, 0.00, -0.00, -1.00, 904.7, 263.0)">n</text><text xml:space="preserve" font-family="AkkuratStd" font-size="22.0" fill="#A6AAA8" transform="matrix(1.00, 0.00, -0.00, -1.00, 917.1, 263.0)">f</text><text xml:space="preserve" font-family="AkkuratStd" font-size="22.0" fill="#A6AAA8" transform="matrix(1.00, 0.00, -0.00, -1.00, 924.4, 263.0)">o</text><text xml:space="preserve" font-family="AkkuratStd" font-size="22.0" fill="#A6AAA8" transform="matrix(1.00, 0.00, -0.00, -1.00, 936.3, 263.0)">r</text><text xml:space="preserve" font-family="AkkuratStd" font-size="22.0" fill="#A6AAA8" transform="matrix(1.00, 0.00, -0.00, -1.00, 944.4, 263.0)">m</text><text xml:space="preserve" font-family="AkkuratStd" font-size="22.0" fill="#A6AAA8" transform="matrix(1.00, 0.00, -0.00, -1.00, 963.2, 263.0)">a</text><text xml:space="preserve" font-family="AkkuratStd" font-size="22.0" fill="#A6AAA8" transform="matrix(1.00, 0.00, -0.00, -1.00, 975.0, 263.0)">t</text><text xml:space="preserve" font-family="AkkuratStd" font-size="22.0" fill="#A6AAA8" transform="matrix(1.00, 0.00, -0.00, -1.00, 983.0, 263.0)">i</text><text xml:space="preserve" font-family="AkkuratStd" font-size="22.0" fill="#A6AAA8" transform="matrix(1.00, 0.00, -0.00, -1.00, 988.6, 263.0)">o</text><text xml:space="preserve" font-family="AkkuratStd" font-size="22.0" fill="#A6AAA8" transform="matrix(1.00, 0.00, -0.00, -1.00, 1000.4, 263.0)">n</text><text xml:space="preserve" font-family="AkkuratStd" font-size="22.0" fill="#A6AAA8" transform="matrix(1.00, 0.00, -0.00, -1.00, 1012.9, 263.0)"> </text><text xml:space="preserve" font-family="AkkuratStd" font-size="22.0" fill="#A6AAA8" transform="matrix(1.00, 0.00, -0.00, -1.00, 310.0, 237.0)">o</text><text xml:space="preserve" font-family="AkkuratStd" font-size="22.0" fill="#A6AAA8" transform="matrix(1.00, 0.00, -0.00, -1.00, 321.8, 237.0)">n</text><text xml:space="preserve" font-family="AkkuratStd" font-size="22.0" fill="#A6AAA8" transform="matrix(1.00, 0.00, -0.00, -1.00, 334.3, 237.0)"> </text><text xml:space="preserve" font-family="AkkuratStd" font-size="22.0" fill="#A6AAA8" transform="matrix(1.00, 0.00, -0.00, -1.00, 338.9, 237.0)">a</text><text xml:space="preserve" font-family="AkkuratStd" font-size="22.0" fill="#A6AAA8" transform="matrix(1.00, 0.00, -0.00, -1.00, 350.7, 237.0)"> </text><text xml:space="preserve" font-family="AkkuratStd" font-size="22.0" fill="#A6AAA8" transform="matrix(1.00, 0.00, -0.00, -1.00, 355.4, 237.0)">r</text><text xml:space="preserve" font-family="AkkuratStd" font-size="22.0" fill="#A6AAA8" transform="matrix(1.00, 0.00, -0.00, -1.00, 363.2, 237.0)">e</text><text xml:space="preserve" font-family="AkkuratStd" font-size="22.0" fill="#A6AAA8" transform="matrix(1.00, 0.00, -0.00, -1.00, 374.8, 237.0)">g</text><text xml:space="preserve" font-family="AkkuratStd" font-size="22.0" fill="#A6AAA8" transform="matrix(1.00, 0.00, -0.00, -1.00, 386.1, 237.0)">u</text><text xml:space="preserve" font-family="AkkuratStd" font-size="22.0" fill="#A6AAA8" transform="matrix(1.00, 0.00, -0.00, -1.00, 398.4, 237.0)">l</text><text xml:space="preserve" font-family="AkkuratStd" font-size="22.0" fill="#A6AAA8" transform="matrix(1.00, 0.00, -0.00, -1.00, 404.4, 237.0)">a</text><text xml:space="preserve" font-family="AkkuratStd" font-size="22.0" fill="#A6AAA8" transform="matrix(1.00, 0.00, -0.00, -1.00, 416.2, 237.0)">r</text><text xml:space="preserve" font-family="AkkuratStd" font-size="22.0" fill="#A6AAA8" transform="matrix(1.00, 0.00, -0.00, -1.00, 424.2, 237.0)"> </text><text xml:space="preserve" font-family="AkkuratStd" font-size="22.0" fill="#A6AAA8" transform="matrix(1.00, 0.00, -0.00, -1.00, 428.9, 237.0)">b</text><text xml:space="preserve" font-family="AkkuratStd" font-size="22.0" fill="#A6AAA8" transform="matrix(1.00, 0.00, -0.00, -1.00, 441.5, 237.0)">a</text><text xml:space="preserve" font-family="AkkuratStd" font-size="22.0" fill="#A6AAA8" transform="matrix(1.00, 0.00, -0.00, -1.00, 453.4, 237.0)">s</text><text xml:space="preserve" font-family="AkkuratStd" font-size="22.0" fill="#A6AAA8" transform="matrix(1.00, 0.00, -0.00, -1.00, 464.4, 237.0)">i</text><text xml:space="preserve" font-family="AkkuratStd" font-size="22.0" fill="#A6AAA8" transform="matrix(1.00, 0.00, -0.00, -1.00, 470.0, 237.0)">s</text><text xml:space="preserve" font-family="AkkuratStd" font-size="22.0" fill="#A6AAA8" transform="matrix(1.00, 0.00, -0.00, -1.00, 481.0, 237.0)"> </text><text xml:space="preserve" font-family="AkkuratStd" font-size="22.0" fill="#A6AAA8" transform="matrix(1.00, 0.00, -0.00, -1.00, 485.6, 237.0)">a</text><text xml:space="preserve" font-family="AkkuratStd" font-size="22.0" fill="#A6AAA8" transform="matrix(1.00, 0.00, -0.00, -1.00, 497.5, 237.0)">n</text><text xml:space="preserve" font-family="AkkuratStd" font-size="22.0" fill="#A6AAA8" transform="matrix(1.00, 0.00, -0.00, -1.00, 509.9, 237.0)">d</text><text xml:space="preserve" font-family="AkkuratStd" font-size="22.0" fill="#A6AAA8" transform="matrix(1.00, 0.00, -0.00, -1.00, 522.5, 237.0)"> </text><text xml:space="preserve" font-family="AkkuratStd" font-size="22.0" fill="#A6AAA8" transform="matrix(1.00, 0.00, -0.00, -1.00, 527.2, 237.0)">i</text><text xml:space="preserve" font-family="AkkuratStd" font-size="22.0" fill="#A6AAA8" transform="matrix(1.00, 0.00, -0.00, -1.00, 532.7, 237.0)">s</text><text xml:space="preserve" font-family="AkkuratStd" font-size="22.0" fill="#A6AAA8" transform="matrix(1.00, 0.00, -0.00, -1.00, 543.8, 237.0)"> </text><text xml:space="preserve" font-family="AkkuratStd" font-size="22.0" fill="#A6AAA8" transform="matrix(1.00, 0.00, -0.00, -1.00, 548.4, 237.0)">a</text><text xml:space="preserve" font-family="AkkuratStd" font-size="22.0" fill="#A6AAA8" transform="matrix(1.00, 0.00, -0.00, -1.00, 560.2, 237.0)"> </text><text xml:space="preserve" font-family="AkkuratStd" font-size="22.0" fill="#A6AAA8" transform="matrix(1.00, 0.00, -0.00, -1.00, 564.8, 237.0)">r</text><text xml:space="preserve" font-family="AkkuratStd" font-size="22.0" fill="#A6AAA8" transform="matrix(1.00, 0.00, -0.00, -1.00, 572.6, 237.0)">e</text><text xml:space="preserve" font-family="AkkuratStd" font-size="22.0" fill="#A6AAA8" transform="matrix(1.00, 0.00, -0.00, -1.00, 584.3, 237.0)">m</text><text xml:space="preserve" font-family="AkkuratStd" font-size="22.0" fill="#A6AAA8" transform="matrix(1.00, 0.00, -0.00, -1.00, 603.2, 237.0)">i</text><text xml:space="preserve" font-family="AkkuratStd" font-size="22.0" fill="#A6AAA8" transform="matrix(1.00, 0.00, -0.00, -1.00, 608.8, 237.0)">n</text><text xml:space="preserve" font-family="AkkuratStd" font-size="22.0" fill="#A6AAA8" transform="matrix(1.00, 0.00, -0.00, -1.00, 621.2, 237.0)">d</text><text xml:space="preserve" font-family="AkkuratStd" font-size="22.0" fill="#A6AAA8" transform="matrix(1.00, 0.00, -0.00, -1.00, 633.8, 237.0)">e</text><text xml:space="preserve" font-family="AkkuratStd" font-size="22.0" fill="#A6AAA8" transform="matrix(1.00, 0.00, -0.00, -1.00, 645.5, 237.0)">r</text><text xml:space="preserve" font-family="AkkuratStd" font-size="22.0" fill="#A6AAA8" transform="matrix(1.00, 0.00, -0.00, -1.00, 653.5, 237.0)"> </text><text xml:space="preserve" font-family="AkkuratStd" font-size="22.0" fill="#A6AAA8" transform="matrix(1.00, 0.00, -0.00, -1.00, 658.2, 237.0)">t</text><text xml:space="preserve" font-family="AkkuratStd" font-size="22.0" fill="#A6AAA8" transform="matrix(1.00, 0.00, -0.00, -1.00, 666.0, 237.0)">o</text><text xml:space="preserve" font-family="AkkuratStd" font-size="22.0" fill="#A6AAA8" transform="matrix(1.00, 0.00, -0.00, -1.00, 677.8, 237.0)"> </text><text xml:space="preserve" font-family="AkkuratStd" font-size="22.0" fill="#A6AAA8" transform="matrix(1.00, 0.00, -0.00, -1.00, 682.4, 237.0)">c</text><text xml:space="preserve" font-family="AkkuratStd" font-size="22.0" fill="#A6AAA8" transform="matrix(1.00, 0.00, -0.00, -1.00, 693.7, 237.0)">o</text><text xml:space="preserve" font-family="AkkuratStd" font-size="22.0" fill="#A6AAA8" transform="matrix(1.00, 0.00, -0.00, -1.00, 705.5, 237.0)">n</text><text xml:space="preserve" font-family="AkkuratStd" font-size="22.0" fill="#A6AAA8" transform="matrix(1.00, 0.00, -0.00, -1.00, 717.9, 237.0)">t</text><text xml:space="preserve" font-family="AkkuratStd" font-size="22.0" fill="#A6AAA8" transform="matrix(1.00, 0.00, -0.00, -1.00, 726.0, 237.0)">i</text><text xml:space="preserve" font-family="AkkuratStd" font-size="22.0" fill="#A6AAA8" transform="matrix(1.00, 0.00, -0.00, -1.00, 731.5, 237.0)">n</text><text xml:space="preserve" font-family="AkkuratStd" font-size="22.0" fill="#A6AAA8" transform="matrix(1.00, 0.00, -0.00, -1.00, 744.0, 237.0)">u</text><text xml:space="preserve" font-family="AkkuratStd" font-size="22.0" fill="#A6AAA8" transform="matrix(1.00, 0.00, -0.00, -1.00, 756.3, 237.0)">e</text><text xml:space="preserve" font-family="AkkuratStd" font-size="22.0" fill="#A6AAA8" transform="matrix(1.00, 0.00, -0.00, -1.00, 768.0, 237.0)"> </text><text xml:space="preserve" font-family="AkkuratStd" font-size="22.0" fill="#A6AAA8" transform="matrix(1.00, 0.00, -0.00, -1.00, 772.6, 237.0)">r</text><text xml:space="preserve" font-family="AkkuratStd" font-size="22.0" fill="#A6AAA8" transform="matrix(1.00, 0.00, -0.00, -1.00, 780.4, 237.0)">e</text><text xml:space="preserve" font-family="AkkuratStd" font-size="22.0" fill="#A6AAA8" transform="matrix(1.00, 0.00, -0.00, -1.00, 792.0, 237.0)">t</text><text xml:space="preserve" font-family="AkkuratStd" font-size="22.0" fill="#A6AAA8" transform="matrix(1.00, 0.00, -0.00, -1.00, 800.0, 237.0)">u</text><text xml:space="preserve" font-family="AkkuratStd" font-size="22.0" fill="#A6AAA8" transform="matrix(1.00, 0.00, -0.00, -1.00, 812.4, 237.0)">r</text><text xml:space="preserve" font-family="AkkuratStd" font-size="22.0" fill="#A6AAA8" transform="matrix(1.00, 0.00, -0.00, -1.00, 820.5, 237.0)">n</text><text xml:space="preserve" font-family="AkkuratStd" font-size="22.0" fill="#A6AAA8" transform="matrix(1.00, 0.00, -0.00, -1.00, 832.9, 237.0)">i</text><text xml:space="preserve" font-family="AkkuratStd" font-size="22.0" fill="#A6AAA8" transform="matrix(1.00, 0.00, -0.00, -1.00, 838.5, 237.0)">n</text><text xml:space="preserve" font-family="AkkuratStd" font-size="22.0" fill="#A6AAA8" transform="matrix(1.00, 0.00, -0.00, -1.00, 850.9, 237.0)">g</text><text xml:space="preserve" font-family="AkkuratStd" font-size="22.0" fill="#A6AAA8" transform="matrix(1.00, 0.00, -0.00, -1.00, 862.4, 237.0)"> </text><text xml:space="preserve" font-family="AkkuratStd" font-size="22.0" fill="#A6AAA8" transform="matrix(1.00, 0.00, -0.00, -1.00, 867.0, 237.0)">t</text><text xml:space="preserve" font-family="AkkuratStd" font-size="22.0" fill="#A6AAA8" transform="matrix(1.00, 0.00, -0.00, -1.00, 874.8, 237.0)">o</text><text xml:space="preserve" font-family="AkkuratStd" font-size="22.0" fill="#A6AAA8" transform="matrix(1.00, 0.00, -0.00, -1.00, 886.6, 237.0)"> </text><text xml:space="preserve" font-family="AkkuratStd" font-size="22.0" fill="#A6AAA8" transform="matrix(1.00, 0.00, -0.00, -1.00, 891.3, 237.0)">t</text><text xml:space="preserve" font-family="AkkuratStd" font-size="22.0" fill="#A6AAA8" transform="matrix(1.00, 0.00, -0.00, -1.00, 899.3, 237.0)">h</text><text xml:space="preserve" font-family="AkkuratStd" font-size="22.0" fill="#A6AAA8" transform="matrix(1.00, 0.00, -0.00, -1.00, 911.8, 237.0)">e</text><text xml:space="preserve" font-family="AkkuratStd" font-size="22.0" fill="#A6AAA8" transform="matrix(1.00, 0.00, -0.00, -1.00, 923.4, 237.0)"> </text><text xml:space="preserve" font-family="AkkuratStd" font-size="22.0" fill="#A6AAA8" transform="matrix(1.00, 0.00, -0.00, -1.00, 928.1, 237.0)">s</text><text xml:space="preserve" font-family="AkkuratStd" font-size="22.0" fill="#A6AAA8" transform="matrix(1.00, 0.00, -0.00, -1.00, 939.1, 237.0)">i</text><text xml:space="preserve" font-family="AkkuratStd" font-size="22.0" fill="#A6AAA8" transform="matrix(1.00, 0.00, -0.00, -1.00, 944.7, 237.0)">t</text><text xml:space="preserve" font-family="AkkuratStd" font-size="22.0" fill="#A6AAA8" transform="matrix(1.00, 0.00, -0.00, -1.00, 952.5, 237.0)">e</text><text xml:space="preserve" font-family="AkkuratStd" font-size="22.0" fill="#A6AAA8" transform="matrix(1.00, 0.00, -0.00, -1.00, 963.7, 237.0)">.</text><path d="M 168.1 806.5 L 1111.9 806.5 L 1111.9 706.5 L 168.1 706.5 Z M 168.1 806.5 " fill="#F89000"></path><g><clipPath id="clip-7588"><path d="M 568.0 475.0 L 712.0 475.0 L 712.0 570.0 L 568.0 570.0 Z M 568.0 475.0 "></path></clipPath><g clip-path="url(#clip-7588)"><g><g><clipPath id="clip-7589"><path d="M 568.0 475.0 L 712.0 475.0 L 712.0 570.0 L 568.0 570.0 Z M 568.0 475.0 "></path></clipPath><g clip-path="url(#clip-7589)"><g><g><clipPath id="clip-7590"><path d="M 568.0 475.0 L 712.0 475.0 L 712.0 570.0 L 568.0 570.0 Z M 568.0 475.0 "></path></clipPath><g clip-path="url(#clip-7590)"><image xlink:href="../../AF078961-8C16-472A-90A3-B851FE04D836/assets/4A7C51356E8DF6FD7007A3EF61168612.png" width="300.00" height="197.00" transform="matrix(0.48, 0.00, -0.00, -0.48, 568.0, 570.0)"></image></g></g><g><clipPath id="clip-7591"><path d="M 568.0 475.0 L 712.0 475.0 L 712.0 570.0 L 568.0 570.0 Z M 568.0 475.0 "></path></clipPath><g clip-path="url(#clip-7591)"><g><g><clipPath id="clip-7592"><path d="M 568.0 475.0 L 712.0 475.0 L 712.0 570.0 L 568.0 570.0 Z M 568.0 475.0 "></path></clipPath><g clip-path="url(#clip-7592)"><image xlink:href="../../AF078961-8C16-472A-90A3-B851FE04D836/assets/4A7C51356E8DF6FD7007A3EF61168612.png" width="300.00" height="197.00" transform="matrix(0.48, 0.00, -0.00, -0.48, 568.0, 570.0)"></image></g></g></g></g></g></g></g></g></g></g></g><path d="M 0.0 0.0 L 60.8 0.0 " fill="none" stroke="#F89000" stroke-width="1.00" transform="matrix(1.00, 0.00, 0.00, -1.00, 678.3, 893.6)"></path></g></svg>