<?xml version="1.0" encoding="UTF-8" standalone="no"?><svg xmlns="http://www.w3.org/2000/svg" xmlns:xlink="http://www.w3.org/1999/xlink" clip-rule="evenodd" stroke-miterlimit="4.00" viewBox="0 0 1280 720"><desc>SVG generated by Keynote</desc><defs></defs><g transform="matrix(1.00, 0.00, -0.00, -1.00, 0.0, 720.0)"><path d="M 0.0 720.0 L 1280.0 720.0 L 1280.0 0.0 L 0.0 0.0 Z M 0.0 720.0 " fill="#FEFFFE"></path><text xml:space="preserve" font-family="Sonus" font-size="20.0" fill="#52575F" transform="matrix(1.00, 0.00, -0.00, -1.00, 68.0, 625.0)">S</text><text xml:space="preserve" font-family="Sonus" font-size="20.0" fill="#52575F" transform="matrix(1.00, 0.00, -0.00, -1.00, 78.6, 625.0)">e</text><text xml:space="preserve" font-family="Sonus" font-size="20.0" fill="#52575F" transform="matrix(1.00, 0.00, -0.00, -1.00, 88.9, 625.0)">t</text><text xml:space="preserve" font-family="Sonus" font-size="20.0" fill="#52575F" transform="matrix(1.00, 0.00, -0.00, -1.00, 95.7, 625.0)"> </text><text xml:space="preserve" font-family="Sonus" font-size="20.0" fill="#52575F" transform="matrix(1.00, 0.00, -0.00, -1.00, 100.0, 625.0)">c</text><text xml:space="preserve" font-family="Sonus" font-size="20.0" fill="#52575F" transform="matrix(1.00, 0.00, -0.00, -1.00, 109.2, 625.0)">a</text><text xml:space="preserve" font-family="Sonus" font-size="20.0" fill="#52575F" transform="matrix(1.00, 0.00, -0.00, -1.00, 119.4, 625.0)">n</text><text xml:space="preserve" font-family="Sonus" font-size="20.0" fill="#52575F" transform="matrix(1.00, 0.00, -0.00, -1.00, 130.7, 625.0)">d</text><text xml:space="preserve" font-family="Sonus" font-size="20.0" fill="#52575F" transform="matrix(1.00, 0.00, -0.00, -1.00, 142.1, 625.0)">i</text><text xml:space="preserve" font-family="Sonus" font-size="20.0" fill="#52575F" transform="matrix(1.00, 0.00, -0.00, -1.00, 146.9, 625.0)">d</text><text xml:space="preserve" font-family="Sonus" font-size="20.0" fill="#52575F" transform="matrix(1.00, 0.00, -0.00, -1.00, 158.3, 625.0)">a</text><text xml:space="preserve" font-family="Sonus" font-size="20.0" fill="#52575F" transform="matrix(1.00, 0.00, -0.00, -1.00, 168.5, 625.0)">t</text><text xml:space="preserve" font-family="Sonus" font-size="20.0" fill="#52575F" transform="matrix(1.00, 0.00, -0.00, -1.00, 175.2, 625.0)">e</text><text xml:space="preserve" font-family="Sonus" font-size="20.0" fill="#52575F" transform="matrix(1.00, 0.00, -0.00, -1.00, 185.5, 625.0)">s</text><text xml:space="preserve" font-family="Sonus" font-size="20.0" fill="#52575F" transform="matrix(1.00, 0.00, -0.00, -1.00, 193.8, 625.0)"> </text><text xml:space="preserve" font-family="Sonus" font-size="20.0" fill="#52575F" transform="matrix(1.00, 0.00, -0.00, -1.00, 198.1, 625.0)">u</text><text xml:space="preserve" font-family="Sonus" font-size="20.0" fill="#52575F" transform="matrix(1.00, 0.00, -0.00, -1.00, 209.5, 625.0)">p</text><text xml:space="preserve" font-family="Sonus" font-size="20.0" fill="#52575F" transform="matrix(1.00, 0.00, -0.00, -1.00, 220.9, 625.0)"> </text><text xml:space="preserve" font-family="Sonus" font-size="20.0" fill="#52575F" transform="matrix(1.00, 0.00, -0.00, -1.00, 225.2, 625.0)">f</text><text xml:space="preserve" font-family="Sonus" font-size="20.0" fill="#52575F" transform="matrix(1.00, 0.00, -0.00, -1.00, 231.6, 625.0)">o</text><text xml:space="preserve" font-family="Sonus" font-size="20.0" fill="#52575F" transform="matrix(1.00, 0.00, -0.00, -1.00, 242.6, 625.0)">r</text><text xml:space="preserve" font-family="Sonus" font-size="20.0" fill="#52575F" transform="matrix(1.00, 0.00, -0.00, -1.00, 249.8, 625.0)"> </text><text xml:space="preserve" font-family="Sonus" font-size="20.0" fill="#52575F" transform="matrix(1.00, 0.00, -0.00, -1.00, 254.1, 625.0)">s</text><text xml:space="preserve" font-family="Sonus" font-size="20.0" fill="#52575F" transform="matrix(1.00, 0.00, -0.00, -1.00, 262.4, 625.0)">u</text><text xml:space="preserve" font-family="Sonus" font-size="20.0" fill="#52575F" transform="matrix(1.00, 0.00, -0.00, -1.00, 273.9, 625.0)">c</text><text xml:space="preserve" font-family="Sonus" font-size="20.0" fill="#52575F" transform="matrix(1.00, 0.00, -0.00, -1.00, 283.0, 625.0)">c</text><text xml:space="preserve" font-family="Sonus" font-size="20.0" fill="#52575F" transform="matrix(1.00, 0.00, -0.00, -1.00, 292.1, 625.0)">e</text><text xml:space="preserve" font-family="Sonus" font-size="20.0" fill="#52575F" transform="matrix(1.00, 0.00, -0.00, -1.00, 302.3, 625.0)">s</text><text xml:space="preserve" font-family="Sonus" font-size="20.0" fill="#52575F" transform="matrix(1.00, 0.00, -0.00, -1.00, 310.6, 625.0)">s</text><text xml:space="preserve" font-family="Sonus" font-size="20.0" fill="#52575F" transform="matrix(1.00, 0.00, -0.00, -1.00, 318.9, 625.0)"> </text><text xml:space="preserve" font-family="Sonus" font-size="20.0" fill="#52575F" transform="matrix(1.00, 0.00, -0.00, -1.00, 323.3, 625.0)">d</text><text xml:space="preserve" font-family="Sonus" font-size="20.0" fill="#52575F" transform="matrix(1.00, 0.00, -0.00, -1.00, 334.6, 625.0)">u</text><text xml:space="preserve" font-family="Sonus" font-size="20.0" fill="#52575F" transform="matrix(1.00, 0.00, -0.00, -1.00, 346.0, 625.0)">r</text><text xml:space="preserve" font-family="Sonus" font-size="20.0" fill="#52575F" transform="matrix(1.00, 0.00, -0.00, -1.00, 353.0, 625.0)">i</text><text xml:space="preserve" font-family="Sonus" font-size="20.0" fill="#52575F" transform="matrix(1.00, 0.00, -0.00, -1.00, 357.9, 625.0)">n</text><text xml:space="preserve" font-family="Sonus" font-size="20.0" fill="#52575F" transform="matrix(1.00, 0.00, -0.00, -1.00, 369.3, 625.0)">g</text><text xml:space="preserve" font-family="Sonus" font-size="20.0" fill="#52575F" transform="matrix(1.00, 0.00, -0.00, -1.00, 379.5, 625.0)"> </text><text xml:space="preserve" font-family="Sonus" font-size="20.0" fill="#52575F" transform="matrix(1.00, 0.00, -0.00, -1.00, 383.8, 625.0)">t</text><text xml:space="preserve" font-family="Sonus" font-size="20.0" fill="#52575F" transform="matrix(1.00, 0.00, -0.00, -1.00, 390.6, 625.0)">h</text><text xml:space="preserve" font-family="Sonus" font-size="20.0" fill="#52575F" transform="matrix(1.00, 0.00, -0.00, -1.00, 402.0, 625.0)">e</text><text xml:space="preserve" font-family="Sonus" font-size="20.0" fill="#52575F" transform="matrix(1.00, 0.00, -0.00, -1.00, 412.2, 625.0)"> </text><text xml:space="preserve" font-family="Sonus" font-size="20.0" fill="#52575F" transform="matrix(1.00, 0.00, -0.00, -1.00, 416.6, 625.0)">h</text><text xml:space="preserve" font-family="Sonus" font-size="20.0" fill="#52575F" transform="matrix(1.00, 0.00, -0.00, -1.00, 428.0, 625.0)">i</text><text xml:space="preserve" font-family="Sonus" font-size="20.0" fill="#52575F" transform="matrix(1.00, 0.00, -0.00, -1.00, 432.9, 625.0)">r</text><text xml:space="preserve" font-family="Sonus" font-size="20.0" fill="#52575F" transform="matrix(1.00, 0.00, -0.00, -1.00, 439.9, 625.0)">i</text><text xml:space="preserve" font-family="Sonus" font-size="20.0" fill="#52575F" transform="matrix(1.00, 0.00, -0.00, -1.00, 444.7, 625.0)">n</text><text xml:space="preserve" font-family="Sonus" font-size="20.0" fill="#52575F" transform="matrix(1.00, 0.00, -0.00, -1.00, 456.2, 625.0)">g</text><text xml:space="preserve" font-family="Sonus" font-size="20.0" fill="#52575F" transform="matrix(1.00, 0.00, -0.00, -1.00, 466.3, 625.0)"> </text><text xml:space="preserve" font-family="Sonus" font-size="20.0" fill="#52575F" transform="matrix(1.00, 0.00, -0.00, -1.00, 470.6, 625.0)">p</text><text xml:space="preserve" font-family="Sonus" font-size="20.0" fill="#52575F" transform="matrix(1.00, 0.00, -0.00, -1.00, 482.0, 625.0)">r</text><text xml:space="preserve" font-family="Sonus" font-size="20.0" fill="#52575F" transform="matrix(1.00, 0.00, -0.00, -1.00, 488.8, 625.0)">o</text><text xml:space="preserve" font-family="Sonus" font-size="20.0" fill="#52575F" transform="matrix(1.00, 0.00, -0.00, -1.00, 499.8, 625.0)">c</text><text xml:space="preserve" font-family="Sonus" font-size="20.0" fill="#52575F" transform="matrix(1.00, 0.00, -0.00, -1.00, 508.9, 625.0)">e</text><text xml:space="preserve" font-family="Sonus" font-size="20.0" fill="#52575F" transform="matrix(1.00, 0.00, -0.00, -1.00, 519.1, 625.0)">s</text><text xml:space="preserve" font-family="Sonus" font-size="20.0" fill="#52575F" transform="matrix(1.00, 0.00, -0.00, -1.00, 527.4, 625.0)">s</text><text xml:space="preserve" font-family="Sonus" font-size="20.0" fill="#52575F" transform="matrix(1.00, 0.00, -0.00, -1.00, 535.7, 625.0)"> </text><path d="M 70.0 721.0 L 1210.0 721.0 L 1210.0 703.5 L 70.0 703.5 Z M 70.0 721.0 " fill="#EF6823"></path><g><clipPath id="clip-19264"><path d="M 69.0 36.0 L 125.0 36.0 L 125.0 92.0 L 69.0 92.0 Z M 69.0 36.0 "></path></clipPath><g clip-path="url(#clip-19264)"><path d="M 94.7 81.9 C 84.8 80.6 77.8 71.6 79.1 61.7 C 80.4 51.8 89.4 44.8 99.3 46.1 C 109.2 47.4 116.2 56.4 114.9 66.3 C 113.6 76.2 104.6 83.2 94.7 81.9 M 106.4 67.3 L 103.5 57.8 C 102.1 53.4 105.0 54.6 105.0 54.6 C 105.0 54.6 104.5 52.9 102.1 52.9 C 100.5 52.9 99.6 54.0 99.8 56.1 C 99.8 56.1 99.8 56.3 99.8 56.3 C 99.9 56.9 100.4 58.5 100.4 58.5 C 100.5 58.8 102.6 65.9 102.6 65.9 C 103.0 67.1 103.4 68.2 103.4 68.6 C 103.3 68.9 103.1 69.0 102.9 69.0 C 102.3 69.0 101.3 68.4 100.4 67.2 L 97.3 57.5 L 93.9 57.5 L 96.7 65.9 C 97.1 67.1 97.4 68.2 97.4 68.6 C 97.4 68.9 97.2 69.0 96.9 69.0 C 96.3 69.0 95.4 68.4 94.5 67.3 L 91.3 57.5 L 88.7 57.5 L 88.1 57.5 C 88.1 57.5 87.7 57.5 88.0 57.9 C 88.1 58.0 88.2 58.2 88.3 58.4 C 89.8 61.3 91.9 69.2 91.9 69.2 C 88.9 68.2 86.4 67.6 86.5 66.1 C 86.5 65.6 86.8 65.3 87.1 65.2 C 87.3 65.1 87.5 64.9 87.1 64.8 C 85.9 64.6 83.8 64.3 83.7 66.0 C 83.4 69.1 92.0 70.4 92.8 72.4 C 92.9 72.6 93.0 72.6 93.0 72.6 C 93.0 72.6 94.4 72.6 94.6 72.6 C 95.0 72.6 95.8 72.4 95.2 70.9 L 94.8 69.8 C 96.0 71.5 98.0 72.4 99.0 72.4 C 100.2 72.4 100.9 71.4 101.0 70.4 C 102.3 71.7 103.9 72.4 105.0 72.4 C 106.3 72.4 106.9 71.3 107.0 70.1 C 107.0 69.4 106.8 68.5 106.4 67.3 " fill="#D2D1D1"></path><path d="M 124.3 57.8 C 124.7 59.4 124.9 61.1 125.0 62.8 L 120.8 64.5 L 120.2 69.5 L 123.8 72.3 C 123.3 73.9 122.6 75.5 121.9 76.9 L 117.3 76.4 L 114.3 80.4 L 116.1 84.6 C 114.8 85.7 113.5 86.7 112.1 87.6 L 108.4 84.9 L 103.8 86.8 L 103.2 91.3 C 101.6 91.7 99.9 91.9 98.2 92.0 L 96.5 87.8 L 91.5 87.2 L 88.7 90.8 C 87.1 90.3 85.5 89.6 84.1 88.9 L 84.6 84.3 L 80.6 81.3 L 76.5 83.0 C 75.3 81.8 74.3 80.5 73.4 79.1 L 76.1 75.4 L 74.2 70.8 L 69.7 70.2 C 69.3 68.6 69.1 66.9 69.0 65.2 L 73.2 63.5 L 73.8 58.5 L 70.2 55.7 C 70.7 54.1 71.4 52.5 72.1 51.1 L 76.7 51.6 L 79.7 47.6 L 77.9 43.5 C 79.2 42.3 80.5 41.3 81.9 40.4 L 85.6 43.1 L 90.2 41.2 L 90.8 36.7 C 92.4 36.3 94.1 36.1 95.8 36.0 L 97.5 40.2 L 102.5 40.8 L 105.3 37.2 C 106.9 37.7 108.5 38.4 109.9 39.1 L 109.4 43.7 L 113.4 46.7 L 117.5 45.0 C 118.7 46.2 119.7 47.5 120.6 48.9 L 117.9 52.6 L 119.8 57.2 Z M 99.7 42.9 C 88.1 41.4 77.4 49.7 75.9 61.3 C 74.4 72.9 82.7 83.6 94.3 85.1 C 105.9 86.6 116.6 78.3 118.1 66.7 C 119.6 55.1 111.3 44.4 99.7 42.9 " fill="#D2D1D1"></path></g></g><image xlink:href="../../45D3E214-E814-44F5-B586-2ABE34FCF47A/assets/FF6CE9B293F9EF06763598DCFCF43E89.png" width="683.00" height="355.00" transform="matrix(1.00, 0.00, -0.00, -1.00, 526.6, 520.4)" opacity="0.70"></image><g><clipPath id="clip-19265"><path d="M 529.0 518.0 L 1208.0 518.0 L 1208.0 168.0 L 529.0 168.0 Z M 528.7 518.4 "></path></clipPath><g clip-path="url(#clip-19265)"><image xlink:href="../../45D3E214-E814-44F5-B586-2ABE34FCF47A/assets/38FE7AB27EB0F273781BDC5049D22900.png" width="680.00" height="346.00" transform="matrix(1.00, 0.00, -0.00, -1.00, 529.0, 516.0)"></image></g></g><path d="M 0.0 2.4 L 0.0 348.5 L 679.0 348.5 L 679.0 2.4 L 0.0 2.4 Z M 0.0 2.4 " fill="none" stroke="#F2F6F5" stroke-width="0.25" transform="matrix(1.00, 0.00, 0.00, -1.00, 528.7, 518.4)"></path><text xml:space="preserve" font-family="Sonus-Bold" font-weight="bold" font-size="40.0" fill="#000000" transform="matrix(1.00, 0.00, -0.00, -1.00, 67.0, 579.0)">M</text><text xml:space="preserve" font-family="Sonus-Bold" font-weight="bold" font-size="40.0" fill="#000000" transform="matrix(1.00, 0.00, -0.00, -1.00, 100.7, 579.0)">a</text><text xml:space="preserve" font-family="Sonus-Bold" font-weight="bold" font-size="40.0" fill="#000000" transform="matrix(1.00, 0.00, -0.00, -1.00, 122.1, 579.0)">k</text><text xml:space="preserve" font-family="Sonus-Bold" font-weight="bold" font-size="40.0" fill="#000000" transform="matrix(1.00, 0.00, -0.00, -1.00, 144.4, 579.0)">e</text><text xml:space="preserve" font-family="Sonus-Bold" font-weight="bold" font-size="40.0" fill="#000000" transform="matrix(1.00, 0.00, -0.00, -1.00, 165.7, 579.0)"> </text><text xml:space="preserve" font-family="Sonus-Bold" font-weight="bold" font-size="40.0" fill="#000000" transform="matrix(1.00, 0.00, -0.00, -1.00, 174.3, 579.0)">t</text><text xml:space="preserve" font-family="Sonus-Bold" font-weight="bold" font-size="40.0" fill="#000000" transform="matrix(1.00, 0.00, -0.00, -1.00, 189.2, 579.0)">h</text><text xml:space="preserve" font-family="Sonus-Bold" font-weight="bold" font-size="40.0" fill="#000000" transform="matrix(1.00, 0.00, -0.00, -1.00, 213.1, 579.0)">e</text><text xml:space="preserve" font-family="Sonus-Bold" font-weight="bold" font-size="40.0" fill="#000000" transform="matrix(1.00, 0.00, -0.00, -1.00, 234.4, 579.0)"> </text><text xml:space="preserve" font-family="Sonus-Bold" font-weight="bold" font-size="40.0" fill="#000000" transform="matrix(1.00, 0.00, -0.00, -1.00, 243.0, 579.0)">h</text><text xml:space="preserve" font-family="Sonus-Bold" font-weight="bold" font-size="40.0" fill="#000000" transform="matrix(1.00, 0.00, -0.00, -1.00, 266.9, 579.0)">i</text><text xml:space="preserve" font-family="Sonus-Bold" font-weight="bold" font-size="40.0" fill="#000000" transform="matrix(1.00, 0.00, -0.00, -1.00, 278.1, 579.0)">r</text><text xml:space="preserve" font-family="Sonus-Bold" font-weight="bold" font-size="40.0" fill="#000000" transform="matrix(1.00, 0.00, -0.00, -1.00, 293.5, 579.0)">i</text><text xml:space="preserve" font-family="Sonus-Bold" font-weight="bold" font-size="40.0" fill="#000000" transform="matrix(1.00, 0.00, -0.00, -1.00, 304.7, 579.0)">n</text><text xml:space="preserve" font-family="Sonus-Bold" font-weight="bold" font-size="40.0" fill="#000000" transform="matrix(1.00, 0.00, -0.00, -1.00, 328.7, 579.0)">g</text><text xml:space="preserve" font-family="Sonus-Bold" font-weight="bold" font-size="40.0" fill="#000000" transform="matrix(1.00, 0.00, -0.00, -1.00, 350.2, 579.0)"> </text><text xml:space="preserve" font-family="Sonus-Bold" font-weight="bold" font-size="40.0" fill="#000000" transform="matrix(1.00, 0.00, -0.00, -1.00, 358.8, 579.0)">p</text><text xml:space="preserve" font-family="Sonus-Bold" font-weight="bold" font-size="40.0" fill="#000000" transform="matrix(1.00, 0.00, -0.00, -1.00, 382.8, 579.0)">r</text><text xml:space="preserve" font-family="Sonus-Bold" font-weight="bold" font-size="40.0" fill="#000000" transform="matrix(1.00, 0.00, -0.00, -1.00, 397.9, 579.0)">o</text><text xml:space="preserve" font-family="Sonus-Bold" font-weight="bold" font-size="40.0" fill="#000000" transform="matrix(1.00, 0.00, -0.00, -1.00, 421.1, 579.0)">c</text><text xml:space="preserve" font-family="Sonus-Bold" font-weight="bold" font-size="40.0" fill="#000000" transform="matrix(1.00, 0.00, -0.00, -1.00, 439.9, 579.0)">e</text><text xml:space="preserve" font-family="Sonus-Bold" font-weight="bold" font-size="40.0" fill="#000000" transform="matrix(1.00, 0.00, -0.00, -1.00, 461.2, 579.0)">s</text><text xml:space="preserve" font-family="Sonus-Bold" font-weight="bold" font-size="40.0" fill="#000000" transform="matrix(1.00, 0.00, -0.00, -1.00, 478.8, 579.0)">s</text><text xml:space="preserve" font-family="Sonus-Bold" font-weight="bold" font-size="40.0" fill="#000000" transform="matrix(1.00, 0.00, -0.00, -1.00, 496.5, 579.0)"> </text><text xml:space="preserve" font-family="Sonus-Bold" font-weight="bold" font-size="40.0" fill="#000000" transform="matrix(1.00, 0.00, -0.00, -1.00, 505.1, 579.0)">t</text><text xml:space="preserve" font-family="Sonus-Bold" font-weight="bold" font-size="40.0" fill="#000000" transform="matrix(1.00, 0.00, -0.00, -1.00, 520.0, 579.0)">r</text><text xml:space="preserve" font-family="Sonus-Bold" font-weight="bold" font-size="40.0" fill="#000000" transform="matrix(1.00, 0.00, -0.00, -1.00, 535.3, 579.0)">a</text><text xml:space="preserve" font-family="Sonus-Bold" font-weight="bold" font-size="40.0" fill="#000000" transform="matrix(1.00, 0.00, -0.00, -1.00, 556.7, 579.0)">n</text><text xml:space="preserve" font-family="Sonus-Bold" font-weight="bold" font-size="40.0" fill="#000000" transform="matrix(1.00, 0.00, -0.00, -1.00, 580.5, 579.0)">s</text><text xml:space="preserve" font-family="Sonus-Bold" font-weight="bold" font-size="40.0" fill="#000000" transform="matrix(1.00, 0.00, -0.00, -1.00, 598.1, 579.0)">p</text><text xml:space="preserve" font-family="Sonus-Bold" font-weight="bold" font-size="40.0" fill="#000000" transform="matrix(1.00, 0.00, -0.00, -1.00, 622.1, 579.0)">a</text><text xml:space="preserve" font-family="Sonus-Bold" font-weight="bold" font-size="40.0" fill="#000000" transform="matrix(1.00, 0.00, -0.00, -1.00, 643.5, 579.0)">r</text><text xml:space="preserve" font-family="Sonus-Bold" font-weight="bold" font-size="40.0" fill="#000000" transform="matrix(1.00, 0.00, -0.00, -1.00, 658.6, 579.0)">e</text><text xml:space="preserve" font-family="Sonus-Bold" font-weight="bold" font-size="40.0" fill="#000000" transform="matrix(1.00, 0.00, -0.00, -1.00, 679.9, 579.0)">n</text><text xml:space="preserve" font-family="Sonus-Bold" font-weight="bold" font-size="40.0" fill="#000000" transform="matrix(1.00, 0.00, -0.00, -1.00, 703.7, 579.0)">t</text><text xml:space="preserve" font-family="Sonus-Light" font-size="20.0" fill="#5D5D5D" transform="matrix(1.00, 0.00, -0.00, -1.00, 72.0, 391.0)">B</text><text xml:space="preserve" font-family="Sonus-Light" font-size="20.0" fill="#5D5D5D" transform="matrix(1.00, 0.00, -0.00, -1.00, 83.9, 391.0)">C</text><text xml:space="preserve" font-family="Sonus-Light" font-size="20.0" fill="#5D5D5D" transform="matrix(1.00, 0.00, -0.00, -1.00, 95.7, 391.0)">G</text><text xml:space="preserve" font-family="Sonus-Light" font-size="20.0" fill="#5D5D5D" transform="matrix(1.00, 0.00, -0.00, -1.00, 109.5, 391.0)"> </text><text xml:space="preserve" font-family="Sonus-Light" font-size="20.0" fill="#5D5D5D" transform="matrix(1.00, 0.00, -0.00, -1.00, 113.8, 391.0)">h</text><text xml:space="preserve" font-family="Sonus-Light" font-size="20.0" fill="#5D5D5D" transform="matrix(1.00, 0.00, -0.00, -1.00, 125.0, 391.0)">a</text><text xml:space="preserve" font-family="Sonus-Light" font-size="20.0" fill="#5D5D5D" transform="matrix(1.00, 0.00, -0.00, -1.00, 135.0, 391.0)">s</text><text xml:space="preserve" font-family="Sonus-Light" font-size="20.0" fill="#5D5D5D" transform="matrix(1.00, 0.00, -0.00, -1.00, 143.1, 391.0)"> </text><text xml:space="preserve" font-family="Sonus-Light" font-size="20.0" fill="#5D5D5D" transform="matrix(1.00, 0.00, -0.00, -1.00, 147.4, 391.0)">b</text><text xml:space="preserve" font-family="Sonus-Light" font-size="20.0" fill="#5D5D5D" transform="matrix(1.00, 0.00, -0.00, -1.00, 158.4, 391.0)">o</text><text xml:space="preserve" font-family="Sonus-Light" font-size="20.0" fill="#5D5D5D" transform="matrix(1.00, 0.00, -0.00, -1.00, 169.2, 391.0)">t</text><text xml:space="preserve" font-family="Sonus-Light" font-size="20.0" fill="#5D5D5D" transform="matrix(1.00, 0.00, -0.00, -1.00, 175.7, 391.0)">h</text><text xml:space="preserve" font-family="Sonus-Light" font-size="20.0" fill="#5D5D5D" transform="matrix(1.00, 0.00, -0.00, -1.00, 186.9, 391.0)"> </text><text xml:space="preserve" font-family="Sonus-Light" font-size="20.0" fill="#5D5D5D" transform="matrix(1.00, 0.00, -0.00, -1.00, 191.3, 391.0)">g</text><text xml:space="preserve" font-family="Sonus-Light" font-size="20.0" fill="#5D5D5D" transform="matrix(1.00, 0.00, -0.00, -1.00, 201.2, 391.0)">u</text><text xml:space="preserve" font-family="Sonus-Light" font-size="20.0" fill="#5D5D5D" transform="matrix(1.00, 0.00, -0.00, -1.00, 212.4, 391.0)">i</text><text xml:space="preserve" font-family="Sonus-Light" font-size="20.0" fill="#5D5D5D" transform="matrix(1.00, 0.00, -0.00, -1.00, 217.0, 391.0)">d</text><text xml:space="preserve" font-family="Sonus-Light" font-size="20.0" fill="#5D5D5D" transform="matrix(1.00, 0.00, -0.00, -1.00, 228.1, 391.0)">e</text><text xml:space="preserve" font-family="Sonus-Light" font-size="20.0" fill="#5D5D5D" transform="matrix(1.00, 0.00, -0.00, -1.00, 238.1, 391.0)">d</text><text xml:space="preserve" font-family="Sonus-Light" font-size="20.0" fill="#5D5D5D" transform="matrix(1.00, 0.00, -0.00, -1.00, 249.2, 391.0)"> </text><text xml:space="preserve" font-family="Sonus-Light" font-size="20.0" fill="#5D5D5D" transform="matrix(1.00, 0.00, -0.00, -1.00, 253.5, 391.0)">a</text><text xml:space="preserve" font-family="Sonus-Light" font-size="20.0" fill="#5D5D5D" transform="matrix(1.00, 0.00, -0.00, -1.00, 263.5, 391.0)">n</text><text xml:space="preserve" font-family="Sonus-Light" font-size="20.0" fill="#5D5D5D" transform="matrix(1.00, 0.00, -0.00, -1.00, 274.6, 391.0)">d</text><text xml:space="preserve" font-family="Sonus-Light" font-size="20.0" fill="#5D5D5D" transform="matrix(1.00, 0.00, -0.00, -1.00, 285.6, 391.0)"> </text><text xml:space="preserve" font-family="Sonus-Light" font-size="20.0" fill="#5D5D5D" transform="matrix(1.00, 0.00, -0.00, -1.00, 289.9, 391.0)">m</text><text xml:space="preserve" font-family="Sonus-Light" font-size="20.0" fill="#5D5D5D" transform="matrix(1.00, 0.00, -0.00, -1.00, 307.3, 391.0)">o</text><text xml:space="preserve" font-family="Sonus-Light" font-size="20.0" fill="#5D5D5D" transform="matrix(1.00, 0.00, -0.00, -1.00, 318.1, 391.0)">r</text><text xml:space="preserve" font-family="Sonus-Light" font-size="20.0" fill="#5D5D5D" transform="matrix(1.00, 0.00, -0.00, -1.00, 324.6, 391.0)">e</text><text xml:space="preserve" font-family="Sonus-Light" font-size="20.0" fill="#5D5D5D" transform="matrix(1.00, 0.00, -0.00, -1.00, 334.6, 391.0)"> </text><text xml:space="preserve" font-family="Sonus-Light" font-size="20.0" fill="#5D5D5D" transform="matrix(1.00, 0.00, -0.00, -1.00, 339.0, 391.0)">c</text><text xml:space="preserve" font-family="Sonus-Light" font-size="20.0" fill="#5D5D5D" transform="matrix(1.00, 0.00, -0.00, -1.00, 348.0, 391.0)">h</text><text xml:space="preserve" font-family="Sonus-Light" font-size="20.0" fill="#5D5D5D" transform="matrix(1.00, 0.00, -0.00, -1.00, 359.2, 391.0)">a</text><text xml:space="preserve" font-family="Sonus-Light" font-size="20.0" fill="#5D5D5D" transform="matrix(1.00, 0.00, -0.00, -1.00, 369.2, 391.0)">l</text><text xml:space="preserve" font-family="Sonus-Light" font-size="20.0" fill="#5D5D5D" transform="matrix(1.00, 0.00, -0.00, -1.00, 373.8, 391.0)">l</text><text xml:space="preserve" font-family="Sonus-Light" font-size="20.0" fill="#5D5D5D" transform="matrix(1.00, 0.00, -0.00, -1.00, 378.4, 391.0)">e</text><text xml:space="preserve" font-family="Sonus-Light" font-size="20.0" fill="#5D5D5D" transform="matrix(1.00, 0.00, -0.00, -1.00, 388.4, 391.0)">n</text><text xml:space="preserve" font-family="Sonus-Light" font-size="20.0" fill="#5D5D5D" transform="matrix(1.00, 0.00, -0.00, -1.00, 399.6, 391.0)">g</text><text xml:space="preserve" font-family="Sonus-Light" font-size="20.0" fill="#5D5D5D" transform="matrix(1.00, 0.00, -0.00, -1.00, 409.6, 391.0)">i</text><text xml:space="preserve" font-family="Sonus-Light" font-size="20.0" fill="#5D5D5D" transform="matrix(1.00, 0.00, -0.00, -1.00, 414.2, 391.0)">n</text><text xml:space="preserve" font-family="Sonus-Light" font-size="20.0" fill="#5D5D5D" transform="matrix(1.00, 0.00, -0.00, -1.00, 425.4, 391.0)">g</text><text xml:space="preserve" font-family="Sonus-Light" font-size="20.0" fill="#5D5D5D" transform="matrix(1.00, 0.00, -0.00, -1.00, 435.3, 391.0)"> </text><text xml:space="preserve" font-family="Sonus-Light" font-size="20.0" fill="#5D5D5D" transform="matrix(1.00, 0.00, -0.00, -1.00, 72.0, 362.0)">i</text><text xml:space="preserve" font-family="Sonus-Light" font-size="20.0" fill="#5D5D5D" transform="matrix(1.00, 0.00, -0.00, -1.00, 76.6, 362.0)">n</text><text xml:space="preserve" font-family="Sonus-Light" font-size="20.0" fill="#5D5D5D" transform="matrix(1.00, 0.00, -0.00, -1.00, 87.7, 362.0)">t</text><text xml:space="preserve" font-family="Sonus-Light" font-size="20.0" fill="#5D5D5D" transform="matrix(1.00, 0.00, -0.00, -1.00, 94.2, 362.0)">e</text><text xml:space="preserve" font-family="Sonus-Light" font-size="20.0" fill="#5D5D5D" transform="matrix(1.00, 0.00, -0.00, -1.00, 104.2, 362.0)">r</text><text xml:space="preserve" font-family="Sonus-Light" font-size="20.0" fill="#5D5D5D" transform="matrix(1.00, 0.00, -0.00, -1.00, 110.8, 362.0)">a</text><text xml:space="preserve" font-family="Sonus-Light" font-size="20.0" fill="#5D5D5D" transform="matrix(1.00, 0.00, -0.00, -1.00, 120.8, 362.0)">c</text><text xml:space="preserve" font-family="Sonus-Light" font-size="20.0" fill="#5D5D5D" transform="matrix(1.00, 0.00, -0.00, -1.00, 130.1, 362.0)">t</text><text xml:space="preserve" font-family="Sonus-Light" font-size="20.0" fill="#5D5D5D" transform="matrix(1.00, 0.00, -0.00, -1.00, 136.6, 362.0)">i</text><text xml:space="preserve" font-family="Sonus-Light" font-size="20.0" fill="#5D5D5D" transform="matrix(1.00, 0.00, -0.00, -1.00, 141.2, 362.0)">v</text><text xml:space="preserve" font-family="Sonus-Light" font-size="20.0" fill="#5D5D5D" transform="matrix(1.00, 0.00, -0.00, -1.00, 150.2, 362.0)">e</text><text xml:space="preserve" font-family="Sonus-Light" font-size="20.0" fill="#5D5D5D" transform="matrix(1.00, 0.00, -0.00, -1.00, 160.2, 362.0)"> </text><text xml:space="preserve" font-family="Sonus-Light" font-size="20.0" fill="#5D5D5D" transform="matrix(1.00, 0.00, -0.00, -1.00, 164.6, 362.0)">c</text><text xml:space="preserve" font-family="Sonus-Light" font-size="20.0" fill="#5D5D5D" transform="matrix(1.00, 0.00, -0.00, -1.00, 173.7, 362.0)">a</text><text xml:space="preserve" font-family="Sonus-Light" font-size="20.0" fill="#5D5D5D" transform="matrix(1.00, 0.00, -0.00, -1.00, 183.7, 362.0)">s</text><text xml:space="preserve" font-family="Sonus-Light" font-size="20.0" fill="#5D5D5D" transform="matrix(1.00, 0.00, -0.00, -1.00, 191.9, 362.0)">e</text><text xml:space="preserve" font-family="Sonus-Light" font-size="20.0" fill="#5D5D5D" transform="matrix(1.00, 0.00, -0.00, -1.00, 201.9, 362.0)"> </text><text xml:space="preserve" font-family="Sonus-Light" font-size="20.0" fill="#5D5D5D" transform="matrix(1.00, 0.00, -0.00, -1.00, 206.2, 362.0)">s</text><text xml:space="preserve" font-family="Sonus-Light" font-size="20.0" fill="#5D5D5D" transform="matrix(1.00, 0.00, -0.00, -1.00, 214.3, 362.0)">t</text><text xml:space="preserve" font-family="Sonus-Light" font-size="20.0" fill="#5D5D5D" transform="matrix(1.00, 0.00, -0.00, -1.00, 220.8, 362.0)">u</text><text xml:space="preserve" font-family="Sonus-Light" font-size="20.0" fill="#5D5D5D" transform="matrix(1.00, 0.00, -0.00, -1.00, 232.0, 362.0)">d</text><text xml:space="preserve" font-family="Sonus-Light" font-size="20.0" fill="#5D5D5D" transform="matrix(1.00, 0.00, -0.00, -1.00, 243.1, 362.0)">i</text><text xml:space="preserve" font-family="Sonus-Light" font-size="20.0" fill="#5D5D5D" transform="matrix(1.00, 0.00, -0.00, -1.00, 247.7, 362.0)">e</text><text xml:space="preserve" font-family="Sonus-Light" font-size="20.0" fill="#5D5D5D" transform="matrix(1.00, 0.00, -0.00, -1.00, 257.8, 362.0)">s</text><text xml:space="preserve" font-family="Sonus-Light" font-size="20.0" fill="#5D5D5D" transform="matrix(1.00, 0.00, -0.00, -1.00, 265.8, 362.0)"> </text><text xml:space="preserve" font-family="Sonus-Light" font-size="20.0" fill="#5D5D5D" transform="matrix(1.00, 0.00, -0.00, -1.00, 270.2, 362.0)">t</text><text xml:space="preserve" font-family="Sonus-Light" font-size="20.0" fill="#5D5D5D" transform="matrix(1.00, 0.00, -0.00, -1.00, 276.7, 362.0)">o</text><text xml:space="preserve" font-family="Sonus-Light" font-size="20.0" fill="#5D5D5D" transform="matrix(1.00, 0.00, -0.00, -1.00, 287.4, 362.0)"> </text><text xml:space="preserve" font-family="Sonus-Light" font-size="20.0" fill="#5D5D5D" transform="matrix(1.00, 0.00, -0.00, -1.00, 291.8, 362.0)">p</text><text xml:space="preserve" font-family="Sonus-Light" font-size="20.0" fill="#5D5D5D" transform="matrix(1.00, 0.00, -0.00, -1.00, 302.8, 362.0)">r</text><text xml:space="preserve" font-family="Sonus-Light" font-size="20.0" fill="#5D5D5D" transform="matrix(1.00, 0.00, -0.00, -1.00, 309.3, 362.0)">e</text><text xml:space="preserve" font-family="Sonus-Light" font-size="20.0" fill="#5D5D5D" transform="matrix(1.00, 0.00, -0.00, -1.00, 319.4, 362.0)">p</text><text xml:space="preserve" font-family="Sonus-Light" font-size="20.0" fill="#5D5D5D" transform="matrix(1.00, 0.00, -0.00, -1.00, 330.4, 362.0)">a</text><text xml:space="preserve" font-family="Sonus-Light" font-size="20.0" fill="#5D5D5D" transform="matrix(1.00, 0.00, -0.00, -1.00, 340.4, 362.0)">r</text><text xml:space="preserve" font-family="Sonus-Light" font-size="20.0" fill="#5D5D5D" transform="matrix(1.00, 0.00, -0.00, -1.00, 346.9, 362.0)">e</text><text xml:space="preserve" font-family="Sonus-Light" font-size="20.0" fill="#5D5D5D" transform="matrix(1.00, 0.00, -0.00, -1.00, 357.0, 362.0)"> </text><text xml:space="preserve" font-family="Sonus-Light" font-size="20.0" fill="#5D5D5D" transform="matrix(1.00, 0.00, -0.00, -1.00, 361.3, 362.0)">c</text><text xml:space="preserve" font-family="Sonus-Light" font-size="20.0" fill="#5D5D5D" transform="matrix(1.00, 0.00, -0.00, -1.00, 370.4, 362.0)">a</text><text xml:space="preserve" font-family="Sonus-Light" font-size="20.0" fill="#5D5D5D" transform="matrix(1.00, 0.00, -0.00, -1.00, 380.4, 362.0)">n</text><text xml:space="preserve" font-family="Sonus-Light" font-size="20.0" fill="#5D5D5D" transform="matrix(1.00, 0.00, -0.00, -1.00, 391.5, 362.0)">d</text><text xml:space="preserve" font-family="Sonus-Light" font-size="20.0" fill="#5D5D5D" transform="matrix(1.00, 0.00, -0.00, -1.00, 402.5, 362.0)">i</text><text xml:space="preserve" font-family="Sonus-Light" font-size="20.0" fill="#5D5D5D" transform="matrix(1.00, 0.00, -0.00, -1.00, 407.1, 362.0)">d</text><text xml:space="preserve" font-family="Sonus-Light" font-size="20.0" fill="#5D5D5D" transform="matrix(1.00, 0.00, -0.00, -1.00, 418.2, 362.0)">a</text><text xml:space="preserve" font-family="Sonus-Light" font-size="20.0" fill="#5D5D5D" transform="matrix(1.00, 0.00, -0.00, -1.00, 428.2, 362.0)">t</text><text xml:space="preserve" font-family="Sonus-Light" font-size="20.0" fill="#5D5D5D" transform="matrix(1.00, 0.00, -0.00, -1.00, 434.7, 362.0)">e</text><text xml:space="preserve" font-family="Sonus-Light" font-size="20.0" fill="#5D5D5D" transform="matrix(1.00, 0.00, -0.00, -1.00, 444.7, 362.0)">s</text><text xml:space="preserve" font-family="Sonus-Light" font-size="20.0" fill="#5D5D5D" transform="matrix(1.00, 0.00, -0.00, -1.00, 452.8, 362.0)"> </text><text xml:space="preserve" font-family="Sonus-Light" font-size="20.0" fill="#5D5D5D" transform="matrix(1.00, 0.00, -0.00, -1.00, 72.0, 333.0)">f</text><text xml:space="preserve" font-family="Sonus-Light" font-size="20.0" fill="#5D5D5D" transform="matrix(1.00, 0.00, -0.00, -1.00, 78.2, 333.0)">o</text><text xml:space="preserve" font-family="Sonus-Light" font-size="20.0" fill="#5D5D5D" transform="matrix(1.00, 0.00, -0.00, -1.00, 89.0, 333.0)">r</text><text xml:space="preserve" font-family="Sonus-Light" font-size="20.0" fill="#5D5D5D" transform="matrix(1.00, 0.00, -0.00, -1.00, 95.9, 333.0)"> </text><text xml:space="preserve" font-family="Sonus-Light" font-size="20.0" fill="#5D5D5D" transform="matrix(1.00, 0.00, -0.00, -1.00, 100.2, 333.0)">t</text><text xml:space="preserve" font-family="Sonus-Light" font-size="20.0" fill="#5D5D5D" transform="matrix(1.00, 0.00, -0.00, -1.00, 106.7, 333.0)">h</text><text xml:space="preserve" font-family="Sonus-Light" font-size="20.0" fill="#5D5D5D" transform="matrix(1.00, 0.00, -0.00, -1.00, 117.9, 333.0)">e</text><text xml:space="preserve" font-family="Sonus-Light" font-size="20.0" fill="#5D5D5D" transform="matrix(1.00, 0.00, -0.00, -1.00, 128.0, 333.0)">i</text><text xml:space="preserve" font-family="Sonus-Light" font-size="20.0" fill="#5D5D5D" transform="matrix(1.00, 0.00, -0.00, -1.00, 132.6, 333.0)">r</text><text xml:space="preserve" font-family="Sonus-Light" font-size="20.0" fill="#5D5D5D" transform="matrix(1.00, 0.00, -0.00, -1.00, 139.4, 333.0)"> </text><text xml:space="preserve" font-family="Sonus-Light" font-size="20.0" fill="#5D5D5D" transform="matrix(1.00, 0.00, -0.00, -1.00, 143.8, 333.0)">i</text><text xml:space="preserve" font-family="Sonus-Light" font-size="20.0" fill="#5D5D5D" transform="matrix(1.00, 0.00, -0.00, -1.00, 148.4, 333.0)">n</text><text xml:space="preserve" font-family="Sonus-Light" font-size="20.0" fill="#5D5D5D" transform="matrix(1.00, 0.00, -0.00, -1.00, 159.4, 333.0)">t</text><text xml:space="preserve" font-family="Sonus-Light" font-size="20.0" fill="#5D5D5D" transform="matrix(1.00, 0.00, -0.00, -1.00, 165.9, 333.0)">e</text><text xml:space="preserve" font-family="Sonus-Light" font-size="20.0" fill="#5D5D5D" transform="matrix(1.00, 0.00, -0.00, -1.00, 176.0, 333.0)">r</text><text xml:space="preserve" font-family="Sonus-Light" font-size="20.0" fill="#5D5D5D" transform="matrix(1.00, 0.00, -0.00, -1.00, 183.2, 333.0)">v</text><text xml:space="preserve" font-family="Sonus-Light" font-size="20.0" fill="#5D5D5D" transform="matrix(1.00, 0.00, -0.00, -1.00, 192.2, 333.0)">i</text><text xml:space="preserve" font-family="Sonus-Light" font-size="20.0" fill="#5D5D5D" transform="matrix(1.00, 0.00, -0.00, -1.00, 196.8, 333.0)">e</text><text xml:space="preserve" font-family="Sonus-Light" font-size="20.0" fill="#5D5D5D" transform="matrix(1.00, 0.00, -0.00, -1.00, 207.0, 333.0)">w</text><text xml:space="preserve" font-family="Sonus-Light" font-size="20.0" fill="#5D5D5D" transform="matrix(1.00, 0.00, -0.00, -1.00, 220.0, 333.0)">.</text><text xml:space="preserve" font-family="Sonus-Light" font-size="20.0" fill="#5D5D5D" transform="matrix(1.00, 0.00, -0.00, -1.00, 223.8, 333.0)"> </text><g><clipPath id="clip-19266"><path d="M 530.4 51.8 L 1207.9 51.8 L 1207.9 89.3 L 530.4 89.3 Z M 530.4 51.8 "></path></clipPath><g clip-path="url(#clip-19266)"><text xml:space="preserve" font-family="Sonus-Light" font-size="12.0" fill="#A6AAA8" transform="matrix(1.00, 0.00, -0.00, -1.00, 996.8, 54.0)">h</text><text xml:space="preserve" font-family="Sonus-Light" font-size="12.0" fill="#A6AAA8" transform="matrix(1.00, 0.00, -0.00, -1.00, 1003.5, 54.0)">t</text><text xml:space="preserve" font-family="Sonus-Light" font-size="12.0" fill="#A6AAA8" transform="matrix(1.00, 0.00, -0.00, -1.00, 1007.4, 54.0)">t</text><text xml:space="preserve" font-family="Sonus-Light" font-size="12.0" fill="#A6AAA8" transform="matrix(1.00, 0.00, -0.00, -1.00, 1011.3, 54.0)">p</text><text xml:space="preserve" font-family="Sonus-Light" font-size="12.0" fill="#A6AAA8" transform="matrix(1.00, 0.00, -0.00, -1.00, 1017.9, 54.0)">:</text><text xml:space="preserve" font-family="Sonus-Light" font-size="12.0" fill="#A6AAA8" transform="matrix(1.00, 0.00, -0.00, -1.00, 1020.5, 54.0)">/</text><text xml:space="preserve" font-family="Sonus-Light" font-size="12.0" fill="#A6AAA8" transform="matrix(1.00, 0.00, -0.00, -1.00, 1025.0, 54.0)">/</text><text xml:space="preserve" font-family="Sonus-Light" font-size="12.0" fill="#A6AAA8" transform="matrix(1.00, 0.00, -0.00, -1.00, 1029.5, 54.0)">w</text><text xml:space="preserve" font-family="Sonus-Light" font-size="12.0" fill="#A6AAA8" transform="matrix(1.00, 0.00, -0.00, -1.00, 1037.8, 54.0)">w</text><text xml:space="preserve" font-family="Sonus-Light" font-size="12.0" fill="#A6AAA8" transform="matrix(1.00, 0.00, -0.00, -1.00, 1046.0, 54.0)">w</text><text xml:space="preserve" font-family="Sonus-Light" font-size="12.0" fill="#A6AAA8" transform="matrix(1.00, 0.00, -0.00, -1.00, 1053.8, 54.0)">.</text><text xml:space="preserve" font-family="Sonus-Light" font-size="12.0" fill="#A6AAA8" transform="matrix(1.00, 0.00, -0.00, -1.00, 1056.1, 54.0)">b</text><text xml:space="preserve" font-family="Sonus-Light" font-size="12.0" fill="#A6AAA8" transform="matrix(1.00, 0.00, -0.00, -1.00, 1062.7, 54.0)">c</text><text xml:space="preserve" font-family="Sonus-Light" font-size="12.0" fill="#A6AAA8" transform="matrix(1.00, 0.00, -0.00, -1.00, 1068.3, 54.0)">g</text><text xml:space="preserve" font-family="Sonus-Light" font-size="12.0" fill="#A6AAA8" transform="matrix(1.00, 0.00, -0.00, -1.00, 1074.8, 54.0)">.</text><text xml:space="preserve" font-family="Sonus-Light" font-size="12.0" fill="#A6AAA8" transform="matrix(1.00, 0.00, -0.00, -1.00, 1077.1, 54.0)">c</text><text xml:space="preserve" font-family="Sonus-Light" font-size="12.0" fill="#A6AAA8" transform="matrix(1.00, 0.00, -0.00, -1.00, 1082.6, 54.0)">o</text><text xml:space="preserve" font-family="Sonus-Light" font-size="12.0" fill="#A6AAA8" transform="matrix(1.00, 0.00, -0.00, -1.00, 1089.0, 54.0)">m</text><text xml:space="preserve" font-family="Sonus-Light" font-size="12.0" fill="#A6AAA8" transform="matrix(1.00, 0.00, -0.00, -1.00, 1099.7, 54.0)">/</text><text xml:space="preserve" font-family="Sonus-Light" font-size="12.0" fill="#A6AAA8" transform="matrix(1.00, 0.00, -0.00, -1.00, 1103.5, 54.0)">c</text><text xml:space="preserve" font-family="Sonus-Light" font-size="12.0" fill="#A6AAA8" transform="matrix(1.00, 0.00, -0.00, -1.00, 1109.0, 54.0)">a</text><text xml:space="preserve" font-family="Sonus-Light" font-size="12.0" fill="#A6AAA8" transform="matrix(1.00, 0.00, -0.00, -1.00, 1114.9, 54.0)">r</text><text xml:space="preserve" font-family="Sonus-Light" font-size="12.0" fill="#A6AAA8" transform="matrix(1.00, 0.00, -0.00, -1.00, 1118.8, 54.0)">e</text><text xml:space="preserve" font-family="Sonus-Light" font-size="12.0" fill="#A6AAA8" transform="matrix(1.00, 0.00, -0.00, -1.00, 1124.9, 54.0)">e</text><text xml:space="preserve" font-family="Sonus-Light" font-size="12.0" fill="#A6AAA8" transform="matrix(1.00, 0.00, -0.00, -1.00, 1130.9, 54.0)">r</text><text xml:space="preserve" font-family="Sonus-Light" font-size="12.0" fill="#A6AAA8" transform="matrix(1.00, 0.00, -0.00, -1.00, 1134.9, 54.0)">s</text><text xml:space="preserve" font-family="Sonus-Light" font-size="12.0" fill="#A6AAA8" transform="matrix(1.00, 0.00, -0.00, -1.00, 1139.7, 54.0)">/</text><text xml:space="preserve" font-family="Sonus-Light" font-size="12.0" fill="#A6AAA8" transform="matrix(1.00, 0.00, -0.00, -1.00, 1143.5, 54.0)">d</text><text xml:space="preserve" font-family="Sonus-Light" font-size="12.0" fill="#A6AAA8" transform="matrix(1.00, 0.00, -0.00, -1.00, 1150.2, 54.0)">e</text><text xml:space="preserve" font-family="Sonus-Light" font-size="12.0" fill="#A6AAA8" transform="matrix(1.00, 0.00, -0.00, -1.00, 1156.2, 54.0)">f</text><text xml:space="preserve" font-family="Sonus-Light" font-size="12.0" fill="#A6AAA8" transform="matrix(1.00, 0.00, -0.00, -1.00, 1159.9, 54.0)">a</text><text xml:space="preserve" font-family="Sonus-Light" font-size="12.0" fill="#A6AAA8" transform="matrix(1.00, 0.00, -0.00, -1.00, 1165.9, 54.0)">u</text><text xml:space="preserve" font-family="Sonus-Light" font-size="12.0" fill="#A6AAA8" transform="matrix(1.00, 0.00, -0.00, -1.00, 1172.6, 54.0)">l</text><text xml:space="preserve" font-family="Sonus-Light" font-size="12.0" fill="#A6AAA8" transform="matrix(1.00, 0.00, -0.00, -1.00, 1175.4, 54.0)">t</text><text xml:space="preserve" font-family="Sonus-Light" font-size="12.0" fill="#A6AAA8" transform="matrix(1.00, 0.00, -0.00, -1.00, 1179.7, 54.0)">.</text><text xml:space="preserve" font-family="Sonus-Light" font-size="12.0" fill="#A6AAA8" transform="matrix(1.00, 0.00, -0.00, -1.00, 1181.9, 54.0)">a</text><text xml:space="preserve" font-family="Sonus-Light" font-size="12.0" fill="#A6AAA8" transform="matrix(1.00, 0.00, -0.00, -1.00, 1187.9, 54.0)">s</text><text xml:space="preserve" font-family="Sonus-Light" font-size="12.0" fill="#A6AAA8" transform="matrix(1.00, 0.00, -0.00, -1.00, 1192.8, 54.0)">p</text><text xml:space="preserve" font-family="Sonus-Light" font-size="12.0" fill="#A6AAA8" transform="matrix(1.00, 0.00, -0.00, -1.00, 1199.4, 54.0)">x</text></g></g><g><clipPath id="clip-19267"><path d="M 995.8 51.8 L 1205.0 51.8 L 1205.0 54.4 L 995.8 54.4 Z M 995.8 51.8 "></path></clipPath><g clip-path="url(#clip-19267)"><path d="M 467.2 39.9 L 675.5 39.9 " fill="none" stroke="#A6AAA8" stroke-width="0.60" stroke-miterlimit="0.00" transform="matrix(1.00, 0.00, 0.00, -1.00, 529.5, 93.0)"></path></g></g><g><clipPath id="clip-19268"><path d="M 71.0 469.0 L 453.0 469.0 L 453.0 438.7 L 71.0 438.7 Z M 71.0 469.0 "></path></clipPath><g clip-path="url(#clip-19268)"><g><clipPath id="clip-19269"><path d="M 71.0 445.0 L 453.0 445.0 L 453.0 469.0 L 71.0 469.0 Z M 71.0 445.0 "></path></clipPath><g clip-path="url(#clip-19269)"><path d="M 129.4 456.4 L 130.8 456.4 C 135.5 456.4 138.2 455.2 138.2 451.6 C 138.2 448.4 136.2 446.9 132.4 446.9 C 129.5 446.9 129.4 447.3 129.4 451.4 Z M 445.7 459.4 L 446.8 459.4 C 448.7 459.4 450.2 458.5 450.2 456.4 C 450.2 453.9 448.7 452.9 446.1 452.9 L 445.0 452.9 L 445.0 459.2 C 445.0 459.4 445.2 459.4 445.7 459.4 M 398.5 459.4 L 399.8 459.4 C 401.4 459.4 402.8 458.7 402.8 456.8 C 402.8 454.7 401.4 453.9 399.1 453.9 L 397.6 453.9 L 397.6 459.2 C 397.6 459.4 398.0 459.4 398.5 459.4 Z M 415.1 459.7 C 417.8 459.7 419.7 457.9 419.7 453.2 C 419.7 448.6 418.3 446.4 415.4 446.4 C 412.8 446.4 411.0 448.2 411.0 453.0 C 411.0 457.5 412.2 459.7 415.1 459.7 Z M 248.1 459.7 C 251.0 459.7 252.8 457.9 252.8 453.2 C 252.8 448.6 251.3 446.4 248.5 446.4 C 245.8 446.4 243.9 448.2 243.9 453.0 C 243.9 457.5 245.5 459.7 248.1 459.7 M 190.6 459.7 C 193.3 459.7 195.1 457.9 195.1 453.2 C 195.1 448.6 193.7 446.4 191.0 446.4 C 188.3 446.4 186.4 448.2 186.4 453.0 C 186.4 457.5 187.8 459.7 190.6 459.7 M 150.2 459.7 C 152.9 459.7 154.8 457.9 154.8 453.2 C 154.8 448.6 153.3 446.4 150.5 446.4 C 147.8 446.4 146.0 448.2 146.0 453.0 C 146.0 457.5 147.3 459.7 150.2 459.7 M 440.2 460.6 L 440.2 459.9 C 440.2 459.7 440.2 459.7 440.4 459.7 C 442.3 459.4 442.3 459.3 442.3 456.6 L 442.3 449.6 C 442.3 446.8 442.3 446.7 440.4 446.5 C 440.2 446.5 440.2 446.5 440.2 446.2 L 440.2 445.4 L 447.5 445.4 L 447.5 446.2 C 447.5 446.4 447.5 446.4 447.3 446.5 C 445.0 446.7 445.0 446.8 445.0 449.6 L 445.0 451.7 L 446.2 451.7 C 451.8 451.7 453.0 454.4 453.0 456.6 C 453.0 459.9 449.4 460.6 446.8 460.6 L 440.2 460.6 Z M 423.3 460.6 L 423.3 459.9 C 423.3 459.7 423.3 459.7 423.5 459.7 C 425.4 459.4 425.4 459.3 425.4 456.6 L 425.4 450.8 C 425.4 446.9 427.4 445.1 431.6 445.1 C 435.6 445.1 437.5 446.9 437.5 451.0 L 437.5 454.4 C 437.5 459.1 437.5 459.4 439.1 459.7 C 439.3 459.7 439.3 459.9 439.3 459.9 L 439.3 460.6 L 433.1 460.6 L 433.1 459.9 C 433.1 459.7 433.1 459.7 433.2 459.7 C 435.9 459.4 435.9 459.0 435.9 454.4 L 435.9 450.7 C 435.9 448.1 434.7 446.7 432.0 446.7 C 429.1 446.7 428.1 448.2 428.1 450.4 L 428.1 456.6 C 428.1 459.3 428.1 459.4 430.0 459.7 C 430.2 459.7 430.2 459.9 430.2 459.9 L 430.2 460.6 L 423.3 460.6 Z M 392.8 460.6 L 392.8 459.9 C 392.8 459.7 393.0 459.7 393.2 459.7 C 395.0 459.4 395.0 459.3 395.0 456.6 L 395.0 449.6 C 395.0 446.8 395.0 446.7 393.2 446.5 C 393.0 446.5 392.8 446.5 392.8 446.2 L 392.8 445.4 L 399.8 445.4 L 399.8 446.2 C 399.8 446.4 399.8 446.4 399.6 446.5 C 397.6 446.7 397.6 446.8 397.6 449.6 L 397.6 452.8 L 399.2 452.8 C 401.2 452.8 401.6 451.6 402.1 449.4 C 402.6 447.2 403.2 445.3 405.3 445.3 C 406.4 445.3 407.3 445.8 408.0 446.6 L 408.0 446.8 L 408.0 447.0 L 407.4 447.5 C 407.3 447.3 406.9 446.9 406.4 446.9 C 404.6 446.9 406.0 452.6 401.4 453.5 C 404.6 454.0 405.7 455.6 405.7 457.2 C 405.7 459.8 402.8 460.7 399.8 460.7 L 392.8 460.7 Z M 335.2 460.6 L 335.2 459.9 C 335.2 459.7 335.2 459.7 335.5 459.7 C 337.3 459.4 337.3 459.3 337.3 456.6 L 337.3 451.8 C 337.3 447.2 337.3 446.7 335.5 446.5 C 335.3 446.5 335.2 446.5 335.2 446.2 L 335.2 445.4 L 341.8 445.4 L 341.8 446.2 C 341.8 446.4 341.8 446.4 341.6 446.5 C 338.9 446.7 338.9 447.2 338.9 451.8 L 338.9 457.7 L 339.1 457.7 L 346.2 447.4 C 346.7 446.7 347.4 445.9 347.8 445.1 L 349.6 445.1 L 349.6 454.4 C 349.6 458.9 349.6 459.4 351.5 459.7 C 351.7 459.7 351.7 459.9 351.7 459.9 L 351.7 460.6 L 345.1 460.6 L 345.1 459.9 C 345.1 459.7 345.1 459.7 345.3 459.7 C 348.0 459.4 348.0 458.9 348.0 454.4 L 348.0 449.6 L 340.1 460.6 C 340.1 460.6 335.2 460.6 335.2 460.6 M 327.2 460.6 L 327.2 459.9 C 327.2 459.7 327.3 459.7 327.5 459.7 C 329.3 459.4 329.3 459.3 329.3 456.6 L 329.3 449.6 C 329.3 446.8 329.3 446.7 327.5 446.5 C 327.3 446.5 327.2 446.5 327.2 446.2 L 327.2 445.4 L 334.1 445.4 L 334.1 446.2 C 334.1 446.4 334.1 446.4 333.9 446.5 C 332.0 446.7 332.0 446.8 332.0 449.6 L 332.0 456.6 C 332.0 459.3 332.0 459.4 333.9 459.7 C 334.1 459.7 334.1 459.9 334.1 459.9 L 334.1 460.6 Z M 312.6 460.6 L 312.6 456.1 L 313.3 456.1 C 313.5 456.1 313.5 456.1 313.5 456.3 C 313.8 459.2 314.7 459.5 316.7 459.5 L 317.9 459.5 C 318.1 459.5 318.3 459.3 318.3 459.2 L 318.3 449.6 C 318.3 446.8 318.3 446.8 316.3 446.5 C 316.1 446.5 316.1 446.5 316.1 446.3 L 316.1 445.5 L 322.9 445.5 L 322.9 446.3 C 322.9 446.5 322.9 446.5 322.7 446.5 C 320.7 446.7 320.7 446.8 320.7 449.6 L 320.7 459.1 C 320.7 459.3 320.7 459.4 321.1 459.4 L 322.4 459.4 C 324.1 459.4 325.2 459.2 325.6 456.3 C 325.6 456.1 325.6 456.1 325.7 456.1 L 326.4 456.1 L 326.4 460.6 L 312.6 460.6 Z M 301.9 460.6 L 301.9 459.9 C 301.9 459.7 301.9 459.7 302.1 459.7 C 304.0 459.4 304.0 459.3 304.0 456.6 L 304.0 449.6 C 304.0 446.8 304.0 446.7 302.1 446.5 C 301.9 446.5 301.9 446.5 301.9 446.2 L 301.9 445.4 L 313.8 445.4 L 313.8 450.4 L 313.1 450.4 C 312.9 450.4 312.9 450.4 312.9 450.2 C 312.6 447.4 311.7 446.7 309.7 446.7 L 308.6 446.7 C 306.7 446.7 306.7 446.9 306.7 449.8 L 306.7 456.6 C 306.7 459.3 306.7 459.4 309.0 459.7 C 309.2 459.7 309.2 459.9 309.2 459.9 L 309.2 460.6 L 301.9 460.6 Z M 285.0 460.6 L 285.0 459.9 C 285.0 459.7 285.0 459.7 285.1 459.7 C 287.1 459.4 287.1 459.3 287.1 456.6 L 287.1 450.8 C 287.1 446.9 289.1 445.1 293.3 445.1 C 297.1 445.1 299.0 446.9 299.0 451.0 L 299.0 454.4 C 299.0 459.1 299.0 459.4 300.8 459.7 L 300.8 460.6 L 294.8 460.6 L 294.8 459.7 C 297.6 459.4 297.4 459.0 297.4 454.4 L 297.4 450.7 C 297.4 448.1 296.2 446.7 293.7 446.7 C 290.8 446.7 289.8 448.2 289.8 450.4 L 289.8 456.6 C 289.8 459.3 289.6 459.4 291.6 459.7 C 291.7 459.7 291.7 459.9 291.7 459.9 L 291.7 460.6 L 285.0 460.6 Z M 256.3 460.6 L 256.3 459.9 C 256.3 459.7 256.5 459.7 256.7 459.7 C 258.4 459.4 258.4 459.3 258.4 456.6 L 258.4 451.8 C 258.4 447.2 258.4 446.7 256.7 446.5 C 256.5 446.5 256.3 446.5 256.3 446.2 L 256.3 445.4 L 262.9 445.4 L 262.9 446.2 C 262.9 446.4 262.9 446.4 262.7 446.5 C 260.1 446.7 260.1 447.2 260.1 451.8 L 260.1 457.7 L 260.2 457.7 L 267.3 447.4 C 267.9 446.7 268.6 445.9 269.0 445.1 L 270.7 445.1 L 270.7 454.4 C 270.7 458.9 270.9 459.4 272.7 459.7 C 272.9 459.7 272.9 459.9 272.9 459.9 L 272.9 460.6 L 266.3 460.6 L 266.3 459.9 C 266.3 459.7 266.3 459.7 266.5 459.7 C 269.1 459.4 269.1 458.9 269.1 454.4 L 269.1 449.6 L 261.5 460.6 L 256.3 460.6 Z M 198.8 460.6 L 198.8 459.9 C 198.8 459.7 198.8 459.7 199.0 459.7 C 201.0 459.4 201.0 459.3 201.0 456.6 L 201.0 451.8 C 201.0 447.2 201.0 446.7 199.0 446.5 C 198.8 446.5 198.8 446.5 198.8 446.2 L 198.8 445.4 L 205.4 445.4 L 205.4 446.2 C 205.4 446.4 205.2 446.4 205.2 446.5 C 202.6 446.7 202.6 447.2 202.6 451.8 L 202.6 457.7 L 209.9 447.4 C 210.4 446.7 210.9 445.9 211.5 445.1 L 213.2 445.1 L 213.2 454.4 C 213.2 458.9 213.2 459.4 215.2 459.7 C 215.4 459.7 215.4 459.9 215.4 459.9 L 215.4 460.6 L 208.8 460.6 L 208.8 459.9 C 208.8 459.7 208.8 459.7 209.0 459.7 C 211.6 459.4 211.6 458.9 211.6 454.4 L 211.6 449.6 L 203.8 460.6 C 203.8 460.6 198.8 460.6 198.8 460.6 M 169.3 460.6 L 169.3 456.1 L 170.0 456.1 C 170.2 456.1 170.2 456.1 170.2 456.3 C 170.5 459.2 171.4 459.5 173.4 459.5 L 174.6 459.5 C 174.8 459.5 174.8 459.3 174.8 459.2 L 174.8 449.6 C 174.8 446.8 174.8 446.8 173.0 446.5 C 172.8 446.5 172.8 446.5 172.8 446.3 L 172.8 445.5 L 179.6 445.5 L 179.6 446.3 C 179.6 446.5 179.6 446.5 179.4 446.5 C 177.5 446.8 177.5 446.8 177.5 449.6 L 177.5 459.2 C 177.5 459.4 177.5 459.5 177.8 459.5 L 179.1 459.5 C 180.8 459.5 181.9 459.2 182.3 456.3 C 182.3 456.1 182.3 456.1 182.4 456.1 L 183.2 456.1 L 183.2 460.6 Z M 104.9 460.6 L 104.9 459.9 C 104.9 459.7 104.9 459.7 105.2 459.7 C 107.1 459.4 107.0 459.3 107.0 456.6 L 107.0 449.6 C 107.0 446.8 107.0 446.7 105.2 446.5 C 105.0 446.5 104.9 446.5 104.9 446.2 L 104.9 445.4 L 117.2 445.4 L 117.2 450.0 L 116.5 450.0 C 116.3 450.0 116.3 450.0 116.3 449.8 C 115.9 447.3 115.0 446.7 113.2 446.7 L 111.7 446.7 C 109.7 446.7 109.6 447.0 109.6 449.8 L 109.6 453.0 L 109.9 453.0 C 111.7 453.0 112.2 452.7 112.4 450.9 C 112.4 450.7 112.4 450.7 112.7 450.7 L 113.4 450.7 L 113.4 453.2 L 113.4 456.0 L 112.7 456.0 C 112.5 456.0 112.5 456.0 112.4 455.8 C 112.2 454.2 111.7 453.9 109.9 453.9 L 109.6 453.9 L 109.6 459.1 C 109.6 459.2 109.6 459.3 109.9 459.3 L 112.0 459.3 C 113.9 459.3 114.8 459.0 115.2 456.6 C 115.2 456.5 115.2 456.5 115.4 456.5 L 116.1 456.5 L 116.1 460.5 L 104.9 460.5 Z M 87.4 460.6 L 87.4 459.9 C 87.4 459.7 87.4 459.7 87.6 459.7 C 89.5 459.4 89.5 459.3 89.5 456.6 L 89.5 449.6 C 89.5 446.8 89.5 446.7 87.6 446.5 C 87.4 446.5 87.4 446.5 87.4 446.2 L 87.4 445.4 L 94.2 445.4 L 94.2 446.2 C 94.2 446.4 94.2 446.4 94.1 446.5 C 92.2 446.7 92.2 446.8 92.2 449.6 L 92.2 452.7 L 99.0 452.7 L 99.0 449.6 C 99.0 446.8 99.0 446.7 97.1 446.5 C 97.0 446.5 97.0 446.5 97.0 446.2 L 97.0 445.4 L 103.7 445.4 L 103.7 446.2 C 103.7 446.4 103.7 446.4 103.6 446.5 C 101.7 446.7 101.7 446.8 101.7 449.6 L 101.7 456.6 C 101.7 459.3 101.7 459.4 103.6 459.7 C 103.7 459.7 103.7 459.9 103.7 459.9 L 103.7 460.6 L 97.0 460.6 L 97.0 459.9 C 97.0 459.7 97.0 459.7 97.1 459.7 C 99.0 459.4 99.0 459.3 99.0 456.6 L 99.0 454.0 L 92.2 454.0 L 92.2 456.6 C 92.2 459.3 92.2 459.4 94.1 459.7 C 94.2 459.7 94.2 459.9 94.2 459.9 L 94.2 460.6 Z M 415.3 461.0 C 411.3 461.0 408.0 458.4 408.0 452.8 C 408.0 448.1 411.2 445.1 415.3 445.1 C 419.2 445.1 422.6 447.7 422.6 453.3 C 422.6 458.0 419.5 461.0 415.3 461.0 M 359.6 461.0 C 354.7 461.0 352.4 457.5 352.4 453.2 C 352.4 447.9 355.5 445.1 359.6 445.1 C 362.9 445.1 363.8 446.8 365.1 446.8 C 365.2 446.8 365.4 446.8 365.4 447.0 C 365.4 447.2 365.2 447.9 365.2 448.3 L 365.2 449.0 C 365.2 450.8 365.2 450.9 366.7 451.2 C 366.8 451.2 366.8 451.2 366.8 451.4 L 366.8 452.1 L 360.1 452.1 L 360.1 451.4 C 360.1 451.2 360.1 451.2 360.3 451.2 C 362.8 450.9 362.8 450.9 362.8 449.2 L 362.8 448.7 C 362.8 447.2 361.7 446.3 359.9 446.3 C 356.3 446.3 355.3 449.9 355.3 453.2 C 355.3 456.3 356.0 459.7 359.7 459.7 C 361.7 459.7 362.9 458.6 363.5 456.5 C 363.5 456.3 363.5 456.3 363.6 456.3 L 364.4 456.3 L 364.4 460.9 L 363.8 460.9 C 363.6 460.9 363.6 460.9 363.5 460.7 L 363.1 460.2 C 362.2 460.7 361.2 461.0 359.6 461.0 Z M 278.9 461.0 C 276.2 461.0 274.3 459.2 274.3 456.6 C 274.3 451.5 282.1 452.7 282.1 448.7 C 282.1 447.3 280.9 446.4 278.9 446.4 C 276.8 446.4 275.7 447.6 275.2 450.0 C 275.2 450.2 275.2 450.2 275.0 450.2 L 274.3 450.2 L 274.3 445.3 L 274.8 445.3 C 275.0 445.3 275.0 445.3 275.0 445.5 L 275.5 446.0 C 276.2 445.5 277.3 445.2 279.1 445.2 C 281.6 445.2 284.4 446.7 284.4 449.9 C 284.4 455.1 276.4 453.8 276.4 457.9 C 276.4 458.9 277.1 459.8 278.9 459.8 C 280.9 459.8 281.9 458.4 282.3 456.8 C 282.3 456.6 282.3 456.6 282.5 456.6 L 283.2 456.6 L 283.2 461.0 L 282.7 461.0 C 282.5 461.0 282.5 461.0 282.3 460.8 L 281.9 460.3 C 281.1 460.9 280.0 461.1 278.9 461.1 Z M 248.3 461.0 C 244.4 461.0 241.0 458.4 241.0 452.8 C 241.0 448.1 244.2 445.1 248.3 445.1 C 252.2 445.1 255.6 447.7 255.6 453.3 C 255.6 458.0 252.4 461.0 248.3 461.0 M 190.8 461.0 C 186.9 461.0 183.5 458.4 183.5 452.8 C 183.5 448.1 186.5 445.1 190.8 445.1 C 194.7 445.1 198.1 447.7 198.1 453.3 C 198.1 458.0 194.9 461.0 190.8 461.0 M 163.5 461.0 C 160.9 461.0 158.9 459.2 158.9 456.6 C 158.9 451.5 166.7 452.7 166.7 448.7 C 166.7 447.3 165.5 446.4 163.6 446.4 C 161.4 446.4 160.3 447.6 159.8 450.0 C 159.8 450.2 159.6 450.2 159.6 450.2 L 158.9 450.2 L 158.9 445.3 L 159.3 445.3 C 159.5 445.3 159.6 445.3 159.7 445.5 L 160.1 446.0 C 160.9 445.5 161.9 445.2 163.6 445.2 C 166.2 445.2 168.9 446.7 168.9 449.9 C 168.9 455.1 161.0 453.8 161.0 457.9 C 161.0 458.9 161.7 459.8 163.5 459.8 C 165.4 459.8 166.4 458.3 166.8 456.4 C 166.8 456.2 167.0 456.2 167.1 456.2 L 167.7 456.2 L 167.7 460.7 L 167.3 460.7 C 167.1 460.7 167.0 460.7 166.9 460.5 L 166.6 460.0 C 165.8 460.8 164.6 461.1 163.5 461.1 Z M 150.4 461.0 C 146.4 461.0 143.0 458.4 143.0 452.8 C 143.0 448.1 146.2 445.1 150.4 445.1 C 154.3 445.1 157.7 447.7 157.7 453.3 C 157.7 458.0 154.5 461.0 150.4 461.0 M 131.8 466.1 C 134.6 466.1 136.4 465.0 136.4 462.1 C 136.4 458.9 134.4 457.7 130.8 457.7 L 129.4 457.7 L 129.4 465.7 C 129.4 465.9 129.4 466.0 129.8 466.1 L 131.8 466.1 Z M 123.7 467.5 L 123.7 466.7 C 123.7 466.5 123.7 466.4 123.9 466.4 C 126.4 466.0 126.4 465.9 126.4 461.8 L 126.4 451.2 C 126.4 447.1 126.4 447.1 123.9 446.6 C 123.7 446.6 123.7 446.6 123.7 446.3 L 123.7 445.4 L 132.5 445.4 C 138.1 445.4 141.5 448.2 141.5 451.6 C 141.5 455.4 138.1 457.1 134.5 457.2 L 134.5 457.4 C 137.1 458.0 139.4 459.6 139.4 462.4 C 139.4 466.6 134.9 467.6 131.2 467.6 L 123.7 467.6 Z M 71.0 467.5 L 71.0 461.3 L 71.8 461.3 C 72.1 461.3 72.1 461.3 72.1 461.5 C 72.6 465.7 74.0 466.0 76.8 466.0 L 78.8 466.0 C 79.2 466.0 79.2 465.8 79.2 465.7 L 79.2 451.2 C 79.2 447.1 79.2 447.1 76.7 446.6 C 76.5 446.6 76.5 446.6 76.5 446.3 L 76.5 445.4 L 85.0 445.4 L 85.0 446.3 C 85.0 446.5 85.0 446.6 84.7 446.6 C 82.2 447.1 82.2 447.1 82.2 451.2 L 82.2 465.7 C 82.2 465.9 82.2 466.0 82.6 466.0 L 84.7 466.0 C 87.4 466.0 88.8 465.7 89.3 462.1 C 89.3 461.9 89.5 461.8 89.6 461.8 L 90.5 461.8 L 90.5 467.5 L 71.1 467.5 Z M 382.5 468.0 C 375.7 468.0 372.5 462.9 372.5 456.6 C 372.5 449.0 376.8 445.0 382.7 445.0 C 387.3 445.0 388.0 447.7 390.0 447.7 C 390.2 447.7 390.3 447.9 390.3 448.0 C 390.3 448.4 390.2 449.3 390.2 449.9 L 390.2 450.7 C 390.2 453.5 390.2 453.5 392.1 453.9 C 392.3 453.9 392.5 454.1 392.5 454.2 L 392.5 455.3 C 390.9 455.3 389.8 455.1 388.4 455.1 C 386.8 455.1 385.4 455.1 383.9 455.3 L 383.9 454.2 C 383.9 454.0 383.9 454.0 384.1 453.9 C 387.3 453.5 387.3 453.5 387.3 450.9 L 387.3 449.9 C 387.3 447.8 385.5 446.5 382.9 446.5 C 377.5 446.5 376.1 451.7 376.1 456.6 C 376.1 461.3 377.2 466.6 382.5 466.6 C 385.5 466.6 387.3 464.9 388.0 461.7 C 388.2 461.5 388.2 461.5 388.4 461.5 L 389.1 461.5 L 389.1 467.8 L 388.6 467.8 C 388.4 467.8 388.2 467.8 388.2 467.5 L 387.7 466.8 C 386.4 467.6 384.6 468.0 382.5 468.0 M 231.6 468.0 C 225.3 468.0 221.8 463.0 221.8 456.6 C 221.8 449.0 226.1 445.0 231.9 445.0 C 235.1 445.0 236.9 445.9 237.8 446.3 L 238.0 446.3 L 238.5 445.4 C 238.5 445.2 238.7 445.2 238.9 445.2 L 239.4 445.2 L 239.4 452.4 L 238.5 452.4 C 238.3 452.4 238.3 452.4 238.3 452.2 C 237.8 448.1 235.7 446.5 232.3 446.5 C 227.7 446.5 225.3 450.3 225.3 456.7 C 225.3 461.4 226.4 466.6 231.6 466.6 C 234.6 466.6 236.4 464.7 237.1 461.4 C 237.1 461.2 237.3 461.2 237.4 461.2 L 238.2 461.2 L 238.2 467.8 L 237.6 467.8 C 237.4 467.8 237.3 467.8 237.3 467.5 L 236.7 466.8 C 235.5 467.6 233.7 468.0 231.6 468.0 Z M 280.1 734.9 L 284.9 734.9 C 299.5 734.9 312.7 731.4 312.7 715.9 C 312.7 703.6 305.4 696.3 292.7 696.3 C 281.8 696.3 280.1 698.1 280.1 713.2 Z M 289.1 772.1 C 299.3 772.0 305.8 766.0 305.8 754.8 C 305.8 742.2 298.0 737.8 285.1 737.8 L 280.1 737.8 L 280.1 770.7 C 280.1 771.5 280.2 771.8 281.4 771.9 C 283.1 772.0 287.2 772.1 289.1 772.1 Z M 361.5 776.9 C 338.6 776.9 323.4 757.1 323.4 733.2 C 323.4 731.0 323.6 728.9 323.8 726.8 L 323.6 726.8 C 319.0 733.4 309.7 736.6 298.7 737.1 L 298.7 737.3 C 310.7 739.7 318.9 745.8 318.9 755.9 C 318.9 771.4 302.2 775.2 288.7 775.2 C 285.1 775.2 276.8 775.0 274.2 775.0 C 268.3 775.0 261.9 775.1 256.3 775.2 L 256.3 773.9 C 256.3 773.2 256.4 772.8 257.1 772.8 C 267.0 772.4 267.0 771.1 267.0 756.0 L 267.0 712.4 C 267.0 697.3 267.0 695.9 257.3 695.6 C 256.4 695.6 256.3 695.2 256.3 694.5 L 256.3 693.1 C 262.0 693.3 267.5 693.4 273.3 693.4 C 280.6 693.4 283.7 693.1 293.3 693.1 C 313.4 693.1 325.9 702.7 326.7 714.9 L 327.0 714.9 C 333.1 700.5 346.6 691.5 364.4 691.5 C 372.8 691.5 380.5 694.1 386.8 699.2 L 387.0 699.2 L 388.0 692.9 C 388.2 692.4 388.5 692.3 389.4 692.3 L 390.1 692.3 C 390.1 696.3 390.1 707.2 390.3 715.3 L 390.6 715.3 C 396.7 700.3 410.3 691.5 426.8 691.5 C 443.0 691.5 448.9 701.5 455.9 701.5 C 456.6 701.5 456.7 701.7 456.7 702.7 C 456.7 703.9 456.6 707.4 456.6 709.4 L 456.6 715.0 C 456.6 725.2 456.6 726.6 463.5 726.9 C 464.4 726.9 464.4 727.3 464.4 728.0 L 464.4 729.4 C 458.7 729.2 455.0 729.1 449.3 729.1 C 443.2 729.1 436.1 729.3 430.6 729.4 L 430.6 728.0 C 430.6 727.3 430.8 726.9 431.5 726.9 C 443.8 726.6 443.8 725.2 443.8 715.6 L 443.8 707.9 C 443.8 699.7 438.4 694.6 427.6 694.6 C 409.6 694.6 401.8 711.9 401.8 733.6 C 401.8 754.1 407.4 773.8 427.4 773.8 C 438.6 773.8 448.0 766.2 448.7 752.4 C 448.7 751.6 449.3 751.5 449.8 751.5 L 451.1 751.5 C 450.9 757.1 450.7 770.4 450.7 776.1 L 450.0 776.1 C 449.3 776.1 448.9 776.0 448.7 775.5 L 447.7 769.4 L 447.5 769.4 C 441.8 774.6 433.8 776.9 426.1 776.9 C 402.7 776.9 387.2 757.1 387.2 733.2 C 387.2 729.2 387.5 725.5 388.4 722.0 L 388.1 718.6 C 386.8 700.3 376.1 694.6 364.7 694.6 C 346.6 694.6 338.0 711.1 338.0 733.6 C 338.0 754.0 343.1 773.8 363.0 773.8 C 373.0 773.8 381.7 767.3 383.5 756.9 C 383.7 756.0 384.0 756.0 384.6 756.0 L 385.9 756.0 C 385.7 761.6 385.6 770.4 385.6 776.1 L 384.9 776.1 C 384.0 776.1 383.7 776.0 383.5 775.5 L 382.5 769.5 L 382.3 769.5 C 376.8 774.6 369.0 776.9 361.5 776.9 Z M 361.5 776.9 " fill="#000000"></path></g></g></g></g></g></svg>