<?xml version="1.0" encoding="UTF-8" standalone="no"?><svg xmlns="http://www.w3.org/2000/svg" xmlns:xlink="http://www.w3.org/1999/xlink" clip-rule="evenodd" stroke-miterlimit="4.00" viewBox="0 0 1280 720"><desc>SVG generated by Keynote</desc><defs></defs><g transform="matrix(1.00, 0.00, -0.00, -1.00, 0.0, 720.0)"><path d="M 0.0 720.0 L 1280.0 720.0 L 1280.0 0.0 L 0.0 0.0 Z M 0.0 720.0 " fill="#FEFFFF"></path><g><clipPath id="clip-4015"><path d="M 139.0 3013.0 L 1141.0 3013.0 L 1141.0 -10.0 L 139.0 -10.0 Z M 138.8 3013.2 "></path></clipPath><g clip-path="url(#clip-4015)"><g><clipPath id="clip-4016"><path d="M 214.0 -195.0 L 1066.0 -195.0 L 1066.0 2787.0 L 214.0 2787.0 Z M 214.0 -195.0 "></path></clipPath><g clip-path="url(#clip-4016)"><g><g><clipPath id="clip-4017"><path d="M 214.0 0.0 L 1066.0 0.0 L 1066.0 720.0 L 214.0 720.0 Z M 214.0 0.0 "></path></clipPath><g clip-path="url(#clip-4017)"><g><g><clipPath id="clip-4018"><path d="M 260.1 622.4 L 1020.4 622.4 L 1020.4 278.7 L 260.1 278.7 L 260.1 622.4 Z M 260.1 622.4 "></path></clipPath><g clip-path="url(#clip-4018)"><g><clipPath id="clip-4019"><path d="M 214.0 0.0 L 1066.0 0.0 L 1066.0 720.0 L 214.0 720.0 Z M 214.0 0.0 "></path></clipPath><g clip-path="url(#clip-4019)"><path d="M 257.2 625.3 L 1023.4 625.3 L 1023.4 275.8 L 257.2 275.8 Z M 257.2 625.3 " fill="#F7F7F7"></path></g></g></g></g><g><clipPath id="clip-4020"><path d="M 214.0 0.0 L 1066.0 0.0 L 1066.0 720.0 L 214.0 720.0 Z M 214.0 0.0 "></path></clipPath><g clip-path="url(#clip-4020)"><text xml:space="preserve" font-family="AkkuratStd" font-size="36.0" fill="#FBA200" transform="matrix(0.59, 0.00, -0.00, -0.59, 545.3, 680.3)">M</text><text xml:space="preserve" font-family="AkkuratStd" font-size="36.0" fill="#FBA200" transform="matrix(0.59, 0.00, -0.00, -0.59, 564.1, 680.3)">E</text><text xml:space="preserve" font-family="AkkuratStd" font-size="36.0" fill="#FBA200" transform="matrix(0.59, 0.00, -0.00, -0.59, 577.4, 680.3)">E</text><text xml:space="preserve" font-family="AkkuratStd" font-size="36.0" fill="#FBA200" transform="matrix(0.59, 0.00, -0.00, -0.59, 590.7, 680.3)">T</text><text xml:space="preserve" font-family="AkkuratStd" font-size="36.0" fill="#FBA200" transform="matrix(0.59, 0.00, -0.00, -0.59, 601.6, 680.3)"> </text><text xml:space="preserve" font-family="AkkuratStd" font-size="36.0" fill="#FBA200" transform="matrix(0.59, 0.00, -0.00, -0.59, 606.5, 680.3)">R</text><text xml:space="preserve" font-family="AkkuratStd" font-size="36.0" fill="#FBA200" transform="matrix(0.59, 0.00, -0.00, -0.59, 620.6, 680.3)">E</text><text xml:space="preserve" font-family="AkkuratStd" font-size="36.0" fill="#FBA200" transform="matrix(0.59, 0.00, -0.00, -0.59, 633.8, 680.3)">C</text><text xml:space="preserve" font-family="AkkuratStd" font-size="36.0" fill="#FBA200" transform="matrix(0.59, 0.00, -0.00, -0.59, 647.3, 680.3)">R</text><text xml:space="preserve" font-family="AkkuratStd" font-size="36.0" fill="#FBA200" transform="matrix(0.59, 0.00, -0.00, -0.59, 661.4, 680.3)">U</text><text xml:space="preserve" font-family="AkkuratStd" font-size="36.0" fill="#FBA200" transform="matrix(0.59, 0.00, -0.00, -0.59, 675.9, 680.3)">I</text><text xml:space="preserve" font-family="AkkuratStd" font-size="36.0" fill="#FBA200" transform="matrix(0.59, 0.00, -0.00, -0.59, 682.1, 680.3)">T</text><text xml:space="preserve" font-family="AkkuratStd" font-size="36.0" fill="#FBA200" transform="matrix(0.59, 0.00, -0.00, -0.59, 693.5, 680.3)">E</text><text xml:space="preserve" font-family="AkkuratStd" font-size="36.0" fill="#FBA200" transform="matrix(0.59, 0.00, -0.00, -0.59, 706.9, 680.3)">R</text><text xml:space="preserve" font-family="AkkuratStd" font-size="36.0" fill="#FBA200" transform="matrix(0.59, 0.00, -0.00, -0.59, 721.0, 680.3)">S</text><path d="M 0.5 1.5 L 222.5 1.5 " fill="none" stroke="#9B9A9B" stroke-width="1.00" stroke-miterlimit="0.00" stroke-linecap="square" transform="matrix(0.59, 0.00, 0.00, -0.59, 574.3, 664.9)"></path><path d="M 0.5 1.5 L 222.5 1.5 " fill="none" stroke="#9B9A9B" stroke-width="1.00" stroke-miterlimit="0.00" stroke-linecap="square" transform="matrix(0.59, 0.00, 0.00, -0.59, 577.3, 184.7)"></path><text xml:space="preserve" font-family="AkkuratStd" font-size="36.0" fill="#FBA200" transform="matrix(0.59, 0.00, -0.00, -0.59, 577.3, 200.1)">N</text><text xml:space="preserve" font-family="AkkuratStd" font-size="36.0" fill="#FBA200" transform="matrix(0.59, 0.00, -0.00, -0.59, 592.9, 200.1)">O</text><text xml:space="preserve" font-family="AkkuratStd" font-size="36.0" fill="#FBA200" transform="matrix(0.59, 0.00, -0.00, -0.59, 607.1, 200.1)">W</text><text xml:space="preserve" font-family="AkkuratStd" font-size="36.0" fill="#FBA200" transform="matrix(0.59, 0.00, -0.00, -0.59, 625.4, 200.1)"> </text><text xml:space="preserve" font-family="AkkuratStd" font-size="36.0" fill="#FBA200" transform="matrix(0.59, 0.00, -0.00, -0.59, 630.3, 200.1)">H</text><text xml:space="preserve" font-family="AkkuratStd" font-size="36.0" fill="#FBA200" transform="matrix(0.59, 0.00, -0.00, -0.59, 645.6, 200.1)">I</text><text xml:space="preserve" font-family="AkkuratStd" font-size="36.0" fill="#FBA200" transform="matrix(0.59, 0.00, -0.00, -0.59, 651.8, 200.1)">R</text><text xml:space="preserve" font-family="AkkuratStd" font-size="36.0" fill="#FBA200" transform="matrix(0.59, 0.00, -0.00, -0.59, 665.9, 200.1)">I</text><text xml:space="preserve" font-family="AkkuratStd" font-size="36.0" fill="#FBA200" transform="matrix(0.59, 0.00, -0.00, -0.59, 672.1, 200.1)">N</text><text xml:space="preserve" font-family="AkkuratStd" font-size="36.0" fill="#FBA200" transform="matrix(0.59, 0.00, -0.00, -0.59, 687.8, 200.1)">G</text></g></g><g><clipPath id="clip-4021"><path d="M 339.4 54.6 L 448.3 54.6 L 448.3 -0.5 L 339.4 -0.5 L 339.4 54.6 Z M 339.4 54.6 "></path></clipPath><g clip-path="url(#clip-4021)"><g><clipPath id="clip-4022"><path d="M 214.0 0.0 L 1066.0 0.0 L 1066.0 720.0 L 214.0 720.0 Z M 214.0 0.0 "></path></clipPath><g clip-path="url(#clip-4022)"><path d="M 336.5 57.5 L 451.3 57.5 L 451.3 -3.5 L 336.5 -3.5 Z M 336.5 57.5 " fill="#F7F7F7"></path></g></g></g></g><g><clipPath id="clip-4023"><path d="M 339.4 142.1 L 448.3 142.1 L 448.3 54.6 L 339.4 54.6 L 339.4 142.1 Z M 339.4 142.1 "></path></clipPath><g clip-path="url(#clip-4023)"><g><clipPath id="clip-4024"><path d="M 214.0 0.0 L 1066.0 0.0 L 1066.0 720.0 L 214.0 720.0 Z M 214.0 0.0 "></path></clipPath><g clip-path="url(#clip-4024)"><g><g><clipPath id="clip-4025"><path d="M 339.4 54.0 L 448.3 54.0 L 448.3 142.1 L 339.4 142.1 Z M 339.4 54.0 "></path></clipPath><g clip-path="url(#clip-4025)"><path d="M 336.5 145.1 L 451.3 145.1 L 451.3 51.6 L 336.5 51.6 Z M 336.5 145.1 " fill="#F79100" fill-opacity="0.50"></path></g></g><g><clipPath id="clip-4026"><path d="M 339.4 54.0 L 448.3 54.0 L 448.3 142.1 L 339.4 142.1 Z M 339.4 54.0 "></path></clipPath><g clip-path="url(#clip-4026)"><g opacity="0.11"><g><clipPath id="clip-4027"><path d="M 339.4 54.0 L 448.3 54.0 L 448.3 142.1 L 339.4 142.1 Z M 339.4 54.0 "></path></clipPath><g clip-path="url(#clip-4027)"><g><g><clipPath id="clip-4028"><path d="M 339.4 54.0 L 448.3 54.0 L 448.3 142.1 L 339.4 142.1 Z M 339.4 54.0 "></path></clipPath><g clip-path="url(#clip-4028)"><image xlink:href="../../B4A16C22-EA86-4FB7-8BA8-9AA532DD42EC/assets/E5B34A7BA4ED7C0719491095B4F60FC2.png" width="1698.00" height="1131.00" transform="matrix(0.08, 0.00, -0.00, -0.08, 339.4, 142.1)"></image></g></g></g></g></g></g></g></g></g></g></g></g></g><g><clipPath id="clip-4029"><path d="M 214.0 0.0 L 1066.0 0.0 L 1066.0 720.0 L 214.0 720.0 Z M 214.0 0.0 "></path></clipPath><g clip-path="url(#clip-4029)"><text xml:space="preserve" font-family="AkkuratStd-Bold" font-weight="bold" font-size="14.0" fill="#FBA200" transform="matrix(0.59, 0.00, -0.00, -0.59, 349.5, 41.6)">U</text><text xml:space="preserve" font-family="AkkuratStd-Bold" font-weight="bold" font-size="14.0" fill="#FBA200" transform="matrix(0.59, 0.00, -0.00, -0.59, 355.1, 41.6)">X</text><text xml:space="preserve" font-family="AkkuratStd-Bold" font-weight="bold" font-size="14.0" fill="#FBA200" transform="matrix(0.59, 0.00, -0.00, -0.59, 360.0, 41.6)"> </text><text xml:space="preserve" font-family="AkkuratStd-Bold" font-weight="bold" font-size="14.0" fill="#FBA200" transform="matrix(0.59, 0.00, -0.00, -0.59, 361.7, 41.6)">D</text><text xml:space="preserve" font-family="AkkuratStd-Bold" font-weight="bold" font-size="14.0" fill="#FBA200" transform="matrix(0.59, 0.00, -0.00, -0.59, 367.4, 41.6)">e</text><text xml:space="preserve" font-family="AkkuratStd-Bold" font-weight="bold" font-size="14.0" fill="#FBA200" transform="matrix(0.59, 0.00, -0.00, -0.59, 372.0, 41.6)">s</text><text xml:space="preserve" font-family="AkkuratStd-Bold" font-weight="bold" font-size="14.0" fill="#FBA200" transform="matrix(0.59, 0.00, -0.00, -0.59, 376.3, 41.6)">i</text><text xml:space="preserve" font-family="AkkuratStd-Bold" font-weight="bold" font-size="14.0" fill="#FBA200" transform="matrix(0.59, 0.00, -0.00, -0.59, 378.7, 41.6)">g</text><text xml:space="preserve" font-family="AkkuratStd-Bold" font-weight="bold" font-size="14.0" fill="#FBA200" transform="matrix(0.59, 0.00, -0.00, -0.59, 383.3, 41.6)">n</text><text xml:space="preserve" font-family="AkkuratStd-Bold" font-weight="bold" font-size="14.0" fill="#FBA200" transform="matrix(0.59, 0.00, -0.00, -0.59, 388.2, 41.6)">e</text><text xml:space="preserve" font-family="AkkuratStd-Bold" font-weight="bold" font-size="14.0" fill="#FBA200" transform="matrix(0.59, 0.00, -0.00, -0.59, 392.8, 41.6)">r</text><text xml:space="preserve" font-family="AkkuratStd" font-size="12.0" fill="#ABABAB" transform="matrix(0.59, 0.00, -0.00, -0.59, 349.5, 17.9)">F</text><text xml:space="preserve" font-family="AkkuratStd" font-size="12.0" fill="#ABABAB" transform="matrix(0.59, 0.00, -0.00, -0.59, 353.6, 17.9)">u</text><text xml:space="preserve" font-family="AkkuratStd" font-size="12.0" fill="#ABABAB" transform="matrix(0.59, 0.00, -0.00, -0.59, 357.7, 17.9)">l</text><text xml:space="preserve" font-family="AkkuratStd" font-size="12.0" fill="#ABABAB" transform="matrix(0.59, 0.00, -0.00, -0.59, 359.8, 17.9)">l</text><text xml:space="preserve" font-family="AkkuratStd" font-size="12.0" fill="#ABABAB" transform="matrix(0.59, 0.00, -0.00, -0.59, 361.7, 17.9)">-</text><text xml:space="preserve" font-family="AkkuratStd" font-size="12.0" fill="#ABABAB" transform="matrix(0.59, 0.00, -0.00, -0.59, 364.2, 17.9)">T</text><text xml:space="preserve" font-family="AkkuratStd" font-size="12.0" fill="#ABABAB" transform="matrix(0.59, 0.00, -0.00, -0.59, 368.0, 17.9)">i</text><text xml:space="preserve" font-family="AkkuratStd" font-size="12.0" fill="#ABABAB" transform="matrix(0.59, 0.00, -0.00, -0.59, 369.9, 17.9)">m</text><text xml:space="preserve" font-family="AkkuratStd" font-size="12.0" fill="#ABABAB" transform="matrix(0.59, 0.00, -0.00, -0.59, 376.2, 17.9)">e</text><text xml:space="preserve" font-family="AkkuratStd" font-size="12.0" fill="#ABABAB" transform="matrix(0.59, 0.00, -0.00, -0.59, 349.5, 9.0)">4</text><text xml:space="preserve" font-family="AkkuratStd" font-size="12.0" fill="#ABABAB" transform="matrix(0.59, 0.00, -0.00, -0.59, 353.8, 9.0)">/</text><text xml:space="preserve" font-family="AkkuratStd" font-size="12.0" fill="#ABABAB" transform="matrix(0.59, 0.00, -0.00, -0.59, 356.2, 9.0)">1</text><text xml:space="preserve" font-family="AkkuratStd" font-size="12.0" fill="#ABABAB" transform="matrix(0.59, 0.00, -0.00, -0.59, 360.3, 9.0)">1</text><text xml:space="preserve" font-family="AkkuratStd" font-size="12.0" fill="#ABABAB" transform="matrix(0.59, 0.00, -0.00, -0.59, 364.1, 9.0)">/</text><text xml:space="preserve" font-family="AkkuratStd" font-size="12.0" fill="#ABABAB" transform="matrix(0.59, 0.00, -0.00, -0.59, 366.5, 9.0)">1</text><text xml:space="preserve" font-family="AkkuratStd" font-size="12.0" fill="#ABABAB" transform="matrix(0.59, 0.00, -0.00, -0.59, 370.6, 9.0)">6</text></g></g><g><clipPath id="clip-4030"><path d="M 462.5 54.6 L 571.4 54.6 L 571.4 -0.5 L 462.5 -0.5 L 462.5 54.6 Z M 462.5 54.6 "></path></clipPath><g clip-path="url(#clip-4030)"><g><clipPath id="clip-4031"><path d="M 214.0 0.0 L 1066.0 0.0 L 1066.0 720.0 L 214.0 720.0 Z M 214.0 0.0 "></path></clipPath><g clip-path="url(#clip-4031)"><path d="M 459.5 57.5 L 574.3 57.5 L 574.3 -3.5 L 459.5 -3.5 Z M 459.5 57.5 " fill="#F7F7F7"></path></g></g></g></g><g><clipPath id="clip-4032"><path d="M 462.5 142.1 L 571.4 142.1 L 571.4 54.6 L 462.5 54.6 L 462.5 142.1 Z M 462.5 142.1 "></path></clipPath><g clip-path="url(#clip-4032)"><g><clipPath id="clip-4033"><path d="M 214.0 0.0 L 1066.0 0.0 L 1066.0 720.0 L 214.0 720.0 Z M 214.0 0.0 "></path></clipPath><g clip-path="url(#clip-4033)"><g><g><clipPath id="clip-4034"><path d="M 462.5 54.0 L 571.4 54.0 L 571.4 142.1 L 462.5 142.1 Z M 462.5 54.0 "></path></clipPath><g clip-path="url(#clip-4034)"><path d="M 459.5 145.1 L 574.3 145.1 L 574.3 51.6 L 459.5 51.6 Z M 459.5 145.1 " fill="#F79100" fill-opacity="0.50"></path></g></g><g><clipPath id="clip-4035"><path d="M 462.5 54.0 L 571.4 54.0 L 571.4 142.1 L 462.5 142.1 Z M 462.5 54.0 "></path></clipPath><g clip-path="url(#clip-4035)"><g opacity="0.11"><g><clipPath id="clip-4036"><path d="M 462.5 54.0 L 571.4 54.0 L 571.4 142.1 L 462.5 142.1 Z M 462.5 54.0 "></path></clipPath><g clip-path="url(#clip-4036)"><g><g><clipPath id="clip-4037"><path d="M 462.5 54.0 L 571.4 54.0 L 571.4 142.1 L 462.5 142.1 Z M 462.5 54.0 "></path></clipPath><g clip-path="url(#clip-4037)"><image xlink:href="../../B4A16C22-EA86-4FB7-8BA8-9AA532DD42EC/assets/851D87A8BE3C9296D1D7CA05A2BA1816.png" width="2714.00" height="1811.00" transform="matrix(0.05, 0.00, -0.00, -0.05, 437.6, 142.1)"></image></g></g></g></g></g></g></g></g></g></g></g></g></g><g><clipPath id="clip-4038"><path d="M 214.0 0.0 L 1066.0 0.0 L 1066.0 720.0 L 214.0 720.0 Z M 214.0 0.0 "></path></clipPath><g clip-path="url(#clip-4038)"><text xml:space="preserve" font-family="AkkuratStd-Bold" font-weight="bold" font-size="14.0" fill="#FBA200" transform="matrix(0.59, 0.00, -0.00, -0.59, 472.6, 41.6)">M</text><text xml:space="preserve" font-family="AkkuratStd-Bold" font-weight="bold" font-size="14.0" fill="#FBA200" transform="matrix(0.59, 0.00, -0.00, -0.59, 479.8, 41.6)">a</text><text xml:space="preserve" font-family="AkkuratStd-Bold" font-weight="bold" font-size="14.0" fill="#FBA200" transform="matrix(0.59, 0.00, -0.00, -0.59, 484.5, 41.6)">r</text><text xml:space="preserve" font-family="AkkuratStd-Bold" font-weight="bold" font-size="14.0" fill="#FBA200" transform="matrix(0.59, 0.00, -0.00, -0.59, 487.8, 41.6)">k</text><text xml:space="preserve" font-family="AkkuratStd-Bold" font-weight="bold" font-size="14.0" fill="#FBA200" transform="matrix(0.59, 0.00, -0.00, -0.59, 492.5, 41.6)">e</text><text xml:space="preserve" font-family="AkkuratStd-Bold" font-weight="bold" font-size="14.0" fill="#FBA200" transform="matrix(0.59, 0.00, -0.00, -0.59, 497.0, 41.6)">t</text><text xml:space="preserve" font-family="AkkuratStd-Bold" font-weight="bold" font-size="14.0" fill="#FBA200" transform="matrix(0.59, 0.00, -0.00, -0.59, 500.3, 41.6)">i</text><text xml:space="preserve" font-family="AkkuratStd-Bold" font-weight="bold" font-size="14.0" fill="#FBA200" transform="matrix(0.59, 0.00, -0.00, -0.59, 502.7, 41.6)">n</text><text xml:space="preserve" font-family="AkkuratStd-Bold" font-weight="bold" font-size="14.0" fill="#FBA200" transform="matrix(0.59, 0.00, -0.00, -0.59, 507.6, 41.6)">g</text><text xml:space="preserve" font-family="AkkuratStd-Bold" font-weight="bold" font-size="14.0" fill="#FBA200" transform="matrix(0.59, 0.00, -0.00, -0.59, 472.6, 31.5)">C</text><text xml:space="preserve" font-family="AkkuratStd-Bold" font-weight="bold" font-size="14.0" fill="#FBA200" transform="matrix(0.59, 0.00, -0.00, -0.59, 477.8, 31.5)">o</text><text xml:space="preserve" font-family="AkkuratStd-Bold" font-weight="bold" font-size="14.0" fill="#FBA200" transform="matrix(0.59, 0.00, -0.00, -0.59, 482.5, 31.5)">o</text><text xml:space="preserve" font-family="AkkuratStd-Bold" font-weight="bold" font-size="14.0" fill="#FBA200" transform="matrix(0.59, 0.00, -0.00, -0.59, 487.2, 31.5)">r</text><text xml:space="preserve" font-family="AkkuratStd-Bold" font-weight="bold" font-size="14.0" fill="#FBA200" transform="matrix(0.59, 0.00, -0.00, -0.59, 490.3, 31.5)">d</text><text xml:space="preserve" font-family="AkkuratStd-Bold" font-weight="bold" font-size="14.0" fill="#FBA200" transform="matrix(0.59, 0.00, -0.00, -0.59, 495.3, 31.5)">i</text><text xml:space="preserve" font-family="AkkuratStd-Bold" font-weight="bold" font-size="14.0" fill="#FBA200" transform="matrix(0.59, 0.00, -0.00, -0.59, 497.7, 31.5)">n</text><text xml:space="preserve" font-family="AkkuratStd-Bold" font-weight="bold" font-size="14.0" fill="#FBA200" transform="matrix(0.59, 0.00, -0.00, -0.59, 502.6, 31.5)">a</text><text xml:space="preserve" font-family="AkkuratStd-Bold" font-weight="bold" font-size="14.0" fill="#FBA200" transform="matrix(0.59, 0.00, -0.00, -0.59, 507.2, 31.5)">t</text><text xml:space="preserve" font-family="AkkuratStd-Bold" font-weight="bold" font-size="14.0" fill="#FBA200" transform="matrix(0.59, 0.00, -0.00, -0.59, 510.4, 31.5)">o</text><text xml:space="preserve" font-family="AkkuratStd-Bold" font-weight="bold" font-size="14.0" fill="#FBA200" transform="matrix(0.59, 0.00, -0.00, -0.59, 515.1, 31.5)">r</text><text xml:space="preserve" font-family="AkkuratStd" font-size="12.0" fill="#ABABAB" transform="matrix(0.59, 0.00, -0.00, -0.59, 472.6, 17.9)">F</text><text xml:space="preserve" font-family="AkkuratStd" font-size="12.0" fill="#ABABAB" transform="matrix(0.59, 0.00, -0.00, -0.59, 476.7, 17.9)">u</text><text xml:space="preserve" font-family="AkkuratStd" font-size="12.0" fill="#ABABAB" transform="matrix(0.59, 0.00, -0.00, -0.59, 480.8, 17.9)">l</text><text xml:space="preserve" font-family="AkkuratStd" font-size="12.0" fill="#ABABAB" transform="matrix(0.59, 0.00, -0.00, -0.59, 482.9, 17.9)">l</text><text xml:space="preserve" font-family="AkkuratStd" font-size="12.0" fill="#ABABAB" transform="matrix(0.59, 0.00, -0.00, -0.59, 484.7, 17.9)">-</text><text xml:space="preserve" font-family="AkkuratStd" font-size="12.0" fill="#ABABAB" transform="matrix(0.59, 0.00, -0.00, -0.59, 487.2, 17.9)">T</text><text xml:space="preserve" font-family="AkkuratStd" font-size="12.0" fill="#ABABAB" transform="matrix(0.59, 0.00, -0.00, -0.59, 491.1, 17.9)">i</text><text xml:space="preserve" font-family="AkkuratStd" font-size="12.0" fill="#ABABAB" transform="matrix(0.59, 0.00, -0.00, -0.59, 493.0, 17.9)">m</text><text xml:space="preserve" font-family="AkkuratStd" font-size="12.0" fill="#ABABAB" transform="matrix(0.59, 0.00, -0.00, -0.59, 499.2, 17.9)">e</text><text xml:space="preserve" font-family="AkkuratStd" font-size="12.0" fill="#ABABAB" transform="matrix(0.59, 0.00, -0.00, -0.59, 472.6, 9.0)">4</text><text xml:space="preserve" font-family="AkkuratStd" font-size="12.0" fill="#ABABAB" transform="matrix(0.59, 0.00, -0.00, -0.59, 476.9, 9.0)">/</text><text xml:space="preserve" font-family="AkkuratStd" font-size="12.0" fill="#ABABAB" transform="matrix(0.59, 0.00, -0.00, -0.59, 479.3, 9.0)">1</text><text xml:space="preserve" font-family="AkkuratStd" font-size="12.0" fill="#ABABAB" transform="matrix(0.59, 0.00, -0.00, -0.59, 483.3, 9.0)">1</text><text xml:space="preserve" font-family="AkkuratStd" font-size="12.0" fill="#ABABAB" transform="matrix(0.59, 0.00, -0.00, -0.59, 487.1, 9.0)">/</text><text xml:space="preserve" font-family="AkkuratStd" font-size="12.0" fill="#ABABAB" transform="matrix(0.59, 0.00, -0.00, -0.59, 489.6, 9.0)">1</text><text xml:space="preserve" font-family="AkkuratStd" font-size="12.0" fill="#ABABAB" transform="matrix(0.59, 0.00, -0.00, -0.59, 493.6, 9.0)">6</text></g></g><g><clipPath id="clip-4039"><path d="M 585.6 54.6 L 694.4 54.6 L 694.4 -0.5 L 585.6 -0.5 L 585.6 54.6 Z M 585.6 54.6 "></path></clipPath><g clip-path="url(#clip-4039)"><g><clipPath id="clip-4040"><path d="M 214.0 0.0 L 1066.0 0.0 L 1066.0 720.0 L 214.0 720.0 Z M 214.0 0.0 "></path></clipPath><g clip-path="url(#clip-4040)"><path d="M 582.6 57.5 L 697.4 57.5 L 697.4 -3.5 L 582.6 -3.5 Z M 582.6 57.5 " fill="#F7F7F7"></path></g></g></g></g><g><clipPath id="clip-4041"><path d="M 585.6 142.1 L 694.4 142.1 L 694.4 54.6 L 585.6 54.6 L 585.6 142.1 Z M 585.6 142.1 "></path></clipPath><g clip-path="url(#clip-4041)"><g><clipPath id="clip-4042"><path d="M 214.0 0.0 L 1066.0 0.0 L 1066.0 720.0 L 214.0 720.0 Z M 214.0 0.0 "></path></clipPath><g clip-path="url(#clip-4042)"><g><g><clipPath id="clip-4043"><path d="M 585.6 54.0 L 694.4 54.0 L 694.4 142.1 L 585.6 142.1 Z M 585.6 54.0 "></path></clipPath><g clip-path="url(#clip-4043)"><path d="M 582.6 145.1 L 697.4 145.1 L 697.4 51.6 L 582.6 51.6 Z M 582.6 145.1 " fill="#F79100" fill-opacity="0.50"></path></g></g><g><clipPath id="clip-4044"><path d="M 585.6 54.0 L 694.4 54.0 L 694.4 142.1 L 585.6 142.1 Z M 585.6 54.0 "></path></clipPath><g clip-path="url(#clip-4044)"><g opacity="0.11"><g><clipPath id="clip-4045"><path d="M 585.6 54.0 L 694.4 54.0 L 694.4 142.1 L 585.6 142.1 Z M 585.6 54.0 "></path></clipPath><g clip-path="url(#clip-4045)"><g><g><clipPath id="clip-4046"><path d="M 585.6 54.0 L 694.4 54.0 L 694.4 142.1 L 585.6 142.1 Z M 585.6 54.0 "></path></clipPath><g clip-path="url(#clip-4046)"><image xlink:href="../../B4A16C22-EA86-4FB7-8BA8-9AA532DD42EC/assets/851D87A8BE3C9296D1D7CA05A2BA1816.png" width="2714.00" height="1811.00" transform="matrix(0.05, 0.00, -0.00, -0.05, 560.6, 142.1)"></image></g></g></g></g></g></g></g></g></g></g></g></g></g><g><clipPath id="clip-4047"><path d="M 214.0 0.0 L 1066.0 0.0 L 1066.0 720.0 L 214.0 720.0 Z M 214.0 0.0 "></path></clipPath><g clip-path="url(#clip-4047)"><text xml:space="preserve" font-family="AkkuratStd-Bold" font-weight="bold" font-size="14.0" fill="#FBA200" transform="matrix(0.59, 0.00, -0.00, -0.59, 595.6, 41.6)">M</text><text xml:space="preserve" font-family="AkkuratStd-Bold" font-weight="bold" font-size="14.0" fill="#FBA200" transform="matrix(0.59, 0.00, -0.00, -0.59, 602.9, 41.6)">a</text><text xml:space="preserve" font-family="AkkuratStd-Bold" font-weight="bold" font-size="14.0" fill="#FBA200" transform="matrix(0.59, 0.00, -0.00, -0.59, 607.6, 41.6)">r</text><text xml:space="preserve" font-family="AkkuratStd-Bold" font-weight="bold" font-size="14.0" fill="#FBA200" transform="matrix(0.59, 0.00, -0.00, -0.59, 610.8, 41.6)">k</text><text xml:space="preserve" font-family="AkkuratStd-Bold" font-weight="bold" font-size="14.0" fill="#FBA200" transform="matrix(0.59, 0.00, -0.00, -0.59, 615.5, 41.6)">e</text><text xml:space="preserve" font-family="AkkuratStd-Bold" font-weight="bold" font-size="14.0" fill="#FBA200" transform="matrix(0.59, 0.00, -0.00, -0.59, 620.1, 41.6)">t</text><text xml:space="preserve" font-family="AkkuratStd-Bold" font-weight="bold" font-size="14.0" fill="#FBA200" transform="matrix(0.59, 0.00, -0.00, -0.59, 623.4, 41.6)">i</text><text xml:space="preserve" font-family="AkkuratStd-Bold" font-weight="bold" font-size="14.0" fill="#FBA200" transform="matrix(0.59, 0.00, -0.00, -0.59, 625.8, 41.6)">n</text><text xml:space="preserve" font-family="AkkuratStd-Bold" font-weight="bold" font-size="14.0" fill="#FBA200" transform="matrix(0.59, 0.00, -0.00, -0.59, 630.7, 41.6)">g</text><text xml:space="preserve" font-family="AkkuratStd-Bold" font-weight="bold" font-size="14.0" fill="#FBA200" transform="matrix(0.59, 0.00, -0.00, -0.59, 595.6, 31.5)">C</text><text xml:space="preserve" font-family="AkkuratStd-Bold" font-weight="bold" font-size="14.0" fill="#FBA200" transform="matrix(0.59, 0.00, -0.00, -0.59, 600.8, 31.5)">o</text><text xml:space="preserve" font-family="AkkuratStd-Bold" font-weight="bold" font-size="14.0" fill="#FBA200" transform="matrix(0.59, 0.00, -0.00, -0.59, 605.5, 31.5)">o</text><text xml:space="preserve" font-family="AkkuratStd-Bold" font-weight="bold" font-size="14.0" fill="#FBA200" transform="matrix(0.59, 0.00, -0.00, -0.59, 610.3, 31.5)">r</text><text xml:space="preserve" font-family="AkkuratStd-Bold" font-weight="bold" font-size="14.0" fill="#FBA200" transform="matrix(0.59, 0.00, -0.00, -0.59, 613.4, 31.5)">d</text><text xml:space="preserve" font-family="AkkuratStd-Bold" font-weight="bold" font-size="14.0" fill="#FBA200" transform="matrix(0.59, 0.00, -0.00, -0.59, 618.4, 31.5)">i</text><text xml:space="preserve" font-family="AkkuratStd-Bold" font-weight="bold" font-size="14.0" fill="#FBA200" transform="matrix(0.59, 0.00, -0.00, -0.59, 620.7, 31.5)">n</text><text xml:space="preserve" font-family="AkkuratStd-Bold" font-weight="bold" font-size="14.0" fill="#FBA200" transform="matrix(0.59, 0.00, -0.00, -0.59, 625.6, 31.5)">a</text><text xml:space="preserve" font-family="AkkuratStd-Bold" font-weight="bold" font-size="14.0" fill="#FBA200" transform="matrix(0.59, 0.00, -0.00, -0.59, 630.2, 31.5)">t</text><text xml:space="preserve" font-family="AkkuratStd-Bold" font-weight="bold" font-size="14.0" fill="#FBA200" transform="matrix(0.59, 0.00, -0.00, -0.59, 633.5, 31.5)">o</text><text xml:space="preserve" font-family="AkkuratStd-Bold" font-weight="bold" font-size="14.0" fill="#FBA200" transform="matrix(0.59, 0.00, -0.00, -0.59, 638.2, 31.5)">r</text><text xml:space="preserve" font-family="AkkuratStd" font-size="12.0" fill="#ABABAB" transform="matrix(0.59, 0.00, -0.00, -0.59, 595.6, 17.9)">F</text><text xml:space="preserve" font-family="AkkuratStd" font-size="12.0" fill="#ABABAB" transform="matrix(0.59, 0.00, -0.00, -0.59, 599.7, 17.9)">u</text><text xml:space="preserve" font-family="AkkuratStd" font-size="12.0" fill="#ABABAB" transform="matrix(0.59, 0.00, -0.00, -0.59, 603.9, 17.9)">l</text><text xml:space="preserve" font-family="AkkuratStd" font-size="12.0" fill="#ABABAB" transform="matrix(0.59, 0.00, -0.00, -0.59, 605.9, 17.9)">l</text><text xml:space="preserve" font-family="AkkuratStd" font-size="12.0" fill="#ABABAB" transform="matrix(0.59, 0.00, -0.00, -0.59, 607.8, 17.9)">-</text><text xml:space="preserve" font-family="AkkuratStd" font-size="12.0" fill="#ABABAB" transform="matrix(0.59, 0.00, -0.00, -0.59, 610.3, 17.9)">T</text><text xml:space="preserve" font-family="AkkuratStd" font-size="12.0" fill="#ABABAB" transform="matrix(0.59, 0.00, -0.00, -0.59, 614.1, 17.9)">i</text><text xml:space="preserve" font-family="AkkuratStd" font-size="12.0" fill="#ABABAB" transform="matrix(0.59, 0.00, -0.00, -0.59, 616.1, 17.9)">m</text><text xml:space="preserve" font-family="AkkuratStd" font-size="12.0" fill="#ABABAB" transform="matrix(0.59, 0.00, -0.00, -0.59, 622.3, 17.9)">e</text><text xml:space="preserve" font-family="AkkuratStd" font-size="12.0" fill="#ABABAB" transform="matrix(0.59, 0.00, -0.00, -0.59, 595.6, 9.0)">4</text><text xml:space="preserve" font-family="AkkuratStd" font-size="12.0" fill="#ABABAB" transform="matrix(0.59, 0.00, -0.00, -0.59, 599.9, 9.0)">/</text><text xml:space="preserve" font-family="AkkuratStd" font-size="12.0" fill="#ABABAB" transform="matrix(0.59, 0.00, -0.00, -0.59, 602.4, 9.0)">1</text><text xml:space="preserve" font-family="AkkuratStd" font-size="12.0" fill="#ABABAB" transform="matrix(0.59, 0.00, -0.00, -0.59, 606.4, 9.0)">1</text><text xml:space="preserve" font-family="AkkuratStd" font-size="12.0" fill="#ABABAB" transform="matrix(0.59, 0.00, -0.00, -0.59, 610.2, 9.0)">/</text><text xml:space="preserve" font-family="AkkuratStd" font-size="12.0" fill="#ABABAB" transform="matrix(0.59, 0.00, -0.00, -0.59, 612.7, 9.0)">1</text><text xml:space="preserve" font-family="AkkuratStd" font-size="12.0" fill="#ABABAB" transform="matrix(0.59, 0.00, -0.00, -0.59, 616.7, 9.0)">6</text></g></g><g><clipPath id="clip-4048"><path d="M 708.6 54.6 L 817.5 54.6 L 817.5 -0.5 L 708.6 -0.5 L 708.6 54.6 Z M 708.6 54.6 "></path></clipPath><g clip-path="url(#clip-4048)"><g><clipPath id="clip-4049"><path d="M 214.0 0.0 L 1066.0 0.0 L 1066.0 720.0 L 214.0 720.0 Z M 214.0 0.0 "></path></clipPath><g clip-path="url(#clip-4049)"><path d="M 705.7 57.5 L 820.5 57.5 L 820.5 -3.5 L 705.7 -3.5 Z M 705.7 57.5 " fill="#F7F7F7"></path></g></g></g></g><g><clipPath id="clip-4050"><path d="M 708.6 142.1 L 817.5 142.1 L 817.5 54.6 L 708.6 54.6 L 708.6 142.1 Z M 708.6 142.1 "></path></clipPath><g clip-path="url(#clip-4050)"><g><clipPath id="clip-4051"><path d="M 214.0 0.0 L 1066.0 0.0 L 1066.0 720.0 L 214.0 720.0 Z M 214.0 0.0 "></path></clipPath><g clip-path="url(#clip-4051)"><g><g><clipPath id="clip-4052"><path d="M 708.6 54.0 L 817.5 54.0 L 817.5 142.1 L 708.6 142.1 Z M 708.6 54.0 "></path></clipPath><g clip-path="url(#clip-4052)"><path d="M 705.7 145.1 L 820.5 145.1 L 820.5 51.6 L 705.7 51.6 Z M 705.7 145.1 " fill="#F79100" fill-opacity="0.50"></path></g></g><g><clipPath id="clip-4053"><path d="M 708.6 54.0 L 817.5 54.0 L 817.5 142.1 L 708.6 142.1 Z M 708.6 54.0 "></path></clipPath><g clip-path="url(#clip-4053)"><g opacity="0.11"><g><clipPath id="clip-4054"><path d="M 708.6 54.0 L 817.5 54.0 L 817.5 142.1 L 708.6 142.1 Z M 708.6 54.0 "></path></clipPath><g clip-path="url(#clip-4054)"><g><g><clipPath id="clip-4055"><path d="M 708.6 54.0 L 817.5 54.0 L 817.5 142.1 L 708.6 142.1 Z M 708.6 54.0 "></path></clipPath><g clip-path="url(#clip-4055)"><image xlink:href="../../B4A16C22-EA86-4FB7-8BA8-9AA532DD42EC/assets/E2A5426F670BB15A3CAD7D6BCCC0A600.png" width="720.00" height="539.00" transform="matrix(0.19, 0.00, -0.00, -0.19, 683.7, 142.1)"></image></g></g></g></g></g></g></g></g></g></g></g></g></g><g><clipPath id="clip-4056"><path d="M 214.0 0.0 L 1066.0 0.0 L 1066.0 720.0 L 214.0 720.0 Z M 214.0 0.0 "></path></clipPath><g clip-path="url(#clip-4056)"><text xml:space="preserve" font-family="AkkuratStd-Bold" font-weight="bold" font-size="14.0" fill="#FBA200" transform="matrix(0.59, 0.00, -0.00, -0.59, 718.7, 41.6)">M</text><text xml:space="preserve" font-family="AkkuratStd-Bold" font-weight="bold" font-size="14.0" fill="#FBA200" transform="matrix(0.59, 0.00, -0.00, -0.59, 726.0, 41.6)">i</text><text xml:space="preserve" font-family="AkkuratStd-Bold" font-weight="bold" font-size="14.0" fill="#FBA200" transform="matrix(0.59, 0.00, -0.00, -0.59, 728.3, 41.6)">d</text><text xml:space="preserve" font-family="AkkuratStd-Bold" font-weight="bold" font-size="14.0" fill="#FBA200" transform="matrix(0.59, 0.00, -0.00, -0.59, 733.3, 41.6)">d</text><text xml:space="preserve" font-family="AkkuratStd-Bold" font-weight="bold" font-size="14.0" fill="#FBA200" transform="matrix(0.59, 0.00, -0.00, -0.59, 738.2, 41.6)">l</text><text xml:space="preserve" font-family="AkkuratStd-Bold" font-weight="bold" font-size="14.0" fill="#FBA200" transform="matrix(0.59, 0.00, -0.00, -0.59, 740.7, 41.6)">e</text><text xml:space="preserve" font-family="AkkuratStd-Bold" font-weight="bold" font-size="14.0" fill="#FBA200" transform="matrix(0.59, 0.00, -0.00, -0.59, 745.3, 41.6)"> </text><text xml:space="preserve" font-family="AkkuratStd-Bold" font-weight="bold" font-size="14.0" fill="#FBA200" transform="matrix(0.59, 0.00, -0.00, -0.59, 747.1, 41.6)">S</text><text xml:space="preserve" font-family="AkkuratStd-Bold" font-weight="bold" font-size="14.0" fill="#FBA200" transform="matrix(0.59, 0.00, -0.00, -0.59, 752.3, 41.6)">c</text><text xml:space="preserve" font-family="AkkuratStd-Bold" font-weight="bold" font-size="14.0" fill="#FBA200" transform="matrix(0.59, 0.00, -0.00, -0.59, 756.6, 41.6)">h</text><text xml:space="preserve" font-family="AkkuratStd-Bold" font-weight="bold" font-size="14.0" fill="#FBA200" transform="matrix(0.59, 0.00, -0.00, -0.59, 761.5, 41.6)">o</text><text xml:space="preserve" font-family="AkkuratStd-Bold" font-weight="bold" font-size="14.0" fill="#FBA200" transform="matrix(0.59, 0.00, -0.00, -0.59, 766.3, 41.6)">o</text><text xml:space="preserve" font-family="AkkuratStd-Bold" font-weight="bold" font-size="14.0" fill="#FBA200" transform="matrix(0.59, 0.00, -0.00, -0.59, 771.0, 41.6)">l</text><text xml:space="preserve" font-family="AkkuratStd-Bold" font-weight="bold" font-size="14.0" fill="#FBA200" transform="matrix(0.59, 0.00, -0.00, -0.59, 718.7, 31.5)">H</text><text xml:space="preserve" font-family="AkkuratStd-Bold" font-weight="bold" font-size="14.0" fill="#FBA200" transform="matrix(0.59, 0.00, -0.00, -0.59, 724.6, 31.5)">i</text><text xml:space="preserve" font-family="AkkuratStd-Bold" font-weight="bold" font-size="14.0" fill="#FBA200" transform="matrix(0.59, 0.00, -0.00, -0.59, 727.0, 31.5)">s</text><text xml:space="preserve" font-family="AkkuratStd-Bold" font-weight="bold" font-size="14.0" fill="#FBA200" transform="matrix(0.59, 0.00, -0.00, -0.59, 731.3, 31.5)">t</text><text xml:space="preserve" font-family="AkkuratStd-Bold" font-weight="bold" font-size="14.0" fill="#FBA200" transform="matrix(0.59, 0.00, -0.00, -0.59, 734.5, 31.5)">o</text><text xml:space="preserve" font-family="AkkuratStd-Bold" font-weight="bold" font-size="14.0" fill="#FBA200" transform="matrix(0.59, 0.00, -0.00, -0.59, 739.2, 31.5)">r</text><text xml:space="preserve" font-family="AkkuratStd-Bold" font-weight="bold" font-size="14.0" fill="#FBA200" transform="matrix(0.59, 0.00, -0.00, -0.59, 742.5, 31.5)">y</text><text xml:space="preserve" font-family="AkkuratStd-Bold" font-weight="bold" font-size="14.0" fill="#FBA200" transform="matrix(0.59, 0.00, -0.00, -0.59, 746.9, 31.5)"> </text><text xml:space="preserve" font-family="AkkuratStd-Bold" font-weight="bold" font-size="14.0" fill="#FBA200" transform="matrix(0.59, 0.00, -0.00, -0.59, 748.4, 31.5)">T</text><text xml:space="preserve" font-family="AkkuratStd-Bold" font-weight="bold" font-size="14.0" fill="#FBA200" transform="matrix(0.59, 0.00, -0.00, -0.59, 752.3, 31.5)">e</text><text xml:space="preserve" font-family="AkkuratStd-Bold" font-weight="bold" font-size="14.0" fill="#FBA200" transform="matrix(0.59, 0.00, -0.00, -0.59, 756.9, 31.5)">a</text><text xml:space="preserve" font-family="AkkuratStd-Bold" font-weight="bold" font-size="14.0" fill="#FBA200" transform="matrix(0.59, 0.00, -0.00, -0.59, 761.6, 31.5)">c</text><text xml:space="preserve" font-family="AkkuratStd-Bold" font-weight="bold" font-size="14.0" fill="#FBA200" transform="matrix(0.59, 0.00, -0.00, -0.59, 765.9, 31.5)">h</text><text xml:space="preserve" font-family="AkkuratStd-Bold" font-weight="bold" font-size="14.0" fill="#FBA200" transform="matrix(0.59, 0.00, -0.00, -0.59, 770.8, 31.5)">e</text><text xml:space="preserve" font-family="AkkuratStd-Bold" font-weight="bold" font-size="14.0" fill="#FBA200" transform="matrix(0.59, 0.00, -0.00, -0.59, 775.4, 31.5)">r</text><text xml:space="preserve" font-family="AkkuratStd" font-size="12.0" fill="#ABABAB" transform="matrix(0.59, 0.00, -0.00, -0.59, 718.7, 17.9)">F</text><text xml:space="preserve" font-family="AkkuratStd" font-size="12.0" fill="#ABABAB" transform="matrix(0.59, 0.00, -0.00, -0.59, 722.8, 17.9)">u</text><text xml:space="preserve" font-family="AkkuratStd" font-size="12.0" fill="#ABABAB" transform="matrix(0.59, 0.00, -0.00, -0.59, 726.9, 17.9)">l</text><text xml:space="preserve" font-family="AkkuratStd" font-size="12.0" fill="#ABABAB" transform="matrix(0.59, 0.00, -0.00, -0.59, 729.0, 17.9)">l</text><text xml:space="preserve" font-family="AkkuratStd" font-size="12.0" fill="#ABABAB" transform="matrix(0.59, 0.00, -0.00, -0.59, 730.9, 17.9)">-</text><text xml:space="preserve" font-family="AkkuratStd" font-size="12.0" fill="#ABABAB" transform="matrix(0.59, 0.00, -0.00, -0.59, 733.4, 17.9)">T</text><text xml:space="preserve" font-family="AkkuratStd" font-size="12.0" fill="#ABABAB" transform="matrix(0.59, 0.00, -0.00, -0.59, 737.2, 17.9)">i</text><text xml:space="preserve" font-family="AkkuratStd" font-size="12.0" fill="#ABABAB" transform="matrix(0.59, 0.00, -0.00, -0.59, 739.1, 17.9)">m</text><text xml:space="preserve" font-family="AkkuratStd" font-size="12.0" fill="#ABABAB" transform="matrix(0.59, 0.00, -0.00, -0.59, 745.4, 17.9)">e</text><text xml:space="preserve" font-family="AkkuratStd" font-size="12.0" fill="#ABABAB" transform="matrix(0.59, 0.00, -0.00, -0.59, 718.7, 9.0)">4</text><text xml:space="preserve" font-family="AkkuratStd" font-size="12.0" fill="#ABABAB" transform="matrix(0.59, 0.00, -0.00, -0.59, 723.0, 9.0)">/</text><text xml:space="preserve" font-family="AkkuratStd" font-size="12.0" fill="#ABABAB" transform="matrix(0.59, 0.00, -0.00, -0.59, 725.4, 9.0)">1</text><text xml:space="preserve" font-family="AkkuratStd" font-size="12.0" fill="#ABABAB" transform="matrix(0.59, 0.00, -0.00, -0.59, 729.5, 9.0)">1</text><text xml:space="preserve" font-family="AkkuratStd" font-size="12.0" fill="#ABABAB" transform="matrix(0.59, 0.00, -0.00, -0.59, 733.3, 9.0)">/</text><text xml:space="preserve" font-family="AkkuratStd" font-size="12.0" fill="#ABABAB" transform="matrix(0.59, 0.00, -0.00, -0.59, 735.7, 9.0)">1</text><text xml:space="preserve" font-family="AkkuratStd" font-size="12.0" fill="#ABABAB" transform="matrix(0.59, 0.00, -0.00, -0.59, 739.8, 9.0)">6</text></g></g><g><clipPath id="clip-4057"><path d="M 831.7 54.6 L 940.6 54.6 L 940.6 -0.5 L 831.7 -0.5 L 831.7 54.6 Z M 831.7 54.6 "></path></clipPath><g clip-path="url(#clip-4057)"><g><clipPath id="clip-4058"><path d="M 214.0 0.0 L 1066.0 0.0 L 1066.0 720.0 L 214.0 720.0 Z M 214.0 0.0 "></path></clipPath><g clip-path="url(#clip-4058)"><path d="M 828.7 57.5 L 943.5 57.5 L 943.5 -3.5 L 828.7 -3.5 Z M 828.7 57.5 " fill="#F7F7F7"></path></g></g></g></g><g><clipPath id="clip-4059"><path d="M 831.7 142.1 L 940.6 142.1 L 940.6 54.6 L 831.7 54.6 L 831.7 142.1 Z M 831.7 142.1 "></path></clipPath><g clip-path="url(#clip-4059)"><g><clipPath id="clip-4060"><path d="M 214.0 0.0 L 1066.0 0.0 L 1066.0 720.0 L 214.0 720.0 Z M 214.0 0.0 "></path></clipPath><g clip-path="url(#clip-4060)"><g><g><clipPath id="clip-4061"><path d="M 831.7 54.0 L 940.6 54.0 L 940.6 142.1 L 831.7 142.1 Z M 831.7 54.0 "></path></clipPath><g clip-path="url(#clip-4061)"><path d="M 828.7 145.1 L 943.5 145.1 L 943.5 51.6 L 828.7 51.6 Z M 828.7 145.1 " fill="#F79100" fill-opacity="0.50"></path></g></g><g><clipPath id="clip-4062"><path d="M 831.7 54.0 L 940.6 54.0 L 940.6 142.1 L 831.7 142.1 Z M 831.7 54.0 "></path></clipPath><g clip-path="url(#clip-4062)"><g opacity="0.11"><g><clipPath id="clip-4063"><path d="M 831.7 54.0 L 940.6 54.0 L 940.6 142.1 L 831.7 142.1 Z M 831.7 54.0 "></path></clipPath><g clip-path="url(#clip-4063)"><g><g><clipPath id="clip-4064"><path d="M 831.7 54.0 L 940.6 54.0 L 940.6 142.1 L 831.7 142.1 Z M 831.7 54.0 "></path></clipPath><g clip-path="url(#clip-4064)"><image xlink:href="../../86480368-7FA4-44CD-B83A-D22ED56623CE/assets/3D9B78FE31A395102047B2E3C57FBF62.png" width="2714.00" height="1811.00" transform="matrix(0.05, 0.00, -0.00, -0.05, 806.8, 142.1)"></image></g></g></g></g></g></g></g></g></g></g></g></g></g><g><clipPath id="clip-4065"><path d="M 214.0 0.0 L 1066.0 0.0 L 1066.0 720.0 L 214.0 720.0 Z M 214.0 0.0 "></path></clipPath><g clip-path="url(#clip-4065)"><text xml:space="preserve" font-family="AkkuratStd-Bold" font-weight="bold" font-size="14.0" fill="#FBA200" transform="matrix(0.59, 0.00, -0.00, -0.59, 841.8, 41.6)">I</text><text xml:space="preserve" font-family="AkkuratStd-Bold" font-weight="bold" font-size="14.0" fill="#FBA200" transform="matrix(0.59, 0.00, -0.00, -0.59, 844.2, 41.6)">T</text><text xml:space="preserve" font-family="AkkuratStd-Bold" font-weight="bold" font-size="14.0" fill="#FBA200" transform="matrix(0.59, 0.00, -0.00, -0.59, 848.7, 41.6)"> </text><text xml:space="preserve" font-family="AkkuratStd-Bold" font-weight="bold" font-size="14.0" fill="#FBA200" transform="matrix(0.59, 0.00, -0.00, -0.59, 850.4, 41.6)">A</text><text xml:space="preserve" font-family="AkkuratStd-Bold" font-weight="bold" font-size="14.0" fill="#FBA200" transform="matrix(0.59, 0.00, -0.00, -0.59, 855.7, 41.6)">s</text><text xml:space="preserve" font-family="AkkuratStd-Bold" font-weight="bold" font-size="14.0" fill="#FBA200" transform="matrix(0.59, 0.00, -0.00, -0.59, 860.0, 41.6)">s</text><text xml:space="preserve" font-family="AkkuratStd-Bold" font-weight="bold" font-size="14.0" fill="#FBA200" transform="matrix(0.59, 0.00, -0.00, -0.59, 864.3, 41.6)">o</text><text xml:space="preserve" font-family="AkkuratStd-Bold" font-weight="bold" font-size="14.0" fill="#FBA200" transform="matrix(0.59, 0.00, -0.00, -0.59, 869.0, 41.6)">c</text><text xml:space="preserve" font-family="AkkuratStd-Bold" font-weight="bold" font-size="14.0" fill="#FBA200" transform="matrix(0.59, 0.00, -0.00, -0.59, 873.4, 41.6)">i</text><text xml:space="preserve" font-family="AkkuratStd-Bold" font-weight="bold" font-size="14.0" fill="#FBA200" transform="matrix(0.59, 0.00, -0.00, -0.59, 875.8, 41.6)">a</text><text xml:space="preserve" font-family="AkkuratStd-Bold" font-weight="bold" font-size="14.0" fill="#FBA200" transform="matrix(0.59, 0.00, -0.00, -0.59, 880.4, 41.6)">t</text><text xml:space="preserve" font-family="AkkuratStd-Bold" font-weight="bold" font-size="14.0" fill="#FBA200" transform="matrix(0.59, 0.00, -0.00, -0.59, 883.6, 41.6)">e</text><text xml:space="preserve" font-family="AkkuratStd" font-size="12.0" fill="#ABABAB" transform="matrix(0.59, 0.00, -0.00, -0.59, 841.8, 17.9)">F</text><text xml:space="preserve" font-family="AkkuratStd" font-size="12.0" fill="#ABABAB" transform="matrix(0.59, 0.00, -0.00, -0.59, 845.9, 17.9)">u</text><text xml:space="preserve" font-family="AkkuratStd" font-size="12.0" fill="#ABABAB" transform="matrix(0.59, 0.00, -0.00, -0.59, 850.0, 17.9)">l</text><text xml:space="preserve" font-family="AkkuratStd" font-size="12.0" fill="#ABABAB" transform="matrix(0.59, 0.00, -0.00, -0.59, 852.1, 17.9)">l</text><text xml:space="preserve" font-family="AkkuratStd" font-size="12.0" fill="#ABABAB" transform="matrix(0.59, 0.00, -0.00, -0.59, 853.9, 17.9)">-</text><text xml:space="preserve" font-family="AkkuratStd" font-size="12.0" fill="#ABABAB" transform="matrix(0.59, 0.00, -0.00, -0.59, 856.4, 17.9)">T</text><text xml:space="preserve" font-family="AkkuratStd" font-size="12.0" fill="#ABABAB" transform="matrix(0.59, 0.00, -0.00, -0.59, 860.3, 17.9)">i</text><text xml:space="preserve" font-family="AkkuratStd" font-size="12.0" fill="#ABABAB" transform="matrix(0.59, 0.00, -0.00, -0.59, 862.2, 17.9)">m</text><text xml:space="preserve" font-family="AkkuratStd" font-size="12.0" fill="#ABABAB" transform="matrix(0.59, 0.00, -0.00, -0.59, 868.4, 17.9)">e</text><text xml:space="preserve" font-family="AkkuratStd" font-size="12.0" fill="#ABABAB" transform="matrix(0.59, 0.00, -0.00, -0.59, 841.8, 9.0)">4</text><text xml:space="preserve" font-family="AkkuratStd" font-size="12.0" fill="#ABABAB" transform="matrix(0.59, 0.00, -0.00, -0.59, 846.1, 9.0)">/</text><text xml:space="preserve" font-family="AkkuratStd" font-size="12.0" fill="#ABABAB" transform="matrix(0.59, 0.00, -0.00, -0.59, 848.5, 9.0)">1</text><text xml:space="preserve" font-family="AkkuratStd" font-size="12.0" fill="#ABABAB" transform="matrix(0.59, 0.00, -0.00, -0.59, 852.5, 9.0)">1</text><text xml:space="preserve" font-family="AkkuratStd" font-size="12.0" fill="#ABABAB" transform="matrix(0.59, 0.00, -0.00, -0.59, 856.3, 9.0)">/</text><text xml:space="preserve" font-family="AkkuratStd" font-size="12.0" fill="#ABABAB" transform="matrix(0.59, 0.00, -0.00, -0.59, 858.8, 9.0)">1</text><text xml:space="preserve" font-family="AkkuratStd" font-size="12.0" fill="#ABABAB" transform="matrix(0.59, 0.00, -0.00, -0.59, 862.8, 9.0)">6</text></g></g></g></g></g></g></g></g></g></g></g></svg>