<?xml version="1.0" encoding="UTF-8" standalone="no"?><svg xmlns="http://www.w3.org/2000/svg" xmlns:xlink="http://www.w3.org/1999/xlink" clip-rule="evenodd" stroke-miterlimit="4.00" viewBox="0 0 24 25"><desc>SVG generated by Keynote</desc><defs></defs><g transform="matrix(1.00, 0.00, -0.00, -1.00, 0.0, 25.0)"><g><clipPath id="clip-4101"><path d="M 1.0 2.0 L 23.0 2.0 L 23.0 24.0 L 1.0 24.0 Z M 1.0 2.0 "></path></clipPath><g clip-path="url(#clip-4101)"><g><g><clipPath id="clip-4102"><path d="M 11.9 23.8 C 5.9 23.8 1.0 19.0 1.0 12.9 C 1.0 6.9 5.9 2.0 11.9 2.0 C 18.0 2.0 22.8 6.9 22.8 12.9 C 22.8 19.0 18.0 23.8 11.9 23.8 L 11.9 23.8 Z M 13.2 7.9 L 10.7 7.9 L 10.7 14.1 L 13.2 14.1 L 13.2 7.9 L 13.2 7.9 Z M 11.9 15.2 C 11.2 15.2 10.5 15.8 10.5 16.6 C 10.5 17.3 11.1 17.9 11.9 17.9 C 12.7 17.9 13.3 17.3 13.3 16.6 C 13.3 15.8 12.7 15.2 11.9 15.2 L 11.9 15.2 Z M 11.9 15.2 "></path></clipPath><g clip-path="url(#clip-4102)"><g><clipPath id="clip-4103"><path d="M 1.0 2.0 L 23.0 2.0 L 23.0 24.0 L 1.0 24.0 Z M 1.0 2.0 "></path></clipPath><g clip-path="url(#clip-4103)"><path d="M -0.6 25.5 L 24.5 25.5 L 24.5 0.4 L -0.6 0.4 Z M -0.6 25.5 " fill="#00A0DD"></path></g></g></g></g></g></g></g></g></svg>