<?xml version="1.0" encoding="UTF-8" standalone="no"?><svg xmlns="http://www.w3.org/2000/svg" xmlns:xlink="http://www.w3.org/1999/xlink" clip-rule="evenodd" stroke-miterlimit="4.00" viewBox="0 0 418 153"><desc>SVG generated by Keynote</desc><defs></defs><g transform="matrix(1.00, 0.00, -0.00, -1.00, 0.0, 153.0)"><text xml:space="preserve" font-family="Sonus-Bold" font-weight="bold" font-size="22.0" fill="#000000" transform="matrix(1.00, 0.00, -0.00, -1.00, 2.0, 135.0)">S</text><text xml:space="preserve" font-family="Sonus-Bold" font-weight="bold" font-size="22.0" fill="#000000" transform="matrix(1.00, 0.00, -0.00, -1.00, 14.5, 135.0)">e</text><text xml:space="preserve" font-family="Sonus-Bold" font-weight="bold" font-size="22.0" fill="#000000" transform="matrix(1.00, 0.00, -0.00, -1.00, 26.2, 135.0)">t</text><text xml:space="preserve" font-family="Sonus-Bold" font-weight="bold" font-size="22.0" fill="#000000" transform="matrix(1.00, 0.00, -0.00, -1.00, 34.4, 135.0)"> </text><text xml:space="preserve" font-family="Sonus-Bold" font-weight="bold" font-size="22.0" fill="#000000" transform="matrix(1.00, 0.00, -0.00, -1.00, 39.2, 135.0)">c</text><text xml:space="preserve" font-family="Sonus-Bold" font-weight="bold" font-size="22.0" fill="#000000" transform="matrix(1.00, 0.00, -0.00, -1.00, 49.7, 135.0)">a</text><text xml:space="preserve" font-family="Sonus-Bold" font-weight="bold" font-size="22.0" fill="#000000" transform="matrix(1.00, 0.00, -0.00, -1.00, 61.4, 135.0)">n</text><text xml:space="preserve" font-family="Sonus-Bold" font-weight="bold" font-size="22.0" fill="#000000" transform="matrix(1.00, 0.00, -0.00, -1.00, 74.5, 135.0)">d</text><text xml:space="preserve" font-family="Sonus-Bold" font-weight="bold" font-size="22.0" fill="#000000" transform="matrix(1.00, 0.00, -0.00, -1.00, 87.7, 135.0)">i</text><text xml:space="preserve" font-family="Sonus-Bold" font-weight="bold" font-size="22.0" fill="#000000" transform="matrix(1.00, 0.00, -0.00, -1.00, 93.8, 135.0)">d</text><text xml:space="preserve" font-family="Sonus-Bold" font-weight="bold" font-size="22.0" fill="#000000" transform="matrix(1.00, 0.00, -0.00, -1.00, 107.0, 135.0)">a</text><text xml:space="preserve" font-family="Sonus-Bold" font-weight="bold" font-size="22.0" fill="#000000" transform="matrix(1.00, 0.00, -0.00, -1.00, 118.8, 135.0)">t</text><text xml:space="preserve" font-family="Sonus-Bold" font-weight="bold" font-size="22.0" fill="#000000" transform="matrix(1.00, 0.00, -0.00, -1.00, 127.0, 135.0)">e</text><text xml:space="preserve" font-family="Sonus-Bold" font-weight="bold" font-size="22.0" fill="#000000" transform="matrix(1.00, 0.00, -0.00, -1.00, 138.7, 135.0)">s</text><text xml:space="preserve" font-family="Sonus-Bold" font-weight="bold" font-size="22.0" fill="#000000" transform="matrix(1.00, 0.00, -0.00, -1.00, 148.4, 135.0)"> </text><text xml:space="preserve" font-family="Sonus-Bold" font-weight="bold" font-size="22.0" fill="#000000" transform="matrix(1.00, 0.00, -0.00, -1.00, 153.1, 135.0)">u</text><text xml:space="preserve" font-family="Sonus-Bold" font-weight="bold" font-size="22.0" fill="#000000" transform="matrix(1.00, 0.00, -0.00, -1.00, 166.3, 135.0)">p</text><text xml:space="preserve" font-family="Sonus-Bold" font-weight="bold" font-size="22.0" fill="#000000" transform="matrix(1.00, 0.00, -0.00, -1.00, 179.5, 135.0)"> </text><text xml:space="preserve" font-family="Sonus-Bold" font-weight="bold" font-size="22.0" fill="#000000" transform="matrix(1.00, 0.00, -0.00, -1.00, 184.2, 135.0)">f</text><text xml:space="preserve" font-family="Sonus-Bold" font-weight="bold" font-size="22.0" fill="#000000" transform="matrix(1.00, 0.00, -0.00, -1.00, 191.9, 135.0)">o</text><text xml:space="preserve" font-family="Sonus-Bold" font-weight="bold" font-size="22.0" fill="#000000" transform="matrix(1.00, 0.00, -0.00, -1.00, 204.6, 135.0)">r</text><text xml:space="preserve" font-family="Sonus-Bold" font-weight="bold" font-size="22.0" fill="#000000" transform="matrix(1.00, 0.00, -0.00, -1.00, 213.3, 135.0)"> </text><text xml:space="preserve" font-family="Sonus-Bold" font-weight="bold" font-size="22.0" fill="#000000" transform="matrix(1.00, 0.00, -0.00, -1.00, 218.1, 135.0)">s</text><text xml:space="preserve" font-family="Sonus-Bold" font-weight="bold" font-size="22.0" fill="#000000" transform="matrix(1.00, 0.00, -0.00, -1.00, 227.8, 135.0)">u</text><text xml:space="preserve" font-family="Sonus-Bold" font-weight="bold" font-size="22.0" fill="#000000" transform="matrix(1.00, 0.00, -0.00, -1.00, 240.9, 135.0)">c</text><text xml:space="preserve" font-family="Sonus-Bold" font-weight="bold" font-size="22.0" fill="#000000" transform="matrix(1.00, 0.00, -0.00, -1.00, 251.3, 135.0)">c</text><text xml:space="preserve" font-family="Sonus-Bold" font-weight="bold" font-size="22.0" fill="#000000" transform="matrix(1.00, 0.00, -0.00, -1.00, 261.6, 135.0)">e</text><text xml:space="preserve" font-family="Sonus-Bold" font-weight="bold" font-size="22.0" fill="#000000" transform="matrix(1.00, 0.00, -0.00, -1.00, 273.3, 135.0)">s</text><text xml:space="preserve" font-family="Sonus-Bold" font-weight="bold" font-size="22.0" fill="#000000" transform="matrix(1.00, 0.00, -0.00, -1.00, 283.0, 135.0)">s</text><text xml:space="preserve" font-family="Sonus-Bold" font-weight="bold" font-size="22.0" fill="#000000" transform="matrix(1.00, 0.00, -0.00, -1.00, 292.7, 135.0)"> </text><text xml:space="preserve" font-family="Sonus-Bold" font-weight="bold" font-size="22.0" fill="#000000" transform="matrix(1.00, 0.00, -0.00, -1.00, 297.5, 135.0)">d</text><text xml:space="preserve" font-family="Sonus-Bold" font-weight="bold" font-size="22.0" fill="#000000" transform="matrix(1.00, 0.00, -0.00, -1.00, 310.7, 135.0)">u</text><text xml:space="preserve" font-family="Sonus-Bold" font-weight="bold" font-size="22.0" fill="#000000" transform="matrix(1.00, 0.00, -0.00, -1.00, 323.8, 135.0)">r</text><text xml:space="preserve" font-family="Sonus-Bold" font-weight="bold" font-size="22.0" fill="#000000" transform="matrix(1.00, 0.00, -0.00, -1.00, 332.3, 135.0)">i</text><text xml:space="preserve" font-family="Sonus-Bold" font-weight="bold" font-size="22.0" fill="#000000" transform="matrix(1.00, 0.00, -0.00, -1.00, 338.4, 135.0)">n</text><text xml:space="preserve" font-family="Sonus-Bold" font-weight="bold" font-size="22.0" fill="#000000" transform="matrix(1.00, 0.00, -0.00, -1.00, 351.6, 135.0)">g</text><text xml:space="preserve" font-family="Sonus-Bold" font-weight="bold" font-size="22.0" fill="#000000" transform="matrix(1.00, 0.00, -0.00, -1.00, 363.5, 135.0)"> </text><text xml:space="preserve" font-family="Sonus-Bold" font-weight="bold" font-size="22.0" fill="#000000" transform="matrix(1.00, 0.00, -0.00, -1.00, 368.2, 135.0)">t</text><text xml:space="preserve" font-family="Sonus-Bold" font-weight="bold" font-size="22.0" fill="#000000" transform="matrix(1.00, 0.00, -0.00, -1.00, 376.4, 135.0)">h</text><text xml:space="preserve" font-family="Sonus-Bold" font-weight="bold" font-size="22.0" fill="#000000" transform="matrix(1.00, 0.00, -0.00, -1.00, 389.5, 135.0)">e</text><text xml:space="preserve" font-family="Sonus-Bold" font-weight="bold" font-size="22.0" fill="#000000" transform="matrix(1.00, 0.00, -0.00, -1.00, 401.3, 135.0)"> </text><text xml:space="preserve" font-family="Sonus-Bold" font-weight="bold" font-size="22.0" fill="#000000" transform="matrix(1.00, 0.00, -0.00, -1.00, 20.0, 105.0)">h</text><text xml:space="preserve" font-family="Sonus-Bold" font-weight="bold" font-size="22.0" fill="#000000" transform="matrix(1.00, 0.00, -0.00, -1.00, 33.1, 105.0)">i</text><text xml:space="preserve" font-family="Sonus-Bold" font-weight="bold" font-size="22.0" fill="#000000" transform="matrix(1.00, 0.00, -0.00, -1.00, 39.3, 105.0)">r</text><text xml:space="preserve" font-family="Sonus-Bold" font-weight="bold" font-size="22.0" fill="#000000" transform="matrix(1.00, 0.00, -0.00, -1.00, 47.8, 105.0)">i</text><text xml:space="preserve" font-family="Sonus-Bold" font-weight="bold" font-size="22.0" fill="#000000" transform="matrix(1.00, 0.00, -0.00, -1.00, 53.9, 105.0)">n</text><text xml:space="preserve" font-family="Sonus-Bold" font-weight="bold" font-size="22.0" fill="#000000" transform="matrix(1.00, 0.00, -0.00, -1.00, 67.1, 105.0)">g</text><text xml:space="preserve" font-family="Sonus-Bold" font-weight="bold" font-size="22.0" fill="#000000" transform="matrix(1.00, 0.00, -0.00, -1.00, 78.9, 105.0)"> </text><text xml:space="preserve" font-family="Sonus-Bold" font-weight="bold" font-size="22.0" fill="#000000" transform="matrix(1.00, 0.00, -0.00, -1.00, 83.7, 105.0)">p</text><text xml:space="preserve" font-family="Sonus-Bold" font-weight="bold" font-size="22.0" fill="#000000" transform="matrix(1.00, 0.00, -0.00, -1.00, 96.9, 105.0)">r</text><text xml:space="preserve" font-family="Sonus-Bold" font-weight="bold" font-size="22.0" fill="#000000" transform="matrix(1.00, 0.00, -0.00, -1.00, 105.2, 105.0)">o</text><text xml:space="preserve" font-family="Sonus-Bold" font-weight="bold" font-size="22.0" fill="#000000" transform="matrix(1.00, 0.00, -0.00, -1.00, 117.9, 105.0)">c</text><text xml:space="preserve" font-family="Sonus-Bold" font-weight="bold" font-size="22.0" fill="#000000" transform="matrix(1.00, 0.00, -0.00, -1.00, 128.3, 105.0)">e</text><text xml:space="preserve" font-family="Sonus-Bold" font-weight="bold" font-size="22.0" fill="#000000" transform="matrix(1.00, 0.00, -0.00, -1.00, 140.0, 105.0)">s</text><text xml:space="preserve" font-family="Sonus-Bold" font-weight="bold" font-size="22.0" fill="#000000" transform="matrix(1.00, 0.00, -0.00, -1.00, 149.7, 105.0)">s</text><text xml:space="preserve" font-family="Sonus-Bold" font-weight="bold" font-size="22.0" fill="#000000" transform="matrix(1.00, 0.00, -0.00, -1.00, 159.4, 105.0)"> </text><text xml:space="preserve" font-family="Sonus" font-size="13.5" fill="#EF6823" transform="matrix(1.00, 0.00, -0.00, -1.00, 2.3, 79.9)">•</text><text xml:space="preserve" font-family="Sonus" font-size="18.0" fill="#5D5D5D" transform="matrix(1.00, 0.00, -0.00, -1.00, 29.0, 79.0)">M</text><text xml:space="preserve" font-family="Sonus" font-size="18.0" fill="#5D5D5D" transform="matrix(1.00, 0.00, -0.00, -1.00, 43.6, 79.0)">a</text><text xml:space="preserve" font-family="Sonus" font-size="18.0" fill="#5D5D5D" transform="matrix(1.00, 0.00, -0.00, -1.00, 52.8, 79.0)">k</text><text xml:space="preserve" font-family="Sonus" font-size="18.0" fill="#5D5D5D" transform="matrix(1.00, 0.00, -0.00, -1.00, 61.8, 79.0)">e</text><text xml:space="preserve" font-family="Sonus" font-size="18.0" fill="#5D5D5D" transform="matrix(1.00, 0.00, -0.00, -1.00, 71.0, 79.0)"> </text><text xml:space="preserve" font-family="Sonus" font-size="18.0" fill="#5D5D5D" transform="matrix(1.00, 0.00, -0.00, -1.00, 74.9, 79.0)">t</text><text xml:space="preserve" font-family="Sonus" font-size="18.0" fill="#5D5D5D" transform="matrix(1.00, 0.00, -0.00, -1.00, 81.0, 79.0)">h</text><text xml:space="preserve" font-family="Sonus" font-size="18.0" fill="#5D5D5D" transform="matrix(1.00, 0.00, -0.00, -1.00, 91.3, 79.0)">e</text><text xml:space="preserve" font-family="Sonus" font-size="18.0" fill="#5D5D5D" transform="matrix(1.00, 0.00, -0.00, -1.00, 100.5, 79.0)"> </text><text xml:space="preserve" font-family="Sonus" font-size="18.0" fill="#5D5D5D" transform="matrix(1.00, 0.00, -0.00, -1.00, 104.4, 79.0)">h</text><text xml:space="preserve" font-family="Sonus" font-size="18.0" fill="#5D5D5D" transform="matrix(1.00, 0.00, -0.00, -1.00, 114.7, 79.0)">i</text><text xml:space="preserve" font-family="Sonus" font-size="18.0" fill="#5D5D5D" transform="matrix(1.00, 0.00, -0.00, -1.00, 119.1, 79.0)">r</text><text xml:space="preserve" font-family="Sonus" font-size="18.0" fill="#5D5D5D" transform="matrix(1.00, 0.00, -0.00, -1.00, 125.4, 79.0)">i</text><text xml:space="preserve" font-family="Sonus" font-size="18.0" fill="#5D5D5D" transform="matrix(1.00, 0.00, -0.00, -1.00, 129.8, 79.0)">n</text><text xml:space="preserve" font-family="Sonus" font-size="18.0" fill="#5D5D5D" transform="matrix(1.00, 0.00, -0.00, -1.00, 140.1, 79.0)">g</text><text xml:space="preserve" font-family="Sonus" font-size="18.0" fill="#5D5D5D" transform="matrix(1.00, 0.00, -0.00, -1.00, 149.2, 79.0)"> </text><text xml:space="preserve" font-family="Sonus" font-size="18.0" fill="#5D5D5D" transform="matrix(1.00, 0.00, -0.00, -1.00, 153.1, 79.0)">p</text><text xml:space="preserve" font-family="Sonus" font-size="18.0" fill="#5D5D5D" transform="matrix(1.00, 0.00, -0.00, -1.00, 163.3, 79.0)">r</text><text xml:space="preserve" font-family="Sonus" font-size="18.0" fill="#5D5D5D" transform="matrix(1.00, 0.00, -0.00, -1.00, 169.4, 79.0)">o</text><text xml:space="preserve" font-family="Sonus" font-size="18.0" fill="#5D5D5D" transform="matrix(1.00, 0.00, -0.00, -1.00, 179.3, 79.0)">c</text><text xml:space="preserve" font-family="Sonus" font-size="18.0" fill="#5D5D5D" transform="matrix(1.00, 0.00, -0.00, -1.00, 187.5, 79.0)">e</text><text xml:space="preserve" font-family="Sonus" font-size="18.0" fill="#5D5D5D" transform="matrix(1.00, 0.00, -0.00, -1.00, 196.8, 79.0)">s</text><text xml:space="preserve" font-family="Sonus" font-size="18.0" fill="#5D5D5D" transform="matrix(1.00, 0.00, -0.00, -1.00, 204.2, 79.0)">s</text><text xml:space="preserve" font-family="Sonus" font-size="18.0" fill="#5D5D5D" transform="matrix(1.00, 0.00, -0.00, -1.00, 211.7, 79.0)"> </text><text xml:space="preserve" font-family="Sonus" font-size="18.0" fill="#5D5D5D" transform="matrix(1.00, 0.00, -0.00, -1.00, 215.6, 79.0)">t</text><text xml:space="preserve" font-family="Sonus" font-size="18.0" fill="#5D5D5D" transform="matrix(1.00, 0.00, -0.00, -1.00, 221.7, 79.0)">r</text><text xml:space="preserve" font-family="Sonus" font-size="18.0" fill="#5D5D5D" transform="matrix(1.00, 0.00, -0.00, -1.00, 227.9, 79.0)">a</text><text xml:space="preserve" font-family="Sonus" font-size="18.0" fill="#5D5D5D" transform="matrix(1.00, 0.00, -0.00, -1.00, 237.1, 79.0)">n</text><text xml:space="preserve" font-family="Sonus" font-size="18.0" fill="#5D5D5D" transform="matrix(1.00, 0.00, -0.00, -1.00, 247.3, 79.0)">s</text><text xml:space="preserve" font-family="Sonus" font-size="18.0" fill="#5D5D5D" transform="matrix(1.00, 0.00, -0.00, -1.00, 254.7, 79.0)">p</text><text xml:space="preserve" font-family="Sonus" font-size="18.0" fill="#5D5D5D" transform="matrix(1.00, 0.00, -0.00, -1.00, 264.9, 79.0)">a</text><text xml:space="preserve" font-family="Sonus" font-size="18.0" fill="#5D5D5D" transform="matrix(1.00, 0.00, -0.00, -1.00, 274.1, 79.0)">r</text><text xml:space="preserve" font-family="Sonus" font-size="18.0" fill="#5D5D5D" transform="matrix(1.00, 0.00, -0.00, -1.00, 280.2, 79.0)">e</text><text xml:space="preserve" font-family="Sonus" font-size="18.0" fill="#5D5D5D" transform="matrix(1.00, 0.00, -0.00, -1.00, 289.4, 79.0)">n</text><text xml:space="preserve" font-family="Sonus" font-size="18.0" fill="#5D5D5D" transform="matrix(1.00, 0.00, -0.00, -1.00, 299.6, 79.0)">t</text><text xml:space="preserve" font-family="Sonus" font-size="18.0" fill="#5D5D5D" transform="matrix(1.00, 0.00, -0.00, -1.00, 305.7, 79.0)"> </text><text xml:space="preserve" font-family="Sonus" font-size="13.5" fill="#EF6823" transform="matrix(1.00, 0.00, -0.00, -1.00, 2.3, 55.9)">•</text><text xml:space="preserve" font-family="Sonus" font-size="18.0" fill="#5D5D5D" transform="matrix(1.00, 0.00, -0.00, -1.00, 29.0, 55.0)">F</text><text xml:space="preserve" font-family="Sonus" font-size="18.0" fill="#5D5D5D" transform="matrix(1.00, 0.00, -0.00, -1.00, 38.1, 55.0)">e</text><text xml:space="preserve" font-family="Sonus" font-size="18.0" fill="#5D5D5D" transform="matrix(1.00, 0.00, -0.00, -1.00, 47.2, 55.0)">a</text><text xml:space="preserve" font-family="Sonus" font-size="18.0" fill="#5D5D5D" transform="matrix(1.00, 0.00, -0.00, -1.00, 56.4, 55.0)">t</text><text xml:space="preserve" font-family="Sonus" font-size="18.0" fill="#5D5D5D" transform="matrix(1.00, 0.00, -0.00, -1.00, 62.5, 55.0)">u</text><text xml:space="preserve" font-family="Sonus" font-size="18.0" fill="#5D5D5D" transform="matrix(1.00, 0.00, -0.00, -1.00, 72.8, 55.0)">r</text><text xml:space="preserve" font-family="Sonus" font-size="18.0" fill="#5D5D5D" transform="matrix(1.00, 0.00, -0.00, -1.00, 78.9, 55.0)">e</text><text xml:space="preserve" font-family="Sonus" font-size="18.0" fill="#5D5D5D" transform="matrix(1.00, 0.00, -0.00, -1.00, 88.1, 55.0)"> </text><text xml:space="preserve" font-family="Sonus" font-size="18.0" fill="#5D5D5D" transform="matrix(1.00, 0.00, -0.00, -1.00, 92.0, 55.0)">a</text><text xml:space="preserve" font-family="Sonus" font-size="18.0" fill="#5D5D5D" transform="matrix(1.00, 0.00, -0.00, -1.00, 101.2, 55.0)">n</text><text xml:space="preserve" font-family="Sonus" font-size="18.0" fill="#5D5D5D" transform="matrix(1.00, 0.00, -0.00, -1.00, 111.4, 55.0)"> </text><text xml:space="preserve" font-family="Sonus" font-size="18.0" fill="#5D5D5D" transform="matrix(1.00, 0.00, -0.00, -1.00, 115.3, 55.0)">e</text><text xml:space="preserve" font-family="Sonus" font-size="18.0" fill="#5D5D5D" transform="matrix(1.00, 0.00, -0.00, -1.00, 124.5, 55.0)">m</text><text xml:space="preserve" font-family="Sonus" font-size="18.0" fill="#5D5D5D" transform="matrix(1.00, 0.00, -0.00, -1.00, 140.3, 55.0)">p</text><text xml:space="preserve" font-family="Sonus" font-size="18.0" fill="#5D5D5D" transform="matrix(1.00, 0.00, -0.00, -1.00, 150.5, 55.0)">l</text><text xml:space="preserve" font-family="Sonus" font-size="18.0" fill="#5D5D5D" transform="matrix(1.00, 0.00, -0.00, -1.00, 154.9, 55.0)">o</text><text xml:space="preserve" font-family="Sonus" font-size="18.0" fill="#5D5D5D" transform="matrix(1.00, 0.00, -0.00, -1.00, 164.8, 55.0)">y</text><text xml:space="preserve" font-family="Sonus" font-size="18.0" fill="#5D5D5D" transform="matrix(1.00, 0.00, -0.00, -1.00, 173.4, 55.0)">e</text><text xml:space="preserve" font-family="Sonus" font-size="18.0" fill="#5D5D5D" transform="matrix(1.00, 0.00, -0.00, -1.00, 182.7, 55.0)">e</text><text xml:space="preserve" font-family="Sonus" font-size="18.0" fill="#5D5D5D" transform="matrix(1.00, 0.00, -0.00, -1.00, 191.9, 55.0)"> </text><text xml:space="preserve" font-family="Sonus" font-size="18.0" fill="#5D5D5D" transform="matrix(1.00, 0.00, -0.00, -1.00, 195.8, 55.0)">e</text><text xml:space="preserve" font-family="Sonus" font-size="18.0" fill="#5D5D5D" transform="matrix(1.00, 0.00, -0.00, -1.00, 204.9, 55.0)">x</text><text xml:space="preserve" font-family="Sonus" font-size="18.0" fill="#5D5D5D" transform="matrix(1.00, 0.00, -0.00, -1.00, 213.8, 55.0)">p</text><text xml:space="preserve" font-family="Sonus" font-size="18.0" fill="#5D5D5D" transform="matrix(1.00, 0.00, -0.00, -1.00, 224.0, 55.0)">l</text><text xml:space="preserve" font-family="Sonus" font-size="18.0" fill="#5D5D5D" transform="matrix(1.00, 0.00, -0.00, -1.00, 228.4, 55.0)">a</text><text xml:space="preserve" font-family="Sonus" font-size="18.0" fill="#5D5D5D" transform="matrix(1.00, 0.00, -0.00, -1.00, 237.6, 55.0)">i</text><text xml:space="preserve" font-family="Sonus" font-size="18.0" fill="#5D5D5D" transform="matrix(1.00, 0.00, -0.00, -1.00, 242.0, 55.0)">n</text><text xml:space="preserve" font-family="Sonus" font-size="18.0" fill="#5D5D5D" transform="matrix(1.00, 0.00, -0.00, -1.00, 252.2, 55.0)">i</text><text xml:space="preserve" font-family="Sonus" font-size="18.0" fill="#5D5D5D" transform="matrix(1.00, 0.00, -0.00, -1.00, 256.6, 55.0)">n</text><text xml:space="preserve" font-family="Sonus" font-size="18.0" fill="#5D5D5D" transform="matrix(1.00, 0.00, -0.00, -1.00, 266.9, 55.0)">g</text><text xml:space="preserve" font-family="Sonus" font-size="18.0" fill="#5D5D5D" transform="matrix(1.00, 0.00, -0.00, -1.00, 276.0, 55.0)"> </text><text xml:space="preserve" font-family="Sonus" font-size="18.0" fill="#5D5D5D" transform="matrix(1.00, 0.00, -0.00, -1.00, 279.9, 55.0)">t</text><text xml:space="preserve" font-family="Sonus" font-size="18.0" fill="#5D5D5D" transform="matrix(1.00, 0.00, -0.00, -1.00, 286.0, 55.0)">h</text><text xml:space="preserve" font-family="Sonus" font-size="18.0" fill="#5D5D5D" transform="matrix(1.00, 0.00, -0.00, -1.00, 296.3, 55.0)">e</text><text xml:space="preserve" font-family="Sonus" font-size="18.0" fill="#5D5D5D" transform="matrix(1.00, 0.00, -0.00, -1.00, 305.5, 55.0)"> </text><text xml:space="preserve" font-family="Sonus" font-size="18.0" fill="#5D5D5D" transform="matrix(1.00, 0.00, -0.00, -1.00, 309.4, 55.0)">h</text><text xml:space="preserve" font-family="Sonus" font-size="18.0" fill="#5D5D5D" transform="matrix(1.00, 0.00, -0.00, -1.00, 319.7, 55.0)">i</text><text xml:space="preserve" font-family="Sonus" font-size="18.0" fill="#5D5D5D" transform="matrix(1.00, 0.00, -0.00, -1.00, 324.1, 55.0)">r</text><text xml:space="preserve" font-family="Sonus" font-size="18.0" fill="#5D5D5D" transform="matrix(1.00, 0.00, -0.00, -1.00, 330.3, 55.0)">i</text><text xml:space="preserve" font-family="Sonus" font-size="18.0" fill="#5D5D5D" transform="matrix(1.00, 0.00, -0.00, -1.00, 334.7, 55.0)">n</text><text xml:space="preserve" font-family="Sonus" font-size="18.0" fill="#5D5D5D" transform="matrix(1.00, 0.00, -0.00, -1.00, 345.0, 55.0)">g</text><text xml:space="preserve" font-family="Sonus" font-size="18.0" fill="#5D5D5D" transform="matrix(1.00, 0.00, -0.00, -1.00, 354.2, 55.0)"> </text><text xml:space="preserve" font-family="Sonus" font-size="18.0" fill="#5D5D5D" transform="matrix(1.00, 0.00, -0.00, -1.00, 358.0, 55.0)">p</text><text xml:space="preserve" font-family="Sonus" font-size="18.0" fill="#5D5D5D" transform="matrix(1.00, 0.00, -0.00, -1.00, 368.2, 55.0)">r</text><text xml:space="preserve" font-family="Sonus" font-size="18.0" fill="#5D5D5D" transform="matrix(1.00, 0.00, -0.00, -1.00, 374.3, 55.0)">o</text><text xml:space="preserve" font-family="Sonus" font-size="18.0" fill="#5D5D5D" transform="matrix(1.00, 0.00, -0.00, -1.00, 384.3, 55.0)">c</text><text xml:space="preserve" font-family="Sonus" font-size="18.0" fill="#5D5D5D" transform="matrix(1.00, 0.00, -0.00, -1.00, 392.5, 55.0)">e</text><text xml:space="preserve" font-family="Sonus" font-size="18.0" fill="#5D5D5D" transform="matrix(1.00, 0.00, -0.00, -1.00, 401.7, 55.0)">s</text><text xml:space="preserve" font-family="Sonus" font-size="18.0" fill="#5D5D5D" transform="matrix(1.00, 0.00, -0.00, -1.00, 409.2, 55.0)">s</text><text xml:space="preserve" font-family="Sonus" font-size="18.0" fill="#5D5D5D" transform="matrix(1.00, 0.00, -0.00, -1.00, 416.6, 55.0)"> </text><text xml:space="preserve" font-family="Sonus" font-size="18.0" fill="#5D5D5D" transform="matrix(1.00, 0.00, -0.00, -1.00, 46.0, 31.0)">i</text><text xml:space="preserve" font-family="Sonus" font-size="18.0" fill="#5D5D5D" transform="matrix(1.00, 0.00, -0.00, -1.00, 50.4, 31.0)">n</text><text xml:space="preserve" font-family="Sonus" font-size="18.0" fill="#5D5D5D" transform="matrix(1.00, 0.00, -0.00, -1.00, 60.6, 31.0)"> </text><text xml:space="preserve" font-family="Sonus" font-size="18.0" fill="#5D5D5D" transform="matrix(1.00, 0.00, -0.00, -1.00, 64.5, 31.0)">t</text><text xml:space="preserve" font-family="Sonus" font-size="18.0" fill="#5D5D5D" transform="matrix(1.00, 0.00, -0.00, -1.00, 70.6, 31.0)">h</text><text xml:space="preserve" font-family="Sonus" font-size="18.0" fill="#5D5D5D" transform="matrix(1.00, 0.00, -0.00, -1.00, 80.9, 31.0)">e</text><text xml:space="preserve" font-family="Sonus" font-size="18.0" fill="#5D5D5D" transform="matrix(1.00, 0.00, -0.00, -1.00, 90.1, 31.0)">i</text><text xml:space="preserve" font-family="Sonus" font-size="18.0" fill="#5D5D5D" transform="matrix(1.00, 0.00, -0.00, -1.00, 94.5, 31.0)">r</text><text xml:space="preserve" font-family="Sonus" font-size="18.0" fill="#5D5D5D" transform="matrix(1.00, 0.00, -0.00, -1.00, 100.9, 31.0)"> </text><text xml:space="preserve" font-family="Sonus" font-size="18.0" fill="#5D5D5D" transform="matrix(1.00, 0.00, -0.00, -1.00, 104.8, 31.0)">o</text><text xml:space="preserve" font-family="Sonus" font-size="18.0" fill="#5D5D5D" transform="matrix(1.00, 0.00, -0.00, -1.00, 114.9, 31.0)">w</text><text xml:space="preserve" font-family="Sonus" font-size="18.0" fill="#5D5D5D" transform="matrix(1.00, 0.00, -0.00, -1.00, 127.9, 31.0)">n</text><text xml:space="preserve" font-family="Sonus" font-size="18.0" fill="#5D5D5D" transform="matrix(1.00, 0.00, -0.00, -1.00, 138.1, 31.0)"> </text><text xml:space="preserve" font-family="Sonus" font-size="18.0" fill="#5D5D5D" transform="matrix(1.00, 0.00, -0.00, -1.00, 142.0, 31.0)">w</text><text xml:space="preserve" font-family="Sonus" font-size="18.0" fill="#5D5D5D" transform="matrix(1.00, 0.00, -0.00, -1.00, 155.0, 31.0)">o</text><text xml:space="preserve" font-family="Sonus" font-size="18.0" fill="#5D5D5D" transform="matrix(1.00, 0.00, -0.00, -1.00, 164.9, 31.0)">r</text><text xml:space="preserve" font-family="Sonus" font-size="18.0" fill="#5D5D5D" transform="matrix(1.00, 0.00, -0.00, -1.00, 171.0, 31.0)">d</text><text xml:space="preserve" font-family="Sonus" font-size="18.0" fill="#5D5D5D" transform="matrix(1.00, 0.00, -0.00, -1.00, 181.2, 31.0)">s</text><text xml:space="preserve" font-family="Sonus" font-size="18.0" fill="#5D5D5D" transform="matrix(1.00, 0.00, -0.00, -1.00, 188.7, 31.0)"> </text><text xml:space="preserve" font-family="Sonus" font-size="18.0" fill="#5D5D5D" transform="matrix(1.00, 0.00, -0.00, -1.00, 192.6, 31.0)"> </text><text xml:space="preserve" font-family="Sonus" font-size="13.5" fill="#EF6823" transform="matrix(1.00, 0.00, -0.00, -1.00, 2.3, 7.9)">•</text><text xml:space="preserve" font-family="Sonus" font-size="18.0" fill="#5D5D5D" transform="matrix(1.00, 0.00, -0.00, -1.00, 29.0, 7.0)">E</text><text xml:space="preserve" font-family="Sonus" font-size="18.0" fill="#5D5D5D" transform="matrix(1.00, 0.00, -0.00, -1.00, 38.7, 7.0)">n</text><text xml:space="preserve" font-family="Sonus" font-size="18.0" fill="#5D5D5D" transform="matrix(1.00, 0.00, -0.00, -1.00, 48.9, 7.0)">c</text><text xml:space="preserve" font-family="Sonus" font-size="18.0" fill="#5D5D5D" transform="matrix(1.00, 0.00, -0.00, -1.00, 57.1, 7.0)">o</text><text xml:space="preserve" font-family="Sonus" font-size="18.0" fill="#5D5D5D" transform="matrix(1.00, 0.00, -0.00, -1.00, 67.0, 7.0)">u</text><text xml:space="preserve" font-family="Sonus" font-size="18.0" fill="#5D5D5D" transform="matrix(1.00, 0.00, -0.00, -1.00, 77.3, 7.0)">r</text><text xml:space="preserve" font-family="Sonus" font-size="18.0" fill="#5D5D5D" transform="matrix(1.00, 0.00, -0.00, -1.00, 83.5, 7.0)">a</text><text xml:space="preserve" font-family="Sonus" font-size="18.0" fill="#5D5D5D" transform="matrix(1.00, 0.00, -0.00, -1.00, 92.8, 7.0)">g</text><text xml:space="preserve" font-family="Sonus" font-size="18.0" fill="#5D5D5D" transform="matrix(1.00, 0.00, -0.00, -1.00, 102.0, 7.0)">e</text><text xml:space="preserve" font-family="Sonus" font-size="18.0" fill="#5D5D5D" transform="matrix(1.00, 0.00, -0.00, -1.00, 111.2, 7.0)"> </text><text xml:space="preserve" font-family="Sonus" font-size="18.0" fill="#5D5D5D" transform="matrix(1.00, 0.00, -0.00, -1.00, 115.1, 7.0)">Q</text><text xml:space="preserve" font-family="Sonus" font-size="18.0" fill="#5D5D5D" transform="matrix(1.00, 0.00, -0.00, -1.00, 128.1, 7.0)">u</text><text xml:space="preserve" font-family="Sonus" font-size="18.0" fill="#5D5D5D" transform="matrix(1.00, 0.00, -0.00, -1.00, 138.4, 7.0)">e</text><text xml:space="preserve" font-family="Sonus" font-size="18.0" fill="#5D5D5D" transform="matrix(1.00, 0.00, -0.00, -1.00, 147.6, 7.0)">s</text><text xml:space="preserve" font-family="Sonus" font-size="18.0" fill="#5D5D5D" transform="matrix(1.00, 0.00, -0.00, -1.00, 155.1, 7.0)">t</text><text xml:space="preserve" font-family="Sonus" font-size="18.0" fill="#5D5D5D" transform="matrix(1.00, 0.00, -0.00, -1.00, 161.2, 7.0)">i</text><text xml:space="preserve" font-family="Sonus" font-size="18.0" fill="#5D5D5D" transform="matrix(1.00, 0.00, -0.00, -1.00, 165.6, 7.0)">o</text><text xml:space="preserve" font-family="Sonus" font-size="18.0" fill="#5D5D5D" transform="matrix(1.00, 0.00, -0.00, -1.00, 175.5, 7.0)">n</text><text xml:space="preserve" font-family="Sonus" font-size="18.0" fill="#5D5D5D" transform="matrix(1.00, 0.00, -0.00, -1.00, 185.7, 7.0)">s</text><text xml:space="preserve" font-family="Sonus" font-size="18.0" fill="#5D5D5D" transform="matrix(1.00, 0.00, -0.00, -1.00, 193.1, 7.0)"> </text><text xml:space="preserve" font-family="Sonus" font-size="18.0" fill="#5D5D5D" transform="matrix(1.00, 0.00, -0.00, -1.00, 197.0, 7.0)">a</text><text xml:space="preserve" font-family="Sonus" font-size="18.0" fill="#5D5D5D" transform="matrix(1.00, 0.00, -0.00, -1.00, 206.2, 7.0)">n</text><text xml:space="preserve" font-family="Sonus" font-size="18.0" fill="#5D5D5D" transform="matrix(1.00, 0.00, -0.00, -1.00, 216.4, 7.0)">d</text><text xml:space="preserve" font-family="Sonus" font-size="18.0" fill="#5D5D5D" transform="matrix(1.00, 0.00, -0.00, -1.00, 226.6, 7.0)"> </text><text xml:space="preserve" font-family="Sonus" font-size="18.0" fill="#5D5D5D" transform="matrix(1.00, 0.00, -0.00, -1.00, 230.5, 7.0)">E</text><text xml:space="preserve" font-family="Sonus" font-size="18.0" fill="#5D5D5D" transform="matrix(1.00, 0.00, -0.00, -1.00, 240.2, 7.0)">n</text><text xml:space="preserve" font-family="Sonus" font-size="18.0" fill="#5D5D5D" transform="matrix(1.00, 0.00, -0.00, -1.00, 250.5, 7.0)">g</text><text xml:space="preserve" font-family="Sonus" font-size="18.0" fill="#5D5D5D" transform="matrix(1.00, 0.00, -0.00, -1.00, 259.6, 7.0)">a</text><text xml:space="preserve" font-family="Sonus" font-size="18.0" fill="#5D5D5D" transform="matrix(1.00, 0.00, -0.00, -1.00, 268.9, 7.0)">g</text><text xml:space="preserve" font-family="Sonus" font-size="18.0" fill="#5D5D5D" transform="matrix(1.00, 0.00, -0.00, -1.00, 278.1, 7.0)">e</text><text xml:space="preserve" font-family="Sonus" font-size="18.0" fill="#5D5D5D" transform="matrix(1.00, 0.00, -0.00, -1.00, 287.3, 7.0)">m</text><text xml:space="preserve" font-family="Sonus" font-size="18.0" fill="#5D5D5D" transform="matrix(1.00, 0.00, -0.00, -1.00, 303.1, 7.0)">e</text><text xml:space="preserve" font-family="Sonus" font-size="18.0" fill="#5D5D5D" transform="matrix(1.00, 0.00, -0.00, -1.00, 312.3, 7.0)">n</text><text xml:space="preserve" font-family="Sonus" font-size="18.0" fill="#5D5D5D" transform="matrix(1.00, 0.00, -0.00, -1.00, 322.5, 7.0)">t</text><text xml:space="preserve" font-family="Sonus" font-size="18.0" fill="#5D5D5D" transform="matrix(1.00, 0.00, -0.00, -1.00, 328.6, 7.0)"> </text></g></svg>