<?xml version="1.0" encoding="UTF-8" standalone="no"?><svg xmlns="http://www.w3.org/2000/svg" xmlns:xlink="http://www.w3.org/1999/xlink" clip-rule="evenodd" stroke-miterlimit="4.00" viewBox="0 0 401 129"><desc>SVG generated by Keynote</desc><defs></defs><g transform="matrix(1.00, 0.00, -0.00, -1.00, 0.0, 129.0)"><text xml:space="preserve" font-family="Sonus-Bold" font-weight="bold" font-size="22.0" fill="#000000" transform="matrix(1.00, 0.00, -0.00, -1.00, 0.0, 111.0)">I</text><text xml:space="preserve" font-family="Sonus-Bold" font-weight="bold" font-size="22.0" fill="#000000" transform="matrix(1.00, 0.00, -0.00, -1.00, 6.5, 111.0)">n</text><text xml:space="preserve" font-family="Sonus-Bold" font-weight="bold" font-size="22.0" fill="#000000" transform="matrix(1.00, 0.00, -0.00, -1.00, 19.6, 111.0)">s</text><text xml:space="preserve" font-family="Sonus-Bold" font-weight="bold" font-size="22.0" fill="#000000" transform="matrix(1.00, 0.00, -0.00, -1.00, 29.3, 111.0)">p</text><text xml:space="preserve" font-family="Sonus-Bold" font-weight="bold" font-size="22.0" fill="#000000" transform="matrix(1.00, 0.00, -0.00, -1.00, 42.5, 111.0)">i</text><text xml:space="preserve" font-family="Sonus-Bold" font-weight="bold" font-size="22.0" fill="#000000" transform="matrix(1.00, 0.00, -0.00, -1.00, 48.6, 111.0)">r</text><text xml:space="preserve" font-family="Sonus-Bold" font-weight="bold" font-size="22.0" fill="#000000" transform="matrix(1.00, 0.00, -0.00, -1.00, 56.9, 111.0)">e</text><text xml:space="preserve" font-family="Sonus-Bold" font-weight="bold" font-size="22.0" fill="#000000" transform="matrix(1.00, 0.00, -0.00, -1.00, 68.7, 111.0)"> </text><text xml:space="preserve" font-family="Sonus-Bold" font-weight="bold" font-size="22.0" fill="#000000" transform="matrix(1.00, 0.00, -0.00, -1.00, 73.4, 111.0)">c</text><text xml:space="preserve" font-family="Sonus-Bold" font-weight="bold" font-size="22.0" fill="#000000" transform="matrix(1.00, 0.00, -0.00, -1.00, 83.9, 111.0)">a</text><text xml:space="preserve" font-family="Sonus-Bold" font-weight="bold" font-size="22.0" fill="#000000" transform="matrix(1.00, 0.00, -0.00, -1.00, 95.7, 111.0)">n</text><text xml:space="preserve" font-family="Sonus-Bold" font-weight="bold" font-size="22.0" fill="#000000" transform="matrix(1.00, 0.00, -0.00, -1.00, 108.7, 111.0)">d</text><text xml:space="preserve" font-family="Sonus-Bold" font-weight="bold" font-size="22.0" fill="#000000" transform="matrix(1.00, 0.00, -0.00, -1.00, 121.9, 111.0)">i</text><text xml:space="preserve" font-family="Sonus-Bold" font-weight="bold" font-size="22.0" fill="#000000" transform="matrix(1.00, 0.00, -0.00, -1.00, 128.1, 111.0)">d</text><text xml:space="preserve" font-family="Sonus-Bold" font-weight="bold" font-size="22.0" fill="#000000" transform="matrix(1.00, 0.00, -0.00, -1.00, 141.2, 111.0)">a</text><text xml:space="preserve" font-family="Sonus-Bold" font-weight="bold" font-size="22.0" fill="#000000" transform="matrix(1.00, 0.00, -0.00, -1.00, 153.0, 111.0)">t</text><text xml:space="preserve" font-family="Sonus-Bold" font-weight="bold" font-size="22.0" fill="#000000" transform="matrix(1.00, 0.00, -0.00, -1.00, 161.2, 111.0)">e</text><text xml:space="preserve" font-family="Sonus-Bold" font-weight="bold" font-size="22.0" fill="#000000" transform="matrix(1.00, 0.00, -0.00, -1.00, 172.9, 111.0)">s</text><text xml:space="preserve" font-family="Sonus-Bold" font-weight="bold" font-size="22.0" fill="#000000" transform="matrix(1.00, 0.00, -0.00, -1.00, 182.6, 111.0)"> </text><text xml:space="preserve" font-family="Sonus-Bold" font-weight="bold" font-size="22.0" fill="#000000" transform="matrix(1.00, 0.00, -0.00, -1.00, 187.4, 111.0)">s</text><text xml:space="preserve" font-family="Sonus-Bold" font-weight="bold" font-size="22.0" fill="#000000" transform="matrix(1.00, 0.00, -0.00, -1.00, 197.2, 111.0)">o</text><text xml:space="preserve" font-family="Sonus-Bold" font-weight="bold" font-size="22.0" fill="#000000" transform="matrix(1.00, 0.00, -0.00, -1.00, 210.0, 111.0)"> </text><text xml:space="preserve" font-family="Sonus-Bold" font-weight="bold" font-size="22.0" fill="#000000" transform="matrix(1.00, 0.00, -0.00, -1.00, 214.7, 111.0)">t</text><text xml:space="preserve" font-family="Sonus-Bold" font-weight="bold" font-size="22.0" fill="#000000" transform="matrix(1.00, 0.00, -0.00, -1.00, 222.9, 111.0)">h</text><text xml:space="preserve" font-family="Sonus-Bold" font-weight="bold" font-size="22.0" fill="#000000" transform="matrix(1.00, 0.00, -0.00, -1.00, 236.0, 111.0)">e</text><text xml:space="preserve" font-family="Sonus-Bold" font-weight="bold" font-size="22.0" fill="#000000" transform="matrix(1.00, 0.00, -0.00, -1.00, 247.6, 111.0)">y</text><text xml:space="preserve" font-family="Sonus-Bold" font-weight="bold" font-size="22.0" fill="#000000" transform="matrix(1.00, 0.00, -0.00, -1.00, 259.6, 111.0)"> </text><text xml:space="preserve" font-family="Sonus-Bold" font-weight="bold" font-size="22.0" fill="#000000" transform="matrix(1.00, 0.00, -0.00, -1.00, 264.3, 111.0)">a</text><text xml:space="preserve" font-family="Sonus-Bold" font-weight="bold" font-size="22.0" fill="#000000" transform="matrix(1.00, 0.00, -0.00, -1.00, 276.1, 111.0)">r</text><text xml:space="preserve" font-family="Sonus-Bold" font-weight="bold" font-size="22.0" fill="#000000" transform="matrix(1.00, 0.00, -0.00, -1.00, 284.4, 111.0)">e</text><text xml:space="preserve" font-family="Sonus-Bold" font-weight="bold" font-size="22.0" fill="#000000" transform="matrix(1.00, 0.00, -0.00, -1.00, 296.1, 111.0)"> </text><text xml:space="preserve" font-family="Sonus-Bold" font-weight="bold" font-size="22.0" fill="#000000" transform="matrix(1.00, 0.00, -0.00, -1.00, 300.9, 111.0)">p</text><text xml:space="preserve" font-family="Sonus-Bold" font-weight="bold" font-size="22.0" fill="#000000" transform="matrix(1.00, 0.00, -0.00, -1.00, 314.0, 111.0)">r</text><text xml:space="preserve" font-family="Sonus-Bold" font-weight="bold" font-size="22.0" fill="#000000" transform="matrix(1.00, 0.00, -0.00, -1.00, 322.5, 111.0)">i</text><text xml:space="preserve" font-family="Sonus-Bold" font-weight="bold" font-size="22.0" fill="#000000" transform="matrix(1.00, 0.00, -0.00, -1.00, 328.7, 111.0)">m</text><text xml:space="preserve" font-family="Sonus-Bold" font-weight="bold" font-size="22.0" fill="#000000" transform="matrix(1.00, 0.00, -0.00, -1.00, 348.5, 111.0)">e</text><text xml:space="preserve" font-family="Sonus-Bold" font-weight="bold" font-size="22.0" fill="#000000" transform="matrix(1.00, 0.00, -0.00, -1.00, 360.2, 111.0)">d</text><text xml:space="preserve" font-family="Sonus-Bold" font-weight="bold" font-size="22.0" fill="#000000" transform="matrix(1.00, 0.00, -0.00, -1.00, 373.4, 111.0)"> </text><text xml:space="preserve" font-family="Sonus-Bold" font-weight="bold" font-size="22.0" fill="#000000" transform="matrix(1.00, 0.00, -0.00, -1.00, 378.2, 111.0)">t</text><text xml:space="preserve" font-family="Sonus-Bold" font-weight="bold" font-size="22.0" fill="#000000" transform="matrix(1.00, 0.00, -0.00, -1.00, 386.3, 111.0)">o</text><text xml:space="preserve" font-family="Sonus-Bold" font-weight="bold" font-size="22.0" fill="#000000" transform="matrix(1.00, 0.00, -0.00, -1.00, 399.1, 111.0)"> </text><text xml:space="preserve" font-family="Sonus-Bold" font-weight="bold" font-size="22.0" fill="#000000" transform="matrix(1.00, 0.00, -0.00, -1.00, 18.0, 81.0)">a</text><text xml:space="preserve" font-family="Sonus-Bold" font-weight="bold" font-size="22.0" fill="#000000" transform="matrix(1.00, 0.00, -0.00, -1.00, 29.8, 81.0)">c</text><text xml:space="preserve" font-family="Sonus-Bold" font-weight="bold" font-size="22.0" fill="#000000" transform="matrix(1.00, 0.00, -0.00, -1.00, 40.1, 81.0)">c</text><text xml:space="preserve" font-family="Sonus-Bold" font-weight="bold" font-size="22.0" fill="#000000" transform="matrix(1.00, 0.00, -0.00, -1.00, 50.4, 81.0)">e</text><text xml:space="preserve" font-family="Sonus-Bold" font-weight="bold" font-size="22.0" fill="#000000" transform="matrix(1.00, 0.00, -0.00, -1.00, 62.2, 81.0)">p</text><text xml:space="preserve" font-family="Sonus-Bold" font-weight="bold" font-size="22.0" fill="#000000" transform="matrix(1.00, 0.00, -0.00, -1.00, 75.4, 81.0)">t</text><text xml:space="preserve" font-family="Sonus-Bold" font-weight="bold" font-size="22.0" fill="#000000" transform="matrix(1.00, 0.00, -0.00, -1.00, 83.5, 81.0)"> </text><text xml:space="preserve" font-family="Sonus-Bold" font-weight="bold" font-size="22.0" fill="#000000" transform="matrix(1.00, 0.00, -0.00, -1.00, 88.3, 81.0)">a</text><text xml:space="preserve" font-family="Sonus-Bold" font-weight="bold" font-size="22.0" fill="#000000" transform="matrix(1.00, 0.00, -0.00, -1.00, 100.1, 81.0)">n</text><text xml:space="preserve" font-family="Sonus-Bold" font-weight="bold" font-size="22.0" fill="#000000" transform="matrix(1.00, 0.00, -0.00, -1.00, 113.1, 81.0)"> </text><text xml:space="preserve" font-family="Sonus-Bold" font-weight="bold" font-size="22.0" fill="#000000" transform="matrix(1.00, 0.00, -0.00, -1.00, 117.9, 81.0)">o</text><text xml:space="preserve" font-family="Sonus-Bold" font-weight="bold" font-size="22.0" fill="#000000" transform="matrix(1.00, 0.00, -0.00, -1.00, 130.7, 81.0)">ﬀ</text><text xml:space="preserve" font-family="Sonus-Bold" font-weight="bold" font-size="22.0" fill="#000000" transform="matrix(1.00, 0.00, -0.00, -1.00, 144.9, 81.0)">e</text><text xml:space="preserve" font-family="Sonus-Bold" font-weight="bold" font-size="22.0" fill="#000000" transform="matrix(1.00, 0.00, -0.00, -1.00, 156.6, 81.0)">r</text><text xml:space="preserve" font-family="Sonus-Bold" font-weight="bold" font-size="22.0" fill="#000000" transform="matrix(1.00, 0.00, -0.00, -1.00, 165.3, 81.0)"> </text><text xml:space="preserve" font-family="Sonus" font-size="13.5" fill="#EF6823" transform="matrix(1.00, 0.00, -0.00, -1.00, 0.4, 55.8)">•</text><text xml:space="preserve" font-family="Sonus" font-size="18.0" fill="#5D5D5D" transform="matrix(1.00, 0.00, -0.00, -1.00, 27.0, 55.0)">P</text><text xml:space="preserve" font-family="Sonus" font-size="18.0" fill="#5D5D5D" transform="matrix(1.00, 0.00, -0.00, -1.00, 37.3, 55.0)">r</text><text xml:space="preserve" font-family="Sonus" font-size="18.0" fill="#5D5D5D" transform="matrix(1.00, 0.00, -0.00, -1.00, 43.4, 55.0)">o</text><text xml:space="preserve" font-family="Sonus" font-size="18.0" fill="#5D5D5D" transform="matrix(1.00, 0.00, -0.00, -1.00, 53.4, 55.0)">v</text><text xml:space="preserve" font-family="Sonus" font-size="18.0" fill="#5D5D5D" transform="matrix(1.00, 0.00, -0.00, -1.00, 61.9, 55.0)">i</text><text xml:space="preserve" font-family="Sonus" font-size="18.0" fill="#5D5D5D" transform="matrix(1.00, 0.00, -0.00, -1.00, 66.3, 55.0)">d</text><text xml:space="preserve" font-family="Sonus" font-size="18.0" fill="#5D5D5D" transform="matrix(1.00, 0.00, -0.00, -1.00, 76.4, 55.0)">e</text><text xml:space="preserve" font-family="Sonus" font-size="18.0" fill="#5D5D5D" transform="matrix(1.00, 0.00, -0.00, -1.00, 85.7, 55.0)"> </text><text xml:space="preserve" font-family="Sonus" font-size="18.0" fill="#5D5D5D" transform="matrix(1.00, 0.00, -0.00, -1.00, 89.5, 55.0)">p</text><text xml:space="preserve" font-family="Sonus" font-size="18.0" fill="#5D5D5D" transform="matrix(1.00, 0.00, -0.00, -1.00, 99.7, 55.0)">r</text><text xml:space="preserve" font-family="Sonus" font-size="18.0" fill="#5D5D5D" transform="matrix(1.00, 0.00, -0.00, -1.00, 105.9, 55.0)">o</text><text xml:space="preserve" font-family="Sonus" font-size="18.0" fill="#5D5D5D" transform="matrix(1.00, 0.00, -0.00, -1.00, 115.8, 55.0)">f</text><text xml:space="preserve" font-family="Sonus" font-size="18.0" fill="#5D5D5D" transform="matrix(1.00, 0.00, -0.00, -1.00, 121.6, 55.0)">e</text><text xml:space="preserve" font-family="Sonus" font-size="18.0" fill="#5D5D5D" transform="matrix(1.00, 0.00, -0.00, -1.00, 130.8, 55.0)">s</text><text xml:space="preserve" font-family="Sonus" font-size="18.0" fill="#5D5D5D" transform="matrix(1.00, 0.00, -0.00, -1.00, 138.2, 55.0)">s</text><text xml:space="preserve" font-family="Sonus" font-size="18.0" fill="#5D5D5D" transform="matrix(1.00, 0.00, -0.00, -1.00, 145.7, 55.0)">i</text><text xml:space="preserve" font-family="Sonus" font-size="18.0" fill="#5D5D5D" transform="matrix(1.00, 0.00, -0.00, -1.00, 150.1, 55.0)">o</text><text xml:space="preserve" font-family="Sonus" font-size="18.0" fill="#5D5D5D" transform="matrix(1.00, 0.00, -0.00, -1.00, 160.0, 55.0)">n</text><text xml:space="preserve" font-family="Sonus" font-size="18.0" fill="#5D5D5D" transform="matrix(1.00, 0.00, -0.00, -1.00, 170.2, 55.0)">a</text><text xml:space="preserve" font-family="Sonus" font-size="18.0" fill="#5D5D5D" transform="matrix(1.00, 0.00, -0.00, -1.00, 179.4, 55.0)">l</text><text xml:space="preserve" font-family="Sonus" font-size="18.0" fill="#5D5D5D" transform="matrix(1.00, 0.00, -0.00, -1.00, 183.8, 55.0)"> </text><text xml:space="preserve" font-family="Sonus" font-size="18.0" fill="#5D5D5D" transform="matrix(1.00, 0.00, -0.00, -1.00, 187.7, 55.0)">g</text><text xml:space="preserve" font-family="Sonus" font-size="18.0" fill="#5D5D5D" transform="matrix(1.00, 0.00, -0.00, -1.00, 196.9, 55.0)">r</text><text xml:space="preserve" font-family="Sonus" font-size="18.0" fill="#5D5D5D" transform="matrix(1.00, 0.00, -0.00, -1.00, 203.0, 55.0)">o</text><text xml:space="preserve" font-family="Sonus" font-size="18.0" fill="#5D5D5D" transform="matrix(1.00, 0.00, -0.00, -1.00, 213.1, 55.0)">w</text><text xml:space="preserve" font-family="Sonus" font-size="18.0" fill="#5D5D5D" transform="matrix(1.00, 0.00, -0.00, -1.00, 226.0, 55.0)">t</text><text xml:space="preserve" font-family="Sonus" font-size="18.0" fill="#5D5D5D" transform="matrix(1.00, 0.00, -0.00, -1.00, 232.1, 55.0)">h</text><text xml:space="preserve" font-family="Sonus" font-size="18.0" fill="#5D5D5D" transform="matrix(1.00, 0.00, -0.00, -1.00, 242.4, 55.0)"> </text><text xml:space="preserve" font-family="Sonus" font-size="18.0" fill="#5D5D5D" transform="matrix(1.00, 0.00, -0.00, -1.00, 246.3, 55.0)">a</text><text xml:space="preserve" font-family="Sonus" font-size="18.0" fill="#5D5D5D" transform="matrix(1.00, 0.00, -0.00, -1.00, 255.5, 55.0)">n</text><text xml:space="preserve" font-family="Sonus" font-size="18.0" fill="#5D5D5D" transform="matrix(1.00, 0.00, -0.00, -1.00, 265.7, 55.0)">d</text><text xml:space="preserve" font-family="Sonus" font-size="18.0" fill="#5D5D5D" transform="matrix(1.00, 0.00, -0.00, -1.00, 275.9, 55.0)"> </text><text xml:space="preserve" font-family="Sonus" font-size="18.0" fill="#5D5D5D" transform="matrix(1.00, 0.00, -0.00, -1.00, 279.8, 55.0)">d</text><text xml:space="preserve" font-family="Sonus" font-size="18.0" fill="#5D5D5D" transform="matrix(1.00, 0.00, -0.00, -1.00, 289.9, 55.0)">e</text><text xml:space="preserve" font-family="Sonus" font-size="18.0" fill="#5D5D5D" transform="matrix(1.00, 0.00, -0.00, -1.00, 299.2, 55.0)">v</text><text xml:space="preserve" font-family="Sonus" font-size="18.0" fill="#5D5D5D" transform="matrix(1.00, 0.00, -0.00, -1.00, 307.7, 55.0)">e</text><text xml:space="preserve" font-family="Sonus" font-size="18.0" fill="#5D5D5D" transform="matrix(1.00, 0.00, -0.00, -1.00, 316.9, 55.0)">l</text><text xml:space="preserve" font-family="Sonus" font-size="18.0" fill="#5D5D5D" transform="matrix(1.00, 0.00, -0.00, -1.00, 321.3, 55.0)">o</text><text xml:space="preserve" font-family="Sonus" font-size="18.0" fill="#5D5D5D" transform="matrix(1.00, 0.00, -0.00, -1.00, 331.2, 55.0)">p</text><text xml:space="preserve" font-family="Sonus" font-size="18.0" fill="#5D5D5D" transform="matrix(1.00, 0.00, -0.00, -1.00, 341.4, 55.0)">m</text><text xml:space="preserve" font-family="Sonus" font-size="18.0" fill="#5D5D5D" transform="matrix(1.00, 0.00, -0.00, -1.00, 357.2, 55.0)">e</text><text xml:space="preserve" font-family="Sonus" font-size="18.0" fill="#5D5D5D" transform="matrix(1.00, 0.00, -0.00, -1.00, 366.4, 55.0)">n</text><text xml:space="preserve" font-family="Sonus" font-size="18.0" fill="#5D5D5D" transform="matrix(1.00, 0.00, -0.00, -1.00, 376.6, 55.0)">t</text><text xml:space="preserve" font-family="Sonus" font-size="18.0" fill="#5D5D5D" transform="matrix(1.00, 0.00, -0.00, -1.00, 382.7, 55.0)"> </text><text xml:space="preserve" font-family="Sonus" font-size="13.5" fill="#EF6823" transform="matrix(1.00, 0.00, -0.00, -1.00, 0.4, 31.8)">•</text><text xml:space="preserve" font-family="Sonus" font-size="18.0" fill="#5D5D5D" transform="matrix(1.00, 0.00, -0.00, -1.00, 27.0, 31.0)">S</text><text xml:space="preserve" font-family="Sonus" font-size="18.0" fill="#5D5D5D" transform="matrix(1.00, 0.00, -0.00, -1.00, 36.4, 31.0)">h</text><text xml:space="preserve" font-family="Sonus" font-size="18.0" fill="#5D5D5D" transform="matrix(1.00, 0.00, -0.00, -1.00, 46.7, 31.0)">o</text><text xml:space="preserve" font-family="Sonus" font-size="18.0" fill="#5D5D5D" transform="matrix(1.00, 0.00, -0.00, -1.00, 56.8, 31.0)">w</text><text xml:space="preserve" font-family="Sonus" font-size="18.0" fill="#5D5D5D" transform="matrix(1.00, 0.00, -0.00, -1.00, 69.7, 31.0)"> </text><text xml:space="preserve" font-family="Sonus" font-size="18.0" fill="#5D5D5D" transform="matrix(1.00, 0.00, -0.00, -1.00, 73.6, 31.0)">b</text><text xml:space="preserve" font-family="Sonus" font-size="18.0" fill="#5D5D5D" transform="matrix(1.00, 0.00, -0.00, -1.00, 83.8, 31.0)">e</text><text xml:space="preserve" font-family="Sonus" font-size="18.0" fill="#5D5D5D" transform="matrix(1.00, 0.00, -0.00, -1.00, 93.0, 31.0)">n</text><text xml:space="preserve" font-family="Sonus" font-size="18.0" fill="#5D5D5D" transform="matrix(1.00, 0.00, -0.00, -1.00, 103.2, 31.0)">e</text><text xml:space="preserve" font-family="Sonus" font-size="18.0" fill="#5D5D5D" transform="matrix(1.00, 0.00, -0.00, -1.00, 112.4, 31.0)">ﬁ</text><text xml:space="preserve" font-family="Sonus" font-size="18.0" fill="#5D5D5D" transform="matrix(1.00, 0.00, -0.00, -1.00, 122.3, 31.0)">t</text><text xml:space="preserve" font-family="Sonus" font-size="18.0" fill="#5D5D5D" transform="matrix(1.00, 0.00, -0.00, -1.00, 128.5, 31.0)">s</text><text xml:space="preserve" font-family="Sonus" font-size="18.0" fill="#5D5D5D" transform="matrix(1.00, 0.00, -0.00, -1.00, 136.0, 31.0)"> </text><text xml:space="preserve" font-family="Sonus" font-size="13.5" fill="#EF6823" transform="matrix(1.00, 0.00, -0.00, -1.00, 0.4, 7.8)">•</text><text xml:space="preserve" font-family="Sonus" font-size="18.0" fill="#5D5D5D" transform="matrix(1.00, 0.00, -0.00, -1.00, 27.0, 7.0)">S</text><text xml:space="preserve" font-family="Sonus" font-size="18.0" fill="#5D5D5D" transform="matrix(1.00, 0.00, -0.00, -1.00, 36.4, 7.0)">h</text><text xml:space="preserve" font-family="Sonus" font-size="18.0" fill="#5D5D5D" transform="matrix(1.00, 0.00, -0.00, -1.00, 46.7, 7.0)">o</text><text xml:space="preserve" font-family="Sonus" font-size="18.0" fill="#5D5D5D" transform="matrix(1.00, 0.00, -0.00, -1.00, 56.8, 7.0)">w</text><text xml:space="preserve" font-family="Sonus" font-size="18.0" fill="#5D5D5D" transform="matrix(1.00, 0.00, -0.00, -1.00, 69.7, 7.0)"> </text><text xml:space="preserve" font-family="Sonus" font-size="18.0" fill="#5D5D5D" transform="matrix(1.00, 0.00, -0.00, -1.00, 73.6, 7.0)">t</text><text xml:space="preserve" font-family="Sonus" font-size="18.0" fill="#5D5D5D" transform="matrix(1.00, 0.00, -0.00, -1.00, 79.7, 7.0)">h</text><text xml:space="preserve" font-family="Sonus" font-size="18.0" fill="#5D5D5D" transform="matrix(1.00, 0.00, -0.00, -1.00, 90.0, 7.0)">e</text><text xml:space="preserve" font-family="Sonus" font-size="18.0" fill="#5D5D5D" transform="matrix(1.00, 0.00, -0.00, -1.00, 99.2, 7.0)"> </text><text xml:space="preserve" font-family="Sonus" font-size="18.0" fill="#5D5D5D" transform="matrix(1.00, 0.00, -0.00, -1.00, 103.1, 7.0)">d</text><text xml:space="preserve" font-family="Sonus" font-size="18.0" fill="#5D5D5D" transform="matrix(1.00, 0.00, -0.00, -1.00, 113.3, 7.0)">a</text><text xml:space="preserve" font-family="Sonus" font-size="18.0" fill="#5D5D5D" transform="matrix(1.00, 0.00, -0.00, -1.00, 122.4, 7.0)">y</text><text xml:space="preserve" font-family="Sonus" font-size="18.0" fill="#5D5D5D" transform="matrix(1.00, 0.00, -0.00, -1.00, 131.0, 7.0)">-</text><text xml:space="preserve" font-family="Sonus" font-size="18.0" fill="#5D5D5D" transform="matrix(1.00, 0.00, -0.00, -1.00, 136.5, 7.0)">t</text><text xml:space="preserve" font-family="Sonus" font-size="18.0" fill="#5D5D5D" transform="matrix(1.00, 0.00, -0.00, -1.00, 142.6, 7.0)">o</text><text xml:space="preserve" font-family="Sonus" font-size="18.0" fill="#5D5D5D" transform="matrix(1.00, 0.00, -0.00, -1.00, 152.5, 7.0)">-</text><text xml:space="preserve" font-family="Sonus" font-size="18.0" fill="#5D5D5D" transform="matrix(1.00, 0.00, -0.00, -1.00, 158.0, 7.0)">d</text><text xml:space="preserve" font-family="Sonus" font-size="18.0" fill="#5D5D5D" transform="matrix(1.00, 0.00, -0.00, -1.00, 168.2, 7.0)">a</text><text xml:space="preserve" font-family="Sonus" font-size="18.0" fill="#5D5D5D" transform="matrix(1.00, 0.00, -0.00, -1.00, 177.3, 7.0)">y</text><text xml:space="preserve" font-family="Sonus" font-size="18.0" fill="#5D5D5D" transform="matrix(1.00, 0.00, -0.00, -1.00, 185.9, 7.0)"> </text><text xml:space="preserve" font-family="Sonus" font-size="18.0" fill="#5D5D5D" transform="matrix(1.00, 0.00, -0.00, -1.00, 189.8, 7.0)">o</text><text xml:space="preserve" font-family="Sonus" font-size="18.0" fill="#5D5D5D" transform="matrix(1.00, 0.00, -0.00, -1.00, 199.7, 7.0)">f</text><text xml:space="preserve" font-family="Sonus" font-size="18.0" fill="#5D5D5D" transform="matrix(1.00, 0.00, -0.00, -1.00, 206.0, 7.0)"> </text><text xml:space="preserve" font-family="Sonus" font-size="18.0" fill="#5D5D5D" transform="matrix(1.00, 0.00, -0.00, -1.00, 209.9, 7.0)">r</text><text xml:space="preserve" font-family="Sonus" font-size="18.0" fill="#5D5D5D" transform="matrix(1.00, 0.00, -0.00, -1.00, 216.1, 7.0)">o</text><text xml:space="preserve" font-family="Sonus" font-size="18.0" fill="#5D5D5D" transform="matrix(1.00, 0.00, -0.00, -1.00, 226.0, 7.0)">l</text><text xml:space="preserve" font-family="Sonus" font-size="18.0" fill="#5D5D5D" transform="matrix(1.00, 0.00, -0.00, -1.00, 230.4, 7.0)">e</text><text xml:space="preserve" font-family="Sonus" font-size="18.0" fill="#5D5D5D" transform="matrix(1.00, 0.00, -0.00, -1.00, 239.6, 7.0)">s</text><text xml:space="preserve" font-family="Sonus" font-size="18.0" fill="#5D5D5D" transform="matrix(1.00, 0.00, -0.00, -1.00, 247.0, 7.0)"> </text><text xml:space="preserve" font-family="Sonus" font-size="18.0" fill="#5D5D5D" transform="matrix(1.00, 0.00, -0.00, -1.00, 250.9, 7.0)">a</text><text xml:space="preserve" font-family="Sonus" font-size="18.0" fill="#5D5D5D" transform="matrix(1.00, 0.00, -0.00, -1.00, 260.1, 7.0)">t</text><text xml:space="preserve" font-family="Sonus" font-size="18.0" fill="#5D5D5D" transform="matrix(1.00, 0.00, -0.00, -1.00, 266.2, 7.0)"> </text><text xml:space="preserve" font-family="Sonus" font-size="18.0" fill="#5D5D5D" transform="matrix(1.00, 0.00, -0.00, -1.00, 270.1, 7.0)">t</text><text xml:space="preserve" font-family="Sonus" font-size="18.0" fill="#5D5D5D" transform="matrix(1.00, 0.00, -0.00, -1.00, 276.2, 7.0)">h</text><text xml:space="preserve" font-family="Sonus" font-size="18.0" fill="#5D5D5D" transform="matrix(1.00, 0.00, -0.00, -1.00, 286.5, 7.0)">e</text><text xml:space="preserve" font-family="Sonus" font-size="18.0" fill="#5D5D5D" transform="matrix(1.00, 0.00, -0.00, -1.00, 295.7, 7.0)"> </text><text xml:space="preserve" font-family="Sonus" font-size="18.0" fill="#5D5D5D" transform="matrix(1.00, 0.00, -0.00, -1.00, 299.6, 7.0)">c</text><text xml:space="preserve" font-family="Sonus" font-size="18.0" fill="#5D5D5D" transform="matrix(1.00, 0.00, -0.00, -1.00, 307.8, 7.0)">o</text><text xml:space="preserve" font-family="Sonus" font-size="18.0" fill="#5D5D5D" transform="matrix(1.00, 0.00, -0.00, -1.00, 317.7, 7.0)">m</text><text xml:space="preserve" font-family="Sonus" font-size="18.0" fill="#5D5D5D" transform="matrix(1.00, 0.00, -0.00, -1.00, 333.5, 7.0)">p</text><text xml:space="preserve" font-family="Sonus" font-size="18.0" fill="#5D5D5D" transform="matrix(1.00, 0.00, -0.00, -1.00, 343.7, 7.0)">a</text><text xml:space="preserve" font-family="Sonus" font-size="18.0" fill="#5D5D5D" transform="matrix(1.00, 0.00, -0.00, -1.00, 352.9, 7.0)">n</text><text xml:space="preserve" font-family="Sonus" font-size="18.0" fill="#5D5D5D" transform="matrix(1.00, 0.00, -0.00, -1.00, 363.0, 7.0)">y</text></g></svg>