<?xml version="1.0" encoding="UTF-8" standalone="no"?><svg xmlns="http://www.w3.org/2000/svg" xmlns:xlink="http://www.w3.org/1999/xlink" clip-rule="evenodd" stroke-miterlimit="4.00" viewBox="0 0 118 17"><desc>SVG generated by Keynote</desc><defs></defs><g transform="matrix(1.00, 0.00, -0.00, -1.00, 0.0, 17.0)"><text xml:space="preserve" font-family="AkkuratStd-Bold" font-weight="bold" font-size="14.0" fill="#52575F" transform="matrix(1.00, 0.00, -0.00, -1.00, 2.0, 5.0)">t</text><text xml:space="preserve" font-family="AkkuratStd-Bold" font-weight="bold" font-size="14.0" fill="#52575F" transform="matrix(1.00, 0.00, -0.00, -1.00, 7.5, 5.0)">o</text><text xml:space="preserve" font-family="AkkuratStd-Bold" font-weight="bold" font-size="14.0" fill="#52575F" transform="matrix(1.00, 0.00, -0.00, -1.00, 15.4, 5.0)"> </text><text xml:space="preserve" font-family="AkkuratStd-Bold" font-weight="bold" font-size="14.0" fill="#52575F" transform="matrix(1.00, 0.00, -0.00, -1.00, 18.4, 5.0)">a</text><text xml:space="preserve" font-family="AkkuratStd-Bold" font-weight="bold" font-size="14.0" fill="#52575F" transform="matrix(1.00, 0.00, -0.00, -1.00, 26.2, 5.0)">c</text><text xml:space="preserve" font-family="AkkuratStd-Bold" font-weight="bold" font-size="14.0" fill="#52575F" transform="matrix(1.00, 0.00, -0.00, -1.00, 33.7, 5.0)">c</text><text xml:space="preserve" font-family="AkkuratStd-Bold" font-weight="bold" font-size="14.0" fill="#52575F" transform="matrix(1.00, 0.00, -0.00, -1.00, 41.1, 5.0)">e</text><text xml:space="preserve" font-family="AkkuratStd-Bold" font-weight="bold" font-size="14.0" fill="#52575F" transform="matrix(1.00, 0.00, -0.00, -1.00, 48.9, 5.0)">p</text><text xml:space="preserve" font-family="AkkuratStd-Bold" font-weight="bold" font-size="14.0" fill="#52575F" transform="matrix(1.00, 0.00, -0.00, -1.00, 57.2, 5.0)">t</text><text xml:space="preserve" font-family="AkkuratStd-Bold" font-weight="bold" font-size="14.0" fill="#52575F" transform="matrix(1.00, 0.00, -0.00, -1.00, 62.8, 5.0)"> </text><text xml:space="preserve" font-family="AkkuratStd-Bold" font-weight="bold" font-size="14.0" fill="#52575F" transform="matrix(1.00, 0.00, -0.00, -1.00, 65.8, 5.0)">a</text><text xml:space="preserve" font-family="AkkuratStd-Bold" font-weight="bold" font-size="14.0" fill="#52575F" transform="matrix(1.00, 0.00, -0.00, -1.00, 73.6, 5.0)">n</text><text xml:space="preserve" font-family="AkkuratStd-Bold" font-weight="bold" font-size="14.0" fill="#52575F" transform="matrix(1.00, 0.00, -0.00, -1.00, 81.9, 5.0)"> </text><text xml:space="preserve" font-family="AkkuratStd-Bold" font-weight="bold" font-size="14.0" fill="#52575F" transform="matrix(1.00, 0.00, -0.00, -1.00, 84.8, 5.0)">o</text><text xml:space="preserve" font-family="AkkuratStd-Bold" font-weight="bold" font-size="14.0" fill="#52575F" transform="matrix(1.00, 0.00, -0.00, -1.00, 92.7, 5.0)">f</text><text xml:space="preserve" font-family="AkkuratStd-Bold" font-weight="bold" font-size="14.0" fill="#52575F" transform="matrix(1.00, 0.00, -0.00, -1.00, 98.1, 5.0)">f</text><text xml:space="preserve" font-family="AkkuratStd-Bold" font-weight="bold" font-size="14.0" fill="#52575F" transform="matrix(1.00, 0.00, -0.00, -1.00, 103.3, 5.0)">e</text><text xml:space="preserve" font-family="AkkuratStd-Bold" font-weight="bold" font-size="14.0" fill="#52575F" transform="matrix(1.00, 0.00, -0.00, -1.00, 111.1, 5.0)">r</text></g></svg>