<?xml version="1.0" encoding="utf-8"?>
<!-- Generator: Adobe Illustrator 19.2.1, SVG Export Plug-In . SVG Version: 6.00 Build 0)  -->
<svg version="1.1" id="Layer_1" xmlns="http://www.w3.org/2000/svg" xmlns:xlink="http://www.w3.org/1999/xlink" x="0px" y="0px"
	 viewBox="0 0 560 560" style="enable-background:new 0 0 560 560;" xml:space="preserve">
<style type="text/css">
	.st0{fill:url(#SVGID_1_);}
</style>
<linearGradient id="SVGID_1_" gradientUnits="userSpaceOnUse" x1="119.0898" y1="124.3392" x2="440.9101" y2="446.1595">
	<stop  offset="0" style="stop-color:#37F6E1"/>
	<stop  offset="1" style="stop-color:#409CF9"/>
</linearGradient>
<path class="st0" d="M505.6,303.5v5h-335v-5H505.6z M344.6,229v5h-285v-5H344.6z M279.5,512.8c-44.9,0-88.7-13.3-126.7-39
	c-50.4-34-84.5-85.5-96.1-145.2C45.1,269,57.4,208.4,91.4,158c34-50.4,85.5-84.5,145.2-96.1c59.6-11.6,120.2,0.7,170.6,34.7
	c50.4,34,84.5,85.5,96.1,145.2c11.6,59.6-0.7,120.2-34.7,170.6c-34,50.4-85.5,84.5-145.2,96.1C308.8,511.4,294.1,512.8,279.5,512.8z
	 M237.5,66.8c-58.3,11.3-108.8,44.7-142,94c-33.2,49.3-45.3,108.5-34,166.9c11.3,58.3,44.7,108.8,94,142
	c37.2,25.1,80.1,38.1,124,38.1c14.3,0,28.6-1.4,42.9-4.2c58.3-11.3,108.8-44.7,142-94s45.3-108.5,34-166.9
	c-11.3-58.3-44.7-108.8-94-142C355.1,67.6,295.9,55.5,237.5,66.8L237.5,66.8z M435,382.9H125l155.3-270.6L435,382.9z M133.6,377.9
	h292.8L280.3,122.3L133.6,377.9z"/>
</svg>
