<svg xmlns="http://www.w3.org/2000/svg"><symbol id="icon_close" viewBox="0 0 100 100"><path stroke="#fff" stroke-width=".750045" stroke-miterlimit="10" d="M.087 99.77l-.212-.214L100-.018l.212.213z"/><path stroke="#fff" stroke-width=".7499925000000001" stroke-miterlimit="10" d="M99.932 99.898L.09.056.3-.156l99.842 99.842z"/></symbol><symbol id="icon_info" viewBox="0 0 100 100"><path fill="currentColor" stroke="#000" stroke-width="15" stroke-miterlimit="10" d="M7.5 31.1l43.7 43.7 41.7-41.7"/></symbol><symbol id="icon_menu" viewBox="0 0 100 100"><path fill="currentColor" d="M.1 40.8h100v18.6H.1zM.1 76.8h100v18.6H.1zM.1 4.7h100v18.6H.1z"/></symbol><symbol id="icon_projects" viewBox="0 0 100 100"><path fill="currentColor" d="M4.7 5.7h22v22h-22zM39 5.7h22v22H39zM73.3 5.7h22v22h-22zM4.7 40h22v22h-22zM39 40h22v22H39zM73.3 40h22v22h-22zM4.7 74.3h22v22h-22zM39 74.3h22v22H39zM73.3 74.3h22v22h-22z"/></symbol></svg>