<?xml version="1.0" encoding="UTF-8" standalone="no"?><svg xmlns="http://www.w3.org/2000/svg" xmlns:xlink="http://www.w3.org/1999/xlink" clip-rule="evenodd" stroke-miterlimit="4.00" viewBox="0 0 1280 720"><desc>SVG generated by Keynote</desc><defs></defs><g transform="matrix(1.00, 0.00, -0.00, -1.00, 0.0, 720.0)"><path d="M 0.0 720.0 L 1280.0 720.0 L 1280.0 0.0 L 0.0 0.0 Z M 0.0 720.0 " fill="#FEFFFE"></path><text xml:space="preserve" font-family="Sonus" font-size="20.0" fill="#52575F" transform="matrix(1.00, 0.00, -0.00, -1.00, 69.0, 625.0)">I</text><text xml:space="preserve" font-family="Sonus" font-size="20.0" fill="#52575F" transform="matrix(1.00, 0.00, -0.00, -1.00, 74.2, 625.0)">n</text><text xml:space="preserve" font-family="Sonus" font-size="20.0" fill="#52575F" transform="matrix(1.00, 0.00, -0.00, -1.00, 85.6, 625.0)">s</text><text xml:space="preserve" font-family="Sonus" font-size="20.0" fill="#52575F" transform="matrix(1.00, 0.00, -0.00, -1.00, 93.9, 625.0)">p</text><text xml:space="preserve" font-family="Sonus" font-size="20.0" fill="#52575F" transform="matrix(1.00, 0.00, -0.00, -1.00, 105.2, 625.0)">i</text><text xml:space="preserve" font-family="Sonus" font-size="20.0" fill="#52575F" transform="matrix(1.00, 0.00, -0.00, -1.00, 110.1, 625.0)">r</text><text xml:space="preserve" font-family="Sonus" font-size="20.0" fill="#52575F" transform="matrix(1.00, 0.00, -0.00, -1.00, 116.9, 625.0)">e</text><text xml:space="preserve" font-family="Sonus" font-size="20.0" fill="#52575F" transform="matrix(1.00, 0.00, -0.00, -1.00, 127.1, 625.0)"> </text><text xml:space="preserve" font-family="Sonus" font-size="20.0" fill="#52575F" transform="matrix(1.00, 0.00, -0.00, -1.00, 131.4, 625.0)">c</text><text xml:space="preserve" font-family="Sonus" font-size="20.0" fill="#52575F" transform="matrix(1.00, 0.00, -0.00, -1.00, 140.7, 625.0)">a</text><text xml:space="preserve" font-family="Sonus" font-size="20.0" fill="#52575F" transform="matrix(1.00, 0.00, -0.00, -1.00, 150.9, 625.0)">n</text><text xml:space="preserve" font-family="Sonus" font-size="20.0" fill="#52575F" transform="matrix(1.00, 0.00, -0.00, -1.00, 162.2, 625.0)">d</text><text xml:space="preserve" font-family="Sonus" font-size="20.0" fill="#52575F" transform="matrix(1.00, 0.00, -0.00, -1.00, 173.5, 625.0)">i</text><text xml:space="preserve" font-family="Sonus" font-size="20.0" fill="#52575F" transform="matrix(1.00, 0.00, -0.00, -1.00, 178.4, 625.0)">d</text><text xml:space="preserve" font-family="Sonus" font-size="20.0" fill="#52575F" transform="matrix(1.00, 0.00, -0.00, -1.00, 189.7, 625.0)">a</text><text xml:space="preserve" font-family="Sonus" font-size="20.0" fill="#52575F" transform="matrix(1.00, 0.00, -0.00, -1.00, 199.9, 625.0)">t</text><text xml:space="preserve" font-family="Sonus" font-size="20.0" fill="#52575F" transform="matrix(1.00, 0.00, -0.00, -1.00, 206.7, 625.0)">e</text><text xml:space="preserve" font-family="Sonus" font-size="20.0" fill="#52575F" transform="matrix(1.00, 0.00, -0.00, -1.00, 216.9, 625.0)">s</text><text xml:space="preserve" font-family="Sonus" font-size="20.0" fill="#52575F" transform="matrix(1.00, 0.00, -0.00, -1.00, 225.2, 625.0)"> </text><text xml:space="preserve" font-family="Sonus" font-size="20.0" fill="#52575F" transform="matrix(1.00, 0.00, -0.00, -1.00, 229.5, 625.0)">s</text><text xml:space="preserve" font-family="Sonus" font-size="20.0" fill="#52575F" transform="matrix(1.00, 0.00, -0.00, -1.00, 238.0, 625.0)">o</text><text xml:space="preserve" font-family="Sonus" font-size="20.0" fill="#52575F" transform="matrix(1.00, 0.00, -0.00, -1.00, 249.0, 625.0)"> </text><text xml:space="preserve" font-family="Sonus" font-size="20.0" fill="#52575F" transform="matrix(1.00, 0.00, -0.00, -1.00, 253.3, 625.0)">t</text><text xml:space="preserve" font-family="Sonus" font-size="20.0" fill="#52575F" transform="matrix(1.00, 0.00, -0.00, -1.00, 260.1, 625.0)">h</text><text xml:space="preserve" font-family="Sonus" font-size="20.0" fill="#52575F" transform="matrix(1.00, 0.00, -0.00, -1.00, 271.5, 625.0)">e</text><text xml:space="preserve" font-family="Sonus" font-size="20.0" fill="#52575F" transform="matrix(1.00, 0.00, -0.00, -1.00, 281.6, 625.0)">y</text><text xml:space="preserve" font-family="Sonus" font-size="20.0" fill="#52575F" transform="matrix(1.00, 0.00, -0.00, -1.00, 291.3, 625.0)"> </text><text xml:space="preserve" font-family="Sonus" font-size="20.0" fill="#52575F" transform="matrix(1.00, 0.00, -0.00, -1.00, 295.6, 625.0)">a</text><text xml:space="preserve" font-family="Sonus" font-size="20.0" fill="#52575F" transform="matrix(1.00, 0.00, -0.00, -1.00, 305.8, 625.0)">r</text><text xml:space="preserve" font-family="Sonus" font-size="20.0" fill="#52575F" transform="matrix(1.00, 0.00, -0.00, -1.00, 312.6, 625.0)">e</text><text xml:space="preserve" font-family="Sonus" font-size="20.0" fill="#52575F" transform="matrix(1.00, 0.00, -0.00, -1.00, 322.8, 625.0)"> </text><text xml:space="preserve" font-family="Sonus" font-size="20.0" fill="#52575F" transform="matrix(1.00, 0.00, -0.00, -1.00, 327.1, 625.0)">p</text><text xml:space="preserve" font-family="Sonus" font-size="20.0" fill="#52575F" transform="matrix(1.00, 0.00, -0.00, -1.00, 338.5, 625.0)">r</text><text xml:space="preserve" font-family="Sonus" font-size="20.0" fill="#52575F" transform="matrix(1.00, 0.00, -0.00, -1.00, 345.4, 625.0)">i</text><text xml:space="preserve" font-family="Sonus" font-size="20.0" fill="#52575F" transform="matrix(1.00, 0.00, -0.00, -1.00, 350.3, 625.0)">m</text><text xml:space="preserve" font-family="Sonus" font-size="20.0" fill="#52575F" transform="matrix(1.00, 0.00, -0.00, -1.00, 367.9, 625.0)">e</text><text xml:space="preserve" font-family="Sonus" font-size="20.0" fill="#52575F" transform="matrix(1.00, 0.00, -0.00, -1.00, 378.1, 625.0)">d</text><text xml:space="preserve" font-family="Sonus" font-size="20.0" fill="#52575F" transform="matrix(1.00, 0.00, -0.00, -1.00, 389.4, 625.0)"> </text><text xml:space="preserve" font-family="Sonus" font-size="20.0" fill="#52575F" transform="matrix(1.00, 0.00, -0.00, -1.00, 393.8, 625.0)">t</text><text xml:space="preserve" font-family="Sonus" font-size="20.0" fill="#52575F" transform="matrix(1.00, 0.00, -0.00, -1.00, 400.5, 625.0)">o</text><text xml:space="preserve" font-family="Sonus" font-size="20.0" fill="#52575F" transform="matrix(1.00, 0.00, -0.00, -1.00, 411.6, 625.0)"> </text><text xml:space="preserve" font-family="Sonus" font-size="20.0" fill="#52575F" transform="matrix(1.00, 0.00, -0.00, -1.00, 415.9, 625.0)">a</text><text xml:space="preserve" font-family="Sonus" font-size="20.0" fill="#52575F" transform="matrix(1.00, 0.00, -0.00, -1.00, 426.1, 625.0)">c</text><text xml:space="preserve" font-family="Sonus" font-size="20.0" fill="#52575F" transform="matrix(1.00, 0.00, -0.00, -1.00, 435.2, 625.0)">c</text><text xml:space="preserve" font-family="Sonus" font-size="20.0" fill="#52575F" transform="matrix(1.00, 0.00, -0.00, -1.00, 444.3, 625.0)">e</text><text xml:space="preserve" font-family="Sonus" font-size="20.0" fill="#52575F" transform="matrix(1.00, 0.00, -0.00, -1.00, 454.6, 625.0)">p</text><text xml:space="preserve" font-family="Sonus" font-size="20.0" fill="#52575F" transform="matrix(1.00, 0.00, -0.00, -1.00, 465.9, 625.0)">t</text><text xml:space="preserve" font-family="Sonus" font-size="20.0" fill="#52575F" transform="matrix(1.00, 0.00, -0.00, -1.00, 472.7, 625.0)"> </text><text xml:space="preserve" font-family="Sonus" font-size="20.0" fill="#52575F" transform="matrix(1.00, 0.00, -0.00, -1.00, 477.0, 625.0)">a</text><text xml:space="preserve" font-family="Sonus" font-size="20.0" fill="#52575F" transform="matrix(1.00, 0.00, -0.00, -1.00, 487.2, 625.0)">n</text><text xml:space="preserve" font-family="Sonus" font-size="20.0" fill="#52575F" transform="matrix(1.00, 0.00, -0.00, -1.00, 498.5, 625.0)"> </text><text xml:space="preserve" font-family="Sonus" font-size="20.0" fill="#52575F" transform="matrix(1.00, 0.00, -0.00, -1.00, 502.8, 625.0)">o</text><text xml:space="preserve" font-family="Sonus" font-size="20.0" fill="#52575F" transform="matrix(1.00, 0.00, -0.00, -1.00, 513.8, 625.0)">ﬀ</text><text xml:space="preserve" font-family="Sonus" font-size="20.0" fill="#52575F" transform="matrix(1.00, 0.00, -0.00, -1.00, 525.9, 625.0)">e</text><text xml:space="preserve" font-family="Sonus" font-size="20.0" fill="#52575F" transform="matrix(1.00, 0.00, -0.00, -1.00, 536.1, 625.0)">r</text><text xml:space="preserve" font-family="Sonus" font-size="20.0" fill="#52575F" transform="matrix(1.00, 0.00, -0.00, -1.00, 543.3, 625.0)"> </text><path d="M 70.0 721.0 L 1210.0 721.0 L 1210.0 703.5 L 70.0 703.5 Z M 70.0 721.0 " fill="#EF6823"></path><g><clipPath id="clip-19319"><path d="M 69.0 36.0 L 125.0 36.0 L 125.0 92.0 L 69.0 92.0 Z M 69.0 36.0 "></path></clipPath><g clip-path="url(#clip-19319)"><path d="M 94.7 81.9 C 84.8 80.6 77.8 71.6 79.1 61.7 C 80.4 51.8 89.4 44.8 99.3 46.1 C 109.2 47.4 116.2 56.4 114.9 66.3 C 113.6 76.2 104.6 83.2 94.7 81.9 M 106.4 67.3 L 103.5 57.8 C 102.1 53.4 105.0 54.6 105.0 54.6 C 105.0 54.6 104.5 52.9 102.1 52.9 C 100.5 52.9 99.6 54.0 99.8 56.1 C 99.8 56.1 99.8 56.3 99.8 56.3 C 99.9 56.9 100.4 58.5 100.4 58.5 C 100.5 58.8 102.6 65.9 102.6 65.9 C 103.0 67.1 103.4 68.2 103.4 68.6 C 103.3 68.9 103.1 69.0 102.9 69.0 C 102.3 69.0 101.3 68.4 100.4 67.2 L 97.3 57.5 L 93.9 57.5 L 96.7 65.9 C 97.1 67.1 97.4 68.2 97.4 68.6 C 97.4 68.9 97.2 69.0 96.9 69.0 C 96.3 69.0 95.4 68.4 94.5 67.3 L 91.3 57.5 L 88.7 57.5 L 88.1 57.5 C 88.1 57.5 87.7 57.5 88.0 57.9 C 88.1 58.0 88.2 58.2 88.3 58.4 C 89.8 61.3 91.9 69.2 91.9 69.2 C 88.9 68.2 86.4 67.6 86.5 66.1 C 86.5 65.6 86.8 65.3 87.1 65.2 C 87.3 65.1 87.5 64.9 87.1 64.8 C 85.9 64.6 83.8 64.3 83.7 66.0 C 83.4 69.1 92.0 70.4 92.8 72.4 C 92.9 72.6 93.0 72.6 93.0 72.6 C 93.0 72.6 94.4 72.6 94.6 72.6 C 95.0 72.6 95.8 72.4 95.2 70.9 L 94.8 69.8 C 96.0 71.5 98.0 72.4 99.0 72.4 C 100.2 72.4 100.9 71.4 101.0 70.4 C 102.3 71.7 103.9 72.4 105.0 72.4 C 106.3 72.4 106.9 71.3 107.0 70.1 C 107.0 69.4 106.8 68.5 106.4 67.3 " fill="#D2D1D1"></path><path d="M 124.3 57.8 C 124.7 59.4 124.9 61.1 125.0 62.8 L 120.8 64.5 L 120.2 69.5 L 123.8 72.3 C 123.3 73.9 122.6 75.5 121.9 76.9 L 117.3 76.4 L 114.3 80.4 L 116.1 84.6 C 114.8 85.7 113.5 86.7 112.1 87.6 L 108.4 84.9 L 103.8 86.8 L 103.2 91.3 C 101.6 91.7 99.9 91.9 98.2 92.0 L 96.5 87.8 L 91.5 87.2 L 88.7 90.8 C 87.1 90.3 85.5 89.6 84.1 88.9 L 84.6 84.3 L 80.6 81.3 L 76.5 83.0 C 75.3 81.8 74.3 80.5 73.4 79.1 L 76.1 75.4 L 74.2 70.8 L 69.7 70.2 C 69.3 68.6 69.1 66.9 69.0 65.2 L 73.2 63.5 L 73.8 58.5 L 70.2 55.7 C 70.7 54.1 71.4 52.5 72.1 51.1 L 76.7 51.6 L 79.7 47.6 L 77.9 43.5 C 79.2 42.3 80.5 41.3 81.9 40.4 L 85.6 43.1 L 90.2 41.2 L 90.8 36.7 C 92.4 36.3 94.1 36.1 95.8 36.0 L 97.5 40.2 L 102.5 40.8 L 105.3 37.2 C 106.9 37.7 108.5 38.4 109.9 39.1 L 109.4 43.7 L 113.4 46.7 L 117.5 45.0 C 118.7 46.2 119.7 47.5 120.6 48.9 L 117.9 52.6 L 119.8 57.2 Z M 99.7 42.9 C 88.1 41.4 77.4 49.7 75.9 61.3 C 74.4 72.9 82.7 83.6 94.3 85.1 C 105.9 86.6 116.6 78.3 118.1 66.7 C 119.6 55.1 111.3 44.4 99.7 42.9 " fill="#D2D1D1"></path></g></g><image xlink:href="0714A7FC1AFDC6AA5BAB4E14269B90F7.png" width="563.00" height="563.00" transform="matrix(1.00, 0.00, -0.00, -1.00, 648.9, 641.6)" opacity="0.70"></image><g><clipPath id="clip-19320"><path d="M 651.0 639.0 L 1210.0 639.0 L 1210.0 81.0 L 651.0 81.0 Z M 651.0 639.4 "></path></clipPath><g clip-path="url(#clip-19320)"><image xlink:href="27C0498BA0A70E937C5ED8B07E01CD3B.png" width="315.00" height="541.00" transform="matrix(2.70, 0.00, -0.00, -2.70, 505.0, 1335.0)"></image></g></g><path d="M 0.0 0.0 L 0.0 558.9 L 559.0 558.9 L 559.0 0.0 L 0.0 0.0 Z M 0.0 0.0 " fill="none" stroke="#F2F6F5" stroke-width="0.25" transform="matrix(1.00, 0.00, 0.00, -1.00, 651.0, 639.4)"></path><text xml:space="preserve" font-family="Sonus-Bold" font-weight="bold" font-size="40.0" fill="#000000" transform="matrix(1.00, 0.00, -0.00, -1.00, 69.0, 579.0)">S</text><text xml:space="preserve" font-family="Sonus-Bold" font-weight="bold" font-size="40.0" fill="#000000" transform="matrix(1.00, 0.00, -0.00, -1.00, 91.4, 579.0)">h</text><text xml:space="preserve" font-family="Sonus-Bold" font-weight="bold" font-size="40.0" fill="#000000" transform="matrix(1.00, 0.00, -0.00, -1.00, 115.3, 579.0)">o</text><text xml:space="preserve" font-family="Sonus-Bold" font-weight="bold" font-size="40.0" fill="#000000" transform="matrix(1.00, 0.00, -0.00, -1.00, 138.9, 579.0)">w</text><text xml:space="preserve" font-family="Sonus-Bold" font-weight="bold" font-size="40.0" fill="#000000" transform="matrix(1.00, 0.00, -0.00, -1.00, 170.1, 579.0)"> </text><text xml:space="preserve" font-family="Sonus-Bold" font-weight="bold" font-size="40.0" fill="#000000" transform="matrix(1.00, 0.00, -0.00, -1.00, 178.7, 579.0)">b</text><text xml:space="preserve" font-family="Sonus-Bold" font-weight="bold" font-size="40.0" fill="#000000" transform="matrix(1.00, 0.00, -0.00, -1.00, 202.7, 579.0)">e</text><text xml:space="preserve" font-family="Sonus-Bold" font-weight="bold" font-size="40.0" fill="#000000" transform="matrix(1.00, 0.00, -0.00, -1.00, 224.0, 579.0)">n</text><text xml:space="preserve" font-family="Sonus-Bold" font-weight="bold" font-size="40.0" fill="#000000" transform="matrix(1.00, 0.00, -0.00, -1.00, 247.8, 579.0)">e</text><text xml:space="preserve" font-family="Sonus-Bold" font-weight="bold" font-size="40.0" fill="#000000" transform="matrix(1.00, 0.00, -0.00, -1.00, 269.1, 579.0)">ﬁ</text><text xml:space="preserve" font-family="Sonus-Bold" font-weight="bold" font-size="40.0" fill="#000000" transform="matrix(1.00, 0.00, -0.00, -1.00, 293.3, 579.0)">t</text><text xml:space="preserve" font-family="Sonus-Bold" font-weight="bold" font-size="40.0" fill="#000000" transform="matrix(1.00, 0.00, -0.00, -1.00, 308.4, 579.0)">s</text><text xml:space="preserve" font-family="Sonus-Light" font-size="20.0" fill="#5D5D5D" transform="matrix(1.00, 0.00, -0.00, -1.00, 75.0, 391.0)">S</text><text xml:space="preserve" font-family="Sonus-Light" font-size="20.0" fill="#5D5D5D" transform="matrix(1.00, 0.00, -0.00, -1.00, 85.3, 391.0)">q</text><text xml:space="preserve" font-family="Sonus-Light" font-size="20.0" fill="#5D5D5D" transform="matrix(1.00, 0.00, -0.00, -1.00, 96.4, 391.0)">u</text><text xml:space="preserve" font-family="Sonus-Light" font-size="20.0" fill="#5D5D5D" transform="matrix(1.00, 0.00, -0.00, -1.00, 107.6, 391.0)">a</text><text xml:space="preserve" font-family="Sonus-Light" font-size="20.0" fill="#5D5D5D" transform="matrix(1.00, 0.00, -0.00, -1.00, 117.6, 391.0)">r</text><text xml:space="preserve" font-family="Sonus-Light" font-size="20.0" fill="#5D5D5D" transform="matrix(1.00, 0.00, -0.00, -1.00, 124.1, 391.0)">e</text><text xml:space="preserve" font-family="Sonus-Light" font-size="20.0" fill="#5D5D5D" transform="matrix(1.00, 0.00, -0.00, -1.00, 134.1, 391.0)"> </text><text xml:space="preserve" font-family="Sonus-Light" font-size="20.0" fill="#5D5D5D" transform="matrix(1.00, 0.00, -0.00, -1.00, 138.4, 391.0)">h</text><text xml:space="preserve" font-family="Sonus-Light" font-size="20.0" fill="#5D5D5D" transform="matrix(1.00, 0.00, -0.00, -1.00, 149.7, 391.0)">a</text><text xml:space="preserve" font-family="Sonus-Light" font-size="20.0" fill="#5D5D5D" transform="matrix(1.00, 0.00, -0.00, -1.00, 159.6, 391.0)">s</text><text xml:space="preserve" font-family="Sonus-Light" font-size="20.0" fill="#5D5D5D" transform="matrix(1.00, 0.00, -0.00, -1.00, 167.7, 391.0)"> </text><text xml:space="preserve" font-family="Sonus-Light" font-size="20.0" fill="#5D5D5D" transform="matrix(1.00, 0.00, -0.00, -1.00, 172.0, 391.0)">a</text><text xml:space="preserve" font-family="Sonus-Light" font-size="20.0" fill="#5D5D5D" transform="matrix(1.00, 0.00, -0.00, -1.00, 182.0, 391.0)"> </text><text xml:space="preserve" font-family="Sonus-Light" font-size="20.0" fill="#5D5D5D" transform="matrix(1.00, 0.00, -0.00, -1.00, 186.3, 391.0)">b</text><text xml:space="preserve" font-family="Sonus-Light" font-size="20.0" fill="#5D5D5D" transform="matrix(1.00, 0.00, -0.00, -1.00, 197.4, 391.0)">e</text><text xml:space="preserve" font-family="Sonus-Light" font-size="20.0" fill="#5D5D5D" transform="matrix(1.00, 0.00, -0.00, -1.00, 207.5, 391.0)">n</text><text xml:space="preserve" font-family="Sonus-Light" font-size="20.0" fill="#5D5D5D" transform="matrix(1.00, 0.00, -0.00, -1.00, 218.5, 391.0)">e</text><text xml:space="preserve" font-family="Sonus-Light" font-size="20.0" fill="#5D5D5D" transform="matrix(1.00, 0.00, -0.00, -1.00, 228.6, 391.0)">ﬁ</text><text xml:space="preserve" font-family="Sonus-Light" font-size="20.0" fill="#5D5D5D" transform="matrix(1.00, 0.00, -0.00, -1.00, 239.2, 391.0)">t</text><text xml:space="preserve" font-family="Sonus-Light" font-size="20.0" fill="#5D5D5D" transform="matrix(1.00, 0.00, -0.00, -1.00, 245.8, 391.0)">s</text><text xml:space="preserve" font-family="Sonus-Light" font-size="20.0" fill="#5D5D5D" transform="matrix(1.00, 0.00, -0.00, -1.00, 253.9, 391.0)"> </text><text xml:space="preserve" font-family="Sonus-Light" font-size="20.0" fill="#5D5D5D" transform="matrix(1.00, 0.00, -0.00, -1.00, 258.2, 391.0)">s</text><text xml:space="preserve" font-family="Sonus-Light" font-size="20.0" fill="#5D5D5D" transform="matrix(1.00, 0.00, -0.00, -1.00, 266.4, 391.0)">e</text><text xml:space="preserve" font-family="Sonus-Light" font-size="20.0" fill="#5D5D5D" transform="matrix(1.00, 0.00, -0.00, -1.00, 276.4, 391.0)">c</text><text xml:space="preserve" font-family="Sonus-Light" font-size="20.0" fill="#5D5D5D" transform="matrix(1.00, 0.00, -0.00, -1.00, 285.7, 391.0)">t</text><text xml:space="preserve" font-family="Sonus-Light" font-size="20.0" fill="#5D5D5D" transform="matrix(1.00, 0.00, -0.00, -1.00, 292.2, 391.0)">i</text><text xml:space="preserve" font-family="Sonus-Light" font-size="20.0" fill="#5D5D5D" transform="matrix(1.00, 0.00, -0.00, -1.00, 296.8, 391.0)">o</text><text xml:space="preserve" font-family="Sonus-Light" font-size="20.0" fill="#5D5D5D" transform="matrix(1.00, 0.00, -0.00, -1.00, 307.6, 391.0)">n</text><text xml:space="preserve" font-family="Sonus-Light" font-size="20.0" fill="#5D5D5D" transform="matrix(1.00, 0.00, -0.00, -1.00, 318.7, 391.0)"> </text><text xml:space="preserve" font-family="Sonus-Light" font-size="20.0" fill="#5D5D5D" transform="matrix(1.00, 0.00, -0.00, -1.00, 323.0, 391.0)">t</text><text xml:space="preserve" font-family="Sonus-Light" font-size="20.0" fill="#5D5D5D" transform="matrix(1.00, 0.00, -0.00, -1.00, 329.5, 391.0)">h</text><text xml:space="preserve" font-family="Sonus-Light" font-size="20.0" fill="#5D5D5D" transform="matrix(1.00, 0.00, -0.00, -1.00, 340.7, 391.0)">a</text><text xml:space="preserve" font-family="Sonus-Light" font-size="20.0" fill="#5D5D5D" transform="matrix(1.00, 0.00, -0.00, -1.00, 350.7, 391.0)">t</text><text xml:space="preserve" font-family="Sonus-Light" font-size="20.0" fill="#5D5D5D" transform="matrix(1.00, 0.00, -0.00, -1.00, 357.2, 391.0)"> </text><text xml:space="preserve" font-family="Sonus-Light" font-size="20.0" fill="#5D5D5D" transform="matrix(1.00, 0.00, -0.00, -1.00, 361.5, 391.0)">i</text><text xml:space="preserve" font-family="Sonus-Light" font-size="20.0" fill="#5D5D5D" transform="matrix(1.00, 0.00, -0.00, -1.00, 366.1, 391.0)">n</text><text xml:space="preserve" font-family="Sonus-Light" font-size="20.0" fill="#5D5D5D" transform="matrix(1.00, 0.00, -0.00, -1.00, 377.2, 391.0)">c</text><text xml:space="preserve" font-family="Sonus-Light" font-size="20.0" fill="#5D5D5D" transform="matrix(1.00, 0.00, -0.00, -1.00, 386.2, 391.0)">l</text><text xml:space="preserve" font-family="Sonus-Light" font-size="20.0" fill="#5D5D5D" transform="matrix(1.00, 0.00, -0.00, -1.00, 390.8, 391.0)">u</text><text xml:space="preserve" font-family="Sonus-Light" font-size="20.0" fill="#5D5D5D" transform="matrix(1.00, 0.00, -0.00, -1.00, 402.0, 391.0)">d</text><text xml:space="preserve" font-family="Sonus-Light" font-size="20.0" fill="#5D5D5D" transform="matrix(1.00, 0.00, -0.00, -1.00, 413.1, 391.0)">e</text><text xml:space="preserve" font-family="Sonus-Light" font-size="20.0" fill="#5D5D5D" transform="matrix(1.00, 0.00, -0.00, -1.00, 423.2, 391.0)">s</text><text xml:space="preserve" font-family="Sonus-Light" font-size="20.0" fill="#5D5D5D" transform="matrix(1.00, 0.00, -0.00, -1.00, 431.2, 391.0)"> </text><text xml:space="preserve" font-family="Sonus-Light" font-size="20.0" fill="#5D5D5D" transform="matrix(1.00, 0.00, -0.00, -1.00, 435.6, 391.0)">h</text><text xml:space="preserve" font-family="Sonus-Light" font-size="20.0" fill="#5D5D5D" transform="matrix(1.00, 0.00, -0.00, -1.00, 446.8, 391.0)">e</text><text xml:space="preserve" font-family="Sonus-Light" font-size="20.0" fill="#5D5D5D" transform="matrix(1.00, 0.00, -0.00, -1.00, 456.7, 391.0)">a</text><text xml:space="preserve" font-family="Sonus-Light" font-size="20.0" fill="#5D5D5D" transform="matrix(1.00, 0.00, -0.00, -1.00, 466.7, 391.0)">l</text><text xml:space="preserve" font-family="Sonus-Light" font-size="20.0" fill="#5D5D5D" transform="matrix(1.00, 0.00, -0.00, -1.00, 471.3, 391.0)">t</text><text xml:space="preserve" font-family="Sonus-Light" font-size="20.0" fill="#5D5D5D" transform="matrix(1.00, 0.00, -0.00, -1.00, 477.8, 391.0)">h</text><text xml:space="preserve" font-family="Sonus-Light" font-size="20.0" fill="#5D5D5D" transform="matrix(1.00, 0.00, -0.00, -1.00, 489.0, 391.0)"> </text><text xml:space="preserve" font-family="Sonus-Light" font-size="20.0" fill="#5D5D5D" transform="matrix(1.00, 0.00, -0.00, -1.00, 493.3, 391.0)">i</text><text xml:space="preserve" font-family="Sonus-Light" font-size="20.0" fill="#5D5D5D" transform="matrix(1.00, 0.00, -0.00, -1.00, 497.9, 391.0)">n</text><text xml:space="preserve" font-family="Sonus-Light" font-size="20.0" fill="#5D5D5D" transform="matrix(1.00, 0.00, -0.00, -1.00, 509.0, 391.0)">s</text><text xml:space="preserve" font-family="Sonus-Light" font-size="20.0" fill="#5D5D5D" transform="matrix(1.00, 0.00, -0.00, -1.00, 517.1, 391.0)">u</text><text xml:space="preserve" font-family="Sonus-Light" font-size="20.0" fill="#5D5D5D" transform="matrix(1.00, 0.00, -0.00, -1.00, 528.3, 391.0)">r</text><text xml:space="preserve" font-family="Sonus-Light" font-size="20.0" fill="#5D5D5D" transform="matrix(1.00, 0.00, -0.00, -1.00, 534.9, 391.0)">a</text><text xml:space="preserve" font-family="Sonus-Light" font-size="20.0" fill="#5D5D5D" transform="matrix(1.00, 0.00, -0.00, -1.00, 544.9, 391.0)">n</text><text xml:space="preserve" font-family="Sonus-Light" font-size="20.0" fill="#5D5D5D" transform="matrix(1.00, 0.00, -0.00, -1.00, 556.0, 391.0)">c</text><text xml:space="preserve" font-family="Sonus-Light" font-size="20.0" fill="#5D5D5D" transform="matrix(1.00, 0.00, -0.00, -1.00, 565.0, 391.0)">e</text><text xml:space="preserve" font-family="Sonus-Light" font-size="20.0" fill="#5D5D5D" transform="matrix(1.00, 0.00, -0.00, -1.00, 575.1, 391.0)"> </text><text xml:space="preserve" font-family="Sonus-Light" font-size="20.0" fill="#5D5D5D" transform="matrix(1.00, 0.00, -0.00, -1.00, 75.0, 362.0)">b</text><text xml:space="preserve" font-family="Sonus-Light" font-size="20.0" fill="#5D5D5D" transform="matrix(1.00, 0.00, -0.00, -1.00, 86.1, 362.0)">e</text><text xml:space="preserve" font-family="Sonus-Light" font-size="20.0" fill="#5D5D5D" transform="matrix(1.00, 0.00, -0.00, -1.00, 96.1, 362.0)">n</text><text xml:space="preserve" font-family="Sonus-Light" font-size="20.0" fill="#5D5D5D" transform="matrix(1.00, 0.00, -0.00, -1.00, 107.2, 362.0)">e</text><text xml:space="preserve" font-family="Sonus-Light" font-size="20.0" fill="#5D5D5D" transform="matrix(1.00, 0.00, -0.00, -1.00, 117.3, 362.0)">ﬁ</text><text xml:space="preserve" font-family="Sonus-Light" font-size="20.0" fill="#5D5D5D" transform="matrix(1.00, 0.00, -0.00, -1.00, 127.8, 362.0)">t</text><text xml:space="preserve" font-family="Sonus-Light" font-size="20.0" fill="#5D5D5D" transform="matrix(1.00, 0.00, -0.00, -1.00, 134.4, 362.0)">s</text><text xml:space="preserve" font-family="Sonus-Light" font-size="20.0" fill="#5D5D5D" transform="matrix(1.00, 0.00, -0.00, -1.00, 142.5, 362.0)"> </text><text xml:space="preserve" font-family="Sonus-Light" font-size="20.0" fill="#5D5D5D" transform="matrix(1.00, 0.00, -0.00, -1.00, 146.8, 362.0)">a</text><text xml:space="preserve" font-family="Sonus-Light" font-size="20.0" fill="#5D5D5D" transform="matrix(1.00, 0.00, -0.00, -1.00, 156.8, 362.0)">l</text><text xml:space="preserve" font-family="Sonus-Light" font-size="20.0" fill="#5D5D5D" transform="matrix(1.00, 0.00, -0.00, -1.00, 161.4, 362.0)">o</text><text xml:space="preserve" font-family="Sonus-Light" font-size="20.0" fill="#5D5D5D" transform="matrix(1.00, 0.00, -0.00, -1.00, 172.2, 362.0)">n</text><text xml:space="preserve" font-family="Sonus-Light" font-size="20.0" fill="#5D5D5D" transform="matrix(1.00, 0.00, -0.00, -1.00, 183.4, 362.0)">g</text><text xml:space="preserve" font-family="Sonus-Light" font-size="20.0" fill="#5D5D5D" transform="matrix(1.00, 0.00, -0.00, -1.00, 193.3, 362.0)">s</text><text xml:space="preserve" font-family="Sonus-Light" font-size="20.0" fill="#5D5D5D" transform="matrix(1.00, 0.00, -0.00, -1.00, 201.4, 362.0)">i</text><text xml:space="preserve" font-family="Sonus-Light" font-size="20.0" fill="#5D5D5D" transform="matrix(1.00, 0.00, -0.00, -1.00, 206.0, 362.0)">d</text><text xml:space="preserve" font-family="Sonus-Light" font-size="20.0" fill="#5D5D5D" transform="matrix(1.00, 0.00, -0.00, -1.00, 217.1, 362.0)">e</text><text xml:space="preserve" font-family="Sonus-Light" font-size="20.0" fill="#5D5D5D" transform="matrix(1.00, 0.00, -0.00, -1.00, 227.1, 362.0)"> </text><text xml:space="preserve" font-family="Sonus-Light" font-size="20.0" fill="#5D5D5D" transform="matrix(1.00, 0.00, -0.00, -1.00, 231.4, 362.0)">m</text><text xml:space="preserve" font-family="Sonus-Light" font-size="20.0" fill="#5D5D5D" transform="matrix(1.00, 0.00, -0.00, -1.00, 248.8, 362.0)">o</text><text xml:space="preserve" font-family="Sonus-Light" font-size="20.0" fill="#5D5D5D" transform="matrix(1.00, 0.00, -0.00, -1.00, 259.6, 362.0)">r</text><text xml:space="preserve" font-family="Sonus-Light" font-size="20.0" fill="#5D5D5D" transform="matrix(1.00, 0.00, -0.00, -1.00, 266.1, 362.0)">e</text><text xml:space="preserve" font-family="Sonus-Light" font-size="20.0" fill="#5D5D5D" transform="matrix(1.00, 0.00, -0.00, -1.00, 276.1, 362.0)"> </text><text xml:space="preserve" font-family="Sonus-Light" font-size="20.0" fill="#5D5D5D" transform="matrix(1.00, 0.00, -0.00, -1.00, 280.5, 362.0)">i</text><text xml:space="preserve" font-family="Sonus-Light" font-size="20.0" fill="#5D5D5D" transform="matrix(1.00, 0.00, -0.00, -1.00, 285.1, 362.0)">n</text><text xml:space="preserve" font-family="Sonus-Light" font-size="20.0" fill="#5D5D5D" transform="matrix(1.00, 0.00, -0.00, -1.00, 296.1, 362.0)">t</text><text xml:space="preserve" font-family="Sonus-Light" font-size="20.0" fill="#5D5D5D" transform="matrix(1.00, 0.00, -0.00, -1.00, 302.7, 362.0)">a</text><text xml:space="preserve" font-family="Sonus-Light" font-size="20.0" fill="#5D5D5D" transform="matrix(1.00, 0.00, -0.00, -1.00, 312.7, 362.0)">n</text><text xml:space="preserve" font-family="Sonus-Light" font-size="20.0" fill="#5D5D5D" transform="matrix(1.00, 0.00, -0.00, -1.00, 323.9, 362.0)">g</text><text xml:space="preserve" font-family="Sonus-Light" font-size="20.0" fill="#5D5D5D" transform="matrix(1.00, 0.00, -0.00, -1.00, 333.8, 362.0)">i</text><text xml:space="preserve" font-family="Sonus-Light" font-size="20.0" fill="#5D5D5D" transform="matrix(1.00, 0.00, -0.00, -1.00, 338.4, 362.0)">b</text><text xml:space="preserve" font-family="Sonus-Light" font-size="20.0" fill="#5D5D5D" transform="matrix(1.00, 0.00, -0.00, -1.00, 349.5, 362.0)">l</text><text xml:space="preserve" font-family="Sonus-Light" font-size="20.0" fill="#5D5D5D" transform="matrix(1.00, 0.00, -0.00, -1.00, 354.1, 362.0)">e</text><text xml:space="preserve" font-family="Sonus-Light" font-size="20.0" fill="#5D5D5D" transform="matrix(1.00, 0.00, -0.00, -1.00, 364.2, 362.0)"> </text><text xml:space="preserve" font-family="Sonus-Light" font-size="20.0" fill="#5D5D5D" transform="matrix(1.00, 0.00, -0.00, -1.00, 368.5, 362.0)">b</text><text xml:space="preserve" font-family="Sonus-Light" font-size="20.0" fill="#5D5D5D" transform="matrix(1.00, 0.00, -0.00, -1.00, 379.5, 362.0)">e</text><text xml:space="preserve" font-family="Sonus-Light" font-size="20.0" fill="#5D5D5D" transform="matrix(1.00, 0.00, -0.00, -1.00, 389.6, 362.0)">n</text><text xml:space="preserve" font-family="Sonus-Light" font-size="20.0" fill="#5D5D5D" transform="matrix(1.00, 0.00, -0.00, -1.00, 400.7, 362.0)">e</text><text xml:space="preserve" font-family="Sonus-Light" font-size="20.0" fill="#5D5D5D" transform="matrix(1.00, 0.00, -0.00, -1.00, 410.7, 362.0)">ﬁ</text><text xml:space="preserve" font-family="Sonus-Light" font-size="20.0" fill="#5D5D5D" transform="matrix(1.00, 0.00, -0.00, -1.00, 421.3, 362.0)">t</text><text xml:space="preserve" font-family="Sonus-Light" font-size="20.0" fill="#5D5D5D" transform="matrix(1.00, 0.00, -0.00, -1.00, 427.9, 362.0)">s</text><text xml:space="preserve" font-family="Sonus-Light" font-size="20.0" fill="#5D5D5D" transform="matrix(1.00, 0.00, -0.00, -1.00, 436.0, 362.0)"> </text><text xml:space="preserve" font-family="Sonus-Light" font-size="20.0" fill="#5D5D5D" transform="matrix(1.00, 0.00, -0.00, -1.00, 440.3, 362.0)">l</text><text xml:space="preserve" font-family="Sonus-Light" font-size="20.0" fill="#5D5D5D" transform="matrix(1.00, 0.00, -0.00, -1.00, 444.9, 362.0)">i</text><text xml:space="preserve" font-family="Sonus-Light" font-size="20.0" fill="#5D5D5D" transform="matrix(1.00, 0.00, -0.00, -1.00, 449.5, 362.0)">k</text><text xml:space="preserve" font-family="Sonus-Light" font-size="20.0" fill="#5D5D5D" transform="matrix(1.00, 0.00, -0.00, -1.00, 459.2, 362.0)">e</text><text xml:space="preserve" font-family="Sonus-Light" font-size="20.0" fill="#5D5D5D" transform="matrix(1.00, 0.00, -0.00, -1.00, 469.2, 362.0)"> </text><text xml:space="preserve" font-family="Sonus-Light" font-size="20.0" fill="#5D5D5D" transform="matrix(1.00, 0.00, -0.00, -1.00, 473.5, 362.0)">'</text><text xml:space="preserve" font-family="Sonus-Light" font-size="20.0" fill="#5D5D5D" transform="matrix(1.00, 0.00, -0.00, -1.00, 477.4, 362.0)">l</text><text xml:space="preserve" font-family="Sonus-Light" font-size="20.0" fill="#5D5D5D" transform="matrix(1.00, 0.00, -0.00, -1.00, 482.0, 362.0)">e</text><text xml:space="preserve" font-family="Sonus-Light" font-size="20.0" fill="#5D5D5D" transform="matrix(1.00, 0.00, -0.00, -1.00, 491.9, 362.0)">a</text><text xml:space="preserve" font-family="Sonus-Light" font-size="20.0" fill="#5D5D5D" transform="matrix(1.00, 0.00, -0.00, -1.00, 501.9, 362.0)">r</text><text xml:space="preserve" font-family="Sonus-Light" font-size="20.0" fill="#5D5D5D" transform="matrix(1.00, 0.00, -0.00, -1.00, 508.8, 362.0)">n</text><text xml:space="preserve" font-family="Sonus-Light" font-size="20.0" fill="#5D5D5D" transform="matrix(1.00, 0.00, -0.00, -1.00, 519.9, 362.0)">i</text><text xml:space="preserve" font-family="Sonus-Light" font-size="20.0" fill="#5D5D5D" transform="matrix(1.00, 0.00, -0.00, -1.00, 524.5, 362.0)">n</text><text xml:space="preserve" font-family="Sonus-Light" font-size="20.0" fill="#5D5D5D" transform="matrix(1.00, 0.00, -0.00, -1.00, 535.7, 362.0)">g</text><text xml:space="preserve" font-family="Sonus-Light" font-size="20.0" fill="#5D5D5D" transform="matrix(1.00, 0.00, -0.00, -1.00, 545.6, 362.0)"> </text><text xml:space="preserve" font-family="Sonus-Light" font-size="20.0" fill="#5D5D5D" transform="matrix(1.00, 0.00, -0.00, -1.00, 75.0, 333.0)">a</text><text xml:space="preserve" font-family="Sonus-Light" font-size="20.0" fill="#5D5D5D" transform="matrix(1.00, 0.00, -0.00, -1.00, 85.0, 333.0)">n</text><text xml:space="preserve" font-family="Sonus-Light" font-size="20.0" fill="#5D5D5D" transform="matrix(1.00, 0.00, -0.00, -1.00, 96.1, 333.0)">d</text><text xml:space="preserve" font-family="Sonus-Light" font-size="20.0" fill="#5D5D5D" transform="matrix(1.00, 0.00, -0.00, -1.00, 107.1, 333.0)"> </text><text xml:space="preserve" font-family="Sonus-Light" font-size="20.0" fill="#5D5D5D" transform="matrix(1.00, 0.00, -0.00, -1.00, 111.4, 333.0)">d</text><text xml:space="preserve" font-family="Sonus-Light" font-size="20.0" fill="#5D5D5D" transform="matrix(1.00, 0.00, -0.00, -1.00, 122.5, 333.0)">e</text><text xml:space="preserve" font-family="Sonus-Light" font-size="20.0" fill="#5D5D5D" transform="matrix(1.00, 0.00, -0.00, -1.00, 132.6, 333.0)">v</text><text xml:space="preserve" font-family="Sonus-Light" font-size="20.0" fill="#5D5D5D" transform="matrix(1.00, 0.00, -0.00, -1.00, 141.6, 333.0)">e</text><text xml:space="preserve" font-family="Sonus-Light" font-size="20.0" fill="#5D5D5D" transform="matrix(1.00, 0.00, -0.00, -1.00, 151.6, 333.0)">l</text><text xml:space="preserve" font-family="Sonus-Light" font-size="20.0" fill="#5D5D5D" transform="matrix(1.00, 0.00, -0.00, -1.00, 156.2, 333.0)">o</text><text xml:space="preserve" font-family="Sonus-Light" font-size="20.0" fill="#5D5D5D" transform="matrix(1.00, 0.00, -0.00, -1.00, 167.0, 333.0)">p</text><text xml:space="preserve" font-family="Sonus-Light" font-size="20.0" fill="#5D5D5D" transform="matrix(1.00, 0.00, -0.00, -1.00, 178.1, 333.0)">m</text><text xml:space="preserve" font-family="Sonus-Light" font-size="20.0" fill="#5D5D5D" transform="matrix(1.00, 0.00, -0.00, -1.00, 195.4, 333.0)">e</text><text xml:space="preserve" font-family="Sonus-Light" font-size="20.0" fill="#5D5D5D" transform="matrix(1.00, 0.00, -0.00, -1.00, 205.5, 333.0)">n</text><text xml:space="preserve" font-family="Sonus-Light" font-size="20.0" fill="#5D5D5D" transform="matrix(1.00, 0.00, -0.00, -1.00, 216.6, 333.0)">t</text><text xml:space="preserve" font-family="Sonus-Light" font-size="20.0" fill="#5D5D5D" transform="matrix(1.00, 0.00, -0.00, -1.00, 223.1, 333.0)">'</text><text xml:space="preserve" font-family="Sonus-Light" font-size="20.0" fill="#5D5D5D" transform="matrix(1.00, 0.00, -0.00, -1.00, 226.9, 333.0)"> </text><text xml:space="preserve" font-family="Sonus-Light" font-size="20.0" fill="#5D5D5D" transform="matrix(1.00, 0.00, -0.00, -1.00, 231.2, 333.0)">a</text><text xml:space="preserve" font-family="Sonus-Light" font-size="20.0" fill="#5D5D5D" transform="matrix(1.00, 0.00, -0.00, -1.00, 241.2, 333.0)">n</text><text xml:space="preserve" font-family="Sonus-Light" font-size="20.0" fill="#5D5D5D" transform="matrix(1.00, 0.00, -0.00, -1.00, 252.3, 333.0)">d</text><text xml:space="preserve" font-family="Sonus-Light" font-size="20.0" fill="#5D5D5D" transform="matrix(1.00, 0.00, -0.00, -1.00, 263.3, 333.0)"> </text><text xml:space="preserve" font-family="Sonus-Light" font-size="20.0" fill="#5D5D5D" transform="matrix(1.00, 0.00, -0.00, -1.00, 267.7, 333.0)">'</text><text xml:space="preserve" font-family="Sonus-Light" font-size="20.0" fill="#5D5D5D" transform="matrix(1.00, 0.00, -0.00, -1.00, 271.5, 333.0)">e</text><text xml:space="preserve" font-family="Sonus-Light" font-size="20.0" fill="#5D5D5D" transform="matrix(1.00, 0.00, -0.00, -1.00, 281.6, 333.0)">m</text><text xml:space="preserve" font-family="Sonus-Light" font-size="20.0" fill="#5D5D5D" transform="matrix(1.00, 0.00, -0.00, -1.00, 298.9, 333.0)">p</text><text xml:space="preserve" font-family="Sonus-Light" font-size="20.0" fill="#5D5D5D" transform="matrix(1.00, 0.00, -0.00, -1.00, 310.0, 333.0)">l</text><text xml:space="preserve" font-family="Sonus-Light" font-size="20.0" fill="#5D5D5D" transform="matrix(1.00, 0.00, -0.00, -1.00, 314.6, 333.0)">o</text><text xml:space="preserve" font-family="Sonus-Light" font-size="20.0" fill="#5D5D5D" transform="matrix(1.00, 0.00, -0.00, -1.00, 325.4, 333.0)">y</text><text xml:space="preserve" font-family="Sonus-Light" font-size="20.0" fill="#5D5D5D" transform="matrix(1.00, 0.00, -0.00, -1.00, 334.5, 333.0)">e</text><text xml:space="preserve" font-family="Sonus-Light" font-size="20.0" fill="#5D5D5D" transform="matrix(1.00, 0.00, -0.00, -1.00, 344.5, 333.0)">e</text><text xml:space="preserve" font-family="Sonus-Light" font-size="20.0" fill="#5D5D5D" transform="matrix(1.00, 0.00, -0.00, -1.00, 354.6, 333.0)"> </text><text xml:space="preserve" font-family="Sonus-Light" font-size="20.0" fill="#5D5D5D" transform="matrix(1.00, 0.00, -0.00, -1.00, 358.9, 333.0)">e</text><text xml:space="preserve" font-family="Sonus-Light" font-size="20.0" fill="#5D5D5D" transform="matrix(1.00, 0.00, -0.00, -1.00, 368.9, 333.0)">x</text><text xml:space="preserve" font-family="Sonus-Light" font-size="20.0" fill="#5D5D5D" transform="matrix(1.00, 0.00, -0.00, -1.00, 378.3, 333.0)">p</text><text xml:space="preserve" font-family="Sonus-Light" font-size="20.0" fill="#5D5D5D" transform="matrix(1.00, 0.00, -0.00, -1.00, 389.3, 333.0)">e</text><text xml:space="preserve" font-family="Sonus-Light" font-size="20.0" fill="#5D5D5D" transform="matrix(1.00, 0.00, -0.00, -1.00, 399.4, 333.0)">r</text><text xml:space="preserve" font-family="Sonus-Light" font-size="20.0" fill="#5D5D5D" transform="matrix(1.00, 0.00, -0.00, -1.00, 406.1, 333.0)">i</text><text xml:space="preserve" font-family="Sonus-Light" font-size="20.0" fill="#5D5D5D" transform="matrix(1.00, 0.00, -0.00, -1.00, 410.7, 333.0)">e</text><text xml:space="preserve" font-family="Sonus-Light" font-size="20.0" fill="#5D5D5D" transform="matrix(1.00, 0.00, -0.00, -1.00, 420.7, 333.0)">n</text><text xml:space="preserve" font-family="Sonus-Light" font-size="20.0" fill="#5D5D5D" transform="matrix(1.00, 0.00, -0.00, -1.00, 431.8, 333.0)">c</text><text xml:space="preserve" font-family="Sonus-Light" font-size="20.0" fill="#5D5D5D" transform="matrix(1.00, 0.00, -0.00, -1.00, 440.9, 333.0)">e</text><text xml:space="preserve" font-family="Sonus-Light" font-size="20.0" fill="#5D5D5D" transform="matrix(1.00, 0.00, -0.00, -1.00, 450.9, 333.0)">.</text><text xml:space="preserve" font-family="Sonus-Light" font-size="20.0" fill="#5D5D5D" transform="matrix(1.00, 0.00, -0.00, -1.00, 454.7, 333.0)">'</text><text xml:space="preserve" font-family="Sonus-Light" font-size="20.0" fill="#5D5D5D" transform="matrix(1.00, 0.00, -0.00, -1.00, 458.6, 333.0)"> </text><g><clipPath id="clip-19321"><path d="M 71.0 497.0 L 140.2 497.0 L 140.2 427.8 L 71.0 427.8 Z M 71.0 497.0 "></path></clipPath><g clip-path="url(#clip-19321)"><g><clipPath id="clip-19322"><path d="M 71.0 428.0 L 140.0 428.0 L 140.0 497.0 L 71.0 497.0 Z M 71.0 428.0 "></path></clipPath><g clip-path="url(#clip-19322)"><path d="M 127.5 444.2 C 127.5 442.2 125.8 440.5 123.8 440.5 L 87.2 440.5 C 85.2 440.5 83.6 442.2 83.6 444.2 L 83.6 480.8 C 83.6 482.8 85.2 484.4 87.2 484.4 L 123.8 484.4 C 125.8 484.4 127.5 482.8 127.5 480.8 Z M 128.5 497.0 L 82.5 497.0 C 76.2 497.0 71.0 491.8 71.0 485.5 L 71.0 439.5 C 71.0 433.2 76.2 428.0 82.5 428.0 L 128.5 428.0 C 134.8 428.0 140.0 433.2 140.0 439.5 L 140.0 485.5 C 140.0 491.8 134.8 497.0 128.5 497.0 " fill="#2D3A4E"></path><path d="M 98.2 453.1 C 97.0 453.1 96.1 454.0 96.1 455.2 L 96.1 469.8 C 96.1 471.0 97.0 471.9 98.2 471.9 L 112.8 471.9 C 114.0 471.9 114.9 471.0 114.9 469.8 L 114.9 455.2 C 114.9 454.0 114.0 453.1 112.8 453.1 Z M 98.2 453.1 " fill="#2D3A4E"></path></g></g></g></g><g><clipPath id="clip-19323"><path d="M 531.4 51.8 L 1208.9 51.8 L 1208.9 89.3 L 531.4 89.3 Z M 531.4 51.8 "></path></clipPath><g clip-path="url(#clip-19323)"><text xml:space="preserve" font-family="Sonus-Light" font-size="12.0" fill="#A6AAA8" transform="matrix(1.00, 0.00, -0.00, -1.00, 1056.3, 54.0)">h</text><text xml:space="preserve" font-family="Sonus-Light" font-size="12.0" fill="#A6AAA8" transform="matrix(1.00, 0.00, -0.00, -1.00, 1063.1, 54.0)">t</text><text xml:space="preserve" font-family="Sonus-Light" font-size="12.0" fill="#A6AAA8" transform="matrix(1.00, 0.00, -0.00, -1.00, 1067.0, 54.0)">t</text><text xml:space="preserve" font-family="Sonus-Light" font-size="12.0" fill="#A6AAA8" transform="matrix(1.00, 0.00, -0.00, -1.00, 1070.9, 54.0)">p</text><text xml:space="preserve" font-family="Sonus-Light" font-size="12.0" fill="#A6AAA8" transform="matrix(1.00, 0.00, -0.00, -1.00, 1077.5, 54.0)">s</text><text xml:space="preserve" font-family="Sonus-Light" font-size="12.0" fill="#A6AAA8" transform="matrix(1.00, 0.00, -0.00, -1.00, 1082.4, 54.0)">:</text><text xml:space="preserve" font-family="Sonus-Light" font-size="12.0" fill="#A6AAA8" transform="matrix(1.00, 0.00, -0.00, -1.00, 1084.9, 54.0)">/</text><text xml:space="preserve" font-family="Sonus-Light" font-size="12.0" fill="#A6AAA8" transform="matrix(1.00, 0.00, -0.00, -1.00, 1089.4, 54.0)">/</text><text xml:space="preserve" font-family="Sonus-Light" font-size="12.0" fill="#A6AAA8" transform="matrix(1.00, 0.00, -0.00, -1.00, 1093.9, 54.0)">s</text><text xml:space="preserve" font-family="Sonus-Light" font-size="12.0" fill="#A6AAA8" transform="matrix(1.00, 0.00, -0.00, -1.00, 1098.9, 54.0)">q</text><text xml:space="preserve" font-family="Sonus-Light" font-size="12.0" fill="#A6AAA8" transform="matrix(1.00, 0.00, -0.00, -1.00, 1105.5, 54.0)">u</text><text xml:space="preserve" font-family="Sonus-Light" font-size="12.0" fill="#A6AAA8" transform="matrix(1.00, 0.00, -0.00, -1.00, 1112.2, 54.0)">a</text><text xml:space="preserve" font-family="Sonus-Light" font-size="12.0" fill="#A6AAA8" transform="matrix(1.00, 0.00, -0.00, -1.00, 1118.2, 54.0)">r</text><text xml:space="preserve" font-family="Sonus-Light" font-size="12.0" fill="#A6AAA8" transform="matrix(1.00, 0.00, -0.00, -1.00, 1122.1, 54.0)">e</text><text xml:space="preserve" font-family="Sonus-Light" font-size="12.0" fill="#A6AAA8" transform="matrix(1.00, 0.00, -0.00, -1.00, 1128.1, 54.0)">u</text><text xml:space="preserve" font-family="Sonus-Light" font-size="12.0" fill="#A6AAA8" transform="matrix(1.00, 0.00, -0.00, -1.00, 1134.9, 54.0)">p</text><text xml:space="preserve" font-family="Sonus-Light" font-size="12.0" fill="#A6AAA8" transform="matrix(1.00, 0.00, -0.00, -1.00, 1141.1, 54.0)">.</text><text xml:space="preserve" font-family="Sonus-Light" font-size="12.0" fill="#A6AAA8" transform="matrix(1.00, 0.00, -0.00, -1.00, 1143.4, 54.0)">c</text><text xml:space="preserve" font-family="Sonus-Light" font-size="12.0" fill="#A6AAA8" transform="matrix(1.00, 0.00, -0.00, -1.00, 1148.8, 54.0)">o</text><text xml:space="preserve" font-family="Sonus-Light" font-size="12.0" fill="#A6AAA8" transform="matrix(1.00, 0.00, -0.00, -1.00, 1155.3, 54.0)">m</text><text xml:space="preserve" font-family="Sonus-Light" font-size="12.0" fill="#A6AAA8" transform="matrix(1.00, 0.00, -0.00, -1.00, 1166.0, 54.0)">/</text><text xml:space="preserve" font-family="Sonus-Light" font-size="12.0" fill="#A6AAA8" transform="matrix(1.00, 0.00, -0.00, -1.00, 1169.8, 54.0)">c</text><text xml:space="preserve" font-family="Sonus-Light" font-size="12.0" fill="#A6AAA8" transform="matrix(1.00, 0.00, -0.00, -1.00, 1175.2, 54.0)">a</text><text xml:space="preserve" font-family="Sonus-Light" font-size="12.0" fill="#A6AAA8" transform="matrix(1.00, 0.00, -0.00, -1.00, 1181.2, 54.0)">r</text><text xml:space="preserve" font-family="Sonus-Light" font-size="12.0" fill="#A6AAA8" transform="matrix(1.00, 0.00, -0.00, -1.00, 1185.1, 54.0)">e</text><text xml:space="preserve" font-family="Sonus-Light" font-size="12.0" fill="#A6AAA8" transform="matrix(1.00, 0.00, -0.00, -1.00, 1191.2, 54.0)">e</text><text xml:space="preserve" font-family="Sonus-Light" font-size="12.0" fill="#A6AAA8" transform="matrix(1.00, 0.00, -0.00, -1.00, 1197.2, 54.0)">r</text><text xml:space="preserve" font-family="Sonus-Light" font-size="12.0" fill="#A6AAA8" transform="matrix(1.00, 0.00, -0.00, -1.00, 1201.2, 54.0)">s</text></g></g><g><clipPath id="clip-19324"><path d="M 1055.3 51.8 L 1206.0 51.8 L 1206.0 54.4 L 1055.3 54.4 Z M 1055.3 51.8 "></path></clipPath><g clip-path="url(#clip-19324)"><path d="M 525.8 39.9 L 675.5 39.9 " fill="none" stroke="#A6AAA8" stroke-width="0.60" stroke-miterlimit="0.00" transform="matrix(1.00, 0.00, 0.00, -1.00, 530.5, 93.0)"></path></g></g></g></svg>