<?xml version="1.0" encoding="UTF-8" standalone="no"?><svg xmlns="http://www.w3.org/2000/svg" xmlns:xlink="http://www.w3.org/1999/xlink" clip-rule="evenodd" stroke-miterlimit="4.00" viewBox="0 0 146 97"><desc>SVG generated by Keynote</desc><defs></defs><g transform="matrix(1.00, 0.00, -0.00, -1.00, 0.0, 97.0)"><g><clipPath id="clip-6"><path d="M 1.0 1.0 L 145.0 1.0 L 145.0 96.0 L 1.0 96.0 Z M 1.0 1.0 "></path></clipPath><g clip-path="url(#clip-6)"><g><g><clipPath id="clip-7"><path d="M 1.0 1.0 L 145.0 1.0 L 145.0 96.0 L 1.0 96.0 Z M 1.0 1.0 "></path></clipPath><g clip-path="url(#clip-7)"><g><g><clipPath id="clip-8"><path d="M 1.0 1.0 L 145.0 1.0 L 145.0 96.0 L 1.0 96.0 Z M 1.0 1.0 "></path></clipPath><g clip-path="url(#clip-8)"><image xlink:href="4A7C51356E8DF6FD7007A3EF61168612.png" width="300.00" height="197.00" transform="matrix(0.48, 0.00, -0.00, -0.48, 1.0, 96.0)"></image></g></g><g><clipPath id="clip-9"><path d="M 1.0 1.0 L 145.0 1.0 L 145.0 96.0 L 1.0 96.0 Z M 1.0 1.0 "></path></clipPath><g clip-path="url(#clip-9)"><g><g><clipPath id="clip-10"><path d="M 1.0 1.0 L 145.0 1.0 L 145.0 96.0 L 1.0 96.0 Z M 1.0 1.0 "></path></clipPath><g clip-path="url(#clip-10)"><image xlink:href="../../AF078961-8C16-472A-90A3-B851FE04D836/assets/4A7C51356E8DF6FD7007A3EF61168612.png" width="300.00" height="197.00" transform="matrix(0.48, 0.00, -0.00, -0.48, 1.0, 96.0)"></image></g></g></g></g></g></g></g></g></g></g></g></g></svg>