<?xml version="1.0" encoding="UTF-8" standalone="no"?><svg xmlns="http://www.w3.org/2000/svg" xmlns:xlink="http://www.w3.org/1999/xlink" clip-rule="evenodd" stroke-miterlimit="4.00" viewBox="0 0 891 393"><desc>SVG generated by Keynote</desc><defs></defs><g transform="matrix(1.00, 0.00, -0.00, -1.00, 0.0, 393.0)"><text xml:space="preserve" font-family="Sonus-Bold" font-weight="bold" font-size="37.0" fill="#000000" transform="matrix(1.00, 0.00, -0.00, -1.00, 120.0, 364.0)">M</text><text xml:space="preserve" font-family="Sonus-Bold" font-weight="bold" font-size="37.0" fill="#000000" transform="matrix(1.00, 0.00, -0.00, -1.00, 151.2, 364.0)">o</text><text xml:space="preserve" font-family="Sonus-Bold" font-weight="bold" font-size="37.0" fill="#000000" transform="matrix(1.00, 0.00, -0.00, -1.00, 172.7, 364.0)">t</text><text xml:space="preserve" font-family="Sonus-Bold" font-weight="bold" font-size="37.0" fill="#000000" transform="matrix(1.00, 0.00, -0.00, -1.00, 186.4, 364.0)">i</text><text xml:space="preserve" font-family="Sonus-Bold" font-weight="bold" font-size="37.0" fill="#000000" transform="matrix(1.00, 0.00, -0.00, -1.00, 196.7, 364.0)">v</text><text xml:space="preserve" font-family="Sonus-Bold" font-weight="bold" font-size="37.0" fill="#000000" transform="matrix(1.00, 0.00, -0.00, -1.00, 216.3, 364.0)">a</text><text xml:space="preserve" font-family="Sonus-Bold" font-weight="bold" font-size="37.0" fill="#000000" transform="matrix(1.00, 0.00, -0.00, -1.00, 236.1, 364.0)">t</text><text xml:space="preserve" font-family="Sonus-Bold" font-weight="bold" font-size="37.0" fill="#000000" transform="matrix(1.00, 0.00, -0.00, -1.00, 249.8, 364.0)">e</text><text xml:space="preserve" font-family="Sonus-Bold" font-weight="bold" font-size="37.0" fill="#000000" transform="matrix(1.00, 0.00, -0.00, -1.00, 269.6, 364.0)"> </text><text xml:space="preserve" font-family="Sonus-Bold" font-weight="bold" font-size="37.0" fill="#000000" transform="matrix(1.00, 0.00, -0.00, -1.00, 277.5, 364.0)">p</text><text xml:space="preserve" font-family="Sonus-Bold" font-weight="bold" font-size="37.0" fill="#000000" transform="matrix(1.00, 0.00, -0.00, -1.00, 299.7, 364.0)">o</text><text xml:space="preserve" font-family="Sonus-Bold" font-weight="bold" font-size="37.0" fill="#000000" transform="matrix(1.00, 0.00, -0.00, -1.00, 321.2, 364.0)">t</text><text xml:space="preserve" font-family="Sonus-Bold" font-weight="bold" font-size="37.0" fill="#000000" transform="matrix(1.00, 0.00, -0.00, -1.00, 334.9, 364.0)">e</text><text xml:space="preserve" font-family="Sonus-Bold" font-weight="bold" font-size="37.0" fill="#000000" transform="matrix(1.00, 0.00, -0.00, -1.00, 354.7, 364.0)">n</text><text xml:space="preserve" font-family="Sonus-Bold" font-weight="bold" font-size="37.0" fill="#000000" transform="matrix(1.00, 0.00, -0.00, -1.00, 376.7, 364.0)">t</text><text xml:space="preserve" font-family="Sonus-Bold" font-weight="bold" font-size="37.0" fill="#000000" transform="matrix(1.00, 0.00, -0.00, -1.00, 390.4, 364.0)">i</text><text xml:space="preserve" font-family="Sonus-Bold" font-weight="bold" font-size="37.0" fill="#000000" transform="matrix(1.00, 0.00, -0.00, -1.00, 400.8, 364.0)">a</text><text xml:space="preserve" font-family="Sonus-Bold" font-weight="bold" font-size="37.0" fill="#000000" transform="matrix(1.00, 0.00, -0.00, -1.00, 420.6, 364.0)">l</text><text xml:space="preserve" font-family="Sonus-Bold" font-weight="bold" font-size="37.0" fill="#000000" transform="matrix(1.00, 0.00, -0.00, -1.00, 430.9, 364.0)"> </text><text xml:space="preserve" font-family="Sonus-Bold" font-weight="bold" font-size="37.0" fill="#000000" transform="matrix(1.00, 0.00, -0.00, -1.00, 438.9, 364.0)">c</text><text xml:space="preserve" font-family="Sonus-Bold" font-weight="bold" font-size="37.0" fill="#000000" transform="matrix(1.00, 0.00, -0.00, -1.00, 456.5, 364.0)">a</text><text xml:space="preserve" font-family="Sonus-Bold" font-weight="bold" font-size="37.0" fill="#000000" transform="matrix(1.00, 0.00, -0.00, -1.00, 476.3, 364.0)">n</text><text xml:space="preserve" font-family="Sonus-Bold" font-weight="bold" font-size="37.0" fill="#000000" transform="matrix(1.00, 0.00, -0.00, -1.00, 498.3, 364.0)">d</text><text xml:space="preserve" font-family="Sonus-Bold" font-weight="bold" font-size="37.0" fill="#000000" transform="matrix(1.00, 0.00, -0.00, -1.00, 520.5, 364.0)">i</text><text xml:space="preserve" font-family="Sonus-Bold" font-weight="bold" font-size="37.0" fill="#000000" transform="matrix(1.00, 0.00, -0.00, -1.00, 530.8, 364.0)">d</text><text xml:space="preserve" font-family="Sonus-Bold" font-weight="bold" font-size="37.0" fill="#000000" transform="matrix(1.00, 0.00, -0.00, -1.00, 552.9, 364.0)">a</text><text xml:space="preserve" font-family="Sonus-Bold" font-weight="bold" font-size="37.0" fill="#000000" transform="matrix(1.00, 0.00, -0.00, -1.00, 572.7, 364.0)">t</text><text xml:space="preserve" font-family="Sonus-Bold" font-weight="bold" font-size="37.0" fill="#000000" transform="matrix(1.00, 0.00, -0.00, -1.00, 586.5, 364.0)">e</text><text xml:space="preserve" font-family="Sonus-Bold" font-weight="bold" font-size="37.0" fill="#000000" transform="matrix(1.00, 0.00, -0.00, -1.00, 606.2, 364.0)">s</text><text xml:space="preserve" font-family="Sonus-Bold" font-weight="bold" font-size="37.0" fill="#000000" transform="matrix(1.00, 0.00, -0.00, -1.00, 622.5, 364.0)"> </text><text xml:space="preserve" font-family="Sonus-Bold" font-weight="bold" font-size="37.0" fill="#000000" transform="matrix(1.00, 0.00, -0.00, -1.00, 630.5, 364.0)">t</text><text xml:space="preserve" font-family="Sonus-Bold" font-weight="bold" font-size="37.0" fill="#000000" transform="matrix(1.00, 0.00, -0.00, -1.00, 644.3, 364.0)">o</text><text xml:space="preserve" font-family="Sonus-Bold" font-weight="bold" font-size="37.0" fill="#000000" transform="matrix(1.00, 0.00, -0.00, -1.00, 665.8, 364.0)"> </text><text xml:space="preserve" font-family="Sonus-Bold" font-weight="bold" font-size="37.0" fill="#000000" transform="matrix(1.00, 0.00, -0.00, -1.00, 673.7, 364.0)">a</text><text xml:space="preserve" font-family="Sonus-Bold" font-weight="bold" font-size="37.0" fill="#000000" transform="matrix(1.00, 0.00, -0.00, -1.00, 693.5, 364.0)">p</text><text xml:space="preserve" font-family="Sonus-Bold" font-weight="bold" font-size="37.0" fill="#000000" transform="matrix(1.00, 0.00, -0.00, -1.00, 715.7, 364.0)">p</text><text xml:space="preserve" font-family="Sonus-Bold" font-weight="bold" font-size="37.0" fill="#000000" transform="matrix(1.00, 0.00, -0.00, -1.00, 737.9, 364.0)">l</text><text xml:space="preserve" font-family="Sonus-Bold" font-weight="bold" font-size="37.0" fill="#000000" transform="matrix(1.00, 0.00, -0.00, -1.00, 748.2, 364.0)">y</text><text xml:space="preserve" font-family="Sonus-Bold" font-weight="bold" font-size="37.0" fill="#000000" transform="matrix(1.00, 0.00, -0.00, -1.00, 768.3, 364.0)"> </text><text xml:space="preserve" font-family="Sonus" font-size="37.0" fill="#5D5D5D" transform="matrix(1.00, 0.00, -0.00, -1.00, 278.0, 314.0)">M</text><text xml:space="preserve" font-family="Sonus" font-size="37.0" fill="#5D5D5D" transform="matrix(1.00, 0.00, -0.00, -1.00, 308.0, 314.0)">a</text><text xml:space="preserve" font-family="Sonus" font-size="37.0" fill="#5D5D5D" transform="matrix(1.00, 0.00, -0.00, -1.00, 326.8, 314.0)">k</text><text xml:space="preserve" font-family="Sonus" font-size="37.0" fill="#5D5D5D" transform="matrix(1.00, 0.00, -0.00, -1.00, 345.5, 314.0)">e</text><text xml:space="preserve" font-family="Sonus" font-size="37.0" fill="#5D5D5D" transform="matrix(1.00, 0.00, -0.00, -1.00, 364.4, 314.0)"> </text><text xml:space="preserve" font-family="Sonus" font-size="37.0" fill="#5D5D5D" transform="matrix(1.00, 0.00, -0.00, -1.00, 372.4, 314.0)">i</text><text xml:space="preserve" font-family="Sonus" font-size="37.0" fill="#5D5D5D" transform="matrix(1.00, 0.00, -0.00, -1.00, 381.5, 314.0)">t</text><text xml:space="preserve" font-family="Sonus" font-size="37.0" fill="#5D5D5D" transform="matrix(1.00, 0.00, -0.00, -1.00, 394.0, 314.0)"> </text><text xml:space="preserve" font-family="Sonus" font-size="37.0" fill="#5D5D5D" transform="matrix(1.00, 0.00, -0.00, -1.00, 402.0, 314.0)">e</text><text xml:space="preserve" font-family="Sonus" font-size="37.0" fill="#5D5D5D" transform="matrix(1.00, 0.00, -0.00, -1.00, 420.7, 314.0)">a</text><text xml:space="preserve" font-family="Sonus" font-size="37.0" fill="#5D5D5D" transform="matrix(1.00, 0.00, -0.00, -1.00, 439.6, 314.0)">s</text><text xml:space="preserve" font-family="Sonus" font-size="37.0" fill="#5D5D5D" transform="matrix(1.00, 0.00, -0.00, -1.00, 454.9, 314.0)">y</text><text xml:space="preserve" font-family="Sonus" font-size="37.0" fill="#5D5D5D" transform="matrix(1.00, 0.00, -0.00, -1.00, 472.7, 314.0)"> </text><text xml:space="preserve" font-family="Sonus" font-size="37.0" fill="#5D5D5D" transform="matrix(1.00, 0.00, -0.00, -1.00, 480.7, 314.0)">t</text><text xml:space="preserve" font-family="Sonus" font-size="37.0" fill="#5D5D5D" transform="matrix(1.00, 0.00, -0.00, -1.00, 493.3, 314.0)">o</text><text xml:space="preserve" font-family="Sonus" font-size="37.0" fill="#5D5D5D" transform="matrix(1.00, 0.00, -0.00, -1.00, 513.7, 314.0)"> </text><text xml:space="preserve" font-family="Sonus" font-size="37.0" fill="#5D5D5D" transform="matrix(1.00, 0.00, -0.00, -1.00, 521.6, 314.0)">a</text><text xml:space="preserve" font-family="Sonus" font-size="37.0" fill="#5D5D5D" transform="matrix(1.00, 0.00, -0.00, -1.00, 540.5, 314.0)">p</text><text xml:space="preserve" font-family="Sonus" font-size="37.0" fill="#5D5D5D" transform="matrix(1.00, 0.00, -0.00, -1.00, 561.5, 314.0)">p</text><text xml:space="preserve" font-family="Sonus" font-size="37.0" fill="#5D5D5D" transform="matrix(1.00, 0.00, -0.00, -1.00, 582.4, 314.0)">l</text><text xml:space="preserve" font-family="Sonus" font-size="37.0" fill="#5D5D5D" transform="matrix(1.00, 0.00, -0.00, -1.00, 591.4, 314.0)">y</text><text xml:space="preserve" font-family="Sonus" font-size="37.0" fill="#5D5D5D" transform="matrix(1.00, 0.00, -0.00, -1.00, 609.2, 314.0)"> </text><text xml:space="preserve" font-family="Sonus" font-size="37.0" fill="#5D5D5D" transform="matrix(1.00, 0.00, -0.00, -1.00, 270.0, 263.0)">M</text><text xml:space="preserve" font-family="Sonus" font-size="37.0" fill="#5D5D5D" transform="matrix(1.00, 0.00, -0.00, -1.00, 300.0, 263.0)">a</text><text xml:space="preserve" font-family="Sonus" font-size="37.0" fill="#5D5D5D" transform="matrix(1.00, 0.00, -0.00, -1.00, 318.8, 263.0)">k</text><text xml:space="preserve" font-family="Sonus" font-size="37.0" fill="#5D5D5D" transform="matrix(1.00, 0.00, -0.00, -1.00, 337.5, 263.0)">e</text><text xml:space="preserve" font-family="Sonus" font-size="37.0" fill="#5D5D5D" transform="matrix(1.00, 0.00, -0.00, -1.00, 356.4, 263.0)"> </text><text xml:space="preserve" font-family="Sonus" font-size="37.0" fill="#5D5D5D" transform="matrix(1.00, 0.00, -0.00, -1.00, 364.4, 263.0)">i</text><text xml:space="preserve" font-family="Sonus" font-size="37.0" fill="#5D5D5D" transform="matrix(1.00, 0.00, -0.00, -1.00, 373.5, 263.0)">t</text><text xml:space="preserve" font-family="Sonus" font-size="37.0" fill="#5D5D5D" transform="matrix(1.00, 0.00, -0.00, -1.00, 386.0, 263.0)"> </text><text xml:space="preserve" font-family="Sonus" font-size="37.0" fill="#5D5D5D" transform="matrix(1.00, 0.00, -0.00, -1.00, 394.0, 263.0)">e</text><text xml:space="preserve" font-family="Sonus" font-size="37.0" fill="#5D5D5D" transform="matrix(1.00, 0.00, -0.00, -1.00, 412.7, 263.0)">a</text><text xml:space="preserve" font-family="Sonus" font-size="37.0" fill="#5D5D5D" transform="matrix(1.00, 0.00, -0.00, -1.00, 431.6, 263.0)">s</text><text xml:space="preserve" font-family="Sonus" font-size="37.0" fill="#5D5D5D" transform="matrix(1.00, 0.00, -0.00, -1.00, 446.9, 263.0)">y</text><text xml:space="preserve" font-family="Sonus" font-size="37.0" fill="#5D5D5D" transform="matrix(1.00, 0.00, -0.00, -1.00, 464.7, 263.0)"> </text><text xml:space="preserve" font-family="Sonus" font-size="37.0" fill="#5D5D5D" transform="matrix(1.00, 0.00, -0.00, -1.00, 472.7, 263.0)">t</text><text xml:space="preserve" font-family="Sonus" font-size="37.0" fill="#5D5D5D" transform="matrix(1.00, 0.00, -0.00, -1.00, 485.3, 263.0)">o</text><text xml:space="preserve" font-family="Sonus" font-size="37.0" fill="#5D5D5D" transform="matrix(1.00, 0.00, -0.00, -1.00, 505.7, 263.0)"> </text><text xml:space="preserve" font-family="Sonus" font-size="37.0" fill="#5D5D5D" transform="matrix(1.00, 0.00, -0.00, -1.00, 513.6, 263.0)">s</text><text xml:space="preserve" font-family="Sonus" font-size="37.0" fill="#5D5D5D" transform="matrix(1.00, 0.00, -0.00, -1.00, 529.2, 263.0)">e</text><text xml:space="preserve" font-family="Sonus" font-size="37.0" fill="#5D5D5D" transform="matrix(1.00, 0.00, -0.00, -1.00, 547.9, 263.0)">a</text><text xml:space="preserve" font-family="Sonus" font-size="37.0" fill="#5D5D5D" transform="matrix(1.00, 0.00, -0.00, -1.00, 566.8, 263.0)">r</text><text xml:space="preserve" font-family="Sonus" font-size="37.0" fill="#5D5D5D" transform="matrix(1.00, 0.00, -0.00, -1.00, 579.4, 263.0)">c</text><text xml:space="preserve" font-family="Sonus" font-size="37.0" fill="#5D5D5D" transform="matrix(1.00, 0.00, -0.00, -1.00, 596.3, 263.0)">h</text><text xml:space="preserve" font-family="Sonus" font-size="37.0" fill="#5D5D5D" transform="matrix(1.00, 0.00, -0.00, -1.00, 617.5, 263.0)"> </text><text xml:space="preserve" font-family="Sonus" font-size="37.0" fill="#5D5D5D" transform="matrix(1.00, 0.00, -0.00, -1.00, 165.0, 213.0)">I</text><text xml:space="preserve" font-family="Sonus" font-size="37.0" fill="#5D5D5D" transform="matrix(1.00, 0.00, -0.00, -1.00, 174.7, 213.0)">n</text><text xml:space="preserve" font-family="Sonus" font-size="37.0" fill="#5D5D5D" transform="matrix(1.00, 0.00, -0.00, -1.00, 195.6, 213.0)">t</text><text xml:space="preserve" font-family="Sonus" font-size="37.0" fill="#5D5D5D" transform="matrix(1.00, 0.00, -0.00, -1.00, 208.2, 213.0)">r</text><text xml:space="preserve" font-family="Sonus" font-size="37.0" fill="#5D5D5D" transform="matrix(1.00, 0.00, -0.00, -1.00, 220.8, 213.0)">o</text><text xml:space="preserve" font-family="Sonus" font-size="37.0" fill="#5D5D5D" transform="matrix(1.00, 0.00, -0.00, -1.00, 241.1, 213.0)">d</text><text xml:space="preserve" font-family="Sonus" font-size="37.0" fill="#5D5D5D" transform="matrix(1.00, 0.00, -0.00, -1.00, 262.1, 213.0)">u</text><text xml:space="preserve" font-family="Sonus" font-size="37.0" fill="#5D5D5D" transform="matrix(1.00, 0.00, -0.00, -1.00, 283.3, 213.0)">c</text><text xml:space="preserve" font-family="Sonus" font-size="37.0" fill="#5D5D5D" transform="matrix(1.00, 0.00, -0.00, -1.00, 300.1, 213.0)">e</text><text xml:space="preserve" font-family="Sonus" font-size="37.0" fill="#5D5D5D" transform="matrix(1.00, 0.00, -0.00, -1.00, 319.1, 213.0)"> </text><text xml:space="preserve" font-family="Sonus" font-size="37.0" fill="#5D5D5D" transform="matrix(1.00, 0.00, -0.00, -1.00, 327.1, 213.0)">c</text><text xml:space="preserve" font-family="Sonus" font-size="37.0" fill="#5D5D5D" transform="matrix(1.00, 0.00, -0.00, -1.00, 344.2, 213.0)">a</text><text xml:space="preserve" font-family="Sonus" font-size="37.0" fill="#5D5D5D" transform="matrix(1.00, 0.00, -0.00, -1.00, 363.0, 213.0)">n</text><text xml:space="preserve" font-family="Sonus" font-size="37.0" fill="#5D5D5D" transform="matrix(1.00, 0.00, -0.00, -1.00, 384.0, 213.0)">d</text><text xml:space="preserve" font-family="Sonus" font-size="37.0" fill="#5D5D5D" transform="matrix(1.00, 0.00, -0.00, -1.00, 404.9, 213.0)">i</text><text xml:space="preserve" font-family="Sonus" font-size="37.0" fill="#5D5D5D" transform="matrix(1.00, 0.00, -0.00, -1.00, 413.9, 213.0)">d</text><text xml:space="preserve" font-family="Sonus" font-size="37.0" fill="#5D5D5D" transform="matrix(1.00, 0.00, -0.00, -1.00, 434.9, 213.0)">a</text><text xml:space="preserve" font-family="Sonus" font-size="37.0" fill="#5D5D5D" transform="matrix(1.00, 0.00, -0.00, -1.00, 453.7, 213.0)">t</text><text xml:space="preserve" font-family="Sonus" font-size="37.0" fill="#5D5D5D" transform="matrix(1.00, 0.00, -0.00, -1.00, 466.3, 213.0)">e</text><text xml:space="preserve" font-family="Sonus" font-size="37.0" fill="#5D5D5D" transform="matrix(1.00, 0.00, -0.00, -1.00, 485.2, 213.0)">s</text><text xml:space="preserve" font-family="Sonus" font-size="37.0" fill="#5D5D5D" transform="matrix(1.00, 0.00, -0.00, -1.00, 500.6, 213.0)"> </text><text xml:space="preserve" font-family="Sonus" font-size="37.0" fill="#5D5D5D" transform="matrix(1.00, 0.00, -0.00, -1.00, 508.6, 213.0)">t</text><text xml:space="preserve" font-family="Sonus" font-size="37.0" fill="#5D5D5D" transform="matrix(1.00, 0.00, -0.00, -1.00, 521.1, 213.0)">o</text><text xml:space="preserve" font-family="Sonus" font-size="37.0" fill="#5D5D5D" transform="matrix(1.00, 0.00, -0.00, -1.00, 541.5, 213.0)"> </text><text xml:space="preserve" font-family="Sonus" font-size="37.0" fill="#5D5D5D" transform="matrix(1.00, 0.00, -0.00, -1.00, 549.5, 213.0)">e</text><text xml:space="preserve" font-family="Sonus" font-size="37.0" fill="#5D5D5D" transform="matrix(1.00, 0.00, -0.00, -1.00, 568.4, 213.0)">m</text><text xml:space="preserve" font-family="Sonus" font-size="37.0" fill="#5D5D5D" transform="matrix(1.00, 0.00, -0.00, -1.00, 600.9, 213.0)">p</text><text xml:space="preserve" font-family="Sonus" font-size="37.0" fill="#5D5D5D" transform="matrix(1.00, 0.00, -0.00, -1.00, 621.9, 213.0)">l</text><text xml:space="preserve" font-family="Sonus" font-size="37.0" fill="#5D5D5D" transform="matrix(1.00, 0.00, -0.00, -1.00, 630.9, 213.0)">o</text><text xml:space="preserve" font-family="Sonus" font-size="37.0" fill="#5D5D5D" transform="matrix(1.00, 0.00, -0.00, -1.00, 651.3, 213.0)">y</text><text xml:space="preserve" font-family="Sonus" font-size="37.0" fill="#5D5D5D" transform="matrix(1.00, 0.00, -0.00, -1.00, 669.1, 213.0)">e</text><text xml:space="preserve" font-family="Sonus" font-size="37.0" fill="#5D5D5D" transform="matrix(1.00, 0.00, -0.00, -1.00, 688.0, 213.0)">e</text><text xml:space="preserve" font-family="Sonus" font-size="37.0" fill="#5D5D5D" transform="matrix(1.00, 0.00, -0.00, -1.00, 707.0, 213.0)">s</text><text xml:space="preserve" font-family="Sonus" font-size="37.0" fill="#5D5D5D" transform="matrix(1.00, 0.00, -0.00, -1.00, 722.3, 213.0)"> </text><text xml:space="preserve" font-family="Sonus" font-size="37.0" fill="#5D5D5D" transform="matrix(1.00, 0.00, -0.00, -1.00, 77.0, 163.0)">O</text><text xml:space="preserve" font-family="Sonus" font-size="37.0" fill="#5D5D5D" transform="matrix(1.00, 0.00, -0.00, -1.00, 103.7, 163.0)">v</text><text xml:space="preserve" font-family="Sonus" font-size="37.0" fill="#5D5D5D" transform="matrix(1.00, 0.00, -0.00, -1.00, 121.2, 163.0)">e</text><text xml:space="preserve" font-family="Sonus" font-size="37.0" fill="#5D5D5D" transform="matrix(1.00, 0.00, -0.00, -1.00, 140.2, 163.0)">r</text><text xml:space="preserve" font-family="Sonus" font-size="37.0" fill="#5D5D5D" transform="matrix(1.00, 0.00, -0.00, -1.00, 153.4, 163.0)"> </text><text xml:space="preserve" font-family="Sonus" font-size="37.0" fill="#5D5D5D" transform="matrix(1.00, 0.00, -0.00, -1.00, 161.4, 163.0)">a</text><text xml:space="preserve" font-family="Sonus" font-size="37.0" fill="#5D5D5D" transform="matrix(1.00, 0.00, -0.00, -1.00, 180.3, 163.0)">n</text><text xml:space="preserve" font-family="Sonus" font-size="37.0" fill="#5D5D5D" transform="matrix(1.00, 0.00, -0.00, -1.00, 201.2, 163.0)"> </text><text xml:space="preserve" font-family="Sonus" font-size="37.0" fill="#5D5D5D" transform="matrix(1.00, 0.00, -0.00, -1.00, 209.2, 163.0)">i</text><text xml:space="preserve" font-family="Sonus" font-size="37.0" fill="#5D5D5D" transform="matrix(1.00, 0.00, -0.00, -1.00, 218.3, 163.0)">n</text><text xml:space="preserve" font-family="Sonus" font-size="37.0" fill="#5D5D5D" transform="matrix(1.00, 0.00, -0.00, -1.00, 239.2, 163.0)">s</text><text xml:space="preserve" font-family="Sonus" font-size="37.0" fill="#5D5D5D" transform="matrix(1.00, 0.00, -0.00, -1.00, 254.6, 163.0)">i</text><text xml:space="preserve" font-family="Sonus" font-size="37.0" fill="#5D5D5D" transform="matrix(1.00, 0.00, -0.00, -1.00, 263.6, 163.0)">d</text><text xml:space="preserve" font-family="Sonus" font-size="37.0" fill="#5D5D5D" transform="matrix(1.00, 0.00, -0.00, -1.00, 284.5, 163.0)">e</text><text xml:space="preserve" font-family="Sonus" font-size="37.0" fill="#5D5D5D" transform="matrix(1.00, 0.00, -0.00, -1.00, 303.5, 163.0)"> </text><text xml:space="preserve" font-family="Sonus" font-size="37.0" fill="#5D5D5D" transform="matrix(1.00, 0.00, -0.00, -1.00, 311.5, 163.0)">l</text><text xml:space="preserve" font-family="Sonus" font-size="37.0" fill="#5D5D5D" transform="matrix(1.00, 0.00, -0.00, -1.00, 320.5, 163.0)">o</text><text xml:space="preserve" font-family="Sonus" font-size="37.0" fill="#5D5D5D" transform="matrix(1.00, 0.00, -0.00, -1.00, 340.9, 163.0)">o</text><text xml:space="preserve" font-family="Sonus" font-size="37.0" fill="#5D5D5D" transform="matrix(1.00, 0.00, -0.00, -1.00, 361.3, 163.0)">k</text><text xml:space="preserve" font-family="Sonus" font-size="37.0" fill="#5D5D5D" transform="matrix(1.00, 0.00, -0.00, -1.00, 380.1, 163.0)"> </text><text xml:space="preserve" font-family="Sonus" font-size="37.0" fill="#5D5D5D" transform="matrix(1.00, 0.00, -0.00, -1.00, 388.1, 163.0)">a</text><text xml:space="preserve" font-family="Sonus" font-size="37.0" fill="#5D5D5D" transform="matrix(1.00, 0.00, -0.00, -1.00, 407.0, 163.0)">t</text><text xml:space="preserve" font-family="Sonus" font-size="37.0" fill="#5D5D5D" transform="matrix(1.00, 0.00, -0.00, -1.00, 419.5, 163.0)"> </text><text xml:space="preserve" font-family="Sonus" font-size="37.0" fill="#5D5D5D" transform="matrix(1.00, 0.00, -0.00, -1.00, 427.5, 163.0)">w</text><text xml:space="preserve" font-family="Sonus" font-size="37.0" fill="#5D5D5D" transform="matrix(1.00, 0.00, -0.00, -1.00, 454.2, 163.0)">o</text><text xml:space="preserve" font-family="Sonus" font-size="37.0" fill="#5D5D5D" transform="matrix(1.00, 0.00, -0.00, -1.00, 474.6, 163.0)">r</text><text xml:space="preserve" font-family="Sonus" font-size="37.0" fill="#5D5D5D" transform="matrix(1.00, 0.00, -0.00, -1.00, 487.8, 163.0)">k</text><text xml:space="preserve" font-family="Sonus" font-size="37.0" fill="#5D5D5D" transform="matrix(1.00, 0.00, -0.00, -1.00, 506.7, 163.0)">i</text><text xml:space="preserve" font-family="Sonus" font-size="37.0" fill="#5D5D5D" transform="matrix(1.00, 0.00, -0.00, -1.00, 515.7, 163.0)">n</text><text xml:space="preserve" font-family="Sonus" font-size="37.0" fill="#5D5D5D" transform="matrix(1.00, 0.00, -0.00, -1.00, 536.9, 163.0)">g</text><text xml:space="preserve" font-family="Sonus" font-size="37.0" fill="#5D5D5D" transform="matrix(1.00, 0.00, -0.00, -1.00, 555.6, 163.0)"> </text><text xml:space="preserve" font-family="Sonus" font-size="37.0" fill="#5D5D5D" transform="matrix(1.00, 0.00, -0.00, -1.00, 563.6, 163.0)">a</text><text xml:space="preserve" font-family="Sonus" font-size="37.0" fill="#5D5D5D" transform="matrix(1.00, 0.00, -0.00, -1.00, 582.5, 163.0)">t</text><text xml:space="preserve" font-family="Sonus" font-size="37.0" fill="#5D5D5D" transform="matrix(1.00, 0.00, -0.00, -1.00, 595.0, 163.0)"> </text><text xml:space="preserve" font-family="Sonus" font-size="37.0" fill="#5D5D5D" transform="matrix(1.00, 0.00, -0.00, -1.00, 603.0, 163.0)">t</text><text xml:space="preserve" font-family="Sonus" font-size="37.0" fill="#5D5D5D" transform="matrix(1.00, 0.00, -0.00, -1.00, 615.6, 163.0)">h</text><text xml:space="preserve" font-family="Sonus" font-size="37.0" fill="#5D5D5D" transform="matrix(1.00, 0.00, -0.00, -1.00, 636.7, 163.0)">e</text><text xml:space="preserve" font-family="Sonus" font-size="37.0" fill="#5D5D5D" transform="matrix(1.00, 0.00, -0.00, -1.00, 655.7, 163.0)"> </text><text xml:space="preserve" font-family="Sonus" font-size="37.0" fill="#5D5D5D" transform="matrix(1.00, 0.00, -0.00, -1.00, 663.7, 163.0)">c</text><text xml:space="preserve" font-family="Sonus" font-size="37.0" fill="#5D5D5D" transform="matrix(1.00, 0.00, -0.00, -1.00, 680.5, 163.0)">o</text><text xml:space="preserve" font-family="Sonus" font-size="37.0" fill="#5D5D5D" transform="matrix(1.00, 0.00, -0.00, -1.00, 700.9, 163.0)">m</text><text xml:space="preserve" font-family="Sonus" font-size="37.0" fill="#5D5D5D" transform="matrix(1.00, 0.00, -0.00, -1.00, 733.4, 163.0)">p</text><text xml:space="preserve" font-family="Sonus" font-size="37.0" fill="#5D5D5D" transform="matrix(1.00, 0.00, -0.00, -1.00, 754.4, 163.0)">a</text><text xml:space="preserve" font-family="Sonus" font-size="37.0" fill="#5D5D5D" transform="matrix(1.00, 0.00, -0.00, -1.00, 773.2, 163.0)">n</text><text xml:space="preserve" font-family="Sonus" font-size="37.0" fill="#5D5D5D" transform="matrix(1.00, 0.00, -0.00, -1.00, 794.0, 163.0)">y</text><text xml:space="preserve" font-family="Sonus" font-size="37.0" fill="#5D5D5D" transform="matrix(1.00, 0.00, -0.00, -1.00, 811.8, 163.0)"> </text><text xml:space="preserve" font-family="Sonus" font-size="37.0" fill="#5D5D5D" transform="matrix(1.00, 0.00, -0.00, -1.00, -1.0, 112.0)">E</text><text xml:space="preserve" font-family="Sonus" font-size="37.0" fill="#5D5D5D" transform="matrix(1.00, 0.00, -0.00, -1.00, 18.9, 112.0)">n</text><text xml:space="preserve" font-family="Sonus" font-size="37.0" fill="#5D5D5D" transform="matrix(1.00, 0.00, -0.00, -1.00, 39.8, 112.0)">c</text><text xml:space="preserve" font-family="Sonus" font-size="37.0" fill="#5D5D5D" transform="matrix(1.00, 0.00, -0.00, -1.00, 56.7, 112.0)">o</text><text xml:space="preserve" font-family="Sonus" font-size="37.0" fill="#5D5D5D" transform="matrix(1.00, 0.00, -0.00, -1.00, 77.1, 112.0)">u</text><text xml:space="preserve" font-family="Sonus" font-size="37.0" fill="#5D5D5D" transform="matrix(1.00, 0.00, -0.00, -1.00, 98.3, 112.0)">r</text><text xml:space="preserve" font-family="Sonus" font-size="37.0" fill="#5D5D5D" transform="matrix(1.00, 0.00, -0.00, -1.00, 111.0, 112.0)">a</text><text xml:space="preserve" font-family="Sonus" font-size="37.0" fill="#5D5D5D" transform="matrix(1.00, 0.00, -0.00, -1.00, 130.1, 112.0)">g</text><text xml:space="preserve" font-family="Sonus" font-size="37.0" fill="#5D5D5D" transform="matrix(1.00, 0.00, -0.00, -1.00, 149.0, 112.0)">e</text><text xml:space="preserve" font-family="Sonus" font-size="37.0" fill="#5D5D5D" transform="matrix(1.00, 0.00, -0.00, -1.00, 168.0, 112.0)"> </text><text xml:space="preserve" font-family="Sonus" font-size="37.0" fill="#5D5D5D" transform="matrix(1.00, 0.00, -0.00, -1.00, 176.0, 112.0)">u</text><text xml:space="preserve" font-family="Sonus" font-size="37.0" fill="#5D5D5D" transform="matrix(1.00, 0.00, -0.00, -1.00, 197.1, 112.0)">n</text><text xml:space="preserve" font-family="Sonus" font-size="37.0" fill="#5D5D5D" transform="matrix(1.00, 0.00, -0.00, -1.00, 218.1, 112.0)">c</text><text xml:space="preserve" font-family="Sonus" font-size="37.0" fill="#5D5D5D" transform="matrix(1.00, 0.00, -0.00, -1.00, 234.9, 112.0)">e</text><text xml:space="preserve" font-family="Sonus" font-size="37.0" fill="#5D5D5D" transform="matrix(1.00, 0.00, -0.00, -1.00, 253.9, 112.0)">r</text><text xml:space="preserve" font-family="Sonus" font-size="37.0" fill="#5D5D5D" transform="matrix(1.00, 0.00, -0.00, -1.00, 267.5, 112.0)">t</text><text xml:space="preserve" font-family="Sonus" font-size="37.0" fill="#5D5D5D" transform="matrix(1.00, 0.00, -0.00, -1.00, 280.3, 112.0)">a</text><text xml:space="preserve" font-family="Sonus" font-size="37.0" fill="#5D5D5D" transform="matrix(1.00, 0.00, -0.00, -1.00, 299.1, 112.0)">i</text><text xml:space="preserve" font-family="Sonus" font-size="37.0" fill="#5D5D5D" transform="matrix(1.00, 0.00, -0.00, -1.00, 308.2, 112.0)">n</text><text xml:space="preserve" font-family="Sonus" font-size="37.0" fill="#5D5D5D" transform="matrix(1.00, 0.00, -0.00, -1.00, 329.1, 112.0)"> </text><text xml:space="preserve" font-family="Sonus" font-size="37.0" fill="#5D5D5D" transform="matrix(1.00, 0.00, -0.00, -1.00, 337.1, 112.0)">c</text><text xml:space="preserve" font-family="Sonus" font-size="37.0" fill="#5D5D5D" transform="matrix(1.00, 0.00, -0.00, -1.00, 354.2, 112.0)">a</text><text xml:space="preserve" font-family="Sonus" font-size="37.0" fill="#5D5D5D" transform="matrix(1.00, 0.00, -0.00, -1.00, 373.1, 112.0)">n</text><text xml:space="preserve" font-family="Sonus" font-size="37.0" fill="#5D5D5D" transform="matrix(1.00, 0.00, -0.00, -1.00, 394.0, 112.0)">d</text><text xml:space="preserve" font-family="Sonus" font-size="37.0" fill="#5D5D5D" transform="matrix(1.00, 0.00, -0.00, -1.00, 415.0, 112.0)">i</text><text xml:space="preserve" font-family="Sonus" font-size="37.0" fill="#5D5D5D" transform="matrix(1.00, 0.00, -0.00, -1.00, 424.0, 112.0)">d</text><text xml:space="preserve" font-family="Sonus" font-size="37.0" fill="#5D5D5D" transform="matrix(1.00, 0.00, -0.00, -1.00, 444.9, 112.0)">a</text><text xml:space="preserve" font-family="Sonus" font-size="37.0" fill="#5D5D5D" transform="matrix(1.00, 0.00, -0.00, -1.00, 463.8, 112.0)">t</text><text xml:space="preserve" font-family="Sonus" font-size="37.0" fill="#5D5D5D" transform="matrix(1.00, 0.00, -0.00, -1.00, 476.3, 112.0)">e</text><text xml:space="preserve" font-family="Sonus" font-size="37.0" fill="#5D5D5D" transform="matrix(1.00, 0.00, -0.00, -1.00, 495.3, 112.0)">s</text><text xml:space="preserve" font-family="Sonus" font-size="37.0" fill="#5D5D5D" transform="matrix(1.00, 0.00, -0.00, -1.00, 510.6, 112.0)"> </text><text xml:space="preserve" font-family="Sonus" font-size="37.0" fill="#5D5D5D" transform="matrix(1.00, 0.00, -0.00, -1.00, 518.6, 112.0)">t</text><text xml:space="preserve" font-family="Sonus" font-size="37.0" fill="#5D5D5D" transform="matrix(1.00, 0.00, -0.00, -1.00, 531.2, 112.0)">o</text><text xml:space="preserve" font-family="Sonus" font-size="37.0" fill="#5D5D5D" transform="matrix(1.00, 0.00, -0.00, -1.00, 551.6, 112.0)"> </text><text xml:space="preserve" font-family="Sonus" font-size="37.0" fill="#5D5D5D" transform="matrix(1.00, 0.00, -0.00, -1.00, 559.6, 112.0)">e</text><text xml:space="preserve" font-family="Sonus" font-size="37.0" fill="#5D5D5D" transform="matrix(1.00, 0.00, -0.00, -1.00, 578.4, 112.0)">x</text><text xml:space="preserve" font-family="Sonus" font-size="37.0" fill="#5D5D5D" transform="matrix(1.00, 0.00, -0.00, -1.00, 596.7, 112.0)">p</text><text xml:space="preserve" font-family="Sonus" font-size="37.0" fill="#5D5D5D" transform="matrix(1.00, 0.00, -0.00, -1.00, 617.6, 112.0)">l</text><text xml:space="preserve" font-family="Sonus" font-size="37.0" fill="#5D5D5D" transform="matrix(1.00, 0.00, -0.00, -1.00, 626.6, 112.0)">o</text><text xml:space="preserve" font-family="Sonus" font-size="37.0" fill="#5D5D5D" transform="matrix(1.00, 0.00, -0.00, -1.00, 647.0, 112.0)">r</text><text xml:space="preserve" font-family="Sonus" font-size="37.0" fill="#5D5D5D" transform="matrix(1.00, 0.00, -0.00, -1.00, 659.6, 112.0)">e</text><text xml:space="preserve" font-family="Sonus" font-size="37.0" fill="#5D5D5D" transform="matrix(1.00, 0.00, -0.00, -1.00, 678.5, 112.0)"> </text><text xml:space="preserve" font-family="Sonus" font-size="37.0" fill="#5D5D5D" transform="matrix(1.00, 0.00, -0.00, -1.00, 686.5, 112.0)">t</text><text xml:space="preserve" font-family="Sonus" font-size="37.0" fill="#5D5D5D" transform="matrix(1.00, 0.00, -0.00, -1.00, 699.1, 112.0)">h</text><text xml:space="preserve" font-family="Sonus" font-size="37.0" fill="#5D5D5D" transform="matrix(1.00, 0.00, -0.00, -1.00, 720.2, 112.0)">e</text><text xml:space="preserve" font-family="Sonus" font-size="37.0" fill="#5D5D5D" transform="matrix(1.00, 0.00, -0.00, -1.00, 739.2, 112.0)">i</text><text xml:space="preserve" font-family="Sonus" font-size="37.0" fill="#5D5D5D" transform="matrix(1.00, 0.00, -0.00, -1.00, 748.2, 112.0)">r</text><text xml:space="preserve" font-family="Sonus" font-size="37.0" fill="#5D5D5D" transform="matrix(1.00, 0.00, -0.00, -1.00, 761.5, 112.0)"> </text><text xml:space="preserve" font-family="Sonus" font-size="37.0" fill="#5D5D5D" transform="matrix(1.00, 0.00, -0.00, -1.00, 769.5, 112.0)">o</text><text xml:space="preserve" font-family="Sonus" font-size="37.0" fill="#5D5D5D" transform="matrix(1.00, 0.00, -0.00, -1.00, 789.9, 112.0)">p</text><text xml:space="preserve" font-family="Sonus" font-size="37.0" fill="#5D5D5D" transform="matrix(1.00, 0.00, -0.00, -1.00, 810.8, 112.0)">t</text><text xml:space="preserve" font-family="Sonus" font-size="37.0" fill="#5D5D5D" transform="matrix(1.00, 0.00, -0.00, -1.00, 823.4, 112.0)">i</text><text xml:space="preserve" font-family="Sonus" font-size="37.0" fill="#5D5D5D" transform="matrix(1.00, 0.00, -0.00, -1.00, 832.4, 112.0)">o</text><text xml:space="preserve" font-family="Sonus" font-size="37.0" fill="#5D5D5D" transform="matrix(1.00, 0.00, -0.00, -1.00, 852.8, 112.0)">n</text><text xml:space="preserve" font-family="Sonus" font-size="37.0" fill="#5D5D5D" transform="matrix(1.00, 0.00, -0.00, -1.00, 873.7, 112.0)">s</text><text xml:space="preserve" font-family="Sonus" font-size="37.0" fill="#5D5D5D" transform="matrix(1.00, 0.00, -0.00, -1.00, 889.1, 112.0)"> </text><text xml:space="preserve" font-family="Sonus" font-size="37.0" fill="#5D5D5D" transform="matrix(1.00, 0.00, -0.00, -1.00, 287.0, 62.0)">R</text><text xml:space="preserve" font-family="Sonus" font-size="37.0" fill="#5D5D5D" transform="matrix(1.00, 0.00, -0.00, -1.00, 309.3, 62.0)">e</text><text xml:space="preserve" font-family="Sonus" font-size="37.0" fill="#5D5D5D" transform="matrix(1.00, 0.00, -0.00, -1.00, 328.3, 62.0)">c</text><text xml:space="preserve" font-family="Sonus" font-size="37.0" fill="#5D5D5D" transform="matrix(1.00, 0.00, -0.00, -1.00, 345.7, 62.0)">r</text><text xml:space="preserve" font-family="Sonus" font-size="37.0" fill="#5D5D5D" transform="matrix(1.00, 0.00, -0.00, -1.00, 359.0, 62.0)">u</text><text xml:space="preserve" font-family="Sonus" font-size="37.0" fill="#5D5D5D" transform="matrix(1.00, 0.00, -0.00, -1.00, 380.1, 62.0)">i</text><text xml:space="preserve" font-family="Sonus" font-size="37.0" fill="#5D5D5D" transform="matrix(1.00, 0.00, -0.00, -1.00, 389.2, 62.0)">t</text><text xml:space="preserve" font-family="Sonus" font-size="37.0" fill="#5D5D5D" transform="matrix(1.00, 0.00, -0.00, -1.00, 401.7, 62.0)">m</text><text xml:space="preserve" font-family="Sonus" font-size="37.0" fill="#5D5D5D" transform="matrix(1.00, 0.00, -0.00, -1.00, 434.2, 62.0)">e</text><text xml:space="preserve" font-family="Sonus" font-size="37.0" fill="#5D5D5D" transform="matrix(1.00, 0.00, -0.00, -1.00, 453.1, 62.0)">n</text><text xml:space="preserve" font-family="Sonus" font-size="37.0" fill="#5D5D5D" transform="matrix(1.00, 0.00, -0.00, -1.00, 474.1, 62.0)">t</text><text xml:space="preserve" font-family="Sonus" font-size="37.0" fill="#5D5D5D" transform="matrix(1.00, 0.00, -0.00, -1.00, 486.6, 62.0)"> </text><text xml:space="preserve" font-family="Sonus" font-size="37.0" fill="#5D5D5D" transform="matrix(1.00, 0.00, -0.00, -1.00, 494.6, 62.0)">E</text><text xml:space="preserve" font-family="Sonus" font-size="37.0" fill="#5D5D5D" transform="matrix(1.00, 0.00, -0.00, -1.00, 514.9, 62.0)">v</text><text xml:space="preserve" font-family="Sonus" font-size="37.0" fill="#5D5D5D" transform="matrix(1.00, 0.00, -0.00, -1.00, 532.4, 62.0)">e</text><text xml:space="preserve" font-family="Sonus" font-size="37.0" fill="#5D5D5D" transform="matrix(1.00, 0.00, -0.00, -1.00, 551.3, 62.0)">n</text><text xml:space="preserve" font-family="Sonus" font-size="37.0" fill="#5D5D5D" transform="matrix(1.00, 0.00, -0.00, -1.00, 572.3, 62.0)">t</text><text xml:space="preserve" font-family="Sonus" font-size="37.0" fill="#5D5D5D" transform="matrix(1.00, 0.00, -0.00, -1.00, 585.0, 62.0)">s</text><text xml:space="preserve" font-family="Sonus" font-size="37.0" fill="#5D5D5D" transform="matrix(1.00, 0.00, -0.00, -1.00, 600.4, 62.0)"> </text><text xml:space="preserve" font-family="Sonus" font-size="37.0" fill="#5D5D5D" transform="matrix(1.00, 0.00, -0.00, -1.00, 173.0, 11.0)">S</text><text xml:space="preserve" font-family="Sonus" font-size="37.0" fill="#5D5D5D" transform="matrix(1.00, 0.00, -0.00, -1.00, 192.4, 11.0)">t</text><text xml:space="preserve" font-family="Sonus" font-size="37.0" fill="#5D5D5D" transform="matrix(1.00, 0.00, -0.00, -1.00, 204.9, 11.0)">r</text><text xml:space="preserve" font-family="Sonus" font-size="37.0" fill="#5D5D5D" transform="matrix(1.00, 0.00, -0.00, -1.00, 217.7, 11.0)">a</text><text xml:space="preserve" font-family="Sonus" font-size="37.0" fill="#5D5D5D" transform="matrix(1.00, 0.00, -0.00, -1.00, 236.6, 11.0)">i</text><text xml:space="preserve" font-family="Sonus" font-size="37.0" fill="#5D5D5D" transform="matrix(1.00, 0.00, -0.00, -1.00, 245.6, 11.0)">g</text><text xml:space="preserve" font-family="Sonus" font-size="37.0" fill="#5D5D5D" transform="matrix(1.00, 0.00, -0.00, -1.00, 264.4, 11.0)">h</text><text xml:space="preserve" font-family="Sonus" font-size="37.0" fill="#5D5D5D" transform="matrix(1.00, 0.00, -0.00, -1.00, 285.5, 11.0)">t</text><text xml:space="preserve" font-family="Sonus" font-size="37.0" fill="#5D5D5D" transform="matrix(1.00, 0.00, -0.00, -1.00, 298.1, 11.0)">f</text><text xml:space="preserve" font-family="Sonus" font-size="37.0" fill="#5D5D5D" transform="matrix(1.00, 0.00, -0.00, -1.00, 309.9, 11.0)">o</text><text xml:space="preserve" font-family="Sonus" font-size="37.0" fill="#5D5D5D" transform="matrix(1.00, 0.00, -0.00, -1.00, 330.3, 11.0)">r</text><text xml:space="preserve" font-family="Sonus" font-size="37.0" fill="#5D5D5D" transform="matrix(1.00, 0.00, -0.00, -1.00, 344.2, 11.0)">w</text><text xml:space="preserve" font-family="Sonus" font-size="37.0" fill="#5D5D5D" transform="matrix(1.00, 0.00, -0.00, -1.00, 370.7, 11.0)">a</text><text xml:space="preserve" font-family="Sonus" font-size="37.0" fill="#5D5D5D" transform="matrix(1.00, 0.00, -0.00, -1.00, 389.6, 11.0)">r</text><text xml:space="preserve" font-family="Sonus" font-size="37.0" fill="#5D5D5D" transform="matrix(1.00, 0.00, -0.00, -1.00, 402.2, 11.0)">d</text><text xml:space="preserve" font-family="Sonus" font-size="37.0" fill="#5D5D5D" transform="matrix(1.00, 0.00, -0.00, -1.00, 423.1, 11.0)"> </text><text xml:space="preserve" font-family="Sonus" font-size="37.0" fill="#5D5D5D" transform="matrix(1.00, 0.00, -0.00, -1.00, 431.1, 11.0)">s</text><text xml:space="preserve" font-family="Sonus" font-size="37.0" fill="#5D5D5D" transform="matrix(1.00, 0.00, -0.00, -1.00, 446.7, 11.0)">e</text><text xml:space="preserve" font-family="Sonus" font-size="37.0" fill="#5D5D5D" transform="matrix(1.00, 0.00, -0.00, -1.00, 465.6, 11.0)">l</text><text xml:space="preserve" font-family="Sonus" font-size="37.0" fill="#5D5D5D" transform="matrix(1.00, 0.00, -0.00, -1.00, 474.7, 11.0)">f</text><text xml:space="preserve" font-family="Sonus" font-size="37.0" fill="#5D5D5D" transform="matrix(1.00, 0.00, -0.00, -1.00, 487.6, 11.0)"> </text><text xml:space="preserve" font-family="Sonus" font-size="37.0" fill="#5D5D5D" transform="matrix(1.00, 0.00, -0.00, -1.00, 495.6, 11.0)">s</text><text xml:space="preserve" font-family="Sonus" font-size="37.0" fill="#5D5D5D" transform="matrix(1.00, 0.00, -0.00, -1.00, 511.2, 11.0)">e</text><text xml:space="preserve" font-family="Sonus" font-size="37.0" fill="#5D5D5D" transform="matrix(1.00, 0.00, -0.00, -1.00, 530.2, 11.0)">g</text><text xml:space="preserve" font-family="Sonus" font-size="37.0" fill="#5D5D5D" transform="matrix(1.00, 0.00, -0.00, -1.00, 549.1, 11.0)">m</text><text xml:space="preserve" font-family="Sonus" font-size="37.0" fill="#5D5D5D" transform="matrix(1.00, 0.00, -0.00, -1.00, 581.6, 11.0)">e</text><text xml:space="preserve" font-family="Sonus" font-size="37.0" fill="#5D5D5D" transform="matrix(1.00, 0.00, -0.00, -1.00, 600.5, 11.0)">n</text><text xml:space="preserve" font-family="Sonus" font-size="37.0" fill="#5D5D5D" transform="matrix(1.00, 0.00, -0.00, -1.00, 621.4, 11.0)">t</text><text xml:space="preserve" font-family="Sonus" font-size="37.0" fill="#5D5D5D" transform="matrix(1.00, 0.00, -0.00, -1.00, 634.2, 11.0)">a</text><text xml:space="preserve" font-family="Sonus" font-size="37.0" fill="#5D5D5D" transform="matrix(1.00, 0.00, -0.00, -1.00, 653.0, 11.0)">t</text><text xml:space="preserve" font-family="Sonus" font-size="37.0" fill="#5D5D5D" transform="matrix(1.00, 0.00, -0.00, -1.00, 665.6, 11.0)">i</text><text xml:space="preserve" font-family="Sonus" font-size="37.0" fill="#5D5D5D" transform="matrix(1.00, 0.00, -0.00, -1.00, 674.6, 11.0)">o</text><text xml:space="preserve" font-family="Sonus" font-size="37.0" fill="#5D5D5D" transform="matrix(1.00, 0.00, -0.00, -1.00, 695.0, 11.0)">n</text><text xml:space="preserve" font-family="Sonus" font-size="37.0" fill="#5D5D5D" transform="matrix(1.00, 0.00, -0.00, -1.00, 715.9, 11.0)"> </text></g></svg>