<?xml version="1.0" encoding="UTF-8" standalone="no"?><svg xmlns="http://www.w3.org/2000/svg" xmlns:xlink="http://www.w3.org/1999/xlink" clip-rule="evenodd" stroke-miterlimit="4.00" viewBox="0 0 1280 720"><desc>SVG generated by Keynote</desc><defs></defs><g transform="matrix(1.00, 0.00, -0.00, -1.00, 0.0, 720.0)"><path d="M 0.0 720.0 L 1280.0 720.0 L 1280.0 0.0 L 0.0 0.0 Z M 0.0 720.0 " fill="#FEFFFF"></path><path d="M 175.4 721.0 L 1105.1 721.0 L 1105.1 703.5 L 175.4 703.5 Z M 175.4 721.0 " fill="#EF6823"></path><g><clipPath id="clip-19245"><path d="M 175.0 36.0 L 231.0 36.0 L 231.0 92.0 L 175.0 92.0 Z M 175.0 36.0 "></path></clipPath><g clip-path="url(#clip-19245)"><path d="M 200.7 81.9 C 190.8 80.6 183.8 71.6 185.1 61.7 C 186.4 51.8 195.4 44.8 205.3 46.1 C 215.2 47.4 222.2 56.4 220.9 66.3 C 219.6 76.2 210.6 83.2 200.7 81.9 M 212.4 67.3 L 209.5 57.8 C 208.1 53.4 211.0 54.6 211.0 54.6 C 211.0 54.6 210.5 52.9 208.1 52.9 C 206.5 52.9 205.6 54.0 205.8 56.1 C 205.8 56.1 205.8 56.3 205.8 56.3 C 205.9 56.9 206.4 58.5 206.4 58.5 C 206.5 58.8 208.6 65.9 208.6 65.9 C 209.0 67.1 209.4 68.2 209.4 68.6 C 209.3 68.9 209.1 69.0 208.9 69.0 C 208.3 69.0 207.3 68.4 206.4 67.2 L 203.3 57.5 L 199.9 57.5 L 202.7 65.9 C 203.1 67.1 203.4 68.2 203.4 68.6 C 203.4 68.9 203.2 69.0 202.9 69.0 C 202.3 69.0 201.4 68.4 200.5 67.3 L 197.3 57.5 L 194.7 57.5 L 194.1 57.5 C 194.1 57.5 193.7 57.5 194.0 57.9 C 194.1 58.0 194.2 58.2 194.3 58.4 C 195.8 61.3 197.9 69.2 197.9 69.2 C 194.9 68.2 192.4 67.6 192.5 66.1 C 192.5 65.6 192.8 65.3 193.1 65.2 C 193.3 65.1 193.5 64.9 193.1 64.8 C 191.9 64.6 189.8 64.3 189.7 66.0 C 189.4 69.1 198.0 70.4 198.8 72.4 C 198.9 72.6 199.0 72.6 199.0 72.6 C 199.0 72.6 200.4 72.6 200.6 72.6 C 201.0 72.6 201.8 72.4 201.2 70.9 L 200.8 69.8 C 202.0 71.5 204.0 72.4 205.0 72.4 C 206.2 72.4 206.9 71.4 207.0 70.4 C 208.3 71.7 209.9 72.4 211.0 72.4 C 212.3 72.4 212.9 71.3 213.0 70.1 C 213.0 69.4 212.8 68.5 212.4 67.3 " fill="#D2D1D1"></path><path d="M 230.3 57.8 C 230.7 59.4 230.9 61.1 231.0 62.8 L 226.8 64.5 L 226.2 69.5 L 229.8 72.3 C 229.3 73.9 228.6 75.5 227.9 76.9 L 223.3 76.4 L 220.3 80.4 L 222.1 84.6 C 220.8 85.7 219.5 86.7 218.1 87.6 L 214.4 84.9 L 209.8 86.8 L 209.2 91.3 C 207.6 91.7 205.9 91.9 204.2 92.0 L 202.5 87.8 L 197.5 87.2 L 194.7 90.8 C 193.1 90.3 191.5 89.6 190.1 88.9 L 190.6 84.3 L 186.6 81.3 L 182.5 83.0 C 181.3 81.8 180.3 80.5 179.4 79.1 L 182.1 75.4 L 180.2 70.8 L 175.7 70.2 C 175.3 68.6 175.1 66.9 175.0 65.2 L 179.2 63.5 L 179.8 58.5 L 176.2 55.7 C 176.7 54.1 177.4 52.5 178.1 51.1 L 182.7 51.6 L 185.7 47.6 L 183.9 43.5 C 185.2 42.3 186.5 41.3 187.9 40.4 L 191.6 43.1 L 196.2 41.2 L 196.8 36.7 C 198.4 36.3 200.1 36.1 201.8 36.0 L 203.5 40.2 L 208.5 40.8 L 211.3 37.2 C 212.9 37.7 214.5 38.4 215.9 39.1 L 215.4 43.7 L 219.4 46.7 L 223.5 45.0 C 224.7 46.2 225.7 47.5 226.6 48.9 L 223.9 52.6 L 225.8 57.2 Z M 205.7 42.9 C 194.1 41.4 183.4 49.7 181.9 61.3 C 180.4 72.9 188.7 83.6 200.3 85.1 C 211.9 86.6 222.6 78.3 224.1 66.7 C 225.6 55.1 217.3 44.4 205.7 42.9 " fill="#D2D1D1"></path></g></g><text xml:space="preserve" font-family="Sonus-Bold" font-weight="bold" font-size="37.0" fill="#000000" transform="matrix(1.00, 0.00, -0.00, -1.00, 316.0, 460.0)">M</text><text xml:space="preserve" font-family="Sonus-Bold" font-weight="bold" font-size="37.0" fill="#000000" transform="matrix(1.00, 0.00, -0.00, -1.00, 347.2, 460.0)">o</text><text xml:space="preserve" font-family="Sonus-Bold" font-weight="bold" font-size="37.0" fill="#000000" transform="matrix(1.00, 0.00, -0.00, -1.00, 368.7, 460.0)">t</text><text xml:space="preserve" font-family="Sonus-Bold" font-weight="bold" font-size="37.0" fill="#000000" transform="matrix(1.00, 0.00, -0.00, -1.00, 382.4, 460.0)">i</text><text xml:space="preserve" font-family="Sonus-Bold" font-weight="bold" font-size="37.0" fill="#000000" transform="matrix(1.00, 0.00, -0.00, -1.00, 392.7, 460.0)">v</text><text xml:space="preserve" font-family="Sonus-Bold" font-weight="bold" font-size="37.0" fill="#000000" transform="matrix(1.00, 0.00, -0.00, -1.00, 412.3, 460.0)">a</text><text xml:space="preserve" font-family="Sonus-Bold" font-weight="bold" font-size="37.0" fill="#000000" transform="matrix(1.00, 0.00, -0.00, -1.00, 432.1, 460.0)">t</text><text xml:space="preserve" font-family="Sonus-Bold" font-weight="bold" font-size="37.0" fill="#000000" transform="matrix(1.00, 0.00, -0.00, -1.00, 445.8, 460.0)">e</text><text xml:space="preserve" font-family="Sonus-Bold" font-weight="bold" font-size="37.0" fill="#000000" transform="matrix(1.00, 0.00, -0.00, -1.00, 465.6, 460.0)"> </text><text xml:space="preserve" font-family="Sonus-Bold" font-weight="bold" font-size="37.0" fill="#000000" transform="matrix(1.00, 0.00, -0.00, -1.00, 473.5, 460.0)">p</text><text xml:space="preserve" font-family="Sonus-Bold" font-weight="bold" font-size="37.0" fill="#000000" transform="matrix(1.00, 0.00, -0.00, -1.00, 495.7, 460.0)">o</text><text xml:space="preserve" font-family="Sonus-Bold" font-weight="bold" font-size="37.0" fill="#000000" transform="matrix(1.00, 0.00, -0.00, -1.00, 517.2, 460.0)">t</text><text xml:space="preserve" font-family="Sonus-Bold" font-weight="bold" font-size="37.0" fill="#000000" transform="matrix(1.00, 0.00, -0.00, -1.00, 530.9, 460.0)">e</text><text xml:space="preserve" font-family="Sonus-Bold" font-weight="bold" font-size="37.0" fill="#000000" transform="matrix(1.00, 0.00, -0.00, -1.00, 550.7, 460.0)">n</text><text xml:space="preserve" font-family="Sonus-Bold" font-weight="bold" font-size="37.0" fill="#000000" transform="matrix(1.00, 0.00, -0.00, -1.00, 572.7, 460.0)">t</text><text xml:space="preserve" font-family="Sonus-Bold" font-weight="bold" font-size="37.0" fill="#000000" transform="matrix(1.00, 0.00, -0.00, -1.00, 586.4, 460.0)">i</text><text xml:space="preserve" font-family="Sonus-Bold" font-weight="bold" font-size="37.0" fill="#000000" transform="matrix(1.00, 0.00, -0.00, -1.00, 596.8, 460.0)">a</text><text xml:space="preserve" font-family="Sonus-Bold" font-weight="bold" font-size="37.0" fill="#000000" transform="matrix(1.00, 0.00, -0.00, -1.00, 616.6, 460.0)">l</text><text xml:space="preserve" font-family="Sonus-Bold" font-weight="bold" font-size="37.0" fill="#000000" transform="matrix(1.00, 0.00, -0.00, -1.00, 626.9, 460.0)"> </text><text xml:space="preserve" font-family="Sonus-Bold" font-weight="bold" font-size="37.0" fill="#000000" transform="matrix(1.00, 0.00, -0.00, -1.00, 634.9, 460.0)">c</text><text xml:space="preserve" font-family="Sonus-Bold" font-weight="bold" font-size="37.0" fill="#000000" transform="matrix(1.00, 0.00, -0.00, -1.00, 652.5, 460.0)">a</text><text xml:space="preserve" font-family="Sonus-Bold" font-weight="bold" font-size="37.0" fill="#000000" transform="matrix(1.00, 0.00, -0.00, -1.00, 672.3, 460.0)">n</text><text xml:space="preserve" font-family="Sonus-Bold" font-weight="bold" font-size="37.0" fill="#000000" transform="matrix(1.00, 0.00, -0.00, -1.00, 694.3, 460.0)">d</text><text xml:space="preserve" font-family="Sonus-Bold" font-weight="bold" font-size="37.0" fill="#000000" transform="matrix(1.00, 0.00, -0.00, -1.00, 716.5, 460.0)">i</text><text xml:space="preserve" font-family="Sonus-Bold" font-weight="bold" font-size="37.0" fill="#000000" transform="matrix(1.00, 0.00, -0.00, -1.00, 726.8, 460.0)">d</text><text xml:space="preserve" font-family="Sonus-Bold" font-weight="bold" font-size="37.0" fill="#000000" transform="matrix(1.00, 0.00, -0.00, -1.00, 748.9, 460.0)">a</text><text xml:space="preserve" font-family="Sonus-Bold" font-weight="bold" font-size="37.0" fill="#000000" transform="matrix(1.00, 0.00, -0.00, -1.00, 768.7, 460.0)">t</text><text xml:space="preserve" font-family="Sonus-Bold" font-weight="bold" font-size="37.0" fill="#000000" transform="matrix(1.00, 0.00, -0.00, -1.00, 782.5, 460.0)">e</text><text xml:space="preserve" font-family="Sonus-Bold" font-weight="bold" font-size="37.0" fill="#000000" transform="matrix(1.00, 0.00, -0.00, -1.00, 802.2, 460.0)">s</text><text xml:space="preserve" font-family="Sonus-Bold" font-weight="bold" font-size="37.0" fill="#000000" transform="matrix(1.00, 0.00, -0.00, -1.00, 818.5, 460.0)"> </text><text xml:space="preserve" font-family="Sonus-Bold" font-weight="bold" font-size="37.0" fill="#000000" transform="matrix(1.00, 0.00, -0.00, -1.00, 826.5, 460.0)">t</text><text xml:space="preserve" font-family="Sonus-Bold" font-weight="bold" font-size="37.0" fill="#000000" transform="matrix(1.00, 0.00, -0.00, -1.00, 840.3, 460.0)">o</text><text xml:space="preserve" font-family="Sonus-Bold" font-weight="bold" font-size="37.0" fill="#000000" transform="matrix(1.00, 0.00, -0.00, -1.00, 861.8, 460.0)"> </text><text xml:space="preserve" font-family="Sonus-Bold" font-weight="bold" font-size="37.0" fill="#000000" transform="matrix(1.00, 0.00, -0.00, -1.00, 869.7, 460.0)">a</text><text xml:space="preserve" font-family="Sonus-Bold" font-weight="bold" font-size="37.0" fill="#000000" transform="matrix(1.00, 0.00, -0.00, -1.00, 889.5, 460.0)">p</text><text xml:space="preserve" font-family="Sonus-Bold" font-weight="bold" font-size="37.0" fill="#000000" transform="matrix(1.00, 0.00, -0.00, -1.00, 911.7, 460.0)">p</text><text xml:space="preserve" font-family="Sonus-Bold" font-weight="bold" font-size="37.0" fill="#000000" transform="matrix(1.00, 0.00, -0.00, -1.00, 933.9, 460.0)">l</text><text xml:space="preserve" font-family="Sonus-Bold" font-weight="bold" font-size="37.0" fill="#000000" transform="matrix(1.00, 0.00, -0.00, -1.00, 944.2, 460.0)">y</text><text xml:space="preserve" font-family="Sonus-Bold" font-weight="bold" font-size="37.0" fill="#000000" transform="matrix(1.00, 0.00, -0.00, -1.00, 964.3, 460.0)"> </text><text xml:space="preserve" font-family="Sonus" font-size="37.0" fill="#5D5D5D" transform="matrix(1.00, 0.00, -0.00, -1.00, 474.0, 410.0)">M</text><text xml:space="preserve" font-family="Sonus" font-size="37.0" fill="#5D5D5D" transform="matrix(1.00, 0.00, -0.00, -1.00, 504.0, 410.0)">a</text><text xml:space="preserve" font-family="Sonus" font-size="37.0" fill="#5D5D5D" transform="matrix(1.00, 0.00, -0.00, -1.00, 522.8, 410.0)">k</text><text xml:space="preserve" font-family="Sonus" font-size="37.0" fill="#5D5D5D" transform="matrix(1.00, 0.00, -0.00, -1.00, 541.5, 410.0)">e</text><text xml:space="preserve" font-family="Sonus" font-size="37.0" fill="#5D5D5D" transform="matrix(1.00, 0.00, -0.00, -1.00, 560.4, 410.0)"> </text><text xml:space="preserve" font-family="Sonus" font-size="37.0" fill="#5D5D5D" transform="matrix(1.00, 0.00, -0.00, -1.00, 568.4, 410.0)">i</text><text xml:space="preserve" font-family="Sonus" font-size="37.0" fill="#5D5D5D" transform="matrix(1.00, 0.00, -0.00, -1.00, 577.5, 410.0)">t</text><text xml:space="preserve" font-family="Sonus" font-size="37.0" fill="#5D5D5D" transform="matrix(1.00, 0.00, -0.00, -1.00, 590.0, 410.0)"> </text><text xml:space="preserve" font-family="Sonus" font-size="37.0" fill="#5D5D5D" transform="matrix(1.00, 0.00, -0.00, -1.00, 598.0, 410.0)">e</text><text xml:space="preserve" font-family="Sonus" font-size="37.0" fill="#5D5D5D" transform="matrix(1.00, 0.00, -0.00, -1.00, 616.7, 410.0)">a</text><text xml:space="preserve" font-family="Sonus" font-size="37.0" fill="#5D5D5D" transform="matrix(1.00, 0.00, -0.00, -1.00, 635.6, 410.0)">s</text><text xml:space="preserve" font-family="Sonus" font-size="37.0" fill="#5D5D5D" transform="matrix(1.00, 0.00, -0.00, -1.00, 650.9, 410.0)">y</text><text xml:space="preserve" font-family="Sonus" font-size="37.0" fill="#5D5D5D" transform="matrix(1.00, 0.00, -0.00, -1.00, 668.7, 410.0)"> </text><text xml:space="preserve" font-family="Sonus" font-size="37.0" fill="#5D5D5D" transform="matrix(1.00, 0.00, -0.00, -1.00, 676.7, 410.0)">t</text><text xml:space="preserve" font-family="Sonus" font-size="37.0" fill="#5D5D5D" transform="matrix(1.00, 0.00, -0.00, -1.00, 689.3, 410.0)">o</text><text xml:space="preserve" font-family="Sonus" font-size="37.0" fill="#5D5D5D" transform="matrix(1.00, 0.00, -0.00, -1.00, 709.7, 410.0)"> </text><text xml:space="preserve" font-family="Sonus" font-size="37.0" fill="#5D5D5D" transform="matrix(1.00, 0.00, -0.00, -1.00, 717.6, 410.0)">a</text><text xml:space="preserve" font-family="Sonus" font-size="37.0" fill="#5D5D5D" transform="matrix(1.00, 0.00, -0.00, -1.00, 736.5, 410.0)">p</text><text xml:space="preserve" font-family="Sonus" font-size="37.0" fill="#5D5D5D" transform="matrix(1.00, 0.00, -0.00, -1.00, 757.5, 410.0)">p</text><text xml:space="preserve" font-family="Sonus" font-size="37.0" fill="#5D5D5D" transform="matrix(1.00, 0.00, -0.00, -1.00, 778.4, 410.0)">l</text><text xml:space="preserve" font-family="Sonus" font-size="37.0" fill="#5D5D5D" transform="matrix(1.00, 0.00, -0.00, -1.00, 787.4, 410.0)">y</text><text xml:space="preserve" font-family="Sonus" font-size="37.0" fill="#5D5D5D" transform="matrix(1.00, 0.00, -0.00, -1.00, 805.2, 410.0)"> </text><text xml:space="preserve" font-family="Sonus" font-size="37.0" fill="#5D5D5D" transform="matrix(1.00, 0.00, -0.00, -1.00, 466.0, 359.0)">M</text><text xml:space="preserve" font-family="Sonus" font-size="37.0" fill="#5D5D5D" transform="matrix(1.00, 0.00, -0.00, -1.00, 496.0, 359.0)">a</text><text xml:space="preserve" font-family="Sonus" font-size="37.0" fill="#5D5D5D" transform="matrix(1.00, 0.00, -0.00, -1.00, 514.8, 359.0)">k</text><text xml:space="preserve" font-family="Sonus" font-size="37.0" fill="#5D5D5D" transform="matrix(1.00, 0.00, -0.00, -1.00, 533.5, 359.0)">e</text><text xml:space="preserve" font-family="Sonus" font-size="37.0" fill="#5D5D5D" transform="matrix(1.00, 0.00, -0.00, -1.00, 552.4, 359.0)"> </text><text xml:space="preserve" font-family="Sonus" font-size="37.0" fill="#5D5D5D" transform="matrix(1.00, 0.00, -0.00, -1.00, 560.4, 359.0)">i</text><text xml:space="preserve" font-family="Sonus" font-size="37.0" fill="#5D5D5D" transform="matrix(1.00, 0.00, -0.00, -1.00, 569.5, 359.0)">t</text><text xml:space="preserve" font-family="Sonus" font-size="37.0" fill="#5D5D5D" transform="matrix(1.00, 0.00, -0.00, -1.00, 582.0, 359.0)"> </text><text xml:space="preserve" font-family="Sonus" font-size="37.0" fill="#5D5D5D" transform="matrix(1.00, 0.00, -0.00, -1.00, 590.0, 359.0)">e</text><text xml:space="preserve" font-family="Sonus" font-size="37.0" fill="#5D5D5D" transform="matrix(1.00, 0.00, -0.00, -1.00, 608.7, 359.0)">a</text><text xml:space="preserve" font-family="Sonus" font-size="37.0" fill="#5D5D5D" transform="matrix(1.00, 0.00, -0.00, -1.00, 627.6, 359.0)">s</text><text xml:space="preserve" font-family="Sonus" font-size="37.0" fill="#5D5D5D" transform="matrix(1.00, 0.00, -0.00, -1.00, 642.9, 359.0)">y</text><text xml:space="preserve" font-family="Sonus" font-size="37.0" fill="#5D5D5D" transform="matrix(1.00, 0.00, -0.00, -1.00, 660.7, 359.0)"> </text><text xml:space="preserve" font-family="Sonus" font-size="37.0" fill="#5D5D5D" transform="matrix(1.00, 0.00, -0.00, -1.00, 668.7, 359.0)">t</text><text xml:space="preserve" font-family="Sonus" font-size="37.0" fill="#5D5D5D" transform="matrix(1.00, 0.00, -0.00, -1.00, 681.3, 359.0)">o</text><text xml:space="preserve" font-family="Sonus" font-size="37.0" fill="#5D5D5D" transform="matrix(1.00, 0.00, -0.00, -1.00, 701.7, 359.0)"> </text><text xml:space="preserve" font-family="Sonus" font-size="37.0" fill="#5D5D5D" transform="matrix(1.00, 0.00, -0.00, -1.00, 709.6, 359.0)">s</text><text xml:space="preserve" font-family="Sonus" font-size="37.0" fill="#5D5D5D" transform="matrix(1.00, 0.00, -0.00, -1.00, 725.2, 359.0)">e</text><text xml:space="preserve" font-family="Sonus" font-size="37.0" fill="#5D5D5D" transform="matrix(1.00, 0.00, -0.00, -1.00, 743.9, 359.0)">a</text><text xml:space="preserve" font-family="Sonus" font-size="37.0" fill="#5D5D5D" transform="matrix(1.00, 0.00, -0.00, -1.00, 762.8, 359.0)">r</text><text xml:space="preserve" font-family="Sonus" font-size="37.0" fill="#5D5D5D" transform="matrix(1.00, 0.00, -0.00, -1.00, 775.4, 359.0)">c</text><text xml:space="preserve" font-family="Sonus" font-size="37.0" fill="#5D5D5D" transform="matrix(1.00, 0.00, -0.00, -1.00, 792.3, 359.0)">h</text><text xml:space="preserve" font-family="Sonus" font-size="37.0" fill="#5D5D5D" transform="matrix(1.00, 0.00, -0.00, -1.00, 813.5, 359.0)"> </text><text xml:space="preserve" font-family="Sonus" font-size="37.0" fill="#5D5D5D" transform="matrix(1.00, 0.00, -0.00, -1.00, 361.0, 309.0)">I</text><text xml:space="preserve" font-family="Sonus" font-size="37.0" fill="#5D5D5D" transform="matrix(1.00, 0.00, -0.00, -1.00, 370.7, 309.0)">n</text><text xml:space="preserve" font-family="Sonus" font-size="37.0" fill="#5D5D5D" transform="matrix(1.00, 0.00, -0.00, -1.00, 391.6, 309.0)">t</text><text xml:space="preserve" font-family="Sonus" font-size="37.0" fill="#5D5D5D" transform="matrix(1.00, 0.00, -0.00, -1.00, 404.2, 309.0)">r</text><text xml:space="preserve" font-family="Sonus" font-size="37.0" fill="#5D5D5D" transform="matrix(1.00, 0.00, -0.00, -1.00, 416.8, 309.0)">o</text><text xml:space="preserve" font-family="Sonus" font-size="37.0" fill="#5D5D5D" transform="matrix(1.00, 0.00, -0.00, -1.00, 437.1, 309.0)">d</text><text xml:space="preserve" font-family="Sonus" font-size="37.0" fill="#5D5D5D" transform="matrix(1.00, 0.00, -0.00, -1.00, 458.1, 309.0)">u</text><text xml:space="preserve" font-family="Sonus" font-size="37.0" fill="#5D5D5D" transform="matrix(1.00, 0.00, -0.00, -1.00, 479.3, 309.0)">c</text><text xml:space="preserve" font-family="Sonus" font-size="37.0" fill="#5D5D5D" transform="matrix(1.00, 0.00, -0.00, -1.00, 496.1, 309.0)">e</text><text xml:space="preserve" font-family="Sonus" font-size="37.0" fill="#5D5D5D" transform="matrix(1.00, 0.00, -0.00, -1.00, 515.1, 309.0)"> </text><text xml:space="preserve" font-family="Sonus" font-size="37.0" fill="#5D5D5D" transform="matrix(1.00, 0.00, -0.00, -1.00, 523.1, 309.0)">c</text><text xml:space="preserve" font-family="Sonus" font-size="37.0" fill="#5D5D5D" transform="matrix(1.00, 0.00, -0.00, -1.00, 540.2, 309.0)">a</text><text xml:space="preserve" font-family="Sonus" font-size="37.0" fill="#5D5D5D" transform="matrix(1.00, 0.00, -0.00, -1.00, 559.0, 309.0)">n</text><text xml:space="preserve" font-family="Sonus" font-size="37.0" fill="#5D5D5D" transform="matrix(1.00, 0.00, -0.00, -1.00, 580.0, 309.0)">d</text><text xml:space="preserve" font-family="Sonus" font-size="37.0" fill="#5D5D5D" transform="matrix(1.00, 0.00, -0.00, -1.00, 600.9, 309.0)">i</text><text xml:space="preserve" font-family="Sonus" font-size="37.0" fill="#5D5D5D" transform="matrix(1.00, 0.00, -0.00, -1.00, 609.9, 309.0)">d</text><text xml:space="preserve" font-family="Sonus" font-size="37.0" fill="#5D5D5D" transform="matrix(1.00, 0.00, -0.00, -1.00, 630.9, 309.0)">a</text><text xml:space="preserve" font-family="Sonus" font-size="37.0" fill="#5D5D5D" transform="matrix(1.00, 0.00, -0.00, -1.00, 649.7, 309.0)">t</text><text xml:space="preserve" font-family="Sonus" font-size="37.0" fill="#5D5D5D" transform="matrix(1.00, 0.00, -0.00, -1.00, 662.3, 309.0)">e</text><text xml:space="preserve" font-family="Sonus" font-size="37.0" fill="#5D5D5D" transform="matrix(1.00, 0.00, -0.00, -1.00, 681.2, 309.0)">s</text><text xml:space="preserve" font-family="Sonus" font-size="37.0" fill="#5D5D5D" transform="matrix(1.00, 0.00, -0.00, -1.00, 696.6, 309.0)"> </text><text xml:space="preserve" font-family="Sonus" font-size="37.0" fill="#5D5D5D" transform="matrix(1.00, 0.00, -0.00, -1.00, 704.6, 309.0)">t</text><text xml:space="preserve" font-family="Sonus" font-size="37.0" fill="#5D5D5D" transform="matrix(1.00, 0.00, -0.00, -1.00, 717.1, 309.0)">o</text><text xml:space="preserve" font-family="Sonus" font-size="37.0" fill="#5D5D5D" transform="matrix(1.00, 0.00, -0.00, -1.00, 737.5, 309.0)"> </text><text xml:space="preserve" font-family="Sonus" font-size="37.0" fill="#5D5D5D" transform="matrix(1.00, 0.00, -0.00, -1.00, 745.5, 309.0)">e</text><text xml:space="preserve" font-family="Sonus" font-size="37.0" fill="#5D5D5D" transform="matrix(1.00, 0.00, -0.00, -1.00, 764.4, 309.0)">m</text><text xml:space="preserve" font-family="Sonus" font-size="37.0" fill="#5D5D5D" transform="matrix(1.00, 0.00, -0.00, -1.00, 796.9, 309.0)">p</text><text xml:space="preserve" font-family="Sonus" font-size="37.0" fill="#5D5D5D" transform="matrix(1.00, 0.00, -0.00, -1.00, 817.9, 309.0)">l</text><text xml:space="preserve" font-family="Sonus" font-size="37.0" fill="#5D5D5D" transform="matrix(1.00, 0.00, -0.00, -1.00, 826.9, 309.0)">o</text><text xml:space="preserve" font-family="Sonus" font-size="37.0" fill="#5D5D5D" transform="matrix(1.00, 0.00, -0.00, -1.00, 847.3, 309.0)">y</text><text xml:space="preserve" font-family="Sonus" font-size="37.0" fill="#5D5D5D" transform="matrix(1.00, 0.00, -0.00, -1.00, 865.1, 309.0)">e</text><text xml:space="preserve" font-family="Sonus" font-size="37.0" fill="#5D5D5D" transform="matrix(1.00, 0.00, -0.00, -1.00, 884.0, 309.0)">e</text><text xml:space="preserve" font-family="Sonus" font-size="37.0" fill="#5D5D5D" transform="matrix(1.00, 0.00, -0.00, -1.00, 903.0, 309.0)">s</text><text xml:space="preserve" font-family="Sonus" font-size="37.0" fill="#5D5D5D" transform="matrix(1.00, 0.00, -0.00, -1.00, 918.3, 309.0)"> </text><text xml:space="preserve" font-family="Sonus" font-size="37.0" fill="#5D5D5D" transform="matrix(1.00, 0.00, -0.00, -1.00, 273.0, 259.0)">O</text><text xml:space="preserve" font-family="Sonus" font-size="37.0" fill="#5D5D5D" transform="matrix(1.00, 0.00, -0.00, -1.00, 299.7, 259.0)">v</text><text xml:space="preserve" font-family="Sonus" font-size="37.0" fill="#5D5D5D" transform="matrix(1.00, 0.00, -0.00, -1.00, 317.2, 259.0)">e</text><text xml:space="preserve" font-family="Sonus" font-size="37.0" fill="#5D5D5D" transform="matrix(1.00, 0.00, -0.00, -1.00, 336.2, 259.0)">r</text><text xml:space="preserve" font-family="Sonus" font-size="37.0" fill="#5D5D5D" transform="matrix(1.00, 0.00, -0.00, -1.00, 349.4, 259.0)"> </text><text xml:space="preserve" font-family="Sonus" font-size="37.0" fill="#5D5D5D" transform="matrix(1.00, 0.00, -0.00, -1.00, 357.4, 259.0)">a</text><text xml:space="preserve" font-family="Sonus" font-size="37.0" fill="#5D5D5D" transform="matrix(1.00, 0.00, -0.00, -1.00, 376.3, 259.0)">n</text><text xml:space="preserve" font-family="Sonus" font-size="37.0" fill="#5D5D5D" transform="matrix(1.00, 0.00, -0.00, -1.00, 397.2, 259.0)"> </text><text xml:space="preserve" font-family="Sonus" font-size="37.0" fill="#5D5D5D" transform="matrix(1.00, 0.00, -0.00, -1.00, 405.2, 259.0)">i</text><text xml:space="preserve" font-family="Sonus" font-size="37.0" fill="#5D5D5D" transform="matrix(1.00, 0.00, -0.00, -1.00, 414.3, 259.0)">n</text><text xml:space="preserve" font-family="Sonus" font-size="37.0" fill="#5D5D5D" transform="matrix(1.00, 0.00, -0.00, -1.00, 435.2, 259.0)">s</text><text xml:space="preserve" font-family="Sonus" font-size="37.0" fill="#5D5D5D" transform="matrix(1.00, 0.00, -0.00, -1.00, 450.6, 259.0)">i</text><text xml:space="preserve" font-family="Sonus" font-size="37.0" fill="#5D5D5D" transform="matrix(1.00, 0.00, -0.00, -1.00, 459.6, 259.0)">d</text><text xml:space="preserve" font-family="Sonus" font-size="37.0" fill="#5D5D5D" transform="matrix(1.00, 0.00, -0.00, -1.00, 480.5, 259.0)">e</text><text xml:space="preserve" font-family="Sonus" font-size="37.0" fill="#5D5D5D" transform="matrix(1.00, 0.00, -0.00, -1.00, 499.5, 259.0)"> </text><text xml:space="preserve" font-family="Sonus" font-size="37.0" fill="#5D5D5D" transform="matrix(1.00, 0.00, -0.00, -1.00, 507.5, 259.0)">l</text><text xml:space="preserve" font-family="Sonus" font-size="37.0" fill="#5D5D5D" transform="matrix(1.00, 0.00, -0.00, -1.00, 516.5, 259.0)">o</text><text xml:space="preserve" font-family="Sonus" font-size="37.0" fill="#5D5D5D" transform="matrix(1.00, 0.00, -0.00, -1.00, 536.9, 259.0)">o</text><text xml:space="preserve" font-family="Sonus" font-size="37.0" fill="#5D5D5D" transform="matrix(1.00, 0.00, -0.00, -1.00, 557.3, 259.0)">k</text><text xml:space="preserve" font-family="Sonus" font-size="37.0" fill="#5D5D5D" transform="matrix(1.00, 0.00, -0.00, -1.00, 576.1, 259.0)"> </text><text xml:space="preserve" font-family="Sonus" font-size="37.0" fill="#5D5D5D" transform="matrix(1.00, 0.00, -0.00, -1.00, 584.1, 259.0)">a</text><text xml:space="preserve" font-family="Sonus" font-size="37.0" fill="#5D5D5D" transform="matrix(1.00, 0.00, -0.00, -1.00, 603.0, 259.0)">t</text><text xml:space="preserve" font-family="Sonus" font-size="37.0" fill="#5D5D5D" transform="matrix(1.00, 0.00, -0.00, -1.00, 615.5, 259.0)"> </text><text xml:space="preserve" font-family="Sonus" font-size="37.0" fill="#5D5D5D" transform="matrix(1.00, 0.00, -0.00, -1.00, 623.5, 259.0)">w</text><text xml:space="preserve" font-family="Sonus" font-size="37.0" fill="#5D5D5D" transform="matrix(1.00, 0.00, -0.00, -1.00, 650.2, 259.0)">o</text><text xml:space="preserve" font-family="Sonus" font-size="37.0" fill="#5D5D5D" transform="matrix(1.00, 0.00, -0.00, -1.00, 670.6, 259.0)">r</text><text xml:space="preserve" font-family="Sonus" font-size="37.0" fill="#5D5D5D" transform="matrix(1.00, 0.00, -0.00, -1.00, 683.8, 259.0)">k</text><text xml:space="preserve" font-family="Sonus" font-size="37.0" fill="#5D5D5D" transform="matrix(1.00, 0.00, -0.00, -1.00, 702.7, 259.0)">i</text><text xml:space="preserve" font-family="Sonus" font-size="37.0" fill="#5D5D5D" transform="matrix(1.00, 0.00, -0.00, -1.00, 711.7, 259.0)">n</text><text xml:space="preserve" font-family="Sonus" font-size="37.0" fill="#5D5D5D" transform="matrix(1.00, 0.00, -0.00, -1.00, 732.9, 259.0)">g</text><text xml:space="preserve" font-family="Sonus" font-size="37.0" fill="#5D5D5D" transform="matrix(1.00, 0.00, -0.00, -1.00, 751.6, 259.0)"> </text><text xml:space="preserve" font-family="Sonus" font-size="37.0" fill="#5D5D5D" transform="matrix(1.00, 0.00, -0.00, -1.00, 759.6, 259.0)">a</text><text xml:space="preserve" font-family="Sonus" font-size="37.0" fill="#5D5D5D" transform="matrix(1.00, 0.00, -0.00, -1.00, 778.5, 259.0)">t</text><text xml:space="preserve" font-family="Sonus" font-size="37.0" fill="#5D5D5D" transform="matrix(1.00, 0.00, -0.00, -1.00, 791.0, 259.0)"> </text><text xml:space="preserve" font-family="Sonus" font-size="37.0" fill="#5D5D5D" transform="matrix(1.00, 0.00, -0.00, -1.00, 799.0, 259.0)">t</text><text xml:space="preserve" font-family="Sonus" font-size="37.0" fill="#5D5D5D" transform="matrix(1.00, 0.00, -0.00, -1.00, 811.6, 259.0)">h</text><text xml:space="preserve" font-family="Sonus" font-size="37.0" fill="#5D5D5D" transform="matrix(1.00, 0.00, -0.00, -1.00, 832.7, 259.0)">e</text><text xml:space="preserve" font-family="Sonus" font-size="37.0" fill="#5D5D5D" transform="matrix(1.00, 0.00, -0.00, -1.00, 851.7, 259.0)"> </text><text xml:space="preserve" font-family="Sonus" font-size="37.0" fill="#5D5D5D" transform="matrix(1.00, 0.00, -0.00, -1.00, 859.7, 259.0)">c</text><text xml:space="preserve" font-family="Sonus" font-size="37.0" fill="#5D5D5D" transform="matrix(1.00, 0.00, -0.00, -1.00, 876.5, 259.0)">o</text><text xml:space="preserve" font-family="Sonus" font-size="37.0" fill="#5D5D5D" transform="matrix(1.00, 0.00, -0.00, -1.00, 896.9, 259.0)">m</text><text xml:space="preserve" font-family="Sonus" font-size="37.0" fill="#5D5D5D" transform="matrix(1.00, 0.00, -0.00, -1.00, 929.4, 259.0)">p</text><text xml:space="preserve" font-family="Sonus" font-size="37.0" fill="#5D5D5D" transform="matrix(1.00, 0.00, -0.00, -1.00, 950.4, 259.0)">a</text><text xml:space="preserve" font-family="Sonus" font-size="37.0" fill="#5D5D5D" transform="matrix(1.00, 0.00, -0.00, -1.00, 969.2, 259.0)">n</text><text xml:space="preserve" font-family="Sonus" font-size="37.0" fill="#5D5D5D" transform="matrix(1.00, 0.00, -0.00, -1.00, 990.0, 259.0)">y</text><text xml:space="preserve" font-family="Sonus" font-size="37.0" fill="#5D5D5D" transform="matrix(1.00, 0.00, -0.00, -1.00, 1007.8, 259.0)"> </text><text xml:space="preserve" font-family="Sonus" font-size="37.0" fill="#5D5D5D" transform="matrix(1.00, 0.00, -0.00, -1.00, 195.0, 208.0)">E</text><text xml:space="preserve" font-family="Sonus" font-size="37.0" fill="#5D5D5D" transform="matrix(1.00, 0.00, -0.00, -1.00, 214.9, 208.0)">n</text><text xml:space="preserve" font-family="Sonus" font-size="37.0" fill="#5D5D5D" transform="matrix(1.00, 0.00, -0.00, -1.00, 235.8, 208.0)">c</text><text xml:space="preserve" font-family="Sonus" font-size="37.0" fill="#5D5D5D" transform="matrix(1.00, 0.00, -0.00, -1.00, 252.7, 208.0)">o</text><text xml:space="preserve" font-family="Sonus" font-size="37.0" fill="#5D5D5D" transform="matrix(1.00, 0.00, -0.00, -1.00, 273.1, 208.0)">u</text><text xml:space="preserve" font-family="Sonus" font-size="37.0" fill="#5D5D5D" transform="matrix(1.00, 0.00, -0.00, -1.00, 294.3, 208.0)">r</text><text xml:space="preserve" font-family="Sonus" font-size="37.0" fill="#5D5D5D" transform="matrix(1.00, 0.00, -0.00, -1.00, 307.0, 208.0)">a</text><text xml:space="preserve" font-family="Sonus" font-size="37.0" fill="#5D5D5D" transform="matrix(1.00, 0.00, -0.00, -1.00, 326.1, 208.0)">g</text><text xml:space="preserve" font-family="Sonus" font-size="37.0" fill="#5D5D5D" transform="matrix(1.00, 0.00, -0.00, -1.00, 345.0, 208.0)">e</text><text xml:space="preserve" font-family="Sonus" font-size="37.0" fill="#5D5D5D" transform="matrix(1.00, 0.00, -0.00, -1.00, 364.0, 208.0)"> </text><text xml:space="preserve" font-family="Sonus" font-size="37.0" fill="#5D5D5D" transform="matrix(1.00, 0.00, -0.00, -1.00, 372.0, 208.0)">u</text><text xml:space="preserve" font-family="Sonus" font-size="37.0" fill="#5D5D5D" transform="matrix(1.00, 0.00, -0.00, -1.00, 393.1, 208.0)">n</text><text xml:space="preserve" font-family="Sonus" font-size="37.0" fill="#5D5D5D" transform="matrix(1.00, 0.00, -0.00, -1.00, 414.1, 208.0)">c</text><text xml:space="preserve" font-family="Sonus" font-size="37.0" fill="#5D5D5D" transform="matrix(1.00, 0.00, -0.00, -1.00, 430.9, 208.0)">e</text><text xml:space="preserve" font-family="Sonus" font-size="37.0" fill="#5D5D5D" transform="matrix(1.00, 0.00, -0.00, -1.00, 449.9, 208.0)">r</text><text xml:space="preserve" font-family="Sonus" font-size="37.0" fill="#5D5D5D" transform="matrix(1.00, 0.00, -0.00, -1.00, 463.5, 208.0)">t</text><text xml:space="preserve" font-family="Sonus" font-size="37.0" fill="#5D5D5D" transform="matrix(1.00, 0.00, -0.00, -1.00, 476.3, 208.0)">a</text><text xml:space="preserve" font-family="Sonus" font-size="37.0" fill="#5D5D5D" transform="matrix(1.00, 0.00, -0.00, -1.00, 495.1, 208.0)">i</text><text xml:space="preserve" font-family="Sonus" font-size="37.0" fill="#5D5D5D" transform="matrix(1.00, 0.00, -0.00, -1.00, 504.2, 208.0)">n</text><text xml:space="preserve" font-family="Sonus" font-size="37.0" fill="#5D5D5D" transform="matrix(1.00, 0.00, -0.00, -1.00, 525.1, 208.0)"> </text><text xml:space="preserve" font-family="Sonus" font-size="37.0" fill="#5D5D5D" transform="matrix(1.00, 0.00, -0.00, -1.00, 533.1, 208.0)">c</text><text xml:space="preserve" font-family="Sonus" font-size="37.0" fill="#5D5D5D" transform="matrix(1.00, 0.00, -0.00, -1.00, 550.2, 208.0)">a</text><text xml:space="preserve" font-family="Sonus" font-size="37.0" fill="#5D5D5D" transform="matrix(1.00, 0.00, -0.00, -1.00, 569.1, 208.0)">n</text><text xml:space="preserve" font-family="Sonus" font-size="37.0" fill="#5D5D5D" transform="matrix(1.00, 0.00, -0.00, -1.00, 590.0, 208.0)">d</text><text xml:space="preserve" font-family="Sonus" font-size="37.0" fill="#5D5D5D" transform="matrix(1.00, 0.00, -0.00, -1.00, 611.0, 208.0)">i</text><text xml:space="preserve" font-family="Sonus" font-size="37.0" fill="#5D5D5D" transform="matrix(1.00, 0.00, -0.00, -1.00, 620.0, 208.0)">d</text><text xml:space="preserve" font-family="Sonus" font-size="37.0" fill="#5D5D5D" transform="matrix(1.00, 0.00, -0.00, -1.00, 640.9, 208.0)">a</text><text xml:space="preserve" font-family="Sonus" font-size="37.0" fill="#5D5D5D" transform="matrix(1.00, 0.00, -0.00, -1.00, 659.8, 208.0)">t</text><text xml:space="preserve" font-family="Sonus" font-size="37.0" fill="#5D5D5D" transform="matrix(1.00, 0.00, -0.00, -1.00, 672.3, 208.0)">e</text><text xml:space="preserve" font-family="Sonus" font-size="37.0" fill="#5D5D5D" transform="matrix(1.00, 0.00, -0.00, -1.00, 691.3, 208.0)">s</text><text xml:space="preserve" font-family="Sonus" font-size="37.0" fill="#5D5D5D" transform="matrix(1.00, 0.00, -0.00, -1.00, 706.6, 208.0)"> </text><text xml:space="preserve" font-family="Sonus" font-size="37.0" fill="#5D5D5D" transform="matrix(1.00, 0.00, -0.00, -1.00, 714.6, 208.0)">t</text><text xml:space="preserve" font-family="Sonus" font-size="37.0" fill="#5D5D5D" transform="matrix(1.00, 0.00, -0.00, -1.00, 727.2, 208.0)">o</text><text xml:space="preserve" font-family="Sonus" font-size="37.0" fill="#5D5D5D" transform="matrix(1.00, 0.00, -0.00, -1.00, 747.6, 208.0)"> </text><text xml:space="preserve" font-family="Sonus" font-size="37.0" fill="#5D5D5D" transform="matrix(1.00, 0.00, -0.00, -1.00, 755.6, 208.0)">e</text><text xml:space="preserve" font-family="Sonus" font-size="37.0" fill="#5D5D5D" transform="matrix(1.00, 0.00, -0.00, -1.00, 774.4, 208.0)">x</text><text xml:space="preserve" font-family="Sonus" font-size="37.0" fill="#5D5D5D" transform="matrix(1.00, 0.00, -0.00, -1.00, 792.7, 208.0)">p</text><text xml:space="preserve" font-family="Sonus" font-size="37.0" fill="#5D5D5D" transform="matrix(1.00, 0.00, -0.00, -1.00, 813.6, 208.0)">l</text><text xml:space="preserve" font-family="Sonus" font-size="37.0" fill="#5D5D5D" transform="matrix(1.00, 0.00, -0.00, -1.00, 822.6, 208.0)">o</text><text xml:space="preserve" font-family="Sonus" font-size="37.0" fill="#5D5D5D" transform="matrix(1.00, 0.00, -0.00, -1.00, 843.0, 208.0)">r</text><text xml:space="preserve" font-family="Sonus" font-size="37.0" fill="#5D5D5D" transform="matrix(1.00, 0.00, -0.00, -1.00, 855.6, 208.0)">e</text><text xml:space="preserve" font-family="Sonus" font-size="37.0" fill="#5D5D5D" transform="matrix(1.00, 0.00, -0.00, -1.00, 874.5, 208.0)"> </text><text xml:space="preserve" font-family="Sonus" font-size="37.0" fill="#5D5D5D" transform="matrix(1.00, 0.00, -0.00, -1.00, 882.5, 208.0)">t</text><text xml:space="preserve" font-family="Sonus" font-size="37.0" fill="#5D5D5D" transform="matrix(1.00, 0.00, -0.00, -1.00, 895.1, 208.0)">h</text><text xml:space="preserve" font-family="Sonus" font-size="37.0" fill="#5D5D5D" transform="matrix(1.00, 0.00, -0.00, -1.00, 916.2, 208.0)">e</text><text xml:space="preserve" font-family="Sonus" font-size="37.0" fill="#5D5D5D" transform="matrix(1.00, 0.00, -0.00, -1.00, 935.2, 208.0)">i</text><text xml:space="preserve" font-family="Sonus" font-size="37.0" fill="#5D5D5D" transform="matrix(1.00, 0.00, -0.00, -1.00, 944.2, 208.0)">r</text><text xml:space="preserve" font-family="Sonus" font-size="37.0" fill="#5D5D5D" transform="matrix(1.00, 0.00, -0.00, -1.00, 957.5, 208.0)"> </text><text xml:space="preserve" font-family="Sonus" font-size="37.0" fill="#5D5D5D" transform="matrix(1.00, 0.00, -0.00, -1.00, 965.5, 208.0)">o</text><text xml:space="preserve" font-family="Sonus" font-size="37.0" fill="#5D5D5D" transform="matrix(1.00, 0.00, -0.00, -1.00, 985.9, 208.0)">p</text><text xml:space="preserve" font-family="Sonus" font-size="37.0" fill="#5D5D5D" transform="matrix(1.00, 0.00, -0.00, -1.00, 1006.8, 208.0)">t</text><text xml:space="preserve" font-family="Sonus" font-size="37.0" fill="#5D5D5D" transform="matrix(1.00, 0.00, -0.00, -1.00, 1019.4, 208.0)">i</text><text xml:space="preserve" font-family="Sonus" font-size="37.0" fill="#5D5D5D" transform="matrix(1.00, 0.00, -0.00, -1.00, 1028.4, 208.0)">o</text><text xml:space="preserve" font-family="Sonus" font-size="37.0" fill="#5D5D5D" transform="matrix(1.00, 0.00, -0.00, -1.00, 1048.8, 208.0)">n</text><text xml:space="preserve" font-family="Sonus" font-size="37.0" fill="#5D5D5D" transform="matrix(1.00, 0.00, -0.00, -1.00, 1069.7, 208.0)">s</text><text xml:space="preserve" font-family="Sonus" font-size="37.0" fill="#5D5D5D" transform="matrix(1.00, 0.00, -0.00, -1.00, 1085.1, 208.0)"> </text><text xml:space="preserve" font-family="Sonus" font-size="37.0" fill="#5D5D5D" transform="matrix(1.00, 0.00, -0.00, -1.00, 483.0, 158.0)">R</text><text xml:space="preserve" font-family="Sonus" font-size="37.0" fill="#5D5D5D" transform="matrix(1.00, 0.00, -0.00, -1.00, 505.3, 158.0)">e</text><text xml:space="preserve" font-family="Sonus" font-size="37.0" fill="#5D5D5D" transform="matrix(1.00, 0.00, -0.00, -1.00, 524.3, 158.0)">c</text><text xml:space="preserve" font-family="Sonus" font-size="37.0" fill="#5D5D5D" transform="matrix(1.00, 0.00, -0.00, -1.00, 541.7, 158.0)">r</text><text xml:space="preserve" font-family="Sonus" font-size="37.0" fill="#5D5D5D" transform="matrix(1.00, 0.00, -0.00, -1.00, 555.0, 158.0)">u</text><text xml:space="preserve" font-family="Sonus" font-size="37.0" fill="#5D5D5D" transform="matrix(1.00, 0.00, -0.00, -1.00, 576.1, 158.0)">i</text><text xml:space="preserve" font-family="Sonus" font-size="37.0" fill="#5D5D5D" transform="matrix(1.00, 0.00, -0.00, -1.00, 585.2, 158.0)">t</text><text xml:space="preserve" font-family="Sonus" font-size="37.0" fill="#5D5D5D" transform="matrix(1.00, 0.00, -0.00, -1.00, 597.7, 158.0)">m</text><text xml:space="preserve" font-family="Sonus" font-size="37.0" fill="#5D5D5D" transform="matrix(1.00, 0.00, -0.00, -1.00, 630.2, 158.0)">e</text><text xml:space="preserve" font-family="Sonus" font-size="37.0" fill="#5D5D5D" transform="matrix(1.00, 0.00, -0.00, -1.00, 649.1, 158.0)">n</text><text xml:space="preserve" font-family="Sonus" font-size="37.0" fill="#5D5D5D" transform="matrix(1.00, 0.00, -0.00, -1.00, 670.1, 158.0)">t</text><text xml:space="preserve" font-family="Sonus" font-size="37.0" fill="#5D5D5D" transform="matrix(1.00, 0.00, -0.00, -1.00, 682.6, 158.0)"> </text><text xml:space="preserve" font-family="Sonus" font-size="37.0" fill="#5D5D5D" transform="matrix(1.00, 0.00, -0.00, -1.00, 690.6, 158.0)">E</text><text xml:space="preserve" font-family="Sonus" font-size="37.0" fill="#5D5D5D" transform="matrix(1.00, 0.00, -0.00, -1.00, 710.9, 158.0)">v</text><text xml:space="preserve" font-family="Sonus" font-size="37.0" fill="#5D5D5D" transform="matrix(1.00, 0.00, -0.00, -1.00, 728.4, 158.0)">e</text><text xml:space="preserve" font-family="Sonus" font-size="37.0" fill="#5D5D5D" transform="matrix(1.00, 0.00, -0.00, -1.00, 747.3, 158.0)">n</text><text xml:space="preserve" font-family="Sonus" font-size="37.0" fill="#5D5D5D" transform="matrix(1.00, 0.00, -0.00, -1.00, 768.3, 158.0)">t</text><text xml:space="preserve" font-family="Sonus" font-size="37.0" fill="#5D5D5D" transform="matrix(1.00, 0.00, -0.00, -1.00, 781.0, 158.0)">s</text><text xml:space="preserve" font-family="Sonus" font-size="37.0" fill="#5D5D5D" transform="matrix(1.00, 0.00, -0.00, -1.00, 796.4, 158.0)"> </text><text xml:space="preserve" font-family="Sonus" font-size="37.0" fill="#5D5D5D" transform="matrix(1.00, 0.00, -0.00, -1.00, 369.0, 107.0)">S</text><text xml:space="preserve" font-family="Sonus" font-size="37.0" fill="#5D5D5D" transform="matrix(1.00, 0.00, -0.00, -1.00, 388.4, 107.0)">t</text><text xml:space="preserve" font-family="Sonus" font-size="37.0" fill="#5D5D5D" transform="matrix(1.00, 0.00, -0.00, -1.00, 400.9, 107.0)">r</text><text xml:space="preserve" font-family="Sonus" font-size="37.0" fill="#5D5D5D" transform="matrix(1.00, 0.00, -0.00, -1.00, 413.7, 107.0)">a</text><text xml:space="preserve" font-family="Sonus" font-size="37.0" fill="#5D5D5D" transform="matrix(1.00, 0.00, -0.00, -1.00, 432.6, 107.0)">i</text><text xml:space="preserve" font-family="Sonus" font-size="37.0" fill="#5D5D5D" transform="matrix(1.00, 0.00, -0.00, -1.00, 441.6, 107.0)">g</text><text xml:space="preserve" font-family="Sonus" font-size="37.0" fill="#5D5D5D" transform="matrix(1.00, 0.00, -0.00, -1.00, 460.4, 107.0)">h</text><text xml:space="preserve" font-family="Sonus" font-size="37.0" fill="#5D5D5D" transform="matrix(1.00, 0.00, -0.00, -1.00, 481.5, 107.0)">t</text><text xml:space="preserve" font-family="Sonus" font-size="37.0" fill="#5D5D5D" transform="matrix(1.00, 0.00, -0.00, -1.00, 494.1, 107.0)">f</text><text xml:space="preserve" font-family="Sonus" font-size="37.0" fill="#5D5D5D" transform="matrix(1.00, 0.00, -0.00, -1.00, 505.9, 107.0)">o</text><text xml:space="preserve" font-family="Sonus" font-size="37.0" fill="#5D5D5D" transform="matrix(1.00, 0.00, -0.00, -1.00, 526.3, 107.0)">r</text><text xml:space="preserve" font-family="Sonus" font-size="37.0" fill="#5D5D5D" transform="matrix(1.00, 0.00, -0.00, -1.00, 540.2, 107.0)">w</text><text xml:space="preserve" font-family="Sonus" font-size="37.0" fill="#5D5D5D" transform="matrix(1.00, 0.00, -0.00, -1.00, 566.7, 107.0)">a</text><text xml:space="preserve" font-family="Sonus" font-size="37.0" fill="#5D5D5D" transform="matrix(1.00, 0.00, -0.00, -1.00, 585.6, 107.0)">r</text><text xml:space="preserve" font-family="Sonus" font-size="37.0" fill="#5D5D5D" transform="matrix(1.00, 0.00, -0.00, -1.00, 598.2, 107.0)">d</text><text xml:space="preserve" font-family="Sonus" font-size="37.0" fill="#5D5D5D" transform="matrix(1.00, 0.00, -0.00, -1.00, 619.1, 107.0)"> </text><text xml:space="preserve" font-family="Sonus" font-size="37.0" fill="#5D5D5D" transform="matrix(1.00, 0.00, -0.00, -1.00, 627.1, 107.0)">s</text><text xml:space="preserve" font-family="Sonus" font-size="37.0" fill="#5D5D5D" transform="matrix(1.00, 0.00, -0.00, -1.00, 642.7, 107.0)">e</text><text xml:space="preserve" font-family="Sonus" font-size="37.0" fill="#5D5D5D" transform="matrix(1.00, 0.00, -0.00, -1.00, 661.6, 107.0)">l</text><text xml:space="preserve" font-family="Sonus" font-size="37.0" fill="#5D5D5D" transform="matrix(1.00, 0.00, -0.00, -1.00, 670.7, 107.0)">f</text><text xml:space="preserve" font-family="Sonus" font-size="37.0" fill="#5D5D5D" transform="matrix(1.00, 0.00, -0.00, -1.00, 683.6, 107.0)"> </text><text xml:space="preserve" font-family="Sonus" font-size="37.0" fill="#5D5D5D" transform="matrix(1.00, 0.00, -0.00, -1.00, 691.6, 107.0)">s</text><text xml:space="preserve" font-family="Sonus" font-size="37.0" fill="#5D5D5D" transform="matrix(1.00, 0.00, -0.00, -1.00, 707.2, 107.0)">e</text><text xml:space="preserve" font-family="Sonus" font-size="37.0" fill="#5D5D5D" transform="matrix(1.00, 0.00, -0.00, -1.00, 726.2, 107.0)">g</text><text xml:space="preserve" font-family="Sonus" font-size="37.0" fill="#5D5D5D" transform="matrix(1.00, 0.00, -0.00, -1.00, 745.1, 107.0)">m</text><text xml:space="preserve" font-family="Sonus" font-size="37.0" fill="#5D5D5D" transform="matrix(1.00, 0.00, -0.00, -1.00, 777.6, 107.0)">e</text><text xml:space="preserve" font-family="Sonus" font-size="37.0" fill="#5D5D5D" transform="matrix(1.00, 0.00, -0.00, -1.00, 796.5, 107.0)">n</text><text xml:space="preserve" font-family="Sonus" font-size="37.0" fill="#5D5D5D" transform="matrix(1.00, 0.00, -0.00, -1.00, 817.4, 107.0)">t</text><text xml:space="preserve" font-family="Sonus" font-size="37.0" fill="#5D5D5D" transform="matrix(1.00, 0.00, -0.00, -1.00, 830.2, 107.0)">a</text><text xml:space="preserve" font-family="Sonus" font-size="37.0" fill="#5D5D5D" transform="matrix(1.00, 0.00, -0.00, -1.00, 849.0, 107.0)">t</text><text xml:space="preserve" font-family="Sonus" font-size="37.0" fill="#5D5D5D" transform="matrix(1.00, 0.00, -0.00, -1.00, 861.6, 107.0)">i</text><text xml:space="preserve" font-family="Sonus" font-size="37.0" fill="#5D5D5D" transform="matrix(1.00, 0.00, -0.00, -1.00, 870.6, 107.0)">o</text><text xml:space="preserve" font-family="Sonus" font-size="37.0" fill="#5D5D5D" transform="matrix(1.00, 0.00, -0.00, -1.00, 891.0, 107.0)">n</text><text xml:space="preserve" font-family="Sonus" font-size="37.0" fill="#5D5D5D" transform="matrix(1.00, 0.00, -0.00, -1.00, 911.9, 107.0)"> </text><text xml:space="preserve" font-family="Sonus-Bold" font-weight="bold" font-size="71.0" fill="#000000" transform="matrix(1.00, 0.00, -0.00, -1.00, 550.0, 582.0)">G</text><text xml:space="preserve" font-family="Sonus-Bold" font-weight="bold" font-size="71.0" fill="#000000" transform="matrix(1.00, 0.00, -0.00, -1.00, 600.1, 582.0)">o</text><text xml:space="preserve" font-family="Sonus-Bold" font-weight="bold" font-size="71.0" fill="#000000" transform="matrix(1.00, 0.00, -0.00, -1.00, 641.3, 582.0)">a</text><text xml:space="preserve" font-family="Sonus-Bold" font-weight="bold" font-size="71.0" fill="#000000" transform="matrix(1.00, 0.00, -0.00, -1.00, 679.3, 582.0)">l</text><text xml:space="preserve" font-family="Sonus-Bold" font-weight="bold" font-size="71.0" fill="#000000" transform="matrix(1.00, 0.00, -0.00, -1.00, 699.1, 582.0)">s</text><text xml:space="preserve" font-family="Sonus-Bold" font-weight="bold" font-size="71.0" fill="#000000" transform="matrix(1.00, 0.00, -0.00, -1.00, 730.4, 582.0)"> </text><text xml:space="preserve" font-family="Sonus-Bold" font-weight="bold" font-size="43.0" fill="#EF6823" transform="matrix(1.00, 0.00, -0.00, -1.00, 597.0, 543.0)">_</text><text xml:space="preserve" font-family="Sonus-Bold" font-weight="bold" font-size="43.0" fill="#EF6823" transform="matrix(1.00, 0.00, -0.00, -1.00, 618.5, 543.0)">_</text><text xml:space="preserve" font-family="Sonus-Bold" font-weight="bold" font-size="43.0" fill="#EF6823" transform="matrix(1.00, 0.00, -0.00, -1.00, 640.1, 543.0)">_</text><text xml:space="preserve" font-family="Sonus-Bold" font-weight="bold" font-size="43.0" fill="#EF6823" transform="matrix(1.00, 0.00, -0.00, -1.00, 661.6, 543.0)">_</text></g></svg>