<?xml version="1.0" encoding="UTF-8" standalone="no"?><svg xmlns="http://www.w3.org/2000/svg" xmlns:xlink="http://www.w3.org/1999/xlink" clip-rule="evenodd" stroke-miterlimit="4.00" viewBox="0 0 1280 720"><desc>SVG generated by Keynote</desc><defs></defs><g transform="matrix(1.00, 0.00, -0.00, -1.00, 0.0, 720.0)"><path d="M 0.0 720.0 L 1280.0 720.0 L 1280.0 0.0 L 0.0 0.0 Z M 0.0 720.0 " fill="#FEFFFE"></path><text xml:space="preserve" font-family="Sonus" font-size="20.0" fill="#52575F" transform="matrix(1.00, 0.00, -0.00, -1.00, 69.0, 625.0)">M</text><text xml:space="preserve" font-family="Sonus" font-size="20.0" fill="#52575F" transform="matrix(1.00, 0.00, -0.00, -1.00, 85.2, 625.0)">o</text><text xml:space="preserve" font-family="Sonus" font-size="20.0" fill="#52575F" transform="matrix(1.00, 0.00, -0.00, -1.00, 96.2, 625.0)">t</text><text xml:space="preserve" font-family="Sonus" font-size="20.0" fill="#52575F" transform="matrix(1.00, 0.00, -0.00, -1.00, 103.0, 625.0)">i</text><text xml:space="preserve" font-family="Sonus" font-size="20.0" fill="#52575F" transform="matrix(1.00, 0.00, -0.00, -1.00, 107.9, 625.0)">v</text><text xml:space="preserve" font-family="Sonus" font-size="20.0" fill="#52575F" transform="matrix(1.00, 0.00, -0.00, -1.00, 117.3, 625.0)">a</text><text xml:space="preserve" font-family="Sonus" font-size="20.0" fill="#52575F" transform="matrix(1.00, 0.00, -0.00, -1.00, 127.5, 625.0)">t</text><text xml:space="preserve" font-family="Sonus" font-size="20.0" fill="#52575F" transform="matrix(1.00, 0.00, -0.00, -1.00, 134.2, 625.0)">e</text><text xml:space="preserve" font-family="Sonus" font-size="20.0" fill="#52575F" transform="matrix(1.00, 0.00, -0.00, -1.00, 144.5, 625.0)"> </text><text xml:space="preserve" font-family="Sonus" font-size="20.0" fill="#52575F" transform="matrix(1.00, 0.00, -0.00, -1.00, 148.8, 625.0)">p</text><text xml:space="preserve" font-family="Sonus" font-size="20.0" fill="#52575F" transform="matrix(1.00, 0.00, -0.00, -1.00, 160.1, 625.0)">o</text><text xml:space="preserve" font-family="Sonus" font-size="20.0" fill="#52575F" transform="matrix(1.00, 0.00, -0.00, -1.00, 171.1, 625.0)">t</text><text xml:space="preserve" font-family="Sonus" font-size="20.0" fill="#52575F" transform="matrix(1.00, 0.00, -0.00, -1.00, 177.9, 625.0)">e</text><text xml:space="preserve" font-family="Sonus" font-size="20.0" fill="#52575F" transform="matrix(1.00, 0.00, -0.00, -1.00, 188.2, 625.0)">n</text><text xml:space="preserve" font-family="Sonus" font-size="20.0" fill="#52575F" transform="matrix(1.00, 0.00, -0.00, -1.00, 199.5, 625.0)">t</text><text xml:space="preserve" font-family="Sonus" font-size="20.0" fill="#52575F" transform="matrix(1.00, 0.00, -0.00, -1.00, 206.3, 625.0)">i</text><text xml:space="preserve" font-family="Sonus" font-size="20.0" fill="#52575F" transform="matrix(1.00, 0.00, -0.00, -1.00, 211.1, 625.0)">a</text><text xml:space="preserve" font-family="Sonus" font-size="20.0" fill="#52575F" transform="matrix(1.00, 0.00, -0.00, -1.00, 221.3, 625.0)">l</text><text xml:space="preserve" font-family="Sonus" font-size="20.0" fill="#52575F" transform="matrix(1.00, 0.00, -0.00, -1.00, 226.2, 625.0)"> </text><text xml:space="preserve" font-family="Sonus" font-size="20.0" fill="#52575F" transform="matrix(1.00, 0.00, -0.00, -1.00, 230.5, 625.0)">c</text><text xml:space="preserve" font-family="Sonus" font-size="20.0" fill="#52575F" transform="matrix(1.00, 0.00, -0.00, -1.00, 239.8, 625.0)">a</text><text xml:space="preserve" font-family="Sonus" font-size="20.0" fill="#52575F" transform="matrix(1.00, 0.00, -0.00, -1.00, 250.0, 625.0)">n</text><text xml:space="preserve" font-family="Sonus" font-size="20.0" fill="#52575F" transform="matrix(1.00, 0.00, -0.00, -1.00, 261.3, 625.0)">d</text><text xml:space="preserve" font-family="Sonus" font-size="20.0" fill="#52575F" transform="matrix(1.00, 0.00, -0.00, -1.00, 272.6, 625.0)">i</text><text xml:space="preserve" font-family="Sonus" font-size="20.0" fill="#52575F" transform="matrix(1.00, 0.00, -0.00, -1.00, 277.5, 625.0)">d</text><text xml:space="preserve" font-family="Sonus" font-size="20.0" fill="#52575F" transform="matrix(1.00, 0.00, -0.00, -1.00, 288.8, 625.0)">a</text><text xml:space="preserve" font-family="Sonus" font-size="20.0" fill="#52575F" transform="matrix(1.00, 0.00, -0.00, -1.00, 299.0, 625.0)">t</text><text xml:space="preserve" font-family="Sonus" font-size="20.0" fill="#52575F" transform="matrix(1.00, 0.00, -0.00, -1.00, 305.8, 625.0)">e</text><text xml:space="preserve" font-family="Sonus" font-size="20.0" fill="#52575F" transform="matrix(1.00, 0.00, -0.00, -1.00, 316.0, 625.0)">s</text><text xml:space="preserve" font-family="Sonus" font-size="20.0" fill="#52575F" transform="matrix(1.00, 0.00, -0.00, -1.00, 324.3, 625.0)"> </text><text xml:space="preserve" font-family="Sonus" font-size="20.0" fill="#52575F" transform="matrix(1.00, 0.00, -0.00, -1.00, 328.7, 625.0)">t</text><text xml:space="preserve" font-family="Sonus" font-size="20.0" fill="#52575F" transform="matrix(1.00, 0.00, -0.00, -1.00, 335.4, 625.0)">o</text><text xml:space="preserve" font-family="Sonus" font-size="20.0" fill="#52575F" transform="matrix(1.00, 0.00, -0.00, -1.00, 346.5, 625.0)"> </text><text xml:space="preserve" font-family="Sonus" font-size="20.0" fill="#52575F" transform="matrix(1.00, 0.00, -0.00, -1.00, 350.8, 625.0)">a</text><text xml:space="preserve" font-family="Sonus" font-size="20.0" fill="#52575F" transform="matrix(1.00, 0.00, -0.00, -1.00, 361.0, 625.0)">p</text><text xml:space="preserve" font-family="Sonus" font-size="20.0" fill="#52575F" transform="matrix(1.00, 0.00, -0.00, -1.00, 372.3, 625.0)">p</text><text xml:space="preserve" font-family="Sonus" font-size="20.0" fill="#52575F" transform="matrix(1.00, 0.00, -0.00, -1.00, 383.6, 625.0)">l</text><text xml:space="preserve" font-family="Sonus" font-size="20.0" fill="#52575F" transform="matrix(1.00, 0.00, -0.00, -1.00, 388.5, 625.0)">y</text><path d="M 70.0 721.0 L 1210.0 721.0 L 1210.0 703.5 L 70.0 703.5 Z M 70.0 721.0 " fill="#EF6823"></path><g><clipPath id="clip-19213"><path d="M 71.0 36.0 L 127.0 36.0 L 127.0 92.0 L 71.0 92.0 Z M 71.0 36.0 "></path></clipPath><g clip-path="url(#clip-19213)"><path d="M 96.7 81.9 C 86.8 80.6 79.8 71.6 81.1 61.7 C 82.4 51.8 91.4 44.8 101.3 46.1 C 111.2 47.4 118.2 56.4 116.9 66.3 C 115.6 76.2 106.6 83.2 96.7 81.9 M 108.4 67.3 L 105.5 57.8 C 104.1 53.4 107.0 54.6 107.0 54.6 C 107.0 54.6 106.5 52.9 104.1 52.9 C 102.5 52.9 101.6 54.0 101.8 56.1 C 101.8 56.1 101.8 56.3 101.8 56.3 C 101.9 56.9 102.4 58.5 102.4 58.5 C 102.5 58.8 104.6 65.9 104.6 65.9 C 105.0 67.1 105.4 68.2 105.4 68.6 C 105.3 68.9 105.1 69.0 104.9 69.0 C 104.3 69.0 103.3 68.4 102.4 67.2 L 99.3 57.5 L 95.9 57.5 L 98.7 65.9 C 99.1 67.1 99.4 68.2 99.4 68.6 C 99.4 68.9 99.2 69.0 98.9 69.0 C 98.3 69.0 97.4 68.4 96.5 67.3 L 93.3 57.5 L 90.7 57.5 L 90.1 57.5 C 90.1 57.5 89.7 57.5 90.0 57.9 C 90.1 58.0 90.2 58.2 90.3 58.4 C 91.8 61.3 93.9 69.2 93.9 69.2 C 90.9 68.2 88.4 67.6 88.5 66.1 C 88.5 65.6 88.8 65.3 89.1 65.2 C 89.3 65.1 89.5 64.9 89.1 64.8 C 87.9 64.6 85.8 64.3 85.7 66.0 C 85.4 69.1 94.0 70.4 94.8 72.4 C 94.9 72.6 95.0 72.6 95.0 72.6 C 95.0 72.6 96.4 72.6 96.6 72.6 C 97.0 72.6 97.8 72.4 97.2 70.9 L 96.8 69.8 C 98.0 71.5 100.0 72.4 101.0 72.4 C 102.2 72.4 102.9 71.4 103.0 70.4 C 104.3 71.7 105.9 72.4 107.0 72.4 C 108.3 72.4 108.9 71.3 109.0 70.1 C 109.0 69.4 108.8 68.5 108.4 67.3 " fill="#D2D1D1"></path><path d="M 126.3 57.8 C 126.7 59.4 126.9 61.1 127.0 62.8 L 122.8 64.5 L 122.2 69.5 L 125.8 72.3 C 125.3 73.9 124.6 75.5 123.9 76.9 L 119.3 76.4 L 116.3 80.4 L 118.1 84.6 C 116.8 85.7 115.5 86.7 114.1 87.6 L 110.4 84.9 L 105.8 86.8 L 105.2 91.3 C 103.6 91.7 101.9 91.9 100.2 92.0 L 98.5 87.8 L 93.5 87.2 L 90.7 90.8 C 89.1 90.3 87.5 89.6 86.1 88.9 L 86.6 84.3 L 82.6 81.3 L 78.5 83.0 C 77.3 81.8 76.3 80.5 75.4 79.1 L 78.1 75.4 L 76.2 70.8 L 71.7 70.2 C 71.3 68.6 71.1 66.9 71.0 65.2 L 75.2 63.5 L 75.8 58.5 L 72.2 55.7 C 72.7 54.1 73.4 52.5 74.1 51.1 L 78.7 51.6 L 81.7 47.6 L 79.9 43.5 C 81.2 42.3 82.5 41.3 83.9 40.4 L 87.6 43.1 L 92.2 41.2 L 92.8 36.7 C 94.4 36.3 96.1 36.1 97.8 36.0 L 99.5 40.2 L 104.5 40.8 L 107.3 37.2 C 108.9 37.7 110.5 38.4 111.9 39.1 L 111.4 43.7 L 115.4 46.7 L 119.5 45.0 C 120.7 46.2 121.7 47.5 122.6 48.9 L 119.9 52.6 L 121.8 57.2 Z M 101.7 42.9 C 90.1 41.4 79.4 49.7 77.9 61.3 C 76.4 72.9 84.7 83.6 96.3 85.1 C 107.9 86.6 118.6 78.3 120.1 66.7 C 121.6 55.1 113.3 44.4 101.7 42.9 " fill="#D2D1D1"></path></g></g><image xlink:href="4A005840AFB092A04D168A3004BF00B7.png" width="493.00" height="478.00" transform="matrix(1.00, 0.00, -0.00, -1.00, 717.7, 563.2)" opacity="0.70"></image><g><clipPath id="clip-19214"><path d="M 720.0 561.0 L 1209.0 561.0 L 1209.0 87.0 L 720.0 87.0 Z M 719.8 561.1 "></path></clipPath><g clip-path="url(#clip-19214)"><image xlink:href="9DA5E7DC814D2C39C508ECF3DE7B358D.png" width="275.00" height="541.00" transform="matrix(2.13, 0.00, -0.00, -2.13, 671.0, 572.0)"></image></g></g><path d="M 0.0 0.0 L 0.0 473.7 L 489.2 473.7 L 489.2 0.0 L 0.0 0.0 Z M 0.0 0.0 " fill="none" stroke="#F2F6F5" stroke-width="0.25" transform="matrix(1.00, 0.00, 0.00, -1.00, 719.8, 561.1)"></path><text xml:space="preserve" font-family="Sonus-Bold" font-weight="bold" font-size="40.0" fill="#000000" transform="matrix(1.00, 0.00, -0.00, -1.00, 69.0, 579.0)">E</text><text xml:space="preserve" font-family="Sonus-Bold" font-weight="bold" font-size="40.0" fill="#000000" transform="matrix(1.00, 0.00, -0.00, -1.00, 91.8, 579.0)">n</text><text xml:space="preserve" font-family="Sonus-Bold" font-weight="bold" font-size="40.0" fill="#000000" transform="matrix(1.00, 0.00, -0.00, -1.00, 115.6, 579.0)">c</text><text xml:space="preserve" font-family="Sonus-Bold" font-weight="bold" font-size="40.0" fill="#000000" transform="matrix(1.00, 0.00, -0.00, -1.00, 134.4, 579.0)">o</text><text xml:space="preserve" font-family="Sonus-Bold" font-weight="bold" font-size="40.0" fill="#000000" transform="matrix(1.00, 0.00, -0.00, -1.00, 157.6, 579.0)">u</text><text xml:space="preserve" font-family="Sonus-Bold" font-weight="bold" font-size="40.0" fill="#000000" transform="matrix(1.00, 0.00, -0.00, -1.00, 181.4, 579.0)">r</text><text xml:space="preserve" font-family="Sonus-Bold" font-weight="bold" font-size="40.0" fill="#000000" transform="matrix(1.00, 0.00, -0.00, -1.00, 196.7, 579.0)">a</text><text xml:space="preserve" font-family="Sonus-Bold" font-weight="bold" font-size="40.0" fill="#000000" transform="matrix(1.00, 0.00, -0.00, -1.00, 218.4, 579.0)">g</text><text xml:space="preserve" font-family="Sonus-Bold" font-weight="bold" font-size="40.0" fill="#000000" transform="matrix(1.00, 0.00, -0.00, -1.00, 240.0, 579.0)">e</text><text xml:space="preserve" font-family="Sonus-Bold" font-weight="bold" font-size="40.0" fill="#000000" transform="matrix(1.00, 0.00, -0.00, -1.00, 261.3, 579.0)"> </text><text xml:space="preserve" font-family="Sonus-Bold" font-weight="bold" font-size="40.0" fill="#000000" transform="matrix(1.00, 0.00, -0.00, -1.00, 270.0, 579.0)">u</text><text xml:space="preserve" font-family="Sonus-Bold" font-weight="bold" font-size="40.0" fill="#000000" transform="matrix(1.00, 0.00, -0.00, -1.00, 293.8, 579.0)">n</text><text xml:space="preserve" font-family="Sonus-Bold" font-weight="bold" font-size="40.0" fill="#000000" transform="matrix(1.00, 0.00, -0.00, -1.00, 317.6, 579.0)">c</text><text xml:space="preserve" font-family="Sonus-Bold" font-weight="bold" font-size="40.0" fill="#000000" transform="matrix(1.00, 0.00, -0.00, -1.00, 336.4, 579.0)">e</text><text xml:space="preserve" font-family="Sonus-Bold" font-weight="bold" font-size="40.0" fill="#000000" transform="matrix(1.00, 0.00, -0.00, -1.00, 357.8, 579.0)">r</text><text xml:space="preserve" font-family="Sonus-Bold" font-weight="bold" font-size="40.0" fill="#000000" transform="matrix(1.00, 0.00, -0.00, -1.00, 374.0, 579.0)">t</text><text xml:space="preserve" font-family="Sonus-Bold" font-weight="bold" font-size="40.0" fill="#000000" transform="matrix(1.00, 0.00, -0.00, -1.00, 389.1, 579.0)">a</text><text xml:space="preserve" font-family="Sonus-Bold" font-weight="bold" font-size="40.0" fill="#000000" transform="matrix(1.00, 0.00, -0.00, -1.00, 410.5, 579.0)">i</text><text xml:space="preserve" font-family="Sonus-Bold" font-weight="bold" font-size="40.0" fill="#000000" transform="matrix(1.00, 0.00, -0.00, -1.00, 421.6, 579.0)">n</text><text xml:space="preserve" font-family="Sonus-Bold" font-weight="bold" font-size="40.0" fill="#000000" transform="matrix(1.00, 0.00, -0.00, -1.00, 445.4, 579.0)"> </text><text xml:space="preserve" font-family="Sonus-Bold" font-weight="bold" font-size="40.0" fill="#000000" transform="matrix(1.00, 0.00, -0.00, -1.00, 454.1, 579.0)">c</text><text xml:space="preserve" font-family="Sonus-Bold" font-weight="bold" font-size="40.0" fill="#000000" transform="matrix(1.00, 0.00, -0.00, -1.00, 473.1, 579.0)">a</text><text xml:space="preserve" font-family="Sonus-Bold" font-weight="bold" font-size="40.0" fill="#000000" transform="matrix(1.00, 0.00, -0.00, -1.00, 494.5, 579.0)">n</text><text xml:space="preserve" font-family="Sonus-Bold" font-weight="bold" font-size="40.0" fill="#000000" transform="matrix(1.00, 0.00, -0.00, -1.00, 518.3, 579.0)">d</text><text xml:space="preserve" font-family="Sonus-Bold" font-weight="bold" font-size="40.0" fill="#000000" transform="matrix(1.00, 0.00, -0.00, -1.00, 542.3, 579.0)">i</text><text xml:space="preserve" font-family="Sonus-Bold" font-weight="bold" font-size="40.0" fill="#000000" transform="matrix(1.00, 0.00, -0.00, -1.00, 553.4, 579.0)">d</text><text xml:space="preserve" font-family="Sonus-Bold" font-weight="bold" font-size="40.0" fill="#000000" transform="matrix(1.00, 0.00, -0.00, -1.00, 577.4, 579.0)">a</text><text xml:space="preserve" font-family="Sonus-Bold" font-weight="bold" font-size="40.0" fill="#000000" transform="matrix(1.00, 0.00, -0.00, -1.00, 598.8, 579.0)">t</text><text xml:space="preserve" font-family="Sonus-Bold" font-weight="bold" font-size="40.0" fill="#000000" transform="matrix(1.00, 0.00, -0.00, -1.00, 613.7, 579.0)">e</text><text xml:space="preserve" font-family="Sonus-Bold" font-weight="bold" font-size="40.0" fill="#000000" transform="matrix(1.00, 0.00, -0.00, -1.00, 635.0, 579.0)">s</text><text xml:space="preserve" font-family="Sonus-Bold" font-weight="bold" font-size="40.0" fill="#000000" transform="matrix(1.00, 0.00, -0.00, -1.00, 652.6, 579.0)"> </text><text xml:space="preserve" font-family="Sonus-Bold" font-weight="bold" font-size="40.0" fill="#000000" transform="matrix(1.00, 0.00, -0.00, -1.00, 661.3, 579.0)">t</text><text xml:space="preserve" font-family="Sonus-Bold" font-weight="bold" font-size="40.0" fill="#000000" transform="matrix(1.00, 0.00, -0.00, -1.00, 676.2, 579.0)">o</text><text xml:space="preserve" font-family="Sonus-Bold" font-weight="bold" font-size="40.0" fill="#000000" transform="matrix(1.00, 0.00, -0.00, -1.00, 699.4, 579.0)"> </text><text xml:space="preserve" font-family="Sonus-Bold" font-weight="bold" font-size="40.0" fill="#000000" transform="matrix(1.00, 0.00, -0.00, -1.00, 708.0, 579.0)">e</text><text xml:space="preserve" font-family="Sonus-Bold" font-weight="bold" font-size="40.0" fill="#000000" transform="matrix(1.00, 0.00, -0.00, -1.00, 729.2, 579.0)">x</text><text xml:space="preserve" font-family="Sonus-Bold" font-weight="bold" font-size="40.0" fill="#000000" transform="matrix(1.00, 0.00, -0.00, -1.00, 751.6, 579.0)">p</text><text xml:space="preserve" font-family="Sonus-Bold" font-weight="bold" font-size="40.0" fill="#000000" transform="matrix(1.00, 0.00, -0.00, -1.00, 775.6, 579.0)">l</text><text xml:space="preserve" font-family="Sonus-Bold" font-weight="bold" font-size="40.0" fill="#000000" transform="matrix(1.00, 0.00, -0.00, -1.00, 786.7, 579.0)">o</text><text xml:space="preserve" font-family="Sonus-Bold" font-weight="bold" font-size="40.0" fill="#000000" transform="matrix(1.00, 0.00, -0.00, -1.00, 809.9, 579.0)">r</text><text xml:space="preserve" font-family="Sonus-Bold" font-weight="bold" font-size="40.0" fill="#000000" transform="matrix(1.00, 0.00, -0.00, -1.00, 825.0, 579.0)">e</text><text xml:space="preserve" font-family="Sonus-Bold" font-weight="bold" font-size="40.0" fill="#000000" transform="matrix(1.00, 0.00, -0.00, -1.00, 846.3, 579.0)"> </text><text xml:space="preserve" font-family="Sonus-Bold" font-weight="bold" font-size="40.0" fill="#000000" transform="matrix(1.00, 0.00, -0.00, -1.00, 855.0, 579.0)">c</text><text xml:space="preserve" font-family="Sonus-Bold" font-weight="bold" font-size="40.0" fill="#000000" transform="matrix(1.00, 0.00, -0.00, -1.00, 874.0, 579.0)">a</text><text xml:space="preserve" font-family="Sonus-Bold" font-weight="bold" font-size="40.0" fill="#000000" transform="matrix(1.00, 0.00, -0.00, -1.00, 895.4, 579.0)">r</text><text xml:space="preserve" font-family="Sonus-Bold" font-weight="bold" font-size="40.0" fill="#000000" transform="matrix(1.00, 0.00, -0.00, -1.00, 910.5, 579.0)">e</text><text xml:space="preserve" font-family="Sonus-Bold" font-weight="bold" font-size="40.0" fill="#000000" transform="matrix(1.00, 0.00, -0.00, -1.00, 931.8, 579.0)">e</text><text xml:space="preserve" font-family="Sonus-Bold" font-weight="bold" font-size="40.0" fill="#000000" transform="matrix(1.00, 0.00, -0.00, -1.00, 953.1, 579.0)">r</text><text xml:space="preserve" font-family="Sonus-Bold" font-weight="bold" font-size="40.0" fill="#000000" transform="matrix(1.00, 0.00, -0.00, -1.00, 969.0, 579.0)"> </text><text xml:space="preserve" font-family="Sonus-Bold" font-weight="bold" font-size="40.0" fill="#000000" transform="matrix(1.00, 0.00, -0.00, -1.00, 977.6, 579.0)">o</text><text xml:space="preserve" font-family="Sonus-Bold" font-weight="bold" font-size="40.0" fill="#000000" transform="matrix(1.00, 0.00, -0.00, -1.00, 1000.8, 579.0)">p</text><text xml:space="preserve" font-family="Sonus-Bold" font-weight="bold" font-size="40.0" fill="#000000" transform="matrix(1.00, 0.00, -0.00, -1.00, 1024.8, 579.0)">t</text><text xml:space="preserve" font-family="Sonus-Bold" font-weight="bold" font-size="40.0" fill="#000000" transform="matrix(1.00, 0.00, -0.00, -1.00, 1039.6, 579.0)">i</text><text xml:space="preserve" font-family="Sonus-Bold" font-weight="bold" font-size="40.0" fill="#000000" transform="matrix(1.00, 0.00, -0.00, -1.00, 1050.8, 579.0)">o</text><text xml:space="preserve" font-family="Sonus-Bold" font-weight="bold" font-size="40.0" fill="#000000" transform="matrix(1.00, 0.00, -0.00, -1.00, 1074.0, 579.0)">n</text><text xml:space="preserve" font-family="Sonus-Bold" font-weight="bold" font-size="40.0" fill="#000000" transform="matrix(1.00, 0.00, -0.00, -1.00, 1097.8, 579.0)">s</text><text xml:space="preserve" font-family="Sonus-Bold" font-weight="bold" font-size="40.0" fill="#000000" transform="matrix(1.00, 0.00, -0.00, -1.00, 1115.6, 579.0)">.</text><text xml:space="preserve" font-family="Sonus-Light" font-size="20.0" fill="#5D5D5D" transform="matrix(1.00, 0.00, -0.00, -1.00, 69.0, 351.0)">E</text><text xml:space="preserve" font-family="Sonus-Light" font-size="20.0" fill="#5D5D5D" transform="matrix(1.00, 0.00, -0.00, -1.00, 79.5, 351.0)">d</text><text xml:space="preserve" font-family="Sonus-Light" font-size="20.0" fill="#5D5D5D" transform="matrix(1.00, 0.00, -0.00, -1.00, 90.5, 351.0)">w</text><text xml:space="preserve" font-family="Sonus-Light" font-size="20.0" fill="#5D5D5D" transform="matrix(1.00, 0.00, -0.00, -1.00, 104.3, 351.0)">a</text><text xml:space="preserve" font-family="Sonus-Light" font-size="20.0" fill="#5D5D5D" transform="matrix(1.00, 0.00, -0.00, -1.00, 114.3, 351.0)">r</text><text xml:space="preserve" font-family="Sonus-Light" font-size="20.0" fill="#5D5D5D" transform="matrix(1.00, 0.00, -0.00, -1.00, 120.8, 351.0)">d</text><text xml:space="preserve" font-family="Sonus-Light" font-size="20.0" fill="#5D5D5D" transform="matrix(1.00, 0.00, -0.00, -1.00, 131.8, 351.0)"> </text><text xml:space="preserve" font-family="Sonus-Light" font-size="20.0" fill="#5D5D5D" transform="matrix(1.00, 0.00, -0.00, -1.00, 136.2, 351.0)">J</text><text xml:space="preserve" font-family="Sonus-Light" font-size="20.0" fill="#5D5D5D" transform="matrix(1.00, 0.00, -0.00, -1.00, 143.7, 351.0)">o</text><text xml:space="preserve" font-family="Sonus-Light" font-size="20.0" fill="#5D5D5D" transform="matrix(1.00, 0.00, -0.00, -1.00, 154.4, 351.0)">n</text><text xml:space="preserve" font-family="Sonus-Light" font-size="20.0" fill="#5D5D5D" transform="matrix(1.00, 0.00, -0.00, -1.00, 165.5, 351.0)">e</text><text xml:space="preserve" font-family="Sonus-Light" font-size="20.0" fill="#5D5D5D" transform="matrix(1.00, 0.00, -0.00, -1.00, 175.6, 351.0)">s</text><text xml:space="preserve" font-family="Sonus-Light" font-size="20.0" fill="#5D5D5D" transform="matrix(1.00, 0.00, -0.00, -1.00, 183.7, 351.0)"> </text><text xml:space="preserve" font-family="Sonus-Light" font-size="20.0" fill="#5D5D5D" transform="matrix(1.00, 0.00, -0.00, -1.00, 188.0, 351.0)">a</text><text xml:space="preserve" font-family="Sonus-Light" font-size="20.0" fill="#5D5D5D" transform="matrix(1.00, 0.00, -0.00, -1.00, 198.0, 351.0)">l</text><text xml:space="preserve" font-family="Sonus-Light" font-size="20.0" fill="#5D5D5D" transform="matrix(1.00, 0.00, -0.00, -1.00, 202.6, 351.0)">s</text><text xml:space="preserve" font-family="Sonus-Light" font-size="20.0" fill="#5D5D5D" transform="matrix(1.00, 0.00, -0.00, -1.00, 210.8, 351.0)">o</text><text xml:space="preserve" font-family="Sonus-Light" font-size="20.0" fill="#5D5D5D" transform="matrix(1.00, 0.00, -0.00, -1.00, 221.5, 351.0)"> </text><text xml:space="preserve" font-family="Sonus-Light" font-size="20.0" fill="#5D5D5D" transform="matrix(1.00, 0.00, -0.00, -1.00, 225.9, 351.0)">h</text><text xml:space="preserve" font-family="Sonus-Light" font-size="20.0" fill="#5D5D5D" transform="matrix(1.00, 0.00, -0.00, -1.00, 237.1, 351.0)">a</text><text xml:space="preserve" font-family="Sonus-Light" font-size="20.0" fill="#5D5D5D" transform="matrix(1.00, 0.00, -0.00, -1.00, 247.1, 351.0)">s</text><text xml:space="preserve" font-family="Sonus-Light" font-size="20.0" fill="#5D5D5D" transform="matrix(1.00, 0.00, -0.00, -1.00, 255.1, 351.0)"> </text><text xml:space="preserve" font-family="Sonus-Light" font-size="20.0" fill="#5D5D5D" transform="matrix(1.00, 0.00, -0.00, -1.00, 259.5, 351.0)">a</text><text xml:space="preserve" font-family="Sonus-Light" font-size="20.0" fill="#5D5D5D" transform="matrix(1.00, 0.00, -0.00, -1.00, 269.4, 351.0)"> </text><text xml:space="preserve" font-family="Sonus-Light" font-size="20.0" fill="#5D5D5D" transform="matrix(1.00, 0.00, -0.00, -1.00, 273.8, 351.0)">c</text><text xml:space="preserve" font-family="Sonus-Light" font-size="20.0" fill="#5D5D5D" transform="matrix(1.00, 0.00, -0.00, -1.00, 282.9, 351.0)">a</text><text xml:space="preserve" font-family="Sonus-Light" font-size="20.0" fill="#5D5D5D" transform="matrix(1.00, 0.00, -0.00, -1.00, 292.9, 351.0)">r</text><text xml:space="preserve" font-family="Sonus-Light" font-size="20.0" fill="#5D5D5D" transform="matrix(1.00, 0.00, -0.00, -1.00, 299.4, 351.0)">e</text><text xml:space="preserve" font-family="Sonus-Light" font-size="20.0" fill="#5D5D5D" transform="matrix(1.00, 0.00, -0.00, -1.00, 309.4, 351.0)">e</text><text xml:space="preserve" font-family="Sonus-Light" font-size="20.0" fill="#5D5D5D" transform="matrix(1.00, 0.00, -0.00, -1.00, 319.5, 351.0)">r</text><text xml:space="preserve" font-family="Sonus-Light" font-size="20.0" fill="#5D5D5D" transform="matrix(1.00, 0.00, -0.00, -1.00, 326.4, 351.0)"> </text><text xml:space="preserve" font-family="Sonus-Light" font-size="20.0" fill="#5D5D5D" transform="matrix(1.00, 0.00, -0.00, -1.00, 330.7, 351.0)">ﬁ</text><text xml:space="preserve" font-family="Sonus-Light" font-size="20.0" fill="#5D5D5D" transform="matrix(1.00, 0.00, -0.00, -1.00, 341.2, 351.0)">t</text><text xml:space="preserve" font-family="Sonus-Light" font-size="20.0" fill="#5D5D5D" transform="matrix(1.00, 0.00, -0.00, -1.00, 347.7, 351.0)"> </text><text xml:space="preserve" font-family="Sonus-Light" font-size="20.0" fill="#5D5D5D" transform="matrix(1.00, 0.00, -0.00, -1.00, 352.1, 351.0)">t</text><text xml:space="preserve" font-family="Sonus-Light" font-size="20.0" fill="#5D5D5D" transform="matrix(1.00, 0.00, -0.00, -1.00, 358.6, 351.0)">o</text><text xml:space="preserve" font-family="Sonus-Light" font-size="20.0" fill="#5D5D5D" transform="matrix(1.00, 0.00, -0.00, -1.00, 369.3, 351.0)">o</text><text xml:space="preserve" font-family="Sonus-Light" font-size="20.0" fill="#5D5D5D" transform="matrix(1.00, 0.00, -0.00, -1.00, 380.1, 351.0)"> </text><text xml:space="preserve" font-family="Sonus-Light" font-size="20.0" fill="#5D5D5D" transform="matrix(1.00, 0.00, -0.00, -1.00, 384.4, 351.0)">t</text><text xml:space="preserve" font-family="Sonus-Light" font-size="20.0" fill="#5D5D5D" transform="matrix(1.00, 0.00, -0.00, -1.00, 390.9, 351.0)">h</text><text xml:space="preserve" font-family="Sonus-Light" font-size="20.0" fill="#5D5D5D" transform="matrix(1.00, 0.00, -0.00, -1.00, 402.2, 351.0)">a</text><text xml:space="preserve" font-family="Sonus-Light" font-size="20.0" fill="#5D5D5D" transform="matrix(1.00, 0.00, -0.00, -1.00, 412.1, 351.0)">t</text><text xml:space="preserve" font-family="Sonus-Light" font-size="20.0" fill="#5D5D5D" transform="matrix(1.00, 0.00, -0.00, -1.00, 418.6, 351.0)"> </text><text xml:space="preserve" font-family="Sonus-Light" font-size="20.0" fill="#5D5D5D" transform="matrix(1.00, 0.00, -0.00, -1.00, 69.0, 322.0)">h</text><text xml:space="preserve" font-family="Sonus-Light" font-size="20.0" fill="#5D5D5D" transform="matrix(1.00, 0.00, -0.00, -1.00, 80.2, 322.0)">e</text><text xml:space="preserve" font-family="Sonus-Light" font-size="20.0" fill="#5D5D5D" transform="matrix(1.00, 0.00, -0.00, -1.00, 90.3, 322.0)">l</text><text xml:space="preserve" font-family="Sonus-Light" font-size="20.0" fill="#5D5D5D" transform="matrix(1.00, 0.00, -0.00, -1.00, 94.9, 322.0)">p</text><text xml:space="preserve" font-family="Sonus-Light" font-size="20.0" fill="#5D5D5D" transform="matrix(1.00, 0.00, -0.00, -1.00, 105.9, 322.0)">s</text><text xml:space="preserve" font-family="Sonus-Light" font-size="20.0" fill="#5D5D5D" transform="matrix(1.00, 0.00, -0.00, -1.00, 114.0, 322.0)"> </text><text xml:space="preserve" font-family="Sonus-Light" font-size="20.0" fill="#5D5D5D" transform="matrix(1.00, 0.00, -0.00, -1.00, 118.3, 322.0)">u</text><text xml:space="preserve" font-family="Sonus-Light" font-size="20.0" fill="#5D5D5D" transform="matrix(1.00, 0.00, -0.00, -1.00, 129.6, 322.0)">s</text><text xml:space="preserve" font-family="Sonus-Light" font-size="20.0" fill="#5D5D5D" transform="matrix(1.00, 0.00, -0.00, -1.00, 137.8, 322.0)">e</text><text xml:space="preserve" font-family="Sonus-Light" font-size="20.0" fill="#5D5D5D" transform="matrix(1.00, 0.00, -0.00, -1.00, 147.8, 322.0)">r</text><text xml:space="preserve" font-family="Sonus-Light" font-size="20.0" fill="#5D5D5D" transform="matrix(1.00, 0.00, -0.00, -1.00, 154.4, 322.0)">s</text><text xml:space="preserve" font-family="Sonus-Light" font-size="20.0" fill="#5D5D5D" transform="matrix(1.00, 0.00, -0.00, -1.00, 162.5, 322.0)"> </text><text xml:space="preserve" font-family="Sonus-Light" font-size="20.0" fill="#5D5D5D" transform="matrix(1.00, 0.00, -0.00, -1.00, 166.8, 322.0)">ﬁ</text><text xml:space="preserve" font-family="Sonus-Light" font-size="20.0" fill="#5D5D5D" transform="matrix(1.00, 0.00, -0.00, -1.00, 177.4, 322.0)">n</text><text xml:space="preserve" font-family="Sonus-Light" font-size="20.0" fill="#5D5D5D" transform="matrix(1.00, 0.00, -0.00, -1.00, 188.5, 322.0)">d</text><text xml:space="preserve" font-family="Sonus-Light" font-size="20.0" fill="#5D5D5D" transform="matrix(1.00, 0.00, -0.00, -1.00, 199.5, 322.0)"> </text><text xml:space="preserve" font-family="Sonus-Light" font-size="20.0" fill="#5D5D5D" transform="matrix(1.00, 0.00, -0.00, -1.00, 203.9, 322.0)">a</text><text xml:space="preserve" font-family="Sonus-Light" font-size="20.0" fill="#5D5D5D" transform="matrix(1.00, 0.00, -0.00, -1.00, 213.8, 322.0)"> </text><text xml:space="preserve" font-family="Sonus-Light" font-size="20.0" fill="#5D5D5D" transform="matrix(1.00, 0.00, -0.00, -1.00, 218.2, 322.0)">p</text><text xml:space="preserve" font-family="Sonus-Light" font-size="20.0" fill="#5D5D5D" transform="matrix(1.00, 0.00, -0.00, -1.00, 229.2, 322.0)">l</text><text xml:space="preserve" font-family="Sonus-Light" font-size="20.0" fill="#5D5D5D" transform="matrix(1.00, 0.00, -0.00, -1.00, 233.8, 322.0)">a</text><text xml:space="preserve" font-family="Sonus-Light" font-size="20.0" fill="#5D5D5D" transform="matrix(1.00, 0.00, -0.00, -1.00, 243.8, 322.0)">c</text><text xml:space="preserve" font-family="Sonus-Light" font-size="20.0" fill="#5D5D5D" transform="matrix(1.00, 0.00, -0.00, -1.00, 252.9, 322.0)">e</text><text xml:space="preserve" font-family="Sonus-Light" font-size="20.0" fill="#5D5D5D" transform="matrix(1.00, 0.00, -0.00, -1.00, 262.9, 322.0)"> </text><text xml:space="preserve" font-family="Sonus-Light" font-size="20.0" fill="#5D5D5D" transform="matrix(1.00, 0.00, -0.00, -1.00, 267.2, 322.0)">i</text><text xml:space="preserve" font-family="Sonus-Light" font-size="20.0" fill="#5D5D5D" transform="matrix(1.00, 0.00, -0.00, -1.00, 271.8, 322.0)">n</text><text xml:space="preserve" font-family="Sonus-Light" font-size="20.0" fill="#5D5D5D" transform="matrix(1.00, 0.00, -0.00, -1.00, 282.9, 322.0)"> </text><text xml:space="preserve" font-family="Sonus-Light" font-size="20.0" fill="#5D5D5D" transform="matrix(1.00, 0.00, -0.00, -1.00, 287.2, 322.0)">t</text><text xml:space="preserve" font-family="Sonus-Light" font-size="20.0" fill="#5D5D5D" transform="matrix(1.00, 0.00, -0.00, -1.00, 293.7, 322.0)">h</text><text xml:space="preserve" font-family="Sonus-Light" font-size="20.0" fill="#5D5D5D" transform="matrix(1.00, 0.00, -0.00, -1.00, 305.0, 322.0)">e</text><text xml:space="preserve" font-family="Sonus-Light" font-size="20.0" fill="#5D5D5D" transform="matrix(1.00, 0.00, -0.00, -1.00, 315.0, 322.0)"> </text><text xml:space="preserve" font-family="Sonus-Light" font-size="20.0" fill="#5D5D5D" transform="matrix(1.00, 0.00, -0.00, -1.00, 319.3, 322.0)">c</text><text xml:space="preserve" font-family="Sonus-Light" font-size="20.0" fill="#5D5D5D" transform="matrix(1.00, 0.00, -0.00, -1.00, 328.4, 322.0)">o</text><text xml:space="preserve" font-family="Sonus-Light" font-size="20.0" fill="#5D5D5D" transform="matrix(1.00, 0.00, -0.00, -1.00, 339.2, 322.0)">m</text><text xml:space="preserve" font-family="Sonus-Light" font-size="20.0" fill="#5D5D5D" transform="matrix(1.00, 0.00, -0.00, -1.00, 356.5, 322.0)">p</text><text xml:space="preserve" font-family="Sonus-Light" font-size="20.0" fill="#5D5D5D" transform="matrix(1.00, 0.00, -0.00, -1.00, 367.6, 322.0)">a</text><text xml:space="preserve" font-family="Sonus-Light" font-size="20.0" fill="#5D5D5D" transform="matrix(1.00, 0.00, -0.00, -1.00, 377.6, 322.0)">n</text><text xml:space="preserve" font-family="Sonus-Light" font-size="20.0" fill="#5D5D5D" transform="matrix(1.00, 0.00, -0.00, -1.00, 388.6, 322.0)">y</text><text xml:space="preserve" font-family="Sonus-Light" font-size="20.0" fill="#5D5D5D" transform="matrix(1.00, 0.00, -0.00, -1.00, 396.7, 322.0)">.</text><text xml:space="preserve" font-family="Sonus-Light" font-size="20.0" fill="#5D5D5D" transform="matrix(1.00, 0.00, -0.00, -1.00, 400.5, 322.0)"> </text><g><clipPath id="clip-19215"><path d="M 528.9 51.8 L 1207.4 51.8 L 1207.4 89.3 L 528.9 89.3 Z M 528.9 51.8 "></path></clipPath><g clip-path="url(#clip-19215)"><text xml:space="preserve" font-family="Sonus-Light" font-size="14.0" fill="#A6AAA8" transform="matrix(1.00, 0.00, -0.00, -1.00, 817.7, 54.5)">h</text><text xml:space="preserve" font-family="Sonus-Light" font-size="14.0" fill="#A6AAA8" transform="matrix(1.00, 0.00, -0.00, -1.00, 825.6, 54.5)">t</text><text xml:space="preserve" font-family="Sonus-Light" font-size="14.0" fill="#A6AAA8" transform="matrix(1.00, 0.00, -0.00, -1.00, 830.1, 54.5)">t</text><text xml:space="preserve" font-family="Sonus-Light" font-size="14.0" fill="#A6AAA8" transform="matrix(1.00, 0.00, -0.00, -1.00, 834.7, 54.5)">p</text><text xml:space="preserve" font-family="Sonus-Light" font-size="14.0" fill="#A6AAA8" transform="matrix(1.00, 0.00, -0.00, -1.00, 842.4, 54.5)">:</text><text xml:space="preserve" font-family="Sonus-Light" font-size="14.0" fill="#A6AAA8" transform="matrix(1.00, 0.00, -0.00, -1.00, 845.4, 54.5)">/</text><text xml:space="preserve" font-family="Sonus-Light" font-size="14.0" fill="#A6AAA8" transform="matrix(1.00, 0.00, -0.00, -1.00, 850.6, 54.5)">/</text><text xml:space="preserve" font-family="Sonus-Light" font-size="14.0" fill="#A6AAA8" transform="matrix(1.00, 0.00, -0.00, -1.00, 855.1, 54.5)">c</text><text xml:space="preserve" font-family="Sonus-Light" font-size="14.0" fill="#A6AAA8" transform="matrix(1.00, 0.00, -0.00, -1.00, 861.5, 54.5)">a</text><text xml:space="preserve" font-family="Sonus-Light" font-size="14.0" fill="#A6AAA8" transform="matrix(1.00, 0.00, -0.00, -1.00, 868.4, 54.5)">r</text><text xml:space="preserve" font-family="Sonus-Light" font-size="14.0" fill="#A6AAA8" transform="matrix(1.00, 0.00, -0.00, -1.00, 873.0, 54.5)">e</text><text xml:space="preserve" font-family="Sonus-Light" font-size="14.0" fill="#A6AAA8" transform="matrix(1.00, 0.00, -0.00, -1.00, 880.0, 54.5)">e</text><text xml:space="preserve" font-family="Sonus-Light" font-size="14.0" fill="#A6AAA8" transform="matrix(1.00, 0.00, -0.00, -1.00, 887.1, 54.5)">r</text><text xml:space="preserve" font-family="Sonus-Light" font-size="14.0" fill="#A6AAA8" transform="matrix(1.00, 0.00, -0.00, -1.00, 891.7, 54.5)">s</text><text xml:space="preserve" font-family="Sonus-Light" font-size="14.0" fill="#A6AAA8" transform="matrix(1.00, 0.00, -0.00, -1.00, 897.4, 54.5)">.</text><text xml:space="preserve" font-family="Sonus-Light" font-size="14.0" fill="#A6AAA8" transform="matrix(1.00, 0.00, -0.00, -1.00, 900.1, 54.5)">e</text><text xml:space="preserve" font-family="Sonus-Light" font-size="14.0" fill="#A6AAA8" transform="matrix(1.00, 0.00, -0.00, -1.00, 907.1, 54.5)">d</text><text xml:space="preserve" font-family="Sonus-Light" font-size="14.0" fill="#A6AAA8" transform="matrix(1.00, 0.00, -0.00, -1.00, 914.9, 54.5)">w</text><text xml:space="preserve" font-family="Sonus-Light" font-size="14.0" fill="#A6AAA8" transform="matrix(1.00, 0.00, -0.00, -1.00, 924.5, 54.5)">a</text><text xml:space="preserve" font-family="Sonus-Light" font-size="14.0" fill="#A6AAA8" transform="matrix(1.00, 0.00, -0.00, -1.00, 931.5, 54.5)">r</text><text xml:space="preserve" font-family="Sonus-Light" font-size="14.0" fill="#A6AAA8" transform="matrix(1.00, 0.00, -0.00, -1.00, 936.1, 54.5)">d</text><text xml:space="preserve" font-family="Sonus-Light" font-size="14.0" fill="#A6AAA8" transform="matrix(1.00, 0.00, -0.00, -1.00, 943.8, 54.5)">j</text><text xml:space="preserve" font-family="Sonus-Light" font-size="14.0" fill="#A6AAA8" transform="matrix(1.00, 0.00, -0.00, -1.00, 947.1, 54.5)">o</text><text xml:space="preserve" font-family="Sonus-Light" font-size="14.0" fill="#A6AAA8" transform="matrix(1.00, 0.00, -0.00, -1.00, 954.6, 54.5)">n</text><text xml:space="preserve" font-family="Sonus-Light" font-size="14.0" fill="#A6AAA8" transform="matrix(1.00, 0.00, -0.00, -1.00, 962.4, 54.5)">e</text><text xml:space="preserve" font-family="Sonus-Light" font-size="14.0" fill="#A6AAA8" transform="matrix(1.00, 0.00, -0.00, -1.00, 969.4, 54.5)">s</text><text xml:space="preserve" font-family="Sonus-Light" font-size="14.0" fill="#A6AAA8" transform="matrix(1.00, 0.00, -0.00, -1.00, 975.2, 54.5)">.</text><text xml:space="preserve" font-family="Sonus-Light" font-size="14.0" fill="#A6AAA8" transform="matrix(1.00, 0.00, -0.00, -1.00, 977.8, 54.5)">c</text><text xml:space="preserve" font-family="Sonus-Light" font-size="14.0" fill="#A6AAA8" transform="matrix(1.00, 0.00, -0.00, -1.00, 984.2, 54.5)">o</text><text xml:space="preserve" font-family="Sonus-Light" font-size="14.0" fill="#A6AAA8" transform="matrix(1.00, 0.00, -0.00, -1.00, 991.7, 54.5)">m</text><text xml:space="preserve" font-family="Sonus-Light" font-size="14.0" fill="#A6AAA8" transform="matrix(1.00, 0.00, -0.00, -1.00, 1004.1, 54.5)">/</text><text xml:space="preserve" font-family="Sonus-Light" font-size="14.0" fill="#A6AAA8" transform="matrix(1.00, 0.00, -0.00, -1.00, 1008.6, 54.5)">e</text><text xml:space="preserve" font-family="Sonus-Light" font-size="14.0" fill="#A6AAA8" transform="matrix(1.00, 0.00, -0.00, -1.00, 1015.6, 54.5)">x</text><text xml:space="preserve" font-family="Sonus-Light" font-size="14.0" fill="#A6AAA8" transform="matrix(1.00, 0.00, -0.00, -1.00, 1022.1, 54.5)">p</text><text xml:space="preserve" font-family="Sonus-Light" font-size="14.0" fill="#A6AAA8" transform="matrix(1.00, 0.00, -0.00, -1.00, 1029.8, 54.5)">l</text><text xml:space="preserve" font-family="Sonus-Light" font-size="14.0" fill="#A6AAA8" transform="matrix(1.00, 0.00, -0.00, -1.00, 1033.1, 54.5)">o</text><text xml:space="preserve" font-family="Sonus-Light" font-size="14.0" fill="#A6AAA8" transform="matrix(1.00, 0.00, -0.00, -1.00, 1040.6, 54.5)">r</text><text xml:space="preserve" font-family="Sonus-Light" font-size="14.0" fill="#A6AAA8" transform="matrix(1.00, 0.00, -0.00, -1.00, 1045.2, 54.5)">e</text><text xml:space="preserve" font-family="Sonus-Light" font-size="14.0" fill="#A6AAA8" transform="matrix(1.00, 0.00, -0.00, -1.00, 1052.2, 54.5)">-</text><text xml:space="preserve" font-family="Sonus-Light" font-size="14.0" fill="#A6AAA8" transform="matrix(1.00, 0.00, -0.00, -1.00, 1056.5, 54.5)">o</text><text xml:space="preserve" font-family="Sonus-Light" font-size="14.0" fill="#A6AAA8" transform="matrix(1.00, 0.00, -0.00, -1.00, 1064.0, 54.5)">p</text><text xml:space="preserve" font-family="Sonus-Light" font-size="14.0" fill="#A6AAA8" transform="matrix(1.00, 0.00, -0.00, -1.00, 1071.8, 54.5)">p</text><text xml:space="preserve" font-family="Sonus-Light" font-size="14.0" fill="#A6AAA8" transform="matrix(1.00, 0.00, -0.00, -1.00, 1079.5, 54.5)">o</text><text xml:space="preserve" font-family="Sonus-Light" font-size="14.0" fill="#A6AAA8" transform="matrix(1.00, 0.00, -0.00, -1.00, 1087.0, 54.5)">r</text><text xml:space="preserve" font-family="Sonus-Light" font-size="14.0" fill="#A6AAA8" transform="matrix(1.00, 0.00, -0.00, -1.00, 1092.0, 54.5)">t</text><text xml:space="preserve" font-family="Sonus-Light" font-size="14.0" fill="#A6AAA8" transform="matrix(1.00, 0.00, -0.00, -1.00, 1096.5, 54.5)">u</text><text xml:space="preserve" font-family="Sonus-Light" font-size="14.0" fill="#A6AAA8" transform="matrix(1.00, 0.00, -0.00, -1.00, 1104.4, 54.5)">n</text><text xml:space="preserve" font-family="Sonus-Light" font-size="14.0" fill="#A6AAA8" transform="matrix(1.00, 0.00, -0.00, -1.00, 1112.2, 54.5)">i</text><text xml:space="preserve" font-family="Sonus-Light" font-size="14.0" fill="#A6AAA8" transform="matrix(1.00, 0.00, -0.00, -1.00, 1115.4, 54.5)">t</text><text xml:space="preserve" font-family="Sonus-Light" font-size="14.0" fill="#A6AAA8" transform="matrix(1.00, 0.00, -0.00, -1.00, 1119.9, 54.5)">i</text><text xml:space="preserve" font-family="Sonus-Light" font-size="14.0" fill="#A6AAA8" transform="matrix(1.00, 0.00, -0.00, -1.00, 1123.1, 54.5)">e</text><text xml:space="preserve" font-family="Sonus-Light" font-size="14.0" fill="#A6AAA8" transform="matrix(1.00, 0.00, -0.00, -1.00, 1130.2, 54.5)">s</text><text xml:space="preserve" font-family="Sonus-Light" font-size="14.0" fill="#A6AAA8" transform="matrix(1.00, 0.00, -0.00, -1.00, 1135.8, 54.5)">/</text><text xml:space="preserve" font-family="Sonus-Light" font-size="14.0" fill="#A6AAA8" transform="matrix(1.00, 0.00, -0.00, -1.00, 1141.1, 54.5)">i</text><text xml:space="preserve" font-family="Sonus-Light" font-size="14.0" fill="#A6AAA8" transform="matrix(1.00, 0.00, -0.00, -1.00, 1144.3, 54.5)">n</text><text xml:space="preserve" font-family="Sonus-Light" font-size="14.0" fill="#A6AAA8" transform="matrix(1.00, 0.00, -0.00, -1.00, 1152.1, 54.5)">d</text><text xml:space="preserve" font-family="Sonus-Light" font-size="14.0" fill="#A6AAA8" transform="matrix(1.00, 0.00, -0.00, -1.00, 1159.8, 54.5)">e</text><text xml:space="preserve" font-family="Sonus-Light" font-size="14.0" fill="#A6AAA8" transform="matrix(1.00, 0.00, -0.00, -1.00, 1166.8, 54.5)">x</text><text xml:space="preserve" font-family="Sonus-Light" font-size="14.0" fill="#A6AAA8" transform="matrix(1.00, 0.00, -0.00, -1.00, 1173.6, 54.5)">.</text><text xml:space="preserve" font-family="Sonus-Light" font-size="14.0" fill="#A6AAA8" transform="matrix(1.00, 0.00, -0.00, -1.00, 1176.2, 54.5)">h</text><text xml:space="preserve" font-family="Sonus-Light" font-size="14.0" fill="#A6AAA8" transform="matrix(1.00, 0.00, -0.00, -1.00, 1184.1, 54.5)">t</text><text xml:space="preserve" font-family="Sonus-Light" font-size="14.0" fill="#A6AAA8" transform="matrix(1.00, 0.00, -0.00, -1.00, 1188.7, 54.5)">m</text><text xml:space="preserve" font-family="Sonus-Light" font-size="14.0" fill="#A6AAA8" transform="matrix(1.00, 0.00, -0.00, -1.00, 1200.8, 54.5)">l</text></g></g><g><clipPath id="clip-19216"><path d="M 816.7 52.1 L 1204.0 52.1 L 1204.0 54.8 L 816.7 54.8 Z M 816.7 52.1 "></path></clipPath><g clip-path="url(#clip-19216)"><path d="M 289.2 39.6 L 675.5 39.6 " fill="none" stroke="#A6AAA8" stroke-width="0.70" stroke-miterlimit="0.00" transform="matrix(1.00, 0.00, 0.00, -1.00, 528.5, 93.0)"></path></g></g><g><clipPath id="clip-19217"><path d="M 67.0 451.0 L 294.0 451.0 L 294.0 417.0 L 67.0 417.0 Z M 67.0 451.0 "></path></clipPath><g clip-path="url(#clip-19217)"><g><clipPath id="clip-19218"><path d="M 67.0 417.0 L 294.0 417.0 L 294.0 451.0 L 67.0 451.0 Z M 67.0 417.0 "></path></clipPath><g clip-path="url(#clip-19218)"><path d="M 204.6 423.1 C 204.6 418.4 200.8 417.0 195.7 417.0 C 194.0 417.0 193.6 417.2 192.5 417.3 L 192.5 422.5 C 193.0 422.4 193.6 422.3 194.1 422.3 C 197.2 422.3 197.4 423.7 197.4 425.9 L 197.4 450.8 L 204.6 450.8 Z M 204.6 423.1 " fill="#000000"></path><path d="M 218.3 425.5 C 220.1 425.5 220.9 426.9 220.9 431.8 C 220.9 436.2 220.4 437.9 218.3 437.9 C 216.2 437.9 215.7 436.2 215.7 431.8 C 215.7 426.9 216.5 425.5 218.3 425.5 M 218.3 441.8 C 225.1 441.8 228.5 437.5 228.5 431.8 C 228.5 425.8 225.3 421.6 218.3 421.6 C 211.4 421.6 208.1 425.8 208.1 431.8 C 208.1 437.5 211.5 441.8 218.3 441.8 " fill="#000000"></path><path d="M 231.9 441.4 L 239.2 441.4 L 239.2 438.8 L 239.3 438.8 C 240.8 440.7 243.1 441.8 245.8 441.8 C 248.7 441.8 250.6 440.1 250.6 437.5 L 250.6 422.0 L 243.3 422.0 L 243.3 435.7 C 243.3 436.7 242.9 437.4 241.5 437.4 C 240.8 437.4 240.1 437.2 239.6 436.6 L 239.2 436.2 L 239.2 422.0 L 231.9 422.0 Z M 231.9 441.4 " fill="#000000"></path><path d="M 266.5 434.0 C 266.5 435.8 266.3 437.9 263.8 437.9 C 261.7 437.9 261.1 435.8 261.1 434.0 Z M 261.1 430.3 C 261.1 428.6 261.5 425.7 264.3 425.7 C 266.1 425.7 267.6 426.8 268.0 428.4 L 273.0 426.9 C 272.7 426.0 270.4 421.6 263.9 421.6 C 256.9 421.6 253.7 426.4 253.7 431.7 C 253.7 437.2 257.1 441.8 263.8 441.8 C 270.8 441.8 273.3 436.7 273.3 431.6 L 273.3 430.3 Z M 261.1 430.3 " fill="#000000"></path><path d="M 288.5 435.4 C 287.8 436.6 286.9 437.9 285.1 437.9 C 283.6 437.9 282.9 437.3 282.9 436.7 C 282.9 433.5 294.0 434.6 294.0 428.2 C 294.0 424.0 290.3 421.6 284.9 421.6 C 279.9 421.6 276.6 423.9 275.4 427.0 L 281.0 428.5 C 281.9 427.1 282.8 425.7 284.9 425.7 C 286.3 425.7 287.2 426.3 287.2 427.2 C 287.2 430.4 276.1 429.1 276.1 435.8 C 276.1 437.9 278.5 441.8 284.9 441.8 C 288.6 441.8 292.3 440.4 293.6 436.6 Z M 288.5 435.4 " fill="#000000"></path><path d="M 88.1 451.0 L 67.1 451.0 L 67.1 449.8 L 70.7 449.8 L 70.7 423.2 L 67.0 423.2 L 67.0 422.0 L 89.0 422.0 L 89.8 431.3 L 88.9 431.3 L 88.9 431.1 C 88.4 429.2 87.9 427.4 86.8 425.6 C 85.3 423.2 84.0 423.2 80.1 423.2 L 75.5 423.2 L 75.5 436.0 L 76.6 436.0 C 80.5 436.0 81.5 435.4 81.7 430.6 L 81.7 430.4 L 82.7 430.4 L 82.7 442.6 L 81.6 442.6 L 81.6 442.4 C 81.5 440.5 81.4 439.5 81.0 438.8 C 80.3 437.4 78.7 437.3 76.8 437.3 L 75.5 437.3 L 75.5 449.8 L 78.6 449.8 C 82.5 449.8 84.6 449.8 86.2 447.1 C 86.2 447.1 87.1 445.1 87.1 445.1 C 87.1 445.1 87.7 442.8 87.7 442.8 L 87.9 442.8 L 88.6 442.8 L 88.3 451.0 Z M 88.1 451.0 " fill="#000000"></path><path d="M 99.0 422.7 C 96.9 422.7 96.3 424.7 96.2 425.9 C 96.1 426.9 96.0 428.5 96.1 430.6 C 96.1 431.4 96.1 434.1 96.3 435.3 C 96.6 438.0 98.3 438.2 99.0 438.2 C 100.9 438.2 102.0 436.5 102.4 435.8 C 103.4 434.0 103.5 432.1 103.5 430.5 C 103.5 424.4 100.6 422.7 99.0 422.7 M 107.9 423.2 L 107.9 451.0 L 107.8 451.0 L 100.5 451.0 L 100.5 449.8 L 103.6 449.8 L 103.6 436.5 C 103.0 437.6 101.5 439.6 98.6 439.6 C 95.0 439.6 91.1 436.4 91.1 430.5 C 91.1 424.0 95.7 421.5 98.6 421.5 C 101.3 421.5 102.8 423.1 103.6 424.7 L 103.6 422.0 L 110.7 422.0 L 110.7 423.2 Z M 107.9 423.2 " fill="#000000"></path><path d="M 137.2 439.1 L 130.6 439.1 L 130.6 437.9 L 133.4 437.9 C 133.3 437.5 130.4 428.2 130.1 427.3 C 129.8 428.2 128.2 432.7 128.2 432.7 L 127.9 433.6 L 125.8 439.1 L 124.1 439.1 C 124.1 439.1 120.7 428.4 120.4 427.5 C 120.1 428.3 119.0 431.5 119.0 431.5 L 118.3 433.3 C 118.3 433.4 116.9 436.9 116.6 437.9 L 119.4 437.9 L 119.4 439.1 L 109.9 439.1 L 109.9 437.9 L 111.9 437.9 C 112.0 437.7 118.4 421.5 118.4 421.5 L 119.9 421.5 C 119.9 421.5 123.3 432.0 123.6 432.9 C 123.9 432.1 128.0 421.5 128.0 421.5 L 129.7 421.5 C 129.7 421.5 134.8 437.6 134.9 437.9 L 137.4 437.9 L 137.4 439.1 Z M 137.2 439.1 " fill="#000000"></path><path d="M 146.9 429.2 C 146.8 427.1 146.7 425.8 145.4 424.6 C 145.2 424.4 144.4 423.7 143.2 423.7 C 142.1 423.7 140.8 424.4 140.8 426.4 C 140.8 429.7 144.1 430.4 146.9 430.5 Z M 153.1 423.8 L 152.8 423.6 C 152.6 423.4 152.2 423.0 151.8 423.0 C 151.1 423.0 151.0 423.7 151.0 425.2 L 151.0 433.7 C 151.0 435.3 151.0 436.7 149.8 437.9 C 148.8 438.9 146.8 439.6 144.8 439.6 C 140.6 439.6 137.7 437.2 137.7 435.1 C 137.7 433.9 138.6 433.0 139.7 433.0 C 141.0 433.0 141.8 434.0 141.8 434.9 C 141.8 435.5 141.5 436.0 141.2 436.3 L 140.9 436.9 C 140.9 437.3 142.3 438.4 144.1 438.4 C 146.7 438.4 146.8 436.7 146.9 435.5 C 146.9 435.5 146.9 431.9 146.9 431.6 C 146.0 431.6 143.5 431.5 141.4 430.9 C 138.3 430.0 136.6 428.1 136.6 425.7 C 136.6 423.2 138.5 421.5 141.4 421.5 C 143.8 421.5 145.7 422.7 146.9 424.6 C 147.0 423.9 147.1 423.0 148.0 422.3 C 148.7 421.8 149.6 421.5 150.5 421.5 C 152.3 421.5 153.3 422.5 153.7 422.9 L 153.8 423.0 Z M 153.1 423.8 " fill="#000000"></path><path d="M 162.3 437.1 C 162.3 437.1 161.9 436.3 161.6 435.7 L 161.6 439.1 L 154.5 439.1 L 154.5 437.9 L 157.3 437.9 L 157.3 423.2 L 154.5 423.2 L 154.5 422.0 L 164.3 422.0 L 164.3 423.2 L 161.6 423.2 L 161.6 428.0 C 161.7 430.5 161.7 432.8 162.8 435.5 C 163.7 437.4 164.4 437.4 164.4 437.4 C 164.6 437.4 164.6 437.4 164.7 436.6 C 164.9 435.3 165.7 434.6 166.8 434.6 C 168.2 434.6 169.2 435.5 169.2 436.9 C 169.2 438.4 168.0 439.4 166.3 439.4 C 164.8 439.4 163.4 438.6 162.3 437.1 " fill="#000000"></path><path d="M 177.6 422.7 C 175.6 422.7 175.0 424.5 174.8 425.9 C 174.6 427.2 174.6 429.2 174.7 430.6 C 174.7 431.4 174.7 434.1 174.9 435.3 C 175.2 438.0 176.9 438.2 177.6 438.2 C 179.5 438.2 180.6 436.5 181.0 435.8 C 182.0 434.0 182.1 432.1 182.1 430.5 C 182.1 424.4 179.2 422.7 177.6 422.7 M 186.5 423.2 L 186.5 451.0 L 186.3 451.0 L 179.1 451.0 L 179.1 449.8 L 182.2 449.8 L 182.2 436.6 C 181.6 437.6 180.1 439.6 177.2 439.6 C 173.5 439.6 169.7 436.4 169.7 430.5 C 169.7 424.0 174.3 421.5 177.2 421.5 C 179.9 421.5 181.4 423.1 182.2 424.7 L 182.2 422.0 L 189.2 422.0 L 189.2 423.2 Z M 186.5 423.2 " fill="#000000"></path></g></g></g></g></g></svg>