<?xml version="1.0" encoding="UTF-8" standalone="no"?><svg xmlns="http://www.w3.org/2000/svg" xmlns:xlink="http://www.w3.org/1999/xlink" clip-rule="evenodd" stroke-miterlimit="4.00" viewBox="0 0 1280 720"><desc>SVG generated by Keynote</desc><defs></defs><g transform="matrix(1.00, 0.00, -0.00, -1.00, 0.0, 720.0)"><path d="M 0.0 720.0 L 1280.0 720.0 L 1280.0 0.0 L 0.0 0.0 Z M 0.0 720.0 " fill="#FEFFFE"></path><text xml:space="preserve" font-family="Sonus" font-size="20.0" fill="#52575F" transform="matrix(1.00, 0.00, -0.00, -1.00, 69.0, 625.0)">M</text><text xml:space="preserve" font-family="Sonus" font-size="20.0" fill="#52575F" transform="matrix(1.00, 0.00, -0.00, -1.00, 85.2, 625.0)">o</text><text xml:space="preserve" font-family="Sonus" font-size="20.0" fill="#52575F" transform="matrix(1.00, 0.00, -0.00, -1.00, 96.2, 625.0)">t</text><text xml:space="preserve" font-family="Sonus" font-size="20.0" fill="#52575F" transform="matrix(1.00, 0.00, -0.00, -1.00, 103.0, 625.0)">i</text><text xml:space="preserve" font-family="Sonus" font-size="20.0" fill="#52575F" transform="matrix(1.00, 0.00, -0.00, -1.00, 107.9, 625.0)">v</text><text xml:space="preserve" font-family="Sonus" font-size="20.0" fill="#52575F" transform="matrix(1.00, 0.00, -0.00, -1.00, 117.3, 625.0)">a</text><text xml:space="preserve" font-family="Sonus" font-size="20.0" fill="#52575F" transform="matrix(1.00, 0.00, -0.00, -1.00, 127.5, 625.0)">t</text><text xml:space="preserve" font-family="Sonus" font-size="20.0" fill="#52575F" transform="matrix(1.00, 0.00, -0.00, -1.00, 134.2, 625.0)">e</text><text xml:space="preserve" font-family="Sonus" font-size="20.0" fill="#52575F" transform="matrix(1.00, 0.00, -0.00, -1.00, 144.5, 625.0)"> </text><text xml:space="preserve" font-family="Sonus" font-size="20.0" fill="#52575F" transform="matrix(1.00, 0.00, -0.00, -1.00, 148.8, 625.0)">p</text><text xml:space="preserve" font-family="Sonus" font-size="20.0" fill="#52575F" transform="matrix(1.00, 0.00, -0.00, -1.00, 160.1, 625.0)">o</text><text xml:space="preserve" font-family="Sonus" font-size="20.0" fill="#52575F" transform="matrix(1.00, 0.00, -0.00, -1.00, 171.1, 625.0)">t</text><text xml:space="preserve" font-family="Sonus" font-size="20.0" fill="#52575F" transform="matrix(1.00, 0.00, -0.00, -1.00, 177.9, 625.0)">e</text><text xml:space="preserve" font-family="Sonus" font-size="20.0" fill="#52575F" transform="matrix(1.00, 0.00, -0.00, -1.00, 188.2, 625.0)">n</text><text xml:space="preserve" font-family="Sonus" font-size="20.0" fill="#52575F" transform="matrix(1.00, 0.00, -0.00, -1.00, 199.5, 625.0)">t</text><text xml:space="preserve" font-family="Sonus" font-size="20.0" fill="#52575F" transform="matrix(1.00, 0.00, -0.00, -1.00, 206.3, 625.0)">i</text><text xml:space="preserve" font-family="Sonus" font-size="20.0" fill="#52575F" transform="matrix(1.00, 0.00, -0.00, -1.00, 211.1, 625.0)">a</text><text xml:space="preserve" font-family="Sonus" font-size="20.0" fill="#52575F" transform="matrix(1.00, 0.00, -0.00, -1.00, 221.3, 625.0)">l</text><text xml:space="preserve" font-family="Sonus" font-size="20.0" fill="#52575F" transform="matrix(1.00, 0.00, -0.00, -1.00, 226.2, 625.0)"> </text><text xml:space="preserve" font-family="Sonus" font-size="20.0" fill="#52575F" transform="matrix(1.00, 0.00, -0.00, -1.00, 230.5, 625.0)">c</text><text xml:space="preserve" font-family="Sonus" font-size="20.0" fill="#52575F" transform="matrix(1.00, 0.00, -0.00, -1.00, 239.8, 625.0)">a</text><text xml:space="preserve" font-family="Sonus" font-size="20.0" fill="#52575F" transform="matrix(1.00, 0.00, -0.00, -1.00, 250.0, 625.0)">n</text><text xml:space="preserve" font-family="Sonus" font-size="20.0" fill="#52575F" transform="matrix(1.00, 0.00, -0.00, -1.00, 261.3, 625.0)">d</text><text xml:space="preserve" font-family="Sonus" font-size="20.0" fill="#52575F" transform="matrix(1.00, 0.00, -0.00, -1.00, 272.6, 625.0)">i</text><text xml:space="preserve" font-family="Sonus" font-size="20.0" fill="#52575F" transform="matrix(1.00, 0.00, -0.00, -1.00, 277.5, 625.0)">d</text><text xml:space="preserve" font-family="Sonus" font-size="20.0" fill="#52575F" transform="matrix(1.00, 0.00, -0.00, -1.00, 288.8, 625.0)">a</text><text xml:space="preserve" font-family="Sonus" font-size="20.0" fill="#52575F" transform="matrix(1.00, 0.00, -0.00, -1.00, 299.0, 625.0)">t</text><text xml:space="preserve" font-family="Sonus" font-size="20.0" fill="#52575F" transform="matrix(1.00, 0.00, -0.00, -1.00, 305.8, 625.0)">e</text><text xml:space="preserve" font-family="Sonus" font-size="20.0" fill="#52575F" transform="matrix(1.00, 0.00, -0.00, -1.00, 316.0, 625.0)">s</text><text xml:space="preserve" font-family="Sonus" font-size="20.0" fill="#52575F" transform="matrix(1.00, 0.00, -0.00, -1.00, 324.3, 625.0)"> </text><text xml:space="preserve" font-family="Sonus" font-size="20.0" fill="#52575F" transform="matrix(1.00, 0.00, -0.00, -1.00, 328.7, 625.0)">t</text><text xml:space="preserve" font-family="Sonus" font-size="20.0" fill="#52575F" transform="matrix(1.00, 0.00, -0.00, -1.00, 335.4, 625.0)">o</text><text xml:space="preserve" font-family="Sonus" font-size="20.0" fill="#52575F" transform="matrix(1.00, 0.00, -0.00, -1.00, 346.5, 625.0)"> </text><text xml:space="preserve" font-family="Sonus" font-size="20.0" fill="#52575F" transform="matrix(1.00, 0.00, -0.00, -1.00, 350.8, 625.0)">a</text><text xml:space="preserve" font-family="Sonus" font-size="20.0" fill="#52575F" transform="matrix(1.00, 0.00, -0.00, -1.00, 361.0, 625.0)">p</text><text xml:space="preserve" font-family="Sonus" font-size="20.0" fill="#52575F" transform="matrix(1.00, 0.00, -0.00, -1.00, 372.3, 625.0)">p</text><text xml:space="preserve" font-family="Sonus" font-size="20.0" fill="#52575F" transform="matrix(1.00, 0.00, -0.00, -1.00, 383.6, 625.0)">l</text><text xml:space="preserve" font-family="Sonus" font-size="20.0" fill="#52575F" transform="matrix(1.00, 0.00, -0.00, -1.00, 388.5, 625.0)">y</text><path d="M 70.0 721.0 L 1210.0 721.0 L 1210.0 703.5 L 70.0 703.5 Z M 70.0 721.0 " fill="#EF6823"></path><g><clipPath id="clip-19177"><path d="M 71.0 36.0 L 127.0 36.0 L 127.0 92.0 L 71.0 92.0 Z M 71.0 36.0 "></path></clipPath><g clip-path="url(#clip-19177)"><path d="M 96.7 81.9 C 86.8 80.6 79.8 71.6 81.1 61.7 C 82.4 51.8 91.4 44.8 101.3 46.1 C 111.2 47.4 118.2 56.4 116.9 66.3 C 115.6 76.2 106.6 83.2 96.7 81.9 M 108.4 67.3 L 105.5 57.8 C 104.1 53.4 107.0 54.6 107.0 54.6 C 107.0 54.6 106.5 52.9 104.1 52.9 C 102.5 52.9 101.6 54.0 101.8 56.1 C 101.8 56.1 101.8 56.3 101.8 56.3 C 101.9 56.9 102.4 58.5 102.4 58.5 C 102.5 58.8 104.6 65.9 104.6 65.9 C 105.0 67.1 105.4 68.2 105.4 68.6 C 105.3 68.9 105.1 69.0 104.9 69.0 C 104.3 69.0 103.3 68.4 102.4 67.2 L 99.3 57.5 L 95.9 57.5 L 98.7 65.9 C 99.1 67.1 99.4 68.2 99.4 68.6 C 99.4 68.9 99.2 69.0 98.9 69.0 C 98.3 69.0 97.4 68.4 96.5 67.3 L 93.3 57.5 L 90.7 57.5 L 90.1 57.5 C 90.1 57.5 89.7 57.5 90.0 57.9 C 90.1 58.0 90.2 58.2 90.3 58.4 C 91.8 61.3 93.9 69.2 93.9 69.2 C 90.9 68.2 88.4 67.6 88.5 66.1 C 88.5 65.6 88.8 65.3 89.1 65.2 C 89.3 65.1 89.5 64.9 89.1 64.8 C 87.9 64.6 85.8 64.3 85.7 66.0 C 85.4 69.1 94.0 70.4 94.8 72.4 C 94.9 72.6 95.0 72.6 95.0 72.6 C 95.0 72.6 96.4 72.6 96.6 72.6 C 97.0 72.6 97.8 72.4 97.2 70.9 L 96.8 69.8 C 98.0 71.5 100.0 72.4 101.0 72.4 C 102.2 72.4 102.9 71.4 103.0 70.4 C 104.3 71.7 105.9 72.4 107.0 72.4 C 108.3 72.4 108.9 71.3 109.0 70.1 C 109.0 69.4 108.8 68.5 108.4 67.3 " fill="#D2D1D1"></path><path d="M 126.3 57.8 C 126.7 59.4 126.9 61.1 127.0 62.8 L 122.8 64.5 L 122.2 69.5 L 125.8 72.3 C 125.3 73.9 124.6 75.5 123.9 76.9 L 119.3 76.4 L 116.3 80.4 L 118.1 84.6 C 116.8 85.7 115.5 86.7 114.1 87.6 L 110.4 84.9 L 105.8 86.8 L 105.2 91.3 C 103.6 91.7 101.9 91.9 100.2 92.0 L 98.5 87.8 L 93.5 87.2 L 90.7 90.8 C 89.1 90.3 87.5 89.6 86.1 88.9 L 86.6 84.3 L 82.6 81.3 L 78.5 83.0 C 77.3 81.8 76.3 80.5 75.4 79.1 L 78.1 75.4 L 76.2 70.8 L 71.7 70.2 C 71.3 68.6 71.1 66.9 71.0 65.2 L 75.2 63.5 L 75.8 58.5 L 72.2 55.7 C 72.7 54.1 73.4 52.5 74.1 51.1 L 78.7 51.6 L 81.7 47.6 L 79.9 43.5 C 81.2 42.3 82.5 41.3 83.9 40.4 L 87.6 43.1 L 92.2 41.2 L 92.8 36.7 C 94.4 36.3 96.1 36.1 97.8 36.0 L 99.5 40.2 L 104.5 40.8 L 107.3 37.2 C 108.9 37.7 110.5 38.4 111.9 39.1 L 111.4 43.7 L 115.4 46.7 L 119.5 45.0 C 120.7 46.2 121.7 47.5 122.6 48.9 L 119.9 52.6 L 121.8 57.2 Z M 101.7 42.9 C 90.1 41.4 79.4 49.7 77.9 61.3 C 76.4 72.9 84.7 83.6 96.3 85.1 C 107.9 86.6 118.6 78.3 120.1 66.7 C 121.6 55.1 113.3 44.4 101.7 42.9 " fill="#D2D1D1"></path></g></g><image xlink:href="../../CAEF5E14-8699-45A6-80FB-37F0182DA89E/assets/21C47420E19E56223195824982AB6FE7.png" width="521.00" height="520.00" transform="matrix(1.00, 0.00, -0.00, -1.00, 687.9, 532.4)" opacity="0.70"></image><g><clipPath id="clip-19178"><path d="M 690.0 530.0 L 1207.0 530.0 L 1207.0 14.0 L 690.0 14.0 Z M 690.0 530.4 "></path></clipPath><g clip-path="url(#clip-19178)"><image xlink:href="../../CAEF5E14-8699-45A6-80FB-37F0182DA89E/assets/F47C5EE650554571B52868B5B10AB6F8.png" width="517.00" height="443.00" transform="matrix(1.00, 0.00, -0.00, -1.00, 690.0, 527.0)"></image></g></g><path d="M 0.0 3.6 L 0.0 446.2 L 516.5 446.2 L 516.5 3.6 L 0.0 3.6 Z M 0.0 3.6 " fill="none" stroke="#F2F6F5" stroke-width="0.25" transform="matrix(1.00, 0.00, 0.00, -1.00, 690.0, 530.4)"></path><text xml:space="preserve" font-family="Sonus-Bold" font-weight="bold" font-size="40.0" fill="#000000" transform="matrix(1.00, 0.00, -0.00, -1.00, 69.0, 579.0)">I</text><text xml:space="preserve" font-family="Sonus-Bold" font-weight="bold" font-size="40.0" fill="#000000" transform="matrix(1.00, 0.00, -0.00, -1.00, 80.9, 579.0)">n</text><text xml:space="preserve" font-family="Sonus-Bold" font-weight="bold" font-size="40.0" fill="#000000" transform="matrix(1.00, 0.00, -0.00, -1.00, 104.7, 579.0)">t</text><text xml:space="preserve" font-family="Sonus-Bold" font-weight="bold" font-size="40.0" fill="#000000" transform="matrix(1.00, 0.00, -0.00, -1.00, 119.6, 579.0)">r</text><text xml:space="preserve" font-family="Sonus-Bold" font-weight="bold" font-size="40.0" fill="#000000" transform="matrix(1.00, 0.00, -0.00, -1.00, 134.6, 579.0)">o</text><text xml:space="preserve" font-family="Sonus-Bold" font-weight="bold" font-size="40.0" fill="#000000" transform="matrix(1.00, 0.00, -0.00, -1.00, 157.8, 579.0)">d</text><text xml:space="preserve" font-family="Sonus-Bold" font-weight="bold" font-size="40.0" fill="#000000" transform="matrix(1.00, 0.00, -0.00, -1.00, 181.8, 579.0)">u</text><text xml:space="preserve" font-family="Sonus-Bold" font-weight="bold" font-size="40.0" fill="#000000" transform="matrix(1.00, 0.00, -0.00, -1.00, 205.7, 579.0)">c</text><text xml:space="preserve" font-family="Sonus-Bold" font-weight="bold" font-size="40.0" fill="#000000" transform="matrix(1.00, 0.00, -0.00, -1.00, 224.5, 579.0)">e</text><text xml:space="preserve" font-family="Sonus-Bold" font-weight="bold" font-size="40.0" fill="#000000" transform="matrix(1.00, 0.00, -0.00, -1.00, 245.8, 579.0)"> </text><text xml:space="preserve" font-family="Sonus-Bold" font-weight="bold" font-size="40.0" fill="#000000" transform="matrix(1.00, 0.00, -0.00, -1.00, 254.4, 579.0)">c</text><text xml:space="preserve" font-family="Sonus-Bold" font-weight="bold" font-size="40.0" fill="#000000" transform="matrix(1.00, 0.00, -0.00, -1.00, 273.5, 579.0)">a</text><text xml:space="preserve" font-family="Sonus-Bold" font-weight="bold" font-size="40.0" fill="#000000" transform="matrix(1.00, 0.00, -0.00, -1.00, 294.9, 579.0)">n</text><text xml:space="preserve" font-family="Sonus-Bold" font-weight="bold" font-size="40.0" fill="#000000" transform="matrix(1.00, 0.00, -0.00, -1.00, 318.7, 579.0)">d</text><text xml:space="preserve" font-family="Sonus-Bold" font-weight="bold" font-size="40.0" fill="#000000" transform="matrix(1.00, 0.00, -0.00, -1.00, 342.6, 579.0)">i</text><text xml:space="preserve" font-family="Sonus-Bold" font-weight="bold" font-size="40.0" fill="#000000" transform="matrix(1.00, 0.00, -0.00, -1.00, 353.8, 579.0)">d</text><text xml:space="preserve" font-family="Sonus-Bold" font-weight="bold" font-size="40.0" fill="#000000" transform="matrix(1.00, 0.00, -0.00, -1.00, 377.8, 579.0)">a</text><text xml:space="preserve" font-family="Sonus-Bold" font-weight="bold" font-size="40.0" fill="#000000" transform="matrix(1.00, 0.00, -0.00, -1.00, 399.2, 579.0)">t</text><text xml:space="preserve" font-family="Sonus-Bold" font-weight="bold" font-size="40.0" fill="#000000" transform="matrix(1.00, 0.00, -0.00, -1.00, 414.0, 579.0)">e</text><text xml:space="preserve" font-family="Sonus-Bold" font-weight="bold" font-size="40.0" fill="#000000" transform="matrix(1.00, 0.00, -0.00, -1.00, 435.4, 579.0)">s</text><text xml:space="preserve" font-family="Sonus-Bold" font-weight="bold" font-size="40.0" fill="#000000" transform="matrix(1.00, 0.00, -0.00, -1.00, 453.0, 579.0)"> </text><text xml:space="preserve" font-family="Sonus-Bold" font-weight="bold" font-size="40.0" fill="#000000" transform="matrix(1.00, 0.00, -0.00, -1.00, 461.6, 579.0)">t</text><text xml:space="preserve" font-family="Sonus-Bold" font-weight="bold" font-size="40.0" fill="#000000" transform="matrix(1.00, 0.00, -0.00, -1.00, 476.5, 579.0)">o</text><text xml:space="preserve" font-family="Sonus-Bold" font-weight="bold" font-size="40.0" fill="#000000" transform="matrix(1.00, 0.00, -0.00, -1.00, 499.7, 579.0)"> </text><text xml:space="preserve" font-family="Sonus-Bold" font-weight="bold" font-size="40.0" fill="#000000" transform="matrix(1.00, 0.00, -0.00, -1.00, 508.4, 579.0)">e</text><text xml:space="preserve" font-family="Sonus-Bold" font-weight="bold" font-size="40.0" fill="#000000" transform="matrix(1.00, 0.00, -0.00, -1.00, 529.7, 579.0)">m</text><text xml:space="preserve" font-family="Sonus-Bold" font-weight="bold" font-size="40.0" fill="#000000" transform="matrix(1.00, 0.00, -0.00, -1.00, 565.7, 579.0)">p</text><text xml:space="preserve" font-family="Sonus-Bold" font-weight="bold" font-size="40.0" fill="#000000" transform="matrix(1.00, 0.00, -0.00, -1.00, 589.7, 579.0)">l</text><text xml:space="preserve" font-family="Sonus-Bold" font-weight="bold" font-size="40.0" fill="#000000" transform="matrix(1.00, 0.00, -0.00, -1.00, 600.8, 579.0)">o</text><text xml:space="preserve" font-family="Sonus-Bold" font-weight="bold" font-size="40.0" fill="#000000" transform="matrix(1.00, 0.00, -0.00, -1.00, 624.0, 579.0)">y</text><text xml:space="preserve" font-family="Sonus-Bold" font-weight="bold" font-size="40.0" fill="#000000" transform="matrix(1.00, 0.00, -0.00, -1.00, 645.8, 579.0)">e</text><text xml:space="preserve" font-family="Sonus-Bold" font-weight="bold" font-size="40.0" fill="#000000" transform="matrix(1.00, 0.00, -0.00, -1.00, 667.1, 579.0)">e</text><text xml:space="preserve" font-family="Sonus-Bold" font-weight="bold" font-size="40.0" fill="#000000" transform="matrix(1.00, 0.00, -0.00, -1.00, 688.4, 579.0)">s</text><text xml:space="preserve" font-family="Sonus-Light" font-size="20.0" fill="#5D5D5D" transform="matrix(1.00, 0.00, -0.00, -1.00, 73.0, 351.0)">P</text><text xml:space="preserve" font-family="Sonus-Light" font-size="20.0" fill="#5D5D5D" transform="matrix(1.00, 0.00, -0.00, -1.00, 84.6, 351.0)">i</text><text xml:space="preserve" font-family="Sonus-Light" font-size="20.0" fill="#5D5D5D" transform="matrix(1.00, 0.00, -0.00, -1.00, 89.2, 351.0)">n</text><text xml:space="preserve" font-family="Sonus-Light" font-size="20.0" fill="#5D5D5D" transform="matrix(1.00, 0.00, -0.00, -1.00, 100.3, 351.0)">t</text><text xml:space="preserve" font-family="Sonus-Light" font-size="20.0" fill="#5D5D5D" transform="matrix(1.00, 0.00, -0.00, -1.00, 106.8, 351.0)">e</text><text xml:space="preserve" font-family="Sonus-Light" font-size="20.0" fill="#5D5D5D" transform="matrix(1.00, 0.00, -0.00, -1.00, 116.8, 351.0)">r</text><text xml:space="preserve" font-family="Sonus-Light" font-size="20.0" fill="#5D5D5D" transform="matrix(1.00, 0.00, -0.00, -1.00, 123.3, 351.0)">e</text><text xml:space="preserve" font-family="Sonus-Light" font-size="20.0" fill="#5D5D5D" transform="matrix(1.00, 0.00, -0.00, -1.00, 133.4, 351.0)">s</text><text xml:space="preserve" font-family="Sonus-Light" font-size="20.0" fill="#5D5D5D" transform="matrix(1.00, 0.00, -0.00, -1.00, 141.5, 351.0)">t</text><text xml:space="preserve" font-family="Sonus-Light" font-size="20.0" fill="#5D5D5D" transform="matrix(1.00, 0.00, -0.00, -1.00, 148.0, 351.0)"> </text><text xml:space="preserve" font-family="Sonus-Light" font-size="20.0" fill="#5D5D5D" transform="matrix(1.00, 0.00, -0.00, -1.00, 152.3, 351.0)">i</text><text xml:space="preserve" font-family="Sonus-Light" font-size="20.0" fill="#5D5D5D" transform="matrix(1.00, 0.00, -0.00, -1.00, 156.9, 351.0)">n</text><text xml:space="preserve" font-family="Sonus-Light" font-size="20.0" fill="#5D5D5D" transform="matrix(1.00, 0.00, -0.00, -1.00, 168.0, 351.0)">t</text><text xml:space="preserve" font-family="Sonus-Light" font-size="20.0" fill="#5D5D5D" transform="matrix(1.00, 0.00, -0.00, -1.00, 174.5, 351.0)">r</text><text xml:space="preserve" font-family="Sonus-Light" font-size="20.0" fill="#5D5D5D" transform="matrix(1.00, 0.00, -0.00, -1.00, 181.0, 351.0)">o</text><text xml:space="preserve" font-family="Sonus-Light" font-size="20.0" fill="#5D5D5D" transform="matrix(1.00, 0.00, -0.00, -1.00, 191.7, 351.0)">d</text><text xml:space="preserve" font-family="Sonus-Light" font-size="20.0" fill="#5D5D5D" transform="matrix(1.00, 0.00, -0.00, -1.00, 202.8, 351.0)">u</text><text xml:space="preserve" font-family="Sonus-Light" font-size="20.0" fill="#5D5D5D" transform="matrix(1.00, 0.00, -0.00, -1.00, 214.0, 351.0)">c</text><text xml:space="preserve" font-family="Sonus-Light" font-size="20.0" fill="#5D5D5D" transform="matrix(1.00, 0.00, -0.00, -1.00, 223.1, 351.0)">e</text><text xml:space="preserve" font-family="Sonus-Light" font-size="20.0" fill="#5D5D5D" transform="matrix(1.00, 0.00, -0.00, -1.00, 233.1, 351.0)">s</text><text xml:space="preserve" font-family="Sonus-Light" font-size="20.0" fill="#5D5D5D" transform="matrix(1.00, 0.00, -0.00, -1.00, 241.2, 351.0)"> </text><text xml:space="preserve" font-family="Sonus-Light" font-size="20.0" fill="#5D5D5D" transform="matrix(1.00, 0.00, -0.00, -1.00, 245.5, 351.0)">p</text><text xml:space="preserve" font-family="Sonus-Light" font-size="20.0" fill="#5D5D5D" transform="matrix(1.00, 0.00, -0.00, -1.00, 256.6, 351.0)">e</text><text xml:space="preserve" font-family="Sonus-Light" font-size="20.0" fill="#5D5D5D" transform="matrix(1.00, 0.00, -0.00, -1.00, 266.7, 351.0)">o</text><text xml:space="preserve" font-family="Sonus-Light" font-size="20.0" fill="#5D5D5D" transform="matrix(1.00, 0.00, -0.00, -1.00, 277.4, 351.0)">p</text><text xml:space="preserve" font-family="Sonus-Light" font-size="20.0" fill="#5D5D5D" transform="matrix(1.00, 0.00, -0.00, -1.00, 288.5, 351.0)">l</text><text xml:space="preserve" font-family="Sonus-Light" font-size="20.0" fill="#5D5D5D" transform="matrix(1.00, 0.00, -0.00, -1.00, 293.1, 351.0)">e</text><text xml:space="preserve" font-family="Sonus-Light" font-size="20.0" fill="#5D5D5D" transform="matrix(1.00, 0.00, -0.00, -1.00, 303.2, 351.0)"> </text><text xml:space="preserve" font-family="Sonus-Light" font-size="20.0" fill="#5D5D5D" transform="matrix(1.00, 0.00, -0.00, -1.00, 307.5, 351.0)">t</text><text xml:space="preserve" font-family="Sonus-Light" font-size="20.0" fill="#5D5D5D" transform="matrix(1.00, 0.00, -0.00, -1.00, 314.0, 351.0)">h</text><text xml:space="preserve" font-family="Sonus-Light" font-size="20.0" fill="#5D5D5D" transform="matrix(1.00, 0.00, -0.00, -1.00, 325.2, 351.0)">r</text><text xml:space="preserve" font-family="Sonus-Light" font-size="20.0" fill="#5D5D5D" transform="matrix(1.00, 0.00, -0.00, -1.00, 331.7, 351.0)">o</text><text xml:space="preserve" font-family="Sonus-Light" font-size="20.0" fill="#5D5D5D" transform="matrix(1.00, 0.00, -0.00, -1.00, 342.5, 351.0)">u</text><text xml:space="preserve" font-family="Sonus-Light" font-size="20.0" fill="#5D5D5D" transform="matrix(1.00, 0.00, -0.00, -1.00, 353.7, 351.0)">g</text><text xml:space="preserve" font-family="Sonus-Light" font-size="20.0" fill="#5D5D5D" transform="matrix(1.00, 0.00, -0.00, -1.00, 363.6, 351.0)">h</text><text xml:space="preserve" font-family="Sonus-Light" font-size="20.0" fill="#5D5D5D" transform="matrix(1.00, 0.00, -0.00, -1.00, 374.8, 351.0)"> </text><text xml:space="preserve" font-family="Sonus-Light" font-size="20.0" fill="#5D5D5D" transform="matrix(1.00, 0.00, -0.00, -1.00, 379.2, 351.0)">s</text><text xml:space="preserve" font-family="Sonus-Light" font-size="20.0" fill="#5D5D5D" transform="matrix(1.00, 0.00, -0.00, -1.00, 387.2, 351.0)">h</text><text xml:space="preserve" font-family="Sonus-Light" font-size="20.0" fill="#5D5D5D" transform="matrix(1.00, 0.00, -0.00, -1.00, 398.5, 351.0)">o</text><text xml:space="preserve" font-family="Sonus-Light" font-size="20.0" fill="#5D5D5D" transform="matrix(1.00, 0.00, -0.00, -1.00, 409.2, 351.0)">r</text><text xml:space="preserve" font-family="Sonus-Light" font-size="20.0" fill="#5D5D5D" transform="matrix(1.00, 0.00, -0.00, -1.00, 416.3, 351.0)">t</text><text xml:space="preserve" font-family="Sonus-Light" font-size="20.0" fill="#5D5D5D" transform="matrix(1.00, 0.00, -0.00, -1.00, 422.8, 351.0)"> </text><text xml:space="preserve" font-family="Sonus-Light" font-size="20.0" fill="#5D5D5D" transform="matrix(1.00, 0.00, -0.00, -1.00, 73.0, 322.0)">e</text><text xml:space="preserve" font-family="Sonus-Light" font-size="20.0" fill="#5D5D5D" transform="matrix(1.00, 0.00, -0.00, -1.00, 82.9, 322.0)">a</text><text xml:space="preserve" font-family="Sonus-Light" font-size="20.0" fill="#5D5D5D" transform="matrix(1.00, 0.00, -0.00, -1.00, 92.9, 322.0)">s</text><text xml:space="preserve" font-family="Sonus-Light" font-size="20.0" fill="#5D5D5D" transform="matrix(1.00, 0.00, -0.00, -1.00, 101.0, 322.0)">i</text><text xml:space="preserve" font-family="Sonus-Light" font-size="20.0" fill="#5D5D5D" transform="matrix(1.00, 0.00, -0.00, -1.00, 105.6, 322.0)">l</text><text xml:space="preserve" font-family="Sonus-Light" font-size="20.0" fill="#5D5D5D" transform="matrix(1.00, 0.00, -0.00, -1.00, 110.2, 322.0)">y</text><text xml:space="preserve" font-family="Sonus-Light" font-size="20.0" fill="#5D5D5D" transform="matrix(1.00, 0.00, -0.00, -1.00, 119.3, 322.0)">-</text><text xml:space="preserve" font-family="Sonus-Light" font-size="20.0" fill="#5D5D5D" transform="matrix(1.00, 0.00, -0.00, -1.00, 125.4, 322.0)">d</text><text xml:space="preserve" font-family="Sonus-Light" font-size="20.0" fill="#5D5D5D" transform="matrix(1.00, 0.00, -0.00, -1.00, 136.5, 322.0)">i</text><text xml:space="preserve" font-family="Sonus-Light" font-size="20.0" fill="#5D5D5D" transform="matrix(1.00, 0.00, -0.00, -1.00, 141.1, 322.0)">g</text><text xml:space="preserve" font-family="Sonus-Light" font-size="20.0" fill="#5D5D5D" transform="matrix(1.00, 0.00, -0.00, -1.00, 151.0, 322.0)">e</text><text xml:space="preserve" font-family="Sonus-Light" font-size="20.0" fill="#5D5D5D" transform="matrix(1.00, 0.00, -0.00, -1.00, 161.0, 322.0)">s</text><text xml:space="preserve" font-family="Sonus-Light" font-size="20.0" fill="#5D5D5D" transform="matrix(1.00, 0.00, -0.00, -1.00, 169.1, 322.0)">t</text><text xml:space="preserve" font-family="Sonus-Light" font-size="20.0" fill="#5D5D5D" transform="matrix(1.00, 0.00, -0.00, -1.00, 175.6, 322.0)">i</text><text xml:space="preserve" font-family="Sonus-Light" font-size="20.0" fill="#5D5D5D" transform="matrix(1.00, 0.00, -0.00, -1.00, 180.2, 322.0)">b</text><text xml:space="preserve" font-family="Sonus-Light" font-size="20.0" fill="#5D5D5D" transform="matrix(1.00, 0.00, -0.00, -1.00, 191.3, 322.0)">l</text><text xml:space="preserve" font-family="Sonus-Light" font-size="20.0" fill="#5D5D5D" transform="matrix(1.00, 0.00, -0.00, -1.00, 195.9, 322.0)">e</text><text xml:space="preserve" font-family="Sonus-Light" font-size="20.0" fill="#5D5D5D" transform="matrix(1.00, 0.00, -0.00, -1.00, 205.9, 322.0)"> </text><text xml:space="preserve" font-family="Sonus-Light" font-size="20.0" fill="#5D5D5D" transform="matrix(1.00, 0.00, -0.00, -1.00, 210.3, 322.0)">v</text><text xml:space="preserve" font-family="Sonus-Light" font-size="20.0" fill="#5D5D5D" transform="matrix(1.00, 0.00, -0.00, -1.00, 219.2, 322.0)">i</text><text xml:space="preserve" font-family="Sonus-Light" font-size="20.0" fill="#5D5D5D" transform="matrix(1.00, 0.00, -0.00, -1.00, 223.8, 322.0)">d</text><text xml:space="preserve" font-family="Sonus-Light" font-size="20.0" fill="#5D5D5D" transform="matrix(1.00, 0.00, -0.00, -1.00, 234.9, 322.0)">e</text><text xml:space="preserve" font-family="Sonus-Light" font-size="20.0" fill="#5D5D5D" transform="matrix(1.00, 0.00, -0.00, -1.00, 245.0, 322.0)">o</text><text xml:space="preserve" font-family="Sonus-Light" font-size="20.0" fill="#5D5D5D" transform="matrix(1.00, 0.00, -0.00, -1.00, 255.7, 322.0)">s</text><text xml:space="preserve" font-family="Sonus-Light" font-size="20.0" fill="#5D5D5D" transform="matrix(1.00, 0.00, -0.00, -1.00, 263.9, 322.0)">.</text><text xml:space="preserve" font-family="Sonus-Light" font-size="20.0" fill="#5D5D5D" transform="matrix(1.00, 0.00, -0.00, -1.00, 267.7, 322.0)"> </text><g><clipPath id="clip-19179"><path d="M 818.5 51.6 L 1209.4 51.6 L 1209.4 76.1 L 818.5 76.1 Z M 818.5 51.6 "></path></clipPath><g clip-path="url(#clip-19179)"><text xml:space="preserve" font-family="Sonus-Light" font-size="14.0" fill="#A6AAA8" transform="matrix(1.00, 0.00, -0.00, -1.00, 1031.2, 54.3)">h</text><text xml:space="preserve" font-family="Sonus-Light" font-size="14.0" fill="#A6AAA8" transform="matrix(1.00, 0.00, -0.00, -1.00, 1039.0, 54.3)">t</text><text xml:space="preserve" font-family="Sonus-Light" font-size="14.0" fill="#A6AAA8" transform="matrix(1.00, 0.00, -0.00, -1.00, 1043.6, 54.3)">t</text><text xml:space="preserve" font-family="Sonus-Light" font-size="14.0" fill="#A6AAA8" transform="matrix(1.00, 0.00, -0.00, -1.00, 1048.1, 54.3)">p</text><text xml:space="preserve" font-family="Sonus-Light" font-size="14.0" fill="#A6AAA8" transform="matrix(1.00, 0.00, -0.00, -1.00, 1055.9, 54.3)">s</text><text xml:space="preserve" font-family="Sonus-Light" font-size="14.0" fill="#A6AAA8" transform="matrix(1.00, 0.00, -0.00, -1.00, 1061.5, 54.3)">:</text><text xml:space="preserve" font-family="Sonus-Light" font-size="14.0" fill="#A6AAA8" transform="matrix(1.00, 0.00, -0.00, -1.00, 1064.5, 54.3)">/</text><text xml:space="preserve" font-family="Sonus-Light" font-size="14.0" fill="#A6AAA8" transform="matrix(1.00, 0.00, -0.00, -1.00, 1069.7, 54.3)">/</text><text xml:space="preserve" font-family="Sonus-Light" font-size="14.0" fill="#A6AAA8" transform="matrix(1.00, 0.00, -0.00, -1.00, 1074.2, 54.3)">c</text><text xml:space="preserve" font-family="Sonus-Light" font-size="14.0" fill="#A6AAA8" transform="matrix(1.00, 0.00, -0.00, -1.00, 1080.6, 54.3)">a</text><text xml:space="preserve" font-family="Sonus-Light" font-size="14.0" fill="#A6AAA8" transform="matrix(1.00, 0.00, -0.00, -1.00, 1087.5, 54.3)">r</text><text xml:space="preserve" font-family="Sonus-Light" font-size="14.0" fill="#A6AAA8" transform="matrix(1.00, 0.00, -0.00, -1.00, 1092.1, 54.3)">e</text><text xml:space="preserve" font-family="Sonus-Light" font-size="14.0" fill="#A6AAA8" transform="matrix(1.00, 0.00, -0.00, -1.00, 1099.1, 54.3)">e</text><text xml:space="preserve" font-family="Sonus-Light" font-size="14.0" fill="#A6AAA8" transform="matrix(1.00, 0.00, -0.00, -1.00, 1106.2, 54.3)">r</text><text xml:space="preserve" font-family="Sonus-Light" font-size="14.0" fill="#A6AAA8" transform="matrix(1.00, 0.00, -0.00, -1.00, 1110.8, 54.3)">s</text><text xml:space="preserve" font-family="Sonus-Light" font-size="14.0" fill="#A6AAA8" transform="matrix(1.00, 0.00, -0.00, -1.00, 1116.5, 54.3)">.</text><text xml:space="preserve" font-family="Sonus-Light" font-size="14.0" fill="#A6AAA8" transform="matrix(1.00, 0.00, -0.00, -1.00, 1119.2, 54.3)">p</text><text xml:space="preserve" font-family="Sonus-Light" font-size="14.0" fill="#A6AAA8" transform="matrix(1.00, 0.00, -0.00, -1.00, 1126.9, 54.3)">i</text><text xml:space="preserve" font-family="Sonus-Light" font-size="14.0" fill="#A6AAA8" transform="matrix(1.00, 0.00, -0.00, -1.00, 1130.2, 54.3)">n</text><text xml:space="preserve" font-family="Sonus-Light" font-size="14.0" fill="#A6AAA8" transform="matrix(1.00, 0.00, -0.00, -1.00, 1137.9, 54.3)">t</text><text xml:space="preserve" font-family="Sonus-Light" font-size="14.0" fill="#A6AAA8" transform="matrix(1.00, 0.00, -0.00, -1.00, 1142.5, 54.3)">e</text><text xml:space="preserve" font-family="Sonus-Light" font-size="14.0" fill="#A6AAA8" transform="matrix(1.00, 0.00, -0.00, -1.00, 1149.5, 54.3)">r</text><text xml:space="preserve" font-family="Sonus-Light" font-size="14.0" fill="#A6AAA8" transform="matrix(1.00, 0.00, -0.00, -1.00, 1154.1, 54.3)">e</text><text xml:space="preserve" font-family="Sonus-Light" font-size="14.0" fill="#A6AAA8" transform="matrix(1.00, 0.00, -0.00, -1.00, 1161.1, 54.3)">s</text><text xml:space="preserve" font-family="Sonus-Light" font-size="14.0" fill="#A6AAA8" transform="matrix(1.00, 0.00, -0.00, -1.00, 1166.8, 54.3)">t</text><text xml:space="preserve" font-family="Sonus-Light" font-size="14.0" fill="#A6AAA8" transform="matrix(1.00, 0.00, -0.00, -1.00, 1171.8, 54.3)">.</text><text xml:space="preserve" font-family="Sonus-Light" font-size="14.0" fill="#A6AAA8" transform="matrix(1.00, 0.00, -0.00, -1.00, 1174.4, 54.3)">c</text><text xml:space="preserve" font-family="Sonus-Light" font-size="14.0" fill="#A6AAA8" transform="matrix(1.00, 0.00, -0.00, -1.00, 1180.8, 54.3)">o</text><text xml:space="preserve" font-family="Sonus-Light" font-size="14.0" fill="#A6AAA8" transform="matrix(1.00, 0.00, -0.00, -1.00, 1188.3, 54.3)">m</text><text xml:space="preserve" font-family="Sonus-Light" font-size="14.0" fill="#A6AAA8" transform="matrix(1.00, 0.00, -0.00, -1.00, 1200.7, 54.3)">/</text></g></g><g><clipPath id="clip-19180"><path d="M 1030.2 51.9 L 1206.0 51.9 L 1206.0 54.6 L 1030.2 54.6 Z M 1030.2 51.9 "></path></clipPath><g clip-path="url(#clip-19180)"><path d="M 213.0 26.6 L 387.9 26.6 " fill="none" stroke="#A6AAA8" stroke-width="0.70" stroke-miterlimit="0.00" transform="matrix(1.00, 0.00, 0.00, -1.00, 818.1, 79.9)"></path></g></g><g><clipPath id="clip-19181"><path d="M 70.0 462.0 L 318.9 462.0 L 318.9 398.3 L 70.0 398.3 Z M 70.0 462.0 "></path></clipPath><g clip-path="url(#clip-19181)"><g><clipPath id="clip-19182"><path d="M 71.0 399.0 L 318.0 399.0 L 318.0 461.0 L 71.0 461.0 Z M 71.0 399.0 "></path></clipPath><g clip-path="url(#clip-19182)"><path d="M 127.7 439.1 C 130.4 439.1 133.0 441.4 133.4 444.1 C 133.9 446.7 132.1 449.0 129.4 449.0 C 126.8 449.0 124.2 446.7 123.7 444.1 C 123.2 441.4 125.0 439.1 127.7 439.1 " fill="#C92026"></path><path d="M 200.1 431.5 C 202.7 431.5 203.6 429.9 203.6 428.1 C 203.6 424.9 201.1 422.9 197.2 422.9 C 195.8 422.9 193.9 423.3 192.7 423.6 C 193.2 426.6 195.1 431.5 200.1 431.5 M 256.3 431.5 C 258.7 431.5 259.8 429.9 259.8 428.1 C 259.8 424.9 257.3 422.9 253.5 422.9 C 252.1 422.9 250.1 423.3 249.0 423.6 C 249.4 426.6 251.6 431.5 256.3 431.5 M 309.6 431.2 L 315.6 431.2 C 316.4 431.2 316.9 431.6 317.1 432.3 C 317.3 433.4 317.8 435.3 318.0 435.9 C 318.1 436.5 317.7 437.1 317.0 437.1 L 311.1 437.1 C 311.5 438.8 313.1 444.2 313.1 447.8 C 313.1 454.9 307.1 460.9 298.4 460.9 C 288.7 460.9 282.3 454.4 282.3 445.3 C 282.3 442.6 283.3 439.5 284.6 437.6 C 284.0 437.6 283.5 437.6 283.0 437.6 C 275.5 437.6 270.9 433.7 270.9 427.9 C 270.9 422.4 275.2 420.3 279.3 418.9 C 282.9 417.6 286.2 417.1 286.2 414.2 C 286.2 412.4 284.4 411.2 280.8 411.2 C 276.6 411.2 274.2 413.2 273.6 414.0 C 274.0 414.3 274.6 415.1 274.6 416.3 C 274.6 418.0 273.4 419.5 271.1 419.5 C 269.2 419.5 267.5 417.9 267.1 415.8 C 264.0 413.3 260.6 411.7 255.7 411.7 C 251.0 411.7 248.5 414.1 248.5 419.3 C 249.6 419.0 252.5 418.6 254.5 418.6 C 262.5 418.6 268.0 422.2 268.0 429.5 C 268.0 433.4 264.5 437.5 257.7 437.5 L 257.7 437.5 C 248.7 437.5 243.7 431.8 241.5 425.6 C 240.8 425.8 240.2 425.9 239.6 426.1 C 240.1 427.4 240.4 429.0 240.4 430.8 C 240.4 433.9 238.5 437.5 233.4 437.5 C 229.8 437.5 226.4 435.2 224.1 431.7 C 224.7 434.0 225.1 435.5 225.1 435.6 C 225.2 436.2 225.0 436.8 224.1 436.8 L 218.8 436.8 C 218.0 436.8 217.5 436.6 217.3 435.7 C 217.2 435.2 215.3 428.1 213.6 421.3 C 212.5 417.0 206.7 411.7 199.5 411.7 C 194.8 411.7 192.3 414.3 192.3 419.5 C 193.6 419.0 196.3 418.6 198.2 418.6 C 206.6 418.6 211.8 422.2 211.8 429.5 C 211.8 433.4 208.3 437.5 201.5 437.5 L 201.5 437.5 C 191.3 437.5 185.1 429.7 184.1 420.8 C 183.6 417.2 180.5 412.1 177.1 412.1 C 175.5 412.1 174.5 413.1 174.5 414.9 C 174.5 416.4 175.6 420.1 176.8 424.7 C 177.2 426.3 177.8 428.6 178.4 431.2 L 183.9 431.2 C 184.8 431.2 185.3 431.6 185.4 432.3 C 185.7 433.4 186.2 435.3 186.3 435.9 C 186.5 436.5 186.1 437.1 185.3 437.1 L 179.9 437.1 C 179.9 437.1 182.4 446.9 182.5 447.2 C 182.7 448.2 181.9 448.8 181.0 448.6 C 181.0 448.6 176.8 447.8 176.0 447.6 C 175.2 447.5 174.6 447.0 174.3 445.9 C 174.3 445.8 172.1 437.1 172.1 437.1 L 167.8 437.1 C 167.0 437.1 166.5 436.7 166.3 436.0 C 166.0 434.9 165.5 433.0 165.4 432.4 C 165.2 431.8 165.6 431.2 166.4 431.2 L 170.7 431.2 C 170.6 431.1 169.1 425.4 167.9 420.3 C 167.3 417.9 165.4 412.1 162.3 412.1 C 160.4 412.1 159.6 413.1 159.6 415.1 C 159.6 418.3 162.7 426.2 162.7 429.9 C 162.7 434.7 160.1 437.5 154.8 437.5 C 151.4 437.5 147.9 435.3 146.4 433.4 C 146.4 433.4 146.9 435.0 147.0 435.6 C 147.2 436.2 146.8 436.8 146.0 436.8 L 140.8 436.8 C 139.7 436.8 139.4 436.2 139.2 435.6 C 139.1 435.3 137.2 428.0 135.4 420.9 C 134.2 416.1 131.2 412.1 128.0 412.1 C 126.3 412.1 125.6 413.1 125.6 414.9 C 125.6 416.4 126.6 420.1 127.7 424.7 C 129.2 430.4 130.4 435.0 130.6 435.5 C 130.7 436.2 130.4 436.8 129.5 436.8 L 124.3 436.8 C 123.3 436.8 123.0 436.3 122.8 435.6 C 122.8 435.6 121.3 430.1 119.7 423.9 C 118.6 419.4 117.3 414.8 117.3 412.7 C 117.3 408.8 119.1 405.9 123.8 405.9 C 127.5 405.9 130.4 407.8 132.7 410.1 C 132.3 408.9 132.1 408.1 132.1 408.0 C 131.9 407.2 132.1 406.6 133.0 406.6 L 138.4 406.6 C 139.3 406.6 139.7 407.0 139.9 407.8 C 140.1 408.6 144.1 424.3 144.1 424.3 C 145.2 428.5 147.8 431.3 151.5 431.3 C 153.3 431.3 154.8 430.1 154.6 427.9 C 154.4 425.4 151.4 416.6 151.4 412.7 C 151.4 409.7 152.5 405.9 158.1 405.9 C 161.9 405.9 164.7 407.7 166.7 410.1 C 167.5 407.6 169.4 405.9 173.1 405.9 C 179.1 405.9 182.7 409.5 184.8 413.0 C 186.6 408.9 190.8 405.9 196.8 405.9 C 203.0 405.9 207.8 408.5 211.2 412.0 C 210.6 409.7 210.2 408.1 210.2 407.9 C 210.0 407.2 210.3 406.6 211.2 406.6 L 216.5 406.6 C 217.2 406.6 217.8 407.0 217.9 407.7 C 218.0 408.1 218.8 411.0 219.9 415.2 C 222.0 423.3 225.3 431.6 230.3 431.6 C 232.1 431.6 232.8 430.6 232.8 429.1 C 232.8 428.3 232.6 427.7 232.4 427.4 C 230.0 427.9 228.0 426.7 228.0 424.1 C 228.0 422.4 229.8 420.9 232.2 420.9 C 234.1 420.9 235.6 421.3 236.8 422.1 C 237.9 421.9 239.2 421.6 240.4 421.4 C 240.2 420.2 240.1 419.0 240.1 417.8 C 240.1 411.4 244.7 405.9 253.1 405.9 C 259.6 405.9 264.0 408.3 267.9 411.3 C 269.8 408.3 274.4 405.9 280.6 405.9 C 289.0 405.9 293.8 410.2 293.8 416.0 C 293.8 421.2 289.5 423.1 285.0 424.7 C 281.4 426.0 278.4 426.7 278.4 429.2 C 278.4 431.3 280.1 432.2 282.9 432.2 C 284.7 432.2 286.1 431.8 286.8 431.6 C 287.6 429.8 289.1 427.8 291.6 427.8 C 293.8 427.8 294.8 429.5 294.8 431.1 C 294.8 435.6 287.3 436.0 287.3 445.6 C 287.3 451.6 290.7 456.5 297.7 456.5 C 302.6 456.5 305.8 453.4 305.8 448.5 C 305.8 444.4 303.3 437.1 303.3 437.1 L 299.0 437.1 C 298.2 437.1 297.7 436.7 297.6 436.0 C 297.3 434.9 296.8 433.0 296.7 432.4 C 296.5 431.8 296.9 431.2 297.7 431.2 L 301.8 431.2 C 301.8 431.2 297.5 415.5 297.5 412.7 C 297.5 408.8 299.7 405.9 304.5 405.9 C 311.2 405.9 315.5 410.3 317.3 416.6 C 317.4 417.1 317.2 417.5 316.7 417.5 L 314.1 417.5 C 313.6 417.5 313.3 417.2 313.1 416.7 C 312.6 414.5 311.1 412.1 308.3 412.1 C 306.6 412.1 305.7 413.1 305.7 414.9 C 305.7 416.4 306.7 419.9 307.9 424.7 C 308.5 427.0 309.6 431.2 309.6 431.2 " fill="#C92026"></path><path d="M 96.7 461.0 C 79.6 461.0 71.0 448.9 71.0 438.8 C 71.0 432.6 73.3 427.2 78.4 425.1 C 79.2 424.8 79.9 425.1 80.1 426.0 C 80.3 426.7 80.7 428.2 80.9 428.9 C 81.1 429.8 81.0 430.1 80.4 430.9 C 78.9 432.6 78.0 434.8 78.0 437.9 C 78.0 446.9 84.8 454.9 95.7 454.9 C 105.3 454.9 110.6 449.1 110.6 441.3 C 110.6 431.0 106.0 422.3 99.2 422.3 C 95.5 422.3 92.7 425.4 93.6 429.2 C 94.6 433.7 96.7 438.6 96.7 441.8 C 96.7 444.8 95.1 447.2 91.9 447.2 C 88.0 447.2 85.0 443.2 85.0 438.0 C 85.0 434.6 86.1 432.3 86.1 432.3 C 86.1 432.3 82.2 415.8 81.5 412.9 C 80.1 407.2 81.3 400.1 81.4 399.4 C 81.4 399.0 82.0 398.9 82.2 399.2 C 82.6 399.6 87.2 405.2 88.7 410.8 C 89.2 412.4 91.2 420.6 91.2 420.6 C 92.5 418.3 96.1 416.2 100.0 416.2 C 111.5 416.2 119.4 426.6 119.4 440.6 C 119.4 451.2 110.4 461.0 96.7 461.0 " fill="#C92026"></path></g></g></g></g></g></svg>