<?xml version="1.0" encoding="UTF-8" standalone="no"?><svg xmlns="http://www.w3.org/2000/svg" xmlns:xlink="http://www.w3.org/1999/xlink" clip-rule="evenodd" stroke-miterlimit="4.00" viewBox="0 0 1280 720"><desc>SVG generated by Keynote</desc><defs></defs><g transform="matrix(1.00, 0.00, -0.00, -1.00, 0.0, 720.0)"><path d="M 0.0 720.0 L 1280.0 720.0 L 1280.0 0.0 L 0.0 0.0 Z M 0.0 720.0 " fill="#FEFFFF"></path><path d="M 175.4 721.0 L 1105.1 721.0 L 1105.1 703.5 L 175.4 703.5 Z M 175.4 721.0 " fill="#EF6823"></path><g><clipPath id="clip-19398"><path d="M 175.0 36.0 L 231.0 36.0 L 231.0 92.0 L 175.0 92.0 Z M 175.0 36.0 "></path></clipPath><g clip-path="url(#clip-19398)"><path d="M 200.7 81.9 C 190.8 80.6 183.8 71.6 185.1 61.7 C 186.4 51.8 195.4 44.8 205.3 46.1 C 215.2 47.4 222.2 56.4 220.9 66.3 C 219.6 76.2 210.6 83.2 200.7 81.9 M 212.4 67.3 L 209.5 57.8 C 208.1 53.4 211.0 54.6 211.0 54.6 C 211.0 54.6 210.5 52.9 208.1 52.9 C 206.5 52.9 205.6 54.0 205.8 56.1 C 205.8 56.1 205.8 56.3 205.8 56.3 C 205.9 56.9 206.4 58.5 206.4 58.5 C 206.5 58.8 208.6 65.9 208.6 65.9 C 209.0 67.1 209.4 68.2 209.4 68.6 C 209.3 68.9 209.1 69.0 208.9 69.0 C 208.3 69.0 207.3 68.4 206.4 67.2 L 203.3 57.5 L 199.9 57.5 L 202.7 65.9 C 203.1 67.1 203.4 68.2 203.4 68.6 C 203.4 68.9 203.2 69.0 202.9 69.0 C 202.3 69.0 201.4 68.4 200.5 67.3 L 197.3 57.5 L 194.7 57.5 L 194.1 57.5 C 194.1 57.5 193.7 57.5 194.0 57.9 C 194.1 58.0 194.2 58.2 194.3 58.4 C 195.8 61.3 197.9 69.2 197.9 69.2 C 194.9 68.2 192.4 67.6 192.5 66.1 C 192.5 65.6 192.8 65.3 193.1 65.2 C 193.3 65.1 193.5 64.9 193.1 64.8 C 191.9 64.6 189.8 64.3 189.7 66.0 C 189.4 69.1 198.0 70.4 198.8 72.4 C 198.9 72.6 199.0 72.6 199.0 72.6 C 199.0 72.6 200.4 72.6 200.6 72.6 C 201.0 72.6 201.8 72.4 201.2 70.9 L 200.8 69.8 C 202.0 71.5 204.0 72.4 205.0 72.4 C 206.2 72.4 206.9 71.4 207.0 70.4 C 208.3 71.7 209.9 72.4 211.0 72.4 C 212.3 72.4 212.9 71.3 213.0 70.1 C 213.0 69.4 212.8 68.5 212.4 67.3 " fill="#D2D1D1"></path><path d="M 230.3 57.8 C 230.7 59.4 230.9 61.1 231.0 62.8 L 226.8 64.5 L 226.2 69.5 L 229.8 72.3 C 229.3 73.9 228.6 75.5 227.9 76.9 L 223.3 76.4 L 220.3 80.4 L 222.1 84.6 C 220.8 85.7 219.5 86.7 218.1 87.6 L 214.4 84.9 L 209.8 86.8 L 209.2 91.3 C 207.6 91.7 205.9 91.9 204.2 92.0 L 202.5 87.8 L 197.5 87.2 L 194.7 90.8 C 193.1 90.3 191.5 89.6 190.1 88.9 L 190.6 84.3 L 186.6 81.3 L 182.5 83.0 C 181.3 81.8 180.3 80.5 179.4 79.1 L 182.1 75.4 L 180.2 70.8 L 175.7 70.2 C 175.3 68.6 175.1 66.9 175.0 65.2 L 179.2 63.5 L 179.8 58.5 L 176.2 55.7 C 176.7 54.1 177.4 52.5 178.1 51.1 L 182.7 51.6 L 185.7 47.6 L 183.9 43.5 C 185.2 42.3 186.5 41.3 187.9 40.4 L 191.6 43.1 L 196.2 41.2 L 196.8 36.7 C 198.4 36.3 200.1 36.1 201.8 36.0 L 203.5 40.2 L 208.5 40.8 L 211.3 37.2 C 212.9 37.7 214.5 38.4 215.9 39.1 L 215.4 43.7 L 219.4 46.7 L 223.5 45.0 C 224.7 46.2 225.7 47.5 226.6 48.9 L 223.9 52.6 L 225.8 57.2 Z M 205.7 42.9 C 194.1 41.4 183.4 49.7 181.9 61.3 C 180.4 72.9 188.7 83.6 200.3 85.1 C 211.9 86.6 222.6 78.3 224.1 66.7 C 225.6 55.1 217.3 44.4 205.7 42.9 " fill="#D2D1D1"></path></g></g><text xml:space="preserve" font-family="Sonus-Bold" font-weight="bold" font-size="37.0" fill="#000000" transform="matrix(1.00, 0.00, -0.00, -1.00, 274.0, 423.0)">E</text><text xml:space="preserve" font-family="Sonus-Bold" font-weight="bold" font-size="37.0" fill="#000000" transform="matrix(1.00, 0.00, -0.00, -1.00, 295.9, 423.0)">s</text><text xml:space="preserve" font-family="Sonus-Bold" font-weight="bold" font-size="37.0" fill="#000000" transform="matrix(1.00, 0.00, -0.00, -1.00, 312.2, 423.0)">t</text><text xml:space="preserve" font-family="Sonus-Bold" font-weight="bold" font-size="37.0" fill="#000000" transform="matrix(1.00, 0.00, -0.00, -1.00, 326.2, 423.0)">a</text><text xml:space="preserve" font-family="Sonus-Bold" font-weight="bold" font-size="37.0" fill="#000000" transform="matrix(1.00, 0.00, -0.00, -1.00, 346.0, 423.0)">b</text><text xml:space="preserve" font-family="Sonus-Bold" font-weight="bold" font-size="37.0" fill="#000000" transform="matrix(1.00, 0.00, -0.00, -1.00, 368.1, 423.0)">l</text><text xml:space="preserve" font-family="Sonus-Bold" font-weight="bold" font-size="37.0" fill="#000000" transform="matrix(1.00, 0.00, -0.00, -1.00, 378.5, 423.0)">i</text><text xml:space="preserve" font-family="Sonus-Bold" font-weight="bold" font-size="37.0" fill="#000000" transform="matrix(1.00, 0.00, -0.00, -1.00, 388.8, 423.0)">s</text><text xml:space="preserve" font-family="Sonus-Bold" font-weight="bold" font-size="37.0" fill="#000000" transform="matrix(1.00, 0.00, -0.00, -1.00, 405.1, 423.0)">h</text><text xml:space="preserve" font-family="Sonus-Bold" font-weight="bold" font-size="37.0" fill="#000000" transform="matrix(1.00, 0.00, -0.00, -1.00, 427.2, 423.0)"> </text><text xml:space="preserve" font-family="Sonus-Bold" font-weight="bold" font-size="37.0" fill="#000000" transform="matrix(1.00, 0.00, -0.00, -1.00, 435.2, 423.0)">r</text><text xml:space="preserve" font-family="Sonus-Bold" font-weight="bold" font-size="37.0" fill="#000000" transform="matrix(1.00, 0.00, -0.00, -1.00, 449.1, 423.0)">e</text><text xml:space="preserve" font-family="Sonus-Bold" font-weight="bold" font-size="37.0" fill="#000000" transform="matrix(1.00, 0.00, -0.00, -1.00, 468.8, 423.0)">l</text><text xml:space="preserve" font-family="Sonus-Bold" font-weight="bold" font-size="37.0" fill="#000000" transform="matrix(1.00, 0.00, -0.00, -1.00, 479.2, 423.0)">e</text><text xml:space="preserve" font-family="Sonus-Bold" font-weight="bold" font-size="37.0" fill="#000000" transform="matrix(1.00, 0.00, -0.00, -1.00, 498.9, 423.0)">v</text><text xml:space="preserve" font-family="Sonus-Bold" font-weight="bold" font-size="37.0" fill="#000000" transform="matrix(1.00, 0.00, -0.00, -1.00, 518.5, 423.0)">a</text><text xml:space="preserve" font-family="Sonus-Bold" font-weight="bold" font-size="37.0" fill="#000000" transform="matrix(1.00, 0.00, -0.00, -1.00, 538.3, 423.0)">n</text><text xml:space="preserve" font-family="Sonus-Bold" font-weight="bold" font-size="37.0" fill="#000000" transform="matrix(1.00, 0.00, -0.00, -1.00, 560.3, 423.0)">c</text><text xml:space="preserve" font-family="Sonus-Bold" font-weight="bold" font-size="37.0" fill="#000000" transform="matrix(1.00, 0.00, -0.00, -1.00, 577.7, 423.0)">e</text><text xml:space="preserve" font-family="Sonus-Bold" font-weight="bold" font-size="37.0" fill="#000000" transform="matrix(1.00, 0.00, -0.00, -1.00, 597.4, 423.0)"> </text><text xml:space="preserve" font-family="Sonus-Bold" font-weight="bold" font-size="37.0" fill="#000000" transform="matrix(1.00, 0.00, -0.00, -1.00, 605.4, 423.0)">t</text><text xml:space="preserve" font-family="Sonus-Bold" font-weight="bold" font-size="37.0" fill="#000000" transform="matrix(1.00, 0.00, -0.00, -1.00, 619.1, 423.0)">o</text><text xml:space="preserve" font-family="Sonus-Bold" font-weight="bold" font-size="37.0" fill="#000000" transform="matrix(1.00, 0.00, -0.00, -1.00, 640.6, 423.0)"> </text><text xml:space="preserve" font-family="Sonus-Bold" font-weight="bold" font-size="37.0" fill="#000000" transform="matrix(1.00, 0.00, -0.00, -1.00, 648.6, 423.0)">a</text><text xml:space="preserve" font-family="Sonus-Bold" font-weight="bold" font-size="37.0" fill="#000000" transform="matrix(1.00, 0.00, -0.00, -1.00, 668.4, 423.0)"> </text><text xml:space="preserve" font-family="Sonus-Bold" font-weight="bold" font-size="37.0" fill="#000000" transform="matrix(1.00, 0.00, -0.00, -1.00, 676.4, 423.0)">m</text><text xml:space="preserve" font-family="Sonus-Bold" font-weight="bold" font-size="37.0" fill="#000000" transform="matrix(1.00, 0.00, -0.00, -1.00, 709.7, 423.0)">i</text><text xml:space="preserve" font-family="Sonus-Bold" font-weight="bold" font-size="37.0" fill="#000000" transform="matrix(1.00, 0.00, -0.00, -1.00, 720.0, 423.0)">l</text><text xml:space="preserve" font-family="Sonus-Bold" font-weight="bold" font-size="37.0" fill="#000000" transform="matrix(1.00, 0.00, -0.00, -1.00, 730.4, 423.0)">l</text><text xml:space="preserve" font-family="Sonus-Bold" font-weight="bold" font-size="37.0" fill="#000000" transform="matrix(1.00, 0.00, -0.00, -1.00, 740.7, 423.0)">e</text><text xml:space="preserve" font-family="Sonus-Bold" font-weight="bold" font-size="37.0" fill="#000000" transform="matrix(1.00, 0.00, -0.00, -1.00, 760.4, 423.0)">n</text><text xml:space="preserve" font-family="Sonus-Bold" font-weight="bold" font-size="37.0" fill="#000000" transform="matrix(1.00, 0.00, -0.00, -1.00, 782.4, 423.0)">n</text><text xml:space="preserve" font-family="Sonus-Bold" font-weight="bold" font-size="37.0" fill="#000000" transform="matrix(1.00, 0.00, -0.00, -1.00, 804.4, 423.0)">i</text><text xml:space="preserve" font-family="Sonus-Bold" font-weight="bold" font-size="37.0" fill="#000000" transform="matrix(1.00, 0.00, -0.00, -1.00, 814.8, 423.0)">a</text><text xml:space="preserve" font-family="Sonus-Bold" font-weight="bold" font-size="37.0" fill="#000000" transform="matrix(1.00, 0.00, -0.00, -1.00, 834.5, 423.0)">l</text><text xml:space="preserve" font-family="Sonus-Bold" font-weight="bold" font-size="37.0" fill="#000000" transform="matrix(1.00, 0.00, -0.00, -1.00, 844.9, 423.0)"> </text><text xml:space="preserve" font-family="Sonus-Bold" font-weight="bold" font-size="37.0" fill="#000000" transform="matrix(1.00, 0.00, -0.00, -1.00, 852.9, 423.0)">a</text><text xml:space="preserve" font-family="Sonus-Bold" font-weight="bold" font-size="37.0" fill="#000000" transform="matrix(1.00, 0.00, -0.00, -1.00, 872.7, 423.0)">u</text><text xml:space="preserve" font-family="Sonus-Bold" font-weight="bold" font-size="37.0" fill="#000000" transform="matrix(1.00, 0.00, -0.00, -1.00, 894.7, 423.0)">d</text><text xml:space="preserve" font-family="Sonus-Bold" font-weight="bold" font-size="37.0" fill="#000000" transform="matrix(1.00, 0.00, -0.00, -1.00, 916.9, 423.0)">i</text><text xml:space="preserve" font-family="Sonus-Bold" font-weight="bold" font-size="37.0" fill="#000000" transform="matrix(1.00, 0.00, -0.00, -1.00, 927.2, 423.0)">e</text><text xml:space="preserve" font-family="Sonus-Bold" font-weight="bold" font-size="37.0" fill="#000000" transform="matrix(1.00, 0.00, -0.00, -1.00, 947.0, 423.0)">n</text><text xml:space="preserve" font-family="Sonus-Bold" font-weight="bold" font-size="37.0" fill="#000000" transform="matrix(1.00, 0.00, -0.00, -1.00, 969.0, 423.0)">c</text><text xml:space="preserve" font-family="Sonus-Bold" font-weight="bold" font-size="37.0" fill="#000000" transform="matrix(1.00, 0.00, -0.00, -1.00, 986.4, 423.0)">e</text><text xml:space="preserve" font-family="Sonus-Bold" font-weight="bold" font-size="37.0" fill="#000000" transform="matrix(1.00, 0.00, -0.00, -1.00, 1006.1, 423.0)"> </text><text xml:space="preserve" font-family="Sonus" font-size="37.0" fill="#5D5D5D" transform="matrix(1.00, 0.00, -0.00, -1.00, 488.0, 372.0)">S</text><text xml:space="preserve" font-family="Sonus" font-size="37.0" fill="#5D5D5D" transform="matrix(1.00, 0.00, -0.00, -1.00, 507.4, 372.0)">h</text><text xml:space="preserve" font-family="Sonus" font-size="37.0" fill="#5D5D5D" transform="matrix(1.00, 0.00, -0.00, -1.00, 528.6, 372.0)">o</text><text xml:space="preserve" font-family="Sonus" font-size="37.0" fill="#5D5D5D" transform="matrix(1.00, 0.00, -0.00, -1.00, 549.3, 372.0)">w</text><text xml:space="preserve" font-family="Sonus" font-size="37.0" fill="#5D5D5D" transform="matrix(1.00, 0.00, -0.00, -1.00, 576.0, 372.0)">c</text><text xml:space="preserve" font-family="Sonus" font-size="37.0" fill="#5D5D5D" transform="matrix(1.00, 0.00, -0.00, -1.00, 593.1, 372.0)">a</text><text xml:space="preserve" font-family="Sonus" font-size="37.0" fill="#5D5D5D" transform="matrix(1.00, 0.00, -0.00, -1.00, 611.9, 372.0)">s</text><text xml:space="preserve" font-family="Sonus" font-size="37.0" fill="#5D5D5D" transform="matrix(1.00, 0.00, -0.00, -1.00, 627.5, 372.0)">e</text><text xml:space="preserve" font-family="Sonus" font-size="37.0" fill="#5D5D5D" transform="matrix(1.00, 0.00, -0.00, -1.00, 646.5, 372.0)"> </text><text xml:space="preserve" font-family="Sonus" font-size="37.0" fill="#5D5D5D" transform="matrix(1.00, 0.00, -0.00, -1.00, 654.5, 372.0)">D</text><text xml:space="preserve" font-family="Sonus" font-size="37.0" fill="#5D5D5D" transform="matrix(1.00, 0.00, -0.00, -1.00, 679.6, 372.0)">i</text><text xml:space="preserve" font-family="Sonus" font-size="37.0" fill="#5D5D5D" transform="matrix(1.00, 0.00, -0.00, -1.00, 688.7, 372.0)">v</text><text xml:space="preserve" font-family="Sonus" font-size="37.0" fill="#5D5D5D" transform="matrix(1.00, 0.00, -0.00, -1.00, 706.2, 372.0)">e</text><text xml:space="preserve" font-family="Sonus" font-size="37.0" fill="#5D5D5D" transform="matrix(1.00, 0.00, -0.00, -1.00, 725.1, 372.0)">r</text><text xml:space="preserve" font-family="Sonus" font-size="37.0" fill="#5D5D5D" transform="matrix(1.00, 0.00, -0.00, -1.00, 737.9, 372.0)">s</text><text xml:space="preserve" font-family="Sonus" font-size="37.0" fill="#5D5D5D" transform="matrix(1.00, 0.00, -0.00, -1.00, 753.3, 372.0)">i</text><text xml:space="preserve" font-family="Sonus" font-size="37.0" fill="#5D5D5D" transform="matrix(1.00, 0.00, -0.00, -1.00, 762.3, 372.0)">t</text><text xml:space="preserve" font-family="Sonus" font-size="37.0" fill="#5D5D5D" transform="matrix(1.00, 0.00, -0.00, -1.00, 775.0, 372.0)">y</text><text xml:space="preserve" font-family="Sonus" font-size="37.0" fill="#5D5D5D" transform="matrix(1.00, 0.00, -0.00, -1.00, 792.8, 372.0)"> </text><text xml:space="preserve" font-family="Sonus" font-size="37.0" fill="#5D5D5D" transform="matrix(1.00, 0.00, -0.00, -1.00, 408.0, 322.0)">H</text><text xml:space="preserve" font-family="Sonus" font-size="37.0" fill="#5D5D5D" transform="matrix(1.00, 0.00, -0.00, -1.00, 433.2, 322.0)">i</text><text xml:space="preserve" font-family="Sonus" font-size="37.0" fill="#5D5D5D" transform="matrix(1.00, 0.00, -0.00, -1.00, 442.3, 322.0)">g</text><text xml:space="preserve" font-family="Sonus" font-size="37.0" fill="#5D5D5D" transform="matrix(1.00, 0.00, -0.00, -1.00, 461.0, 322.0)">h</text><text xml:space="preserve" font-family="Sonus" font-size="37.0" fill="#5D5D5D" transform="matrix(1.00, 0.00, -0.00, -1.00, 482.2, 322.0)">l</text><text xml:space="preserve" font-family="Sonus" font-size="37.0" fill="#5D5D5D" transform="matrix(1.00, 0.00, -0.00, -1.00, 491.2, 322.0)">i</text><text xml:space="preserve" font-family="Sonus" font-size="37.0" fill="#5D5D5D" transform="matrix(1.00, 0.00, -0.00, -1.00, 500.2, 322.0)">g</text><text xml:space="preserve" font-family="Sonus" font-size="37.0" fill="#5D5D5D" transform="matrix(1.00, 0.00, -0.00, -1.00, 519.0, 322.0)">h</text><text xml:space="preserve" font-family="Sonus" font-size="37.0" fill="#5D5D5D" transform="matrix(1.00, 0.00, -0.00, -1.00, 540.2, 322.0)">t</text><text xml:space="preserve" font-family="Sonus" font-size="37.0" fill="#5D5D5D" transform="matrix(1.00, 0.00, -0.00, -1.00, 552.7, 322.0)"> </text><text xml:space="preserve" font-family="Sonus" font-size="37.0" fill="#5D5D5D" transform="matrix(1.00, 0.00, -0.00, -1.00, 560.7, 322.0)">S</text><text xml:space="preserve" font-family="Sonus" font-size="37.0" fill="#5D5D5D" transform="matrix(1.00, 0.00, -0.00, -1.00, 580.4, 322.0)">o</text><text xml:space="preserve" font-family="Sonus" font-size="37.0" fill="#5D5D5D" transform="matrix(1.00, 0.00, -0.00, -1.00, 600.8, 322.0)">c</text><text xml:space="preserve" font-family="Sonus" font-size="37.0" fill="#5D5D5D" transform="matrix(1.00, 0.00, -0.00, -1.00, 617.8, 322.0)">i</text><text xml:space="preserve" font-family="Sonus" font-size="37.0" fill="#5D5D5D" transform="matrix(1.00, 0.00, -0.00, -1.00, 626.8, 322.0)">a</text><text xml:space="preserve" font-family="Sonus" font-size="37.0" fill="#5D5D5D" transform="matrix(1.00, 0.00, -0.00, -1.00, 645.7, 322.0)">l</text><text xml:space="preserve" font-family="Sonus" font-size="37.0" fill="#5D5D5D" transform="matrix(1.00, 0.00, -0.00, -1.00, 654.7, 322.0)"> </text><text xml:space="preserve" font-family="Sonus" font-size="37.0" fill="#5D5D5D" transform="matrix(1.00, 0.00, -0.00, -1.00, 662.7, 322.0)">c</text><text xml:space="preserve" font-family="Sonus" font-size="37.0" fill="#5D5D5D" transform="matrix(1.00, 0.00, -0.00, -1.00, 679.6, 322.0)">o</text><text xml:space="preserve" font-family="Sonus" font-size="37.0" fill="#5D5D5D" transform="matrix(1.00, 0.00, -0.00, -1.00, 700.0, 322.0)">m</text><text xml:space="preserve" font-family="Sonus" font-size="37.0" fill="#5D5D5D" transform="matrix(1.00, 0.00, -0.00, -1.00, 732.5, 322.0)">m</text><text xml:space="preserve" font-family="Sonus" font-size="37.0" fill="#5D5D5D" transform="matrix(1.00, 0.00, -0.00, -1.00, 764.9, 322.0)">i</text><text xml:space="preserve" font-family="Sonus" font-size="37.0" fill="#5D5D5D" transform="matrix(1.00, 0.00, -0.00, -1.00, 774.0, 322.0)">t</text><text xml:space="preserve" font-family="Sonus" font-size="37.0" fill="#5D5D5D" transform="matrix(1.00, 0.00, -0.00, -1.00, 786.5, 322.0)">m</text><text xml:space="preserve" font-family="Sonus" font-size="37.0" fill="#5D5D5D" transform="matrix(1.00, 0.00, -0.00, -1.00, 819.0, 322.0)">e</text><text xml:space="preserve" font-family="Sonus" font-size="37.0" fill="#5D5D5D" transform="matrix(1.00, 0.00, -0.00, -1.00, 837.9, 322.0)">n</text><text xml:space="preserve" font-family="Sonus" font-size="37.0" fill="#5D5D5D" transform="matrix(1.00, 0.00, -0.00, -1.00, 858.9, 322.0)">t</text><text xml:space="preserve" font-family="Sonus" font-size="37.0" fill="#5D5D5D" transform="matrix(1.00, 0.00, -0.00, -1.00, 871.4, 322.0)"> </text><text xml:space="preserve" font-family="Sonus" font-size="37.0" fill="#5D5D5D" transform="matrix(1.00, 0.00, -0.00, -1.00, 545.0, 271.0)">O</text><text xml:space="preserve" font-family="Sonus" font-size="37.0" fill="#5D5D5D" transform="matrix(1.00, 0.00, -0.00, -1.00, 571.5, 271.0)">n</text><text xml:space="preserve" font-family="Sonus" font-size="37.0" fill="#5D5D5D" transform="matrix(1.00, 0.00, -0.00, -1.00, 592.5, 271.0)">b</text><text xml:space="preserve" font-family="Sonus" font-size="37.0" fill="#5D5D5D" transform="matrix(1.00, 0.00, -0.00, -1.00, 613.4, 271.0)">o</text><text xml:space="preserve" font-family="Sonus" font-size="37.0" fill="#5D5D5D" transform="matrix(1.00, 0.00, -0.00, -1.00, 633.8, 271.0)">a</text><text xml:space="preserve" font-family="Sonus" font-size="37.0" fill="#5D5D5D" transform="matrix(1.00, 0.00, -0.00, -1.00, 652.7, 271.0)">r</text><text xml:space="preserve" font-family="Sonus" font-size="37.0" fill="#5D5D5D" transform="matrix(1.00, 0.00, -0.00, -1.00, 665.2, 271.0)">d</text><text xml:space="preserve" font-family="Sonus" font-size="37.0" fill="#5D5D5D" transform="matrix(1.00, 0.00, -0.00, -1.00, 686.2, 271.0)">i</text><text xml:space="preserve" font-family="Sonus" font-size="37.0" fill="#5D5D5D" transform="matrix(1.00, 0.00, -0.00, -1.00, 695.2, 271.0)">n</text><text xml:space="preserve" font-family="Sonus" font-size="37.0" fill="#5D5D5D" transform="matrix(1.00, 0.00, -0.00, -1.00, 716.4, 271.0)">g</text><text xml:space="preserve" font-family="Sonus" font-size="37.0" fill="#5D5D5D" transform="matrix(1.00, 0.00, -0.00, -1.00, 735.1, 271.0)"> </text><text xml:space="preserve" font-family="Sonus" font-size="37.0" fill="#5D5D5D" transform="matrix(1.00, 0.00, -0.00, -1.00, 505.0, 221.0)">M</text><text xml:space="preserve" font-family="Sonus" font-size="37.0" fill="#5D5D5D" transform="matrix(1.00, 0.00, -0.00, -1.00, 535.0, 221.0)">e</text><text xml:space="preserve" font-family="Sonus" font-size="37.0" fill="#5D5D5D" transform="matrix(1.00, 0.00, -0.00, -1.00, 553.7, 221.0)">a</text><text xml:space="preserve" font-family="Sonus" font-size="37.0" fill="#5D5D5D" transform="matrix(1.00, 0.00, -0.00, -1.00, 572.6, 221.0)">n</text><text xml:space="preserve" font-family="Sonus" font-size="37.0" fill="#5D5D5D" transform="matrix(1.00, 0.00, -0.00, -1.00, 593.5, 221.0)">i</text><text xml:space="preserve" font-family="Sonus" font-size="37.0" fill="#5D5D5D" transform="matrix(1.00, 0.00, -0.00, -1.00, 602.5, 221.0)">n</text><text xml:space="preserve" font-family="Sonus" font-size="37.0" fill="#5D5D5D" transform="matrix(1.00, 0.00, -0.00, -1.00, 623.7, 221.0)">g</text><text xml:space="preserve" font-family="Sonus" font-size="37.0" fill="#5D5D5D" transform="matrix(1.00, 0.00, -0.00, -1.00, 642.6, 221.0)">f</text><text xml:space="preserve" font-family="Sonus" font-size="37.0" fill="#5D5D5D" transform="matrix(1.00, 0.00, -0.00, -1.00, 654.4, 221.0)">u</text><text xml:space="preserve" font-family="Sonus" font-size="37.0" fill="#5D5D5D" transform="matrix(1.00, 0.00, -0.00, -1.00, 675.6, 221.0)">l</text><text xml:space="preserve" font-family="Sonus" font-size="37.0" fill="#5D5D5D" transform="matrix(1.00, 0.00, -0.00, -1.00, 684.6, 221.0)"> </text><text xml:space="preserve" font-family="Sonus" font-size="37.0" fill="#5D5D5D" transform="matrix(1.00, 0.00, -0.00, -1.00, 691.6, 221.0)">W</text><text xml:space="preserve" font-family="Sonus" font-size="37.0" fill="#5D5D5D" transform="matrix(1.00, 0.00, -0.00, -1.00, 723.1, 221.0)">o</text><text xml:space="preserve" font-family="Sonus" font-size="37.0" fill="#5D5D5D" transform="matrix(1.00, 0.00, -0.00, -1.00, 743.5, 221.0)">r</text><text xml:space="preserve" font-family="Sonus" font-size="37.0" fill="#5D5D5D" transform="matrix(1.00, 0.00, -0.00, -1.00, 756.7, 221.0)">k</text><text xml:space="preserve" font-family="Sonus-Bold" font-weight="bold" font-size="71.0" fill="#000000" transform="matrix(1.00, 0.00, -0.00, -1.00, 550.0, 582.0)">G</text><text xml:space="preserve" font-family="Sonus-Bold" font-weight="bold" font-size="71.0" fill="#000000" transform="matrix(1.00, 0.00, -0.00, -1.00, 600.1, 582.0)">o</text><text xml:space="preserve" font-family="Sonus-Bold" font-weight="bold" font-size="71.0" fill="#000000" transform="matrix(1.00, 0.00, -0.00, -1.00, 641.3, 582.0)">a</text><text xml:space="preserve" font-family="Sonus-Bold" font-weight="bold" font-size="71.0" fill="#000000" transform="matrix(1.00, 0.00, -0.00, -1.00, 679.3, 582.0)">l</text><text xml:space="preserve" font-family="Sonus-Bold" font-weight="bold" font-size="71.0" fill="#000000" transform="matrix(1.00, 0.00, -0.00, -1.00, 699.1, 582.0)">s</text><text xml:space="preserve" font-family="Sonus-Bold" font-weight="bold" font-size="71.0" fill="#000000" transform="matrix(1.00, 0.00, -0.00, -1.00, 730.4, 582.0)"> </text><text xml:space="preserve" font-family="Sonus-Bold" font-weight="bold" font-size="43.0" fill="#EF6823" transform="matrix(1.00, 0.00, -0.00, -1.00, 597.0, 543.0)">_</text><text xml:space="preserve" font-family="Sonus-Bold" font-weight="bold" font-size="43.0" fill="#EF6823" transform="matrix(1.00, 0.00, -0.00, -1.00, 618.5, 543.0)">_</text><text xml:space="preserve" font-family="Sonus-Bold" font-weight="bold" font-size="43.0" fill="#EF6823" transform="matrix(1.00, 0.00, -0.00, -1.00, 640.1, 543.0)">_</text><text xml:space="preserve" font-family="Sonus-Bold" font-weight="bold" font-size="43.0" fill="#EF6823" transform="matrix(1.00, 0.00, -0.00, -1.00, 661.6, 543.0)">_</text></g></svg>