<?xml version="1.0" encoding="UTF-8" standalone="no"?><svg xmlns="http://www.w3.org/2000/svg" xmlns:xlink="http://www.w3.org/1999/xlink" clip-rule="evenodd" stroke-miterlimit="4.00" viewBox="0 0 1280 720"><desc>SVG generated by Keynote</desc><defs></defs><g transform="matrix(1.00, 0.00, -0.00, -1.00, 0.0, 720.0)"><path d="M 0.0 720.0 L 1280.0 720.0 L 1280.0 0.0 L 0.0 0.0 Z M 0.0 720.0 " fill="#FEFFFE"></path><text xml:space="preserve" font-family="Sonus" font-size="20.0" fill="#52575F" transform="matrix(1.00, 0.00, -0.00, -1.00, 70.0, 625.0)">E</text><text xml:space="preserve" font-family="Sonus" font-size="20.0" fill="#52575F" transform="matrix(1.00, 0.00, -0.00, -1.00, 81.2, 625.0)">s</text><text xml:space="preserve" font-family="Sonus" font-size="20.0" fill="#52575F" transform="matrix(1.00, 0.00, -0.00, -1.00, 89.5, 625.0)">t</text><text xml:space="preserve" font-family="Sonus" font-size="20.0" fill="#52575F" transform="matrix(1.00, 0.00, -0.00, -1.00, 96.4, 625.0)">a</text><text xml:space="preserve" font-family="Sonus" font-size="20.0" fill="#52575F" transform="matrix(1.00, 0.00, -0.00, -1.00, 106.6, 625.0)">b</text><text xml:space="preserve" font-family="Sonus" font-size="20.0" fill="#52575F" transform="matrix(1.00, 0.00, -0.00, -1.00, 117.9, 625.0)">l</text><text xml:space="preserve" font-family="Sonus" font-size="20.0" fill="#52575F" transform="matrix(1.00, 0.00, -0.00, -1.00, 122.8, 625.0)">i</text><text xml:space="preserve" font-family="Sonus" font-size="20.0" fill="#52575F" transform="matrix(1.00, 0.00, -0.00, -1.00, 127.7, 625.0)">s</text><text xml:space="preserve" font-family="Sonus" font-size="20.0" fill="#52575F" transform="matrix(1.00, 0.00, -0.00, -1.00, 136.0, 625.0)">h</text><text xml:space="preserve" font-family="Sonus" font-size="20.0" fill="#52575F" transform="matrix(1.00, 0.00, -0.00, -1.00, 147.4, 625.0)"> </text><text xml:space="preserve" font-family="Sonus" font-size="20.0" fill="#52575F" transform="matrix(1.00, 0.00, -0.00, -1.00, 151.7, 625.0)">r</text><text xml:space="preserve" font-family="Sonus" font-size="20.0" fill="#52575F" transform="matrix(1.00, 0.00, -0.00, -1.00, 158.5, 625.0)">e</text><text xml:space="preserve" font-family="Sonus" font-size="20.0" fill="#52575F" transform="matrix(1.00, 0.00, -0.00, -1.00, 168.8, 625.0)">l</text><text xml:space="preserve" font-family="Sonus" font-size="20.0" fill="#52575F" transform="matrix(1.00, 0.00, -0.00, -1.00, 173.7, 625.0)">e</text><text xml:space="preserve" font-family="Sonus" font-size="20.0" fill="#52575F" transform="matrix(1.00, 0.00, -0.00, -1.00, 183.9, 625.0)">v</text><text xml:space="preserve" font-family="Sonus" font-size="20.0" fill="#52575F" transform="matrix(1.00, 0.00, -0.00, -1.00, 193.3, 625.0)">a</text><text xml:space="preserve" font-family="Sonus" font-size="20.0" fill="#52575F" transform="matrix(1.00, 0.00, -0.00, -1.00, 203.5, 625.0)">n</text><text xml:space="preserve" font-family="Sonus" font-size="20.0" fill="#52575F" transform="matrix(1.00, 0.00, -0.00, -1.00, 214.8, 625.0)">c</text><text xml:space="preserve" font-family="Sonus" font-size="20.0" fill="#52575F" transform="matrix(1.00, 0.00, -0.00, -1.00, 223.9, 625.0)">e</text><text xml:space="preserve" font-family="Sonus" font-size="20.0" fill="#52575F" transform="matrix(1.00, 0.00, -0.00, -1.00, 234.2, 625.0)"> </text><text xml:space="preserve" font-family="Sonus" font-size="20.0" fill="#52575F" transform="matrix(1.00, 0.00, -0.00, -1.00, 238.5, 625.0)">t</text><text xml:space="preserve" font-family="Sonus" font-size="20.0" fill="#52575F" transform="matrix(1.00, 0.00, -0.00, -1.00, 245.3, 625.0)">o</text><text xml:space="preserve" font-family="Sonus" font-size="20.0" fill="#52575F" transform="matrix(1.00, 0.00, -0.00, -1.00, 256.3, 625.0)"> </text><text xml:space="preserve" font-family="Sonus" font-size="20.0" fill="#52575F" transform="matrix(1.00, 0.00, -0.00, -1.00, 260.6, 625.0)">a</text><text xml:space="preserve" font-family="Sonus" font-size="20.0" fill="#52575F" transform="matrix(1.00, 0.00, -0.00, -1.00, 270.8, 625.0)"> </text><text xml:space="preserve" font-family="Sonus" font-size="20.0" fill="#52575F" transform="matrix(1.00, 0.00, -0.00, -1.00, 275.1, 625.0)">m</text><text xml:space="preserve" font-family="Sonus" font-size="20.0" fill="#52575F" transform="matrix(1.00, 0.00, -0.00, -1.00, 292.7, 625.0)">i</text><text xml:space="preserve" font-family="Sonus" font-size="20.0" fill="#52575F" transform="matrix(1.00, 0.00, -0.00, -1.00, 297.6, 625.0)">l</text><text xml:space="preserve" font-family="Sonus" font-size="20.0" fill="#52575F" transform="matrix(1.00, 0.00, -0.00, -1.00, 302.5, 625.0)">l</text><text xml:space="preserve" font-family="Sonus" font-size="20.0" fill="#52575F" transform="matrix(1.00, 0.00, -0.00, -1.00, 307.3, 625.0)">e</text><text xml:space="preserve" font-family="Sonus" font-size="20.0" fill="#52575F" transform="matrix(1.00, 0.00, -0.00, -1.00, 317.6, 625.0)">n</text><text xml:space="preserve" font-family="Sonus" font-size="20.0" fill="#52575F" transform="matrix(1.00, 0.00, -0.00, -1.00, 328.9, 625.0)">n</text><text xml:space="preserve" font-family="Sonus" font-size="20.0" fill="#52575F" transform="matrix(1.00, 0.00, -0.00, -1.00, 340.2, 625.0)">i</text><text xml:space="preserve" font-family="Sonus" font-size="20.0" fill="#52575F" transform="matrix(1.00, 0.00, -0.00, -1.00, 345.1, 625.0)">a</text><text xml:space="preserve" font-family="Sonus" font-size="20.0" fill="#52575F" transform="matrix(1.00, 0.00, -0.00, -1.00, 355.3, 625.0)">l</text><text xml:space="preserve" font-family="Sonus" font-size="20.0" fill="#52575F" transform="matrix(1.00, 0.00, -0.00, -1.00, 360.2, 625.0)"> </text><text xml:space="preserve" font-family="Sonus" font-size="20.0" fill="#52575F" transform="matrix(1.00, 0.00, -0.00, -1.00, 364.5, 625.0)">a</text><text xml:space="preserve" font-family="Sonus" font-size="20.0" fill="#52575F" transform="matrix(1.00, 0.00, -0.00, -1.00, 374.7, 625.0)">u</text><text xml:space="preserve" font-family="Sonus" font-size="20.0" fill="#52575F" transform="matrix(1.00, 0.00, -0.00, -1.00, 386.1, 625.0)">d</text><text xml:space="preserve" font-family="Sonus" font-size="20.0" fill="#52575F" transform="matrix(1.00, 0.00, -0.00, -1.00, 397.5, 625.0)">i</text><text xml:space="preserve" font-family="Sonus" font-size="20.0" fill="#52575F" transform="matrix(1.00, 0.00, -0.00, -1.00, 402.3, 625.0)">e</text><text xml:space="preserve" font-family="Sonus" font-size="20.0" fill="#52575F" transform="matrix(1.00, 0.00, -0.00, -1.00, 412.6, 625.0)">n</text><text xml:space="preserve" font-family="Sonus" font-size="20.0" fill="#52575F" transform="matrix(1.00, 0.00, -0.00, -1.00, 423.9, 625.0)">c</text><text xml:space="preserve" font-family="Sonus" font-size="20.0" fill="#52575F" transform="matrix(1.00, 0.00, -0.00, -1.00, 433.0, 625.0)">e</text><path d="M 70.0 721.0 L 1210.0 721.0 L 1210.0 703.5 L 70.0 703.5 Z M 70.0 721.0 " fill="#EF6823"></path><g><clipPath id="clip-19391"><path d="M 69.0 36.0 L 125.0 36.0 L 125.0 92.0 L 69.0 92.0 Z M 69.0 36.0 "></path></clipPath><g clip-path="url(#clip-19391)"><path d="M 94.7 81.9 C 84.8 80.6 77.8 71.6 79.1 61.7 C 80.4 51.8 89.4 44.8 99.3 46.1 C 109.2 47.4 116.2 56.4 114.9 66.3 C 113.6 76.2 104.6 83.2 94.7 81.9 M 106.4 67.3 L 103.5 57.8 C 102.1 53.4 105.0 54.6 105.0 54.6 C 105.0 54.6 104.5 52.9 102.1 52.9 C 100.5 52.9 99.6 54.0 99.8 56.1 C 99.8 56.1 99.8 56.3 99.8 56.3 C 99.9 56.9 100.4 58.5 100.4 58.5 C 100.5 58.8 102.6 65.9 102.6 65.9 C 103.0 67.1 103.4 68.2 103.4 68.6 C 103.3 68.9 103.1 69.0 102.9 69.0 C 102.3 69.0 101.3 68.4 100.4 67.2 L 97.3 57.5 L 93.9 57.5 L 96.7 65.9 C 97.1 67.1 97.4 68.2 97.4 68.6 C 97.4 68.9 97.2 69.0 96.9 69.0 C 96.3 69.0 95.4 68.4 94.5 67.3 L 91.3 57.5 L 88.7 57.5 L 88.1 57.5 C 88.1 57.5 87.7 57.5 88.0 57.9 C 88.1 58.0 88.2 58.2 88.3 58.4 C 89.8 61.3 91.9 69.2 91.9 69.2 C 88.9 68.2 86.4 67.6 86.5 66.1 C 86.5 65.6 86.8 65.3 87.1 65.2 C 87.3 65.1 87.5 64.9 87.1 64.8 C 85.9 64.6 83.8 64.3 83.7 66.0 C 83.4 69.1 92.0 70.4 92.8 72.4 C 92.9 72.6 93.0 72.6 93.0 72.6 C 93.0 72.6 94.4 72.6 94.6 72.6 C 95.0 72.6 95.8 72.4 95.2 70.9 L 94.8 69.8 C 96.0 71.5 98.0 72.4 99.0 72.4 C 100.2 72.4 100.9 71.4 101.0 70.4 C 102.3 71.7 103.9 72.4 105.0 72.4 C 106.3 72.4 106.9 71.3 107.0 70.1 C 107.0 69.4 106.8 68.5 106.4 67.3 " fill="#D2D1D1"></path><path d="M 124.3 57.8 C 124.7 59.4 124.9 61.1 125.0 62.8 L 120.8 64.5 L 120.2 69.5 L 123.8 72.3 C 123.3 73.9 122.6 75.5 121.9 76.9 L 117.3 76.4 L 114.3 80.4 L 116.1 84.6 C 114.8 85.7 113.5 86.7 112.1 87.6 L 108.4 84.9 L 103.8 86.8 L 103.2 91.3 C 101.6 91.7 99.9 91.9 98.2 92.0 L 96.5 87.8 L 91.5 87.2 L 88.7 90.8 C 87.1 90.3 85.5 89.6 84.1 88.9 L 84.6 84.3 L 80.6 81.3 L 76.5 83.0 C 75.3 81.8 74.3 80.5 73.4 79.1 L 76.1 75.4 L 74.2 70.8 L 69.7 70.2 C 69.3 68.6 69.1 66.9 69.0 65.2 L 73.2 63.5 L 73.8 58.5 L 70.2 55.7 C 70.7 54.1 71.4 52.5 72.1 51.1 L 76.7 51.6 L 79.7 47.6 L 77.9 43.5 C 79.2 42.3 80.5 41.3 81.9 40.4 L 85.6 43.1 L 90.2 41.2 L 90.8 36.7 C 92.4 36.3 94.1 36.1 95.8 36.0 L 97.5 40.2 L 102.5 40.8 L 105.3 37.2 C 106.9 37.7 108.5 38.4 109.9 39.1 L 109.4 43.7 L 113.4 46.7 L 117.5 45.0 C 118.7 46.2 119.7 47.5 120.6 48.9 L 117.9 52.6 L 119.8 57.2 Z M 99.7 42.9 C 88.1 41.4 77.4 49.7 75.9 61.3 C 74.4 72.9 82.7 83.6 94.3 85.1 C 105.9 86.6 116.6 78.3 118.1 66.7 C 119.6 55.1 111.3 44.4 99.7 42.9 " fill="#D2D1D1"></path></g></g><image xlink:href="../../D4C764CB-5808-4372-8812-C8AB277F93D1/assets/BB7DB1290695241CB08CA267270377DD.png" width="489.00" height="489.00" transform="matrix(1.00, 0.00, -0.00, -1.00, 721.9, 591.1)" opacity="0.70"></image><g><clipPath id="clip-19392"><path d="M 724.0 589.0 L 1209.0 589.0 L 1209.0 104.0 L 724.0 104.0 Z M 724.0 588.9 "></path></clipPath><g clip-path="url(#clip-19392)"><image xlink:href="../../D4C764CB-5808-4372-8812-C8AB277F93D1/assets/D6425837C58F29F9A29D39978AD46610.png" width="485.00" height="530.00" transform="matrix(1.00, 0.00, -0.00, -1.00, 724.0, 611.0)"></image></g></g><path d="M 0.0 0.0 L 0.0 484.6 L 484.7 484.6 L 484.7 0.0 L 0.0 0.0 Z M 0.0 0.0 " fill="none" stroke="#F2F6F5" stroke-width="0.25" transform="matrix(1.00, 0.00, 0.00, -1.00, 724.0, 588.9)"></path><text xml:space="preserve" font-family="Sonus-Bold" font-weight="bold" font-size="40.0" fill="#000000" transform="matrix(1.00, 0.00, -0.00, -1.00, 69.0, 579.0)">M</text><text xml:space="preserve" font-family="Sonus-Bold" font-weight="bold" font-size="40.0" fill="#000000" transform="matrix(1.00, 0.00, -0.00, -1.00, 102.7, 579.0)">e</text><text xml:space="preserve" font-family="Sonus-Bold" font-weight="bold" font-size="40.0" fill="#000000" transform="matrix(1.00, 0.00, -0.00, -1.00, 123.8, 579.0)">a</text><text xml:space="preserve" font-family="Sonus-Bold" font-weight="bold" font-size="40.0" fill="#000000" transform="matrix(1.00, 0.00, -0.00, -1.00, 145.2, 579.0)">n</text><text xml:space="preserve" font-family="Sonus-Bold" font-weight="bold" font-size="40.0" fill="#000000" transform="matrix(1.00, 0.00, -0.00, -1.00, 169.0, 579.0)">i</text><text xml:space="preserve" font-family="Sonus-Bold" font-weight="bold" font-size="40.0" fill="#000000" transform="matrix(1.00, 0.00, -0.00, -1.00, 180.2, 579.0)">n</text><text xml:space="preserve" font-family="Sonus-Bold" font-weight="bold" font-size="40.0" fill="#000000" transform="matrix(1.00, 0.00, -0.00, -1.00, 204.2, 579.0)">g</text><text xml:space="preserve" font-family="Sonus-Bold" font-weight="bold" font-size="40.0" fill="#000000" transform="matrix(1.00, 0.00, -0.00, -1.00, 225.8, 579.0)">f</text><text xml:space="preserve" font-family="Sonus-Bold" font-weight="bold" font-size="40.0" fill="#000000" transform="matrix(1.00, 0.00, -0.00, -1.00, 239.7, 579.0)">u</text><text xml:space="preserve" font-family="Sonus-Bold" font-weight="bold" font-size="40.0" fill="#000000" transform="matrix(1.00, 0.00, -0.00, -1.00, 263.6, 579.0)">l</text><text xml:space="preserve" font-family="Sonus-Bold" font-weight="bold" font-size="40.0" fill="#000000" transform="matrix(1.00, 0.00, -0.00, -1.00, 274.8, 579.0)"> </text><text xml:space="preserve" font-family="Sonus-Bold" font-weight="bold" font-size="40.0" fill="#000000" transform="matrix(1.00, 0.00, -0.00, -1.00, 282.3, 579.0)">W</text><text xml:space="preserve" font-family="Sonus-Bold" font-weight="bold" font-size="40.0" fill="#000000" transform="matrix(1.00, 0.00, -0.00, -1.00, 318.2, 579.0)">o</text><text xml:space="preserve" font-family="Sonus-Bold" font-weight="bold" font-size="40.0" fill="#000000" transform="matrix(1.00, 0.00, -0.00, -1.00, 341.4, 579.0)">r</text><text xml:space="preserve" font-family="Sonus-Bold" font-weight="bold" font-size="40.0" fill="#000000" transform="matrix(1.00, 0.00, -0.00, -1.00, 357.2, 579.0)">k</text><text xml:space="preserve" font-family="Sonus-Light" font-size="20.0" fill="#5D5D5D" transform="matrix(1.00, 0.00, -0.00, -1.00, 73.0, 381.0)">6</text><text xml:space="preserve" font-family="Sonus-Light" font-size="20.0" fill="#5D5D5D" transform="matrix(1.00, 0.00, -0.00, -1.00, 84.0, 381.0)">4</text><text xml:space="preserve" font-family="Sonus-Light" font-size="20.0" fill="#5D5D5D" transform="matrix(1.00, 0.00, -0.00, -1.00, 95.0, 381.0)">%</text><text xml:space="preserve" font-family="Sonus-Light" font-size="20.0" fill="#5D5D5D" transform="matrix(1.00, 0.00, -0.00, -1.00, 110.9, 381.0)"> </text><text xml:space="preserve" font-family="Sonus-Light" font-size="20.0" fill="#5D5D5D" transform="matrix(1.00, 0.00, -0.00, -1.00, 115.2, 381.0)">o</text><text xml:space="preserve" font-family="Sonus-Light" font-size="20.0" fill="#5D5D5D" transform="matrix(1.00, 0.00, -0.00, -1.00, 126.0, 381.0)">f</text><text xml:space="preserve" font-family="Sonus-Light" font-size="20.0" fill="#5D5D5D" transform="matrix(1.00, 0.00, -0.00, -1.00, 132.8, 381.0)"> </text><text xml:space="preserve" font-family="Sonus-Light" font-size="20.0" fill="#5D5D5D" transform="matrix(1.00, 0.00, -0.00, -1.00, 137.1, 381.0)">m</text><text xml:space="preserve" font-family="Sonus-Light" font-size="20.0" fill="#5D5D5D" transform="matrix(1.00, 0.00, -0.00, -1.00, 154.5, 381.0)">i</text><text xml:space="preserve" font-family="Sonus-Light" font-size="20.0" fill="#5D5D5D" transform="matrix(1.00, 0.00, -0.00, -1.00, 159.1, 381.0)">l</text><text xml:space="preserve" font-family="Sonus-Light" font-size="20.0" fill="#5D5D5D" transform="matrix(1.00, 0.00, -0.00, -1.00, 163.7, 381.0)">l</text><text xml:space="preserve" font-family="Sonus-Light" font-size="20.0" fill="#5D5D5D" transform="matrix(1.00, 0.00, -0.00, -1.00, 168.3, 381.0)">e</text><text xml:space="preserve" font-family="Sonus-Light" font-size="20.0" fill="#5D5D5D" transform="matrix(1.00, 0.00, -0.00, -1.00, 178.4, 381.0)">n</text><text xml:space="preserve" font-family="Sonus-Light" font-size="20.0" fill="#5D5D5D" transform="matrix(1.00, 0.00, -0.00, -1.00, 189.4, 381.0)">n</text><text xml:space="preserve" font-family="Sonus-Light" font-size="20.0" fill="#5D5D5D" transform="matrix(1.00, 0.00, -0.00, -1.00, 200.5, 381.0)">i</text><text xml:space="preserve" font-family="Sonus-Light" font-size="20.0" fill="#5D5D5D" transform="matrix(1.00, 0.00, -0.00, -1.00, 205.1, 381.0)">a</text><text xml:space="preserve" font-family="Sonus-Light" font-size="20.0" fill="#5D5D5D" transform="matrix(1.00, 0.00, -0.00, -1.00, 215.1, 381.0)">l</text><text xml:space="preserve" font-family="Sonus-Light" font-size="20.0" fill="#5D5D5D" transform="matrix(1.00, 0.00, -0.00, -1.00, 219.7, 381.0)">s</text><text xml:space="preserve" font-family="Sonus-Light" font-size="20.0" fill="#5D5D5D" transform="matrix(1.00, 0.00, -0.00, -1.00, 227.8, 381.0)"> </text><text xml:space="preserve" font-family="Sonus-Light" font-size="20.0" fill="#5D5D5D" transform="matrix(1.00, 0.00, -0.00, -1.00, 232.1, 381.0)">s</text><text xml:space="preserve" font-family="Sonus-Light" font-size="20.0" fill="#5D5D5D" transform="matrix(1.00, 0.00, -0.00, -1.00, 240.4, 381.0)">a</text><text xml:space="preserve" font-family="Sonus-Light" font-size="20.0" fill="#5D5D5D" transform="matrix(1.00, 0.00, -0.00, -1.00, 250.3, 381.0)">y</text><text xml:space="preserve" font-family="Sonus-Light" font-size="20.0" fill="#5D5D5D" transform="matrix(1.00, 0.00, -0.00, -1.00, 259.4, 381.0)"> </text><text xml:space="preserve" font-family="Sonus-Light" font-size="20.0" fill="#5D5D5D" transform="matrix(1.00, 0.00, -0.00, -1.00, 263.7, 381.0)">i</text><text xml:space="preserve" font-family="Sonus-Light" font-size="20.0" fill="#5D5D5D" transform="matrix(1.00, 0.00, -0.00, -1.00, 268.3, 381.0)">t</text><text xml:space="preserve" font-family="Sonus-Light" font-size="20.0" fill="#5D5D5D" transform="matrix(1.00, 0.00, -0.00, -1.00, 274.8, 381.0)">’</text><text xml:space="preserve" font-family="Sonus-Light" font-size="20.0" fill="#5D5D5D" transform="matrix(1.00, 0.00, -0.00, -1.00, 278.0, 381.0)">s</text><text xml:space="preserve" font-family="Sonus-Light" font-size="20.0" fill="#5D5D5D" transform="matrix(1.00, 0.00, -0.00, -1.00, 286.1, 381.0)"> </text><text xml:space="preserve" font-family="Sonus-Light" font-size="20.0" fill="#5D5D5D" transform="matrix(1.00, 0.00, -0.00, -1.00, 290.4, 381.0)">a</text><text xml:space="preserve" font-family="Sonus-Light" font-size="20.0" fill="#5D5D5D" transform="matrix(1.00, 0.00, -0.00, -1.00, 300.4, 381.0)"> </text><text xml:space="preserve" font-family="Sonus-Light" font-size="20.0" fill="#5D5D5D" transform="matrix(1.00, 0.00, -0.00, -1.00, 304.7, 381.0)">p</text><text xml:space="preserve" font-family="Sonus-Light" font-size="20.0" fill="#5D5D5D" transform="matrix(1.00, 0.00, -0.00, -1.00, 315.8, 381.0)">r</text><text xml:space="preserve" font-family="Sonus-Light" font-size="20.0" fill="#5D5D5D" transform="matrix(1.00, 0.00, -0.00, -1.00, 322.5, 381.0)">i</text><text xml:space="preserve" font-family="Sonus-Light" font-size="20.0" fill="#5D5D5D" transform="matrix(1.00, 0.00, -0.00, -1.00, 327.1, 381.0)">o</text><text xml:space="preserve" font-family="Sonus-Light" font-size="20.0" fill="#5D5D5D" transform="matrix(1.00, 0.00, -0.00, -1.00, 337.9, 381.0)">r</text><text xml:space="preserve" font-family="Sonus-Light" font-size="20.0" fill="#5D5D5D" transform="matrix(1.00, 0.00, -0.00, -1.00, 344.5, 381.0)">i</text><text xml:space="preserve" font-family="Sonus-Light" font-size="20.0" fill="#5D5D5D" transform="matrix(1.00, 0.00, -0.00, -1.00, 349.1, 381.0)">t</text><text xml:space="preserve" font-family="Sonus-Light" font-size="20.0" fill="#5D5D5D" transform="matrix(1.00, 0.00, -0.00, -1.00, 355.6, 381.0)">y</text><text xml:space="preserve" font-family="Sonus-Light" font-size="20.0" fill="#5D5D5D" transform="matrix(1.00, 0.00, -0.00, -1.00, 364.8, 381.0)"> </text><text xml:space="preserve" font-family="Sonus-Light" font-size="20.0" fill="#5D5D5D" transform="matrix(1.00, 0.00, -0.00, -1.00, 369.1, 381.0)">f</text><text xml:space="preserve" font-family="Sonus-Light" font-size="20.0" fill="#5D5D5D" transform="matrix(1.00, 0.00, -0.00, -1.00, 375.3, 381.0)">o</text><text xml:space="preserve" font-family="Sonus-Light" font-size="20.0" fill="#5D5D5D" transform="matrix(1.00, 0.00, -0.00, -1.00, 386.1, 381.0)">r</text><text xml:space="preserve" font-family="Sonus-Light" font-size="20.0" fill="#5D5D5D" transform="matrix(1.00, 0.00, -0.00, -1.00, 392.9, 381.0)"> </text><text xml:space="preserve" font-family="Sonus-Light" font-size="20.0" fill="#5D5D5D" transform="matrix(1.00, 0.00, -0.00, -1.00, 397.3, 381.0)">t</text><text xml:space="preserve" font-family="Sonus-Light" font-size="20.0" fill="#5D5D5D" transform="matrix(1.00, 0.00, -0.00, -1.00, 403.8, 381.0)">h</text><text xml:space="preserve" font-family="Sonus-Light" font-size="20.0" fill="#5D5D5D" transform="matrix(1.00, 0.00, -0.00, -1.00, 415.0, 381.0)">e</text><text xml:space="preserve" font-family="Sonus-Light" font-size="20.0" fill="#5D5D5D" transform="matrix(1.00, 0.00, -0.00, -1.00, 425.0, 381.0)">m</text><text xml:space="preserve" font-family="Sonus-Light" font-size="20.0" fill="#5D5D5D" transform="matrix(1.00, 0.00, -0.00, -1.00, 442.4, 381.0)"> </text><text xml:space="preserve" font-family="Sonus-Light" font-size="20.0" fill="#5D5D5D" transform="matrix(1.00, 0.00, -0.00, -1.00, 446.7, 381.0)">t</text><text xml:space="preserve" font-family="Sonus-Light" font-size="20.0" fill="#5D5D5D" transform="matrix(1.00, 0.00, -0.00, -1.00, 453.2, 381.0)">o</text><text xml:space="preserve" font-family="Sonus-Light" font-size="20.0" fill="#5D5D5D" transform="matrix(1.00, 0.00, -0.00, -1.00, 464.0, 381.0)"> </text><text xml:space="preserve" font-family="Sonus-Light" font-size="20.0" fill="#5D5D5D" transform="matrix(1.00, 0.00, -0.00, -1.00, 468.3, 381.0)">m</text><text xml:space="preserve" font-family="Sonus-Light" font-size="20.0" fill="#5D5D5D" transform="matrix(1.00, 0.00, -0.00, -1.00, 485.7, 381.0)">a</text><text xml:space="preserve" font-family="Sonus-Light" font-size="20.0" fill="#5D5D5D" transform="matrix(1.00, 0.00, -0.00, -1.00, 495.7, 381.0)">k</text><text xml:space="preserve" font-family="Sonus-Light" font-size="20.0" fill="#5D5D5D" transform="matrix(1.00, 0.00, -0.00, -1.00, 505.3, 381.0)">e</text><text xml:space="preserve" font-family="Sonus-Light" font-size="20.0" fill="#5D5D5D" transform="matrix(1.00, 0.00, -0.00, -1.00, 515.4, 381.0)"> </text><text xml:space="preserve" font-family="Sonus-Light" font-size="20.0" fill="#5D5D5D" transform="matrix(1.00, 0.00, -0.00, -1.00, 519.7, 381.0)">t</text><text xml:space="preserve" font-family="Sonus-Light" font-size="20.0" fill="#5D5D5D" transform="matrix(1.00, 0.00, -0.00, -1.00, 526.2, 381.0)">h</text><text xml:space="preserve" font-family="Sonus-Light" font-size="20.0" fill="#5D5D5D" transform="matrix(1.00, 0.00, -0.00, -1.00, 537.4, 381.0)">e</text><text xml:space="preserve" font-family="Sonus-Light" font-size="20.0" fill="#5D5D5D" transform="matrix(1.00, 0.00, -0.00, -1.00, 547.5, 381.0)"> </text><text xml:space="preserve" font-family="Sonus-Light" font-size="20.0" fill="#5D5D5D" transform="matrix(1.00, 0.00, -0.00, -1.00, 551.8, 381.0)">w</text><text xml:space="preserve" font-family="Sonus-Light" font-size="20.0" fill="#5D5D5D" transform="matrix(1.00, 0.00, -0.00, -1.00, 565.6, 381.0)">o</text><text xml:space="preserve" font-family="Sonus-Light" font-size="20.0" fill="#5D5D5D" transform="matrix(1.00, 0.00, -0.00, -1.00, 576.4, 381.0)">r</text><text xml:space="preserve" font-family="Sonus-Light" font-size="20.0" fill="#5D5D5D" transform="matrix(1.00, 0.00, -0.00, -1.00, 583.3, 381.0)">l</text><text xml:space="preserve" font-family="Sonus-Light" font-size="20.0" fill="#5D5D5D" transform="matrix(1.00, 0.00, -0.00, -1.00, 587.9, 381.0)">d</text><text xml:space="preserve" font-family="Sonus-Light" font-size="20.0" fill="#5D5D5D" transform="matrix(1.00, 0.00, -0.00, -1.00, 598.9, 381.0)"> </text><text xml:space="preserve" font-family="Sonus-Light" font-size="20.0" fill="#5D5D5D" transform="matrix(1.00, 0.00, -0.00, -1.00, 73.0, 352.0)">a</text><text xml:space="preserve" font-family="Sonus-Light" font-size="20.0" fill="#5D5D5D" transform="matrix(1.00, 0.00, -0.00, -1.00, 83.0, 352.0)"> </text><text xml:space="preserve" font-family="Sonus-Light" font-size="20.0" fill="#5D5D5D" transform="matrix(1.00, 0.00, -0.00, -1.00, 87.3, 352.0)">b</text><text xml:space="preserve" font-family="Sonus-Light" font-size="20.0" fill="#5D5D5D" transform="matrix(1.00, 0.00, -0.00, -1.00, 98.4, 352.0)">e</text><text xml:space="preserve" font-family="Sonus-Light" font-size="20.0" fill="#5D5D5D" transform="matrix(1.00, 0.00, -0.00, -1.00, 108.4, 352.0)">t</text><text xml:space="preserve" font-family="Sonus-Light" font-size="20.0" fill="#5D5D5D" transform="matrix(1.00, 0.00, -0.00, -1.00, 114.9, 352.0)">t</text><text xml:space="preserve" font-family="Sonus-Light" font-size="20.0" fill="#5D5D5D" transform="matrix(1.00, 0.00, -0.00, -1.00, 121.4, 352.0)">e</text><text xml:space="preserve" font-family="Sonus-Light" font-size="20.0" fill="#5D5D5D" transform="matrix(1.00, 0.00, -0.00, -1.00, 131.5, 352.0)">r</text><text xml:space="preserve" font-family="Sonus-Light" font-size="20.0" fill="#5D5D5D" transform="matrix(1.00, 0.00, -0.00, -1.00, 138.4, 352.0)"> </text><text xml:space="preserve" font-family="Sonus-Light" font-size="20.0" fill="#5D5D5D" transform="matrix(1.00, 0.00, -0.00, -1.00, 142.7, 352.0)">p</text><text xml:space="preserve" font-family="Sonus-Light" font-size="20.0" fill="#5D5D5D" transform="matrix(1.00, 0.00, -0.00, -1.00, 153.7, 352.0)">l</text><text xml:space="preserve" font-family="Sonus-Light" font-size="20.0" fill="#5D5D5D" transform="matrix(1.00, 0.00, -0.00, -1.00, 158.3, 352.0)">a</text><text xml:space="preserve" font-family="Sonus-Light" font-size="20.0" fill="#5D5D5D" transform="matrix(1.00, 0.00, -0.00, -1.00, 168.3, 352.0)">c</text><text xml:space="preserve" font-family="Sonus-Light" font-size="20.0" fill="#5D5D5D" transform="matrix(1.00, 0.00, -0.00, -1.00, 177.4, 352.0)">e</text><text xml:space="preserve" font-family="Sonus-Light" font-size="20.0" fill="#5D5D5D" transform="matrix(1.00, 0.00, -0.00, -1.00, 187.4, 352.0)">.</text><text xml:space="preserve" font-family="Sonus-Light" font-size="20.0" fill="#5D5D5D" transform="matrix(1.00, 0.00, -0.00, -1.00, 191.2, 352.0)"> </text><text xml:space="preserve" font-family="Sonus-Light" font-size="20.0" fill="#5D5D5D" transform="matrix(1.00, 0.00, -0.00, -1.00, 195.6, 352.0)">M</text><text xml:space="preserve" font-family="Sonus-Light" font-size="20.0" fill="#5D5D5D" transform="matrix(1.00, 0.00, -0.00, -1.00, 211.5, 352.0)">i</text><text xml:space="preserve" font-family="Sonus-Light" font-size="20.0" fill="#5D5D5D" transform="matrix(1.00, 0.00, -0.00, -1.00, 216.1, 352.0)">l</text><text xml:space="preserve" font-family="Sonus-Light" font-size="20.0" fill="#5D5D5D" transform="matrix(1.00, 0.00, -0.00, -1.00, 220.7, 352.0)">l</text><text xml:space="preserve" font-family="Sonus-Light" font-size="20.0" fill="#5D5D5D" transform="matrix(1.00, 0.00, -0.00, -1.00, 225.3, 352.0)">e</text><text xml:space="preserve" font-family="Sonus-Light" font-size="20.0" fill="#5D5D5D" transform="matrix(1.00, 0.00, -0.00, -1.00, 235.4, 352.0)">n</text><text xml:space="preserve" font-family="Sonus-Light" font-size="20.0" fill="#5D5D5D" transform="matrix(1.00, 0.00, -0.00, -1.00, 246.4, 352.0)">n</text><text xml:space="preserve" font-family="Sonus-Light" font-size="20.0" fill="#5D5D5D" transform="matrix(1.00, 0.00, -0.00, -1.00, 257.5, 352.0)">i</text><text xml:space="preserve" font-family="Sonus-Light" font-size="20.0" fill="#5D5D5D" transform="matrix(1.00, 0.00, -0.00, -1.00, 262.1, 352.0)">a</text><text xml:space="preserve" font-family="Sonus-Light" font-size="20.0" fill="#5D5D5D" transform="matrix(1.00, 0.00, -0.00, -1.00, 272.1, 352.0)">l</text><text xml:space="preserve" font-family="Sonus-Light" font-size="20.0" fill="#5D5D5D" transform="matrix(1.00, 0.00, -0.00, -1.00, 276.7, 352.0)">s</text><text xml:space="preserve" font-family="Sonus-Light" font-size="20.0" fill="#5D5D5D" transform="matrix(1.00, 0.00, -0.00, -1.00, 284.8, 352.0)"> </text><text xml:space="preserve" font-family="Sonus-Light" font-size="20.0" fill="#5D5D5D" transform="matrix(1.00, 0.00, -0.00, -1.00, 289.1, 352.0)">w</text><text xml:space="preserve" font-family="Sonus-Light" font-size="20.0" fill="#5D5D5D" transform="matrix(1.00, 0.00, -0.00, -1.00, 302.9, 352.0)">a</text><text xml:space="preserve" font-family="Sonus-Light" font-size="20.0" fill="#5D5D5D" transform="matrix(1.00, 0.00, -0.00, -1.00, 312.9, 352.0)">n</text><text xml:space="preserve" font-family="Sonus-Light" font-size="20.0" fill="#5D5D5D" transform="matrix(1.00, 0.00, -0.00, -1.00, 323.9, 352.0)">t</text><text xml:space="preserve" font-family="Sonus-Light" font-size="20.0" fill="#5D5D5D" transform="matrix(1.00, 0.00, -0.00, -1.00, 330.4, 352.0)"> </text><text xml:space="preserve" font-family="Sonus-Light" font-size="20.0" fill="#5D5D5D" transform="matrix(1.00, 0.00, -0.00, -1.00, 334.8, 352.0)">t</text><text xml:space="preserve" font-family="Sonus-Light" font-size="20.0" fill="#5D5D5D" transform="matrix(1.00, 0.00, -0.00, -1.00, 341.3, 352.0)">o</text><text xml:space="preserve" font-family="Sonus-Light" font-size="20.0" fill="#5D5D5D" transform="matrix(1.00, 0.00, -0.00, -1.00, 352.0, 352.0)"> </text><text xml:space="preserve" font-family="Sonus-Light" font-size="20.0" fill="#5D5D5D" transform="matrix(1.00, 0.00, -0.00, -1.00, 356.4, 352.0)">m</text><text xml:space="preserve" font-family="Sonus-Light" font-size="20.0" fill="#5D5D5D" transform="matrix(1.00, 0.00, -0.00, -1.00, 373.7, 352.0)">a</text><text xml:space="preserve" font-family="Sonus-Light" font-size="20.0" fill="#5D5D5D" transform="matrix(1.00, 0.00, -0.00, -1.00, 383.7, 352.0)">k</text><text xml:space="preserve" font-family="Sonus-Light" font-size="20.0" fill="#5D5D5D" transform="matrix(1.00, 0.00, -0.00, -1.00, 393.3, 352.0)">e</text><text xml:space="preserve" font-family="Sonus-Light" font-size="20.0" fill="#5D5D5D" transform="matrix(1.00, 0.00, -0.00, -1.00, 403.4, 352.0)"> </text><text xml:space="preserve" font-family="Sonus-Light" font-size="20.0" fill="#5D5D5D" transform="matrix(1.00, 0.00, -0.00, -1.00, 407.7, 352.0)">a</text><text xml:space="preserve" font-family="Sonus-Light" font-size="20.0" fill="#5D5D5D" transform="matrix(1.00, 0.00, -0.00, -1.00, 417.7, 352.0)">n</text><text xml:space="preserve" font-family="Sonus-Light" font-size="20.0" fill="#5D5D5D" transform="matrix(1.00, 0.00, -0.00, -1.00, 428.8, 352.0)"> </text><text xml:space="preserve" font-family="Sonus-Light" font-size="20.0" fill="#5D5D5D" transform="matrix(1.00, 0.00, -0.00, -1.00, 433.1, 352.0)">i</text><text xml:space="preserve" font-family="Sonus-Light" font-size="20.0" fill="#5D5D5D" transform="matrix(1.00, 0.00, -0.00, -1.00, 437.7, 352.0)">m</text><text xml:space="preserve" font-family="Sonus-Light" font-size="20.0" fill="#5D5D5D" transform="matrix(1.00, 0.00, -0.00, -1.00, 455.1, 352.0)">p</text><text xml:space="preserve" font-family="Sonus-Light" font-size="20.0" fill="#5D5D5D" transform="matrix(1.00, 0.00, -0.00, -1.00, 466.1, 352.0)">a</text><text xml:space="preserve" font-family="Sonus-Light" font-size="20.0" fill="#5D5D5D" transform="matrix(1.00, 0.00, -0.00, -1.00, 476.1, 352.0)">c</text><text xml:space="preserve" font-family="Sonus-Light" font-size="20.0" fill="#5D5D5D" transform="matrix(1.00, 0.00, -0.00, -1.00, 485.4, 352.0)">t</text><text xml:space="preserve" font-family="Sonus-Light" font-size="20.0" fill="#5D5D5D" transform="matrix(1.00, 0.00, -0.00, -1.00, 491.9, 352.0)"> </text><text xml:space="preserve" font-family="Sonus-Light" font-size="20.0" fill="#5D5D5D" transform="matrix(1.00, 0.00, -0.00, -1.00, 496.2, 352.0)">a</text><text xml:space="preserve" font-family="Sonus-Light" font-size="20.0" fill="#5D5D5D" transform="matrix(1.00, 0.00, -0.00, -1.00, 506.2, 352.0)">n</text><text xml:space="preserve" font-family="Sonus-Light" font-size="20.0" fill="#5D5D5D" transform="matrix(1.00, 0.00, -0.00, -1.00, 517.3, 352.0)">d</text><text xml:space="preserve" font-family="Sonus-Light" font-size="20.0" fill="#5D5D5D" transform="matrix(1.00, 0.00, -0.00, -1.00, 528.3, 352.0)"> </text><text xml:space="preserve" font-family="Sonus-Light" font-size="20.0" fill="#5D5D5D" transform="matrix(1.00, 0.00, -0.00, -1.00, 532.6, 352.0)">A</text><text xml:space="preserve" font-family="Sonus-Light" font-size="20.0" fill="#5D5D5D" transform="matrix(1.00, 0.00, -0.00, -1.00, 544.5, 352.0)">p</text><text xml:space="preserve" font-family="Sonus-Light" font-size="20.0" fill="#5D5D5D" transform="matrix(1.00, 0.00, -0.00, -1.00, 555.5, 352.0)">p</text><text xml:space="preserve" font-family="Sonus-Light" font-size="20.0" fill="#5D5D5D" transform="matrix(1.00, 0.00, -0.00, -1.00, 566.6, 352.0)">l</text><text xml:space="preserve" font-family="Sonus-Light" font-size="20.0" fill="#5D5D5D" transform="matrix(1.00, 0.00, -0.00, -1.00, 571.2, 352.0)">e</text><text xml:space="preserve" font-family="Sonus-Light" font-size="20.0" fill="#5D5D5D" transform="matrix(1.00, 0.00, -0.00, -1.00, 581.3, 352.0)"> </text><text xml:space="preserve" font-family="Sonus-Light" font-size="20.0" fill="#5D5D5D" transform="matrix(1.00, 0.00, -0.00, -1.00, 73.0, 323.0)">a</text><text xml:space="preserve" font-family="Sonus-Light" font-size="20.0" fill="#5D5D5D" transform="matrix(1.00, 0.00, -0.00, -1.00, 83.0, 323.0)">d</text><text xml:space="preserve" font-family="Sonus-Light" font-size="20.0" fill="#5D5D5D" transform="matrix(1.00, 0.00, -0.00, -1.00, 94.0, 323.0)">d</text><text xml:space="preserve" font-family="Sonus-Light" font-size="20.0" fill="#5D5D5D" transform="matrix(1.00, 0.00, -0.00, -1.00, 105.1, 323.0)">r</text><text xml:space="preserve" font-family="Sonus-Light" font-size="20.0" fill="#5D5D5D" transform="matrix(1.00, 0.00, -0.00, -1.00, 111.6, 323.0)">e</text><text xml:space="preserve" font-family="Sonus-Light" font-size="20.0" fill="#5D5D5D" transform="matrix(1.00, 0.00, -0.00, -1.00, 121.7, 323.0)">s</text><text xml:space="preserve" font-family="Sonus-Light" font-size="20.0" fill="#5D5D5D" transform="matrix(1.00, 0.00, -0.00, -1.00, 129.7, 323.0)">s</text><text xml:space="preserve" font-family="Sonus-Light" font-size="20.0" fill="#5D5D5D" transform="matrix(1.00, 0.00, -0.00, -1.00, 137.9, 323.0)">e</text><text xml:space="preserve" font-family="Sonus-Light" font-size="20.0" fill="#5D5D5D" transform="matrix(1.00, 0.00, -0.00, -1.00, 148.0, 323.0)">s</text><text xml:space="preserve" font-family="Sonus-Light" font-size="20.0" fill="#5D5D5D" transform="matrix(1.00, 0.00, -0.00, -1.00, 156.1, 323.0)"> </text><text xml:space="preserve" font-family="Sonus-Light" font-size="20.0" fill="#5D5D5D" transform="matrix(1.00, 0.00, -0.00, -1.00, 160.4, 323.0)">t</text><text xml:space="preserve" font-family="Sonus-Light" font-size="20.0" fill="#5D5D5D" transform="matrix(1.00, 0.00, -0.00, -1.00, 166.9, 323.0)">h</text><text xml:space="preserve" font-family="Sonus-Light" font-size="20.0" fill="#5D5D5D" transform="matrix(1.00, 0.00, -0.00, -1.00, 178.1, 323.0)">i</text><text xml:space="preserve" font-family="Sonus-Light" font-size="20.0" fill="#5D5D5D" transform="matrix(1.00, 0.00, -0.00, -1.00, 182.7, 323.0)">s</text><text xml:space="preserve" font-family="Sonus-Light" font-size="20.0" fill="#5D5D5D" transform="matrix(1.00, 0.00, -0.00, -1.00, 190.8, 323.0)"> </text><text xml:space="preserve" font-family="Sonus-Light" font-size="20.0" fill="#5D5D5D" transform="matrix(1.00, 0.00, -0.00, -1.00, 195.1, 323.0)">p</text><text xml:space="preserve" font-family="Sonus-Light" font-size="20.0" fill="#5D5D5D" transform="matrix(1.00, 0.00, -0.00, -1.00, 206.2, 323.0)">r</text><text xml:space="preserve" font-family="Sonus-Light" font-size="20.0" fill="#5D5D5D" transform="matrix(1.00, 0.00, -0.00, -1.00, 212.7, 323.0)">o</text><text xml:space="preserve" font-family="Sonus-Light" font-size="20.0" fill="#5D5D5D" transform="matrix(1.00, 0.00, -0.00, -1.00, 223.5, 323.0)">m</text><text xml:space="preserve" font-family="Sonus-Light" font-size="20.0" fill="#5D5D5D" transform="matrix(1.00, 0.00, -0.00, -1.00, 240.8, 323.0)">i</text><text xml:space="preserve" font-family="Sonus-Light" font-size="20.0" fill="#5D5D5D" transform="matrix(1.00, 0.00, -0.00, -1.00, 245.4, 323.0)">n</text><text xml:space="preserve" font-family="Sonus-Light" font-size="20.0" fill="#5D5D5D" transform="matrix(1.00, 0.00, -0.00, -1.00, 256.5, 323.0)">e</text><text xml:space="preserve" font-family="Sonus-Light" font-size="20.0" fill="#5D5D5D" transform="matrix(1.00, 0.00, -0.00, -1.00, 266.6, 323.0)">n</text><text xml:space="preserve" font-family="Sonus-Light" font-size="20.0" fill="#5D5D5D" transform="matrix(1.00, 0.00, -0.00, -1.00, 277.6, 323.0)">t</text><text xml:space="preserve" font-family="Sonus-Light" font-size="20.0" fill="#5D5D5D" transform="matrix(1.00, 0.00, -0.00, -1.00, 284.1, 323.0)">l</text><text xml:space="preserve" font-family="Sonus-Light" font-size="20.0" fill="#5D5D5D" transform="matrix(1.00, 0.00, -0.00, -1.00, 288.7, 323.0)">y</text><text xml:space="preserve" font-family="Sonus-Light" font-size="20.0" fill="#5D5D5D" transform="matrix(1.00, 0.00, -0.00, -1.00, 297.9, 323.0)"> </text><text xml:space="preserve" font-family="Sonus-Light" font-size="20.0" fill="#5D5D5D" transform="matrix(1.00, 0.00, -0.00, -1.00, 302.2, 323.0)">i</text><text xml:space="preserve" font-family="Sonus-Light" font-size="20.0" fill="#5D5D5D" transform="matrix(1.00, 0.00, -0.00, -1.00, 306.8, 323.0)">n</text><text xml:space="preserve" font-family="Sonus-Light" font-size="20.0" fill="#5D5D5D" transform="matrix(1.00, 0.00, -0.00, -1.00, 317.9, 323.0)"> </text><text xml:space="preserve" font-family="Sonus-Light" font-size="20.0" fill="#5D5D5D" transform="matrix(1.00, 0.00, -0.00, -1.00, 322.2, 323.0)">t</text><text xml:space="preserve" font-family="Sonus-Light" font-size="20.0" fill="#5D5D5D" transform="matrix(1.00, 0.00, -0.00, -1.00, 328.7, 323.0)">h</text><text xml:space="preserve" font-family="Sonus-Light" font-size="20.0" fill="#5D5D5D" transform="matrix(1.00, 0.00, -0.00, -1.00, 339.9, 323.0)">e</text><text xml:space="preserve" font-family="Sonus-Light" font-size="20.0" fill="#5D5D5D" transform="matrix(1.00, 0.00, -0.00, -1.00, 350.0, 323.0)"> </text><text xml:space="preserve" font-family="Sonus-Light" font-size="20.0" fill="#5D5D5D" transform="matrix(1.00, 0.00, -0.00, -1.00, 354.3, 323.0)">h</text><text xml:space="preserve" font-family="Sonus-Light" font-size="20.0" fill="#5D5D5D" transform="matrix(1.00, 0.00, -0.00, -1.00, 365.5, 323.0)">e</text><text xml:space="preserve" font-family="Sonus-Light" font-size="20.0" fill="#5D5D5D" transform="matrix(1.00, 0.00, -0.00, -1.00, 375.4, 323.0)">a</text><text xml:space="preserve" font-family="Sonus-Light" font-size="20.0" fill="#5D5D5D" transform="matrix(1.00, 0.00, -0.00, -1.00, 385.4, 323.0)">d</text><text xml:space="preserve" font-family="Sonus-Light" font-size="20.0" fill="#5D5D5D" transform="matrix(1.00, 0.00, -0.00, -1.00, 396.5, 323.0)">e</text><text xml:space="preserve" font-family="Sonus-Light" font-size="20.0" fill="#5D5D5D" transform="matrix(1.00, 0.00, -0.00, -1.00, 406.5, 323.0)">r</text><text xml:space="preserve" font-family="Sonus-Light" font-size="20.0" fill="#5D5D5D" transform="matrix(1.00, 0.00, -0.00, -1.00, 413.4, 323.0)"> </text><text xml:space="preserve" font-family="Sonus-Light" font-size="20.0" fill="#5D5D5D" transform="matrix(1.00, 0.00, -0.00, -1.00, 417.7, 323.0)">o</text><text xml:space="preserve" font-family="Sonus-Light" font-size="20.0" fill="#5D5D5D" transform="matrix(1.00, 0.00, -0.00, -1.00, 428.5, 323.0)">f</text><text xml:space="preserve" font-family="Sonus-Light" font-size="20.0" fill="#5D5D5D" transform="matrix(1.00, 0.00, -0.00, -1.00, 435.3, 323.0)"> </text><text xml:space="preserve" font-family="Sonus-Light" font-size="20.0" fill="#5D5D5D" transform="matrix(1.00, 0.00, -0.00, -1.00, 439.6, 323.0)">t</text><text xml:space="preserve" font-family="Sonus-Light" font-size="20.0" fill="#5D5D5D" transform="matrix(1.00, 0.00, -0.00, -1.00, 446.1, 323.0)">h</text><text xml:space="preserve" font-family="Sonus-Light" font-size="20.0" fill="#5D5D5D" transform="matrix(1.00, 0.00, -0.00, -1.00, 457.4, 323.0)">e</text><text xml:space="preserve" font-family="Sonus-Light" font-size="20.0" fill="#5D5D5D" transform="matrix(1.00, 0.00, -0.00, -1.00, 467.4, 323.0)">i</text><text xml:space="preserve" font-family="Sonus-Light" font-size="20.0" fill="#5D5D5D" transform="matrix(1.00, 0.00, -0.00, -1.00, 472.0, 323.0)">r</text><text xml:space="preserve" font-family="Sonus-Light" font-size="20.0" fill="#5D5D5D" transform="matrix(1.00, 0.00, -0.00, -1.00, 478.9, 323.0)"> </text><text xml:space="preserve" font-family="Sonus-Light" font-size="20.0" fill="#5D5D5D" transform="matrix(1.00, 0.00, -0.00, -1.00, 483.2, 323.0)">j</text><text xml:space="preserve" font-family="Sonus-Light" font-size="20.0" fill="#5D5D5D" transform="matrix(1.00, 0.00, -0.00, -1.00, 487.9, 323.0)">o</text><text xml:space="preserve" font-family="Sonus-Light" font-size="20.0" fill="#5D5D5D" transform="matrix(1.00, 0.00, -0.00, -1.00, 498.7, 323.0)">b</text><text xml:space="preserve" font-family="Sonus-Light" font-size="20.0" fill="#5D5D5D" transform="matrix(1.00, 0.00, -0.00, -1.00, 509.7, 323.0)">s</text><text xml:space="preserve" font-family="Sonus-Light" font-size="20.0" fill="#5D5D5D" transform="matrix(1.00, 0.00, -0.00, -1.00, 517.8, 323.0)"> </text><text xml:space="preserve" font-family="Sonus-Light" font-size="20.0" fill="#5D5D5D" transform="matrix(1.00, 0.00, -0.00, -1.00, 522.1, 323.0)">p</text><text xml:space="preserve" font-family="Sonus-Light" font-size="20.0" fill="#5D5D5D" transform="matrix(1.00, 0.00, -0.00, -1.00, 533.2, 323.0)">a</text><text xml:space="preserve" font-family="Sonus-Light" font-size="20.0" fill="#5D5D5D" transform="matrix(1.00, 0.00, -0.00, -1.00, 543.3, 323.0)">g</text><text xml:space="preserve" font-family="Sonus-Light" font-size="20.0" fill="#5D5D5D" transform="matrix(1.00, 0.00, -0.00, -1.00, 553.2, 323.0)">e</text><text xml:space="preserve" font-family="Sonus-Light" font-size="20.0" fill="#5D5D5D" transform="matrix(1.00, 0.00, -0.00, -1.00, 563.3, 323.0)">.</text><g><clipPath id="clip-19393"><path d="M 530.9 51.8 L 1209.4 51.8 L 1209.4 89.3 L 530.9 89.3 Z M 530.9 51.8 "></path></clipPath><g clip-path="url(#clip-19393)"><text xml:space="preserve" font-family="Sonus-Light" font-size="14.0" fill="#A6AAA8" transform="matrix(1.00, 0.00, -0.00, -1.00, 1021.6, 54.5)">h</text><text xml:space="preserve" font-family="Sonus-Light" font-size="14.0" fill="#A6AAA8" transform="matrix(1.00, 0.00, -0.00, -1.00, 1029.4, 54.5)">t</text><text xml:space="preserve" font-family="Sonus-Light" font-size="14.0" fill="#A6AAA8" transform="matrix(1.00, 0.00, -0.00, -1.00, 1034.0, 54.5)">t</text><text xml:space="preserve" font-family="Sonus-Light" font-size="14.0" fill="#A6AAA8" transform="matrix(1.00, 0.00, -0.00, -1.00, 1038.5, 54.5)">p</text><text xml:space="preserve" font-family="Sonus-Light" font-size="14.0" fill="#A6AAA8" transform="matrix(1.00, 0.00, -0.00, -1.00, 1046.3, 54.5)">:</text><text xml:space="preserve" font-family="Sonus-Light" font-size="14.0" fill="#A6AAA8" transform="matrix(1.00, 0.00, -0.00, -1.00, 1049.2, 54.5)">/</text><text xml:space="preserve" font-family="Sonus-Light" font-size="14.0" fill="#A6AAA8" transform="matrix(1.00, 0.00, -0.00, -1.00, 1054.5, 54.5)">/</text><text xml:space="preserve" font-family="Sonus-Light" font-size="14.0" fill="#A6AAA8" transform="matrix(1.00, 0.00, -0.00, -1.00, 1059.8, 54.5)">w</text><text xml:space="preserve" font-family="Sonus-Light" font-size="14.0" fill="#A6AAA8" transform="matrix(1.00, 0.00, -0.00, -1.00, 1069.4, 54.5)">w</text><text xml:space="preserve" font-family="Sonus-Light" font-size="14.0" fill="#A6AAA8" transform="matrix(1.00, 0.00, -0.00, -1.00, 1079.0, 54.5)">w</text><text xml:space="preserve" font-family="Sonus-Light" font-size="14.0" fill="#A6AAA8" transform="matrix(1.00, 0.00, -0.00, -1.00, 1088.1, 54.5)">.</text><text xml:space="preserve" font-family="Sonus-Light" font-size="14.0" fill="#A6AAA8" transform="matrix(1.00, 0.00, -0.00, -1.00, 1090.7, 54.5)">a</text><text xml:space="preserve" font-family="Sonus-Light" font-size="14.0" fill="#A6AAA8" transform="matrix(1.00, 0.00, -0.00, -1.00, 1097.7, 54.5)">p</text><text xml:space="preserve" font-family="Sonus-Light" font-size="14.0" fill="#A6AAA8" transform="matrix(1.00, 0.00, -0.00, -1.00, 1105.5, 54.5)">p</text><text xml:space="preserve" font-family="Sonus-Light" font-size="14.0" fill="#A6AAA8" transform="matrix(1.00, 0.00, -0.00, -1.00, 1113.2, 54.5)">l</text><text xml:space="preserve" font-family="Sonus-Light" font-size="14.0" fill="#A6AAA8" transform="matrix(1.00, 0.00, -0.00, -1.00, 1116.4, 54.5)">e</text><text xml:space="preserve" font-family="Sonus-Light" font-size="14.0" fill="#A6AAA8" transform="matrix(1.00, 0.00, -0.00, -1.00, 1123.5, 54.5)">.</text><text xml:space="preserve" font-family="Sonus-Light" font-size="14.0" fill="#A6AAA8" transform="matrix(1.00, 0.00, -0.00, -1.00, 1126.1, 54.5)">c</text><text xml:space="preserve" font-family="Sonus-Light" font-size="14.0" fill="#A6AAA8" transform="matrix(1.00, 0.00, -0.00, -1.00, 1132.5, 54.5)">o</text><text xml:space="preserve" font-family="Sonus-Light" font-size="14.0" fill="#A6AAA8" transform="matrix(1.00, 0.00, -0.00, -1.00, 1140.0, 54.5)">m</text><text xml:space="preserve" font-family="Sonus-Light" font-size="14.0" fill="#A6AAA8" transform="matrix(1.00, 0.00, -0.00, -1.00, 1152.5, 54.5)">/</text><text xml:space="preserve" font-family="Sonus-Light" font-size="14.0" fill="#A6AAA8" transform="matrix(1.00, 0.00, -0.00, -1.00, 1157.7, 54.5)">j</text><text xml:space="preserve" font-family="Sonus-Light" font-size="14.0" fill="#A6AAA8" transform="matrix(1.00, 0.00, -0.00, -1.00, 1161.0, 54.5)">o</text><text xml:space="preserve" font-family="Sonus-Light" font-size="14.0" fill="#A6AAA8" transform="matrix(1.00, 0.00, -0.00, -1.00, 1168.6, 54.5)">b</text><text xml:space="preserve" font-family="Sonus-Light" font-size="14.0" fill="#A6AAA8" transform="matrix(1.00, 0.00, -0.00, -1.00, 1176.3, 54.5)">s</text><text xml:space="preserve" font-family="Sonus-Light" font-size="14.0" fill="#A6AAA8" transform="matrix(1.00, 0.00, -0.00, -1.00, 1182.0, 54.5)">/</text><text xml:space="preserve" font-family="Sonus-Light" font-size="14.0" fill="#A6AAA8" transform="matrix(1.00, 0.00, -0.00, -1.00, 1187.2, 54.5)">u</text><text xml:space="preserve" font-family="Sonus-Light" font-size="14.0" fill="#A6AAA8" transform="matrix(1.00, 0.00, -0.00, -1.00, 1195.1, 54.5)">s</text><text xml:space="preserve" font-family="Sonus-Light" font-size="14.0" fill="#A6AAA8" transform="matrix(1.00, 0.00, -0.00, -1.00, 1200.7, 54.5)">/</text></g></g><g><clipPath id="clip-19394"><path d="M 69.0 486.0 L 125.0 486.0 L 125.0 417.9 L 69.0 417.9 Z M 69.0 486.0 "></path></clipPath><g clip-path="url(#clip-19394)"><g><clipPath id="clip-19395"><path d="M 69.0 418.0 L 125.0 418.0 L 125.0 486.0 L 69.0 486.0 Z M 69.0 418.0 "></path></clipPath><g clip-path="url(#clip-19395)"><path d="M 107.1 475.1 C 109.5 478.0 111.1 482.0 110.7 486.0 C 107.2 485.9 103.0 483.7 100.6 480.8 C 98.3 478.3 96.4 474.2 96.9 470.3 C 100.8 470.0 104.7 472.3 107.1 475.1 M 115.8 449.9 C 115.9 439.6 124.9 436.2 125.0 436.1 C 124.9 435.9 123.6 431.2 120.2 426.4 C 117.4 422.3 114.4 418.2 109.7 418.1 C 105.1 418.0 103.6 420.8 98.4 420.8 C 93.1 420.8 91.5 418.2 87.1 418.0 C 82.6 417.8 79.1 422.5 76.2 426.6 C 70.3 435.1 65.8 450.5 71.9 460.9 C 74.9 466.0 80.3 469.3 86.1 469.4 C 90.5 469.5 94.7 466.4 97.5 466.4 C 100.2 466.4 105.3 470.1 110.6 469.6 C 112.9 469.5 119.2 468.7 123.2 462.8 C 122.9 462.6 115.7 458.5 115.8 449.9 " fill="#000000"></path></g></g></g></g></g></svg>