<?xml version="1.0" encoding="UTF-8" standalone="no"?><svg xmlns="http://www.w3.org/2000/svg" xmlns:xlink="http://www.w3.org/1999/xlink" clip-rule="evenodd" stroke-miterlimit="4.00" viewBox="0 0 527 163"><desc>SVG generated by Keynote</desc><defs></defs><g transform="matrix(1.00, 0.00, -0.00, -1.00, 0.0, 163.0)"><text xml:space="preserve" font-family="AkkuratStd-Bold" font-weight="bold" font-size="111.0" fill="#A6AAA8" transform="matrix(1.00, 0.00, -0.00, -1.00, 17.0, 81.0)">J</text><text xml:space="preserve" font-family="AkkuratStd-Bold" font-weight="bold" font-size="111.0" fill="#A6AAA8" transform="matrix(1.00, 0.00, -0.00, -1.00, 68.2, 81.0)">o</text><text xml:space="preserve" font-family="AkkuratStd-Bold" font-weight="bold" font-size="111.0" fill="#A6AAA8" transform="matrix(1.00, 0.00, -0.00, -1.00, 128.1, 81.0)">b</text><text xml:space="preserve" font-family="AkkuratStd-Bold" font-weight="bold" font-size="111.0" fill="#A6AAA8" transform="matrix(1.00, 0.00, -0.00, -1.00, 191.5, 81.0)"> </text><text xml:space="preserve" font-family="AkkuratStd-Bold" font-weight="bold" font-size="111.0" fill="#A6AAA8" transform="matrix(1.00, 0.00, -0.00, -1.00, 211.4, 81.0)">A</text><text xml:space="preserve" font-family="AkkuratStd-Bold" font-weight="bold" font-size="111.0" fill="#A6AAA8" transform="matrix(1.00, 0.00, -0.00, -1.00, 278.4, 81.0)">l</text><text xml:space="preserve" font-family="AkkuratStd-Bold" font-weight="bold" font-size="111.0" fill="#A6AAA8" transform="matrix(1.00, 0.00, -0.00, -1.00, 308.0, 81.0)">e</text><text xml:space="preserve" font-family="AkkuratStd-Bold" font-weight="bold" font-size="111.0" fill="#A6AAA8" transform="matrix(1.00, 0.00, -0.00, -1.00, 366.5, 81.0)">r</text><text xml:space="preserve" font-family="AkkuratStd-Bold" font-weight="bold" font-size="111.0" fill="#A6AAA8" transform="matrix(1.00, 0.00, -0.00, -1.00, 408.2, 81.0)">t</text><text xml:space="preserve" font-family="AkkuratStd-Bold" font-weight="bold" font-size="111.0" fill="#A6AAA8" transform="matrix(1.00, 0.00, -0.00, -1.00, 449.2, 81.0)">s</text><text xml:space="preserve" font-family="AkkuratStd-Bold" font-weight="bold" font-size="111.0" fill="#A6AAA8" transform="matrix(1.00, 0.00, -0.00, -1.00, 503.7, 81.0)"> </text><text xml:space="preserve" font-family="AkkuratStd" font-size="22.0" fill="#A6AAA8" transform="matrix(1.00, 0.00, -0.00, -1.00, 0.0, 33.0)">W</text><text xml:space="preserve" font-family="AkkuratStd" font-size="22.0" fill="#A6AAA8" transform="matrix(1.00, 0.00, -0.00, -1.00, 18.5, 33.0)">i</text><text xml:space="preserve" font-family="AkkuratStd" font-size="22.0" fill="#A6AAA8" transform="matrix(1.00, 0.00, -0.00, -1.00, 24.1, 33.0)">t</text><text xml:space="preserve" font-family="AkkuratStd" font-size="22.0" fill="#A6AAA8" transform="matrix(1.00, 0.00, -0.00, -1.00, 32.1, 33.0)">h</text><text xml:space="preserve" font-family="AkkuratStd" font-size="22.0" fill="#A6AAA8" transform="matrix(1.00, 0.00, -0.00, -1.00, 44.6, 33.0)"> </text><text xml:space="preserve" font-family="AkkuratStd" font-size="22.0" fill="#A6AAA8" transform="matrix(1.00, 0.00, -0.00, -1.00, 49.2, 33.0)">a</text><text xml:space="preserve" font-family="AkkuratStd" font-size="22.0" fill="#A6AAA8" transform="matrix(1.00, 0.00, -0.00, -1.00, 61.1, 33.0)">n</text><text xml:space="preserve" font-family="AkkuratStd" font-size="22.0" fill="#A6AAA8" transform="matrix(1.00, 0.00, -0.00, -1.00, 73.5, 33.0)"> </text><text xml:space="preserve" font-family="AkkuratStd" font-size="22.0" fill="#A6AAA8" transform="matrix(1.00, 0.00, -0.00, -1.00, 78.1, 33.0)">a</text><text xml:space="preserve" font-family="AkkuratStd" font-size="22.0" fill="#A6AAA8" transform="matrix(1.00, 0.00, -0.00, -1.00, 90.0, 33.0)">c</text><text xml:space="preserve" font-family="AkkuratStd" font-size="22.0" fill="#A6AAA8" transform="matrix(1.00, 0.00, -0.00, -1.00, 101.2, 33.0)">c</text><text xml:space="preserve" font-family="AkkuratStd" font-size="22.0" fill="#A6AAA8" transform="matrix(1.00, 0.00, -0.00, -1.00, 112.5, 33.0)">o</text><text xml:space="preserve" font-family="AkkuratStd" font-size="22.0" fill="#A6AAA8" transform="matrix(1.00, 0.00, -0.00, -1.00, 124.3, 33.0)">u</text><text xml:space="preserve" font-family="AkkuratStd" font-size="22.0" fill="#A6AAA8" transform="matrix(1.00, 0.00, -0.00, -1.00, 136.7, 33.0)">n</text><text xml:space="preserve" font-family="AkkuratStd" font-size="22.0" fill="#A6AAA8" transform="matrix(1.00, 0.00, -0.00, -1.00, 149.1, 33.0)">t</text><text xml:space="preserve" font-family="AkkuratStd" font-size="22.0" fill="#A6AAA8" transform="matrix(1.00, 0.00, -0.00, -1.00, 157.6, 33.0)">,</text><text xml:space="preserve" font-family="AkkuratStd" font-size="22.0" fill="#A6AAA8" transform="matrix(1.00, 0.00, -0.00, -1.00, 162.5, 33.0)"> </text><text xml:space="preserve" font-family="AkkuratStd" font-size="22.0" fill="#A6AAA8" transform="matrix(1.00, 0.00, -0.00, -1.00, 167.2, 33.0)">j</text><text xml:space="preserve" font-family="AkkuratStd" font-size="22.0" fill="#A6AAA8" transform="matrix(1.00, 0.00, -0.00, -1.00, 172.9, 33.0)">o</text><text xml:space="preserve" font-family="AkkuratStd" font-size="22.0" fill="#A6AAA8" transform="matrix(1.00, 0.00, -0.00, -1.00, 184.8, 33.0)">b</text><text xml:space="preserve" font-family="AkkuratStd" font-size="22.0" fill="#A6AAA8" transform="matrix(1.00, 0.00, -0.00, -1.00, 197.4, 33.0)"> </text><text xml:space="preserve" font-family="AkkuratStd" font-size="22.0" fill="#A6AAA8" transform="matrix(1.00, 0.00, -0.00, -1.00, 202.0, 33.0)">a</text><text xml:space="preserve" font-family="AkkuratStd" font-size="22.0" fill="#A6AAA8" transform="matrix(1.00, 0.00, -0.00, -1.00, 213.9, 33.0)">l</text><text xml:space="preserve" font-family="AkkuratStd" font-size="22.0" fill="#A6AAA8" transform="matrix(1.00, 0.00, -0.00, -1.00, 219.8, 33.0)">e</text><text xml:space="preserve" font-family="AkkuratStd" font-size="22.0" fill="#A6AAA8" transform="matrix(1.00, 0.00, -0.00, -1.00, 231.4, 33.0)">r</text><text xml:space="preserve" font-family="AkkuratStd" font-size="22.0" fill="#A6AAA8" transform="matrix(1.00, 0.00, -0.00, -1.00, 239.7, 33.0)">t</text><text xml:space="preserve" font-family="AkkuratStd" font-size="22.0" fill="#A6AAA8" transform="matrix(1.00, 0.00, -0.00, -1.00, 247.7, 33.0)">s</text><text xml:space="preserve" font-family="AkkuratStd" font-size="22.0" fill="#A6AAA8" transform="matrix(1.00, 0.00, -0.00, -1.00, 258.7, 33.0)"> </text><text xml:space="preserve" font-family="AkkuratStd" font-size="22.0" fill="#A6AAA8" transform="matrix(1.00, 0.00, -0.00, -1.00, 263.3, 33.0)">a</text><text xml:space="preserve" font-family="AkkuratStd" font-size="22.0" fill="#A6AAA8" transform="matrix(1.00, 0.00, -0.00, -1.00, 275.2, 33.0)">r</text><text xml:space="preserve" font-family="AkkuratStd" font-size="22.0" fill="#A6AAA8" transform="matrix(1.00, 0.00, -0.00, -1.00, 283.0, 33.0)">e</text><text xml:space="preserve" font-family="AkkuratStd" font-size="22.0" fill="#A6AAA8" transform="matrix(1.00, 0.00, -0.00, -1.00, 294.7, 33.0)"> </text><text xml:space="preserve" font-family="AkkuratStd" font-size="22.0" fill="#A6AAA8" transform="matrix(1.00, 0.00, -0.00, -1.00, 299.3, 33.0)">e</text><text xml:space="preserve" font-family="AkkuratStd" font-size="22.0" fill="#A6AAA8" transform="matrix(1.00, 0.00, -0.00, -1.00, 311.0, 33.0)">a</text><text xml:space="preserve" font-family="AkkuratStd" font-size="22.0" fill="#A6AAA8" transform="matrix(1.00, 0.00, -0.00, -1.00, 322.8, 33.0)">s</text><text xml:space="preserve" font-family="AkkuratStd" font-size="22.0" fill="#A6AAA8" transform="matrix(1.00, 0.00, -0.00, -1.00, 333.6, 33.0)">y</text><text xml:space="preserve" font-family="AkkuratStd" font-size="22.0" fill="#A6AAA8" transform="matrix(1.00, 0.00, -0.00, -1.00, 344.1, 33.0)"> </text><text xml:space="preserve" font-family="AkkuratStd" font-size="22.0" fill="#A6AAA8" transform="matrix(1.00, 0.00, -0.00, -1.00, 348.8, 33.0)">t</text><text xml:space="preserve" font-family="AkkuratStd" font-size="22.0" fill="#A6AAA8" transform="matrix(1.00, 0.00, -0.00, -1.00, 356.6, 33.0)">o</text><text xml:space="preserve" font-family="AkkuratStd" font-size="22.0" fill="#A6AAA8" transform="matrix(1.00, 0.00, -0.00, -1.00, 368.4, 33.0)"> </text><text xml:space="preserve" font-family="AkkuratStd" font-size="22.0" fill="#A6AAA8" transform="matrix(1.00, 0.00, -0.00, -1.00, 373.0, 33.0)">c</text><text xml:space="preserve" font-family="AkkuratStd" font-size="22.0" fill="#A6AAA8" transform="matrix(1.00, 0.00, -0.00, -1.00, 384.3, 33.0)">r</text><text xml:space="preserve" font-family="AkkuratStd" font-size="22.0" fill="#A6AAA8" transform="matrix(1.00, 0.00, -0.00, -1.00, 392.1, 33.0)">e</text><text xml:space="preserve" font-family="AkkuratStd" font-size="22.0" fill="#A6AAA8" transform="matrix(1.00, 0.00, -0.00, -1.00, 403.8, 33.0)">a</text><text xml:space="preserve" font-family="AkkuratStd" font-size="22.0" fill="#A6AAA8" transform="matrix(1.00, 0.00, -0.00, -1.00, 415.5, 33.0)">t</text><text xml:space="preserve" font-family="AkkuratStd" font-size="22.0" fill="#A6AAA8" transform="matrix(1.00, 0.00, -0.00, -1.00, 423.3, 33.0)">e</text><text xml:space="preserve" font-family="AkkuratStd" font-size="22.0" fill="#A6AAA8" transform="matrix(1.00, 0.00, -0.00, -1.00, 435.0, 33.0)"> </text><text xml:space="preserve" font-family="AkkuratStd" font-size="22.0" fill="#A6AAA8" transform="matrix(1.00, 0.00, -0.00, -1.00, 439.6, 33.0)">a</text><text xml:space="preserve" font-family="AkkuratStd" font-size="22.0" fill="#A6AAA8" transform="matrix(1.00, 0.00, -0.00, -1.00, 451.5, 33.0)">n</text><text xml:space="preserve" font-family="AkkuratStd" font-size="22.0" fill="#A6AAA8" transform="matrix(1.00, 0.00, -0.00, -1.00, 463.9, 33.0)">d</text><text xml:space="preserve" font-family="AkkuratStd" font-size="22.0" fill="#A6AAA8" transform="matrix(1.00, 0.00, -0.00, -1.00, 476.6, 33.0)"> </text><text xml:space="preserve" font-family="AkkuratStd" font-size="22.0" fill="#A6AAA8" transform="matrix(1.00, 0.00, -0.00, -1.00, 481.2, 33.0)">e</text><text xml:space="preserve" font-family="AkkuratStd" font-size="22.0" fill="#A6AAA8" transform="matrix(1.00, 0.00, -0.00, -1.00, 492.9, 33.0)">d</text><text xml:space="preserve" font-family="AkkuratStd" font-size="22.0" fill="#A6AAA8" transform="matrix(1.00, 0.00, -0.00, -1.00, 505.5, 33.0)">i</text><text xml:space="preserve" font-family="AkkuratStd" font-size="22.0" fill="#A6AAA8" transform="matrix(1.00, 0.00, -0.00, -1.00, 511.1, 33.0)">t</text><text xml:space="preserve" font-family="AkkuratStd" font-size="22.0" fill="#A6AAA8" transform="matrix(1.00, 0.00, -0.00, -1.00, 519.1, 33.0)"> </text><text xml:space="preserve" font-family="AkkuratStd" font-size="22.0" fill="#A6AAA8" transform="matrix(1.00, 0.00, -0.00, -1.00, 523.7, 33.0)"> </text><text xml:space="preserve" font-family="AkkuratStd" font-size="22.0" fill="#A6AAA8" transform="matrix(1.00, 0.00, -0.00, -1.00, 14.0, 7.0)">w</text><text xml:space="preserve" font-family="AkkuratStd" font-size="22.0" fill="#A6AAA8" transform="matrix(1.00, 0.00, -0.00, -1.00, 30.4, 7.0)">h</text><text xml:space="preserve" font-family="AkkuratStd" font-size="22.0" fill="#A6AAA8" transform="matrix(1.00, 0.00, -0.00, -1.00, 42.9, 7.0)">i</text><text xml:space="preserve" font-family="AkkuratStd" font-size="22.0" fill="#A6AAA8" transform="matrix(1.00, 0.00, -0.00, -1.00, 48.5, 7.0)">l</text><text xml:space="preserve" font-family="AkkuratStd" font-size="22.0" fill="#A6AAA8" transform="matrix(1.00, 0.00, -0.00, -1.00, 54.3, 7.0)">e</text><text xml:space="preserve" font-family="AkkuratStd" font-size="22.0" fill="#A6AAA8" transform="matrix(1.00, 0.00, -0.00, -1.00, 66.0, 7.0)"> </text><text xml:space="preserve" font-family="AkkuratStd" font-size="22.0" fill="#A6AAA8" transform="matrix(1.00, 0.00, -0.00, -1.00, 70.6, 7.0)">p</text><text xml:space="preserve" font-family="AkkuratStd" font-size="22.0" fill="#A6AAA8" transform="matrix(1.00, 0.00, -0.00, -1.00, 83.3, 7.0)">r</text><text xml:space="preserve" font-family="AkkuratStd" font-size="22.0" fill="#A6AAA8" transform="matrix(1.00, 0.00, -0.00, -1.00, 90.9, 7.0)">o</text><text xml:space="preserve" font-family="AkkuratStd" font-size="22.0" fill="#A6AAA8" transform="matrix(1.00, 0.00, -0.00, -1.00, 102.7, 7.0)">m</text><text xml:space="preserve" font-family="AkkuratStd" font-size="22.0" fill="#A6AAA8" transform="matrix(1.00, 0.00, -0.00, -1.00, 121.6, 7.0)">p</text><text xml:space="preserve" font-family="AkkuratStd" font-size="22.0" fill="#A6AAA8" transform="matrix(1.00, 0.00, -0.00, -1.00, 134.1, 7.0)">t</text><text xml:space="preserve" font-family="AkkuratStd" font-size="22.0" fill="#A6AAA8" transform="matrix(1.00, 0.00, -0.00, -1.00, 142.2, 7.0)">i</text><text xml:space="preserve" font-family="AkkuratStd" font-size="22.0" fill="#A6AAA8" transform="matrix(1.00, 0.00, -0.00, -1.00, 147.7, 7.0)">n</text><text xml:space="preserve" font-family="AkkuratStd" font-size="22.0" fill="#A6AAA8" transform="matrix(1.00, 0.00, -0.00, -1.00, 160.2, 7.0)">g</text><text xml:space="preserve" font-family="AkkuratStd" font-size="22.0" fill="#A6AAA8" transform="matrix(1.00, 0.00, -0.00, -1.00, 171.6, 7.0)"> </text><text xml:space="preserve" font-family="AkkuratStd" font-size="22.0" fill="#A6AAA8" transform="matrix(1.00, 0.00, -0.00, -1.00, 176.2, 7.0)">t</text><text xml:space="preserve" font-family="AkkuratStd" font-size="22.0" fill="#A6AAA8" transform="matrix(1.00, 0.00, -0.00, -1.00, 184.3, 7.0)">h</text><text xml:space="preserve" font-family="AkkuratStd" font-size="22.0" fill="#A6AAA8" transform="matrix(1.00, 0.00, -0.00, -1.00, 196.7, 7.0)">e</text><text xml:space="preserve" font-family="AkkuratStd" font-size="22.0" fill="#A6AAA8" transform="matrix(1.00, 0.00, -0.00, -1.00, 208.4, 7.0)"> </text><text xml:space="preserve" font-family="AkkuratStd" font-size="22.0" fill="#A6AAA8" transform="matrix(1.00, 0.00, -0.00, -1.00, 213.0, 7.0)">c</text><text xml:space="preserve" font-family="AkkuratStd" font-size="22.0" fill="#A6AAA8" transform="matrix(1.00, 0.00, -0.00, -1.00, 224.3, 7.0)">a</text><text xml:space="preserve" font-family="AkkuratStd" font-size="22.0" fill="#A6AAA8" transform="matrix(1.00, 0.00, -0.00, -1.00, 236.2, 7.0)">n</text><text xml:space="preserve" font-family="AkkuratStd" font-size="22.0" fill="#A6AAA8" transform="matrix(1.00, 0.00, -0.00, -1.00, 248.6, 7.0)">d</text><text xml:space="preserve" font-family="AkkuratStd" font-size="22.0" fill="#A6AAA8" transform="matrix(1.00, 0.00, -0.00, -1.00, 261.2, 7.0)">i</text><text xml:space="preserve" font-family="AkkuratStd" font-size="22.0" fill="#A6AAA8" transform="matrix(1.00, 0.00, -0.00, -1.00, 266.8, 7.0)">d</text><text xml:space="preserve" font-family="AkkuratStd" font-size="22.0" fill="#A6AAA8" transform="matrix(1.00, 0.00, -0.00, -1.00, 279.5, 7.0)">a</text><text xml:space="preserve" font-family="AkkuratStd" font-size="22.0" fill="#A6AAA8" transform="matrix(1.00, 0.00, -0.00, -1.00, 291.2, 7.0)">t</text><text xml:space="preserve" font-family="AkkuratStd" font-size="22.0" fill="#A6AAA8" transform="matrix(1.00, 0.00, -0.00, -1.00, 299.0, 7.0)">e</text><text xml:space="preserve" font-family="AkkuratStd" font-size="22.0" fill="#A6AAA8" transform="matrix(1.00, 0.00, -0.00, -1.00, 310.7, 7.0)"> </text><text xml:space="preserve" font-family="AkkuratStd" font-size="22.0" fill="#A6AAA8" transform="matrix(1.00, 0.00, -0.00, -1.00, 315.3, 7.0)">t</text><text xml:space="preserve" font-family="AkkuratStd" font-size="22.0" fill="#A6AAA8" transform="matrix(1.00, 0.00, -0.00, -1.00, 323.1, 7.0)">o</text><text xml:space="preserve" font-family="AkkuratStd" font-size="22.0" fill="#A6AAA8" transform="matrix(1.00, 0.00, -0.00, -1.00, 335.0, 7.0)"> </text><text xml:space="preserve" font-family="AkkuratStd" font-size="22.0" fill="#A6AAA8" transform="matrix(1.00, 0.00, -0.00, -1.00, 339.6, 7.0)">r</text><text xml:space="preserve" font-family="AkkuratStd" font-size="22.0" fill="#A6AAA8" transform="matrix(1.00, 0.00, -0.00, -1.00, 347.4, 7.0)">e</text><text xml:space="preserve" font-family="AkkuratStd" font-size="22.0" fill="#A6AAA8" transform="matrix(1.00, 0.00, -0.00, -1.00, 358.9, 7.0)">t</text><text xml:space="preserve" font-family="AkkuratStd" font-size="22.0" fill="#A6AAA8" transform="matrix(1.00, 0.00, -0.00, -1.00, 367.0, 7.0)">u</text><text xml:space="preserve" font-family="AkkuratStd" font-size="22.0" fill="#A6AAA8" transform="matrix(1.00, 0.00, -0.00, -1.00, 379.3, 7.0)">r</text><text xml:space="preserve" font-family="AkkuratStd" font-size="22.0" fill="#A6AAA8" transform="matrix(1.00, 0.00, -0.00, -1.00, 387.5, 7.0)">n</text><text xml:space="preserve" font-family="AkkuratStd" font-size="22.0" fill="#A6AAA8" transform="matrix(1.00, 0.00, -0.00, -1.00, 399.9, 7.0)"> </text><text xml:space="preserve" font-family="AkkuratStd" font-size="22.0" fill="#A6AAA8" transform="matrix(1.00, 0.00, -0.00, -1.00, 404.5, 7.0)">t</text><text xml:space="preserve" font-family="AkkuratStd" font-size="22.0" fill="#A6AAA8" transform="matrix(1.00, 0.00, -0.00, -1.00, 412.3, 7.0)">o</text><text xml:space="preserve" font-family="AkkuratStd" font-size="22.0" fill="#A6AAA8" transform="matrix(1.00, 0.00, -0.00, -1.00, 424.1, 7.0)"> </text><text xml:space="preserve" font-family="AkkuratStd" font-size="22.0" fill="#A6AAA8" transform="matrix(1.00, 0.00, -0.00, -1.00, 428.8, 7.0)">t</text><text xml:space="preserve" font-family="AkkuratStd" font-size="22.0" fill="#A6AAA8" transform="matrix(1.00, 0.00, -0.00, -1.00, 436.8, 7.0)">h</text><text xml:space="preserve" font-family="AkkuratStd" font-size="22.0" fill="#A6AAA8" transform="matrix(1.00, 0.00, -0.00, -1.00, 449.3, 7.0)">e</text><text xml:space="preserve" font-family="AkkuratStd" font-size="22.0" fill="#A6AAA8" transform="matrix(1.00, 0.00, -0.00, -1.00, 461.0, 7.0)"> </text><text xml:space="preserve" font-family="AkkuratStd" font-size="22.0" fill="#A6AAA8" transform="matrix(1.00, 0.00, -0.00, -1.00, 465.6, 7.0)">s</text><text xml:space="preserve" font-family="AkkuratStd" font-size="22.0" fill="#A6AAA8" transform="matrix(1.00, 0.00, -0.00, -1.00, 476.6, 7.0)">i</text><text xml:space="preserve" font-family="AkkuratStd" font-size="22.0" fill="#A6AAA8" transform="matrix(1.00, 0.00, -0.00, -1.00, 482.2, 7.0)">t</text><text xml:space="preserve" font-family="AkkuratStd" font-size="22.0" fill="#A6AAA8" transform="matrix(1.00, 0.00, -0.00, -1.00, 490.0, 7.0)">e</text><text xml:space="preserve" font-family="AkkuratStd" font-size="22.0" fill="#A6AAA8" transform="matrix(1.00, 0.00, -0.00, -1.00, 501.2, 7.0)">.</text><text xml:space="preserve" font-family="AkkuratStd" font-size="22.0" fill="#A6AAA8" transform="matrix(1.00, 0.00, -0.00, -1.00, 506.1, 7.0)"> </text></g></svg>