<?xml version="1.0" encoding="UTF-8" standalone="no"?><svg xmlns="http://www.w3.org/2000/svg" xmlns:xlink="http://www.w3.org/1999/xlink" clip-rule="evenodd" stroke-miterlimit="4.00" viewBox="0 0 1280 720"><desc>SVG generated by Keynote</desc><defs></defs><g transform="matrix(1.00, 0.00, -0.00, -1.00, 0.0, 720.0)"><path d="M 0.0 720.0 L 1280.0 720.0 L 1280.0 0.0 L 0.0 0.0 Z M 0.0 720.0 " fill="#FEFFFF"></path><g><clipPath id="clip-6509"><path d="M -337.0 803.0 L 1617.0 803.0 L 1617.0 -83.0 L -337.0 -83.0 Z M -336.7 802.9 "></path></clipPath><g clip-path="url(#clip-6509)"><g><clipPath id="clip-6510"><path d="M -337.0 -83.0 L 1617.0 -83.0 L 1617.0 803.0 L -337.0 803.0 Z M -337.0 -83.0 "></path></clipPath><g clip-path="url(#clip-6510)"><g><g><clipPath id="clip-6511"><path d="M 0.0 0.0 L 1280.0 0.0 L 1280.0 720.0 L 0.0 720.0 Z M 0.0 0.0 "></path></clipPath><g clip-path="url(#clip-6511)"><g><g><clipPath id="clip-6512"><path d="M -231.2 670.0 L 1507.1 670.0 L 1507.1 -144.1 L -231.2 -144.1 L -231.2 670.0 Z M -231.2 670.0 "></path></clipPath><g clip-path="url(#clip-6512)"><g><clipPath id="clip-6513"><path d="M 0.0 0.0 L 1280.0 0.0 L 1280.0 720.0 L 0.0 720.0 Z M 0.0 0.0 "></path></clipPath><g clip-path="url(#clip-6513)"><g><g><clipPath id="clip-6514"><path d="M 0.0 0.0 L 1280.0 0.0 L 1280.0 670.0 L 0.0 670.0 Z M 0.0 0.0 "></path></clipPath><g clip-path="url(#clip-6514)"><path d="M -237.9 676.8 L 1513.9 676.8 L 1513.9 -150.8 L -237.9 -150.8 Z M -237.9 676.8 " fill="#F79100" fill-opacity="0.50"></path></g></g><g><clipPath id="clip-6515"><path d="M 0.0 0.0 L 1280.0 0.0 L 1280.0 670.0 L 0.0 670.0 Z M 0.0 0.0 "></path></clipPath><g clip-path="url(#clip-6515)"><g opacity="0.11"><g><clipPath id="clip-6516"><path d="M 0.0 0.0 L 1280.0 0.0 L 1280.0 670.0 L 0.0 670.0 Z M 0.0 0.0 "></path></clipPath><g clip-path="url(#clip-6516)"><g><g><clipPath id="clip-6517"><path d="M 0.0 0.0 L 1280.0 0.0 L 1280.0 670.0 L 0.0 670.0 Z M 0.0 0.0 "></path></clipPath><g clip-path="url(#clip-6517)"><image xlink:href="../../AF078961-8C16-472A-90A3-B851FE04D836/assets/B7C22C0C6A534A7CC37B0F9253518934.png" width="1280.00" height="400.00" transform="matrix(2.09, 0.00, -0.00, -2.09, -589.4, 670.0)"></image></g></g></g></g></g></g></g></g></g></g></g></g></g><g><clipPath id="clip-6518"><path d="M 0.0 0.0 L 1280.0 0.0 L 1280.0 720.0 L 0.0 720.0 Z M 0.0 0.0 "></path></clipPath><g clip-path="url(#clip-6518)"><path d="M 1.0 0.0 C 0.4 0.0 0.0 0.5 0.0 1.0 L 0.0 33.0 C 0.0 33.6 0.5 34.0 1.0 34.0 L 149.0 34.0 C 149.6 34.0 150.0 33.5 150.0 33.0 L 150.0 1.0 C 150.0 0.4 149.5 0.0 149.0 0.0 L 1.0 0.0 Z M 1.0 0.0 " fill="none" stroke="#FFFFFF" stroke-width="1.00" stroke-miterlimit="0.00" transform="matrix(1.36, 0.00, 0.00, -1.36, 614.2, 56.8)"></path><text xml:space="preserve" font-family="AkkuratStd-Bold" font-weight="bold" font-size="15.0" fill="#FEFFFF" transform="matrix(1.36, 0.00, -0.00, -1.36, 688.9, 25.5)">A</text><text xml:space="preserve" font-family="AkkuratStd-Bold" font-weight="bold" font-size="15.0" fill="#FEFFFF" transform="matrix(1.36, 0.00, -0.00, -1.36, 701.9, 25.5)">p</text><text xml:space="preserve" font-family="AkkuratStd-Bold" font-weight="bold" font-size="15.0" fill="#FEFFFF" transform="matrix(1.36, 0.00, -0.00, -1.36, 714.0, 25.5)">p</text><text xml:space="preserve" font-family="AkkuratStd-Bold" font-weight="bold" font-size="15.0" fill="#FEFFFF" transform="matrix(1.36, 0.00, -0.00, -1.36, 726.2, 25.5)">l</text><text xml:space="preserve" font-family="AkkuratStd-Bold" font-weight="bold" font-size="15.0" fill="#FEFFFF" transform="matrix(1.36, 0.00, -0.00, -1.36, 732.2, 25.5)">y</text><path d="M 1.0 0.0 C 0.4 0.0 0.0 0.5 0.0 1.0 L 0.0 33.0 C 0.0 33.6 0.5 34.0 1.0 34.0 L 149.0 34.0 C 149.6 34.0 150.0 33.5 150.0 33.0 L 150.0 1.0 C 150.0 0.4 149.5 0.0 149.0 0.0 L 1.0 0.0 Z M 1.0 0.0 " fill="none" stroke="#FFFFFF" stroke-width="1.00" stroke-miterlimit="0.00" transform="matrix(1.36, 0.00, 0.00, -1.36, 383.5, 56.8)"></path><text xml:space="preserve" font-family="AkkuratStd-Bold" font-weight="bold" font-size="15.0" fill="#FEFFFF" transform="matrix(1.36, 0.00, -0.00, -1.36, 447.3, 25.5)">E</text><text xml:space="preserve" font-family="AkkuratStd-Bold" font-weight="bold" font-size="15.0" fill="#FEFFFF" transform="matrix(1.36, 0.00, -0.00, -1.36, 460.1, 25.5)">x</text><text xml:space="preserve" font-family="AkkuratStd-Bold" font-weight="bold" font-size="15.0" fill="#FEFFFF" transform="matrix(1.36, 0.00, -0.00, -1.36, 470.6, 25.5)">p</text><text xml:space="preserve" font-family="AkkuratStd-Bold" font-weight="bold" font-size="15.0" fill="#FEFFFF" transform="matrix(1.36, 0.00, -0.00, -1.36, 482.8, 25.5)">l</text><text xml:space="preserve" font-family="AkkuratStd-Bold" font-weight="bold" font-size="15.0" fill="#FEFFFF" transform="matrix(1.36, 0.00, -0.00, -1.36, 488.9, 25.5)">o</text><text xml:space="preserve" font-family="AkkuratStd-Bold" font-weight="bold" font-size="15.0" fill="#FEFFFF" transform="matrix(1.36, 0.00, -0.00, -1.36, 500.5, 25.5)">r</text><text xml:space="preserve" font-family="AkkuratStd-Bold" font-weight="bold" font-size="15.0" fill="#FEFFFF" transform="matrix(1.36, 0.00, -0.00, -1.36, 508.3, 25.5)">e</text><text xml:space="preserve" font-family="AkkuratStd-Bold" font-weight="bold" font-size="64.0" fill="#FEFFFF" transform="matrix(1.36, 0.00, -0.00, -1.36, 155.6, 284.7)">B</text><text xml:space="preserve" font-family="AkkuratStd-Bold" font-weight="bold" font-size="64.0" fill="#FEFFFF" transform="matrix(1.36, 0.00, -0.00, -1.36, 213.2, 284.7)">e</text><text xml:space="preserve" font-family="AkkuratStd-Bold" font-weight="bold" font-size="64.0" fill="#FEFFFF" transform="matrix(1.36, 0.00, -0.00, -1.36, 261.6, 284.7)"> </text><text xml:space="preserve" font-family="AkkuratStd-Bold" font-weight="bold" font-size="64.0" fill="#FEFFFF" transform="matrix(1.36, 0.00, -0.00, -1.36, 279.8, 284.7)">a</text><text xml:space="preserve" font-family="AkkuratStd-Bold" font-weight="bold" font-size="64.0" fill="#FEFFFF" transform="matrix(1.36, 0.00, -0.00, -1.36, 328.6, 284.7)"> </text><text xml:space="preserve" font-family="AkkuratStd-Bold" font-weight="bold" font-size="64.0" fill="#FEFFFF" transform="matrix(1.36, 0.00, -0.00, -1.36, 346.7, 284.7)">p</text><text xml:space="preserve" font-family="AkkuratStd-Bold" font-weight="bold" font-size="64.0" fill="#FEFFFF" transform="matrix(1.36, 0.00, -0.00, -1.36, 398.9, 284.7)">a</text><text xml:space="preserve" font-family="AkkuratStd-Bold" font-weight="bold" font-size="64.0" fill="#FEFFFF" transform="matrix(1.36, 0.00, -0.00, -1.36, 447.7, 284.7)">r</text><text xml:space="preserve" font-family="AkkuratStd-Bold" font-weight="bold" font-size="64.0" fill="#FEFFFF" transform="matrix(1.36, 0.00, -0.00, -1.36, 482.9, 284.7)">t</text><text xml:space="preserve" font-family="AkkuratStd-Bold" font-weight="bold" font-size="64.0" fill="#FEFFFF" transform="matrix(1.36, 0.00, -0.00, -1.36, 517.6, 284.7)"> </text><text xml:space="preserve" font-family="AkkuratStd-Bold" font-weight="bold" font-size="64.0" fill="#FEFFFF" transform="matrix(1.36, 0.00, -0.00, -1.36, 535.8, 284.7)">o</text><text xml:space="preserve" font-family="AkkuratStd-Bold" font-weight="bold" font-size="64.0" fill="#FEFFFF" transform="matrix(1.36, 0.00, -0.00, -1.36, 584.8, 284.7)">f</text><text xml:space="preserve" font-family="AkkuratStd-Bold" font-weight="bold" font-size="64.0" fill="#FEFFFF" transform="matrix(1.36, 0.00, -0.00, -1.36, 617.8, 284.7)"> </text><text xml:space="preserve" font-family="AkkuratStd-Bold" font-weight="bold" font-size="64.0" fill="#FEFFFF" transform="matrix(1.36, 0.00, -0.00, -1.36, 635.9, 284.7)">o</text><text xml:space="preserve" font-family="AkkuratStd-Bold" font-weight="bold" font-size="64.0" fill="#FEFFFF" transform="matrix(1.36, 0.00, -0.00, -1.36, 685.4, 284.7)">u</text><text xml:space="preserve" font-family="AkkuratStd-Bold" font-weight="bold" font-size="64.0" fill="#FEFFFF" transform="matrix(1.36, 0.00, -0.00, -1.36, 736.6, 284.7)">r</text><text xml:space="preserve" font-family="AkkuratStd-Bold" font-weight="bold" font-size="64.0" fill="#FEFFFF" transform="matrix(1.36, 0.00, -0.00, -1.36, 771.0, 284.7)"> </text><text xml:space="preserve" font-family="AkkuratStd-Bold" font-weight="bold" font-size="64.0" fill="#FEFFFF" transform="matrix(1.36, 0.00, -0.00, -1.36, 789.1, 284.7)">S</text><text xml:space="preserve" font-family="AkkuratStd-Bold" font-weight="bold" font-size="64.0" fill="#FEFFFF" transform="matrix(1.36, 0.00, -0.00, -1.36, 844.0, 284.7)">u</text><text xml:space="preserve" font-family="AkkuratStd-Bold" font-weight="bold" font-size="64.0" fill="#FEFFFF" transform="matrix(1.36, 0.00, -0.00, -1.36, 895.2, 284.7)">c</text><text xml:space="preserve" font-family="AkkuratStd-Bold" font-weight="bold" font-size="64.0" fill="#FEFFFF" transform="matrix(1.36, 0.00, -0.00, -1.36, 941.3, 284.7)">c</text><text xml:space="preserve" font-family="AkkuratStd-Bold" font-weight="bold" font-size="64.0" fill="#FEFFFF" transform="matrix(1.36, 0.00, -0.00, -1.36, 987.5, 284.7)">e</text><text xml:space="preserve" font-family="AkkuratStd-Bold" font-weight="bold" font-size="64.0" fill="#FEFFFF" transform="matrix(1.36, 0.00, -0.00, -1.36, 1035.8, 284.7)">s</text><text xml:space="preserve" font-family="AkkuratStd-Bold" font-weight="bold" font-size="64.0" fill="#FEFFFF" transform="matrix(1.36, 0.00, -0.00, -1.36, 1081.1, 284.7)">s</text></g></g><g><clipPath id="clip-6519"><path d="M 0.0 686.3 L 1280.0 686.3 L 1280.0 720.0 L 0.0 720.0 Z M 0.0 686.3 "></path></clipPath><g clip-path="url(#clip-6519)"><g><g><clipPath id="clip-6520"><path d="M 0.0 710.7 L 1280.0 710.7 L 1280.0 720.0 L 0.0 720.0 Z M 0.0 710.7 "></path></clipPath><g clip-path="url(#clip-6520)"><image xlink:href="../../AF078961-8C16-472A-90A3-B851FE04D836/assets/5BDB7ECB7EA2FDC7EB813E43503DFF7E.png" width="2618.00" height="255.00" transform="matrix(0.68, 0.00, -0.00, -0.68, -250.2, 884.4)"></image></g></g><g><clipPath id="clip-6521"><path d="M 0.0 710.7 L 1280.0 710.7 L 1280.0 720.0 L 0.0 720.0 Z M 0.0 710.7 "></path></clipPath><g clip-path="url(#clip-6521)"><g><g><clipPath id="clip-6522"><path d="M 0.0 710.7 L 1280.0 710.7 L 1280.0 720.0 L 0.0 720.0 Z M 0.0 710.7 "></path></clipPath><g clip-path="url(#clip-6522)"><image xlink:href="../../AF078961-8C16-472A-90A3-B851FE04D836/assets/5BDB7ECB7EA2FDC7EB813E43503DFF7E.png" width="2618.00" height="255.00" transform="matrix(0.68, 0.00, -0.00, -0.68, -250.2, 884.4)"></image></g></g></g></g></g></g></g></g><g><clipPath id="clip-6523"><path d="M -337.0 883.1 L 1617.0 883.1 L 1617.0 -1769.5 L -337.0 -1769.5 L -337.0 883.1 Z M -337.0 883.1 "></path></clipPath><g clip-path="url(#clip-6523)"><g><clipPath id="clip-6524"><path d="M 0.0 0.0 L 1280.0 0.0 L 1280.0 720.0 L 0.0 720.0 Z M 0.0 0.0 "></path></clipPath><g clip-path="url(#clip-6524)"><path d="M -343.8 889.8 L 1623.8 889.8 L 1623.8 -1776.3 L -343.8 -1776.3 Z M -343.8 889.8 " fill="#F79100" fill-opacity="0.80"></path></g></g></g></g><g><clipPath id="clip-6525"><path d="M 268.2 666.0 L 1010.4 666.0 L 1010.4 54.0 L 268.2 54.0 L 268.2 666.0 Z M 268.2 666.0 "></path></clipPath><g clip-path="url(#clip-6525)"><g><clipPath id="clip-6526"><path d="M 0.0 0.0 L 1280.0 0.0 L 1280.0 720.0 L 0.0 720.0 Z M 0.0 0.0 "></path></clipPath><g clip-path="url(#clip-6526)"><path d="M 261.4 672.7 L 1017.2 672.7 L 1017.2 47.3 L 261.4 47.3 Z M 261.4 672.7 " fill="#FFFFFF"></path></g></g></g></g><g><clipPath id="clip-6527"><path d="M 0.0 0.0 L 1280.0 0.0 L 1280.0 720.0 L 0.0 720.0 Z M 0.0 0.0 "></path></clipPath><g clip-path="url(#clip-6527)"><text xml:space="preserve" font-family="AkkuratStd-Bold" font-weight="bold" font-size="24.0" fill="#ABABAB" transform="matrix(1.36, 0.00, -0.00, -1.36, 336.0, 569.6)">A</text><text xml:space="preserve" font-family="AkkuratStd-Bold" font-weight="bold" font-size="24.0" fill="#ABABAB" transform="matrix(1.36, 0.00, -0.00, -1.36, 356.7, 569.6)">l</text><text xml:space="preserve" font-family="AkkuratStd-Bold" font-weight="bold" font-size="24.0" fill="#ABABAB" transform="matrix(1.36, 0.00, -0.00, -1.36, 366.4, 569.6)">e</text><text xml:space="preserve" font-family="AkkuratStd-Bold" font-weight="bold" font-size="24.0" fill="#ABABAB" transform="matrix(1.36, 0.00, -0.00, -1.36, 384.5, 569.6)">r</text><text xml:space="preserve" font-family="AkkuratStd-Bold" font-weight="bold" font-size="24.0" fill="#ABABAB" transform="matrix(1.36, 0.00, -0.00, -1.36, 397.7, 569.6)">t</text><text xml:space="preserve" font-family="AkkuratStd-Bold" font-weight="bold" font-size="24.0" fill="#ABABAB" transform="matrix(1.36, 0.00, -0.00, -1.36, 410.7, 569.6)"> </text><text xml:space="preserve" font-family="AkkuratStd-Bold" font-weight="bold" font-size="24.0" fill="#ABABAB" transform="matrix(1.36, 0.00, -0.00, -1.36, 417.5, 569.6)">m</text><text xml:space="preserve" font-family="AkkuratStd-Bold" font-weight="bold" font-size="24.0" fill="#ABABAB" transform="matrix(1.36, 0.00, -0.00, -1.36, 446.3, 569.6)">e</text><text xml:space="preserve" font-family="AkkuratStd-Bold" font-weight="bold" font-size="24.0" fill="#ABABAB" transform="matrix(1.36, 0.00, -0.00, -1.36, 464.5, 569.6)"> </text><text xml:space="preserve" font-family="AkkuratStd-Bold" font-weight="bold" font-size="24.0" fill="#ABABAB" transform="matrix(1.36, 0.00, -0.00, -1.36, 471.3, 569.6)">f</text><text xml:space="preserve" font-family="AkkuratStd-Bold" font-weight="bold" font-size="24.0" fill="#ABABAB" transform="matrix(1.36, 0.00, -0.00, -1.36, 483.1, 569.6)">o</text><text xml:space="preserve" font-family="AkkuratStd-Bold" font-weight="bold" font-size="24.0" fill="#ABABAB" transform="matrix(1.36, 0.00, -0.00, -1.36, 501.7, 569.6)">r</text><text xml:space="preserve" font-family="AkkuratStd-Bold" font-weight="bold" font-size="24.0" fill="#ABABAB" transform="matrix(1.36, 0.00, -0.00, -1.36, 514.6, 569.6)"> </text><text xml:space="preserve" font-family="AkkuratStd-Bold" font-weight="bold" font-size="24.0" fill="#ABABAB" transform="matrix(1.36, 0.00, -0.00, -1.36, 521.4, 569.6)">t</text><text xml:space="preserve" font-family="AkkuratStd-Bold" font-weight="bold" font-size="24.0" fill="#ABABAB" transform="matrix(1.36, 0.00, -0.00, -1.36, 534.4, 569.6)">h</text><text xml:space="preserve" font-family="AkkuratStd-Bold" font-weight="bold" font-size="24.0" fill="#ABABAB" transform="matrix(1.36, 0.00, -0.00, -1.36, 553.7, 569.6)">e</text><text xml:space="preserve" font-family="AkkuratStd-Bold" font-weight="bold" font-size="24.0" fill="#ABABAB" transform="matrix(1.36, 0.00, -0.00, -1.36, 571.8, 569.6)"> </text><text xml:space="preserve" font-family="AkkuratStd-Bold" font-weight="bold" font-size="24.0" fill="#ABABAB" transform="matrix(1.36, 0.00, -0.00, -1.36, 578.6, 569.6)">f</text><text xml:space="preserve" font-family="AkkuratStd-Bold" font-weight="bold" font-size="24.0" fill="#ABABAB" transform="matrix(1.36, 0.00, -0.00, -1.36, 590.5, 569.6)">o</text><text xml:space="preserve" font-family="AkkuratStd-Bold" font-weight="bold" font-size="24.0" fill="#ABABAB" transform="matrix(1.36, 0.00, -0.00, -1.36, 609.0, 569.6)">l</text><text xml:space="preserve" font-family="AkkuratStd-Bold" font-weight="bold" font-size="24.0" fill="#ABABAB" transform="matrix(1.36, 0.00, -0.00, -1.36, 618.9, 569.6)">l</text><text xml:space="preserve" font-family="AkkuratStd-Bold" font-weight="bold" font-size="24.0" fill="#ABABAB" transform="matrix(1.36, 0.00, -0.00, -1.36, 628.5, 569.6)">o</text><text xml:space="preserve" font-family="AkkuratStd-Bold" font-weight="bold" font-size="24.0" fill="#ABABAB" transform="matrix(1.36, 0.00, -0.00, -1.36, 646.9, 569.6)">w</text><text xml:space="preserve" font-family="AkkuratStd-Bold" font-weight="bold" font-size="24.0" fill="#ABABAB" transform="matrix(1.36, 0.00, -0.00, -1.36, 672.0, 569.6)">i</text><text xml:space="preserve" font-family="AkkuratStd-Bold" font-weight="bold" font-size="24.0" fill="#ABABAB" transform="matrix(1.36, 0.00, -0.00, -1.36, 681.3, 569.6)">n</text><text xml:space="preserve" font-family="AkkuratStd-Bold" font-weight="bold" font-size="24.0" fill="#ABABAB" transform="matrix(1.36, 0.00, -0.00, -1.36, 700.6, 569.6)">g</text><text xml:space="preserve" font-family="AkkuratStd-Bold" font-weight="bold" font-size="24.0" fill="#ABABAB" transform="matrix(1.36, 0.00, -0.00, -1.36, 718.5, 569.6)"> </text><text xml:space="preserve" font-family="AkkuratStd-Bold" font-weight="bold" font-size="24.0" fill="#ABABAB" transform="matrix(1.36, 0.00, -0.00, -1.36, 725.3, 569.6)">k</text><text xml:space="preserve" font-family="AkkuratStd-Bold" font-weight="bold" font-size="24.0" fill="#ABABAB" transform="matrix(1.36, 0.00, -0.00, -1.36, 743.8, 569.6)">e</text><text xml:space="preserve" font-family="AkkuratStd-Bold" font-weight="bold" font-size="24.0" fill="#ABABAB" transform="matrix(1.36, 0.00, -0.00, -1.36, 761.5, 569.6)">y</text><text xml:space="preserve" font-family="AkkuratStd-Bold" font-weight="bold" font-size="24.0" fill="#ABABAB" transform="matrix(1.36, 0.00, -0.00, -1.36, 778.7, 569.6)">w</text><text xml:space="preserve" font-family="AkkuratStd-Bold" font-weight="bold" font-size="24.0" fill="#ABABAB" transform="matrix(1.36, 0.00, -0.00, -1.36, 803.7, 569.6)">o</text><text xml:space="preserve" font-family="AkkuratStd-Bold" font-weight="bold" font-size="24.0" fill="#ABABAB" transform="matrix(1.36, 0.00, -0.00, -1.36, 822.2, 569.6)">r</text><text xml:space="preserve" font-family="AkkuratStd-Bold" font-weight="bold" font-size="24.0" fill="#ABABAB" transform="matrix(1.36, 0.00, -0.00, -1.36, 834.5, 569.6)">d</text><text xml:space="preserve" font-family="AkkuratStd-Bold" font-weight="bold" font-size="24.0" fill="#ABABAB" transform="matrix(1.36, 0.00, -0.00, -1.36, 854.1, 569.6)">s</text><text xml:space="preserve" font-family="AkkuratStd" font-size="24.0" fill="#5C5C5C" transform="matrix(1.36, 0.00, -0.00, -1.36, 344.2, 473.3)">C</text><text xml:space="preserve" font-family="AkkuratStd" font-size="24.0" fill="#5C5C5C" transform="matrix(1.36, 0.00, -0.00, -1.36, 364.8, 473.3)">o</text><text xml:space="preserve" font-family="AkkuratStd" font-size="24.0" fill="#5C5C5C" transform="matrix(1.36, 0.00, -0.00, -1.36, 383.0, 473.3)">o</text><text xml:space="preserve" font-family="AkkuratStd" font-size="24.0" fill="#5C5C5C" transform="matrix(1.36, 0.00, -0.00, -1.36, 401.2, 473.3)">r</text><text xml:space="preserve" font-family="AkkuratStd" font-size="24.0" fill="#5C5C5C" transform="matrix(1.36, 0.00, -0.00, -1.36, 413.1, 473.3)">d</text><text xml:space="preserve" font-family="AkkuratStd" font-size="24.0" fill="#5C5C5C" transform="matrix(1.36, 0.00, -0.00, -1.36, 432.5, 473.3)">i</text><text xml:space="preserve" font-family="AkkuratStd" font-size="24.0" fill="#5C5C5C" transform="matrix(1.36, 0.00, -0.00, -1.36, 441.4, 473.3)">n</text><text xml:space="preserve" font-family="AkkuratStd" font-size="24.0" fill="#5C5C5C" transform="matrix(1.36, 0.00, -0.00, -1.36, 460.4, 473.3)">a</text><text xml:space="preserve" font-family="AkkuratStd" font-size="24.0" fill="#5C5C5C" transform="matrix(1.36, 0.00, -0.00, -1.36, 478.5, 473.3)">t</text><text xml:space="preserve" font-family="AkkuratStd" font-size="24.0" fill="#5C5C5C" transform="matrix(1.36, 0.00, -0.00, -1.36, 490.7, 473.3)">o</text><text xml:space="preserve" font-family="AkkuratStd" font-size="24.0" fill="#5C5C5C" transform="matrix(1.36, 0.00, -0.00, -1.36, 508.8, 473.3)">r</text><path d="M 0.0 1.0 L 440.0 1.0 " fill="none" stroke="#969696" stroke-width="1.00" stroke-miterlimit="0.00" stroke-linecap="square" transform="matrix(1.36, 0.00, 0.00, -1.36, 336.0, 446.2)"></path><path d="M 0.0 1.0 L 440.0 1.0 " fill="none" stroke="#969696" stroke-width="1.00" stroke-miterlimit="0.00" stroke-linecap="square" transform="matrix(1.36, 0.00, 0.00, -1.36, 336.0, 371.5)"></path><path d="M 0.0 1.0 L 440.0 1.0 " fill="none" stroke="#969696" stroke-width="1.00" stroke-miterlimit="0.00" stroke-linecap="square" transform="matrix(1.36, 0.00, 0.00, -1.36, 336.0, 296.9)"></path></g></g><g><clipPath id="clip-6528"><path d="M 904.6 257.6 C 897.1 257.6 891.0 251.5 891.0 244.0 C 891.0 236.5 897.1 230.4 904.6 230.4 C 912.1 230.4 918.2 236.5 918.2 244.0 C 918.2 251.5 912.1 257.6 904.6 257.6 L 904.6 257.6 Z M 912.9 241.9 L 906.7 241.9 L 906.7 235.7 L 902.7 235.7 L 902.7 241.9 L 896.5 241.9 L 896.5 245.9 L 902.7 245.9 L 902.7 252.1 L 906.7 252.1 L 906.7 245.9 L 912.9 245.9 L 912.9 241.9 Z M 912.9 241.9 "></path></clipPath><g clip-path="url(#clip-6528)"><g><clipPath id="clip-6529"><path d="M 0.0 0.0 L 1280.0 0.0 L 1280.0 720.0 L 0.0 720.0 Z M 0.0 0.0 "></path></clipPath><g clip-path="url(#clip-6529)"><path d="M 884.2 264.3 L 925.0 264.3 L 925.0 223.6 L 884.2 223.6 Z M 884.2 264.3 " fill="#F79100"></path></g></g></g></g><g><clipPath id="clip-6530"><path d="M 906.6 339.0 C 899.5 339.0 893.7 333.2 893.7 326.1 C 893.7 319.0 899.5 313.2 906.6 313.2 C 913.8 313.2 919.5 319.0 919.5 326.1 C 919.5 333.2 913.8 339.0 906.6 339.0 L 906.6 339.0 Z M 906.6 339.0 "></path></clipPath><g clip-path="url(#clip-6530)"><g><clipPath id="clip-6531"><path d="M 0.0 0.0 L 1280.0 0.0 L 1280.0 720.0 L 0.0 720.0 Z M 0.0 0.0 "></path></clipPath><g clip-path="url(#clip-6531)"><path d="M 887.0 345.8 L 926.3 345.8 L 926.3 306.4 L 887.0 306.4 Z M 887.0 345.8 " fill="#F79100"></path></g></g></g></g><g><clipPath id="clip-6532"><path d="M 914.1 321.1 L 911.6 318.6 L 906.6 323.6 L 901.7 318.6 L 899.2 321.1 L 904.1 326.1 L 899.2 331.1 L 901.7 333.5 L 906.6 328.6 L 911.6 333.5 L 914.1 331.1 L 909.1 326.1 L 914.1 321.1 Z M 914.1 321.1 "></path></clipPath><g clip-path="url(#clip-6532)"><g><clipPath id="clip-6533"><path d="M 0.0 0.0 L 1280.0 0.0 L 1280.0 720.0 L 0.0 720.0 Z M 0.0 0.0 "></path></clipPath><g clip-path="url(#clip-6533)"><path d="M 892.4 340.3 L 920.9 340.3 L 920.9 311.9 L 892.4 311.9 Z M 892.4 340.3 " fill="#FFFFFF"></path></g></g></g></g><g><clipPath id="clip-6534"><path d="M 906.6 419.0 C 899.5 419.0 893.7 413.3 893.7 406.1 C 893.7 399.0 899.5 393.2 906.6 393.2 C 913.8 393.2 919.5 399.0 919.5 406.1 C 919.5 413.3 913.8 419.0 906.6 419.0 L 906.6 419.0 Z M 906.6 419.0 "></path></clipPath><g clip-path="url(#clip-6534)"><g><clipPath id="clip-6535"><path d="M 0.0 0.0 L 1280.0 0.0 L 1280.0 720.0 L 0.0 720.0 Z M 0.0 0.0 "></path></clipPath><g clip-path="url(#clip-6535)"><path d="M 887.0 425.8 L 926.3 425.8 L 926.3 386.5 L 887.0 386.5 Z M 887.0 425.8 " fill="#F79100"></path></g></g></g></g><g><clipPath id="clip-6536"><path d="M 914.1 401.2 L 911.6 398.7 L 906.6 403.7 L 901.7 398.7 L 899.2 401.2 L 904.1 406.1 L 899.2 411.1 L 901.7 413.6 L 906.6 408.6 L 911.6 413.6 L 914.1 411.1 L 909.1 406.1 L 914.1 401.2 Z M 914.1 401.2 "></path></clipPath><g clip-path="url(#clip-6536)"><g><clipPath id="clip-6537"><path d="M 0.0 0.0 L 1280.0 0.0 L 1280.0 720.0 L 0.0 720.0 Z M 0.0 0.0 "></path></clipPath><g clip-path="url(#clip-6537)"><path d="M 892.4 420.4 L 920.9 420.4 L 920.9 391.9 L 892.4 391.9 Z M 892.4 420.4 " fill="#FFFFFF"></path></g></g></g></g><g><clipPath id="clip-6538"><path d="M 906.6 497.7 C 899.5 497.7 893.7 491.9 893.7 484.8 C 893.7 477.7 899.5 471.9 906.6 471.9 C 913.8 471.9 919.5 477.7 919.5 484.8 C 919.5 491.9 913.8 497.7 906.6 497.7 L 906.6 497.7 Z M 906.6 497.7 "></path></clipPath><g clip-path="url(#clip-6538)"><g><clipPath id="clip-6539"><path d="M 0.0 0.0 L 1280.0 0.0 L 1280.0 720.0 L 0.0 720.0 Z M 0.0 0.0 "></path></clipPath><g clip-path="url(#clip-6539)"><path d="M 887.0 504.5 L 926.3 504.5 L 926.3 465.2 L 887.0 465.2 Z M 887.0 504.5 " fill="#F79100"></path></g></g></g></g><g><clipPath id="clip-6540"><path d="M 914.1 479.9 L 911.6 477.4 L 906.6 482.4 L 901.7 477.4 L 899.2 479.9 L 904.1 484.8 L 899.2 489.8 L 901.7 492.3 L 906.6 487.3 L 911.6 492.3 L 914.1 489.8 L 909.1 484.8 L 914.1 479.9 Z M 914.1 479.9 "></path></clipPath><g clip-path="url(#clip-6540)"><g><clipPath id="clip-6541"><path d="M 0.0 0.0 L 1280.0 0.0 L 1280.0 720.0 L 0.0 720.0 Z M 0.0 0.0 "></path></clipPath><g clip-path="url(#clip-6541)"><path d="M 892.4 499.1 L 920.9 499.1 L 920.9 470.6 L 892.4 470.6 Z M 892.4 499.1 " fill="#FFFFFF"></path></g></g></g></g><g><clipPath id="clip-6542"><path d="M 337.4 169.4 C 336.7 169.4 336.0 168.8 336.0 168.0 L 336.0 124.6 C 336.0 123.8 336.7 123.2 337.4 123.2 L 577.6 123.2 C 578.3 123.2 578.9 123.9 578.9 124.6 L 578.9 168.0 C 578.9 168.8 578.3 169.4 577.6 169.4 L 337.4 169.4 Z M 337.4 169.4 "></path></clipPath><g clip-path="url(#clip-6542)"><g><clipPath id="clip-6543"><path d="M 0.0 0.0 L 1280.0 0.0 L 1280.0 720.0 L 0.0 720.0 Z M 0.0 0.0 "></path></clipPath><g clip-path="url(#clip-6543)"><path d="M 329.3 176.2 L 585.7 176.2 L 585.7 116.5 L 329.3 116.5 Z M 329.3 176.2 " fill="#F79100"></path></g></g></g></g><g><clipPath id="clip-6544"><path d="M 0.0 0.0 L 1280.0 0.0 L 1280.0 720.0 L 0.0 720.0 Z M 0.0 0.0 "></path></clipPath><g clip-path="url(#clip-6544)"><path d="M 1.0 0.0 C 0.5 0.0 0.0 0.5 0.0 1.0 L 0.0 33.0 C 0.0 33.6 0.5 34.0 1.0 34.0 L 178.0 34.0 C 178.5 34.0 179.0 33.5 179.0 33.0 L 179.0 1.0 C 179.0 0.4 178.5 0.0 178.0 0.0 L 1.0 0.0 Z M 1.0 0.0 " fill="none" stroke="#F79100" stroke-width="1.00" stroke-miterlimit="0.00" transform="matrix(1.36, 0.00, 0.00, -1.36, 336.0, 169.4)"></path><text xml:space="preserve" font-family="AkkuratStd-Bold" font-weight="bold" font-size="15.0" fill="#FEFFFF" transform="matrix(1.36, 0.00, -0.00, -1.36, 390.3, 138.2)">C</text><text xml:space="preserve" font-family="AkkuratStd-Bold" font-weight="bold" font-size="15.0" fill="#FEFFFF" transform="matrix(1.36, 0.00, -0.00, -1.36, 403.1, 138.2)">r</text><text xml:space="preserve" font-family="AkkuratStd-Bold" font-weight="bold" font-size="15.0" fill="#FEFFFF" transform="matrix(1.36, 0.00, -0.00, -1.36, 410.9, 138.2)">e</text><text xml:space="preserve" font-family="AkkuratStd-Bold" font-weight="bold" font-size="15.0" fill="#FEFFFF" transform="matrix(1.36, 0.00, -0.00, -1.36, 422.3, 138.2)">a</text><text xml:space="preserve" font-family="AkkuratStd-Bold" font-weight="bold" font-size="15.0" fill="#FEFFFF" transform="matrix(1.36, 0.00, -0.00, -1.36, 433.6, 138.2)">t</text><text xml:space="preserve" font-family="AkkuratStd-Bold" font-weight="bold" font-size="15.0" fill="#FEFFFF" transform="matrix(1.36, 0.00, -0.00, -1.36, 441.6, 138.2)">e</text><text xml:space="preserve" font-family="AkkuratStd-Bold" font-weight="bold" font-size="15.0" fill="#FEFFFF" transform="matrix(1.36, 0.00, -0.00, -1.36, 452.9, 138.2)"> </text><text xml:space="preserve" font-family="AkkuratStd-Bold" font-weight="bold" font-size="15.0" fill="#FEFFFF" transform="matrix(1.36, 0.00, -0.00, -1.36, 456.6, 138.2)">J</text><text xml:space="preserve" font-family="AkkuratStd-Bold" font-weight="bold" font-size="15.0" fill="#FEFFFF" transform="matrix(1.36, 0.00, -0.00, -1.36, 466.6, 138.2)">o</text><text xml:space="preserve" font-family="AkkuratStd-Bold" font-weight="bold" font-size="15.0" fill="#FEFFFF" transform="matrix(1.36, 0.00, -0.00, -1.36, 478.2, 138.2)">b</text><text xml:space="preserve" font-family="AkkuratStd-Bold" font-weight="bold" font-size="15.0" fill="#FEFFFF" transform="matrix(1.36, 0.00, -0.00, -1.36, 490.5, 138.2)"> </text><text xml:space="preserve" font-family="AkkuratStd-Bold" font-weight="bold" font-size="15.0" fill="#FEFFFF" transform="matrix(1.36, 0.00, -0.00, -1.36, 494.7, 138.2)">A</text><text xml:space="preserve" font-family="AkkuratStd-Bold" font-weight="bold" font-size="15.0" fill="#FEFFFF" transform="matrix(1.36, 0.00, -0.00, -1.36, 507.6, 138.2)">l</text><text xml:space="preserve" font-family="AkkuratStd-Bold" font-weight="bold" font-size="15.0" fill="#FEFFFF" transform="matrix(1.36, 0.00, -0.00, -1.36, 513.7, 138.2)">e</text><text xml:space="preserve" font-family="AkkuratStd-Bold" font-weight="bold" font-size="15.0" fill="#FEFFFF" transform="matrix(1.36, 0.00, -0.00, -1.36, 525.0, 138.2)">r</text><text xml:space="preserve" font-family="AkkuratStd-Bold" font-weight="bold" font-size="15.0" fill="#FEFFFF" transform="matrix(1.36, 0.00, -0.00, -1.36, 533.2, 138.2)">t</text></g></g><g><clipPath id="clip-6545"><path d="M 364.5 132.5 C 366.1 132.5 367.4 133.8 367.4 135.4 L 361.6 135.4 C 361.6 133.8 362.9 132.5 364.5 132.5 L 364.5 132.5 Z M 373.9 141.1 L 373.9 149.0 C 373.9 153.4 370.8 157.1 366.7 158.1 L 366.7 159.1 C 366.7 160.3 365.7 161.2 364.5 161.2 C 363.4 161.2 362.4 160.3 362.4 159.1 L 362.4 158.1 C 358.3 157.1 355.2 153.4 355.2 149.0 L 355.2 141.1 L 352.3 138.2 L 352.3 136.8 L 376.8 136.8 L 376.8 138.2 L 373.9 141.1 Z M 373.9 141.1 "></path></clipPath><g clip-path="url(#clip-6545)"><g><clipPath id="clip-6546"><path d="M 0.0 0.0 L 1280.0 0.0 L 1280.0 720.0 L 0.0 720.0 Z M 0.0 0.0 "></path></clipPath><g clip-path="url(#clip-6546)"><path d="M 345.5 168.0 L 383.5 168.0 L 383.5 125.7 L 345.5 125.7 Z M 345.5 168.0 " fill="#FFFFFF"></path></g></g></g></g></g></g></g></g></g></g></g></g></g></svg>