<?xml version="1.0" encoding="UTF-8" standalone="no"?><svg xmlns="http://www.w3.org/2000/svg" xmlns:xlink="http://www.w3.org/1999/xlink" clip-rule="evenodd" stroke-miterlimit="4.00" viewBox="0 0 1107 191"><desc>SVG generated by Keynote</desc><defs></defs><g transform="matrix(1.00, 0.00, -0.00, -1.00, 0.0, 191.0)"><text xml:space="preserve" font-family="Sonus-Bold" font-weight="bold" font-size="37.0" fill="#000000" transform="matrix(1.00, 0.00, -0.00, -1.00, 91.0, 162.0)">S</text><text xml:space="preserve" font-family="Sonus-Bold" font-weight="bold" font-size="37.0" fill="#000000" transform="matrix(1.00, 0.00, -0.00, -1.00, 112.1, 162.0)">e</text><text xml:space="preserve" font-family="Sonus-Bold" font-weight="bold" font-size="37.0" fill="#000000" transform="matrix(1.00, 0.00, -0.00, -1.00, 131.8, 162.0)">t</text><text xml:space="preserve" font-family="Sonus-Bold" font-weight="bold" font-size="37.0" fill="#000000" transform="matrix(1.00, 0.00, -0.00, -1.00, 145.5, 162.0)"> </text><text xml:space="preserve" font-family="Sonus-Bold" font-weight="bold" font-size="37.0" fill="#000000" transform="matrix(1.00, 0.00, -0.00, -1.00, 153.5, 162.0)">c</text><text xml:space="preserve" font-family="Sonus-Bold" font-weight="bold" font-size="37.0" fill="#000000" transform="matrix(1.00, 0.00, -0.00, -1.00, 171.1, 162.0)">a</text><text xml:space="preserve" font-family="Sonus-Bold" font-weight="bold" font-size="37.0" fill="#000000" transform="matrix(1.00, 0.00, -0.00, -1.00, 190.9, 162.0)">n</text><text xml:space="preserve" font-family="Sonus-Bold" font-weight="bold" font-size="37.0" fill="#000000" transform="matrix(1.00, 0.00, -0.00, -1.00, 213.0, 162.0)">d</text><text xml:space="preserve" font-family="Sonus-Bold" font-weight="bold" font-size="37.0" fill="#000000" transform="matrix(1.00, 0.00, -0.00, -1.00, 235.1, 162.0)">i</text><text xml:space="preserve" font-family="Sonus-Bold" font-weight="bold" font-size="37.0" fill="#000000" transform="matrix(1.00, 0.00, -0.00, -1.00, 245.4, 162.0)">d</text><text xml:space="preserve" font-family="Sonus-Bold" font-weight="bold" font-size="37.0" fill="#000000" transform="matrix(1.00, 0.00, -0.00, -1.00, 267.6, 162.0)">a</text><text xml:space="preserve" font-family="Sonus-Bold" font-weight="bold" font-size="37.0" fill="#000000" transform="matrix(1.00, 0.00, -0.00, -1.00, 287.4, 162.0)">t</text><text xml:space="preserve" font-family="Sonus-Bold" font-weight="bold" font-size="37.0" fill="#000000" transform="matrix(1.00, 0.00, -0.00, -1.00, 301.2, 162.0)">e</text><text xml:space="preserve" font-family="Sonus-Bold" font-weight="bold" font-size="37.0" fill="#000000" transform="matrix(1.00, 0.00, -0.00, -1.00, 320.9, 162.0)">s</text><text xml:space="preserve" font-family="Sonus-Bold" font-weight="bold" font-size="37.0" fill="#000000" transform="matrix(1.00, 0.00, -0.00, -1.00, 337.2, 162.0)"> </text><text xml:space="preserve" font-family="Sonus-Bold" font-weight="bold" font-size="37.0" fill="#000000" transform="matrix(1.00, 0.00, -0.00, -1.00, 345.2, 162.0)">u</text><text xml:space="preserve" font-family="Sonus-Bold" font-weight="bold" font-size="37.0" fill="#000000" transform="matrix(1.00, 0.00, -0.00, -1.00, 367.3, 162.0)">p</text><text xml:space="preserve" font-family="Sonus-Bold" font-weight="bold" font-size="37.0" fill="#000000" transform="matrix(1.00, 0.00, -0.00, -1.00, 389.4, 162.0)"> </text><text xml:space="preserve" font-family="Sonus-Bold" font-weight="bold" font-size="37.0" fill="#000000" transform="matrix(1.00, 0.00, -0.00, -1.00, 397.4, 162.0)">f</text><text xml:space="preserve" font-family="Sonus-Bold" font-weight="bold" font-size="37.0" fill="#000000" transform="matrix(1.00, 0.00, -0.00, -1.00, 410.3, 162.0)">o</text><text xml:space="preserve" font-family="Sonus-Bold" font-weight="bold" font-size="37.0" fill="#000000" transform="matrix(1.00, 0.00, -0.00, -1.00, 431.8, 162.0)">r</text><text xml:space="preserve" font-family="Sonus-Bold" font-weight="bold" font-size="37.0" fill="#000000" transform="matrix(1.00, 0.00, -0.00, -1.00, 446.4, 162.0)"> </text><text xml:space="preserve" font-family="Sonus-Bold" font-weight="bold" font-size="37.0" fill="#000000" transform="matrix(1.00, 0.00, -0.00, -1.00, 454.4, 162.0)">s</text><text xml:space="preserve" font-family="Sonus-Bold" font-weight="bold" font-size="37.0" fill="#000000" transform="matrix(1.00, 0.00, -0.00, -1.00, 470.7, 162.0)">u</text><text xml:space="preserve" font-family="Sonus-Bold" font-weight="bold" font-size="37.0" fill="#000000" transform="matrix(1.00, 0.00, -0.00, -1.00, 492.8, 162.0)">c</text><text xml:space="preserve" font-family="Sonus-Bold" font-weight="bold" font-size="37.0" fill="#000000" transform="matrix(1.00, 0.00, -0.00, -1.00, 510.2, 162.0)">c</text><text xml:space="preserve" font-family="Sonus-Bold" font-weight="bold" font-size="37.0" fill="#000000" transform="matrix(1.00, 0.00, -0.00, -1.00, 527.6, 162.0)">e</text><text xml:space="preserve" font-family="Sonus-Bold" font-weight="bold" font-size="37.0" fill="#000000" transform="matrix(1.00, 0.00, -0.00, -1.00, 547.3, 162.0)">s</text><text xml:space="preserve" font-family="Sonus-Bold" font-weight="bold" font-size="37.0" fill="#000000" transform="matrix(1.00, 0.00, -0.00, -1.00, 563.6, 162.0)">s</text><text xml:space="preserve" font-family="Sonus-Bold" font-weight="bold" font-size="37.0" fill="#000000" transform="matrix(1.00, 0.00, -0.00, -1.00, 580.0, 162.0)"> </text><text xml:space="preserve" font-family="Sonus-Bold" font-weight="bold" font-size="37.0" fill="#000000" transform="matrix(1.00, 0.00, -0.00, -1.00, 587.9, 162.0)">d</text><text xml:space="preserve" font-family="Sonus-Bold" font-weight="bold" font-size="37.0" fill="#000000" transform="matrix(1.00, 0.00, -0.00, -1.00, 610.1, 162.0)">u</text><text xml:space="preserve" font-family="Sonus-Bold" font-weight="bold" font-size="37.0" fill="#000000" transform="matrix(1.00, 0.00, -0.00, -1.00, 632.2, 162.0)">r</text><text xml:space="preserve" font-family="Sonus-Bold" font-weight="bold" font-size="37.0" fill="#000000" transform="matrix(1.00, 0.00, -0.00, -1.00, 646.5, 162.0)">i</text><text xml:space="preserve" font-family="Sonus-Bold" font-weight="bold" font-size="37.0" fill="#000000" transform="matrix(1.00, 0.00, -0.00, -1.00, 656.8, 162.0)">n</text><text xml:space="preserve" font-family="Sonus-Bold" font-weight="bold" font-size="37.0" fill="#000000" transform="matrix(1.00, 0.00, -0.00, -1.00, 679.0, 162.0)">g</text><text xml:space="preserve" font-family="Sonus-Bold" font-weight="bold" font-size="37.0" fill="#000000" transform="matrix(1.00, 0.00, -0.00, -1.00, 698.9, 162.0)"> </text><text xml:space="preserve" font-family="Sonus-Bold" font-weight="bold" font-size="37.0" fill="#000000" transform="matrix(1.00, 0.00, -0.00, -1.00, 706.9, 162.0)">t</text><text xml:space="preserve" font-family="Sonus-Bold" font-weight="bold" font-size="37.0" fill="#000000" transform="matrix(1.00, 0.00, -0.00, -1.00, 720.7, 162.0)">h</text><text xml:space="preserve" font-family="Sonus-Bold" font-weight="bold" font-size="37.0" fill="#000000" transform="matrix(1.00, 0.00, -0.00, -1.00, 742.8, 162.0)">e</text><text xml:space="preserve" font-family="Sonus-Bold" font-weight="bold" font-size="37.0" fill="#000000" transform="matrix(1.00, 0.00, -0.00, -1.00, 762.5, 162.0)"> </text><text xml:space="preserve" font-family="Sonus-Bold" font-weight="bold" font-size="37.0" fill="#000000" transform="matrix(1.00, 0.00, -0.00, -1.00, 770.5, 162.0)">h</text><text xml:space="preserve" font-family="Sonus-Bold" font-weight="bold" font-size="37.0" fill="#000000" transform="matrix(1.00, 0.00, -0.00, -1.00, 792.6, 162.0)">i</text><text xml:space="preserve" font-family="Sonus-Bold" font-weight="bold" font-size="37.0" fill="#000000" transform="matrix(1.00, 0.00, -0.00, -1.00, 802.9, 162.0)">r</text><text xml:space="preserve" font-family="Sonus-Bold" font-weight="bold" font-size="37.0" fill="#000000" transform="matrix(1.00, 0.00, -0.00, -1.00, 817.2, 162.0)">i</text><text xml:space="preserve" font-family="Sonus-Bold" font-weight="bold" font-size="37.0" fill="#000000" transform="matrix(1.00, 0.00, -0.00, -1.00, 827.5, 162.0)">n</text><text xml:space="preserve" font-family="Sonus-Bold" font-weight="bold" font-size="37.0" fill="#000000" transform="matrix(1.00, 0.00, -0.00, -1.00, 849.7, 162.0)">g</text><text xml:space="preserve" font-family="Sonus-Bold" font-weight="bold" font-size="37.0" fill="#000000" transform="matrix(1.00, 0.00, -0.00, -1.00, 869.6, 162.0)"> </text><text xml:space="preserve" font-family="Sonus-Bold" font-weight="bold" font-size="37.0" fill="#000000" transform="matrix(1.00, 0.00, -0.00, -1.00, 877.6, 162.0)">p</text><text xml:space="preserve" font-family="Sonus-Bold" font-weight="bold" font-size="37.0" fill="#000000" transform="matrix(1.00, 0.00, -0.00, -1.00, 899.7, 162.0)">r</text><text xml:space="preserve" font-family="Sonus-Bold" font-weight="bold" font-size="37.0" fill="#000000" transform="matrix(1.00, 0.00, -0.00, -1.00, 913.7, 162.0)">o</text><text xml:space="preserve" font-family="Sonus-Bold" font-weight="bold" font-size="37.0" fill="#000000" transform="matrix(1.00, 0.00, -0.00, -1.00, 935.2, 162.0)">c</text><text xml:space="preserve" font-family="Sonus-Bold" font-weight="bold" font-size="37.0" fill="#000000" transform="matrix(1.00, 0.00, -0.00, -1.00, 952.5, 162.0)">e</text><text xml:space="preserve" font-family="Sonus-Bold" font-weight="bold" font-size="37.0" fill="#000000" transform="matrix(1.00, 0.00, -0.00, -1.00, 972.3, 162.0)">s</text><text xml:space="preserve" font-family="Sonus-Bold" font-weight="bold" font-size="37.0" fill="#000000" transform="matrix(1.00, 0.00, -0.00, -1.00, 988.6, 162.0)">s</text><text xml:space="preserve" font-family="Sonus-Bold" font-weight="bold" font-size="37.0" fill="#000000" transform="matrix(1.00, 0.00, -0.00, -1.00, 1004.9, 162.0)"> </text><text xml:space="preserve" font-family="Sonus" font-size="37.0" fill="#5D5D5D" transform="matrix(1.00, 0.00, -0.00, -1.00, 264.0, 112.0)">M</text><text xml:space="preserve" font-family="Sonus" font-size="37.0" fill="#5D5D5D" transform="matrix(1.00, 0.00, -0.00, -1.00, 294.0, 112.0)">a</text><text xml:space="preserve" font-family="Sonus" font-size="37.0" fill="#5D5D5D" transform="matrix(1.00, 0.00, -0.00, -1.00, 312.8, 112.0)">k</text><text xml:space="preserve" font-family="Sonus" font-size="37.0" fill="#5D5D5D" transform="matrix(1.00, 0.00, -0.00, -1.00, 331.5, 112.0)">e</text><text xml:space="preserve" font-family="Sonus" font-size="37.0" fill="#5D5D5D" transform="matrix(1.00, 0.00, -0.00, -1.00, 350.4, 112.0)"> </text><text xml:space="preserve" font-family="Sonus" font-size="37.0" fill="#5D5D5D" transform="matrix(1.00, 0.00, -0.00, -1.00, 358.4, 112.0)">t</text><text xml:space="preserve" font-family="Sonus" font-size="37.0" fill="#5D5D5D" transform="matrix(1.00, 0.00, -0.00, -1.00, 371.0, 112.0)">h</text><text xml:space="preserve" font-family="Sonus" font-size="37.0" fill="#5D5D5D" transform="matrix(1.00, 0.00, -0.00, -1.00, 392.1, 112.0)">e</text><text xml:space="preserve" font-family="Sonus" font-size="37.0" fill="#5D5D5D" transform="matrix(1.00, 0.00, -0.00, -1.00, 411.1, 112.0)"> </text><text xml:space="preserve" font-family="Sonus" font-size="37.0" fill="#5D5D5D" transform="matrix(1.00, 0.00, -0.00, -1.00, 419.1, 112.0)">h</text><text xml:space="preserve" font-family="Sonus" font-size="37.0" fill="#5D5D5D" transform="matrix(1.00, 0.00, -0.00, -1.00, 440.2, 112.0)">i</text><text xml:space="preserve" font-family="Sonus" font-size="37.0" fill="#5D5D5D" transform="matrix(1.00, 0.00, -0.00, -1.00, 449.3, 112.0)">r</text><text xml:space="preserve" font-family="Sonus" font-size="37.0" fill="#5D5D5D" transform="matrix(1.00, 0.00, -0.00, -1.00, 462.2, 112.0)">i</text><text xml:space="preserve" font-family="Sonus" font-size="37.0" fill="#5D5D5D" transform="matrix(1.00, 0.00, -0.00, -1.00, 471.2, 112.0)">n</text><text xml:space="preserve" font-family="Sonus" font-size="37.0" fill="#5D5D5D" transform="matrix(1.00, 0.00, -0.00, -1.00, 492.4, 112.0)">g</text><text xml:space="preserve" font-family="Sonus" font-size="37.0" fill="#5D5D5D" transform="matrix(1.00, 0.00, -0.00, -1.00, 511.1, 112.0)"> </text><text xml:space="preserve" font-family="Sonus" font-size="37.0" fill="#5D5D5D" transform="matrix(1.00, 0.00, -0.00, -1.00, 519.1, 112.0)">p</text><text xml:space="preserve" font-family="Sonus" font-size="37.0" fill="#5D5D5D" transform="matrix(1.00, 0.00, -0.00, -1.00, 540.1, 112.0)">r</text><text xml:space="preserve" font-family="Sonus" font-size="37.0" fill="#5D5D5D" transform="matrix(1.00, 0.00, -0.00, -1.00, 552.6, 112.0)">o</text><text xml:space="preserve" font-family="Sonus" font-size="37.0" fill="#5D5D5D" transform="matrix(1.00, 0.00, -0.00, -1.00, 573.0, 112.0)">c</text><text xml:space="preserve" font-family="Sonus" font-size="37.0" fill="#5D5D5D" transform="matrix(1.00, 0.00, -0.00, -1.00, 589.9, 112.0)">e</text><text xml:space="preserve" font-family="Sonus" font-size="37.0" fill="#5D5D5D" transform="matrix(1.00, 0.00, -0.00, -1.00, 608.8, 112.0)">s</text><text xml:space="preserve" font-family="Sonus" font-size="37.0" fill="#5D5D5D" transform="matrix(1.00, 0.00, -0.00, -1.00, 624.2, 112.0)">s</text><text xml:space="preserve" font-family="Sonus" font-size="37.0" fill="#5D5D5D" transform="matrix(1.00, 0.00, -0.00, -1.00, 639.5, 112.0)"> </text><text xml:space="preserve" font-family="Sonus" font-size="37.0" fill="#5D5D5D" transform="matrix(1.00, 0.00, -0.00, -1.00, 647.5, 112.0)">t</text><text xml:space="preserve" font-family="Sonus" font-size="37.0" fill="#5D5D5D" transform="matrix(1.00, 0.00, -0.00, -1.00, 660.1, 112.0)">r</text><text xml:space="preserve" font-family="Sonus" font-size="37.0" fill="#5D5D5D" transform="matrix(1.00, 0.00, -0.00, -1.00, 672.9, 112.0)">a</text><text xml:space="preserve" font-family="Sonus" font-size="37.0" fill="#5D5D5D" transform="matrix(1.00, 0.00, -0.00, -1.00, 691.7, 112.0)">n</text><text xml:space="preserve" font-family="Sonus" font-size="37.0" fill="#5D5D5D" transform="matrix(1.00, 0.00, -0.00, -1.00, 712.7, 112.0)">s</text><text xml:space="preserve" font-family="Sonus" font-size="37.0" fill="#5D5D5D" transform="matrix(1.00, 0.00, -0.00, -1.00, 728.0, 112.0)">p</text><text xml:space="preserve" font-family="Sonus" font-size="37.0" fill="#5D5D5D" transform="matrix(1.00, 0.00, -0.00, -1.00, 749.0, 112.0)">a</text><text xml:space="preserve" font-family="Sonus" font-size="37.0" fill="#5D5D5D" transform="matrix(1.00, 0.00, -0.00, -1.00, 767.8, 112.0)">r</text><text xml:space="preserve" font-family="Sonus" font-size="37.0" fill="#5D5D5D" transform="matrix(1.00, 0.00, -0.00, -1.00, 780.4, 112.0)">e</text><text xml:space="preserve" font-family="Sonus" font-size="37.0" fill="#5D5D5D" transform="matrix(1.00, 0.00, -0.00, -1.00, 799.4, 112.0)">n</text><text xml:space="preserve" font-family="Sonus" font-size="37.0" fill="#5D5D5D" transform="matrix(1.00, 0.00, -0.00, -1.00, 820.3, 112.0)">t</text><text xml:space="preserve" font-family="Sonus" font-size="37.0" fill="#5D5D5D" transform="matrix(1.00, 0.00, -0.00, -1.00, 832.8, 112.0)"> </text><text xml:space="preserve" font-family="Sonus" font-size="37.0" fill="#5D5D5D" transform="matrix(1.00, 0.00, -0.00, -1.00, -1.0, 61.0)">F</text><text xml:space="preserve" font-family="Sonus" font-size="37.0" fill="#5D5D5D" transform="matrix(1.00, 0.00, -0.00, -1.00, 17.7, 61.0)">e</text><text xml:space="preserve" font-family="Sonus" font-size="37.0" fill="#5D5D5D" transform="matrix(1.00, 0.00, -0.00, -1.00, 36.4, 61.0)">a</text><text xml:space="preserve" font-family="Sonus" font-size="37.0" fill="#5D5D5D" transform="matrix(1.00, 0.00, -0.00, -1.00, 55.3, 61.0)">t</text><text xml:space="preserve" font-family="Sonus" font-size="37.0" fill="#5D5D5D" transform="matrix(1.00, 0.00, -0.00, -1.00, 67.9, 61.0)">u</text><text xml:space="preserve" font-family="Sonus" font-size="37.0" fill="#5D5D5D" transform="matrix(1.00, 0.00, -0.00, -1.00, 89.0, 61.0)">r</text><text xml:space="preserve" font-family="Sonus" font-size="37.0" fill="#5D5D5D" transform="matrix(1.00, 0.00, -0.00, -1.00, 101.6, 61.0)">e</text><text xml:space="preserve" font-family="Sonus" font-size="37.0" fill="#5D5D5D" transform="matrix(1.00, 0.00, -0.00, -1.00, 120.5, 61.0)"> </text><text xml:space="preserve" font-family="Sonus" font-size="37.0" fill="#5D5D5D" transform="matrix(1.00, 0.00, -0.00, -1.00, 128.5, 61.0)">a</text><text xml:space="preserve" font-family="Sonus" font-size="37.0" fill="#5D5D5D" transform="matrix(1.00, 0.00, -0.00, -1.00, 147.4, 61.0)">n</text><text xml:space="preserve" font-family="Sonus" font-size="37.0" fill="#5D5D5D" transform="matrix(1.00, 0.00, -0.00, -1.00, 168.3, 61.0)"> </text><text xml:space="preserve" font-family="Sonus" font-size="37.0" fill="#5D5D5D" transform="matrix(1.00, 0.00, -0.00, -1.00, 176.3, 61.0)">e</text><text xml:space="preserve" font-family="Sonus" font-size="37.0" fill="#5D5D5D" transform="matrix(1.00, 0.00, -0.00, -1.00, 195.3, 61.0)">m</text><text xml:space="preserve" font-family="Sonus" font-size="37.0" fill="#5D5D5D" transform="matrix(1.00, 0.00, -0.00, -1.00, 227.8, 61.0)">p</text><text xml:space="preserve" font-family="Sonus" font-size="37.0" fill="#5D5D5D" transform="matrix(1.00, 0.00, -0.00, -1.00, 248.7, 61.0)">l</text><text xml:space="preserve" font-family="Sonus" font-size="37.0" fill="#5D5D5D" transform="matrix(1.00, 0.00, -0.00, -1.00, 257.7, 61.0)">o</text><text xml:space="preserve" font-family="Sonus" font-size="37.0" fill="#5D5D5D" transform="matrix(1.00, 0.00, -0.00, -1.00, 278.1, 61.0)">y</text><text xml:space="preserve" font-family="Sonus" font-size="37.0" fill="#5D5D5D" transform="matrix(1.00, 0.00, -0.00, -1.00, 295.9, 61.0)">e</text><text xml:space="preserve" font-family="Sonus" font-size="37.0" fill="#5D5D5D" transform="matrix(1.00, 0.00, -0.00, -1.00, 314.9, 61.0)">e</text><text xml:space="preserve" font-family="Sonus" font-size="37.0" fill="#5D5D5D" transform="matrix(1.00, 0.00, -0.00, -1.00, 333.8, 61.0)"> </text><text xml:space="preserve" font-family="Sonus" font-size="37.0" fill="#5D5D5D" transform="matrix(1.00, 0.00, -0.00, -1.00, 341.8, 61.0)">e</text><text xml:space="preserve" font-family="Sonus" font-size="37.0" fill="#5D5D5D" transform="matrix(1.00, 0.00, -0.00, -1.00, 360.6, 61.0)">x</text><text xml:space="preserve" font-family="Sonus" font-size="37.0" fill="#5D5D5D" transform="matrix(1.00, 0.00, -0.00, -1.00, 378.9, 61.0)">p</text><text xml:space="preserve" font-family="Sonus" font-size="37.0" fill="#5D5D5D" transform="matrix(1.00, 0.00, -0.00, -1.00, 399.9, 61.0)">l</text><text xml:space="preserve" font-family="Sonus" font-size="37.0" fill="#5D5D5D" transform="matrix(1.00, 0.00, -0.00, -1.00, 408.9, 61.0)">a</text><text xml:space="preserve" font-family="Sonus" font-size="37.0" fill="#5D5D5D" transform="matrix(1.00, 0.00, -0.00, -1.00, 427.8, 61.0)">i</text><text xml:space="preserve" font-family="Sonus" font-size="37.0" fill="#5D5D5D" transform="matrix(1.00, 0.00, -0.00, -1.00, 436.8, 61.0)">n</text><text xml:space="preserve" font-family="Sonus" font-size="37.0" fill="#5D5D5D" transform="matrix(1.00, 0.00, -0.00, -1.00, 457.7, 61.0)">i</text><text xml:space="preserve" font-family="Sonus" font-size="37.0" fill="#5D5D5D" transform="matrix(1.00, 0.00, -0.00, -1.00, 466.8, 61.0)">n</text><text xml:space="preserve" font-family="Sonus" font-size="37.0" fill="#5D5D5D" transform="matrix(1.00, 0.00, -0.00, -1.00, 487.9, 61.0)">g</text><text xml:space="preserve" font-family="Sonus" font-size="37.0" fill="#5D5D5D" transform="matrix(1.00, 0.00, -0.00, -1.00, 506.7, 61.0)"> </text><text xml:space="preserve" font-family="Sonus" font-size="37.0" fill="#5D5D5D" transform="matrix(1.00, 0.00, -0.00, -1.00, 514.7, 61.0)">t</text><text xml:space="preserve" font-family="Sonus" font-size="37.0" fill="#5D5D5D" transform="matrix(1.00, 0.00, -0.00, -1.00, 527.2, 61.0)">h</text><text xml:space="preserve" font-family="Sonus" font-size="37.0" fill="#5D5D5D" transform="matrix(1.00, 0.00, -0.00, -1.00, 548.4, 61.0)">e</text><text xml:space="preserve" font-family="Sonus" font-size="37.0" fill="#5D5D5D" transform="matrix(1.00, 0.00, -0.00, -1.00, 567.3, 61.0)"> </text><text xml:space="preserve" font-family="Sonus" font-size="37.0" fill="#5D5D5D" transform="matrix(1.00, 0.00, -0.00, -1.00, 575.3, 61.0)">h</text><text xml:space="preserve" font-family="Sonus" font-size="37.0" fill="#5D5D5D" transform="matrix(1.00, 0.00, -0.00, -1.00, 596.5, 61.0)">i</text><text xml:space="preserve" font-family="Sonus" font-size="37.0" fill="#5D5D5D" transform="matrix(1.00, 0.00, -0.00, -1.00, 605.5, 61.0)">r</text><text xml:space="preserve" font-family="Sonus" font-size="37.0" fill="#5D5D5D" transform="matrix(1.00, 0.00, -0.00, -1.00, 618.4, 61.0)">i</text><text xml:space="preserve" font-family="Sonus" font-size="37.0" fill="#5D5D5D" transform="matrix(1.00, 0.00, -0.00, -1.00, 627.4, 61.0)">n</text><text xml:space="preserve" font-family="Sonus" font-size="37.0" fill="#5D5D5D" transform="matrix(1.00, 0.00, -0.00, -1.00, 648.6, 61.0)">g</text><text xml:space="preserve" font-family="Sonus" font-size="37.0" fill="#5D5D5D" transform="matrix(1.00, 0.00, -0.00, -1.00, 667.4, 61.0)"> </text><text xml:space="preserve" font-family="Sonus" font-size="37.0" fill="#5D5D5D" transform="matrix(1.00, 0.00, -0.00, -1.00, 675.4, 61.0)">p</text><text xml:space="preserve" font-family="Sonus" font-size="37.0" fill="#5D5D5D" transform="matrix(1.00, 0.00, -0.00, -1.00, 696.3, 61.0)">r</text><text xml:space="preserve" font-family="Sonus" font-size="37.0" fill="#5D5D5D" transform="matrix(1.00, 0.00, -0.00, -1.00, 708.9, 61.0)">o</text><text xml:space="preserve" font-family="Sonus" font-size="37.0" fill="#5D5D5D" transform="matrix(1.00, 0.00, -0.00, -1.00, 729.3, 61.0)">c</text><text xml:space="preserve" font-family="Sonus" font-size="37.0" fill="#5D5D5D" transform="matrix(1.00, 0.00, -0.00, -1.00, 746.1, 61.0)">e</text><text xml:space="preserve" font-family="Sonus" font-size="37.0" fill="#5D5D5D" transform="matrix(1.00, 0.00, -0.00, -1.00, 765.1, 61.0)">s</text><text xml:space="preserve" font-family="Sonus" font-size="37.0" fill="#5D5D5D" transform="matrix(1.00, 0.00, -0.00, -1.00, 780.4, 61.0)">s</text><text xml:space="preserve" font-family="Sonus" font-size="37.0" fill="#5D5D5D" transform="matrix(1.00, 0.00, -0.00, -1.00, 795.8, 61.0)"> </text><text xml:space="preserve" font-family="Sonus" font-size="37.0" fill="#5D5D5D" transform="matrix(1.00, 0.00, -0.00, -1.00, 803.8, 61.0)">i</text><text xml:space="preserve" font-family="Sonus" font-size="37.0" fill="#5D5D5D" transform="matrix(1.00, 0.00, -0.00, -1.00, 812.8, 61.0)">n</text><text xml:space="preserve" font-family="Sonus" font-size="37.0" fill="#5D5D5D" transform="matrix(1.00, 0.00, -0.00, -1.00, 833.8, 61.0)"> </text><text xml:space="preserve" font-family="Sonus" font-size="37.0" fill="#5D5D5D" transform="matrix(1.00, 0.00, -0.00, -1.00, 841.7, 61.0)">t</text><text xml:space="preserve" font-family="Sonus" font-size="37.0" fill="#5D5D5D" transform="matrix(1.00, 0.00, -0.00, -1.00, 854.3, 61.0)">h</text><text xml:space="preserve" font-family="Sonus" font-size="37.0" fill="#5D5D5D" transform="matrix(1.00, 0.00, -0.00, -1.00, 875.5, 61.0)">e</text><text xml:space="preserve" font-family="Sonus" font-size="37.0" fill="#5D5D5D" transform="matrix(1.00, 0.00, -0.00, -1.00, 894.4, 61.0)">i</text><text xml:space="preserve" font-family="Sonus" font-size="37.0" fill="#5D5D5D" transform="matrix(1.00, 0.00, -0.00, -1.00, 903.4, 61.0)">r</text><text xml:space="preserve" font-family="Sonus" font-size="37.0" fill="#5D5D5D" transform="matrix(1.00, 0.00, -0.00, -1.00, 916.7, 61.0)"> </text><text xml:space="preserve" font-family="Sonus" font-size="37.0" fill="#5D5D5D" transform="matrix(1.00, 0.00, -0.00, -1.00, 924.7, 61.0)">o</text><text xml:space="preserve" font-family="Sonus" font-size="37.0" fill="#5D5D5D" transform="matrix(1.00, 0.00, -0.00, -1.00, 945.5, 61.0)">w</text><text xml:space="preserve" font-family="Sonus" font-size="37.0" fill="#5D5D5D" transform="matrix(1.00, 0.00, -0.00, -1.00, 972.2, 61.0)">n</text><text xml:space="preserve" font-family="Sonus" font-size="37.0" fill="#5D5D5D" transform="matrix(1.00, 0.00, -0.00, -1.00, 993.1, 61.0)"> </text><text xml:space="preserve" font-family="Sonus" font-size="37.0" fill="#5D5D5D" transform="matrix(1.00, 0.00, -0.00, -1.00, 1001.1, 61.0)">w</text><text xml:space="preserve" font-family="Sonus" font-size="37.0" fill="#5D5D5D" transform="matrix(1.00, 0.00, -0.00, -1.00, 1027.8, 61.0)">o</text><text xml:space="preserve" font-family="Sonus" font-size="37.0" fill="#5D5D5D" transform="matrix(1.00, 0.00, -0.00, -1.00, 1048.2, 61.0)">r</text><text xml:space="preserve" font-family="Sonus" font-size="37.0" fill="#5D5D5D" transform="matrix(1.00, 0.00, -0.00, -1.00, 1060.8, 61.0)">d</text><text xml:space="preserve" font-family="Sonus" font-size="37.0" fill="#5D5D5D" transform="matrix(1.00, 0.00, -0.00, -1.00, 1081.7, 61.0)">s</text><text xml:space="preserve" font-family="Sonus" font-size="37.0" fill="#5D5D5D" transform="matrix(1.00, 0.00, -0.00, -1.00, 1097.0, 61.0)"> </text><text xml:space="preserve" font-family="Sonus" font-size="37.0" fill="#5D5D5D" transform="matrix(1.00, 0.00, -0.00, -1.00, 1105.0, 61.0)"> </text><text xml:space="preserve" font-family="Sonus" font-size="37.0" fill="#5D5D5D" transform="matrix(1.00, 0.00, -0.00, -1.00, 240.0, 11.0)">E</text><text xml:space="preserve" font-family="Sonus" font-size="37.0" fill="#5D5D5D" transform="matrix(1.00, 0.00, -0.00, -1.00, 259.9, 11.0)">n</text><text xml:space="preserve" font-family="Sonus" font-size="37.0" fill="#5D5D5D" transform="matrix(1.00, 0.00, -0.00, -1.00, 280.8, 11.0)">c</text><text xml:space="preserve" font-family="Sonus" font-size="37.0" fill="#5D5D5D" transform="matrix(1.00, 0.00, -0.00, -1.00, 297.7, 11.0)">o</text><text xml:space="preserve" font-family="Sonus" font-size="37.0" fill="#5D5D5D" transform="matrix(1.00, 0.00, -0.00, -1.00, 318.1, 11.0)">u</text><text xml:space="preserve" font-family="Sonus" font-size="37.0" fill="#5D5D5D" transform="matrix(1.00, 0.00, -0.00, -1.00, 339.3, 11.0)">r</text><text xml:space="preserve" font-family="Sonus" font-size="37.0" fill="#5D5D5D" transform="matrix(1.00, 0.00, -0.00, -1.00, 352.0, 11.0)">a</text><text xml:space="preserve" font-family="Sonus" font-size="37.0" fill="#5D5D5D" transform="matrix(1.00, 0.00, -0.00, -1.00, 371.1, 11.0)">g</text><text xml:space="preserve" font-family="Sonus" font-size="37.0" fill="#5D5D5D" transform="matrix(1.00, 0.00, -0.00, -1.00, 390.0, 11.0)">e</text><text xml:space="preserve" font-family="Sonus" font-size="37.0" fill="#5D5D5D" transform="matrix(1.00, 0.00, -0.00, -1.00, 409.0, 11.0)"> </text><text xml:space="preserve" font-family="Sonus" font-size="37.0" fill="#5D5D5D" transform="matrix(1.00, 0.00, -0.00, -1.00, 417.0, 11.0)">Q</text><text xml:space="preserve" font-family="Sonus" font-size="37.0" fill="#5D5D5D" transform="matrix(1.00, 0.00, -0.00, -1.00, 443.7, 11.0)">u</text><text xml:space="preserve" font-family="Sonus" font-size="37.0" fill="#5D5D5D" transform="matrix(1.00, 0.00, -0.00, -1.00, 464.8, 11.0)">e</text><text xml:space="preserve" font-family="Sonus" font-size="37.0" fill="#5D5D5D" transform="matrix(1.00, 0.00, -0.00, -1.00, 483.8, 11.0)">s</text><text xml:space="preserve" font-family="Sonus" font-size="37.0" fill="#5D5D5D" transform="matrix(1.00, 0.00, -0.00, -1.00, 499.1, 11.0)">t</text><text xml:space="preserve" font-family="Sonus" font-size="37.0" fill="#5D5D5D" transform="matrix(1.00, 0.00, -0.00, -1.00, 511.7, 11.0)">i</text><text xml:space="preserve" font-family="Sonus" font-size="37.0" fill="#5D5D5D" transform="matrix(1.00, 0.00, -0.00, -1.00, 520.7, 11.0)">o</text><text xml:space="preserve" font-family="Sonus" font-size="37.0" fill="#5D5D5D" transform="matrix(1.00, 0.00, -0.00, -1.00, 541.1, 11.0)">n</text><text xml:space="preserve" font-family="Sonus" font-size="37.0" fill="#5D5D5D" transform="matrix(1.00, 0.00, -0.00, -1.00, 562.0, 11.0)">s</text><text xml:space="preserve" font-family="Sonus" font-size="37.0" fill="#5D5D5D" transform="matrix(1.00, 0.00, -0.00, -1.00, 577.4, 11.0)"> </text><text xml:space="preserve" font-family="Sonus" font-size="37.0" fill="#5D5D5D" transform="matrix(1.00, 0.00, -0.00, -1.00, 585.4, 11.0)">a</text><text xml:space="preserve" font-family="Sonus" font-size="37.0" fill="#5D5D5D" transform="matrix(1.00, 0.00, -0.00, -1.00, 604.3, 11.0)">n</text><text xml:space="preserve" font-family="Sonus" font-size="37.0" fill="#5D5D5D" transform="matrix(1.00, 0.00, -0.00, -1.00, 625.2, 11.0)">d</text><text xml:space="preserve" font-family="Sonus" font-size="37.0" fill="#5D5D5D" transform="matrix(1.00, 0.00, -0.00, -1.00, 646.1, 11.0)"> </text><text xml:space="preserve" font-family="Sonus" font-size="37.0" fill="#5D5D5D" transform="matrix(1.00, 0.00, -0.00, -1.00, 654.1, 11.0)">E</text><text xml:space="preserve" font-family="Sonus" font-size="37.0" fill="#5D5D5D" transform="matrix(1.00, 0.00, -0.00, -1.00, 674.0, 11.0)">n</text><text xml:space="preserve" font-family="Sonus" font-size="37.0" fill="#5D5D5D" transform="matrix(1.00, 0.00, -0.00, -1.00, 695.2, 11.0)">g</text><text xml:space="preserve" font-family="Sonus" font-size="37.0" fill="#5D5D5D" transform="matrix(1.00, 0.00, -0.00, -1.00, 714.0, 11.0)">a</text><text xml:space="preserve" font-family="Sonus" font-size="37.0" fill="#5D5D5D" transform="matrix(1.00, 0.00, -0.00, -1.00, 733.1, 11.0)">g</text><text xml:space="preserve" font-family="Sonus" font-size="37.0" fill="#5D5D5D" transform="matrix(1.00, 0.00, -0.00, -1.00, 752.0, 11.0)">e</text><text xml:space="preserve" font-family="Sonus" font-size="37.0" fill="#5D5D5D" transform="matrix(1.00, 0.00, -0.00, -1.00, 770.9, 11.0)">m</text><text xml:space="preserve" font-family="Sonus" font-size="37.0" fill="#5D5D5D" transform="matrix(1.00, 0.00, -0.00, -1.00, 803.4, 11.0)">e</text><text xml:space="preserve" font-family="Sonus" font-size="37.0" fill="#5D5D5D" transform="matrix(1.00, 0.00, -0.00, -1.00, 822.3, 11.0)">n</text><text xml:space="preserve" font-family="Sonus" font-size="37.0" fill="#5D5D5D" transform="matrix(1.00, 0.00, -0.00, -1.00, 843.3, 11.0)">t</text><text xml:space="preserve" font-family="Sonus" font-size="37.0" fill="#5D5D5D" transform="matrix(1.00, 0.00, -0.00, -1.00, 855.8, 11.0)"> </text></g></svg>