<?xml version="1.0" encoding="UTF-8" standalone="no"?><svg xmlns="http://www.w3.org/2000/svg" xmlns:xlink="http://www.w3.org/1999/xlink" clip-rule="evenodd" stroke-miterlimit="4.00" viewBox="0 0 59 59"><desc>SVG generated by Keynote</desc><defs></defs><g transform="matrix(1.00, 0.00, -0.00, -1.00, 0.0, 59.0)"><g><clipPath id="clip-19295"><path d="M 1.0 2.0 L 57.0 2.0 L 57.0 58.0 L 1.0 58.0 Z M 1.0 2.0 "></path></clipPath><g clip-path="url(#clip-19295)"><path d="M 26.7 47.9 C 16.8 46.6 9.8 37.6 11.1 27.7 C 12.4 17.8 21.4 10.8 31.3 12.1 C 41.2 13.4 48.2 22.4 46.9 32.3 C 45.6 42.2 36.6 49.2 26.7 47.9 M 38.4 33.3 L 35.5 23.8 C 34.1 19.4 37.0 20.6 37.0 20.6 C 37.0 20.6 36.5 18.9 34.1 18.9 C 32.5 18.9 31.6 20.0 31.8 22.1 C 31.8 22.1 31.8 22.3 31.8 22.3 C 31.9 22.9 32.4 24.5 32.4 24.5 C 32.5 24.8 34.6 31.9 34.6 31.9 C 35.0 33.1 35.4 34.2 35.4 34.6 C 35.3 34.9 35.1 35.0 34.9 35.0 C 34.3 35.0 33.3 34.4 32.4 33.2 L 29.3 23.5 L 25.9 23.5 L 28.7 31.9 C 29.1 33.1 29.4 34.2 29.4 34.6 C 29.4 34.9 29.2 35.0 28.9 35.0 C 28.3 35.0 27.4 34.4 26.5 33.3 L 23.3 23.5 L 20.7 23.5 L 20.1 23.5 C 20.1 23.5 19.7 23.5 20.0 23.9 C 20.1 24.0 20.2 24.2 20.3 24.4 C 21.8 27.3 23.9 35.2 23.9 35.2 C 20.9 34.2 18.4 33.6 18.5 32.1 C 18.5 31.6 18.8 31.3 19.1 31.2 C 19.3 31.1 19.5 30.9 19.1 30.8 C 17.9 30.6 15.8 30.3 15.7 32.0 C 15.4 35.1 24.0 36.4 24.8 38.4 C 24.9 38.6 25.0 38.6 25.0 38.6 C 25.0 38.6 26.4 38.6 26.6 38.6 C 27.0 38.6 27.8 38.4 27.2 36.9 L 26.8 35.8 C 28.0 37.5 30.0 38.4 31.0 38.4 C 32.2 38.4 32.9 37.4 33.0 36.4 C 34.3 37.7 35.9 38.4 37.0 38.4 C 38.3 38.4 38.9 37.3 39.0 36.1 C 39.0 35.4 38.8 34.5 38.4 33.3 " fill="#D2D1D1"></path><path d="M 56.3 23.8 C 56.7 25.4 56.9 27.1 57.0 28.8 L 52.8 30.5 L 52.2 35.5 L 55.8 38.3 C 55.3 39.9 54.6 41.5 53.9 42.9 L 49.3 42.4 L 46.3 46.4 L 48.1 50.6 C 46.8 51.7 45.5 52.7 44.1 53.6 L 40.4 50.9 L 35.8 52.8 L 35.2 57.3 C 33.6 57.7 31.9 57.9 30.2 58.0 L 28.5 53.8 L 23.5 53.2 L 20.7 56.8 C 19.1 56.3 17.5 55.6 16.1 54.9 L 16.6 50.3 L 12.6 47.3 L 8.5 49.1 C 7.3 47.8 6.3 46.5 5.4 45.1 L 8.1 41.4 L 6.2 36.8 L 1.7 36.2 C 1.3 34.6 1.1 32.9 1.0 31.2 L 5.2 29.5 L 5.8 24.5 L 2.2 21.7 C 2.7 20.1 3.4 18.5 4.1 17.1 L 8.7 17.6 L 11.7 13.6 L 9.9 9.5 C 11.2 8.3 12.5 7.3 13.9 6.4 L 17.6 9.1 L 22.2 7.2 L 22.8 2.7 C 24.4 2.3 26.1 2.1 27.8 2.0 L 29.5 6.2 L 34.5 6.8 L 37.3 3.2 C 38.9 3.7 40.5 4.4 41.9 5.1 L 41.4 9.7 L 45.4 12.7 L 49.5 11.0 C 50.7 12.2 51.7 13.5 52.6 14.9 L 49.9 18.6 L 51.8 23.2 Z M 31.7 8.9 C 20.1 7.4 9.4 15.7 7.9 27.3 C 6.4 38.9 14.7 49.6 26.3 51.1 C 37.9 52.6 48.6 44.3 50.1 32.7 C 51.6 21.1 43.3 10.4 31.7 8.9 " fill="#D2D1D1"></path></g></g></g></svg>