<?xml version="1.0" encoding="UTF-8" standalone="no"?><svg xmlns="http://www.w3.org/2000/svg" xmlns:xlink="http://www.w3.org/1999/xlink" clip-rule="evenodd" stroke-miterlimit="4.00" viewBox="0 0 102 18"><desc>SVG generated by Keynote</desc><defs></defs><g transform="matrix(1.00, 0.00, -0.00, -1.00, 0.0, 18.0)"><text xml:space="preserve" font-family="AkkuratStd" font-size="14.0" fill="#52575F" transform="matrix(1.00, 0.00, -0.00, -1.00, 1.0, 6.0)">R</text><text xml:space="preserve" font-family="AkkuratStd" font-size="14.0" fill="#52575F" transform="matrix(1.00, 0.00, -0.00, -1.00, 10.1, 6.0)">e</text><text xml:space="preserve" font-family="AkkuratStd" font-size="14.0" fill="#52575F" transform="matrix(1.00, 0.00, -0.00, -1.00, 17.8, 6.0)">s</text><text xml:space="preserve" font-family="AkkuratStd" font-size="14.0" fill="#52575F" transform="matrix(1.00, 0.00, -0.00, -1.00, 25.1, 6.0)">u</text><text xml:space="preserve" font-family="AkkuratStd" font-size="14.0" fill="#52575F" transform="matrix(1.00, 0.00, -0.00, -1.00, 33.3, 6.0)">m</text><text xml:space="preserve" font-family="AkkuratStd" font-size="14.0" fill="#52575F" transform="matrix(1.00, 0.00, -0.00, -1.00, 45.6, 6.0)">e</text><text xml:space="preserve" font-family="AkkuratStd" font-size="14.0" fill="#52575F" transform="matrix(1.00, 0.00, -0.00, -1.00, 53.3, 6.0)"> </text><text xml:space="preserve" font-family="AkkuratStd" font-size="14.0" fill="#52575F" transform="matrix(1.00, 0.00, -0.00, -1.00, 56.5, 6.0)">u</text><text xml:space="preserve" font-family="AkkuratStd" font-size="14.0" fill="#52575F" transform="matrix(1.00, 0.00, -0.00, -1.00, 64.7, 6.0)">p</text><text xml:space="preserve" font-family="AkkuratStd" font-size="14.0" fill="#52575F" transform="matrix(1.00, 0.00, -0.00, -1.00, 73.0, 6.0)">l</text><text xml:space="preserve" font-family="AkkuratStd" font-size="14.0" fill="#52575F" transform="matrix(1.00, 0.00, -0.00, -1.00, 77.0, 6.0)">o</text><text xml:space="preserve" font-family="AkkuratStd" font-size="14.0" fill="#52575F" transform="matrix(1.00, 0.00, -0.00, -1.00, 84.8, 6.0)">a</text><text xml:space="preserve" font-family="AkkuratStd" font-size="14.0" fill="#52575F" transform="matrix(1.00, 0.00, -0.00, -1.00, 92.6, 6.0)">d</text></g></svg>