<?xml version="1.0" encoding="UTF-8" standalone="no"?><svg xmlns="http://www.w3.org/2000/svg" xmlns:xlink="http://www.w3.org/1999/xlink" clip-rule="evenodd" stroke-miterlimit="4.00" viewBox="0 0 155 18"><desc>SVG generated by Keynote</desc><defs></defs><g transform="matrix(1.00, 0.00, -0.00, -1.00, 0.0, 18.0)"><text xml:space="preserve" font-family="AkkuratStd-Bold" font-weight="bold" font-size="14.0" fill="#52575F" transform="matrix(1.00, 0.00, -0.00, -1.00, 1.6, 5.6)">C</text><text xml:space="preserve" font-family="AkkuratStd-Bold" font-weight="bold" font-size="14.0" fill="#52575F" transform="matrix(1.00, 0.00, -0.00, -1.00, 10.4, 5.6)">a</text><text xml:space="preserve" font-family="AkkuratStd-Bold" font-weight="bold" font-size="14.0" fill="#52575F" transform="matrix(1.00, 0.00, -0.00, -1.00, 18.3, 5.6)">n</text><text xml:space="preserve" font-family="AkkuratStd-Bold" font-weight="bold" font-size="14.0" fill="#52575F" transform="matrix(1.00, 0.00, -0.00, -1.00, 26.5, 5.6)">d</text><text xml:space="preserve" font-family="AkkuratStd-Bold" font-weight="bold" font-size="14.0" fill="#52575F" transform="matrix(1.00, 0.00, -0.00, -1.00, 34.9, 5.6)">i</text><text xml:space="preserve" font-family="AkkuratStd-Bold" font-weight="bold" font-size="14.0" fill="#52575F" transform="matrix(1.00, 0.00, -0.00, -1.00, 38.9, 5.6)">d</text><text xml:space="preserve" font-family="AkkuratStd-Bold" font-weight="bold" font-size="14.0" fill="#52575F" transform="matrix(1.00, 0.00, -0.00, -1.00, 47.4, 5.6)">a</text><text xml:space="preserve" font-family="AkkuratStd-Bold" font-weight="bold" font-size="14.0" fill="#52575F" transform="matrix(1.00, 0.00, -0.00, -1.00, 55.2, 5.6)">t</text><text xml:space="preserve" font-family="AkkuratStd-Bold" font-weight="bold" font-size="14.0" fill="#52575F" transform="matrix(1.00, 0.00, -0.00, -1.00, 60.6, 5.6)">e</text><text xml:space="preserve" font-family="AkkuratStd-Bold" font-weight="bold" font-size="14.0" fill="#52575F" transform="matrix(1.00, 0.00, -0.00, -1.00, 68.4, 5.6)"> </text><text xml:space="preserve" font-family="AkkuratStd-Bold" font-weight="bold" font-size="14.0" fill="#52575F" transform="matrix(1.00, 0.00, -0.00, -1.00, 71.3, 5.6)">E</text><text xml:space="preserve" font-family="AkkuratStd-Bold" font-weight="bold" font-size="14.0" fill="#52575F" transform="matrix(1.00, 0.00, -0.00, -1.00, 80.1, 5.6)">n</text><text xml:space="preserve" font-family="AkkuratStd-Bold" font-weight="bold" font-size="14.0" fill="#52575F" transform="matrix(1.00, 0.00, -0.00, -1.00, 88.4, 5.6)">g</text><text xml:space="preserve" font-family="AkkuratStd-Bold" font-weight="bold" font-size="14.0" fill="#52575F" transform="matrix(1.00, 0.00, -0.00, -1.00, 96.1, 5.6)">a</text><text xml:space="preserve" font-family="AkkuratStd-Bold" font-weight="bold" font-size="14.0" fill="#52575F" transform="matrix(1.00, 0.00, -0.00, -1.00, 104.0, 5.6)">g</text><text xml:space="preserve" font-family="AkkuratStd-Bold" font-weight="bold" font-size="14.0" fill="#52575F" transform="matrix(1.00, 0.00, -0.00, -1.00, 111.6, 5.6)">e</text><text xml:space="preserve" font-family="AkkuratStd-Bold" font-weight="bold" font-size="14.0" fill="#52575F" transform="matrix(1.00, 0.00, -0.00, -1.00, 119.4, 5.6)">m</text><text xml:space="preserve" font-family="AkkuratStd-Bold" font-weight="bold" font-size="14.0" fill="#52575F" transform="matrix(1.00, 0.00, -0.00, -1.00, 131.8, 5.6)">e</text><text xml:space="preserve" font-family="AkkuratStd-Bold" font-weight="bold" font-size="14.0" fill="#52575F" transform="matrix(1.00, 0.00, -0.00, -1.00, 139.6, 5.6)">n</text><text xml:space="preserve" font-family="AkkuratStd-Bold" font-weight="bold" font-size="14.0" fill="#52575F" transform="matrix(1.00, 0.00, -0.00, -1.00, 147.8, 5.6)">t</text></g></svg>