<?xml version="1.0" encoding="UTF-8" standalone="no"?><svg xmlns="http://www.w3.org/2000/svg" xmlns:xlink="http://www.w3.org/1999/xlink" clip-rule="evenodd" stroke-miterlimit="4.00" viewBox="0 0 161 18"><desc>SVG generated by Keynote</desc><defs></defs><g transform="matrix(1.00, 0.00, -0.00, -1.00, 0.0, 18.0)"><text xml:space="preserve" font-family="AkkuratStd-Bold" font-weight="bold" font-size="14.0" fill="#52575F" transform="matrix(1.00, 0.00, -0.00, -1.00, 1.0, 6.0)">F</text><text xml:space="preserve" font-family="AkkuratStd-Bold" font-weight="bold" font-size="14.0" fill="#52575F" transform="matrix(1.00, 0.00, -0.00, -1.00, 9.0, 6.0)">o</text><text xml:space="preserve" font-family="AkkuratStd-Bold" font-weight="bold" font-size="14.0" fill="#52575F" transform="matrix(1.00, 0.00, -0.00, -1.00, 17.0, 6.0)">c</text><text xml:space="preserve" font-family="AkkuratStd-Bold" font-weight="bold" font-size="14.0" fill="#52575F" transform="matrix(1.00, 0.00, -0.00, -1.00, 24.4, 6.0)">u</text><text xml:space="preserve" font-family="AkkuratStd-Bold" font-weight="bold" font-size="14.0" fill="#52575F" transform="matrix(1.00, 0.00, -0.00, -1.00, 32.7, 6.0)">s</text><text xml:space="preserve" font-family="AkkuratStd-Bold" font-weight="bold" font-size="14.0" fill="#52575F" transform="matrix(1.00, 0.00, -0.00, -1.00, 40.0, 6.0)">e</text><text xml:space="preserve" font-family="AkkuratStd-Bold" font-weight="bold" font-size="14.0" fill="#52575F" transform="matrix(1.00, 0.00, -0.00, -1.00, 47.8, 6.0)">d</text><text xml:space="preserve" font-family="AkkuratStd-Bold" font-weight="bold" font-size="14.0" fill="#52575F" transform="matrix(1.00, 0.00, -0.00, -1.00, 56.2, 6.0)"> </text><text xml:space="preserve" font-family="AkkuratStd-Bold" font-weight="bold" font-size="14.0" fill="#52575F" transform="matrix(1.00, 0.00, -0.00, -1.00, 59.1, 6.0)">h</text><text xml:space="preserve" font-family="AkkuratStd-Bold" font-weight="bold" font-size="14.0" fill="#52575F" transform="matrix(1.00, 0.00, -0.00, -1.00, 67.4, 6.0)">i</text><text xml:space="preserve" font-family="AkkuratStd-Bold" font-weight="bold" font-size="14.0" fill="#52575F" transform="matrix(1.00, 0.00, -0.00, -1.00, 71.4, 6.0)">r</text><text xml:space="preserve" font-family="AkkuratStd-Bold" font-weight="bold" font-size="14.0" fill="#52575F" transform="matrix(1.00, 0.00, -0.00, -1.00, 76.9, 6.0)">i</text><text xml:space="preserve" font-family="AkkuratStd-Bold" font-weight="bold" font-size="14.0" fill="#52575F" transform="matrix(1.00, 0.00, -0.00, -1.00, 80.9, 6.0)">n</text><text xml:space="preserve" font-family="AkkuratStd-Bold" font-weight="bold" font-size="14.0" fill="#52575F" transform="matrix(1.00, 0.00, -0.00, -1.00, 89.2, 6.0)">g</text><text xml:space="preserve" font-family="AkkuratStd-Bold" font-weight="bold" font-size="14.0" fill="#52575F" transform="matrix(1.00, 0.00, -0.00, -1.00, 96.9, 6.0)"> </text><text xml:space="preserve" font-family="AkkuratStd-Bold" font-weight="bold" font-size="14.0" fill="#52575F" transform="matrix(1.00, 0.00, -0.00, -1.00, 99.9, 6.0)">l</text><text xml:space="preserve" font-family="AkkuratStd-Bold" font-weight="bold" font-size="14.0" fill="#52575F" transform="matrix(1.00, 0.00, -0.00, -1.00, 104.1, 6.0)">a</text><text xml:space="preserve" font-family="AkkuratStd-Bold" font-weight="bold" font-size="14.0" fill="#52575F" transform="matrix(1.00, 0.00, -0.00, -1.00, 112.0, 6.0)">n</text><text xml:space="preserve" font-family="AkkuratStd-Bold" font-weight="bold" font-size="14.0" fill="#52575F" transform="matrix(1.00, 0.00, -0.00, -1.00, 120.2, 6.0)">g</text><text xml:space="preserve" font-family="AkkuratStd-Bold" font-weight="bold" font-size="14.0" fill="#52575F" transform="matrix(1.00, 0.00, -0.00, -1.00, 127.8, 6.0)">u</text><text xml:space="preserve" font-family="AkkuratStd-Bold" font-weight="bold" font-size="14.0" fill="#52575F" transform="matrix(1.00, 0.00, -0.00, -1.00, 136.1, 6.0)">a</text><text xml:space="preserve" font-family="AkkuratStd-Bold" font-weight="bold" font-size="14.0" fill="#52575F" transform="matrix(1.00, 0.00, -0.00, -1.00, 143.9, 6.0)">g</text><text xml:space="preserve" font-family="AkkuratStd-Bold" font-weight="bold" font-size="14.0" fill="#52575F" transform="matrix(1.00, 0.00, -0.00, -1.00, 151.5, 6.0)">e</text></g></svg>