<?xml version="1.0" encoding="UTF-8" standalone="no"?><svg xmlns="http://www.w3.org/2000/svg" xmlns:xlink="http://www.w3.org/1999/xlink" clip-rule="evenodd" stroke-miterlimit="4.00" viewBox="0 0 137 18"><desc>SVG generated by Keynote</desc><defs></defs><g transform="matrix(1.00, 0.00, -0.00, -1.00, 0.0, 18.0)"><text xml:space="preserve" font-family="AkkuratStd-Bold" font-weight="bold" font-size="14.0" fill="#52575F" transform="matrix(1.00, 0.00, -0.00, -1.00, 2.0, 6.0)">S</text><text xml:space="preserve" font-family="AkkuratStd-Bold" font-weight="bold" font-size="14.0" fill="#52575F" transform="matrix(1.00, 0.00, -0.00, -1.00, 10.8, 6.0)">t</text><text xml:space="preserve" font-family="AkkuratStd-Bold" font-weight="bold" font-size="14.0" fill="#52575F" transform="matrix(1.00, 0.00, -0.00, -1.00, 16.4, 6.0)">r</text><text xml:space="preserve" font-family="AkkuratStd-Bold" font-weight="bold" font-size="14.0" fill="#52575F" transform="matrix(1.00, 0.00, -0.00, -1.00, 21.8, 6.0)">a</text><text xml:space="preserve" font-family="AkkuratStd-Bold" font-weight="bold" font-size="14.0" fill="#52575F" transform="matrix(1.00, 0.00, -0.00, -1.00, 29.6, 6.0)">t</text><text xml:space="preserve" font-family="AkkuratStd-Bold" font-weight="bold" font-size="14.0" fill="#52575F" transform="matrix(1.00, 0.00, -0.00, -1.00, 35.1, 6.0)">e</text><text xml:space="preserve" font-family="AkkuratStd-Bold" font-weight="bold" font-size="14.0" fill="#52575F" transform="matrix(1.00, 0.00, -0.00, -1.00, 42.9, 6.0)">g</text><text xml:space="preserve" font-family="AkkuratStd-Bold" font-weight="bold" font-size="14.0" fill="#52575F" transform="matrix(1.00, 0.00, -0.00, -1.00, 50.6, 6.0)">i</text><text xml:space="preserve" font-family="AkkuratStd-Bold" font-weight="bold" font-size="14.0" fill="#52575F" transform="matrix(1.00, 0.00, -0.00, -1.00, 54.6, 6.0)">c</text><text xml:space="preserve" font-family="AkkuratStd-Bold" font-weight="bold" font-size="14.0" fill="#52575F" transform="matrix(1.00, 0.00, -0.00, -1.00, 62.0, 6.0)"> </text><text xml:space="preserve" font-family="AkkuratStd-Bold" font-weight="bold" font-size="14.0" fill="#52575F" transform="matrix(1.00, 0.00, -0.00, -1.00, 65.0, 6.0)">m</text><text xml:space="preserve" font-family="AkkuratStd-Bold" font-weight="bold" font-size="14.0" fill="#52575F" transform="matrix(1.00, 0.00, -0.00, -1.00, 77.4, 6.0)">e</text><text xml:space="preserve" font-family="AkkuratStd-Bold" font-weight="bold" font-size="14.0" fill="#52575F" transform="matrix(1.00, 0.00, -0.00, -1.00, 85.2, 6.0)">s</text><text xml:space="preserve" font-family="AkkuratStd-Bold" font-weight="bold" font-size="14.0" fill="#52575F" transform="matrix(1.00, 0.00, -0.00, -1.00, 92.5, 6.0)">s</text><text xml:space="preserve" font-family="AkkuratStd-Bold" font-weight="bold" font-size="14.0" fill="#52575F" transform="matrix(1.00, 0.00, -0.00, -1.00, 99.7, 6.0)">a</text><text xml:space="preserve" font-family="AkkuratStd-Bold" font-weight="bold" font-size="14.0" fill="#52575F" transform="matrix(1.00, 0.00, -0.00, -1.00, 107.6, 6.0)">g</text><text xml:space="preserve" font-family="AkkuratStd-Bold" font-weight="bold" font-size="14.0" fill="#52575F" transform="matrix(1.00, 0.00, -0.00, -1.00, 115.3, 6.0)">i</text><text xml:space="preserve" font-family="AkkuratStd-Bold" font-weight="bold" font-size="14.0" fill="#52575F" transform="matrix(1.00, 0.00, -0.00, -1.00, 119.3, 6.0)">n</text><text xml:space="preserve" font-family="AkkuratStd-Bold" font-weight="bold" font-size="14.0" fill="#52575F" transform="matrix(1.00, 0.00, -0.00, -1.00, 127.6, 6.0)">g</text></g></svg>