<?xml version="1.0" encoding="UTF-8" standalone="no"?><svg xmlns="http://www.w3.org/2000/svg" xmlns:xlink="http://www.w3.org/1999/xlink" clip-rule="evenodd" stroke-miterlimit="4.00" viewBox="0 0 95 16"><desc>SVG generated by Keynote</desc><defs></defs><g transform="matrix(1.00, 0.00, -0.00, -1.00, 0.0, 16.0)"><text xml:space="preserve" font-family="AkkuratStd-Bold" font-weight="bold" font-size="14.0" fill="#52575F" transform="matrix(1.00, 0.00, -0.00, -1.00, 1.5, 3.3)">Q</text><text xml:space="preserve" font-family="AkkuratStd-Bold" font-weight="bold" font-size="14.0" fill="#52575F" transform="matrix(1.00, 0.00, -0.00, -1.00, 11.0, 3.3)">u</text><text xml:space="preserve" font-family="AkkuratStd-Bold" font-weight="bold" font-size="14.0" fill="#52575F" transform="matrix(1.00, 0.00, -0.00, -1.00, 19.2, 3.3)">e</text><text xml:space="preserve" font-family="AkkuratStd-Bold" font-weight="bold" font-size="14.0" fill="#52575F" transform="matrix(1.00, 0.00, -0.00, -1.00, 27.0, 3.3)">s</text><text xml:space="preserve" font-family="AkkuratStd-Bold" font-weight="bold" font-size="14.0" fill="#52575F" transform="matrix(1.00, 0.00, -0.00, -1.00, 34.2, 3.3)">t</text><text xml:space="preserve" font-family="AkkuratStd-Bold" font-weight="bold" font-size="14.0" fill="#52575F" transform="matrix(1.00, 0.00, -0.00, -1.00, 39.8, 3.3)">i</text><text xml:space="preserve" font-family="AkkuratStd-Bold" font-weight="bold" font-size="14.0" fill="#52575F" transform="matrix(1.00, 0.00, -0.00, -1.00, 43.8, 3.3)">o</text><text xml:space="preserve" font-family="AkkuratStd-Bold" font-weight="bold" font-size="14.0" fill="#52575F" transform="matrix(1.00, 0.00, -0.00, -1.00, 51.8, 3.3)">n</text><text xml:space="preserve" font-family="AkkuratStd-Bold" font-weight="bold" font-size="14.0" fill="#52575F" transform="matrix(1.00, 0.00, -0.00, -1.00, 60.1, 3.3)">n</text><text xml:space="preserve" font-family="AkkuratStd-Bold" font-weight="bold" font-size="14.0" fill="#52575F" transform="matrix(1.00, 0.00, -0.00, -1.00, 68.4, 3.3)">a</text><text xml:space="preserve" font-family="AkkuratStd-Bold" font-weight="bold" font-size="14.0" fill="#52575F" transform="matrix(1.00, 0.00, -0.00, -1.00, 76.2, 3.3)">i</text><text xml:space="preserve" font-family="AkkuratStd-Bold" font-weight="bold" font-size="14.0" fill="#52575F" transform="matrix(1.00, 0.00, -0.00, -1.00, 80.2, 3.3)">r</text><text xml:space="preserve" font-family="AkkuratStd-Bold" font-weight="bold" font-size="14.0" fill="#52575F" transform="matrix(1.00, 0.00, -0.00, -1.00, 85.6, 3.3)">e</text></g></svg>