<?xml version="1.0" encoding="UTF-8" standalone="no"?><svg xmlns="http://www.w3.org/2000/svg" xmlns:xlink="http://www.w3.org/1999/xlink" clip-rule="evenodd" stroke-miterlimit="4.00" viewBox="0 0 928 191"><desc>SVG generated by Keynote</desc><defs></defs><g transform="matrix(1.00, 0.00, -0.00, -1.00, 0.0, 191.0)"><text xml:space="preserve" font-family="Sonus-Bold" font-weight="bold" font-size="37.0" fill="#000000" transform="matrix(1.00, 0.00, -0.00, -1.00, -1.0, 162.0)">I</text><text xml:space="preserve" font-family="Sonus-Bold" font-weight="bold" font-size="37.0" fill="#000000" transform="matrix(1.00, 0.00, -0.00, -1.00, 10.0, 162.0)">n</text><text xml:space="preserve" font-family="Sonus-Bold" font-weight="bold" font-size="37.0" fill="#000000" transform="matrix(1.00, 0.00, -0.00, -1.00, 32.0, 162.0)">s</text><text xml:space="preserve" font-family="Sonus-Bold" font-weight="bold" font-size="37.0" fill="#000000" transform="matrix(1.00, 0.00, -0.00, -1.00, 48.3, 162.0)">p</text><text xml:space="preserve" font-family="Sonus-Bold" font-weight="bold" font-size="37.0" fill="#000000" transform="matrix(1.00, 0.00, -0.00, -1.00, 70.5, 162.0)">i</text><text xml:space="preserve" font-family="Sonus-Bold" font-weight="bold" font-size="37.0" fill="#000000" transform="matrix(1.00, 0.00, -0.00, -1.00, 80.8, 162.0)">r</text><text xml:space="preserve" font-family="Sonus-Bold" font-weight="bold" font-size="37.0" fill="#000000" transform="matrix(1.00, 0.00, -0.00, -1.00, 94.8, 162.0)">e</text><text xml:space="preserve" font-family="Sonus-Bold" font-weight="bold" font-size="37.0" fill="#000000" transform="matrix(1.00, 0.00, -0.00, -1.00, 114.5, 162.0)"> </text><text xml:space="preserve" font-family="Sonus-Bold" font-weight="bold" font-size="37.0" fill="#000000" transform="matrix(1.00, 0.00, -0.00, -1.00, 122.5, 162.0)">c</text><text xml:space="preserve" font-family="Sonus-Bold" font-weight="bold" font-size="37.0" fill="#000000" transform="matrix(1.00, 0.00, -0.00, -1.00, 140.1, 162.0)">a</text><text xml:space="preserve" font-family="Sonus-Bold" font-weight="bold" font-size="37.0" fill="#000000" transform="matrix(1.00, 0.00, -0.00, -1.00, 159.9, 162.0)">n</text><text xml:space="preserve" font-family="Sonus-Bold" font-weight="bold" font-size="37.0" fill="#000000" transform="matrix(1.00, 0.00, -0.00, -1.00, 181.9, 162.0)">d</text><text xml:space="preserve" font-family="Sonus-Bold" font-weight="bold" font-size="37.0" fill="#000000" transform="matrix(1.00, 0.00, -0.00, -1.00, 204.1, 162.0)">i</text><text xml:space="preserve" font-family="Sonus-Bold" font-weight="bold" font-size="37.0" fill="#000000" transform="matrix(1.00, 0.00, -0.00, -1.00, 214.4, 162.0)">d</text><text xml:space="preserve" font-family="Sonus-Bold" font-weight="bold" font-size="37.0" fill="#000000" transform="matrix(1.00, 0.00, -0.00, -1.00, 236.5, 162.0)">a</text><text xml:space="preserve" font-family="Sonus-Bold" font-weight="bold" font-size="37.0" fill="#000000" transform="matrix(1.00, 0.00, -0.00, -1.00, 256.3, 162.0)">t</text><text xml:space="preserve" font-family="Sonus-Bold" font-weight="bold" font-size="37.0" fill="#000000" transform="matrix(1.00, 0.00, -0.00, -1.00, 270.1, 162.0)">e</text><text xml:space="preserve" font-family="Sonus-Bold" font-weight="bold" font-size="37.0" fill="#000000" transform="matrix(1.00, 0.00, -0.00, -1.00, 289.8, 162.0)">s</text><text xml:space="preserve" font-family="Sonus-Bold" font-weight="bold" font-size="37.0" fill="#000000" transform="matrix(1.00, 0.00, -0.00, -1.00, 306.1, 162.0)"> </text><text xml:space="preserve" font-family="Sonus-Bold" font-weight="bold" font-size="37.0" fill="#000000" transform="matrix(1.00, 0.00, -0.00, -1.00, 314.1, 162.0)">s</text><text xml:space="preserve" font-family="Sonus-Bold" font-weight="bold" font-size="37.0" fill="#000000" transform="matrix(1.00, 0.00, -0.00, -1.00, 330.7, 162.0)">o</text><text xml:space="preserve" font-family="Sonus-Bold" font-weight="bold" font-size="37.0" fill="#000000" transform="matrix(1.00, 0.00, -0.00, -1.00, 352.1, 162.0)"> </text><text xml:space="preserve" font-family="Sonus-Bold" font-weight="bold" font-size="37.0" fill="#000000" transform="matrix(1.00, 0.00, -0.00, -1.00, 360.1, 162.0)">t</text><text xml:space="preserve" font-family="Sonus-Bold" font-weight="bold" font-size="37.0" fill="#000000" transform="matrix(1.00, 0.00, -0.00, -1.00, 373.9, 162.0)">h</text><text xml:space="preserve" font-family="Sonus-Bold" font-weight="bold" font-size="37.0" fill="#000000" transform="matrix(1.00, 0.00, -0.00, -1.00, 396.0, 162.0)">e</text><text xml:space="preserve" font-family="Sonus-Bold" font-weight="bold" font-size="37.0" fill="#000000" transform="matrix(1.00, 0.00, -0.00, -1.00, 415.5, 162.0)">y</text><text xml:space="preserve" font-family="Sonus-Bold" font-weight="bold" font-size="37.0" fill="#000000" transform="matrix(1.00, 0.00, -0.00, -1.00, 435.6, 162.0)"> </text><text xml:space="preserve" font-family="Sonus-Bold" font-weight="bold" font-size="37.0" fill="#000000" transform="matrix(1.00, 0.00, -0.00, -1.00, 443.6, 162.0)">a</text><text xml:space="preserve" font-family="Sonus-Bold" font-weight="bold" font-size="37.0" fill="#000000" transform="matrix(1.00, 0.00, -0.00, -1.00, 463.4, 162.0)">r</text><text xml:space="preserve" font-family="Sonus-Bold" font-weight="bold" font-size="37.0" fill="#000000" transform="matrix(1.00, 0.00, -0.00, -1.00, 477.3, 162.0)">e</text><text xml:space="preserve" font-family="Sonus-Bold" font-weight="bold" font-size="37.0" fill="#000000" transform="matrix(1.00, 0.00, -0.00, -1.00, 497.0, 162.0)"> </text><text xml:space="preserve" font-family="Sonus-Bold" font-weight="bold" font-size="37.0" fill="#000000" transform="matrix(1.00, 0.00, -0.00, -1.00, 505.0, 162.0)">p</text><text xml:space="preserve" font-family="Sonus-Bold" font-weight="bold" font-size="37.0" fill="#000000" transform="matrix(1.00, 0.00, -0.00, -1.00, 527.2, 162.0)">r</text><text xml:space="preserve" font-family="Sonus-Bold" font-weight="bold" font-size="37.0" fill="#000000" transform="matrix(1.00, 0.00, -0.00, -1.00, 541.5, 162.0)">i</text><text xml:space="preserve" font-family="Sonus-Bold" font-weight="bold" font-size="37.0" fill="#000000" transform="matrix(1.00, 0.00, -0.00, -1.00, 551.8, 162.0)">m</text><text xml:space="preserve" font-family="Sonus-Bold" font-weight="bold" font-size="37.0" fill="#000000" transform="matrix(1.00, 0.00, -0.00, -1.00, 585.1, 162.0)">e</text><text xml:space="preserve" font-family="Sonus-Bold" font-weight="bold" font-size="37.0" fill="#000000" transform="matrix(1.00, 0.00, -0.00, -1.00, 604.8, 162.0)">d</text><text xml:space="preserve" font-family="Sonus-Bold" font-weight="bold" font-size="37.0" fill="#000000" transform="matrix(1.00, 0.00, -0.00, -1.00, 627.0, 162.0)"> </text><text xml:space="preserve" font-family="Sonus-Bold" font-weight="bold" font-size="37.0" fill="#000000" transform="matrix(1.00, 0.00, -0.00, -1.00, 635.0, 162.0)">t</text><text xml:space="preserve" font-family="Sonus-Bold" font-weight="bold" font-size="37.0" fill="#000000" transform="matrix(1.00, 0.00, -0.00, -1.00, 648.8, 162.0)">o</text><text xml:space="preserve" font-family="Sonus-Bold" font-weight="bold" font-size="37.0" fill="#000000" transform="matrix(1.00, 0.00, -0.00, -1.00, 670.2, 162.0)"> </text><text xml:space="preserve" font-family="Sonus-Bold" font-weight="bold" font-size="37.0" fill="#000000" transform="matrix(1.00, 0.00, -0.00, -1.00, 678.2, 162.0)">a</text><text xml:space="preserve" font-family="Sonus-Bold" font-weight="bold" font-size="37.0" fill="#000000" transform="matrix(1.00, 0.00, -0.00, -1.00, 698.0, 162.0)">c</text><text xml:space="preserve" font-family="Sonus-Bold" font-weight="bold" font-size="37.0" fill="#000000" transform="matrix(1.00, 0.00, -0.00, -1.00, 715.4, 162.0)">c</text><text xml:space="preserve" font-family="Sonus-Bold" font-weight="bold" font-size="37.0" fill="#000000" transform="matrix(1.00, 0.00, -0.00, -1.00, 732.8, 162.0)">e</text><text xml:space="preserve" font-family="Sonus-Bold" font-weight="bold" font-size="37.0" fill="#000000" transform="matrix(1.00, 0.00, -0.00, -1.00, 752.5, 162.0)">p</text><text xml:space="preserve" font-family="Sonus-Bold" font-weight="bold" font-size="37.0" fill="#000000" transform="matrix(1.00, 0.00, -0.00, -1.00, 774.7, 162.0)">t</text><text xml:space="preserve" font-family="Sonus-Bold" font-weight="bold" font-size="37.0" fill="#000000" transform="matrix(1.00, 0.00, -0.00, -1.00, 788.4, 162.0)"> </text><text xml:space="preserve" font-family="Sonus-Bold" font-weight="bold" font-size="37.0" fill="#000000" transform="matrix(1.00, 0.00, -0.00, -1.00, 796.4, 162.0)">a</text><text xml:space="preserve" font-family="Sonus-Bold" font-weight="bold" font-size="37.0" fill="#000000" transform="matrix(1.00, 0.00, -0.00, -1.00, 816.2, 162.0)">n</text><text xml:space="preserve" font-family="Sonus-Bold" font-weight="bold" font-size="37.0" fill="#000000" transform="matrix(1.00, 0.00, -0.00, -1.00, 838.2, 162.0)"> </text><text xml:space="preserve" font-family="Sonus-Bold" font-weight="bold" font-size="37.0" fill="#000000" transform="matrix(1.00, 0.00, -0.00, -1.00, 846.2, 162.0)">o</text><text xml:space="preserve" font-family="Sonus-Bold" font-weight="bold" font-size="37.0" fill="#000000" transform="matrix(1.00, 0.00, -0.00, -1.00, 867.7, 162.0)">ﬀ</text><text xml:space="preserve" font-family="Sonus-Bold" font-weight="bold" font-size="37.0" fill="#000000" transform="matrix(1.00, 0.00, -0.00, -1.00, 891.6, 162.0)">e</text><text xml:space="preserve" font-family="Sonus-Bold" font-weight="bold" font-size="37.0" fill="#000000" transform="matrix(1.00, 0.00, -0.00, -1.00, 911.3, 162.0)">r</text><text xml:space="preserve" font-family="Sonus-Bold" font-weight="bold" font-size="37.0" fill="#000000" transform="matrix(1.00, 0.00, -0.00, -1.00, 926.0, 162.0)"> </text><text xml:space="preserve" font-family="Sonus" font-size="37.0" fill="#5D5D5D" transform="matrix(1.00, 0.00, -0.00, -1.00, 96.0, 111.0)">P</text><text xml:space="preserve" font-family="Sonus" font-size="37.0" fill="#5D5D5D" transform="matrix(1.00, 0.00, -0.00, -1.00, 117.2, 111.0)">r</text><text xml:space="preserve" font-family="Sonus" font-size="37.0" fill="#5D5D5D" transform="matrix(1.00, 0.00, -0.00, -1.00, 129.8, 111.0)">o</text><text xml:space="preserve" font-family="Sonus" font-size="37.0" fill="#5D5D5D" transform="matrix(1.00, 0.00, -0.00, -1.00, 150.2, 111.0)">v</text><text xml:space="preserve" font-family="Sonus" font-size="37.0" fill="#5D5D5D" transform="matrix(1.00, 0.00, -0.00, -1.00, 167.7, 111.0)">i</text><text xml:space="preserve" font-family="Sonus" font-size="37.0" fill="#5D5D5D" transform="matrix(1.00, 0.00, -0.00, -1.00, 176.7, 111.0)">d</text><text xml:space="preserve" font-family="Sonus" font-size="37.0" fill="#5D5D5D" transform="matrix(1.00, 0.00, -0.00, -1.00, 197.6, 111.0)">e</text><text xml:space="preserve" font-family="Sonus" font-size="37.0" fill="#5D5D5D" transform="matrix(1.00, 0.00, -0.00, -1.00, 216.6, 111.0)"> </text><text xml:space="preserve" font-family="Sonus" font-size="37.0" fill="#5D5D5D" transform="matrix(1.00, 0.00, -0.00, -1.00, 224.6, 111.0)">p</text><text xml:space="preserve" font-family="Sonus" font-size="37.0" fill="#5D5D5D" transform="matrix(1.00, 0.00, -0.00, -1.00, 245.5, 111.0)">r</text><text xml:space="preserve" font-family="Sonus" font-size="37.0" fill="#5D5D5D" transform="matrix(1.00, 0.00, -0.00, -1.00, 258.1, 111.0)">o</text><text xml:space="preserve" font-family="Sonus" font-size="37.0" fill="#5D5D5D" transform="matrix(1.00, 0.00, -0.00, -1.00, 278.5, 111.0)">f</text><text xml:space="preserve" font-family="Sonus" font-size="37.0" fill="#5D5D5D" transform="matrix(1.00, 0.00, -0.00, -1.00, 290.4, 111.0)">e</text><text xml:space="preserve" font-family="Sonus" font-size="37.0" fill="#5D5D5D" transform="matrix(1.00, 0.00, -0.00, -1.00, 309.3, 111.0)">s</text><text xml:space="preserve" font-family="Sonus" font-size="37.0" fill="#5D5D5D" transform="matrix(1.00, 0.00, -0.00, -1.00, 324.7, 111.0)">s</text><text xml:space="preserve" font-family="Sonus" font-size="37.0" fill="#5D5D5D" transform="matrix(1.00, 0.00, -0.00, -1.00, 340.0, 111.0)">i</text><text xml:space="preserve" font-family="Sonus" font-size="37.0" fill="#5D5D5D" transform="matrix(1.00, 0.00, -0.00, -1.00, 349.0, 111.0)">o</text><text xml:space="preserve" font-family="Sonus" font-size="37.0" fill="#5D5D5D" transform="matrix(1.00, 0.00, -0.00, -1.00, 369.4, 111.0)">n</text><text xml:space="preserve" font-family="Sonus" font-size="37.0" fill="#5D5D5D" transform="matrix(1.00, 0.00, -0.00, -1.00, 390.4, 111.0)">a</text><text xml:space="preserve" font-family="Sonus" font-size="37.0" fill="#5D5D5D" transform="matrix(1.00, 0.00, -0.00, -1.00, 409.2, 111.0)">l</text><text xml:space="preserve" font-family="Sonus" font-size="37.0" fill="#5D5D5D" transform="matrix(1.00, 0.00, -0.00, -1.00, 418.3, 111.0)"> </text><text xml:space="preserve" font-family="Sonus" font-size="37.0" fill="#5D5D5D" transform="matrix(1.00, 0.00, -0.00, -1.00, 426.3, 111.0)">g</text><text xml:space="preserve" font-family="Sonus" font-size="37.0" fill="#5D5D5D" transform="matrix(1.00, 0.00, -0.00, -1.00, 445.2, 111.0)">r</text><text xml:space="preserve" font-family="Sonus" font-size="37.0" fill="#5D5D5D" transform="matrix(1.00, 0.00, -0.00, -1.00, 457.7, 111.0)">o</text><text xml:space="preserve" font-family="Sonus" font-size="37.0" fill="#5D5D5D" transform="matrix(1.00, 0.00, -0.00, -1.00, 478.5, 111.0)">w</text><text xml:space="preserve" font-family="Sonus" font-size="37.0" fill="#5D5D5D" transform="matrix(1.00, 0.00, -0.00, -1.00, 505.1, 111.0)">t</text><text xml:space="preserve" font-family="Sonus" font-size="37.0" fill="#5D5D5D" transform="matrix(1.00, 0.00, -0.00, -1.00, 517.7, 111.0)">h</text><text xml:space="preserve" font-family="Sonus" font-size="37.0" fill="#5D5D5D" transform="matrix(1.00, 0.00, -0.00, -1.00, 538.8, 111.0)"> </text><text xml:space="preserve" font-family="Sonus" font-size="37.0" fill="#5D5D5D" transform="matrix(1.00, 0.00, -0.00, -1.00, 546.8, 111.0)">a</text><text xml:space="preserve" font-family="Sonus" font-size="37.0" fill="#5D5D5D" transform="matrix(1.00, 0.00, -0.00, -1.00, 565.7, 111.0)">n</text><text xml:space="preserve" font-family="Sonus" font-size="37.0" fill="#5D5D5D" transform="matrix(1.00, 0.00, -0.00, -1.00, 586.6, 111.0)">d</text><text xml:space="preserve" font-family="Sonus" font-size="37.0" fill="#5D5D5D" transform="matrix(1.00, 0.00, -0.00, -1.00, 607.6, 111.0)"> </text><text xml:space="preserve" font-family="Sonus" font-size="37.0" fill="#5D5D5D" transform="matrix(1.00, 0.00, -0.00, -1.00, 615.6, 111.0)">d</text><text xml:space="preserve" font-family="Sonus" font-size="37.0" fill="#5D5D5D" transform="matrix(1.00, 0.00, -0.00, -1.00, 636.5, 111.0)">e</text><text xml:space="preserve" font-family="Sonus" font-size="37.0" fill="#5D5D5D" transform="matrix(1.00, 0.00, -0.00, -1.00, 655.5, 111.0)">v</text><text xml:space="preserve" font-family="Sonus" font-size="37.0" fill="#5D5D5D" transform="matrix(1.00, 0.00, -0.00, -1.00, 673.0, 111.0)">e</text><text xml:space="preserve" font-family="Sonus" font-size="37.0" fill="#5D5D5D" transform="matrix(1.00, 0.00, -0.00, -1.00, 691.9, 111.0)">l</text><text xml:space="preserve" font-family="Sonus" font-size="37.0" fill="#5D5D5D" transform="matrix(1.00, 0.00, -0.00, -1.00, 701.0, 111.0)">o</text><text xml:space="preserve" font-family="Sonus" font-size="37.0" fill="#5D5D5D" transform="matrix(1.00, 0.00, -0.00, -1.00, 721.3, 111.0)">p</text><text xml:space="preserve" font-family="Sonus" font-size="37.0" fill="#5D5D5D" transform="matrix(1.00, 0.00, -0.00, -1.00, 742.3, 111.0)">m</text><text xml:space="preserve" font-family="Sonus" font-size="37.0" fill="#5D5D5D" transform="matrix(1.00, 0.00, -0.00, -1.00, 774.8, 111.0)">e</text><text xml:space="preserve" font-family="Sonus" font-size="37.0" fill="#5D5D5D" transform="matrix(1.00, 0.00, -0.00, -1.00, 793.7, 111.0)">n</text><text xml:space="preserve" font-family="Sonus" font-size="37.0" fill="#5D5D5D" transform="matrix(1.00, 0.00, -0.00, -1.00, 814.7, 111.0)">t</text><text xml:space="preserve" font-family="Sonus" font-size="37.0" fill="#5D5D5D" transform="matrix(1.00, 0.00, -0.00, -1.00, 827.2, 111.0)"> </text><text xml:space="preserve" font-family="Sonus" font-size="37.0" fill="#5D5D5D" transform="matrix(1.00, 0.00, -0.00, -1.00, 350.0, 61.0)">S</text><text xml:space="preserve" font-family="Sonus" font-size="37.0" fill="#5D5D5D" transform="matrix(1.00, 0.00, -0.00, -1.00, 369.4, 61.0)">h</text><text xml:space="preserve" font-family="Sonus" font-size="37.0" fill="#5D5D5D" transform="matrix(1.00, 0.00, -0.00, -1.00, 390.6, 61.0)">o</text><text xml:space="preserve" font-family="Sonus" font-size="37.0" fill="#5D5D5D" transform="matrix(1.00, 0.00, -0.00, -1.00, 411.3, 61.0)">w</text><text xml:space="preserve" font-family="Sonus" font-size="37.0" fill="#5D5D5D" transform="matrix(1.00, 0.00, -0.00, -1.00, 437.8, 61.0)"> </text><text xml:space="preserve" font-family="Sonus" font-size="37.0" fill="#5D5D5D" transform="matrix(1.00, 0.00, -0.00, -1.00, 445.8, 61.0)">b</text><text xml:space="preserve" font-family="Sonus" font-size="37.0" fill="#5D5D5D" transform="matrix(1.00, 0.00, -0.00, -1.00, 466.7, 61.0)">e</text><text xml:space="preserve" font-family="Sonus" font-size="37.0" fill="#5D5D5D" transform="matrix(1.00, 0.00, -0.00, -1.00, 485.6, 61.0)">n</text><text xml:space="preserve" font-family="Sonus" font-size="37.0" fill="#5D5D5D" transform="matrix(1.00, 0.00, -0.00, -1.00, 506.6, 61.0)">e</text><text xml:space="preserve" font-family="Sonus" font-size="37.0" fill="#5D5D5D" transform="matrix(1.00, 0.00, -0.00, -1.00, 525.5, 61.0)">ﬁ</text><text xml:space="preserve" font-family="Sonus" font-size="37.0" fill="#5D5D5D" transform="matrix(1.00, 0.00, -0.00, -1.00, 545.9, 61.0)">t</text><text xml:space="preserve" font-family="Sonus" font-size="37.0" fill="#5D5D5D" transform="matrix(1.00, 0.00, -0.00, -1.00, 558.7, 61.0)">s</text><text xml:space="preserve" font-family="Sonus" font-size="37.0" fill="#5D5D5D" transform="matrix(1.00, 0.00, -0.00, -1.00, 574.0, 61.0)"> </text><text xml:space="preserve" font-family="Sonus" font-size="37.0" fill="#5D5D5D" transform="matrix(1.00, 0.00, -0.00, -1.00, 108.0, 11.0)">S</text><text xml:space="preserve" font-family="Sonus" font-size="37.0" fill="#5D5D5D" transform="matrix(1.00, 0.00, -0.00, -1.00, 127.4, 11.0)">h</text><text xml:space="preserve" font-family="Sonus" font-size="37.0" fill="#5D5D5D" transform="matrix(1.00, 0.00, -0.00, -1.00, 148.6, 11.0)">o</text><text xml:space="preserve" font-family="Sonus" font-size="37.0" fill="#5D5D5D" transform="matrix(1.00, 0.00, -0.00, -1.00, 169.3, 11.0)">w</text><text xml:space="preserve" font-family="Sonus" font-size="37.0" fill="#5D5D5D" transform="matrix(1.00, 0.00, -0.00, -1.00, 195.8, 11.0)"> </text><text xml:space="preserve" font-family="Sonus" font-size="37.0" fill="#5D5D5D" transform="matrix(1.00, 0.00, -0.00, -1.00, 203.8, 11.0)">t</text><text xml:space="preserve" font-family="Sonus" font-size="37.0" fill="#5D5D5D" transform="matrix(1.00, 0.00, -0.00, -1.00, 216.3, 11.0)">h</text><text xml:space="preserve" font-family="Sonus" font-size="37.0" fill="#5D5D5D" transform="matrix(1.00, 0.00, -0.00, -1.00, 237.5, 11.0)">e</text><text xml:space="preserve" font-family="Sonus" font-size="37.0" fill="#5D5D5D" transform="matrix(1.00, 0.00, -0.00, -1.00, 256.4, 11.0)"> </text><text xml:space="preserve" font-family="Sonus" font-size="37.0" fill="#5D5D5D" transform="matrix(1.00, 0.00, -0.00, -1.00, 264.4, 11.0)">d</text><text xml:space="preserve" font-family="Sonus" font-size="37.0" fill="#5D5D5D" transform="matrix(1.00, 0.00, -0.00, -1.00, 285.3, 11.0)">a</text><text xml:space="preserve" font-family="Sonus" font-size="37.0" fill="#5D5D5D" transform="matrix(1.00, 0.00, -0.00, -1.00, 304.0, 11.0)">y</text><text xml:space="preserve" font-family="Sonus" font-size="37.0" fill="#5D5D5D" transform="matrix(1.00, 0.00, -0.00, -1.00, 321.8, 11.0)">-</text><text xml:space="preserve" font-family="Sonus" font-size="37.0" fill="#5D5D5D" transform="matrix(1.00, 0.00, -0.00, -1.00, 333.1, 11.0)">t</text><text xml:space="preserve" font-family="Sonus" font-size="37.0" fill="#5D5D5D" transform="matrix(1.00, 0.00, -0.00, -1.00, 345.6, 11.0)">o</text><text xml:space="preserve" font-family="Sonus" font-size="37.0" fill="#5D5D5D" transform="matrix(1.00, 0.00, -0.00, -1.00, 366.0, 11.0)">-</text><text xml:space="preserve" font-family="Sonus" font-size="37.0" fill="#5D5D5D" transform="matrix(1.00, 0.00, -0.00, -1.00, 377.2, 11.0)">d</text><text xml:space="preserve" font-family="Sonus" font-size="37.0" fill="#5D5D5D" transform="matrix(1.00, 0.00, -0.00, -1.00, 398.2, 11.0)">a</text><text xml:space="preserve" font-family="Sonus" font-size="37.0" fill="#5D5D5D" transform="matrix(1.00, 0.00, -0.00, -1.00, 416.9, 11.0)">y</text><text xml:space="preserve" font-family="Sonus" font-size="37.0" fill="#5D5D5D" transform="matrix(1.00, 0.00, -0.00, -1.00, 434.7, 11.0)"> </text><text xml:space="preserve" font-family="Sonus" font-size="37.0" fill="#5D5D5D" transform="matrix(1.00, 0.00, -0.00, -1.00, 442.7, 11.0)">o</text><text xml:space="preserve" font-family="Sonus" font-size="37.0" fill="#5D5D5D" transform="matrix(1.00, 0.00, -0.00, -1.00, 463.1, 11.0)">f</text><text xml:space="preserve" font-family="Sonus" font-size="37.0" fill="#5D5D5D" transform="matrix(1.00, 0.00, -0.00, -1.00, 476.0, 11.0)"> </text><text xml:space="preserve" font-family="Sonus" font-size="37.0" fill="#5D5D5D" transform="matrix(1.00, 0.00, -0.00, -1.00, 484.0, 11.0)">r</text><text xml:space="preserve" font-family="Sonus" font-size="37.0" fill="#5D5D5D" transform="matrix(1.00, 0.00, -0.00, -1.00, 496.6, 11.0)">o</text><text xml:space="preserve" font-family="Sonus" font-size="37.0" fill="#5D5D5D" transform="matrix(1.00, 0.00, -0.00, -1.00, 517.0, 11.0)">l</text><text xml:space="preserve" font-family="Sonus" font-size="37.0" fill="#5D5D5D" transform="matrix(1.00, 0.00, -0.00, -1.00, 526.0, 11.0)">e</text><text xml:space="preserve" font-family="Sonus" font-size="37.0" fill="#5D5D5D" transform="matrix(1.00, 0.00, -0.00, -1.00, 545.0, 11.0)">s</text><text xml:space="preserve" font-family="Sonus" font-size="37.0" fill="#5D5D5D" transform="matrix(1.00, 0.00, -0.00, -1.00, 560.3, 11.0)"> </text><text xml:space="preserve" font-family="Sonus" font-size="37.0" fill="#5D5D5D" transform="matrix(1.00, 0.00, -0.00, -1.00, 568.3, 11.0)">a</text><text xml:space="preserve" font-family="Sonus" font-size="37.0" fill="#5D5D5D" transform="matrix(1.00, 0.00, -0.00, -1.00, 587.2, 11.0)">t</text><text xml:space="preserve" font-family="Sonus" font-size="37.0" fill="#5D5D5D" transform="matrix(1.00, 0.00, -0.00, -1.00, 599.7, 11.0)"> </text><text xml:space="preserve" font-family="Sonus" font-size="37.0" fill="#5D5D5D" transform="matrix(1.00, 0.00, -0.00, -1.00, 607.7, 11.0)">t</text><text xml:space="preserve" font-family="Sonus" font-size="37.0" fill="#5D5D5D" transform="matrix(1.00, 0.00, -0.00, -1.00, 620.3, 11.0)">h</text><text xml:space="preserve" font-family="Sonus" font-size="37.0" fill="#5D5D5D" transform="matrix(1.00, 0.00, -0.00, -1.00, 641.4, 11.0)">e</text><text xml:space="preserve" font-family="Sonus" font-size="37.0" fill="#5D5D5D" transform="matrix(1.00, 0.00, -0.00, -1.00, 660.4, 11.0)"> </text><text xml:space="preserve" font-family="Sonus" font-size="37.0" fill="#5D5D5D" transform="matrix(1.00, 0.00, -0.00, -1.00, 668.4, 11.0)">c</text><text xml:space="preserve" font-family="Sonus" font-size="37.0" fill="#5D5D5D" transform="matrix(1.00, 0.00, -0.00, -1.00, 685.2, 11.0)">o</text><text xml:space="preserve" font-family="Sonus" font-size="37.0" fill="#5D5D5D" transform="matrix(1.00, 0.00, -0.00, -1.00, 705.6, 11.0)">m</text><text xml:space="preserve" font-family="Sonus" font-size="37.0" fill="#5D5D5D" transform="matrix(1.00, 0.00, -0.00, -1.00, 738.1, 11.0)">p</text><text xml:space="preserve" font-family="Sonus" font-size="37.0" fill="#5D5D5D" transform="matrix(1.00, 0.00, -0.00, -1.00, 759.1, 11.0)">a</text><text xml:space="preserve" font-family="Sonus" font-size="37.0" fill="#5D5D5D" transform="matrix(1.00, 0.00, -0.00, -1.00, 777.9, 11.0)">n</text><text xml:space="preserve" font-family="Sonus" font-size="37.0" fill="#5D5D5D" transform="matrix(1.00, 0.00, -0.00, -1.00, 798.7, 11.0)">y</text></g></svg>