<?xml version="1.0" encoding="UTF-8" standalone="no"?><svg xmlns="http://www.w3.org/2000/svg" xmlns:xlink="http://www.w3.org/1999/xlink" clip-rule="evenodd" stroke-miterlimit="4.00" viewBox="0 0 195 18"><desc>SVG generated by Keynote</desc><defs></defs><g transform="matrix(1.00, 0.00, -0.00, -1.00, 0.0, 18.0)"><text xml:space="preserve" font-family="AkkuratStd" font-size="14.0" fill="#52575F" transform="matrix(1.00, 0.00, -0.00, -1.00, 1.0, 6.0)">M</text><text xml:space="preserve" font-family="AkkuratStd" font-size="14.0" fill="#52575F" transform="matrix(1.00, 0.00, -0.00, -1.00, 13.3, 6.0)">e</text><text xml:space="preserve" font-family="AkkuratStd" font-size="14.0" fill="#52575F" transform="matrix(1.00, 0.00, -0.00, -1.00, 21.0, 6.0)">s</text><text xml:space="preserve" font-family="AkkuratStd" font-size="14.0" fill="#52575F" transform="matrix(1.00, 0.00, -0.00, -1.00, 28.3, 6.0)">s</text><text xml:space="preserve" font-family="AkkuratStd" font-size="14.0" fill="#52575F" transform="matrix(1.00, 0.00, -0.00, -1.00, 35.6, 6.0)">a</text><text xml:space="preserve" font-family="AkkuratStd" font-size="14.0" fill="#52575F" transform="matrix(1.00, 0.00, -0.00, -1.00, 43.4, 6.0)">g</text><text xml:space="preserve" font-family="AkkuratStd" font-size="14.0" fill="#52575F" transform="matrix(1.00, 0.00, -0.00, -1.00, 51.0, 6.0)">i</text><text xml:space="preserve" font-family="AkkuratStd" font-size="14.0" fill="#52575F" transform="matrix(1.00, 0.00, -0.00, -1.00, 54.8, 6.0)">n</text><text xml:space="preserve" font-family="AkkuratStd" font-size="14.0" fill="#52575F" transform="matrix(1.00, 0.00, -0.00, -1.00, 63.0, 6.0)">g</text><text xml:space="preserve" font-family="AkkuratStd" font-size="14.0" fill="#52575F" transform="matrix(1.00, 0.00, -0.00, -1.00, 70.6, 6.0)"> </text><text xml:space="preserve" font-family="AkkuratStd" font-size="14.0" fill="#52575F" transform="matrix(1.00, 0.00, -0.00, -1.00, 73.8, 6.0)">i</text><text xml:space="preserve" font-family="AkkuratStd" font-size="14.0" fill="#52575F" transform="matrix(1.00, 0.00, -0.00, -1.00, 77.6, 6.0)">s</text><text xml:space="preserve" font-family="AkkuratStd" font-size="14.0" fill="#52575F" transform="matrix(1.00, 0.00, -0.00, -1.00, 84.9, 6.0)"> </text><text xml:space="preserve" font-family="AkkuratStd" font-size="14.0" fill="#52575F" transform="matrix(1.00, 0.00, -0.00, -1.00, 88.1, 6.0)">a</text><text xml:space="preserve" font-family="AkkuratStd" font-size="14.0" fill="#52575F" transform="matrix(1.00, 0.00, -0.00, -1.00, 96.0, 6.0)"> </text><text xml:space="preserve" font-family="AkkuratStd" font-size="14.0" fill="#52575F" transform="matrix(1.00, 0.00, -0.00, -1.00, 99.2, 6.0)">u</text><text xml:space="preserve" font-family="AkkuratStd" font-size="14.0" fill="#52575F" transform="matrix(1.00, 0.00, -0.00, -1.00, 107.3, 6.0)">n</text><text xml:space="preserve" font-family="AkkuratStd" font-size="14.0" fill="#52575F" transform="matrix(1.00, 0.00, -0.00, -1.00, 115.5, 6.0)">i</text><text xml:space="preserve" font-family="AkkuratStd" font-size="14.0" fill="#52575F" transform="matrix(1.00, 0.00, -0.00, -1.00, 119.3, 6.0)">f</text><text xml:space="preserve" font-family="AkkuratStd" font-size="14.0" fill="#52575F" transform="matrix(1.00, 0.00, -0.00, -1.00, 124.5, 6.0)">i</text><text xml:space="preserve" font-family="AkkuratStd" font-size="14.0" fill="#52575F" transform="matrix(1.00, 0.00, -0.00, -1.00, 128.3, 6.0)">e</text><text xml:space="preserve" font-family="AkkuratStd" font-size="14.0" fill="#52575F" transform="matrix(1.00, 0.00, -0.00, -1.00, 136.0, 6.0)">d</text><text xml:space="preserve" font-family="AkkuratStd" font-size="14.0" fill="#52575F" transform="matrix(1.00, 0.00, -0.00, -1.00, 144.3, 6.0)"> </text><text xml:space="preserve" font-family="AkkuratStd" font-size="14.0" fill="#52575F" transform="matrix(1.00, 0.00, -0.00, -1.00, 147.6, 6.0)">s</text><text xml:space="preserve" font-family="AkkuratStd" font-size="14.0" fill="#52575F" transform="matrix(1.00, 0.00, -0.00, -1.00, 154.7, 6.0)">y</text><text xml:space="preserve" font-family="AkkuratStd" font-size="14.0" fill="#52575F" transform="matrix(1.00, 0.00, -0.00, -1.00, 161.5, 6.0)">s</text><text xml:space="preserve" font-family="AkkuratStd" font-size="14.0" fill="#52575F" transform="matrix(1.00, 0.00, -0.00, -1.00, 168.8, 6.0)">t</text><text xml:space="preserve" font-family="AkkuratStd" font-size="14.0" fill="#52575F" transform="matrix(1.00, 0.00, -0.00, -1.00, 174.0, 6.0)">e</text><text xml:space="preserve" font-family="AkkuratStd" font-size="14.0" fill="#52575F" transform="matrix(1.00, 0.00, -0.00, -1.00, 181.7, 6.0)">m</text></g></svg>