<?xml version="1.0" encoding="UTF-8" standalone="no"?><svg xmlns="http://www.w3.org/2000/svg" xmlns:xlink="http://www.w3.org/1999/xlink" clip-rule="evenodd" stroke-miterlimit="4.00" viewBox="0 0 1280 720"><desc>SVG generated by Keynote</desc><defs></defs><g transform="matrix(1.00, 0.00, -0.00, -1.00, 0.0, 720.0)"><path d="M 0.0 720.0 L 1280.0 720.0 L 1280.0 0.0 L 0.0 0.0 Z M 0.0 720.0 " fill="#FEFFFF"></path><path d="M -0.0 583.2 L 1280.0 583.2 L 1280.0 36.0 L -0.0 36.0 Z M -0.0 583.2 " fill="#EF6823"></path><text xml:space="preserve" font-family="CenturyGothic-Bold" font-weight="bold" font-size="38.1" fill="#FFFFFF" transform="matrix(1.00, 0.00, -0.00, -1.00, 467.0, 329.0)">S</text><text xml:space="preserve" font-family="CenturyGothic-Bold" font-weight="bold" font-size="38.1" fill="#FFFFFF" transform="matrix(1.00, 0.00, -0.00, -1.00, 486.8, 329.0)">u</text><text xml:space="preserve" font-family="CenturyGothic-Bold" font-weight="bold" font-size="38.1" fill="#FFFFFF" transform="matrix(1.00, 0.00, -0.00, -1.00, 509.7, 329.0)">c</text><text xml:space="preserve" font-family="CenturyGothic-Bold" font-weight="bold" font-size="38.1" fill="#FFFFFF" transform="matrix(1.00, 0.00, -0.00, -1.00, 534.0, 329.0)">c</text><text xml:space="preserve" font-family="CenturyGothic-Bold" font-weight="bold" font-size="38.1" fill="#FFFFFF" transform="matrix(1.00, 0.00, -0.00, -1.00, 558.4, 329.0)">e</text><text xml:space="preserve" font-family="CenturyGothic-Bold" font-weight="bold" font-size="38.1" fill="#FFFFFF" transform="matrix(1.00, 0.00, -0.00, -1.00, 582.8, 329.0)">s</text><text xml:space="preserve" font-family="CenturyGothic-Bold" font-weight="bold" font-size="38.1" fill="#FFFFFF" transform="matrix(1.00, 0.00, -0.00, -1.00, 599.5, 329.0)">s</text><text xml:space="preserve" font-family="CenturyGothic-Bold" font-weight="bold" font-size="38.1" fill="#FFFFFF" transform="matrix(1.00, 0.00, -0.00, -1.00, 616.3, 329.0)"> </text><text xml:space="preserve" font-family="CenturyGothic-Bold" font-weight="bold" font-size="38.1" fill="#FFFFFF" transform="matrix(1.00, 0.00, -0.00, -1.00, 626.9, 329.0)">A</text><text xml:space="preserve" font-family="CenturyGothic-Bold" font-weight="bold" font-size="38.1" fill="#FFFFFF" transform="matrix(1.00, 0.00, -0.00, -1.00, 655.1, 329.0)">c</text><text xml:space="preserve" font-family="CenturyGothic-Bold" font-weight="bold" font-size="38.1" fill="#FFFFFF" transform="matrix(1.00, 0.00, -0.00, -1.00, 679.5, 329.0)">a</text><text xml:space="preserve" font-family="CenturyGothic-Bold" font-weight="bold" font-size="38.1" fill="#FFFFFF" transform="matrix(1.00, 0.00, -0.00, -1.00, 704.6, 329.0)">d</text><text xml:space="preserve" font-family="CenturyGothic-Bold" font-weight="bold" font-size="38.1" fill="#FFFFFF" transform="matrix(1.00, 0.00, -0.00, -1.00, 729.8, 329.0)">e</text><text xml:space="preserve" font-family="CenturyGothic-Bold" font-weight="bold" font-size="38.1" fill="#FFFFFF" transform="matrix(1.00, 0.00, -0.00, -1.00, 754.2, 329.0)">m</text><text xml:space="preserve" font-family="CenturyGothic-Bold" font-weight="bold" font-size="38.1" fill="#FFFFFF" transform="matrix(1.00, 0.00, -0.00, -1.00, 789.9, 329.0)">y</text><text xml:space="preserve" font-family="CenturyGothic-Bold" font-weight="bold" font-size="38.1" fill="#FFFFFF" transform="matrix(1.00, 0.00, -0.00, -1.00, 812.0, 329.0)"> </text><text xml:space="preserve" font-family="LucidaGrande-Bold" font-weight="bold" font-size="38.1" fill="#FFFFFF" transform="matrix(1.00, 0.00, -0.00, -1.00, 822.7, 329.0)"> </text><text xml:space="preserve" font-family="CenturyGothic-Bold" font-weight="bold" font-size="38.1" fill="#FFFFFF" transform="matrix(1.00, 0.00, -0.00, -1.00, 499.0, 283.0)">U</text><text xml:space="preserve" font-family="CenturyGothic-Bold" font-weight="bold" font-size="38.1" fill="#FFFFFF" transform="matrix(1.00, 0.00, -0.00, -1.00, 523.4, 283.0)">X</text><text xml:space="preserve" font-family="CenturyGothic-Bold" font-weight="bold" font-size="38.1" fill="#FFFFFF" transform="matrix(1.00, 0.00, -0.00, -1.00, 549.3, 283.0)"> </text><text xml:space="preserve" font-family="CenturyGothic-Bold" font-weight="bold" font-size="38.1" fill="#FFFFFF" transform="matrix(1.00, 0.00, -0.00, -1.00, 559.9, 283.0)">C</text><text xml:space="preserve" font-family="CenturyGothic-Bold" font-weight="bold" font-size="38.1" fill="#FFFFFF" transform="matrix(1.00, 0.00, -0.00, -1.00, 589.6, 283.0)">o</text><text xml:space="preserve" font-family="CenturyGothic-Bold" font-weight="bold" font-size="38.1" fill="#FFFFFF" transform="matrix(1.00, 0.00, -0.00, -1.00, 614.0, 283.0)">n</text><text xml:space="preserve" font-family="CenturyGothic-Bold" font-weight="bold" font-size="38.1" fill="#FFFFFF" transform="matrix(1.00, 0.00, -0.00, -1.00, 636.9, 283.0)">c</text><text xml:space="preserve" font-family="CenturyGothic-Bold" font-weight="bold" font-size="38.1" fill="#FFFFFF" transform="matrix(1.00, 0.00, -0.00, -1.00, 661.3, 283.0)">e</text><text xml:space="preserve" font-family="CenturyGothic-Bold" font-weight="bold" font-size="38.1" fill="#FFFFFF" transform="matrix(1.00, 0.00, -0.00, -1.00, 685.6, 283.0)">p</text><text xml:space="preserve" font-family="CenturyGothic-Bold" font-weight="bold" font-size="38.1" fill="#FFFFFF" transform="matrix(1.00, 0.00, -0.00, -1.00, 710.8, 283.0)">t</text><text xml:space="preserve" font-family="CenturyGothic-Bold" font-weight="bold" font-size="38.1" fill="#FFFFFF" transform="matrix(1.00, 0.00, -0.00, -1.00, 722.2, 283.0)">i</text><text xml:space="preserve" font-family="CenturyGothic-Bold" font-weight="bold" font-size="38.1" fill="#FFFFFF" transform="matrix(1.00, 0.00, -0.00, -1.00, 731.3, 283.0)">n</text><text xml:space="preserve" font-family="CenturyGothic-Bold" font-weight="bold" font-size="38.1" fill="#FFFFFF" transform="matrix(1.00, 0.00, -0.00, -1.00, 754.2, 283.0)">g</text><text xml:space="preserve" font-family="LucidaGrande-Bold" font-weight="bold" font-size="38.1" fill="#FFFFFF" transform="matrix(1.00, 0.00, -0.00, -1.00, 779.3, 283.0)"> </text><text xml:space="preserve" font-family="LucidaGrande-Bold" font-weight="bold" font-size="38.1" fill="#FFFFFF" transform="matrix(1.00, 0.00, -0.00, -1.00, 639.0, 237.0)"> </text><text xml:space="preserve" font-family="CenturyGothic-Bold" font-weight="bold" font-size="23.1" fill="#FFFFFF" transform="matrix(1.00, 0.00, -0.00, -1.00, 565.0, 206.0)">A</text><text xml:space="preserve" font-family="CenturyGothic-Bold" font-weight="bold" font-size="23.1" fill="#FFFFFF" transform="matrix(1.00, 0.00, -0.00, -1.00, 582.1, 206.0)">p</text><text xml:space="preserve" font-family="CenturyGothic-Bold" font-weight="bold" font-size="23.1" fill="#FFFFFF" transform="matrix(1.00, 0.00, -0.00, -1.00, 597.4, 206.0)">r</text><text xml:space="preserve" font-family="CenturyGothic-Bold" font-weight="bold" font-size="23.1" fill="#FFFFFF" transform="matrix(1.00, 0.00, -0.00, -1.00, 604.8, 206.0)">i</text><text xml:space="preserve" font-family="CenturyGothic-Bold" font-weight="bold" font-size="23.1" fill="#FFFFFF" transform="matrix(1.00, 0.00, -0.00, -1.00, 610.3, 206.0)">l</text><text xml:space="preserve" font-family="CenturyGothic-Bold" font-weight="bold" font-size="23.1" fill="#FFFFFF" transform="matrix(1.00, 0.00, -0.00, -1.00, 615.8, 206.0)"> </text><text xml:space="preserve" font-family="CenturyGothic-Bold" font-weight="bold" font-size="23.1" fill="#FFFFFF" transform="matrix(1.00, 0.00, -0.00, -1.00, 622.3, 206.0)">2</text><text xml:space="preserve" font-family="CenturyGothic-Bold" font-weight="bold" font-size="23.1" fill="#FFFFFF" transform="matrix(1.00, 0.00, -0.00, -1.00, 635.2, 206.0)">2</text><text xml:space="preserve" font-family="CenturyGothic-Bold" font-weight="bold" font-size="23.1" fill="#FFFFFF" transform="matrix(1.00, 0.00, -0.00, -1.00, 648.2, 206.0)">,</text><text xml:space="preserve" font-family="CenturyGothic-Bold" font-weight="bold" font-size="23.1" fill="#FFFFFF" transform="matrix(1.00, 0.00, -0.00, -1.00, 654.7, 206.0)"> </text><text xml:space="preserve" font-family="CenturyGothic-Bold" font-weight="bold" font-size="23.1" fill="#FFFFFF" transform="matrix(1.00, 0.00, -0.00, -1.00, 661.1, 206.0)">2</text><text xml:space="preserve" font-family="CenturyGothic-Bold" font-weight="bold" font-size="23.1" fill="#FFFFFF" transform="matrix(1.00, 0.00, -0.00, -1.00, 674.1, 206.0)">0</text><text xml:space="preserve" font-family="CenturyGothic-Bold" font-weight="bold" font-size="23.1" fill="#FFFFFF" transform="matrix(1.00, 0.00, -0.00, -1.00, 687.0, 206.0)">1</text><text xml:space="preserve" font-family="CenturyGothic-Bold" font-weight="bold" font-size="23.1" fill="#FFFFFF" transform="matrix(1.00, 0.00, -0.00, -1.00, 700.0, 206.0)">6</text><g><clipPath id="clip-0"><path d="M 841.1 659.8 L 960.5 659.8 L 960.5 688.9 L 841.1 688.9 Z M 841.1 659.8 "></path></clipPath><g clip-path="url(#clip-0)"><image xlink:href="6109A2AEDA6882BCDC2BF368A76F924E.png" width="120.00" height="32.00" transform="matrix(0.99, 0.00, -0.00, -0.91, 841.0, 689.0)"></image></g></g><g><clipPath id="clip-1"><path d="M 1088.1 663.0 L 1210.9 663.0 L 1210.9 684.0 L 1088.1 684.0 Z M 1088.1 663.0 "></path></clipPath><g clip-path="url(#clip-1)"><image xlink:href="AD6F71503DAC83D1582CAF8605EA7237.jpeg" width="123.00" height="23.00" transform="matrix(1.00, 0.00, -0.00, -0.91, 1088.0, 684.0)"></image></g></g><g><clipPath id="clip-2"><path d="M 974.8 629.8 L 1073.8 629.8 L 1073.8 691.0 L 974.8 691.0 Z M 974.8 629.8 "></path></clipPath><g clip-path="url(#clip-2)"><image xlink:href="DB301BB47CAF6DA9F87F26FDBAD92BF7.png" width="100.00" height="70.00" transform="matrix(0.99, 0.00, -0.00, -0.87, 975.0, 691.0)"></image></g></g><g><clipPath id="clip-3"><path d="M 42.3 629.4 L 161.7 629.4 L 161.7 698.2 L 42.3 698.2 Z M 42.3 629.4 "></path></clipPath><g clip-path="url(#clip-3)"><image xlink:href="969C4900B63A8504E816C11D36E06D8B.png" width="120.00" height="78.00" transform="matrix(1.00, 0.00, -0.00, -0.88, 42.0, 698.0)"></image></g></g><g><clipPath id="clip-4"><path d="M 41.3 613.4 L 1229.5 613.4 L 1229.5 616.4 L 41.3 616.4 Z M 41.3 613.4 "></path></clipPath><g clip-path="url(#clip-4)"><path d="M 0.0 0.0 L 1186.2 0.0 " fill="none" stroke="#E18144" stroke-width="1.00" transform="matrix(1.00, 0.00, 0.00, -1.00, 42.3, 614.9)"></path></g></g></g></svg>