<?xml version="1.0" encoding="UTF-8" standalone="no"?><svg xmlns="http://www.w3.org/2000/svg" xmlns:xlink="http://www.w3.org/1999/xlink" clip-rule="evenodd" stroke-miterlimit="4.00" viewBox="0 0 1280 720"><desc>SVG generated by Keynote</desc><defs></defs><g transform="matrix(1.00, 0.00, -0.00, -1.00, 0.0, 720.0)"><path d="M 0.0 720.0 L 1280.0 720.0 L 1280.0 0.0 L 0.0 0.0 Z M 0.0 720.0 " fill="#FEFFFE"></path><text xml:space="preserve" font-family="Sonus" font-size="20.0" fill="#52575F" transform="matrix(1.00, 0.00, -0.00, -1.00, 69.0, 625.0)">I</text><text xml:space="preserve" font-family="Sonus" font-size="20.0" fill="#52575F" transform="matrix(1.00, 0.00, -0.00, -1.00, 74.2, 625.0)">n</text><text xml:space="preserve" font-family="Sonus" font-size="20.0" fill="#52575F" transform="matrix(1.00, 0.00, -0.00, -1.00, 85.6, 625.0)">s</text><text xml:space="preserve" font-family="Sonus" font-size="20.0" fill="#52575F" transform="matrix(1.00, 0.00, -0.00, -1.00, 93.9, 625.0)">p</text><text xml:space="preserve" font-family="Sonus" font-size="20.0" fill="#52575F" transform="matrix(1.00, 0.00, -0.00, -1.00, 105.2, 625.0)">i</text><text xml:space="preserve" font-family="Sonus" font-size="20.0" fill="#52575F" transform="matrix(1.00, 0.00, -0.00, -1.00, 110.1, 625.0)">r</text><text xml:space="preserve" font-family="Sonus" font-size="20.0" fill="#52575F" transform="matrix(1.00, 0.00, -0.00, -1.00, 116.9, 625.0)">e</text><text xml:space="preserve" font-family="Sonus" font-size="20.0" fill="#52575F" transform="matrix(1.00, 0.00, -0.00, -1.00, 127.1, 625.0)"> </text><text xml:space="preserve" font-family="Sonus" font-size="20.0" fill="#52575F" transform="matrix(1.00, 0.00, -0.00, -1.00, 131.4, 625.0)">c</text><text xml:space="preserve" font-family="Sonus" font-size="20.0" fill="#52575F" transform="matrix(1.00, 0.00, -0.00, -1.00, 140.7, 625.0)">a</text><text xml:space="preserve" font-family="Sonus" font-size="20.0" fill="#52575F" transform="matrix(1.00, 0.00, -0.00, -1.00, 150.9, 625.0)">n</text><text xml:space="preserve" font-family="Sonus" font-size="20.0" fill="#52575F" transform="matrix(1.00, 0.00, -0.00, -1.00, 162.2, 625.0)">d</text><text xml:space="preserve" font-family="Sonus" font-size="20.0" fill="#52575F" transform="matrix(1.00, 0.00, -0.00, -1.00, 173.5, 625.0)">i</text><text xml:space="preserve" font-family="Sonus" font-size="20.0" fill="#52575F" transform="matrix(1.00, 0.00, -0.00, -1.00, 178.4, 625.0)">d</text><text xml:space="preserve" font-family="Sonus" font-size="20.0" fill="#52575F" transform="matrix(1.00, 0.00, -0.00, -1.00, 189.7, 625.0)">a</text><text xml:space="preserve" font-family="Sonus" font-size="20.0" fill="#52575F" transform="matrix(1.00, 0.00, -0.00, -1.00, 199.9, 625.0)">t</text><text xml:space="preserve" font-family="Sonus" font-size="20.0" fill="#52575F" transform="matrix(1.00, 0.00, -0.00, -1.00, 206.7, 625.0)">e</text><text xml:space="preserve" font-family="Sonus" font-size="20.0" fill="#52575F" transform="matrix(1.00, 0.00, -0.00, -1.00, 216.9, 625.0)">s</text><text xml:space="preserve" font-family="Sonus" font-size="20.0" fill="#52575F" transform="matrix(1.00, 0.00, -0.00, -1.00, 225.2, 625.0)"> </text><text xml:space="preserve" font-family="Sonus" font-size="20.0" fill="#52575F" transform="matrix(1.00, 0.00, -0.00, -1.00, 229.5, 625.0)">s</text><text xml:space="preserve" font-family="Sonus" font-size="20.0" fill="#52575F" transform="matrix(1.00, 0.00, -0.00, -1.00, 238.0, 625.0)">o</text><text xml:space="preserve" font-family="Sonus" font-size="20.0" fill="#52575F" transform="matrix(1.00, 0.00, -0.00, -1.00, 249.0, 625.0)"> </text><text xml:space="preserve" font-family="Sonus" font-size="20.0" fill="#52575F" transform="matrix(1.00, 0.00, -0.00, -1.00, 253.3, 625.0)">t</text><text xml:space="preserve" font-family="Sonus" font-size="20.0" fill="#52575F" transform="matrix(1.00, 0.00, -0.00, -1.00, 260.1, 625.0)">h</text><text xml:space="preserve" font-family="Sonus" font-size="20.0" fill="#52575F" transform="matrix(1.00, 0.00, -0.00, -1.00, 271.5, 625.0)">e</text><text xml:space="preserve" font-family="Sonus" font-size="20.0" fill="#52575F" transform="matrix(1.00, 0.00, -0.00, -1.00, 281.6, 625.0)">y</text><text xml:space="preserve" font-family="Sonus" font-size="20.0" fill="#52575F" transform="matrix(1.00, 0.00, -0.00, -1.00, 291.3, 625.0)"> </text><text xml:space="preserve" font-family="Sonus" font-size="20.0" fill="#52575F" transform="matrix(1.00, 0.00, -0.00, -1.00, 295.6, 625.0)">a</text><text xml:space="preserve" font-family="Sonus" font-size="20.0" fill="#52575F" transform="matrix(1.00, 0.00, -0.00, -1.00, 305.8, 625.0)">r</text><text xml:space="preserve" font-family="Sonus" font-size="20.0" fill="#52575F" transform="matrix(1.00, 0.00, -0.00, -1.00, 312.6, 625.0)">e</text><text xml:space="preserve" font-family="Sonus" font-size="20.0" fill="#52575F" transform="matrix(1.00, 0.00, -0.00, -1.00, 322.8, 625.0)"> </text><text xml:space="preserve" font-family="Sonus" font-size="20.0" fill="#52575F" transform="matrix(1.00, 0.00, -0.00, -1.00, 327.1, 625.0)">p</text><text xml:space="preserve" font-family="Sonus" font-size="20.0" fill="#52575F" transform="matrix(1.00, 0.00, -0.00, -1.00, 338.5, 625.0)">r</text><text xml:space="preserve" font-family="Sonus" font-size="20.0" fill="#52575F" transform="matrix(1.00, 0.00, -0.00, -1.00, 345.4, 625.0)">i</text><text xml:space="preserve" font-family="Sonus" font-size="20.0" fill="#52575F" transform="matrix(1.00, 0.00, -0.00, -1.00, 350.3, 625.0)">m</text><text xml:space="preserve" font-family="Sonus" font-size="20.0" fill="#52575F" transform="matrix(1.00, 0.00, -0.00, -1.00, 367.9, 625.0)">e</text><text xml:space="preserve" font-family="Sonus" font-size="20.0" fill="#52575F" transform="matrix(1.00, 0.00, -0.00, -1.00, 378.1, 625.0)">d</text><text xml:space="preserve" font-family="Sonus" font-size="20.0" fill="#52575F" transform="matrix(1.00, 0.00, -0.00, -1.00, 389.4, 625.0)"> </text><text xml:space="preserve" font-family="Sonus" font-size="20.0" fill="#52575F" transform="matrix(1.00, 0.00, -0.00, -1.00, 393.8, 625.0)">t</text><text xml:space="preserve" font-family="Sonus" font-size="20.0" fill="#52575F" transform="matrix(1.00, 0.00, -0.00, -1.00, 400.5, 625.0)">o</text><text xml:space="preserve" font-family="Sonus" font-size="20.0" fill="#52575F" transform="matrix(1.00, 0.00, -0.00, -1.00, 411.6, 625.0)"> </text><text xml:space="preserve" font-family="Sonus" font-size="20.0" fill="#52575F" transform="matrix(1.00, 0.00, -0.00, -1.00, 415.9, 625.0)">a</text><text xml:space="preserve" font-family="Sonus" font-size="20.0" fill="#52575F" transform="matrix(1.00, 0.00, -0.00, -1.00, 426.1, 625.0)">c</text><text xml:space="preserve" font-family="Sonus" font-size="20.0" fill="#52575F" transform="matrix(1.00, 0.00, -0.00, -1.00, 435.2, 625.0)">c</text><text xml:space="preserve" font-family="Sonus" font-size="20.0" fill="#52575F" transform="matrix(1.00, 0.00, -0.00, -1.00, 444.3, 625.0)">e</text><text xml:space="preserve" font-family="Sonus" font-size="20.0" fill="#52575F" transform="matrix(1.00, 0.00, -0.00, -1.00, 454.6, 625.0)">p</text><text xml:space="preserve" font-family="Sonus" font-size="20.0" fill="#52575F" transform="matrix(1.00, 0.00, -0.00, -1.00, 465.9, 625.0)">t</text><text xml:space="preserve" font-family="Sonus" font-size="20.0" fill="#52575F" transform="matrix(1.00, 0.00, -0.00, -1.00, 472.7, 625.0)"> </text><text xml:space="preserve" font-family="Sonus" font-size="20.0" fill="#52575F" transform="matrix(1.00, 0.00, -0.00, -1.00, 477.0, 625.0)">a</text><text xml:space="preserve" font-family="Sonus" font-size="20.0" fill="#52575F" transform="matrix(1.00, 0.00, -0.00, -1.00, 487.2, 625.0)">n</text><text xml:space="preserve" font-family="Sonus" font-size="20.0" fill="#52575F" transform="matrix(1.00, 0.00, -0.00, -1.00, 498.5, 625.0)"> </text><text xml:space="preserve" font-family="Sonus" font-size="20.0" fill="#52575F" transform="matrix(1.00, 0.00, -0.00, -1.00, 502.8, 625.0)">o</text><text xml:space="preserve" font-family="Sonus" font-size="20.0" fill="#52575F" transform="matrix(1.00, 0.00, -0.00, -1.00, 513.8, 625.0)">ﬀ</text><text xml:space="preserve" font-family="Sonus" font-size="20.0" fill="#52575F" transform="matrix(1.00, 0.00, -0.00, -1.00, 525.9, 625.0)">e</text><text xml:space="preserve" font-family="Sonus" font-size="20.0" fill="#52575F" transform="matrix(1.00, 0.00, -0.00, -1.00, 536.1, 625.0)">r</text><text xml:space="preserve" font-family="Sonus" font-size="20.0" fill="#52575F" transform="matrix(1.00, 0.00, -0.00, -1.00, 543.3, 625.0)"> </text><path d="M 70.0 721.0 L 1210.0 721.0 L 1210.0 703.5 L 70.0 703.5 Z M 70.0 721.0 " fill="#EF6823"></path><g><clipPath id="clip-19337"><path d="M 69.0 36.0 L 125.0 36.0 L 125.0 92.0 L 69.0 92.0 Z M 69.0 36.0 "></path></clipPath><g clip-path="url(#clip-19337)"><path d="M 94.7 81.9 C 84.8 80.6 77.8 71.6 79.1 61.7 C 80.4 51.8 89.4 44.8 99.3 46.1 C 109.2 47.4 116.2 56.4 114.9 66.3 C 113.6 76.2 104.6 83.2 94.7 81.9 M 106.4 67.3 L 103.5 57.8 C 102.1 53.4 105.0 54.6 105.0 54.6 C 105.0 54.6 104.5 52.9 102.1 52.9 C 100.5 52.9 99.6 54.0 99.8 56.1 C 99.8 56.1 99.8 56.3 99.8 56.3 C 99.9 56.9 100.4 58.5 100.4 58.5 C 100.5 58.8 102.6 65.9 102.6 65.9 C 103.0 67.1 103.4 68.2 103.4 68.6 C 103.3 68.9 103.1 69.0 102.9 69.0 C 102.3 69.0 101.3 68.4 100.4 67.2 L 97.3 57.5 L 93.9 57.5 L 96.7 65.9 C 97.1 67.1 97.4 68.2 97.4 68.6 C 97.4 68.9 97.2 69.0 96.9 69.0 C 96.3 69.0 95.4 68.4 94.5 67.3 L 91.3 57.5 L 88.7 57.5 L 88.1 57.5 C 88.1 57.5 87.7 57.5 88.0 57.9 C 88.1 58.0 88.2 58.2 88.3 58.4 C 89.8 61.3 91.9 69.2 91.9 69.2 C 88.9 68.2 86.4 67.6 86.5 66.1 C 86.5 65.6 86.8 65.3 87.1 65.2 C 87.3 65.1 87.5 64.9 87.1 64.8 C 85.9 64.6 83.8 64.3 83.7 66.0 C 83.4 69.1 92.0 70.4 92.8 72.4 C 92.9 72.6 93.0 72.6 93.0 72.6 C 93.0 72.6 94.4 72.6 94.6 72.6 C 95.0 72.6 95.8 72.4 95.2 70.9 L 94.8 69.8 C 96.0 71.5 98.0 72.4 99.0 72.4 C 100.2 72.4 100.9 71.4 101.0 70.4 C 102.3 71.7 103.9 72.4 105.0 72.4 C 106.3 72.4 106.9 71.3 107.0 70.1 C 107.0 69.4 106.8 68.5 106.4 67.3 " fill="#D2D1D1"></path><path d="M 124.3 57.8 C 124.7 59.4 124.9 61.1 125.0 62.8 L 120.8 64.5 L 120.2 69.5 L 123.8 72.3 C 123.3 73.9 122.6 75.5 121.9 76.9 L 117.3 76.4 L 114.3 80.4 L 116.1 84.6 C 114.8 85.7 113.5 86.7 112.1 87.6 L 108.4 84.9 L 103.8 86.8 L 103.2 91.3 C 101.6 91.7 99.9 91.9 98.2 92.0 L 96.5 87.8 L 91.5 87.2 L 88.7 90.8 C 87.1 90.3 85.5 89.6 84.1 88.9 L 84.6 84.3 L 80.6 81.3 L 76.5 83.0 C 75.3 81.8 74.3 80.5 73.4 79.1 L 76.1 75.4 L 74.2 70.8 L 69.7 70.2 C 69.3 68.6 69.1 66.9 69.0 65.2 L 73.2 63.5 L 73.8 58.5 L 70.2 55.7 C 70.7 54.1 71.4 52.5 72.1 51.1 L 76.7 51.6 L 79.7 47.6 L 77.9 43.5 C 79.2 42.3 80.5 41.3 81.9 40.4 L 85.6 43.1 L 90.2 41.2 L 90.8 36.7 C 92.4 36.3 94.1 36.1 95.8 36.0 L 97.5 40.2 L 102.5 40.8 L 105.3 37.2 C 106.9 37.7 108.5 38.4 109.9 39.1 L 109.4 43.7 L 113.4 46.7 L 117.5 45.0 C 118.7 46.2 119.7 47.5 120.6 48.9 L 117.9 52.6 L 119.8 57.2 Z M 99.7 42.9 C 88.1 41.4 77.4 49.7 75.9 61.3 C 74.4 72.9 82.7 83.6 94.3 85.1 C 105.9 86.6 116.6 78.3 118.1 66.7 C 119.6 55.1 111.3 44.4 99.7 42.9 " fill="#D2D1D1"></path></g></g><image xlink:href="../../8D0E4DD1-C4CE-4809-A4B4-C76476D29053/assets/1FA968EB7903CD7F8FEA93493C33CDB0.png" width="491.00" height="469.00" transform="matrix(1.00, 0.00, -0.00, -1.00, 717.5, 546.4)" opacity="0.70"></image><g><clipPath id="clip-19338"><path d="M 720.0 544.0 L 1207.0 544.0 L 1207.0 80.0 L 720.0 80.0 Z M 719.6 544.3 "></path></clipPath><g clip-path="url(#clip-19338)"><image xlink:href="../../6D592CE6-C619-4159-B28A-BB4401B057EA/assets/27C0498BA0A70E937C5ED8B07E01CD3B.png" width="315.00" height="541.00" transform="matrix(2.70, 0.00, -0.00, -2.70, 537.0, 888.0)"></image></g></g><path d="M 0.0 0.0 L 0.0 464.2 L 486.8 464.2 L 486.8 0.0 L 0.0 0.0 Z M 0.0 0.0 " fill="none" stroke="#F2F6F5" stroke-width="0.25" transform="matrix(1.00, 0.00, 0.00, -1.00, 719.6, 544.3)"></path><text xml:space="preserve" font-family="Sonus-Bold" font-weight="bold" font-size="40.0" fill="#000000" transform="matrix(1.00, 0.00, -0.00, -1.00, 74.0, 579.0)">S</text><text xml:space="preserve" font-family="Sonus-Bold" font-weight="bold" font-size="40.0" fill="#000000" transform="matrix(1.00, 0.00, -0.00, -1.00, 96.4, 579.0)">h</text><text xml:space="preserve" font-family="Sonus-Bold" font-weight="bold" font-size="40.0" fill="#000000" transform="matrix(1.00, 0.00, -0.00, -1.00, 120.3, 579.0)">o</text><text xml:space="preserve" font-family="Sonus-Bold" font-weight="bold" font-size="40.0" fill="#000000" transform="matrix(1.00, 0.00, -0.00, -1.00, 143.9, 579.0)">w</text><text xml:space="preserve" font-family="Sonus-Bold" font-weight="bold" font-size="40.0" fill="#000000" transform="matrix(1.00, 0.00, -0.00, -1.00, 175.1, 579.0)"> </text><text xml:space="preserve" font-family="Sonus-Bold" font-weight="bold" font-size="40.0" fill="#000000" transform="matrix(1.00, 0.00, -0.00, -1.00, 183.7, 579.0)">t</text><text xml:space="preserve" font-family="Sonus-Bold" font-weight="bold" font-size="40.0" fill="#000000" transform="matrix(1.00, 0.00, -0.00, -1.00, 198.6, 579.0)">h</text><text xml:space="preserve" font-family="Sonus-Bold" font-weight="bold" font-size="40.0" fill="#000000" transform="matrix(1.00, 0.00, -0.00, -1.00, 222.5, 579.0)">e</text><text xml:space="preserve" font-family="Sonus-Bold" font-weight="bold" font-size="40.0" fill="#000000" transform="matrix(1.00, 0.00, -0.00, -1.00, 243.8, 579.0)"> </text><text xml:space="preserve" font-family="Sonus-Bold" font-weight="bold" font-size="40.0" fill="#000000" transform="matrix(1.00, 0.00, -0.00, -1.00, 252.4, 579.0)">d</text><text xml:space="preserve" font-family="Sonus-Bold" font-weight="bold" font-size="40.0" fill="#000000" transform="matrix(1.00, 0.00, -0.00, -1.00, 276.4, 579.0)">a</text><text xml:space="preserve" font-family="Sonus-Bold" font-weight="bold" font-size="40.0" fill="#000000" transform="matrix(1.00, 0.00, -0.00, -1.00, 297.6, 579.0)">y</text><text xml:space="preserve" font-family="Sonus-Bold" font-weight="bold" font-size="40.0" fill="#000000" transform="matrix(1.00, 0.00, -0.00, -1.00, 319.3, 579.0)">-</text><text xml:space="preserve" font-family="Sonus-Bold" font-weight="bold" font-size="40.0" fill="#000000" transform="matrix(1.00, 0.00, -0.00, -1.00, 331.5, 579.0)">t</text><text xml:space="preserve" font-family="Sonus-Bold" font-weight="bold" font-size="40.0" fill="#000000" transform="matrix(1.00, 0.00, -0.00, -1.00, 346.4, 579.0)">o</text><text xml:space="preserve" font-family="Sonus-Bold" font-weight="bold" font-size="40.0" fill="#000000" transform="matrix(1.00, 0.00, -0.00, -1.00, 369.6, 579.0)">-</text><text xml:space="preserve" font-family="Sonus-Bold" font-weight="bold" font-size="40.0" fill="#000000" transform="matrix(1.00, 0.00, -0.00, -1.00, 381.7, 579.0)">d</text><text xml:space="preserve" font-family="Sonus-Bold" font-weight="bold" font-size="40.0" fill="#000000" transform="matrix(1.00, 0.00, -0.00, -1.00, 405.7, 579.0)">a</text><text xml:space="preserve" font-family="Sonus-Bold" font-weight="bold" font-size="40.0" fill="#000000" transform="matrix(1.00, 0.00, -0.00, -1.00, 426.9, 579.0)">y</text><text xml:space="preserve" font-family="Sonus-Bold" font-weight="bold" font-size="40.0" fill="#000000" transform="matrix(1.00, 0.00, -0.00, -1.00, 448.6, 579.0)"> </text><text xml:space="preserve" font-family="Sonus-Bold" font-weight="bold" font-size="40.0" fill="#000000" transform="matrix(1.00, 0.00, -0.00, -1.00, 457.2, 579.0)">o</text><text xml:space="preserve" font-family="Sonus-Bold" font-weight="bold" font-size="40.0" fill="#000000" transform="matrix(1.00, 0.00, -0.00, -1.00, 480.4, 579.0)">f</text><text xml:space="preserve" font-family="Sonus-Bold" font-weight="bold" font-size="40.0" fill="#000000" transform="matrix(1.00, 0.00, -0.00, -1.00, 495.6, 579.0)"> </text><text xml:space="preserve" font-family="Sonus-Bold" font-weight="bold" font-size="40.0" fill="#000000" transform="matrix(1.00, 0.00, -0.00, -1.00, 504.2, 579.0)">r</text><text xml:space="preserve" font-family="Sonus-Bold" font-weight="bold" font-size="40.0" fill="#000000" transform="matrix(1.00, 0.00, -0.00, -1.00, 519.3, 579.0)">o</text><text xml:space="preserve" font-family="Sonus-Bold" font-weight="bold" font-size="40.0" fill="#000000" transform="matrix(1.00, 0.00, -0.00, -1.00, 542.5, 579.0)">l</text><text xml:space="preserve" font-family="Sonus-Bold" font-weight="bold" font-size="40.0" fill="#000000" transform="matrix(1.00, 0.00, -0.00, -1.00, 553.6, 579.0)">e</text><text xml:space="preserve" font-family="Sonus-Bold" font-weight="bold" font-size="40.0" fill="#000000" transform="matrix(1.00, 0.00, -0.00, -1.00, 575.0, 579.0)">s</text><text xml:space="preserve" font-family="Sonus-Bold" font-weight="bold" font-size="40.0" fill="#000000" transform="matrix(1.00, 0.00, -0.00, -1.00, 592.6, 579.0)"> </text><text xml:space="preserve" font-family="Sonus-Bold" font-weight="bold" font-size="40.0" fill="#000000" transform="matrix(1.00, 0.00, -0.00, -1.00, 601.2, 579.0)">a</text><text xml:space="preserve" font-family="Sonus-Bold" font-weight="bold" font-size="40.0" fill="#000000" transform="matrix(1.00, 0.00, -0.00, -1.00, 622.6, 579.0)">t</text><text xml:space="preserve" font-family="Sonus-Bold" font-weight="bold" font-size="40.0" fill="#000000" transform="matrix(1.00, 0.00, -0.00, -1.00, 637.5, 579.0)"> </text><text xml:space="preserve" font-family="Sonus-Bold" font-weight="bold" font-size="40.0" fill="#000000" transform="matrix(1.00, 0.00, -0.00, -1.00, 646.2, 579.0)">t</text><text xml:space="preserve" font-family="Sonus-Bold" font-weight="bold" font-size="40.0" fill="#000000" transform="matrix(1.00, 0.00, -0.00, -1.00, 661.0, 579.0)">h</text><text xml:space="preserve" font-family="Sonus-Bold" font-weight="bold" font-size="40.0" fill="#000000" transform="matrix(1.00, 0.00, -0.00, -1.00, 684.9, 579.0)">e</text><text xml:space="preserve" font-family="Sonus-Bold" font-weight="bold" font-size="40.0" fill="#000000" transform="matrix(1.00, 0.00, -0.00, -1.00, 706.2, 579.0)"> </text><text xml:space="preserve" font-family="Sonus-Bold" font-weight="bold" font-size="40.0" fill="#000000" transform="matrix(1.00, 0.00, -0.00, -1.00, 714.9, 579.0)">c</text><text xml:space="preserve" font-family="Sonus-Bold" font-weight="bold" font-size="40.0" fill="#000000" transform="matrix(1.00, 0.00, -0.00, -1.00, 733.7, 579.0)">o</text><text xml:space="preserve" font-family="Sonus-Bold" font-weight="bold" font-size="40.0" fill="#000000" transform="matrix(1.00, 0.00, -0.00, -1.00, 756.9, 579.0)">m</text><text xml:space="preserve" font-family="Sonus-Bold" font-weight="bold" font-size="40.0" fill="#000000" transform="matrix(1.00, 0.00, -0.00, -1.00, 792.9, 579.0)">p</text><text xml:space="preserve" font-family="Sonus-Bold" font-weight="bold" font-size="40.0" fill="#000000" transform="matrix(1.00, 0.00, -0.00, -1.00, 816.9, 579.0)">a</text><text xml:space="preserve" font-family="Sonus-Bold" font-weight="bold" font-size="40.0" fill="#000000" transform="matrix(1.00, 0.00, -0.00, -1.00, 838.3, 579.0)">n</text><text xml:space="preserve" font-family="Sonus-Bold" font-weight="bold" font-size="40.0" fill="#000000" transform="matrix(1.00, 0.00, -0.00, -1.00, 861.9, 579.0)">y</text><text xml:space="preserve" font-family="Sonus-Light" font-size="19.0" fill="#5D5D5D" transform="matrix(1.00, 0.00, -0.00, -1.00, 74.0, 392.0)">S</text><text xml:space="preserve" font-family="Sonus-Light" font-size="19.0" fill="#5D5D5D" transform="matrix(1.00, 0.00, -0.00, -1.00, 83.8, 392.0)">q</text><text xml:space="preserve" font-family="Sonus-Light" font-size="19.0" fill="#5D5D5D" transform="matrix(1.00, 0.00, -0.00, -1.00, 94.3, 392.0)">u</text><text xml:space="preserve" font-family="Sonus-Light" font-size="19.0" fill="#5D5D5D" transform="matrix(1.00, 0.00, -0.00, -1.00, 105.0, 392.0)">a</text><text xml:space="preserve" font-family="Sonus-Light" font-size="19.0" fill="#5D5D5D" transform="matrix(1.00, 0.00, -0.00, -1.00, 114.4, 392.0)">r</text><text xml:space="preserve" font-family="Sonus-Light" font-size="19.0" fill="#5D5D5D" transform="matrix(1.00, 0.00, -0.00, -1.00, 120.6, 392.0)">e</text><text xml:space="preserve" font-family="Sonus-Light" font-size="19.0" fill="#5D5D5D" transform="matrix(1.00, 0.00, -0.00, -1.00, 130.2, 392.0)"> </text><text xml:space="preserve" font-family="Sonus-Light" font-size="19.0" fill="#5D5D5D" transform="matrix(1.00, 0.00, -0.00, -1.00, 134.3, 392.0)">h</text><text xml:space="preserve" font-family="Sonus-Light" font-size="19.0" fill="#5D5D5D" transform="matrix(1.00, 0.00, -0.00, -1.00, 144.9, 392.0)">a</text><text xml:space="preserve" font-family="Sonus-Light" font-size="19.0" fill="#5D5D5D" transform="matrix(1.00, 0.00, -0.00, -1.00, 154.4, 392.0)">s</text><text xml:space="preserve" font-family="Sonus-Light" font-size="19.0" fill="#5D5D5D" transform="matrix(1.00, 0.00, -0.00, -1.00, 162.1, 392.0)"> </text><text xml:space="preserve" font-family="Sonus-Light" font-size="19.0" fill="#5D5D5D" transform="matrix(1.00, 0.00, -0.00, -1.00, 166.2, 392.0)">a</text><text xml:space="preserve" font-family="Sonus-Light" font-size="19.0" fill="#5D5D5D" transform="matrix(1.00, 0.00, -0.00, -1.00, 175.7, 392.0)"> </text><text xml:space="preserve" font-family="Sonus-Light" font-size="19.0" fill="#5D5D5D" transform="matrix(1.00, 0.00, -0.00, -1.00, 179.8, 392.0)">b</text><text xml:space="preserve" font-family="Sonus-Light" font-size="19.0" fill="#5D5D5D" transform="matrix(1.00, 0.00, -0.00, -1.00, 190.3, 392.0)">e</text><text xml:space="preserve" font-family="Sonus-Light" font-size="19.0" fill="#5D5D5D" transform="matrix(1.00, 0.00, -0.00, -1.00, 199.7, 392.0)">a</text><text xml:space="preserve" font-family="Sonus-Light" font-size="19.0" fill="#5D5D5D" transform="matrix(1.00, 0.00, -0.00, -1.00, 209.2, 392.0)">u</text><text xml:space="preserve" font-family="Sonus-Light" font-size="19.0" fill="#5D5D5D" transform="matrix(1.00, 0.00, -0.00, -1.00, 219.9, 392.0)">t</text><text xml:space="preserve" font-family="Sonus-Light" font-size="19.0" fill="#5D5D5D" transform="matrix(1.00, 0.00, -0.00, -1.00, 226.0, 392.0)">i</text><text xml:space="preserve" font-family="Sonus-Light" font-size="19.0" fill="#5D5D5D" transform="matrix(1.00, 0.00, -0.00, -1.00, 230.4, 392.0)">f</text><text xml:space="preserve" font-family="Sonus-Light" font-size="19.0" fill="#5D5D5D" transform="matrix(1.00, 0.00, -0.00, -1.00, 236.3, 392.0)">u</text><text xml:space="preserve" font-family="Sonus-Light" font-size="19.0" fill="#5D5D5D" transform="matrix(1.00, 0.00, -0.00, -1.00, 247.0, 392.0)">l</text><text xml:space="preserve" font-family="Sonus-Light" font-size="19.0" fill="#5D5D5D" transform="matrix(1.00, 0.00, -0.00, -1.00, 251.3, 392.0)"> </text><text xml:space="preserve" font-family="Sonus-Light" font-size="19.0" fill="#5D5D5D" transform="matrix(1.00, 0.00, -0.00, -1.00, 255.4, 392.0)">s</text><text xml:space="preserve" font-family="Sonus-Light" font-size="19.0" fill="#5D5D5D" transform="matrix(1.00, 0.00, -0.00, -1.00, 263.1, 392.0)">l</text><text xml:space="preserve" font-family="Sonus-Light" font-size="19.0" fill="#5D5D5D" transform="matrix(1.00, 0.00, -0.00, -1.00, 267.5, 392.0)">i</text><text xml:space="preserve" font-family="Sonus-Light" font-size="19.0" fill="#5D5D5D" transform="matrix(1.00, 0.00, -0.00, -1.00, 271.8, 392.0)">d</text><text xml:space="preserve" font-family="Sonus-Light" font-size="19.0" fill="#5D5D5D" transform="matrix(1.00, 0.00, -0.00, -1.00, 282.4, 392.0)">e</text><text xml:space="preserve" font-family="Sonus-Light" font-size="19.0" fill="#5D5D5D" transform="matrix(1.00, 0.00, -0.00, -1.00, 291.9, 392.0)">s</text><text xml:space="preserve" font-family="Sonus-Light" font-size="19.0" fill="#5D5D5D" transform="matrix(1.00, 0.00, -0.00, -1.00, 299.6, 392.0)">h</text><text xml:space="preserve" font-family="Sonus-Light" font-size="19.0" fill="#5D5D5D" transform="matrix(1.00, 0.00, -0.00, -1.00, 310.2, 392.0)">o</text><text xml:space="preserve" font-family="Sonus-Light" font-size="19.0" fill="#5D5D5D" transform="matrix(1.00, 0.00, -0.00, -1.00, 320.6, 392.0)">w</text><text xml:space="preserve" font-family="Sonus-Light" font-size="19.0" fill="#5D5D5D" transform="matrix(1.00, 0.00, -0.00, -1.00, 333.7, 392.0)"> </text><text xml:space="preserve" font-family="Sonus-Light" font-size="19.0" fill="#5D5D5D" transform="matrix(1.00, 0.00, -0.00, -1.00, 337.8, 392.0)">s</text><text xml:space="preserve" font-family="Sonus-Light" font-size="19.0" fill="#5D5D5D" transform="matrix(1.00, 0.00, -0.00, -1.00, 345.5, 392.0)">h</text><text xml:space="preserve" font-family="Sonus-Light" font-size="19.0" fill="#5D5D5D" transform="matrix(1.00, 0.00, -0.00, -1.00, 356.1, 392.0)">o</text><text xml:space="preserve" font-family="Sonus-Light" font-size="19.0" fill="#5D5D5D" transform="matrix(1.00, 0.00, -0.00, -1.00, 366.5, 392.0)">w</text><text xml:space="preserve" font-family="Sonus-Light" font-size="19.0" fill="#5D5D5D" transform="matrix(1.00, 0.00, -0.00, -1.00, 379.6, 392.0)">i</text><text xml:space="preserve" font-family="Sonus-Light" font-size="19.0" fill="#5D5D5D" transform="matrix(1.00, 0.00, -0.00, -1.00, 384.0, 392.0)">n</text><text xml:space="preserve" font-family="Sonus-Light" font-size="19.0" fill="#5D5D5D" transform="matrix(1.00, 0.00, -0.00, -1.00, 394.6, 392.0)">g</text><text xml:space="preserve" font-family="Sonus-Light" font-size="19.0" fill="#5D5D5D" transform="matrix(1.00, 0.00, -0.00, -1.00, 404.0, 392.0)"> </text><text xml:space="preserve" font-family="Sonus-Light" font-size="19.0" fill="#5D5D5D" transform="matrix(1.00, 0.00, -0.00, -1.00, 408.2, 392.0)">w</text><text xml:space="preserve" font-family="Sonus-Light" font-size="19.0" fill="#5D5D5D" transform="matrix(1.00, 0.00, -0.00, -1.00, 421.3, 392.0)">h</text><text xml:space="preserve" font-family="Sonus-Light" font-size="19.0" fill="#5D5D5D" transform="matrix(1.00, 0.00, -0.00, -1.00, 432.0, 392.0)">a</text><text xml:space="preserve" font-family="Sonus-Light" font-size="19.0" fill="#5D5D5D" transform="matrix(1.00, 0.00, -0.00, -1.00, 441.5, 392.0)">t</text><text xml:space="preserve" font-family="Sonus-Light" font-size="19.0" fill="#5D5D5D" transform="matrix(1.00, 0.00, -0.00, -1.00, 447.6, 392.0)"> </text><text xml:space="preserve" font-family="Sonus-Light" font-size="19.0" fill="#5D5D5D" transform="matrix(1.00, 0.00, -0.00, -1.00, 74.0, 366.0)">a</text><text xml:space="preserve" font-family="Sonus-Light" font-size="19.0" fill="#5D5D5D" transform="matrix(1.00, 0.00, -0.00, -1.00, 83.5, 366.0)"> </text><text xml:space="preserve" font-family="Sonus-Light" font-size="19.0" fill="#5D5D5D" transform="matrix(1.00, 0.00, -0.00, -1.00, 87.6, 366.0)">n</text><text xml:space="preserve" font-family="Sonus-Light" font-size="19.0" fill="#5D5D5D" transform="matrix(1.00, 0.00, -0.00, -1.00, 98.1, 366.0)">o</text><text xml:space="preserve" font-family="Sonus-Light" font-size="19.0" fill="#5D5D5D" transform="matrix(1.00, 0.00, -0.00, -1.00, 108.4, 366.0)">r</text><text xml:space="preserve" font-family="Sonus-Light" font-size="19.0" fill="#5D5D5D" transform="matrix(1.00, 0.00, -0.00, -1.00, 114.9, 366.0)">m</text><text xml:space="preserve" font-family="Sonus-Light" font-size="19.0" fill="#5D5D5D" transform="matrix(1.00, 0.00, -0.00, -1.00, 131.4, 366.0)">a</text><text xml:space="preserve" font-family="Sonus-Light" font-size="19.0" fill="#5D5D5D" transform="matrix(1.00, 0.00, -0.00, -1.00, 140.9, 366.0)">l</text><text xml:space="preserve" font-family="Sonus-Light" font-size="19.0" fill="#5D5D5D" transform="matrix(1.00, 0.00, -0.00, -1.00, 145.2, 366.0)"> </text><text xml:space="preserve" font-family="Sonus-Light" font-size="19.0" fill="#5D5D5D" transform="matrix(1.00, 0.00, -0.00, -1.00, 149.3, 366.0)">d</text><text xml:space="preserve" font-family="Sonus-Light" font-size="19.0" fill="#5D5D5D" transform="matrix(1.00, 0.00, -0.00, -1.00, 159.8, 366.0)">a</text><text xml:space="preserve" font-family="Sonus-Light" font-size="19.0" fill="#5D5D5D" transform="matrix(1.00, 0.00, -0.00, -1.00, 169.2, 366.0)">y</text><text xml:space="preserve" font-family="Sonus-Light" font-size="19.0" fill="#5D5D5D" transform="matrix(1.00, 0.00, -0.00, -1.00, 177.9, 366.0)"> </text><text xml:space="preserve" font-family="Sonus-Light" font-size="19.0" fill="#5D5D5D" transform="matrix(1.00, 0.00, -0.00, -1.00, 182.0, 366.0)">l</text><text xml:space="preserve" font-family="Sonus-Light" font-size="19.0" fill="#5D5D5D" transform="matrix(1.00, 0.00, -0.00, -1.00, 186.4, 366.0)">o</text><text xml:space="preserve" font-family="Sonus-Light" font-size="19.0" fill="#5D5D5D" transform="matrix(1.00, 0.00, -0.00, -1.00, 196.6, 366.0)">o</text><text xml:space="preserve" font-family="Sonus-Light" font-size="19.0" fill="#5D5D5D" transform="matrix(1.00, 0.00, -0.00, -1.00, 206.8, 366.0)">k</text><text xml:space="preserve" font-family="Sonus-Light" font-size="19.0" fill="#5D5D5D" transform="matrix(1.00, 0.00, -0.00, -1.00, 216.1, 366.0)">s</text><text xml:space="preserve" font-family="Sonus-Light" font-size="19.0" fill="#5D5D5D" transform="matrix(1.00, 0.00, -0.00, -1.00, 223.8, 366.0)"> </text><text xml:space="preserve" font-family="Sonus-Light" font-size="19.0" fill="#5D5D5D" transform="matrix(1.00, 0.00, -0.00, -1.00, 227.9, 366.0)">l</text><text xml:space="preserve" font-family="Sonus-Light" font-size="19.0" fill="#5D5D5D" transform="matrix(1.00, 0.00, -0.00, -1.00, 232.3, 366.0)">i</text><text xml:space="preserve" font-family="Sonus-Light" font-size="19.0" fill="#5D5D5D" transform="matrix(1.00, 0.00, -0.00, -1.00, 236.6, 366.0)">k</text><text xml:space="preserve" font-family="Sonus-Light" font-size="19.0" fill="#5D5D5D" transform="matrix(1.00, 0.00, -0.00, -1.00, 245.8, 366.0)">e</text><text xml:space="preserve" font-family="Sonus-Light" font-size="19.0" fill="#5D5D5D" transform="matrix(1.00, 0.00, -0.00, -1.00, 255.3, 366.0)"> </text><text xml:space="preserve" font-family="Sonus-Light" font-size="19.0" fill="#5D5D5D" transform="matrix(1.00, 0.00, -0.00, -1.00, 259.4, 366.0)">f</text><text xml:space="preserve" font-family="Sonus-Light" font-size="19.0" fill="#5D5D5D" transform="matrix(1.00, 0.00, -0.00, -1.00, 265.3, 366.0)">o</text><text xml:space="preserve" font-family="Sonus-Light" font-size="19.0" fill="#5D5D5D" transform="matrix(1.00, 0.00, -0.00, -1.00, 275.6, 366.0)">r</text><text xml:space="preserve" font-family="Sonus-Light" font-size="19.0" fill="#5D5D5D" transform="matrix(1.00, 0.00, -0.00, -1.00, 282.1, 366.0)"> </text><text xml:space="preserve" font-family="Sonus-Light" font-size="19.0" fill="#5D5D5D" transform="matrix(1.00, 0.00, -0.00, -1.00, 286.2, 366.0)">a</text><text xml:space="preserve" font-family="Sonus-Light" font-size="19.0" fill="#5D5D5D" transform="matrix(1.00, 0.00, -0.00, -1.00, 295.7, 366.0)"> </text><text xml:space="preserve" font-family="Sonus-Light" font-size="19.0" fill="#5D5D5D" transform="matrix(1.00, 0.00, -0.00, -1.00, 299.8, 366.0)">s</text><text xml:space="preserve" font-family="Sonus-Light" font-size="19.0" fill="#5D5D5D" transform="matrix(1.00, 0.00, -0.00, -1.00, 307.6, 366.0)">q</text><text xml:space="preserve" font-family="Sonus-Light" font-size="19.0" fill="#5D5D5D" transform="matrix(1.00, 0.00, -0.00, -1.00, 318.1, 366.0)">u</text><text xml:space="preserve" font-family="Sonus-Light" font-size="19.0" fill="#5D5D5D" transform="matrix(1.00, 0.00, -0.00, -1.00, 328.7, 366.0)">a</text><text xml:space="preserve" font-family="Sonus-Light" font-size="19.0" fill="#5D5D5D" transform="matrix(1.00, 0.00, -0.00, -1.00, 338.2, 366.0)">r</text><text xml:space="preserve" font-family="Sonus-Light" font-size="19.0" fill="#5D5D5D" transform="matrix(1.00, 0.00, -0.00, -1.00, 344.4, 366.0)">e</text><text xml:space="preserve" font-family="Sonus-Light" font-size="19.0" fill="#5D5D5D" transform="matrix(1.00, 0.00, -0.00, -1.00, 353.9, 366.0)"> </text><text xml:space="preserve" font-family="Sonus-Light" font-size="19.0" fill="#5D5D5D" transform="matrix(1.00, 0.00, -0.00, -1.00, 358.0, 366.0)">e</text><text xml:space="preserve" font-family="Sonus-Light" font-size="19.0" fill="#5D5D5D" transform="matrix(1.00, 0.00, -0.00, -1.00, 367.6, 366.0)">m</text><text xml:space="preserve" font-family="Sonus-Light" font-size="19.0" fill="#5D5D5D" transform="matrix(1.00, 0.00, -0.00, -1.00, 384.1, 366.0)">p</text><text xml:space="preserve" font-family="Sonus-Light" font-size="19.0" fill="#5D5D5D" transform="matrix(1.00, 0.00, -0.00, -1.00, 394.6, 366.0)">l</text><text xml:space="preserve" font-family="Sonus-Light" font-size="19.0" fill="#5D5D5D" transform="matrix(1.00, 0.00, -0.00, -1.00, 399.0, 366.0)">o</text><text xml:space="preserve" font-family="Sonus-Light" font-size="19.0" fill="#5D5D5D" transform="matrix(1.00, 0.00, -0.00, -1.00, 409.2, 366.0)">y</text><text xml:space="preserve" font-family="Sonus-Light" font-size="19.0" fill="#5D5D5D" transform="matrix(1.00, 0.00, -0.00, -1.00, 417.9, 366.0)">e</text><text xml:space="preserve" font-family="Sonus-Light" font-size="19.0" fill="#5D5D5D" transform="matrix(1.00, 0.00, -0.00, -1.00, 427.4, 366.0)">e</text><text xml:space="preserve" font-family="Sonus-Light" font-size="19.0" fill="#5D5D5D" transform="matrix(1.00, 0.00, -0.00, -1.00, 437.0, 366.0)">.</text><g><clipPath id="clip-19339"><path d="M 70.0 497.0 L 139.2 497.0 L 139.2 427.8 L 70.0 427.8 Z M 70.0 497.0 "></path></clipPath><g clip-path="url(#clip-19339)"><g><clipPath id="clip-19340"><path d="M 70.0 428.0 L 139.0 428.0 L 139.0 497.0 L 70.0 497.0 Z M 70.0 428.0 "></path></clipPath><g clip-path="url(#clip-19340)"><path d="M 126.5 444.2 C 126.5 442.2 124.8 440.5 122.8 440.5 L 86.2 440.5 C 84.2 440.5 82.6 442.2 82.6 444.2 L 82.6 480.8 C 82.6 482.8 84.2 484.4 86.2 484.4 L 122.8 484.4 C 124.8 484.4 126.5 482.8 126.5 480.8 Z M 127.5 497.0 L 81.5 497.0 C 75.2 497.0 70.0 491.8 70.0 485.5 L 70.0 439.5 C 70.0 433.2 75.2 428.0 81.5 428.0 L 127.5 428.0 C 133.8 428.0 139.0 433.2 139.0 439.5 L 139.0 485.5 C 139.0 491.8 133.8 497.0 127.5 497.0 " fill="#2D3A4E"></path><path d="M 97.2 453.1 C 96.0 453.1 95.1 454.0 95.1 455.2 L 95.1 469.8 C 95.1 471.0 96.0 471.9 97.2 471.9 L 111.8 471.9 C 113.0 471.9 113.9 471.0 113.9 469.8 L 113.9 455.2 C 113.9 454.0 113.0 453.1 111.8 453.1 Z M 97.2 453.1 " fill="#2D3A4E"></path></g></g></g></g><g><clipPath id="clip-19341"><path d="M 530.4 51.8 L 1207.9 51.8 L 1207.9 89.3 L 530.4 89.3 Z M 530.4 51.8 "></path></clipPath><g clip-path="url(#clip-19341)"><text xml:space="preserve" font-family="Sonus-Light" font-size="12.0" fill="#A6AAA8" transform="matrix(1.00, 0.00, -0.00, -1.00, 1055.3, 54.0)">h</text><text xml:space="preserve" font-family="Sonus-Light" font-size="12.0" fill="#A6AAA8" transform="matrix(1.00, 0.00, -0.00, -1.00, 1062.1, 54.0)">t</text><text xml:space="preserve" font-family="Sonus-Light" font-size="12.0" fill="#A6AAA8" transform="matrix(1.00, 0.00, -0.00, -1.00, 1066.0, 54.0)">t</text><text xml:space="preserve" font-family="Sonus-Light" font-size="12.0" fill="#A6AAA8" transform="matrix(1.00, 0.00, -0.00, -1.00, 1069.9, 54.0)">p</text><text xml:space="preserve" font-family="Sonus-Light" font-size="12.0" fill="#A6AAA8" transform="matrix(1.00, 0.00, -0.00, -1.00, 1076.5, 54.0)">s</text><text xml:space="preserve" font-family="Sonus-Light" font-size="12.0" fill="#A6AAA8" transform="matrix(1.00, 0.00, -0.00, -1.00, 1081.4, 54.0)">:</text><text xml:space="preserve" font-family="Sonus-Light" font-size="12.0" fill="#A6AAA8" transform="matrix(1.00, 0.00, -0.00, -1.00, 1083.9, 54.0)">/</text><text xml:space="preserve" font-family="Sonus-Light" font-size="12.0" fill="#A6AAA8" transform="matrix(1.00, 0.00, -0.00, -1.00, 1088.4, 54.0)">/</text><text xml:space="preserve" font-family="Sonus-Light" font-size="12.0" fill="#A6AAA8" transform="matrix(1.00, 0.00, -0.00, -1.00, 1092.9, 54.0)">s</text><text xml:space="preserve" font-family="Sonus-Light" font-size="12.0" fill="#A6AAA8" transform="matrix(1.00, 0.00, -0.00, -1.00, 1097.9, 54.0)">q</text><text xml:space="preserve" font-family="Sonus-Light" font-size="12.0" fill="#A6AAA8" transform="matrix(1.00, 0.00, -0.00, -1.00, 1104.5, 54.0)">u</text><text xml:space="preserve" font-family="Sonus-Light" font-size="12.0" fill="#A6AAA8" transform="matrix(1.00, 0.00, -0.00, -1.00, 1111.2, 54.0)">a</text><text xml:space="preserve" font-family="Sonus-Light" font-size="12.0" fill="#A6AAA8" transform="matrix(1.00, 0.00, -0.00, -1.00, 1117.2, 54.0)">r</text><text xml:space="preserve" font-family="Sonus-Light" font-size="12.0" fill="#A6AAA8" transform="matrix(1.00, 0.00, -0.00, -1.00, 1121.1, 54.0)">e</text><text xml:space="preserve" font-family="Sonus-Light" font-size="12.0" fill="#A6AAA8" transform="matrix(1.00, 0.00, -0.00, -1.00, 1127.1, 54.0)">u</text><text xml:space="preserve" font-family="Sonus-Light" font-size="12.0" fill="#A6AAA8" transform="matrix(1.00, 0.00, -0.00, -1.00, 1133.9, 54.0)">p</text><text xml:space="preserve" font-family="Sonus-Light" font-size="12.0" fill="#A6AAA8" transform="matrix(1.00, 0.00, -0.00, -1.00, 1140.1, 54.0)">.</text><text xml:space="preserve" font-family="Sonus-Light" font-size="12.0" fill="#A6AAA8" transform="matrix(1.00, 0.00, -0.00, -1.00, 1142.4, 54.0)">c</text><text xml:space="preserve" font-family="Sonus-Light" font-size="12.0" fill="#A6AAA8" transform="matrix(1.00, 0.00, -0.00, -1.00, 1147.8, 54.0)">o</text><text xml:space="preserve" font-family="Sonus-Light" font-size="12.0" fill="#A6AAA8" transform="matrix(1.00, 0.00, -0.00, -1.00, 1154.3, 54.0)">m</text><text xml:space="preserve" font-family="Sonus-Light" font-size="12.0" fill="#A6AAA8" transform="matrix(1.00, 0.00, -0.00, -1.00, 1165.0, 54.0)">/</text><text xml:space="preserve" font-family="Sonus-Light" font-size="12.0" fill="#A6AAA8" transform="matrix(1.00, 0.00, -0.00, -1.00, 1168.8, 54.0)">c</text><text xml:space="preserve" font-family="Sonus-Light" font-size="12.0" fill="#A6AAA8" transform="matrix(1.00, 0.00, -0.00, -1.00, 1174.2, 54.0)">a</text><text xml:space="preserve" font-family="Sonus-Light" font-size="12.0" fill="#A6AAA8" transform="matrix(1.00, 0.00, -0.00, -1.00, 1180.2, 54.0)">r</text><text xml:space="preserve" font-family="Sonus-Light" font-size="12.0" fill="#A6AAA8" transform="matrix(1.00, 0.00, -0.00, -1.00, 1184.1, 54.0)">e</text><text xml:space="preserve" font-family="Sonus-Light" font-size="12.0" fill="#A6AAA8" transform="matrix(1.00, 0.00, -0.00, -1.00, 1190.2, 54.0)">e</text><text xml:space="preserve" font-family="Sonus-Light" font-size="12.0" fill="#A6AAA8" transform="matrix(1.00, 0.00, -0.00, -1.00, 1196.2, 54.0)">r</text><text xml:space="preserve" font-family="Sonus-Light" font-size="12.0" fill="#A6AAA8" transform="matrix(1.00, 0.00, -0.00, -1.00, 1200.2, 54.0)">s</text></g></g><g><clipPath id="clip-19342"><path d="M 1054.3 51.8 L 1205.0 51.8 L 1205.0 54.4 L 1054.3 54.4 Z M 1054.3 51.8 "></path></clipPath><g clip-path="url(#clip-19342)"><path d="M 525.8 39.9 L 675.5 39.9 " fill="none" stroke="#A6AAA8" stroke-width="0.60" stroke-miterlimit="0.00" transform="matrix(1.00, 0.00, 0.00, -1.00, 529.5, 93.0)"></path></g></g></g></svg>