<?xml version="1.0" encoding="UTF-8" standalone="no"?><svg xmlns="http://www.w3.org/2000/svg" xmlns:xlink="http://www.w3.org/1999/xlink" clip-rule="evenodd" stroke-miterlimit="4.00" viewBox="0 0 1280 720"><desc>SVG generated by Keynote</desc><defs></defs><g transform="matrix(1.00, 0.00, -0.00, -1.00, 0.0, 720.0)"><path d="M 0.0 720.0 L 1280.0 720.0 L 1280.0 0.0 L 0.0 0.0 Z M 0.0 720.0 " fill="#EF6823"></path><text xml:space="preserve" font-family="Sonus-Bold" font-weight="bold" font-size="75.4" fill="#FEFFFF" transform="matrix(1.00, 0.00, -0.00, -1.00, 72.0, 335.0)">A</text><text xml:space="preserve" font-family="Sonus-Bold" font-weight="bold" font-size="75.4" fill="#FEFFFF" transform="matrix(1.00, 0.00, -0.00, -1.00, 121.4, 335.0)">n</text><text xml:space="preserve" font-family="Sonus-Bold" font-weight="bold" font-size="75.4" fill="#FEFFFF" transform="matrix(1.00, 0.00, -0.00, -1.00, 166.3, 335.0)">a</text><text xml:space="preserve" font-family="Sonus-Bold" font-weight="bold" font-size="75.4" fill="#FEFFFF" transform="matrix(1.00, 0.00, -0.00, -1.00, 206.7, 335.0)">l</text><text xml:space="preserve" font-family="Sonus-Bold" font-weight="bold" font-size="75.4" fill="#FEFFFF" transform="matrix(1.00, 0.00, -0.00, -1.00, 227.7, 335.0)">y</text><text xml:space="preserve" font-family="Sonus-Bold" font-weight="bold" font-size="75.4" fill="#FEFFFF" transform="matrix(1.00, 0.00, -0.00, -1.00, 269.0, 335.0)">t</text><text xml:space="preserve" font-family="Sonus-Bold" font-weight="bold" font-size="75.4" fill="#FEFFFF" transform="matrix(1.00, 0.00, -0.00, -1.00, 297.0, 335.0)">i</text><text xml:space="preserve" font-family="Sonus-Bold" font-weight="bold" font-size="75.4" fill="#FEFFFF" transform="matrix(1.00, 0.00, -0.00, -1.00, 318.1, 335.0)">c</text><text xml:space="preserve" font-family="Sonus-Bold" font-weight="bold" font-size="75.4" fill="#FEFFFF" transform="matrix(1.00, 0.00, -0.00, -1.00, 354.1, 335.0)">s</text></g></svg>