<?xml version="1.0" encoding="UTF-8" standalone="no"?><svg xmlns="http://www.w3.org/2000/svg" xmlns:xlink="http://www.w3.org/1999/xlink" clip-rule="evenodd" stroke-miterlimit="4.00" viewBox="0 0 1280 720"><desc>SVG generated by Keynote</desc><defs></defs><g transform="matrix(1.00, 0.00, -0.00, -1.00, 0.0, 720.0)"><path d="M 0.0 720.0 L 1280.0 720.0 L 1280.0 0.0 L 0.0 0.0 Z M 0.0 720.0 " fill="#FEFFFF"></path><text xml:space="preserve" font-family="AkkuratStd-Bold" font-weight="bold" font-size="100.0" fill="#A6AAA8" transform="matrix(1.00, 0.00, -0.00, -1.00, 291.0, 320.0)">P</text><text xml:space="preserve" font-family="AkkuratStd-Bold" font-weight="bold" font-size="100.0" fill="#A6AAA8" transform="matrix(1.00, 0.00, -0.00, -1.00, 349.4, 320.0)">a</text><text xml:space="preserve" font-family="AkkuratStd-Bold" font-weight="bold" font-size="100.0" fill="#A6AAA8" transform="matrix(1.00, 0.00, -0.00, -1.00, 402.1, 320.0)">t</text><text xml:space="preserve" font-family="AkkuratStd-Bold" font-weight="bold" font-size="100.0" fill="#A6AAA8" transform="matrix(1.00, 0.00, -0.00, -1.00, 439.1, 320.0)">h</text><text xml:space="preserve" font-family="AkkuratStd-Bold" font-weight="bold" font-size="100.0" fill="#A6AAA8" transform="matrix(1.00, 0.00, -0.00, -1.00, 495.2, 320.0)"> </text><text xml:space="preserve" font-family="AkkuratStd-Bold" font-weight="bold" font-size="100.0" fill="#A6AAA8" transform="matrix(1.00, 0.00, -0.00, -1.00, 513.1, 320.0)">t</text><text xml:space="preserve" font-family="AkkuratStd-Bold" font-weight="bold" font-size="100.0" fill="#A6AAA8" transform="matrix(1.00, 0.00, -0.00, -1.00, 549.1, 320.0)">o</text><text xml:space="preserve" font-family="AkkuratStd-Bold" font-weight="bold" font-size="100.0" fill="#A6AAA8" transform="matrix(1.00, 0.00, -0.00, -1.00, 603.1, 320.0)"> </text><text xml:space="preserve" font-family="AkkuratStd-Bold" font-weight="bold" font-size="100.0" fill="#A6AAA8" transform="matrix(1.00, 0.00, -0.00, -1.00, 621.0, 320.0)">S</text><text xml:space="preserve" font-family="AkkuratStd-Bold" font-weight="bold" font-size="100.0" fill="#A6AAA8" transform="matrix(1.00, 0.00, -0.00, -1.00, 681.2, 320.0)">u</text><text xml:space="preserve" font-family="AkkuratStd-Bold" font-weight="bold" font-size="100.0" fill="#A6AAA8" transform="matrix(1.00, 0.00, -0.00, -1.00, 737.2, 320.0)">c</text><text xml:space="preserve" font-family="AkkuratStd-Bold" font-weight="bold" font-size="100.0" fill="#A6AAA8" transform="matrix(1.00, 0.00, -0.00, -1.00, 787.3, 320.0)">c</text><text xml:space="preserve" font-family="AkkuratStd-Bold" font-weight="bold" font-size="100.0" fill="#A6AAA8" transform="matrix(1.00, 0.00, -0.00, -1.00, 837.4, 320.0)">e</text><text xml:space="preserve" font-family="AkkuratStd-Bold" font-weight="bold" font-size="100.0" fill="#A6AAA8" transform="matrix(1.00, 0.00, -0.00, -1.00, 890.1, 320.0)">s</text><text xml:space="preserve" font-family="AkkuratStd-Bold" font-weight="bold" font-size="100.0" fill="#A6AAA8" transform="matrix(1.00, 0.00, -0.00, -1.00, 939.2, 320.0)">s</text><text xml:space="preserve" font-family="AkkuratStd-Bold" font-weight="bold" font-size="100.0" fill="#A6AAA8" transform="matrix(1.00, 0.00, -0.00, -1.00, 988.3, 320.0)"> </text><text xml:space="preserve" font-family="AkkuratStd" font-size="22.0" fill="#A6AAA8" transform="matrix(1.00, 0.00, -0.00, -1.00, 288.0, 275.0)">C</text><text xml:space="preserve" font-family="AkkuratStd" font-size="22.0" fill="#A6AAA8" transform="matrix(1.00, 0.00, -0.00, -1.00, 301.5, 275.0)">r</text><text xml:space="preserve" font-family="AkkuratStd" font-size="22.0" fill="#A6AAA8" transform="matrix(1.00, 0.00, -0.00, -1.00, 309.3, 275.0)">e</text><text xml:space="preserve" font-family="AkkuratStd" font-size="22.0" fill="#A6AAA8" transform="matrix(1.00, 0.00, -0.00, -1.00, 321.0, 275.0)">a</text><text xml:space="preserve" font-family="AkkuratStd" font-size="22.0" fill="#A6AAA8" transform="matrix(1.00, 0.00, -0.00, -1.00, 332.7, 275.0)">t</text><text xml:space="preserve" font-family="AkkuratStd" font-size="22.0" fill="#A6AAA8" transform="matrix(1.00, 0.00, -0.00, -1.00, 340.8, 275.0)">i</text><text xml:space="preserve" font-family="AkkuratStd" font-size="22.0" fill="#A6AAA8" transform="matrix(1.00, 0.00, -0.00, -1.00, 346.3, 275.0)">n</text><text xml:space="preserve" font-family="AkkuratStd" font-size="22.0" fill="#A6AAA8" transform="matrix(1.00, 0.00, -0.00, -1.00, 358.8, 275.0)">g</text><text xml:space="preserve" font-family="AkkuratStd" font-size="22.0" fill="#A6AAA8" transform="matrix(1.00, 0.00, -0.00, -1.00, 370.2, 275.0)"> </text><text xml:space="preserve" font-family="AkkuratStd" font-size="22.0" fill="#A6AAA8" transform="matrix(1.00, 0.00, -0.00, -1.00, 374.8, 275.0)">a</text><text xml:space="preserve" font-family="AkkuratStd" font-size="22.0" fill="#A6AAA8" transform="matrix(1.00, 0.00, -0.00, -1.00, 386.7, 275.0)"> </text><text xml:space="preserve" font-family="AkkuratStd" font-size="22.0" fill="#A6AAA8" transform="matrix(1.00, 0.00, -0.00, -1.00, 391.3, 275.0)">p</text><text xml:space="preserve" font-family="AkkuratStd" font-size="22.0" fill="#A6AAA8" transform="matrix(1.00, 0.00, -0.00, -1.00, 403.9, 275.0)">a</text><text xml:space="preserve" font-family="AkkuratStd" font-size="22.0" fill="#A6AAA8" transform="matrix(1.00, 0.00, -0.00, -1.00, 415.8, 275.0)">g</text><text xml:space="preserve" font-family="AkkuratStd" font-size="22.0" fill="#A6AAA8" transform="matrix(1.00, 0.00, -0.00, -1.00, 427.1, 275.0)">e</text><text xml:space="preserve" font-family="AkkuratStd" font-size="22.0" fill="#A6AAA8" transform="matrix(1.00, 0.00, -0.00, -1.00, 438.8, 275.0)"> </text><text xml:space="preserve" font-family="AkkuratStd" font-size="22.0" fill="#A6AAA8" transform="matrix(1.00, 0.00, -0.00, -1.00, 443.4, 275.0)">d</text><text xml:space="preserve" font-family="AkkuratStd" font-size="22.0" fill="#A6AAA8" transform="matrix(1.00, 0.00, -0.00, -1.00, 456.1, 275.0)">e</text><text xml:space="preserve" font-family="AkkuratStd" font-size="22.0" fill="#A6AAA8" transform="matrix(1.00, 0.00, -0.00, -1.00, 467.8, 275.0)">d</text><text xml:space="preserve" font-family="AkkuratStd" font-size="22.0" fill="#A6AAA8" transform="matrix(1.00, 0.00, -0.00, -1.00, 480.4, 275.0)">i</text><text xml:space="preserve" font-family="AkkuratStd" font-size="22.0" fill="#A6AAA8" transform="matrix(1.00, 0.00, -0.00, -1.00, 486.0, 275.0)">c</text><text xml:space="preserve" font-family="AkkuratStd" font-size="22.0" fill="#A6AAA8" transform="matrix(1.00, 0.00, -0.00, -1.00, 497.2, 275.0)">a</text><text xml:space="preserve" font-family="AkkuratStd" font-size="22.0" fill="#A6AAA8" transform="matrix(1.00, 0.00, -0.00, -1.00, 509.0, 275.0)">t</text><text xml:space="preserve" font-family="AkkuratStd" font-size="22.0" fill="#A6AAA8" transform="matrix(1.00, 0.00, -0.00, -1.00, 516.8, 275.0)">e</text><text xml:space="preserve" font-family="AkkuratStd" font-size="22.0" fill="#A6AAA8" transform="matrix(1.00, 0.00, -0.00, -1.00, 528.5, 275.0)">d</text><text xml:space="preserve" font-family="AkkuratStd" font-size="22.0" fill="#A6AAA8" transform="matrix(1.00, 0.00, -0.00, -1.00, 541.1, 275.0)"> </text><text xml:space="preserve" font-family="AkkuratStd" font-size="22.0" fill="#A6AAA8" transform="matrix(1.00, 0.00, -0.00, -1.00, 545.8, 275.0)">t</text><text xml:space="preserve" font-family="AkkuratStd" font-size="22.0" fill="#A6AAA8" transform="matrix(1.00, 0.00, -0.00, -1.00, 553.6, 275.0)">o</text><text xml:space="preserve" font-family="AkkuratStd" font-size="22.0" fill="#A6AAA8" transform="matrix(1.00, 0.00, -0.00, -1.00, 565.4, 275.0)"> </text><text xml:space="preserve" font-family="AkkuratStd" font-size="22.0" fill="#A6AAA8" transform="matrix(1.00, 0.00, -0.00, -1.00, 570.0, 275.0)">m</text><text xml:space="preserve" font-family="AkkuratStd" font-size="22.0" fill="#A6AAA8" transform="matrix(1.00, 0.00, -0.00, -1.00, 588.9, 275.0)">a</text><text xml:space="preserve" font-family="AkkuratStd" font-size="22.0" fill="#A6AAA8" transform="matrix(1.00, 0.00, -0.00, -1.00, 600.8, 275.0)">k</text><text xml:space="preserve" font-family="AkkuratStd" font-size="22.0" fill="#A6AAA8" transform="matrix(1.00, 0.00, -0.00, -1.00, 612.3, 275.0)">i</text><text xml:space="preserve" font-family="AkkuratStd" font-size="22.0" fill="#A6AAA8" transform="matrix(1.00, 0.00, -0.00, -1.00, 617.9, 275.0)">n</text><text xml:space="preserve" font-family="AkkuratStd" font-size="22.0" fill="#A6AAA8" transform="matrix(1.00, 0.00, -0.00, -1.00, 630.3, 275.0)">g</text><text xml:space="preserve" font-family="AkkuratStd" font-size="22.0" fill="#A6AAA8" transform="matrix(1.00, 0.00, -0.00, -1.00, 641.7, 275.0)"> </text><text xml:space="preserve" font-family="AkkuratStd" font-size="22.0" fill="#A6AAA8" transform="matrix(1.00, 0.00, -0.00, -1.00, 646.4, 275.0)">t</text><text xml:space="preserve" font-family="AkkuratStd" font-size="22.0" fill="#A6AAA8" transform="matrix(1.00, 0.00, -0.00, -1.00, 654.4, 275.0)">h</text><text xml:space="preserve" font-family="AkkuratStd" font-size="22.0" fill="#A6AAA8" transform="matrix(1.00, 0.00, -0.00, -1.00, 666.9, 275.0)">e</text><text xml:space="preserve" font-family="AkkuratStd" font-size="22.0" fill="#A6AAA8" transform="matrix(1.00, 0.00, -0.00, -1.00, 678.5, 275.0)"> </text><text xml:space="preserve" font-family="AkkuratStd" font-size="22.0" fill="#A6AAA8" transform="matrix(1.00, 0.00, -0.00, -1.00, 683.2, 275.0)">h</text><text xml:space="preserve" font-family="AkkuratStd" font-size="22.0" fill="#A6AAA8" transform="matrix(1.00, 0.00, -0.00, -1.00, 695.6, 275.0)">i</text><text xml:space="preserve" font-family="AkkuratStd" font-size="22.0" fill="#A6AAA8" transform="matrix(1.00, 0.00, -0.00, -1.00, 701.2, 275.0)">r</text><text xml:space="preserve" font-family="AkkuratStd" font-size="22.0" fill="#A6AAA8" transform="matrix(1.00, 0.00, -0.00, -1.00, 709.2, 275.0)">i</text><text xml:space="preserve" font-family="AkkuratStd" font-size="22.0" fill="#A6AAA8" transform="matrix(1.00, 0.00, -0.00, -1.00, 714.8, 275.0)">n</text><text xml:space="preserve" font-family="AkkuratStd" font-size="22.0" fill="#A6AAA8" transform="matrix(1.00, 0.00, -0.00, -1.00, 727.2, 275.0)">g</text><text xml:space="preserve" font-family="AkkuratStd" font-size="22.0" fill="#A6AAA8" transform="matrix(1.00, 0.00, -0.00, -1.00, 738.6, 275.0)"> </text><text xml:space="preserve" font-family="AkkuratStd" font-size="22.0" fill="#A6AAA8" transform="matrix(1.00, 0.00, -0.00, -1.00, 743.3, 275.0)">p</text><text xml:space="preserve" font-family="AkkuratStd" font-size="22.0" fill="#A6AAA8" transform="matrix(1.00, 0.00, -0.00, -1.00, 755.9, 275.0)">r</text><text xml:space="preserve" font-family="AkkuratStd" font-size="22.0" fill="#A6AAA8" transform="matrix(1.00, 0.00, -0.00, -1.00, 763.5, 275.0)">o</text><text xml:space="preserve" font-family="AkkuratStd" font-size="22.0" fill="#A6AAA8" transform="matrix(1.00, 0.00, -0.00, -1.00, 775.4, 275.0)">c</text><text xml:space="preserve" font-family="AkkuratStd" font-size="22.0" fill="#A6AAA8" transform="matrix(1.00, 0.00, -0.00, -1.00, 786.6, 275.0)">e</text><text xml:space="preserve" font-family="AkkuratStd" font-size="22.0" fill="#A6AAA8" transform="matrix(1.00, 0.00, -0.00, -1.00, 798.3, 275.0)">s</text><text xml:space="preserve" font-family="AkkuratStd" font-size="22.0" fill="#A6AAA8" transform="matrix(1.00, 0.00, -0.00, -1.00, 809.3, 275.0)">s</text><text xml:space="preserve" font-family="AkkuratStd" font-size="22.0" fill="#A6AAA8" transform="matrix(1.00, 0.00, -0.00, -1.00, 820.4, 275.0)"> </text><text xml:space="preserve" font-family="AkkuratStd" font-size="22.0" fill="#A6AAA8" transform="matrix(1.00, 0.00, -0.00, -1.00, 825.0, 275.0)">a</text><text xml:space="preserve" font-family="AkkuratStd" font-size="22.0" fill="#A6AAA8" transform="matrix(1.00, 0.00, -0.00, -1.00, 836.8, 275.0)">s</text><text xml:space="preserve" font-family="AkkuratStd" font-size="22.0" fill="#A6AAA8" transform="matrix(1.00, 0.00, -0.00, -1.00, 847.9, 275.0)"> </text><text xml:space="preserve" font-family="AkkuratStd" font-size="22.0" fill="#A6AAA8" transform="matrix(1.00, 0.00, -0.00, -1.00, 852.5, 275.0)">t</text><text xml:space="preserve" font-family="AkkuratStd" font-size="22.0" fill="#A6AAA8" transform="matrix(1.00, 0.00, -0.00, -1.00, 860.5, 275.0)">r</text><text xml:space="preserve" font-family="AkkuratStd" font-size="22.0" fill="#A6AAA8" transform="matrix(1.00, 0.00, -0.00, -1.00, 868.3, 275.0)">a</text><text xml:space="preserve" font-family="AkkuratStd" font-size="22.0" fill="#A6AAA8" transform="matrix(1.00, 0.00, -0.00, -1.00, 880.2, 275.0)">n</text><text xml:space="preserve" font-family="AkkuratStd" font-size="22.0" fill="#A6AAA8" transform="matrix(1.00, 0.00, -0.00, -1.00, 892.6, 275.0)">s</text><text xml:space="preserve" font-family="AkkuratStd" font-size="22.0" fill="#A6AAA8" transform="matrix(1.00, 0.00, -0.00, -1.00, 903.6, 275.0)">p</text><text xml:space="preserve" font-family="AkkuratStd" font-size="22.0" fill="#A6AAA8" transform="matrix(1.00, 0.00, -0.00, -1.00, 916.3, 275.0)">a</text><text xml:space="preserve" font-family="AkkuratStd" font-size="22.0" fill="#A6AAA8" transform="matrix(1.00, 0.00, -0.00, -1.00, 928.1, 275.0)">r</text><text xml:space="preserve" font-family="AkkuratStd" font-size="22.0" fill="#A6AAA8" transform="matrix(1.00, 0.00, -0.00, -1.00, 935.9, 275.0)">e</text><text xml:space="preserve" font-family="AkkuratStd" font-size="22.0" fill="#A6AAA8" transform="matrix(1.00, 0.00, -0.00, -1.00, 947.6, 275.0)">n</text><text xml:space="preserve" font-family="AkkuratStd" font-size="22.0" fill="#A6AAA8" transform="matrix(1.00, 0.00, -0.00, -1.00, 960.0, 275.0)">t</text><text xml:space="preserve" font-family="AkkuratStd" font-size="22.0" fill="#A6AAA8" transform="matrix(1.00, 0.00, -0.00, -1.00, 968.0, 275.0)"> </text><text xml:space="preserve" font-family="AkkuratStd" font-size="22.0" fill="#A6AAA8" transform="matrix(1.00, 0.00, -0.00, -1.00, 972.7, 275.0)">a</text><text xml:space="preserve" font-family="AkkuratStd" font-size="22.0" fill="#A6AAA8" transform="matrix(1.00, 0.00, -0.00, -1.00, 984.4, 275.0)">t</text><text xml:space="preserve" font-family="AkkuratStd" font-size="22.0" fill="#A6AAA8" transform="matrix(1.00, 0.00, -0.00, -1.00, 992.4, 275.0)"> </text><text xml:space="preserve" font-family="AkkuratStd" font-size="22.0" fill="#A6AAA8" transform="matrix(1.00, 0.00, -0.00, -1.00, 288.0, 249.0)">p</text><text xml:space="preserve" font-family="AkkuratStd" font-size="22.0" fill="#A6AAA8" transform="matrix(1.00, 0.00, -0.00, -1.00, 300.7, 249.0)">o</text><text xml:space="preserve" font-family="AkkuratStd" font-size="22.0" fill="#A6AAA8" transform="matrix(1.00, 0.00, -0.00, -1.00, 312.5, 249.0)">s</text><text xml:space="preserve" font-family="AkkuratStd" font-size="22.0" fill="#A6AAA8" transform="matrix(1.00, 0.00, -0.00, -1.00, 323.5, 249.0)">s</text><text xml:space="preserve" font-family="AkkuratStd" font-size="22.0" fill="#A6AAA8" transform="matrix(1.00, 0.00, -0.00, -1.00, 334.5, 249.0)">i</text><text xml:space="preserve" font-family="AkkuratStd" font-size="22.0" fill="#A6AAA8" transform="matrix(1.00, 0.00, -0.00, -1.00, 340.1, 249.0)">b</text><text xml:space="preserve" font-family="AkkuratStd" font-size="22.0" fill="#A6AAA8" transform="matrix(1.00, 0.00, -0.00, -1.00, 352.7, 249.0)">l</text><text xml:space="preserve" font-family="AkkuratStd" font-size="22.0" fill="#A6AAA8" transform="matrix(1.00, 0.00, -0.00, -1.00, 358.6, 249.0)">e</text><text xml:space="preserve" font-family="AkkuratStd" font-size="22.0" fill="#A6AAA8" transform="matrix(1.00, 0.00, -0.00, -1.00, 370.3, 249.0)"> </text><text xml:space="preserve" font-family="AkkuratStd" font-size="22.0" fill="#A6AAA8" transform="matrix(1.00, 0.00, -0.00, -1.00, 374.9, 249.0)">i</text><text xml:space="preserve" font-family="AkkuratStd" font-size="22.0" fill="#A6AAA8" transform="matrix(1.00, 0.00, -0.00, -1.00, 380.5, 249.0)">s</text><text xml:space="preserve" font-family="AkkuratStd" font-size="22.0" fill="#A6AAA8" transform="matrix(1.00, 0.00, -0.00, -1.00, 391.5, 249.0)"> </text><text xml:space="preserve" font-family="AkkuratStd" font-size="22.0" fill="#A6AAA8" transform="matrix(1.00, 0.00, -0.00, -1.00, 396.1, 249.0)">c</text><text xml:space="preserve" font-family="AkkuratStd" font-size="22.0" fill="#A6AAA8" transform="matrix(1.00, 0.00, -0.00, -1.00, 407.4, 249.0)">r</text><text xml:space="preserve" font-family="AkkuratStd" font-size="22.0" fill="#A6AAA8" transform="matrix(1.00, 0.00, -0.00, -1.00, 415.2, 249.0)">u</text><text xml:space="preserve" font-family="AkkuratStd" font-size="22.0" fill="#A6AAA8" transform="matrix(1.00, 0.00, -0.00, -1.00, 427.5, 249.0)">c</text><text xml:space="preserve" font-family="AkkuratStd" font-size="22.0" fill="#A6AAA8" transform="matrix(1.00, 0.00, -0.00, -1.00, 438.8, 249.0)">i</text><text xml:space="preserve" font-family="AkkuratStd" font-size="22.0" fill="#A6AAA8" transform="matrix(1.00, 0.00, -0.00, -1.00, 444.4, 249.0)">a</text><text xml:space="preserve" font-family="AkkuratStd" font-size="22.0" fill="#A6AAA8" transform="matrix(1.00, 0.00, -0.00, -1.00, 456.2, 249.0)">l</text><text xml:space="preserve" font-family="AkkuratStd" font-size="22.0" fill="#A6AAA8" transform="matrix(1.00, 0.00, -0.00, -1.00, 462.2, 249.0)"> </text><text xml:space="preserve" font-family="AkkuratStd" font-size="22.0" fill="#A6AAA8" transform="matrix(1.00, 0.00, -0.00, -1.00, 466.8, 249.0)">t</text><text xml:space="preserve" font-family="AkkuratStd" font-size="22.0" fill="#A6AAA8" transform="matrix(1.00, 0.00, -0.00, -1.00, 474.6, 249.0)">o</text><text xml:space="preserve" font-family="AkkuratStd" font-size="22.0" fill="#A6AAA8" transform="matrix(1.00, 0.00, -0.00, -1.00, 486.4, 249.0)"> </text><text xml:space="preserve" font-family="AkkuratStd" font-size="22.0" fill="#A6AAA8" transform="matrix(1.00, 0.00, -0.00, -1.00, 491.1, 249.0)">t</text><text xml:space="preserve" font-family="AkkuratStd" font-size="22.0" fill="#A6AAA8" transform="matrix(1.00, 0.00, -0.00, -1.00, 499.1, 249.0)">h</text><text xml:space="preserve" font-family="AkkuratStd" font-size="22.0" fill="#A6AAA8" transform="matrix(1.00, 0.00, -0.00, -1.00, 511.6, 249.0)">e</text><text xml:space="preserve" font-family="AkkuratStd" font-size="22.0" fill="#A6AAA8" transform="matrix(1.00, 0.00, -0.00, -1.00, 523.2, 249.0)"> </text><text xml:space="preserve" font-family="AkkuratStd" font-size="22.0" fill="#A6AAA8" transform="matrix(1.00, 0.00, -0.00, -1.00, 527.9, 249.0)">g</text><text xml:space="preserve" font-family="AkkuratStd" font-size="22.0" fill="#A6AAA8" transform="matrix(1.00, 0.00, -0.00, -1.00, 539.2, 249.0)">o</text><text xml:space="preserve" font-family="AkkuratStd" font-size="22.0" fill="#A6AAA8" transform="matrix(1.00, 0.00, -0.00, -1.00, 551.0, 249.0)">a</text><text xml:space="preserve" font-family="AkkuratStd" font-size="22.0" fill="#A6AAA8" transform="matrix(1.00, 0.00, -0.00, -1.00, 562.9, 249.0)">l</text><text xml:space="preserve" font-family="AkkuratStd" font-size="22.0" fill="#A6AAA8" transform="matrix(1.00, 0.00, -0.00, -1.00, 568.9, 249.0)"> </text><text xml:space="preserve" font-family="AkkuratStd" font-size="22.0" fill="#A6AAA8" transform="matrix(1.00, 0.00, -0.00, -1.00, 573.5, 249.0)">o</text><text xml:space="preserve" font-family="AkkuratStd" font-size="22.0" fill="#A6AAA8" transform="matrix(1.00, 0.00, -0.00, -1.00, 585.2, 249.0)">f</text><text xml:space="preserve" font-family="AkkuratStd" font-size="22.0" fill="#A6AAA8" transform="matrix(1.00, 0.00, -0.00, -1.00, 592.8, 249.0)"> </text><text xml:space="preserve" font-family="AkkuratStd-Bold" font-weight="bold" font-size="22.0" fill="#A6AAA8" transform="matrix(1.00, 0.00, -0.00, -1.00, 597.4, 249.0)">s</text><text xml:space="preserve" font-family="AkkuratStd-Bold" font-weight="bold" font-size="22.0" fill="#A6AAA8" transform="matrix(1.00, 0.00, -0.00, -1.00, 608.5, 249.0)">e</text><text xml:space="preserve" font-family="AkkuratStd-Bold" font-weight="bold" font-size="22.0" fill="#A6AAA8" transform="matrix(1.00, 0.00, -0.00, -1.00, 620.2, 249.0)">t</text><text xml:space="preserve" font-family="AkkuratStd-Bold" font-weight="bold" font-size="22.0" fill="#A6AAA8" transform="matrix(1.00, 0.00, -0.00, -1.00, 628.5, 249.0)"> </text><text xml:space="preserve" font-family="AkkuratStd-Bold" font-weight="bold" font-size="22.0" fill="#A6AAA8" transform="matrix(1.00, 0.00, -0.00, -1.00, 632.7, 249.0)">c</text><text xml:space="preserve" font-family="AkkuratStd-Bold" font-weight="bold" font-size="22.0" fill="#A6AAA8" transform="matrix(1.00, 0.00, -0.00, -1.00, 643.9, 249.0)">a</text><text xml:space="preserve" font-family="AkkuratStd-Bold" font-weight="bold" font-size="22.0" fill="#A6AAA8" transform="matrix(1.00, 0.00, -0.00, -1.00, 655.8, 249.0)">n</text><text xml:space="preserve" font-family="AkkuratStd-Bold" font-weight="bold" font-size="22.0" fill="#A6AAA8" transform="matrix(1.00, 0.00, -0.00, -1.00, 668.4, 249.0)">d</text><text xml:space="preserve" font-family="AkkuratStd-Bold" font-weight="bold" font-size="22.0" fill="#A6AAA8" transform="matrix(1.00, 0.00, -0.00, -1.00, 681.2, 249.0)">i</text><text xml:space="preserve" font-family="AkkuratStd-Bold" font-weight="bold" font-size="22.0" fill="#A6AAA8" transform="matrix(1.00, 0.00, -0.00, -1.00, 687.0, 249.0)">d</text><text xml:space="preserve" font-family="AkkuratStd-Bold" font-weight="bold" font-size="22.0" fill="#A6AAA8" transform="matrix(1.00, 0.00, -0.00, -1.00, 699.8, 249.0)">a</text><text xml:space="preserve" font-family="AkkuratStd-Bold" font-weight="bold" font-size="22.0" fill="#A6AAA8" transform="matrix(1.00, 0.00, -0.00, -1.00, 711.6, 249.0)">t</text><text xml:space="preserve" font-family="AkkuratStd-Bold" font-weight="bold" font-size="22.0" fill="#A6AAA8" transform="matrix(1.00, 0.00, -0.00, -1.00, 719.8, 249.0)">e</text><text xml:space="preserve" font-family="AkkuratStd-Bold" font-weight="bold" font-size="22.0" fill="#A6AAA8" transform="matrix(1.00, 0.00, -0.00, -1.00, 731.6, 249.0)">s</text><text xml:space="preserve" font-family="AkkuratStd-Bold" font-weight="bold" font-size="22.0" fill="#A6AAA8" transform="matrix(1.00, 0.00, -0.00, -1.00, 742.6, 249.0)"> </text><text xml:space="preserve" font-family="AkkuratStd-Bold" font-weight="bold" font-size="22.0" fill="#A6AAA8" transform="matrix(1.00, 0.00, -0.00, -1.00, 746.8, 249.0)">u</text><text xml:space="preserve" font-family="AkkuratStd-Bold" font-weight="bold" font-size="22.0" fill="#A6AAA8" transform="matrix(1.00, 0.00, -0.00, -1.00, 759.3, 249.0)">p</text><text xml:space="preserve" font-family="AkkuratStd-Bold" font-weight="bold" font-size="22.0" fill="#A6AAA8" transform="matrix(1.00, 0.00, -0.00, -1.00, 772.1, 249.0)"> </text><text xml:space="preserve" font-family="AkkuratStd-Bold" font-weight="bold" font-size="22.0" fill="#A6AAA8" transform="matrix(1.00, 0.00, -0.00, -1.00, 776.2, 249.0)">f</text><text xml:space="preserve" font-family="AkkuratStd-Bold" font-weight="bold" font-size="22.0" fill="#A6AAA8" transform="matrix(1.00, 0.00, -0.00, -1.00, 783.8, 249.0)">o</text><text xml:space="preserve" font-family="AkkuratStd-Bold" font-weight="bold" font-size="22.0" fill="#A6AAA8" transform="matrix(1.00, 0.00, -0.00, -1.00, 795.9, 249.0)">r</text><text xml:space="preserve" font-family="AkkuratStd-Bold" font-weight="bold" font-size="22.0" fill="#A6AAA8" transform="matrix(1.00, 0.00, -0.00, -1.00, 804.2, 249.0)"> </text><text xml:space="preserve" font-family="AkkuratStd-Bold" font-weight="bold" font-size="22.0" fill="#A6AAA8" transform="matrix(1.00, 0.00, -0.00, -1.00, 808.3, 249.0)">s</text><text xml:space="preserve" font-family="AkkuratStd-Bold" font-weight="bold" font-size="22.0" fill="#A6AAA8" transform="matrix(1.00, 0.00, -0.00, -1.00, 819.3, 249.0)">u</text><text xml:space="preserve" font-family="AkkuratStd-Bold" font-weight="bold" font-size="22.0" fill="#A6AAA8" transform="matrix(1.00, 0.00, -0.00, -1.00, 831.9, 249.0)">c</text><text xml:space="preserve" font-family="AkkuratStd-Bold" font-weight="bold" font-size="22.0" fill="#A6AAA8" transform="matrix(1.00, 0.00, -0.00, -1.00, 843.1, 249.0)">c</text><text xml:space="preserve" font-family="AkkuratStd-Bold" font-weight="bold" font-size="22.0" fill="#A6AAA8" transform="matrix(1.00, 0.00, -0.00, -1.00, 854.4, 249.0)">e</text><text xml:space="preserve" font-family="AkkuratStd-Bold" font-weight="bold" font-size="22.0" fill="#A6AAA8" transform="matrix(1.00, 0.00, -0.00, -1.00, 866.2, 249.0)">s</text><text xml:space="preserve" font-family="AkkuratStd-Bold" font-weight="bold" font-size="22.0" fill="#A6AAA8" transform="matrix(1.00, 0.00, -0.00, -1.00, 877.2, 249.0)">s</text><text xml:space="preserve" font-family="AkkuratStd-Bold" font-weight="bold" font-size="22.0" fill="#A6AAA8" transform="matrix(1.00, 0.00, -0.00, -1.00, 888.2, 249.0)"> </text><text xml:space="preserve" font-family="AkkuratStd-Bold" font-weight="bold" font-size="22.0" fill="#A6AAA8" transform="matrix(1.00, 0.00, -0.00, -1.00, 892.4, 249.0)">d</text><text xml:space="preserve" font-family="AkkuratStd-Bold" font-weight="bold" font-size="22.0" fill="#A6AAA8" transform="matrix(1.00, 0.00, -0.00, -1.00, 905.2, 249.0)">u</text><text xml:space="preserve" font-family="AkkuratStd-Bold" font-weight="bold" font-size="22.0" fill="#A6AAA8" transform="matrix(1.00, 0.00, -0.00, -1.00, 917.7, 249.0)">r</text><text xml:space="preserve" font-family="AkkuratStd-Bold" font-weight="bold" font-size="22.0" fill="#A6AAA8" transform="matrix(1.00, 0.00, -0.00, -1.00, 926.0, 249.0)">i</text><text xml:space="preserve" font-family="AkkuratStd-Bold" font-weight="bold" font-size="22.0" fill="#A6AAA8" transform="matrix(1.00, 0.00, -0.00, -1.00, 931.8, 249.0)">n</text><text xml:space="preserve" font-family="AkkuratStd-Bold" font-weight="bold" font-size="22.0" fill="#A6AAA8" transform="matrix(1.00, 0.00, -0.00, -1.00, 944.4, 249.0)">g</text><text xml:space="preserve" font-family="AkkuratStd-Bold" font-weight="bold" font-size="22.0" fill="#A6AAA8" transform="matrix(1.00, 0.00, -0.00, -1.00, 956.1, 249.0)"> </text><text xml:space="preserve" font-family="AkkuratStd-Bold" font-weight="bold" font-size="22.0" fill="#A6AAA8" transform="matrix(1.00, 0.00, -0.00, -1.00, 960.2, 249.0)">t</text><text xml:space="preserve" font-family="AkkuratStd-Bold" font-weight="bold" font-size="22.0" fill="#A6AAA8" transform="matrix(1.00, 0.00, -0.00, -1.00, 968.6, 249.0)">h</text><text xml:space="preserve" font-family="AkkuratStd-Bold" font-weight="bold" font-size="22.0" fill="#A6AAA8" transform="matrix(1.00, 0.00, -0.00, -1.00, 981.1, 249.0)">e</text><text xml:space="preserve" font-family="AkkuratStd-Bold" font-weight="bold" font-size="22.0" fill="#A6AAA8" transform="matrix(1.00, 0.00, -0.00, -1.00, 992.9, 249.0)"> </text><text xml:space="preserve" font-family="AkkuratStd-Bold" font-weight="bold" font-size="22.0" fill="#A6AAA8" transform="matrix(1.00, 0.00, -0.00, -1.00, 277.0, 223.0)">h</text><text xml:space="preserve" font-family="AkkuratStd-Bold" font-weight="bold" font-size="22.0" fill="#A6AAA8" transform="matrix(1.00, 0.00, -0.00, -1.00, 289.6, 223.0)">i</text><text xml:space="preserve" font-family="AkkuratStd-Bold" font-weight="bold" font-size="22.0" fill="#A6AAA8" transform="matrix(1.00, 0.00, -0.00, -1.00, 295.4, 223.0)">r</text><text xml:space="preserve" font-family="AkkuratStd-Bold" font-weight="bold" font-size="22.0" fill="#A6AAA8" transform="matrix(1.00, 0.00, -0.00, -1.00, 303.7, 223.0)">i</text><text xml:space="preserve" font-family="AkkuratStd-Bold" font-weight="bold" font-size="22.0" fill="#A6AAA8" transform="matrix(1.00, 0.00, -0.00, -1.00, 309.5, 223.0)">n</text><text xml:space="preserve" font-family="AkkuratStd-Bold" font-weight="bold" font-size="22.0" fill="#A6AAA8" transform="matrix(1.00, 0.00, -0.00, -1.00, 322.1, 223.0)">g</text><text xml:space="preserve" font-family="AkkuratStd-Bold" font-weight="bold" font-size="22.0" fill="#A6AAA8" transform="matrix(1.00, 0.00, -0.00, -1.00, 333.8, 223.0)"> </text><text xml:space="preserve" font-family="AkkuratStd-Bold" font-weight="bold" font-size="22.0" fill="#A6AAA8" transform="matrix(1.00, 0.00, -0.00, -1.00, 337.9, 223.0)">p</text><text xml:space="preserve" font-family="AkkuratStd-Bold" font-weight="bold" font-size="22.0" fill="#A6AAA8" transform="matrix(1.00, 0.00, -0.00, -1.00, 350.7, 223.0)">r</text><text xml:space="preserve" font-family="AkkuratStd-Bold" font-weight="bold" font-size="22.0" fill="#A6AAA8" transform="matrix(1.00, 0.00, -0.00, -1.00, 358.6, 223.0)">o</text><text xml:space="preserve" font-family="AkkuratStd-Bold" font-weight="bold" font-size="22.0" fill="#A6AAA8" transform="matrix(1.00, 0.00, -0.00, -1.00, 370.7, 223.0)">c</text><text xml:space="preserve" font-family="AkkuratStd-Bold" font-weight="bold" font-size="22.0" fill="#A6AAA8" transform="matrix(1.00, 0.00, -0.00, -1.00, 381.9, 223.0)">e</text><text xml:space="preserve" font-family="AkkuratStd-Bold" font-weight="bold" font-size="22.0" fill="#A6AAA8" transform="matrix(1.00, 0.00, -0.00, -1.00, 393.7, 223.0)">s</text><text xml:space="preserve" font-family="AkkuratStd-Bold" font-weight="bold" font-size="22.0" fill="#A6AAA8" transform="matrix(1.00, 0.00, -0.00, -1.00, 404.7, 223.0)">s</text><text xml:space="preserve" font-family="AkkuratStd" font-size="22.0" fill="#A6AAA8" transform="matrix(1.00, 0.00, -0.00, -1.00, 415.8, 223.0)">.</text><text xml:space="preserve" font-family="AkkuratStd" font-size="22.0" fill="#A6AAA8" transform="matrix(1.00, 0.00, -0.00, -1.00, 420.7, 223.0)"> </text><text xml:space="preserve" font-family="AkkuratStd" font-size="22.0" fill="#A6AAA8" transform="matrix(1.00, 0.00, -0.00, -1.00, 424.8, 223.0)">T</text><text xml:space="preserve" font-family="AkkuratStd" font-size="22.0" fill="#A6AAA8" transform="matrix(1.00, 0.00, -0.00, -1.00, 436.1, 223.0)">h</text><text xml:space="preserve" font-family="AkkuratStd" font-size="22.0" fill="#A6AAA8" transform="matrix(1.00, 0.00, -0.00, -1.00, 448.6, 223.0)">e</text><text xml:space="preserve" font-family="AkkuratStd" font-size="22.0" fill="#A6AAA8" transform="matrix(1.00, 0.00, -0.00, -1.00, 460.3, 223.0)"> </text><text xml:space="preserve" font-family="AkkuratStd" font-size="22.0" fill="#A6AAA8" transform="matrix(1.00, 0.00, -0.00, -1.00, 464.9, 223.0)">c</text><text xml:space="preserve" font-family="AkkuratStd" font-size="22.0" fill="#A6AAA8" transform="matrix(1.00, 0.00, -0.00, -1.00, 476.2, 223.0)">o</text><text xml:space="preserve" font-family="AkkuratStd" font-size="22.0" fill="#A6AAA8" transform="matrix(1.00, 0.00, -0.00, -1.00, 488.0, 223.0)">n</text><text xml:space="preserve" font-family="AkkuratStd" font-size="22.0" fill="#A6AAA8" transform="matrix(1.00, 0.00, -0.00, -1.00, 500.5, 223.0)">t</text><text xml:space="preserve" font-family="AkkuratStd" font-size="22.0" fill="#A6AAA8" transform="matrix(1.00, 0.00, -0.00, -1.00, 508.3, 223.0)">e</text><text xml:space="preserve" font-family="AkkuratStd" font-size="22.0" fill="#A6AAA8" transform="matrix(1.00, 0.00, -0.00, -1.00, 519.9, 223.0)">n</text><text xml:space="preserve" font-family="AkkuratStd" font-size="22.0" fill="#A6AAA8" transform="matrix(1.00, 0.00, -0.00, -1.00, 532.4, 223.0)">t</text><text xml:space="preserve" font-family="AkkuratStd" font-size="22.0" fill="#A6AAA8" transform="matrix(1.00, 0.00, -0.00, -1.00, 540.4, 223.0)"> </text><text xml:space="preserve" font-family="AkkuratStd" font-size="22.0" fill="#A6AAA8" transform="matrix(1.00, 0.00, -0.00, -1.00, 545.0, 223.0)">t</text><text xml:space="preserve" font-family="AkkuratStd" font-size="22.0" fill="#A6AAA8" transform="matrix(1.00, 0.00, -0.00, -1.00, 553.1, 223.0)">h</text><text xml:space="preserve" font-family="AkkuratStd" font-size="22.0" fill="#A6AAA8" transform="matrix(1.00, 0.00, -0.00, -1.00, 565.5, 223.0)">a</text><text xml:space="preserve" font-family="AkkuratStd" font-size="22.0" fill="#A6AAA8" transform="matrix(1.00, 0.00, -0.00, -1.00, 577.3, 223.0)">t</text><text xml:space="preserve" font-family="AkkuratStd" font-size="22.0" fill="#A6AAA8" transform="matrix(1.00, 0.00, -0.00, -1.00, 585.3, 223.0)"> </text><text xml:space="preserve" font-family="AkkuratStd" font-size="22.0" fill="#A6AAA8" transform="matrix(1.00, 0.00, -0.00, -1.00, 589.9, 223.0)">w</text><text xml:space="preserve" font-family="AkkuratStd" font-size="22.0" fill="#A6AAA8" transform="matrix(1.00, 0.00, -0.00, -1.00, 606.4, 223.0)">i</text><text xml:space="preserve" font-family="AkkuratStd" font-size="22.0" fill="#A6AAA8" transform="matrix(1.00, 0.00, -0.00, -1.00, 611.9, 223.0)">l</text><text xml:space="preserve" font-family="AkkuratStd" font-size="22.0" fill="#A6AAA8" transform="matrix(1.00, 0.00, -0.00, -1.00, 617.9, 223.0)">l</text><text xml:space="preserve" font-family="AkkuratStd" font-size="22.0" fill="#A6AAA8" transform="matrix(1.00, 0.00, -0.00, -1.00, 623.9, 223.0)"> </text><text xml:space="preserve" font-family="AkkuratStd" font-size="22.0" fill="#A6AAA8" transform="matrix(1.00, 0.00, -0.00, -1.00, 628.5, 223.0)">b</text><text xml:space="preserve" font-family="AkkuratStd" font-size="22.0" fill="#A6AAA8" transform="matrix(1.00, 0.00, -0.00, -1.00, 641.1, 223.0)">e</text><text xml:space="preserve" font-family="AkkuratStd" font-size="22.0" fill="#A6AAA8" transform="matrix(1.00, 0.00, -0.00, -1.00, 652.8, 223.0)"> </text><text xml:space="preserve" font-family="AkkuratStd" font-size="22.0" fill="#A6AAA8" transform="matrix(1.00, 0.00, -0.00, -1.00, 657.4, 223.0)">a</text><text xml:space="preserve" font-family="AkkuratStd" font-size="22.0" fill="#A6AAA8" transform="matrix(1.00, 0.00, -0.00, -1.00, 669.1, 223.0)">v</text><text xml:space="preserve" font-family="AkkuratStd" font-size="22.0" fill="#A6AAA8" transform="matrix(1.00, 0.00, -0.00, -1.00, 679.4, 223.0)">a</text><text xml:space="preserve" font-family="AkkuratStd" font-size="22.0" fill="#A6AAA8" transform="matrix(1.00, 0.00, -0.00, -1.00, 691.2, 223.0)">i</text><text xml:space="preserve" font-family="AkkuratStd" font-size="22.0" fill="#A6AAA8" transform="matrix(1.00, 0.00, -0.00, -1.00, 696.8, 223.0)">l</text><text xml:space="preserve" font-family="AkkuratStd" font-size="22.0" fill="#A6AAA8" transform="matrix(1.00, 0.00, -0.00, -1.00, 702.8, 223.0)">a</text><text xml:space="preserve" font-family="AkkuratStd" font-size="22.0" fill="#A6AAA8" transform="matrix(1.00, 0.00, -0.00, -1.00, 714.6, 223.0)">b</text><text xml:space="preserve" font-family="AkkuratStd" font-size="22.0" fill="#A6AAA8" transform="matrix(1.00, 0.00, -0.00, -1.00, 727.3, 223.0)">l</text><text xml:space="preserve" font-family="AkkuratStd" font-size="22.0" fill="#A6AAA8" transform="matrix(1.00, 0.00, -0.00, -1.00, 733.1, 223.0)">e</text><text xml:space="preserve" font-family="AkkuratStd" font-size="22.0" fill="#A6AAA8" transform="matrix(1.00, 0.00, -0.00, -1.00, 744.8, 223.0)"> </text><text xml:space="preserve" font-family="AkkuratStd" font-size="22.0" fill="#A6AAA8" transform="matrix(1.00, 0.00, -0.00, -1.00, 749.4, 223.0)">o</text><text xml:space="preserve" font-family="AkkuratStd" font-size="22.0" fill="#A6AAA8" transform="matrix(1.00, 0.00, -0.00, -1.00, 761.3, 223.0)">n</text><text xml:space="preserve" font-family="AkkuratStd" font-size="22.0" fill="#A6AAA8" transform="matrix(1.00, 0.00, -0.00, -1.00, 773.7, 223.0)"> </text><text xml:space="preserve" font-family="AkkuratStd" font-size="22.0" fill="#A6AAA8" transform="matrix(1.00, 0.00, -0.00, -1.00, 778.3, 223.0)">t</text><text xml:space="preserve" font-family="AkkuratStd" font-size="22.0" fill="#A6AAA8" transform="matrix(1.00, 0.00, -0.00, -1.00, 786.3, 223.0)">h</text><text xml:space="preserve" font-family="AkkuratStd" font-size="22.0" fill="#A6AAA8" transform="matrix(1.00, 0.00, -0.00, -1.00, 798.8, 223.0)">i</text><text xml:space="preserve" font-family="AkkuratStd" font-size="22.0" fill="#A6AAA8" transform="matrix(1.00, 0.00, -0.00, -1.00, 804.4, 223.0)">s</text><text xml:space="preserve" font-family="AkkuratStd" font-size="22.0" fill="#A6AAA8" transform="matrix(1.00, 0.00, -0.00, -1.00, 815.4, 223.0)"> </text><text xml:space="preserve" font-family="AkkuratStd" font-size="22.0" fill="#A6AAA8" transform="matrix(1.00, 0.00, -0.00, -1.00, 820.0, 223.0)">p</text><text xml:space="preserve" font-family="AkkuratStd" font-size="22.0" fill="#A6AAA8" transform="matrix(1.00, 0.00, -0.00, -1.00, 832.7, 223.0)">a</text><text xml:space="preserve" font-family="AkkuratStd" font-size="22.0" fill="#A6AAA8" transform="matrix(1.00, 0.00, -0.00, -1.00, 844.5, 223.0)">g</text><text xml:space="preserve" font-family="AkkuratStd" font-size="22.0" fill="#A6AAA8" transform="matrix(1.00, 0.00, -0.00, -1.00, 855.9, 223.0)">e</text><text xml:space="preserve" font-family="AkkuratStd" font-size="22.0" fill="#A6AAA8" transform="matrix(1.00, 0.00, -0.00, -1.00, 867.5, 223.0)"> </text><text xml:space="preserve" font-family="AkkuratStd" font-size="22.0" fill="#A6AAA8" transform="matrix(1.00, 0.00, -0.00, -1.00, 872.2, 223.0)">i</text><text xml:space="preserve" font-family="AkkuratStd" font-size="22.0" fill="#A6AAA8" transform="matrix(1.00, 0.00, -0.00, -1.00, 877.7, 223.0)">s</text><text xml:space="preserve" font-family="AkkuratStd" font-size="22.0" fill="#A6AAA8" transform="matrix(1.00, 0.00, -0.00, -1.00, 888.8, 223.0)"> </text><text xml:space="preserve" font-family="AkkuratStd" font-size="22.0" fill="#A6AAA8" transform="matrix(1.00, 0.00, -0.00, -1.00, 893.4, 223.0)">m</text><text xml:space="preserve" font-family="AkkuratStd" font-size="22.0" fill="#A6AAA8" transform="matrix(1.00, 0.00, -0.00, -1.00, 912.2, 223.0)">u</text><text xml:space="preserve" font-family="AkkuratStd" font-size="22.0" fill="#A6AAA8" transform="matrix(1.00, 0.00, -0.00, -1.00, 924.6, 223.0)">c</text><text xml:space="preserve" font-family="AkkuratStd" font-size="22.0" fill="#A6AAA8" transform="matrix(1.00, 0.00, -0.00, -1.00, 935.7, 223.0)">h</text><text xml:space="preserve" font-family="AkkuratStd" font-size="22.0" fill="#A6AAA8" transform="matrix(1.00, 0.00, -0.00, -1.00, 948.2, 223.0)"> </text><text xml:space="preserve" font-family="AkkuratStd" font-size="22.0" fill="#A6AAA8" transform="matrix(1.00, 0.00, -0.00, -1.00, 952.8, 223.0)">m</text><text xml:space="preserve" font-family="AkkuratStd" font-size="22.0" fill="#A6AAA8" transform="matrix(1.00, 0.00, -0.00, -1.00, 971.7, 223.0)">o</text><text xml:space="preserve" font-family="AkkuratStd" font-size="22.0" fill="#A6AAA8" transform="matrix(1.00, 0.00, -0.00, -1.00, 983.5, 223.0)">r</text><text xml:space="preserve" font-family="AkkuratStd" font-size="22.0" fill="#A6AAA8" transform="matrix(1.00, 0.00, -0.00, -1.00, 991.3, 223.0)">e</text><text xml:space="preserve" font-family="AkkuratStd" font-size="22.0" fill="#A6AAA8" transform="matrix(1.00, 0.00, -0.00, -1.00, 1003.0, 223.0)"> </text><text xml:space="preserve" font-family="AkkuratStd" font-size="22.0" fill="#A6AAA8" transform="matrix(1.00, 0.00, -0.00, -1.00, 351.0, 197.0)">i</text><text xml:space="preserve" font-family="AkkuratStd" font-size="22.0" fill="#A6AAA8" transform="matrix(1.00, 0.00, -0.00, -1.00, 356.6, 197.0)">m</text><text xml:space="preserve" font-family="AkkuratStd" font-size="22.0" fill="#A6AAA8" transform="matrix(1.00, 0.00, -0.00, -1.00, 375.4, 197.0)">p</text><text xml:space="preserve" font-family="AkkuratStd" font-size="22.0" fill="#A6AAA8" transform="matrix(1.00, 0.00, -0.00, -1.00, 388.1, 197.0)">o</text><text xml:space="preserve" font-family="AkkuratStd" font-size="22.0" fill="#A6AAA8" transform="matrix(1.00, 0.00, -0.00, -1.00, 399.9, 197.0)">r</text><text xml:space="preserve" font-family="AkkuratStd" font-size="22.0" fill="#A6AAA8" transform="matrix(1.00, 0.00, -0.00, -1.00, 408.2, 197.0)">t</text><text xml:space="preserve" font-family="AkkuratStd" font-size="22.0" fill="#A6AAA8" transform="matrix(1.00, 0.00, -0.00, -1.00, 416.2, 197.0)">a</text><text xml:space="preserve" font-family="AkkuratStd" font-size="22.0" fill="#A6AAA8" transform="matrix(1.00, 0.00, -0.00, -1.00, 428.0, 197.0)">n</text><text xml:space="preserve" font-family="AkkuratStd" font-size="22.0" fill="#A6AAA8" transform="matrix(1.00, 0.00, -0.00, -1.00, 440.5, 197.0)">t</text><text xml:space="preserve" font-family="AkkuratStd" font-size="22.0" fill="#A6AAA8" transform="matrix(1.00, 0.00, -0.00, -1.00, 448.5, 197.0)"> </text><text xml:space="preserve" font-family="AkkuratStd" font-size="22.0" fill="#A6AAA8" transform="matrix(1.00, 0.00, -0.00, -1.00, 453.1, 197.0)">t</text><text xml:space="preserve" font-family="AkkuratStd" font-size="22.0" fill="#A6AAA8" transform="matrix(1.00, 0.00, -0.00, -1.00, 460.9, 197.0)">o</text><text xml:space="preserve" font-family="AkkuratStd" font-size="22.0" fill="#A6AAA8" transform="matrix(1.00, 0.00, -0.00, -1.00, 472.8, 197.0)"> </text><text xml:space="preserve" font-family="AkkuratStd" font-size="22.0" fill="#A6AAA8" transform="matrix(1.00, 0.00, -0.00, -1.00, 477.4, 197.0)">n</text><text xml:space="preserve" font-family="AkkuratStd" font-size="22.0" fill="#A6AAA8" transform="matrix(1.00, 0.00, -0.00, -1.00, 489.8, 197.0)">o</text><text xml:space="preserve" font-family="AkkuratStd" font-size="22.0" fill="#A6AAA8" transform="matrix(1.00, 0.00, -0.00, -1.00, 501.5, 197.0)">t</text><text xml:space="preserve" font-family="AkkuratStd" font-size="22.0" fill="#A6AAA8" transform="matrix(1.00, 0.00, -0.00, -1.00, 509.4, 197.0)">e</text><text xml:space="preserve" font-family="AkkuratStd" font-size="22.0" fill="#A6AAA8" transform="matrix(1.00, 0.00, -0.00, -1.00, 521.0, 197.0)"> </text><text xml:space="preserve" font-family="AkkuratStd" font-size="22.0" fill="#A6AAA8" transform="matrix(1.00, 0.00, -0.00, -1.00, 525.7, 197.0)">a</text><text xml:space="preserve" font-family="AkkuratStd" font-size="22.0" fill="#A6AAA8" transform="matrix(1.00, 0.00, -0.00, -1.00, 537.5, 197.0)">n</text><text xml:space="preserve" font-family="AkkuratStd" font-size="22.0" fill="#A6AAA8" transform="matrix(1.00, 0.00, -0.00, -1.00, 549.9, 197.0)">d</text><text xml:space="preserve" font-family="AkkuratStd" font-size="22.0" fill="#A6AAA8" transform="matrix(1.00, 0.00, -0.00, -1.00, 562.6, 197.0)"> </text><text xml:space="preserve" font-family="AkkuratStd" font-size="22.0" fill="#A6AAA8" transform="matrix(1.00, 0.00, -0.00, -1.00, 567.2, 197.0)">n</text><text xml:space="preserve" font-family="AkkuratStd" font-size="22.0" fill="#A6AAA8" transform="matrix(1.00, 0.00, -0.00, -1.00, 579.6, 197.0)">o</text><text xml:space="preserve" font-family="AkkuratStd" font-size="22.0" fill="#A6AAA8" transform="matrix(1.00, 0.00, -0.00, -1.00, 591.4, 197.0)">t</text><text xml:space="preserve" font-family="AkkuratStd" font-size="22.0" fill="#A6AAA8" transform="matrix(1.00, 0.00, -0.00, -1.00, 599.4, 197.0)"> </text><text xml:space="preserve" font-family="AkkuratStd" font-size="22.0" fill="#A6AAA8" transform="matrix(1.00, 0.00, -0.00, -1.00, 604.0, 197.0)">i</text><text xml:space="preserve" font-family="AkkuratStd" font-size="22.0" fill="#A6AAA8" transform="matrix(1.00, 0.00, -0.00, -1.00, 609.6, 197.0)">n</text><text xml:space="preserve" font-family="AkkuratStd" font-size="22.0" fill="#A6AAA8" transform="matrix(1.00, 0.00, -0.00, -1.00, 622.0, 197.0)">t</text><text xml:space="preserve" font-family="AkkuratStd" font-size="22.0" fill="#A6AAA8" transform="matrix(1.00, 0.00, -0.00, -1.00, 629.8, 197.0)">e</text><text xml:space="preserve" font-family="AkkuratStd" font-size="22.0" fill="#A6AAA8" transform="matrix(1.00, 0.00, -0.00, -1.00, 641.5, 197.0)">n</text><text xml:space="preserve" font-family="AkkuratStd" font-size="22.0" fill="#A6AAA8" transform="matrix(1.00, 0.00, -0.00, -1.00, 653.9, 197.0)">d</text><text xml:space="preserve" font-family="AkkuratStd" font-size="22.0" fill="#A6AAA8" transform="matrix(1.00, 0.00, -0.00, -1.00, 666.6, 197.0)">e</text><text xml:space="preserve" font-family="AkkuratStd" font-size="22.0" fill="#A6AAA8" transform="matrix(1.00, 0.00, -0.00, -1.00, 678.3, 197.0)">d</text><text xml:space="preserve" font-family="AkkuratStd" font-size="22.0" fill="#A6AAA8" transform="matrix(1.00, 0.00, -0.00, -1.00, 690.9, 197.0)"> </text><text xml:space="preserve" font-family="AkkuratStd" font-size="22.0" fill="#A6AAA8" transform="matrix(1.00, 0.00, -0.00, -1.00, 695.5, 197.0)">t</text><text xml:space="preserve" font-family="AkkuratStd" font-size="22.0" fill="#A6AAA8" transform="matrix(1.00, 0.00, -0.00, -1.00, 703.4, 197.0)">o</text><text xml:space="preserve" font-family="AkkuratStd" font-size="22.0" fill="#A6AAA8" transform="matrix(1.00, 0.00, -0.00, -1.00, 715.2, 197.0)"> </text><text xml:space="preserve" font-family="AkkuratStd" font-size="22.0" fill="#A6AAA8" transform="matrix(1.00, 0.00, -0.00, -1.00, 719.8, 197.0)">c</text><text xml:space="preserve" font-family="AkkuratStd" font-size="22.0" fill="#A6AAA8" transform="matrix(1.00, 0.00, -0.00, -1.00, 731.1, 197.0)">o</text><text xml:space="preserve" font-family="AkkuratStd" font-size="22.0" fill="#A6AAA8" transform="matrix(1.00, 0.00, -0.00, -1.00, 742.9, 197.0)">m</text><text xml:space="preserve" font-family="AkkuratStd" font-size="22.0" fill="#A6AAA8" transform="matrix(1.00, 0.00, -0.00, -1.00, 761.8, 197.0)">m</text><text xml:space="preserve" font-family="AkkuratStd" font-size="22.0" fill="#A6AAA8" transform="matrix(1.00, 0.00, -0.00, -1.00, 780.7, 197.0)">u</text><text xml:space="preserve" font-family="AkkuratStd" font-size="22.0" fill="#A6AAA8" transform="matrix(1.00, 0.00, -0.00, -1.00, 793.0, 197.0)">n</text><text xml:space="preserve" font-family="AkkuratStd" font-size="22.0" fill="#A6AAA8" transform="matrix(1.00, 0.00, -0.00, -1.00, 805.5, 197.0)">i</text><text xml:space="preserve" font-family="AkkuratStd" font-size="22.0" fill="#A6AAA8" transform="matrix(1.00, 0.00, -0.00, -1.00, 811.0, 197.0)">c</text><text xml:space="preserve" font-family="AkkuratStd" font-size="22.0" fill="#A6AAA8" transform="matrix(1.00, 0.00, -0.00, -1.00, 822.3, 197.0)">a</text><text xml:space="preserve" font-family="AkkuratStd" font-size="22.0" fill="#A6AAA8" transform="matrix(1.00, 0.00, -0.00, -1.00, 834.0, 197.0)">t</text><text xml:space="preserve" font-family="AkkuratStd" font-size="22.0" fill="#A6AAA8" transform="matrix(1.00, 0.00, -0.00, -1.00, 841.8, 197.0)">e</text><text xml:space="preserve" font-family="AkkuratStd" font-size="22.0" fill="#A6AAA8" transform="matrix(1.00, 0.00, -0.00, -1.00, 853.5, 197.0)"> </text><text xml:space="preserve" font-family="AkkuratStd" font-size="22.0" fill="#A6AAA8" transform="matrix(1.00, 0.00, -0.00, -1.00, 858.1, 197.0)">d</text><text xml:space="preserve" font-family="AkkuratStd" font-size="22.0" fill="#A6AAA8" transform="matrix(1.00, 0.00, -0.00, -1.00, 870.8, 197.0)">e</text><text xml:space="preserve" font-family="AkkuratStd" font-size="22.0" fill="#A6AAA8" transform="matrix(1.00, 0.00, -0.00, -1.00, 882.5, 197.0)">s</text><text xml:space="preserve" font-family="AkkuratStd" font-size="22.0" fill="#A6AAA8" transform="matrix(1.00, 0.00, -0.00, -1.00, 893.5, 197.0)">i</text><text xml:space="preserve" font-family="AkkuratStd" font-size="22.0" fill="#A6AAA8" transform="matrix(1.00, 0.00, -0.00, -1.00, 899.1, 197.0)">g</text><text xml:space="preserve" font-family="AkkuratStd" font-size="22.0" fill="#A6AAA8" transform="matrix(1.00, 0.00, -0.00, -1.00, 910.5, 197.0)">n</text><text xml:space="preserve" font-family="AkkuratStd" font-size="22.0" fill="#A6AAA8" transform="matrix(1.00, 0.00, -0.00, -1.00, 922.9, 197.0)">.</text><path d="M 168.1 806.5 L 1111.9 806.5 L 1111.9 706.5 L 168.1 706.5 Z M 168.1 806.5 " fill="#F89000"></path><g><clipPath id="clip-3059"><path d="M 568.0 475.0 L 712.0 475.0 L 712.0 570.0 L 568.0 570.0 Z M 568.0 475.0 "></path></clipPath><g clip-path="url(#clip-3059)"><g><g><clipPath id="clip-3060"><path d="M 568.0 475.0 L 712.0 475.0 L 712.0 570.0 L 568.0 570.0 Z M 568.0 475.0 "></path></clipPath><g clip-path="url(#clip-3060)"><g><g><clipPath id="clip-3061"><path d="M 568.0 475.0 L 712.0 475.0 L 712.0 570.0 L 568.0 570.0 Z M 568.0 475.0 "></path></clipPath><g clip-path="url(#clip-3061)"><image xlink:href="../../AF078961-8C16-472A-90A3-B851FE04D836/assets/4A7C51356E8DF6FD7007A3EF61168612.png" width="300.00" height="197.00" transform="matrix(0.48, 0.00, -0.00, -0.48, 568.0, 570.0)"></image></g></g><g><clipPath id="clip-3062"><path d="M 568.0 475.0 L 712.0 475.0 L 712.0 570.0 L 568.0 570.0 Z M 568.0 475.0 "></path></clipPath><g clip-path="url(#clip-3062)"><g><g><clipPath id="clip-3063"><path d="M 568.0 475.0 L 712.0 475.0 L 712.0 570.0 L 568.0 570.0 Z M 568.0 475.0 "></path></clipPath><g clip-path="url(#clip-3063)"><image xlink:href="../../AF078961-8C16-472A-90A3-B851FE04D836/assets/4A7C51356E8DF6FD7007A3EF61168612.png" width="300.00" height="197.00" transform="matrix(0.48, 0.00, -0.00, -0.48, 568.0, 570.0)"></image></g></g></g></g></g></g></g></g></g></g></g><path d="M 0.0 0.0 L 60.8 0.0 " fill="none" stroke="#F89000" stroke-width="1.00" transform="matrix(1.00, 0.00, 0.00, -1.00, 678.3, 893.6)"></path></g></svg>