<?xml version="1.0" encoding="UTF-8" standalone="no"?><svg xmlns="http://www.w3.org/2000/svg" xmlns:xlink="http://www.w3.org/1999/xlink" clip-rule="evenodd" stroke-miterlimit="4.00" viewBox="0 0 1280 720"><desc>SVG generated by Keynote</desc><defs></defs><g transform="matrix(1.00, 0.00, -0.00, -1.00, 0.0, 720.0)"><path d="M 0.0 720.0 L 1280.0 720.0 L 1280.0 0.0 L 0.0 0.0 Z M 0.0 720.0 " fill="#FEFFFF"></path><g><clipPath id="clip-5077"><path d="M 375.0 720.0 L 905.0 720.0 L 905.0 0.0 L 375.0 0.0 Z M 374.8 720.0 "></path></clipPath><g clip-path="url(#clip-5077)"><g><clipPath id="clip-5078"><path d="M 375.0 0.0 L 905.0 0.0 L 905.0 720.0 L 375.0 720.0 Z M 375.0 0.0 "></path></clipPath><g clip-path="url(#clip-5078)"><g><g><clipPath id="clip-5079"><path d="M 375.0 0.0 L 905.0 0.0 L 905.0 720.0 L 375.0 720.0 Z M 375.0 0.0 "></path></clipPath><g clip-path="url(#clip-5079)"><image xlink:href="../../B4A16C22-EA86-4FB7-8BA8-9AA532DD42EC/assets/52620EA8AC70A2C3D8BA4E7F436678C6.png" width="1978.00" height="2161.00" transform="matrix(0.37, 0.00, -0.00, 0.37, 276.0, -72.9)" opacity="0.80"></image></g></g><g><clipPath id="clip-5080"><path d="M 375.0 666.6 L 905.0 666.6 L 905.0 720.0 L 375.0 720.0 Z M 375.0 666.6 "></path></clipPath><g clip-path="url(#clip-5080)"><g><g><clipPath id="clip-5081"><path d="M 399.3 673.2 L 881.1 673.2 L 881.1 720.0 L 399.3 720.0 Z M 399.3 673.2 "></path></clipPath><g clip-path="url(#clip-5081)"><image xlink:href="../../AF078961-8C16-472A-90A3-B851FE04D836/assets/5BDB7ECB7EA2FDC7EB813E43503DFF7E.png" width="2618.00" height="255.00" transform="matrix(0.18, 0.00, -0.00, -0.18, 399.3, 720.4)"></image></g></g><g><clipPath id="clip-5082"><path d="M 399.3 673.2 L 881.1 673.2 L 881.1 720.0 L 399.3 720.0 Z M 399.3 673.2 "></path></clipPath><g clip-path="url(#clip-5082)"><g><g><clipPath id="clip-5083"><path d="M 399.3 673.2 L 881.1 673.2 L 881.1 720.0 L 399.3 720.0 Z M 399.3 673.2 "></path></clipPath><g clip-path="url(#clip-5083)"><image xlink:href="../../AF078961-8C16-472A-90A3-B851FE04D836/assets/5BDB7ECB7EA2FDC7EB813E43503DFF7E.png" width="2618.00" height="255.00" transform="matrix(0.18, 0.00, -0.00, -0.18, 399.3, 720.4)"></image></g></g></g></g></g></g><text xml:space="preserve" font-family="AkkuratStd" font-size="18.0" fill="#FBA200" transform="matrix(0.37, 0.00, -0.00, -0.37, 525.3, 689.1)">P</text><text xml:space="preserve" font-family="AkkuratStd" font-size="18.0" fill="#FBA200" transform="matrix(0.37, 0.00, -0.00, -0.37, 529.2, 689.1)">A</text><text xml:space="preserve" font-family="AkkuratStd" font-size="18.0" fill="#FBA200" transform="matrix(0.37, 0.00, -0.00, -0.37, 532.8, 689.1)">T</text><text xml:space="preserve" font-family="AkkuratStd" font-size="18.0" fill="#FBA200" transform="matrix(0.37, 0.00, -0.00, -0.37, 536.4, 689.1)">H</text><text xml:space="preserve" font-family="AkkuratStd" font-size="18.0" fill="#FBA200" transform="matrix(0.37, 0.00, -0.00, -0.37, 541.1, 689.1)"> </text><text xml:space="preserve" font-family="AkkuratStd" font-size="18.0" fill="#FBA200" transform="matrix(0.37, 0.00, -0.00, -0.37, 542.5, 689.1)">T</text><text xml:space="preserve" font-family="AkkuratStd" font-size="18.0" fill="#FBA200" transform="matrix(0.37, 0.00, -0.00, -0.37, 545.9, 689.1)">O</text><text xml:space="preserve" font-family="AkkuratStd" font-size="18.0" fill="#FBA200" transform="matrix(0.37, 0.00, -0.00, -0.37, 550.3, 689.1)"> </text><text xml:space="preserve" font-family="AkkuratStd" font-size="18.0" fill="#FBA200" transform="matrix(0.37, 0.00, -0.00, -0.37, 551.8, 689.1)">S</text><text xml:space="preserve" font-family="AkkuratStd" font-size="18.0" fill="#FBA200" transform="matrix(0.37, 0.00, -0.00, -0.37, 556.1, 689.1)">U</text><text xml:space="preserve" font-family="AkkuratStd" font-size="18.0" fill="#FBA200" transform="matrix(0.37, 0.00, -0.00, -0.37, 560.5, 689.1)">C</text><text xml:space="preserve" font-family="AkkuratStd" font-size="18.0" fill="#FBA200" transform="matrix(0.37, 0.00, -0.00, -0.37, 564.7, 689.1)">C</text><text xml:space="preserve" font-family="AkkuratStd" font-size="18.0" fill="#FBA200" transform="matrix(0.37, 0.00, -0.00, -0.37, 568.9, 689.1)">E</text><text xml:space="preserve" font-family="AkkuratStd" font-size="18.0" fill="#FBA200" transform="matrix(0.37, 0.00, -0.00, -0.37, 573.1, 689.1)">S</text><text xml:space="preserve" font-family="AkkuratStd" font-size="18.0" fill="#FBA200" transform="matrix(0.37, 0.00, -0.00, -0.37, 577.3, 689.1)">S</text><text xml:space="preserve" font-family="AkkuratStd" font-size="18.0" fill="#FBA200" transform="matrix(0.37, 0.00, -0.00, -0.37, 581.5, 689.1)"> </text><text xml:space="preserve" font-family="AkkuratStd" font-size="18.0" fill="#FBA200" transform="matrix(0.37, 0.00, -0.00, -0.37, 583.0, 689.1)"> </text><text xml:space="preserve" font-family="AkkuratStd" font-size="18.0" fill="#FBA200" transform="matrix(0.37, 0.00, -0.00, -0.37, 584.5, 689.1)"> </text><text xml:space="preserve" font-family="AkkuratStd" font-size="18.0" fill="#FBA200" transform="matrix(0.37, 0.00, -0.00, -0.37, 586.0, 689.1)"> </text><text xml:space="preserve" font-family="AkkuratStd" font-size="18.0" fill="#FBA200" transform="matrix(0.37, 0.00, -0.00, -0.37, 587.6, 689.1)"> </text><text xml:space="preserve" font-family="AkkuratStd" font-size="18.0" fill="#FBA200" transform="matrix(0.37, 0.00, -0.00, -0.37, 589.1, 689.1)"> </text><text xml:space="preserve" font-family="AkkuratStd" font-size="18.0" fill="#FBA200" transform="matrix(0.37, 0.00, -0.00, -0.37, 590.6, 689.1)"> </text><text xml:space="preserve" font-family="AkkuratStd" font-size="18.0" fill="#FBA200" transform="matrix(0.37, 0.00, -0.00, -0.37, 592.1, 689.1)"> </text><text xml:space="preserve" font-family="AkkuratStd" font-size="18.0" fill="#FBA200" transform="matrix(0.37, 0.00, -0.00, -0.37, 593.7, 689.1)"> </text><text xml:space="preserve" font-family="AkkuratStd" font-size="18.0" fill="#FBA200" transform="matrix(0.37, 0.00, -0.00, -0.37, 595.2, 689.1)"> </text><text xml:space="preserve" font-family="AkkuratStd" font-size="18.0" fill="#FBA200" transform="matrix(0.37, 0.00, -0.00, -0.37, 596.7, 689.1)"> </text><text xml:space="preserve" font-family="AkkuratStd" font-size="18.0" fill="#FBA200" transform="matrix(0.37, 0.00, -0.00, -0.37, 598.2, 689.1)"> </text><text xml:space="preserve" font-family="AkkuratStd" font-size="18.0" fill="#FBA200" transform="matrix(0.37, 0.00, -0.00, -0.37, 599.8, 689.1)"> </text><text xml:space="preserve" font-family="AkkuratStd" font-size="18.0" fill="#FBA200" transform="matrix(0.37, 0.00, -0.00, -0.37, 601.3, 689.1)"> </text><text xml:space="preserve" font-family="AkkuratStd" font-size="18.0" fill="#FBA200" transform="matrix(0.37, 0.00, -0.00, -0.37, 602.8, 689.1)"> </text><text xml:space="preserve" font-family="AkkuratStd" font-size="18.0" fill="#FBA200" transform="matrix(0.37, 0.00, -0.00, -0.37, 604.3, 689.1)"> </text><text xml:space="preserve" font-family="AkkuratStd" font-size="18.0" fill="#FBA200" transform="matrix(0.37, 0.00, -0.00, -0.37, 605.8, 689.1)"> </text><text xml:space="preserve" font-family="AkkuratStd" font-size="18.0" fill="#FBA200" transform="matrix(0.37, 0.00, -0.00, -0.37, 607.4, 689.1)">W</text><text xml:space="preserve" font-family="AkkuratStd" font-size="18.0" fill="#FBA200" transform="matrix(0.37, 0.00, -0.00, -0.37, 613.0, 689.1)">O</text><text xml:space="preserve" font-family="AkkuratStd" font-size="18.0" fill="#FBA200" transform="matrix(0.37, 0.00, -0.00, -0.37, 617.5, 689.1)">R</text><text xml:space="preserve" font-family="AkkuratStd" font-size="18.0" fill="#FBA200" transform="matrix(0.37, 0.00, -0.00, -0.37, 621.9, 689.1)">K</text><text xml:space="preserve" font-family="AkkuratStd" font-size="18.0" fill="#FBA200" transform="matrix(0.37, 0.00, -0.00, -0.37, 626.3, 689.1)">I</text><text xml:space="preserve" font-family="AkkuratStd" font-size="18.0" fill="#FBA200" transform="matrix(0.37, 0.00, -0.00, -0.37, 628.2, 689.1)">N</text><text xml:space="preserve" font-family="AkkuratStd" font-size="18.0" fill="#FBA200" transform="matrix(0.37, 0.00, -0.00, -0.37, 633.1, 689.1)">G</text><text xml:space="preserve" font-family="AkkuratStd" font-size="18.0" fill="#FBA200" transform="matrix(0.37, 0.00, -0.00, -0.37, 637.6, 689.1)"> </text><text xml:space="preserve" font-family="AkkuratStd" font-size="18.0" fill="#FBA200" transform="matrix(0.37, 0.00, -0.00, -0.37, 639.1, 689.1)">A</text><text xml:space="preserve" font-family="AkkuratStd" font-size="18.0" fill="#FBA200" transform="matrix(0.37, 0.00, -0.00, -0.37, 642.7, 689.1)">T</text><text xml:space="preserve" font-family="AkkuratStd" font-size="18.0" fill="#FBA200" transform="matrix(0.37, 0.00, -0.00, -0.37, 646.1, 689.1)"> </text><text xml:space="preserve" font-family="AkkuratStd" font-size="18.0" fill="#FBA200" transform="matrix(0.37, 0.00, -0.00, -0.37, 647.7, 689.1)">S</text><text xml:space="preserve" font-family="AkkuratStd" font-size="18.0" fill="#FBA200" transform="matrix(0.37, 0.00, -0.00, -0.37, 651.9, 689.1)">U</text><text xml:space="preserve" font-family="AkkuratStd" font-size="18.0" fill="#FBA200" transform="matrix(0.37, 0.00, -0.00, -0.37, 656.4, 689.1)">C</text><text xml:space="preserve" font-family="AkkuratStd" font-size="18.0" fill="#FBA200" transform="matrix(0.37, 0.00, -0.00, -0.37, 660.6, 689.1)">C</text><text xml:space="preserve" font-family="AkkuratStd" font-size="18.0" fill="#FBA200" transform="matrix(0.37, 0.00, -0.00, -0.37, 664.8, 689.1)">E</text><text xml:space="preserve" font-family="AkkuratStd" font-size="18.0" fill="#FBA200" transform="matrix(0.37, 0.00, -0.00, -0.37, 668.9, 689.1)">S</text><text xml:space="preserve" font-family="AkkuratStd" font-size="18.0" fill="#FBA200" transform="matrix(0.37, 0.00, -0.00, -0.37, 673.1, 689.1)">S</text><text xml:space="preserve" font-family="AkkuratStd" font-size="18.0" fill="#FBA200" transform="matrix(0.37, 0.00, -0.00, -0.37, 677.3, 689.1)"> </text><text xml:space="preserve" font-family="AkkuratStd" font-size="18.0" fill="#FBA200" transform="matrix(0.37, 0.00, -0.00, -0.37, 678.8, 689.1)"> </text><text xml:space="preserve" font-family="AkkuratStd" font-size="18.0" fill="#FBA200" transform="matrix(0.37, 0.00, -0.00, -0.37, 680.3, 689.1)"> </text><text xml:space="preserve" font-family="AkkuratStd" font-size="18.0" fill="#FBA200" transform="matrix(0.37, 0.00, -0.00, -0.37, 681.8, 689.1)"> </text><text xml:space="preserve" font-family="AkkuratStd" font-size="18.0" fill="#FBA200" transform="matrix(0.37, 0.00, -0.00, -0.37, 683.4, 689.1)"> </text><text xml:space="preserve" font-family="AkkuratStd" font-size="18.0" fill="#FBA200" transform="matrix(0.37, 0.00, -0.00, -0.37, 684.9, 689.1)"> </text><text xml:space="preserve" font-family="AkkuratStd" font-size="18.0" fill="#FBA200" transform="matrix(0.37, 0.00, -0.00, -0.37, 686.4, 689.1)"> </text><text xml:space="preserve" font-family="AkkuratStd" font-size="18.0" fill="#FBA200" transform="matrix(0.37, 0.00, -0.00, -0.37, 687.9, 689.1)"> </text><text xml:space="preserve" font-family="AkkuratStd" font-size="18.0" fill="#FBA200" transform="matrix(0.37, 0.00, -0.00, -0.37, 689.5, 689.1)"> </text><text xml:space="preserve" font-family="AkkuratStd" font-size="18.0" fill="#FBA200" transform="matrix(0.37, 0.00, -0.00, -0.37, 691.0, 689.1)"> </text><text xml:space="preserve" font-family="AkkuratStd" font-size="18.0" fill="#FBA200" transform="matrix(0.37, 0.00, -0.00, -0.37, 692.5, 689.1)"> </text><text xml:space="preserve" font-family="AkkuratStd" font-size="18.0" fill="#FBA200" transform="matrix(0.37, 0.00, -0.00, -0.37, 694.0, 689.1)"> </text><text xml:space="preserve" font-family="AkkuratStd" font-size="18.0" fill="#FBA200" transform="matrix(0.37, 0.00, -0.00, -0.37, 695.6, 689.1)"> </text><text xml:space="preserve" font-family="AkkuratStd" font-size="18.0" fill="#FBA200" transform="matrix(0.37, 0.00, -0.00, -0.37, 697.1, 689.1)"> </text><text xml:space="preserve" font-family="AkkuratStd" font-size="18.0" fill="#FBA200" transform="matrix(0.37, 0.00, -0.00, -0.37, 698.6, 689.1)"> </text><text xml:space="preserve" font-family="AkkuratStd" font-size="18.0" fill="#FBA200" transform="matrix(0.37, 0.00, -0.00, -0.37, 700.1, 689.1)"> </text><text xml:space="preserve" font-family="AkkuratStd" font-size="18.0" fill="#FBA200" transform="matrix(0.37, 0.00, -0.00, -0.37, 701.7, 689.1)"> </text><text xml:space="preserve" font-family="AkkuratStd" font-size="18.0" fill="#FBA200" transform="matrix(0.37, 0.00, -0.00, -0.37, 703.2, 689.1)"> </text><text xml:space="preserve" font-family="AkkuratStd" font-size="18.0" fill="#FBA200" transform="matrix(0.37, 0.00, -0.00, -0.37, 704.7, 689.1)"> </text><text xml:space="preserve" font-family="AkkuratStd" font-size="18.0" fill="#FBA200" transform="matrix(0.37, 0.00, -0.00, -0.37, 706.2, 689.1)"> </text><text xml:space="preserve" font-family="AkkuratStd" font-size="18.0" fill="#FBA200" transform="matrix(0.37, 0.00, -0.00, -0.37, 707.7, 689.1)"> </text><text xml:space="preserve" font-family="AkkuratStd" font-size="18.0" fill="#FBA200" transform="matrix(0.37, 0.00, -0.00, -0.37, 709.3, 689.1)"> </text><text xml:space="preserve" font-family="AkkuratStd" font-size="18.0" fill="#FBA200" transform="matrix(0.37, 0.00, -0.00, -0.37, 710.8, 689.1)"> </text><text xml:space="preserve" font-family="AkkuratStd" font-size="18.0" fill="#FBA200" transform="matrix(0.37, 0.00, -0.00, -0.37, 712.3, 689.1)">C</text><text xml:space="preserve" font-family="AkkuratStd" font-size="18.0" fill="#FBA200" transform="matrix(0.37, 0.00, -0.00, -0.37, 716.4, 689.1)">A</text><text xml:space="preserve" font-family="AkkuratStd" font-size="18.0" fill="#FBA200" transform="matrix(0.37, 0.00, -0.00, -0.37, 720.5, 689.1)">R</text><text xml:space="preserve" font-family="AkkuratStd" font-size="18.0" fill="#FBA200" transform="matrix(0.37, 0.00, -0.00, -0.37, 724.9, 689.1)">E</text><text xml:space="preserve" font-family="AkkuratStd" font-size="18.0" fill="#FBA200" transform="matrix(0.37, 0.00, -0.00, -0.37, 729.1, 689.1)">E</text><text xml:space="preserve" font-family="AkkuratStd" font-size="18.0" fill="#FBA200" transform="matrix(0.37, 0.00, -0.00, -0.37, 733.2, 689.1)">R</text><text xml:space="preserve" font-family="AkkuratStd" font-size="18.0" fill="#FBA200" transform="matrix(0.37, 0.00, -0.00, -0.37, 737.6, 689.1)"> </text><text xml:space="preserve" font-family="AkkuratStd" font-size="18.0" fill="#FBA200" transform="matrix(0.37, 0.00, -0.00, -0.37, 739.1, 689.1)">A</text><text xml:space="preserve" font-family="AkkuratStd" font-size="18.0" fill="#FBA200" transform="matrix(0.37, 0.00, -0.00, -0.37, 743.2, 689.1)">R</text><text xml:space="preserve" font-family="AkkuratStd" font-size="18.0" fill="#FBA200" transform="matrix(0.37, 0.00, -0.00, -0.37, 747.6, 689.1)">E</text><text xml:space="preserve" font-family="AkkuratStd" font-size="18.0" fill="#FBA200" transform="matrix(0.37, 0.00, -0.00, -0.37, 751.8, 689.1)">A</text><text xml:space="preserve" font-family="AkkuratStd" font-size="18.0" fill="#FBA200" transform="matrix(0.37, 0.00, -0.00, -0.37, 755.8, 689.1)">S</text><text xml:space="preserve" font-family="AkkuratStd" font-size="18.0" fill="#FBA200" transform="matrix(0.37, 0.00, -0.00, -0.37, 760.0, 689.1)"> </text><text xml:space="preserve" font-family="AkkuratStd" font-size="18.0" fill="#FBA200" transform="matrix(0.37, 0.00, -0.00, -0.37, 761.6, 689.1)"> </text><text xml:space="preserve" font-family="AkkuratStd" font-size="18.0" fill="#FBA200" transform="matrix(0.37, 0.00, -0.00, -0.37, 763.1, 689.1)"> </text><text xml:space="preserve" font-family="AkkuratStd" font-size="18.0" fill="#FBA200" transform="matrix(0.37, 0.00, -0.00, -0.37, 764.6, 689.1)"> </text><text xml:space="preserve" font-family="AkkuratStd" font-size="18.0" fill="#FBA200" transform="matrix(0.37, 0.00, -0.00, -0.37, 766.1, 689.1)"> </text><text xml:space="preserve" font-family="AkkuratStd" font-size="18.0" fill="#FBA200" transform="matrix(0.37, 0.00, -0.00, -0.37, 767.7, 689.1)"> </text><text xml:space="preserve" font-family="AkkuratStd" font-size="18.0" fill="#FBA200" transform="matrix(0.37, 0.00, -0.00, -0.37, 769.2, 689.1)"> </text><text xml:space="preserve" font-family="AkkuratStd" font-size="18.0" fill="#FBA200" transform="matrix(0.37, 0.00, -0.00, -0.37, 770.7, 689.1)"> </text><text xml:space="preserve" font-family="AkkuratStd" font-size="18.0" fill="#FBA200" transform="matrix(0.37, 0.00, -0.00, -0.37, 772.2, 689.1)"> </text><text xml:space="preserve" font-family="AkkuratStd" font-size="18.0" fill="#FBA200" transform="matrix(0.37, 0.00, -0.00, -0.37, 773.8, 689.1)"> </text><text xml:space="preserve" font-family="AkkuratStd" font-size="18.0" fill="#FBA200" transform="matrix(0.37, 0.00, -0.00, -0.37, 775.3, 689.1)"> </text><text xml:space="preserve" font-family="AkkuratStd" font-size="18.0" fill="#FBA200" transform="matrix(0.37, 0.00, -0.00, -0.37, 776.8, 689.1)"> </text><text xml:space="preserve" font-family="AkkuratStd" font-size="18.0" fill="#FBA200" transform="matrix(0.37, 0.00, -0.00, -0.37, 778.3, 689.1)"> </text><text xml:space="preserve" font-family="AkkuratStd" font-size="18.0" fill="#FBA200" transform="matrix(0.37, 0.00, -0.00, -0.37, 779.8, 689.1)"> </text><text xml:space="preserve" font-family="AkkuratStd" font-size="18.0" fill="#FBA200" transform="matrix(0.37, 0.00, -0.00, -0.37, 781.4, 689.1)"> </text><text xml:space="preserve" font-family="AkkuratStd" font-size="18.0" fill="#FBA200" transform="matrix(0.37, 0.00, -0.00, -0.37, 782.9, 689.1)"> </text><text xml:space="preserve" font-family="AkkuratStd" font-size="18.0" fill="#FBA200" transform="matrix(0.37, 0.00, -0.00, -0.37, 784.4, 689.1)"> </text><text xml:space="preserve" font-family="AkkuratStd" font-size="18.0" fill="#FBA200" transform="matrix(0.37, 0.00, -0.00, -0.37, 785.9, 689.1)"> </text><text xml:space="preserve" font-family="AkkuratStd" font-size="18.0" fill="#FBA200" transform="matrix(0.37, 0.00, -0.00, -0.37, 787.5, 689.1)"> </text><text xml:space="preserve" font-family="AkkuratStd" font-size="18.0" fill="#FBA200" transform="matrix(0.37, 0.00, -0.00, -0.37, 789.0, 689.1)"> </text><text xml:space="preserve" font-family="AkkuratStd" font-size="18.0" fill="#FBA200" transform="matrix(0.37, 0.00, -0.00, -0.37, 790.5, 689.1)"> </text><text xml:space="preserve" font-family="AkkuratStd" font-size="18.0" fill="#FBA200" transform="matrix(0.37, 0.00, -0.00, -0.37, 792.0, 689.1)"> </text><text xml:space="preserve" font-family="AkkuratStd" font-size="18.0" fill="#FBA200" transform="matrix(0.37, 0.00, -0.00, -0.37, 793.6, 689.1)"> </text><text xml:space="preserve" font-family="AkkuratStd" font-size="18.0" fill="#FBA200" transform="matrix(0.37, 0.00, -0.00, -0.37, 795.1, 689.1)">B</text><text xml:space="preserve" font-family="AkkuratStd" font-size="18.0" fill="#FBA200" transform="matrix(0.37, 0.00, -0.00, -0.37, 799.5, 689.1)">L</text><text xml:space="preserve" font-family="AkkuratStd" font-size="18.0" fill="#FBA200" transform="matrix(0.37, 0.00, -0.00, -0.37, 802.9, 689.1)">O</text><text xml:space="preserve" font-family="AkkuratStd" font-size="18.0" fill="#FBA200" transform="matrix(0.37, 0.00, -0.00, -0.37, 807.4, 689.1)">G</text><text xml:space="preserve" font-family="AkkuratStd" font-size="18.0" fill="#FBA200" transform="matrix(0.37, 0.00, -0.00, -0.37, 811.9, 689.1)"> </text><text xml:space="preserve" font-family="AkkuratStd" font-size="18.0" fill="#FBA200" transform="matrix(0.37, 0.00, -0.00, -0.37, 813.4, 689.1)"> </text><text xml:space="preserve" font-family="AkkuratStd" font-size="18.0" fill="#FBA200" transform="matrix(0.37, 0.00, -0.00, -0.37, 814.9, 689.1)"> </text><text xml:space="preserve" font-family="AkkuratStd" font-size="18.0" fill="#FBA200" transform="matrix(0.37, 0.00, -0.00, -0.37, 816.5, 689.1)"> </text><text xml:space="preserve" font-family="AkkuratStd" font-size="18.0" fill="#FBA200" transform="matrix(0.37, 0.00, -0.00, -0.37, 818.0, 689.1)"> </text><text xml:space="preserve" font-family="AkkuratStd" font-size="18.0" fill="#FBA200" transform="matrix(0.37, 0.00, -0.00, -0.37, 819.5, 689.1)"> </text><text xml:space="preserve" font-family="AkkuratStd" font-size="18.0" fill="#FBA200" transform="matrix(0.37, 0.00, -0.00, -0.37, 821.0, 689.1)"> </text><text xml:space="preserve" font-family="AkkuratStd" font-size="18.0" fill="#FBA200" transform="matrix(0.37, 0.00, -0.00, -0.37, 822.6, 689.1)"> </text><text xml:space="preserve" font-family="AkkuratStd" font-size="18.0" fill="#FBA200" transform="matrix(0.37, 0.00, -0.00, -0.37, 824.1, 689.1)"> </text><text xml:space="preserve" font-family="AkkuratStd" font-size="18.0" fill="#FBA200" transform="matrix(0.37, 0.00, -0.00, -0.37, 825.6, 689.1)"> </text><text xml:space="preserve" font-family="AkkuratStd" font-size="18.0" fill="#FBA200" transform="matrix(0.37, 0.00, -0.00, -0.37, 827.1, 689.1)"> </text><text xml:space="preserve" font-family="AkkuratStd" font-size="18.0" fill="#FBA200" transform="matrix(0.37, 0.00, -0.00, -0.37, 828.7, 689.1)"> </text><text xml:space="preserve" font-family="AkkuratStd" font-size="18.0" fill="#FBA200" transform="matrix(0.37, 0.00, -0.00, -0.37, 830.2, 689.1)"> </text><text xml:space="preserve" font-family="AkkuratStd" font-size="18.0" fill="#FBA200" transform="matrix(0.37, 0.00, -0.00, -0.37, 831.7, 689.1)"> </text><text xml:space="preserve" font-family="AkkuratStd" font-size="18.0" fill="#FBA200" transform="matrix(0.37, 0.00, -0.00, -0.37, 833.2, 689.1)"> </text><text xml:space="preserve" font-family="AkkuratStd" font-size="18.0" fill="#FBA200" transform="matrix(0.37, 0.00, -0.00, -0.37, 834.7, 689.1)"> </text><text xml:space="preserve" font-family="AkkuratStd" font-size="18.0" fill="#FBA200" transform="matrix(0.37, 0.00, -0.00, -0.37, 836.3, 689.1)"> </text><text xml:space="preserve" font-family="AkkuratStd" font-size="18.0" fill="#FBA200" transform="matrix(0.37, 0.00, -0.00, -0.37, 837.8, 689.1)"> </text><text xml:space="preserve" font-family="AkkuratStd" font-size="18.0" fill="#FBA200" transform="matrix(0.37, 0.00, -0.00, -0.37, 839.3, 689.1)"> </text><text xml:space="preserve" font-family="AkkuratStd" font-size="18.0" fill="#FBA200" transform="matrix(0.37, 0.00, -0.00, -0.37, 840.8, 689.1)"> </text><text xml:space="preserve" font-family="AkkuratStd" font-size="18.0" fill="#FBA200" transform="matrix(0.37, 0.00, -0.00, -0.37, 842.4, 689.1)"> </text><text xml:space="preserve" font-family="AkkuratStd" font-size="18.0" fill="#FBA200" transform="matrix(0.37, 0.00, -0.00, -0.37, 843.9, 689.1)"> </text><text xml:space="preserve" font-family="AkkuratStd" font-size="18.0" fill="#FBA200" transform="matrix(0.37, 0.00, -0.00, -0.37, 845.4, 689.1)">A</text><text xml:space="preserve" font-family="AkkuratStd" font-size="18.0" fill="#FBA200" transform="matrix(0.37, 0.00, -0.00, -0.37, 849.4, 689.1)">C</text><text xml:space="preserve" font-family="AkkuratStd" font-size="18.0" fill="#FBA200" transform="matrix(0.37, 0.00, -0.00, -0.37, 853.6, 689.1)">C</text><text xml:space="preserve" font-family="AkkuratStd" font-size="18.0" fill="#FBA200" transform="matrix(0.37, 0.00, -0.00, -0.37, 857.8, 689.1)">O</text><text xml:space="preserve" font-family="AkkuratStd" font-size="18.0" fill="#FBA200" transform="matrix(0.37, 0.00, -0.00, -0.37, 862.3, 689.1)">U</text><text xml:space="preserve" font-family="AkkuratStd" font-size="18.0" fill="#FBA200" transform="matrix(0.37, 0.00, -0.00, -0.37, 866.8, 689.1)">N</text><text xml:space="preserve" font-family="AkkuratStd" font-size="18.0" fill="#FBA200" transform="matrix(0.37, 0.00, -0.00, -0.37, 871.6, 689.1)">T</text><text xml:space="preserve" font-family="AkkuratStd" font-size="18.0" fill="#FEFFFF" transform="matrix(0.37, 0.00, -0.00, -0.37, 649.9, 712.6)">M</text><text xml:space="preserve" font-family="AkkuratStd" font-size="18.0" fill="#FEFFFF" transform="matrix(0.37, 0.00, -0.00, -0.37, 655.8, 712.6)">a</text><text xml:space="preserve" font-family="AkkuratStd" font-size="18.0" fill="#FEFFFF" transform="matrix(0.37, 0.00, -0.00, -0.37, 659.5, 712.6)">i</text><text xml:space="preserve" font-family="AkkuratStd" font-size="18.0" fill="#FEFFFF" transform="matrix(0.37, 0.00, -0.00, -0.37, 661.3, 712.6)">n</text><text xml:space="preserve" font-family="AkkuratStd" font-size="18.0" fill="#FEFFFF" transform="matrix(0.37, 0.00, -0.00, -0.37, 665.2, 712.6)"> </text><text xml:space="preserve" font-family="AkkuratStd" font-size="18.0" fill="#FEFFFF" transform="matrix(0.37, 0.00, -0.00, -0.37, 666.7, 712.6)">S</text><text xml:space="preserve" font-family="AkkuratStd" font-size="18.0" fill="#FEFFFF" transform="matrix(0.37, 0.00, -0.00, -0.37, 670.9, 712.6)">i</text><text xml:space="preserve" font-family="AkkuratStd" font-size="18.0" fill="#FEFFFF" transform="matrix(0.37, 0.00, -0.00, -0.37, 672.7, 712.6)">t</text><text xml:space="preserve" font-family="AkkuratStd" font-size="18.0" fill="#FEFFFF" transform="matrix(0.37, 0.00, -0.00, -0.37, 675.2, 712.6)">e</text><text xml:space="preserve" font-family="AkkuratStd" font-size="18.0" fill="#FEFFFF" transform="matrix(0.37, 0.00, -0.00, -0.37, 678.8, 712.6)"> </text><text xml:space="preserve" font-family="AkkuratStd" font-size="18.0" fill="#FEFFFF" transform="matrix(0.37, 0.00, -0.00, -0.37, 680.4, 712.6)"> </text><text xml:space="preserve" font-family="AkkuratStd" font-size="18.0" fill="#FEFFFF" transform="matrix(0.37, 0.00, -0.00, -0.37, 681.9, 712.6)"> </text><text xml:space="preserve" font-family="AkkuratStd" font-size="18.0" fill="#FEFFFF" transform="matrix(0.37, 0.00, -0.00, -0.37, 683.4, 712.6)"> </text><text xml:space="preserve" font-family="AkkuratStd" font-size="18.0" fill="#FEFFFF" transform="matrix(0.37, 0.00, -0.00, -0.37, 684.9, 712.6)"> </text><text xml:space="preserve" font-family="AkkuratStd" font-size="18.0" fill="#FEFFFF" transform="matrix(0.37, 0.00, -0.00, -0.37, 686.4, 712.6)"> </text><text xml:space="preserve" font-family="AkkuratStd" font-size="18.0" fill="#FEFFFF" transform="matrix(0.37, 0.00, -0.00, -0.37, 688.0, 712.6)"> </text><text xml:space="preserve" font-family="AkkuratStd" font-size="18.0" fill="#FEFFFF" transform="matrix(0.37, 0.00, -0.00, -0.37, 689.5, 712.6)"> </text><text xml:space="preserve" font-family="AkkuratStd" font-size="18.0" fill="#FEFFFF" transform="matrix(0.37, 0.00, -0.00, -0.37, 691.0, 712.6)"> </text><text xml:space="preserve" font-family="AkkuratStd" font-size="18.0" fill="#FEFFFF" transform="matrix(0.37, 0.00, -0.00, -0.37, 692.5, 712.6)">S</text><text xml:space="preserve" font-family="AkkuratStd" font-size="18.0" fill="#FEFFFF" transform="matrix(0.37, 0.00, -0.00, -0.37, 696.7, 712.6)">e</text><text xml:space="preserve" font-family="AkkuratStd" font-size="18.0" fill="#FEFFFF" transform="matrix(0.37, 0.00, -0.00, -0.37, 700.4, 712.6)">a</text><text xml:space="preserve" font-family="AkkuratStd" font-size="18.0" fill="#FEFFFF" transform="matrix(0.37, 0.00, -0.00, -0.37, 704.1, 712.6)">r</text><text xml:space="preserve" font-family="AkkuratStd" font-size="18.0" fill="#FEFFFF" transform="matrix(0.37, 0.00, -0.00, -0.37, 706.5, 712.6)">c</text><text xml:space="preserve" font-family="AkkuratStd" font-size="18.0" fill="#FEFFFF" transform="matrix(0.37, 0.00, -0.00, -0.37, 710.0, 712.6)">h</text><text xml:space="preserve" font-family="AkkuratStd" font-size="18.0" fill="#FEFFFF" transform="matrix(0.37, 0.00, -0.00, -0.37, 713.9, 712.6)"> </text><text xml:space="preserve" font-family="AkkuratStd" font-size="18.0" fill="#FEFFFF" transform="matrix(0.37, 0.00, -0.00, -0.37, 715.4, 712.6)"> </text><text xml:space="preserve" font-family="AkkuratStd" font-size="18.0" fill="#FEFFFF" transform="matrix(0.37, 0.00, -0.00, -0.37, 716.9, 712.6)"> </text><text xml:space="preserve" font-family="AkkuratStd" font-size="18.0" fill="#FEFFFF" transform="matrix(0.37, 0.00, -0.00, -0.37, 718.5, 712.6)"> </text><text xml:space="preserve" font-family="AkkuratStd" font-size="18.0" fill="#FEFFFF" transform="matrix(0.37, 0.00, -0.00, -0.37, 720.0, 712.6)"> </text><text xml:space="preserve" font-family="AkkuratStd" font-size="18.0" fill="#FEFFFF" transform="matrix(0.37, 0.00, -0.00, -0.37, 721.5, 712.6)"> </text><text xml:space="preserve" font-family="AkkuratStd" font-size="18.0" fill="#FEFFFF" transform="matrix(0.37, 0.00, -0.00, -0.37, 723.0, 712.6)"> </text><text xml:space="preserve" font-family="AkkuratStd" font-size="18.0" fill="#FEFFFF" transform="matrix(0.37, 0.00, -0.00, -0.37, 724.6, 712.6)"> </text><text xml:space="preserve" font-family="AkkuratStd" font-size="18.0" fill="#FEFFFF" transform="matrix(0.37, 0.00, -0.00, -0.37, 726.1, 712.6)"> </text><text xml:space="preserve" font-family="AkkuratStd" font-size="18.0" fill="#FEFFFF" transform="matrix(0.37, 0.00, -0.00, -0.37, 727.6, 712.6)"> </text><text xml:space="preserve" font-family="AkkuratStd" font-size="18.0" fill="#FEFFFF" transform="matrix(0.37, 0.00, -0.00, -0.37, 729.1, 712.6)">R</text><text xml:space="preserve" font-family="AkkuratStd" font-size="18.0" fill="#FEFFFF" transform="matrix(0.37, 0.00, -0.00, -0.37, 733.5, 712.6)">e</text><text xml:space="preserve" font-family="AkkuratStd" font-size="18.0" fill="#FEFFFF" transform="matrix(0.37, 0.00, -0.00, -0.37, 737.1, 712.6)">f</text><text xml:space="preserve" font-family="AkkuratStd" font-size="18.0" fill="#FEFFFF" transform="matrix(0.37, 0.00, -0.00, -0.37, 739.5, 712.6)">e</text><text xml:space="preserve" font-family="AkkuratStd" font-size="18.0" fill="#FEFFFF" transform="matrix(0.37, 0.00, -0.00, -0.37, 743.1, 712.6)">r</text><text xml:space="preserve" font-family="AkkuratStd" font-size="18.0" fill="#FEFFFF" transform="matrix(0.37, 0.00, -0.00, -0.37, 745.6, 712.6)">r</text><text xml:space="preserve" font-family="AkkuratStd" font-size="18.0" fill="#FEFFFF" transform="matrix(0.37, 0.00, -0.00, -0.37, 748.1, 712.6)">a</text><text xml:space="preserve" font-family="AkkuratStd" font-size="18.0" fill="#FEFFFF" transform="matrix(0.37, 0.00, -0.00, -0.37, 751.8, 712.6)">l</text><text xml:space="preserve" font-family="AkkuratStd" font-size="18.0" fill="#FEFFFF" transform="matrix(0.37, 0.00, -0.00, -0.37, 753.7, 712.6)"> </text><text xml:space="preserve" font-family="AkkuratStd" font-size="18.0" fill="#FEFFFF" transform="matrix(0.37, 0.00, -0.00, -0.37, 755.3, 712.6)"> </text><text xml:space="preserve" font-family="AkkuratStd" font-size="18.0" fill="#FEFFFF" transform="matrix(0.37, 0.00, -0.00, -0.37, 756.8, 712.6)"> </text><text xml:space="preserve" font-family="AkkuratStd" font-size="18.0" fill="#FEFFFF" transform="matrix(0.37, 0.00, -0.00, -0.37, 758.3, 712.6)"> </text><text xml:space="preserve" font-family="AkkuratStd" font-size="18.0" fill="#FEFFFF" transform="matrix(0.37, 0.00, -0.00, -0.37, 759.8, 712.6)"> </text><text xml:space="preserve" font-family="AkkuratStd" font-size="18.0" fill="#FEFFFF" transform="matrix(0.37, 0.00, -0.00, -0.37, 761.4, 712.6)"> </text><text xml:space="preserve" font-family="AkkuratStd" font-size="18.0" fill="#FEFFFF" transform="matrix(0.37, 0.00, -0.00, -0.37, 762.9, 712.6)"> </text><text xml:space="preserve" font-family="AkkuratStd" font-size="18.0" fill="#FEFFFF" transform="matrix(0.37, 0.00, -0.00, -0.37, 764.4, 712.6)"> </text><text xml:space="preserve" font-family="AkkuratStd" font-size="18.0" fill="#FEFFFF" transform="matrix(0.37, 0.00, -0.00, -0.37, 765.9, 712.6)"> </text><text xml:space="preserve" font-family="AkkuratStd" font-size="18.0" fill="#FEFFFF" transform="matrix(0.37, 0.00, -0.00, -0.37, 767.4, 712.6)"> </text><text xml:space="preserve" font-family="AkkuratStd" font-size="18.0" fill="#FEFFFF" transform="matrix(0.37, 0.00, -0.00, -0.37, 769.0, 712.6)"> </text><text xml:space="preserve" font-family="AkkuratStd" font-size="18.0" fill="#FEFFFF" transform="matrix(0.37, 0.00, -0.00, -0.37, 770.5, 712.6)"> </text><text xml:space="preserve" font-family="AkkuratStd" font-size="18.0" fill="#FEFFFF" transform="matrix(0.37, 0.00, -0.00, -0.37, 772.0, 712.6)">S</text><text xml:space="preserve" font-family="AkkuratStd" font-size="18.0" fill="#FEFFFF" transform="matrix(0.37, 0.00, -0.00, -0.37, 776.2, 712.6)">i</text><text xml:space="preserve" font-family="AkkuratStd" font-size="18.0" fill="#FEFFFF" transform="matrix(0.37, 0.00, -0.00, -0.37, 778.0, 712.6)">g</text><text xml:space="preserve" font-family="AkkuratStd" font-size="18.0" fill="#FEFFFF" transform="matrix(0.37, 0.00, -0.00, -0.37, 781.6, 712.6)">n</text><text xml:space="preserve" font-family="AkkuratStd" font-size="18.0" fill="#FEFFFF" transform="matrix(0.37, 0.00, -0.00, -0.37, 785.5, 712.6)"> </text><text xml:space="preserve" font-family="AkkuratStd" font-size="18.0" fill="#FEFFFF" transform="matrix(0.37, 0.00, -0.00, -0.37, 787.0, 712.6)">I</text><text xml:space="preserve" font-family="AkkuratStd" font-size="18.0" fill="#FEFFFF" transform="matrix(0.37, 0.00, -0.00, -0.37, 788.9, 712.6)">n</text></g></g><g><clipPath id="clip-5084"><path d="M 375.0 0.0 L 905.0 0.0 L 905.0 720.0 L 375.0 720.0 Z M 375.0 0.0 "></path></clipPath><g clip-path="url(#clip-5084)"><g><g><clipPath id="clip-5085"><path d="M 397.1 0.0 L 883.3 0.0 L 883.3 65.2 L 397.1 65.2 Z M 397.1 0.0 "></path></clipPath><g clip-path="url(#clip-5085)"><image xlink:href="../../AF078961-8C16-472A-90A3-B851FE04D836/assets/DF0CA751CABB5C5EF29A912540D1AC0D.png" width="2642.00" height="354.00" transform="matrix(0.18, 0.00, -0.00, -0.18, 397.1, 65.2)"></image></g></g><g><clipPath id="clip-5086"><path d="M 397.1 0.0 L 883.3 0.0 L 883.3 65.2 L 397.1 65.2 Z M 397.1 0.0 "></path></clipPath><g clip-path="url(#clip-5086)"><g><g><clipPath id="clip-5087"><path d="M 397.1 0.0 L 883.3 0.0 L 883.3 65.2 L 397.1 65.2 Z M 397.1 0.0 "></path></clipPath><g clip-path="url(#clip-5087)"><image xlink:href="../../AF078961-8C16-472A-90A3-B851FE04D836/assets/DF0CA751CABB5C5EF29A912540D1AC0D.png" width="2642.00" height="354.00" transform="matrix(0.18, 0.00, -0.00, -0.18, 397.1, 65.2)"></image></g></g></g></g></g></g></g></g></g></g></g></g></g></g></svg>