<?xml version="1.0" encoding="utf-8"?>
<!-- Generator: Adobe Illustrator 19.0.1, SVG Export Plug-In . SVG Version: 6.00 Build 0)  -->
<svg version="1.1" id="Layer_1" xmlns="http://www.w3.org/2000/svg" xmlns:xlink="http://www.w3.org/1999/xlink" x="0px" y="0px"
	 viewBox="-271 122.2 257 257.8" enable-background="new -271 122.2 257 257.8" xml:space="preserve">
<g>
	<path fill="#323232" d="M-142.5,141.6c-60.2,0-109.1,48.9-109.1,109.1s48.9,109.1,109.1,109.1s109.1-48.9,109.1-109.1
		C-33.4,190.6-82.3,141.6-142.5,141.6z M-186.3,297.3l-3.5-22.9h-15.7l-3.7,22.9h-15.6l17-99.7h20.7l16.7,99.7H-186.3z
		 M-128.2,297.3l-15.9-40.5l-4.5,8.9v31.6h-15v-99.9h15V233l18.4-35.5h16l-20.5,40.6l24.1,59.1h-17.6L-128.2,297.3L-128.2,297.3z
		 M-79.6,213.9c-1.7-1.7-3.7-2.5-6.1-2.5c-2.4,0-4.4,0.8-6.1,2.5c-1.7,1.7-2.5,3.7-2.5,6.1v54.7c0,2.4,0.8,4.4,2.5,6.1
		s3.7,2.5,6.1,2.5c2.4,0,4.4-0.8,6.1-2.5s2.5-3.7,2.5-6.1v-13.7h15.6v13.9c0,6.7-2.3,12.3-6.9,16.9c-4.7,4.7-10.2,6.9-16.9,6.9
		c-6.7,0-12.3-2.3-16.9-6.9c-4.7-4.7-6.9-10.2-6.9-16.9v-54.4c0-6.7,2.3-12.3,6.9-16.9c4.7-4.7,10.3-6.9,16.9-6.9
		c6.7,0,12.3,2.3,16.9,6.9c4.7,4.7,6.9,10.3,6.9,16.9v11.3h-15.6V220C-77.1,217.7-77.9,215.6-79.6,213.9z"/>
	<polygon fill="#323232" points="-203.3,259.8 -192.1,259.8 -197.6,220.4 	"/>
	<path fill="#323232" d="M-142.5,131.7c-65.7,0-119,53.3-119,119s53.3,119,119,119s119-53.3,119-119S-76.8,131.7-142.5,131.7z
		 M-142.5,362.6c-61.8,0-111.9-50.1-111.9-111.9s50.1-111.9,111.9-111.9s111.9,50.1,111.9,111.9S-80.7,362.6-142.5,362.6z"/>
</g>
</svg>
