<?xml version="1.0" encoding="utf-8"?>
<!-- Generator: Adobe Illustrator 19.0.1, SVG Export Plug-In . SVG Version: 6.00 Build 0)  -->
<svg version="1.1" id="Layer_1" xmlns="http://www.w3.org/2000/svg" xmlns:xlink="http://www.w3.org/1999/xlink" x="0px" y="0px"
	 width="257px" height="257.8px" viewBox="79 -78.8 257 257.8" enable-background="new 79 -78.8 257 257.8" xml:space="preserve">
<g>
	<path fill="#01D4B4" d="M206,172.9c-0.1-0.5-0.2-1,0.4-1.1c3.9-0.9,7.1,1.8,9.3,4.7c0.3,0.5,0.8,1,0.6,1.7c-1.7,1.6-4,0.2-5.8-0.2
		C208.4,176.9,207.1,174.8,206,172.9z"/>
	<path fill="#01D4B4" d="M198.1,173.8c-0.1-0.8-0.8-1.4-0.8-2.2c2.5-0.7,5.2,0.3,7.1,2.2c1.5,1.1,2.1,2.7,2.9,4.2
		c-0.8,1.6-3.1,0.9-4.4,0.5C200.7,178,199.3,175.6,198.1,173.8z"/>
	<path fill="#01D4B4" d="M192.6,176.9c-1.7-1.9-3.4-3.8-3.5-6.4c3.5-0.8,6.4,1.7,8.3,4.6c0.2,1.1,2.2,2.4,0.4,3.3
		C195.8,178.7,194.1,178,192.6,176.9z"/>
	<path fill="#01D4B4" d="M214.6,172.2v-0.3c3-1.1,5.9,0.2,8.2,2c1,1.1,2.7,2.2,2.3,3.6c-1.6,1.4-4.1,0.5-5.8,0
		C217.3,176.4,215.4,174.3,214.6,172.2z"/>
	<path fill="#01D4B4" d="M183.3,174.7c-1-1.8-2.4-3.4-2.4-5.6c2-0.3,4,0.2,5.5,1.6c1.8,1.7,3,3.6,3.6,5.8c-0.2,0.6-0.8,0.8-1.3,0.9
		C186.6,177.3,184.8,176.4,183.3,174.7z"/>
	<path fill="#01D4B4" d="M223.6,171.9c-0.2-1.5,1.8-0.9,2.7-1.3c3.3,0,6,2,8.2,4.6c0.3,1.1-0.9,1.3-1.5,1.6
		C228.7,177.9,225.9,174.6,223.6,171.9z"/>
	<path fill="#01D4B4" d="M174.4,171.6c-0.5-1.5-1.4-2.8-1.3-4.5c1.6-0.5,3.1,0.3,4.3,1.1c2.5,1.7,3.4,4.3,4.2,6.9
		c-0.5,1.2-2.3,0.8-3.1,0.4C176.9,174.8,175.1,173.4,174.4,171.6z"/>
	<path fill="#01D4B4" d="M231.9,169.8c1.7-1.2,4-0.8,6-0.4c2,0.9,4.5,2,5.3,4.4c-1.7,1.3-4.6,1.4-6.6,0.5
		C235,173.1,232.6,172.1,231.9,169.8z"/>
	<path fill="#01D4B4" d="M165.8,168.8c-0.5-1.4-1.1-3.3-0.5-4.8c2.4,0.3,4.6,2,6,4.2c0.7,1.6,1.4,3.1,1.6,4.9
		c-1,0.9-2.7,0.2-3.8-0.3C167.4,171.9,166.5,170.3,165.8,168.8z"/>
	<path fill="#01D4B4" d="M240.2,168.4c0-1.1,1.5-0.9,2.2-1.4c3.8-0.5,6.8,1.1,9.3,3.6c-0.2,1.7-2,1.5-3.1,2
		C245.1,173.1,242.5,170.6,240.2,168.4z"/>
	<path fill="#01D4B4" d="M158.2,166.7c-0.6-1.8-1.1-3.6-0.9-5.8c2.3-0.2,4.6,2,5.8,4.2c0.6,1.7,1.8,3.8,1.1,5.6
		C161.5,171,159.4,168.9,158.2,166.7z"/>
	<path fill="#01D4B4" d="M248.4,165.6c0.3-0.9,1.4-1.1,2.2-1.4c3.6-0.8,6.8,0.9,9.5,3.1c-0.1,1.2-1.7,2-2.9,2.1
		C253.5,170.1,250.6,168,248.4,165.6z"/>
	<path fill="#01D4B4" d="M150.4,163.1c-0.2-2-1.2-3.9-0.5-6c2.4,0.3,4.6,2.4,5.5,4.6c0.5,1.8,1.7,4.1,0.7,5.8
		C153.3,167.6,151.5,165.2,150.4,163.1z"/>
	<path fill="#01D4B4" d="M256.5,162.5c0.2-1.4,1.9-1.1,2.7-1.8c3.5-0.7,6.7,0.9,9.1,3c-0.7,2.1-3,1.8-4.7,2.3
		C260.8,165.9,258.4,164.4,256.5,162.5z"/>
	<path fill="#01D4B4" d="M144.5,161.6c-2-2.2-2.2-5.7-1.6-8.6c2,0.2,4.4,2.5,5.1,4.6c0.3,2,1.5,4,0.5,6.1
		C146.9,163.8,145.7,162.8,144.5,161.6z"/>
	<path fill="#01D4B4" d="M264.5,158.7c0.1-1.2,1.7-1.4,2.7-2c3.3-0.8,6.2,0.5,8.9,1.8c0.7,1.2-1.1,2.3-2,2.6
		C270.6,162.8,267.1,160.6,264.5,158.7z"/>
	<path fill="#01D4B4" d="M136.2,155.8c-1-2.1-1.2-5.1-0.5-7.4c1.3-0.2,2.4,1,3.4,2c1.7,2.5,2.6,5.7,1.7,8.8
		C138.6,159.4,137.2,157.3,136.2,155.8z"/>
	<path fill="#01D4B4" d="M271.8,154.3c1.9-2.6,5.5-2.7,8.5-2c1.2,0.5,4.1,0.5,3.1,2.5c-2.1,2-5.1,2.5-7.8,1.7
		C274.2,156.1,272.7,155.5,271.8,154.3z"/>
	<path fill="#01D4B4" d="M128.9,150.6c-0.7-2.3-1.1-5.9,0.4-7.8c3.6,1.8,4.5,5.6,4.5,9.4l-0.6,1.8
		C131.2,154.4,129.7,151.9,128.9,150.6z"/>
	<path fill="#01D4B4" d="M278.8,149.8c1.4-2.4,4.3-3,7.1-2.9c1.7,0.1,3.2,0.5,4.5,1.3c0.5,1.1-0.9,2.3-1.8,2.7
		C285.7,152.8,281.6,151.5,278.8,149.8z"/>
	<path fill="#01D4B4" d="M121.8,144c-0.4-2.3-0.2-4.7,0.8-6.7c1.4-0.4,2.9,1.7,3.4,2.9c0.9,2.4,1.5,5.9,0.2,8.3
		C123.9,148.1,122.4,146,121.8,144z"/>
	<path fill="#01D4B4" d="M285.6,144.6c0.8-1.8,2.7-2.5,4.2-3.1c2.5-0.2,5.5-0.5,7.5,0.9c-0.3,2.7-3.3,3.4-5.5,4
		C289.6,145.9,287.3,145.9,285.6,144.6z"/>
	<path fill="#01D4B4" d="M115.9,139.4c-1.3-2.8-0.6-6.1,0.9-8.5c1.4,0.3,2.2,1.7,2.7,2.9c1.1,2.4,1.1,6.1,0,8.6
		C117.8,142.7,116.6,140.6,115.9,139.4z"/>
	<path fill="#01D4B4" d="M292,138.7c0.9-1.9,2.9-2.7,4.5-3.5c2.1-0.1,4.9-0.5,6.8,0.4c0.7,1.6-1.2,2.9-2.4,3.6
		C298.3,141,294.3,140,292,138.7z"/>
	<path fill="#01D4B4" d="M109.3,130.5c-0.1-2.6,0.5-5.2,2.1-6.8c2,1.7,2.8,4,3,6.5c-0.1,2-0.5,4.2-1.7,5.5
		C110.5,135,109.6,132.7,109.3,130.5z"/>
	<path fill="#01D4B4" d="M298.2,132.5c1-2.9,4.1-3.9,6.7-4.3c1.7-0.1,3.3-0.1,4.6,0.7c-0.2,2.5-2.8,3.9-4.9,4.6
		C302.3,133.4,299.9,133.6,298.2,132.5z"/>
	<path fill="#01D4B4" d="M103.8,123.8c-0.2-2.7,0.9-5,2.3-7.1c2,1.5,2.6,3.9,2.7,6.2c-0.2,2.1-0.5,4.1-1.7,5.8
		C104.8,128.4,104.2,125.8,103.8,123.8z"/>
	<path fill="#01D4B4" d="M303.4,126.1c0.9-3,4.3-4.6,7.3-4.9c1.2,0.2,3-0.5,3.6,0.6c0.2,2.3-1.7,3-3.3,4.3
		C309,127.3,305.5,127.3,303.4,126.1z"/>
	<path fill="#01D4B4" d="M99,117.9c-0.6-3.3,0.8-6.5,3-8.6c2.4,2.8,2.2,7.2,0.9,10.4c-0.5,0.5-0.6,1.5-1.3,1.7
		C100.1,120.9,99.6,119.2,99,117.9z"/>
	<path fill="#01D4B4" d="M308.5,119.4c0.2-2,2-3.9,4-4.7c2-0.6,3.9-1.1,6.2-0.9c0.6,0.5,0.5,1.7,0,2.2
		C316.8,119.8,311.9,119.9,308.5,119.4z"/>
	<path fill="#01D4B4" d="M94.7,110.7c-0.9-3.5,0.8-6.6,3-8.9c2.1,1.7,2,5.2,1.5,7.8c-0.5,1.5-1.1,3.3-2.4,4.2
		C95.4,113.4,95.2,111.8,94.7,110.7z"/>
	<path fill="#01D4B4" d="M312.9,112.1c0.2-2,1.9-3.8,3.6-4.9c2-0.8,4-1.5,6.4-1.5c0.8,0.8,0.2,2-0.2,2.7
		C320.8,112.1,316.6,112.5,312.9,112.1z"/>
	<path fill="#01D4B4" d="M90.8,103.4c-1.2-3.8,1.1-6.8,3.3-9.3c1.2,0.4,1.5,2,1.8,3.3c0.4,3.3-1.1,5.9-2.9,8.3
		C91.6,105.9,91.4,104.3,90.8,103.4z"/>
	<path fill="#01D4B4" d="M316.9,104.3c0.7-3.6,4.2-6,7.7-6.5h2.1c0.4,1.5-0.4,3-1.4,4.2C323.1,104.2,319.9,105,316.9,104.3z"/>
	<path fill="#01D4B4" d="M87.6,95.9c-1.5-4,0.8-7.4,3.3-10.2l0.5-0.2c1.6,1.6,1.5,4.6,0.9,6.7C91.3,93.7,90.1,99.6,87.6,95.9z"/>
	<path fill="#01D4B4" d="M320.6,96.5c-0.2-1.5,0.7-3.1,1.8-4.3c2.1-2,4.4-3,7.1-3.3c1.1,0.5,0.5,2.1,0.2,3
		C328.1,95.4,324,96.4,320.6,96.5z"/>
	<path fill="#01D4B4" d="M84.5,86.7c-0.8-4,1.8-7.4,4.8-9.5c2.4,4-0.2,8.3-2.7,11.5C85.1,89.1,84.8,87.5,84.5,86.7z"/>
	<path fill="#01D4B4" d="M323.3,87.9c0.2-3.9,4.1-6.7,7.4-7.8c0.6-0.4,1.8-0.2,1.8,0.8c0.1,2.7-2.1,5.2-4.6,6.4
		C326.5,87.5,324.8,88.6,323.3,87.9z"/>
	<path fill="#01D4B4" d="M325.6,79.9c-0.2-3.4,2.4-6.4,5.3-7.8c0.9-0.5,2-1.1,3-0.8c0.6,1.9-0.2,3.6-1.1,5.1
		C331,78.6,328.3,79.9,325.6,79.9z"/>
	<path fill="#01D4B4" d="M82.3,78.5c-0.8-4,1.6-7.5,4.9-9.7c0.8,0.2,0.9,1.3,1.1,2c0.5,3.8-1.9,6.8-4.4,9.1
		C82.9,80.3,82.7,79,82.3,78.5z"/>
	<path fill="#01D4B4" d="M327.5,69c1.1-3.1,4.1-5.8,7.1-6.8c1.5,0.5,0.9,2.8,0.5,3.8c-0.9,3.5-4.8,5-7.7,5.5L327.5,69L327.5,69z"/>
	<path fill="#01D4B4" d="M80.7,69.9c-0.1-2-0.1-4.4,1.3-6c1.4-1.4,2.7-3.1,4.6-3.5c1.1,2.7,0.4,5.9-1.5,8
		C83.9,69.5,81.7,73.1,80.7,69.9z"/>
	<path fill="#01D4B4" d="M328.4,62.7c-0.2-2.7,0.9-4.7,2.6-6.6c1.3-1.3,2.8-2.4,4.6-2.7c1.2,2.2,0.2,4.8-1.1,6.6
		c-1.7,1.4-3.5,2.8-5.6,3.3L328.4,62.7z"/>
	<path fill="#01D4B4" d="M79.5,61.2c-0.6-4.3,2.8-7.3,6.1-9.1c0.8-0.2,0.5,0.8,0.9,1.2c0.5,4.1-2.6,7.1-5.5,9.3
		C80.1,62.7,79.6,62,79.5,61.2z"/>
	<path fill="#01D4B4" d="M329.1,54.2c-1.1-4.1,1.5-7.4,4.6-9.6c0.5-0.4,1.1-0.6,1.8-0.5c1.1,2.2,0.2,4.9-0.9,6.7
		C332.9,52.1,331.4,54.2,329.1,54.2z"/>
	<path fill="#01D4B4" d="M79,51.7c0.2-2.1,0.5-4.2,2.2-5.7c1.5-1.1,3-2.3,4.7-2.9c1.4,2.3-0.2,4.9-1.4,6.9c-1.2,1.4-2.5,2.5-4,3.3
		C79.4,53.5,79.2,52.4,79,51.7z"/>
	<path fill="#01D4B4" d="M328.5,43.3c0.1-3.6,2.3-6.5,5.3-8.5c0.8-0.1,1.4,0.6,1.4,1.4c0.2,2,0,4.1-1.3,5.6
		C332.5,42.9,328.4,48.3,328.5,43.3z"/>
	<path fill="#01D4B4" d="M79.2,42.8c0.2-2.3,0.8-4.2,2.7-5.8c1.6-1,3-2.4,5.1-2.4c0.2,2.1-0.3,4.3-1.7,6c-1.7,1.7-3.6,3.4-5.6,3.5
		L79.2,42.8z"/>
	<path fill="#01D4B4" d="M327.6,34.4c0.2-3.5,2.3-6.3,4.9-8.6c1-0.2,1,1,1.4,1.4c0.8,3.9-1.6,7.3-4.9,9.5
		C327.8,37.4,327.8,35.3,327.6,34.4z"/>
	<path fill="#01D4B4" d="M80.1,34.1c0-2.8,1.6-5.6,4.3-6.8c1.3-0.5,2.7-1.6,4-0.9c0.2,3.6-2.7,6.5-5.6,8.2
		C81.9,34.9,80,36,80.1,34.1z"/>
	<path fill="#01D4B4" d="M326.2,25.5c0.3-3.3,2-7.1,4.9-8.3c1.2,1.4,1.5,3.4,1.1,5.2C331.6,24.2,326.3,32.9,326.2,25.5z"/>
	<path fill="#01D4B4" d="M81.7,26.2c-0.6-1.8,0.3-3.5,1.1-4.9c2-2.1,4.6-3.6,7.4-3.5c0.2,3.5-2.8,6.4-5.6,7.9
		C83.7,25.9,82.8,26.9,81.7,26.2z"/>
	<path fill="#01D4B4" d="M324.6,13.5c0.8-1.8,1.6-3.6,3.3-5.1c1.5-0.2,1.6,1.6,2,2.5c0.8,3.9-1.6,6.8-4.3,9.1
		C323.8,18.7,324.1,15.6,324.6,13.5z"/>
	<path fill="#01D4B4" d="M83.8,14.9c1.1-3.9,5.2-5.1,8.9-5.5c0.3,2.7-1.7,5.2-4.2,6.5C87.1,16.8,81.7,19.6,83.8,14.9z"/>
	<path fill="#01D4B4" d="M321.5,5.5c0.9-2,1.3-4.4,3.3-5.8c1,0.3,1.6,1.4,1.8,2.2c1.1,4-1.3,7.3-3.8,9.6
		C321.5,10,320.9,7.7,321.5,5.5z"/>
	<path fill="#01D4B4" d="M86.1,7.7c0.4-2.1,1.8-4.1,3.8-5.3c1.9-0.7,3.9-1.4,6-1.1c0.1,3-2.7,5.4-5.2,6.4
		C89.5,8.4,86.5,9.3,86.1,7.7z"/>
	<path fill="#01D4B4" d="M318.2,0.8c-0.8-3.4,0.8-6.3,2.4-8.9c1.3-0.7,2,1.2,2.3,2c1.4,3.7-0.7,7.1-3.1,9.6
		C319,3,318.4,1.7,318.2,0.8z"/>
	<path fill="#01D4B4" d="M89.4-0.7c0.4-2.1,2-4.2,4-5.2c2-0.5,4.2-1.4,6.4-0.5c-0.5,2-1.8,3.9-3.6,4.9c-1.9,0.9-3.9,1.7-6.2,1.7
		L89.4-0.7z"/>
	<path fill="#01D4B4" d="M314.2-7.8c-0.5-3.2,0.7-5.8,2-8.2c2-0.7,2.3,1.9,3,3.1c0.7,3.3-1.1,6-2.7,8.6
		C315.2-4.9,314.5-6.5,314.2-7.8z"/>
	<path fill="#01D4B4" d="M93.2-8.7c0.5-1.8,1.8-3.8,3.6-4.6c2-1,4.9-1.2,7.1-0.5c-0.8,3.5-4.5,5.4-7.8,5.8C95-8.5,93.4-6.8,93.2-8.7
		z"/>
	<path fill="#01D4B4" d="M309.8-15.2c-0.8-3.1,0.5-5.8,1.4-8.4c1.6-0.8,2.4,1.4,3,2.3c1.5,3.4-0.2,6.8-2,9.5
		C310.9-12.4,310.3-14,309.8-15.2z"/>
	<path fill="#01D4B4" d="M97.6-16.4c0.3-1.9,2.1-3.7,3.8-4.6c2.2-0.5,5.2-1.4,7.3,0c-1.7,4.2-6.2,5.5-10.5,5.3L97.6-16.4z"/>
	<path fill="#01D4B4" d="M304.6-25.3c0-2.2,0.5-4.3,1.6-5.8c1.5,0.1,2.3,1.7,3,2.9c1.4,3.2,0,6.5-1.7,9.1
		C305.4-20.4,304.7-22.9,304.6-25.3z"/>
	<path fill="#01D4B4" d="M102.7-23.1c-0.9-2,1.6-3.5,3-4.5c2.2-1.1,5.8-1.1,8,0C112-23.1,106.9-22.7,102.7-23.1z"/>
	<path fill="#01D4B4" d="M299.4-37.1c0.2-0.5,0.3-1,0.9-0.9c1.7,0.2,2.5,2,3.1,3.3c0.9,3,0.2,6.3-1.4,8.6
		C298.6-28.7,298.3-33.4,299.4-37.1z"/>
	<path fill="#01D4B4" d="M108-31.1c0.5-2.5,3.2-3.8,5.5-4.2c2.1,0,4.3-0.2,6,0.9c-0.6,2.8-3.7,3.6-6,4.2c-1.8,0.2-3.5,0.2-5.1-0.4
		L108-31.1z"/>
	<path fill="#01D4B4" d="M292.5-40.4c0.4-1.4-0.1-3.3,1.1-4.2c1.5,0.1,2.9,1.8,3.4,3.1c1.4,2.7,0.6,6.3-0.7,8.6
		C293.5-34.3,292.7-37.4,292.5-40.4z"/>
	<path fill="#01D4B4" d="M114-37.7c0.1-2.2,2.5-2.9,4-3.8c2.7-0.5,5.4-0.1,7.7,1.1c-0.4,1.4-1.8,2.3-3,3
		C120.3-36.5,116.3-36.3,114-37.7z"/>
	<path fill="#01D4B4" d="M286.1-45.1c-0.2-1.7-0.5-4.3,0.9-5.3c1.9,0.2,3,2.3,3.9,3.6c0.9,2.4,0.7,5.7-0.6,7.9
		C287.6-39.8,286.7-42.7,286.1-45.1z"/>
	<path fill="#01D4B4" d="M120.3-44.2c1.1-2.2,3.5-3.3,5.8-3.5c1.9,0.6,4.2,0.3,5.8,1.7c0.2,1.1-1.7,2.2-2.7,2.7
		C126.2-42.5,122.5-42.2,120.3-44.2z"/>
	<path fill="#01D4B4" d="M279.1-51.9l0.2-3.6c1.5-0.8,2.5,0.9,3.6,1.7c2.3,2.5,1.8,6.1,1.1,9.3C280.6-45.4,279.5-48.9,279.1-51.9z"
		/>
	<path fill="#01D4B4" d="M127.2-49.7c0.5-2.3,3.2-3.1,5.3-3.5c2.4,0.2,4.6,0.8,6.5,2.2c-0.5,1.3-2,2.1-3.3,2.6
		C132.8-47.6,129.5-48.3,127.2-49.7z"/>
	<path fill="#01D4B4" d="M271.6-57.1c0.2-1.2-0.5-2.8,0.5-3.5c2-0.1,3.4,1.8,4.4,3.3c1,2.3,1.6,5.2,0.5,7.7
		C273.5-50.4,272.2-54.1,271.6-57.1z"/>
	<path fill="#01D4B4" d="M134.4-54.6c-0.5-1.4,1.1-2,2-2.7c3.4-1.7,7.1,0,9.9,2c-0.8,1.1-2.4,2-3.9,2.4
		C139.3-52.6,136.8-53.5,134.4-54.6z"/>
	<path fill="#01D4B4" d="M264.7-58.6c-0.8-1.9-1.5-3.8-1.3-6.1c0.8-0.8,1.8-0.2,2.6,0.2c3.5,2,3.8,5.8,4,9.5
		c-0.7,1.4-2.1-0.3-3.1-0.5L264.7-58.6z"/>
	<path fill="#01D4B4" d="M142.2-59.7c-0.5-0.9,0.6-1.7,1.3-2.2c3.4-1.6,7.4-0.4,10.2,1.8l0.4,0.5C151-56.2,145.5-57.8,142.2-59.7z"
		/>
	<path fill="#01D4B4" d="M255.9-64.2c-0.5-1.4-1.4-4,0-4.7c2,0.4,4,1.7,5.1,3.6c0.8,1.9,1.4,4.2,0.9,6.5
		C259-59.1,257-61.7,255.9-64.2z"/>
	<path fill="#01D4B4" d="M150-64.2c-0.2-1.4,1.5-1.7,2.3-2.2c3.4-1.1,7.1,0.8,9.5,3.3c-0.8,1.2-2.4,1.5-3.8,1.8
		C154.9-61.3,152.3-62.5,150-64.2z"/>
	<path fill="#01D4B4" d="M247-69.3c0.1-1-1-2.3,0.4-2.7c2,0,3.5,1.1,4.9,2.5c1.4,2.1,2.6,4.8,1.8,7.3
		C250.4-62.5,248.1-66.3,247-69.3z"/>
	<path fill="#01D4B4" d="M158.2-67.9c-0.2-1.3,1.3-1.7,2.2-2c3.8-1,6.9,1.3,9.5,3.6c-0.2,0.9-1.7,1.1-2.6,1.6
		C163.6-64.1,160.9-66,158.2-67.9z"/>
	<path fill="#01D4B4" d="M239.7-69.5l-1.6-4.6c2-1.6,3.8,0.5,5.5,1.5c1.8,1.8,2.4,4.2,2.9,6.7c-0.9,1.3-2.5,0-3.6-0.3L239.7-69.5z"
		/>
	<path fill="#01D4B4" d="M166.5-71.1c0.1-1.5,1.7-1.4,2.6-1.8c3.9-0.5,7.2,1.7,8.9,4.9C174-65.8,169.3-68,166.5-71.1z"/>
	<path fill="#01D4B4" d="M229.9-73.9c-0.2-1.1-1.4-2.1,0.2-2.7c2.8,0,5.6,1.7,6.8,4.3c0.5,1.5,1.6,3.1,0.9,4.6
		C234.1-67.6,231.4-70.9,229.9-73.9z"/>
	<path fill="#01D4B4" d="M175.5-73.5c-0.2-1.4,1.3-1.4,2-1.8c3.9-0.5,7.1,1.7,9.1,4.9c-0.1,1-1.5,1.1-2.5,1.3
		C180.6-69.2,177.8-70.8,175.5-73.5z"/>
	<path fill="#01D4B4" d="M220.8-75.2c-0.4-1-1.4-2.8,0.5-2.9c1.9,0.2,3.7,0.7,5.1,2.1c1.4,1.9,2.9,3.8,2.9,6.2
		C225.6-69.2,222.5-72.1,220.8-75.2z"/>
	<path fill="#01D4B4" d="M184.6-75.5c-0.4-0.8,0.5-1.4,1.1-1.4c2.4-0.6,4.8,0.2,6.6,1.4c1.2,1.4,3,2.5,3.1,4.4
		C191.1-69.4,187.1-72.3,184.6-75.5z"/>
	<path fill="#01D4B4" d="M212-76.1c-0.2-0.7-0.9-1.1-0.7-2c2-1.2,4.5-0.3,6.1,0.9c1.7,1.8,3.4,3.9,3.5,6.1c-2.2,0.2-4.5-0.1-6.2-1.8
		L212-76.1z"/>
	<path fill="#01D4B4" d="M193.5-77c-0.2-0.8,0.8-1.1,1.2-1.3c4.4-0.9,7.1,2.6,9.1,5.7c0.2,0.2,0.3,0.5,0.2,0.9
		c-2.6,0.8-5.3,0.1-7.3-1.5C195.4-74.2,194.2-75.5,193.5-77z"/>
	<path fill="#01D4B4" d="M202.4-77.4c-0.4-1,0.8-1.4,1.4-1.4c2.1,0.1,4.2,0.2,5.7,2c1.1,1.7,3,3.3,2.9,5.3
		C207.9-70.7,204.4-73.9,202.4-77.4z"/>
</g>
<g>
	<path fill="#01D4B4" d="M112.1,80.8l-2.4,6.6h-7l5.7,4.1l-2.6,6.9l6.3-4.3l6.3,4.3l-2.5-6.9l5.6-4.1h-6.9L112.1,80.8z"/>
	<path fill="#01D4B4" d="M303.9,82.2l-2.4,6.6h-7l5.7,4.1l-2.6,6.9l6.3-4.3l6.3,4.3l-2.5-6.9l5.6-4.1h-6.9L303.9,82.2z"/>
</g>
<g>
	<path fill="#01D4B4" d="M100.7,61.3L107,58l0.5,5.3L100.7,61.3z M108.4,57.3l2.8-1.5c0.8-0.4,1.4-0.2,1.5,0.2l0.2,1.4l1-0.1
		c-0.2-1.7-0.4-3-0.5-4s-0.2-2.3-0.3-4l-1,0.1V50c0,0.8-0.4,1.2-1,1.5l-15,8.2l0.2,1.8l4.1,1.1l11.8,3.6c0.8,0.2,1.6,0.6,1.7,1.3
		l0.2,0.8l1-0.1c-0.1-1.2-0.3-2.2-0.4-2.9c-0.1-0.8-0.1-1.7-0.2-2.9l-1,0.1v1.3c0,0.5-0.4,1-1.4,0.8l-3-0.8L108.4,57.3z"/>
	<path fill="#01D4B4" d="M112.2,26.5c1.1,0.1,1.8,0.2,2.1,0.1c0.2-0.1,0.4-0.3,0.5-1l0.2-0.9l1,0.1c-0.2,1.1-0.4,2.5-0.6,4
		c-0.2,1.5-0.4,3-0.5,4l-1-0.1l0.1-1c0-0.7,0-1-0.2-1.1c-0.3-0.2-1-0.3-2.1-0.5l-10.6-1.4v0.1l10.2,6.8c1,0.7,2.2,1.5,3.2,2
		l-0.1,0.9c-0.8,0.2-1.5,0.4-2.3,0.6l-13,4.1v0.1l10.7,1.5c1.1,0.1,1.8,0.2,2.1,0.1c0.3-0.1,0.4-0.3,0.6-1l0.2-0.9l1,0.1
		c-0.2,1-0.3,2-0.5,2.9c-0.1,1-0.2,2-0.3,3l-1-0.1l0.1-1c0-0.7-0.1-1-0.3-1.1c-0.3-0.2-1-0.3-2.1-0.5L99,44.8
		c-1.1-0.1-1.8-0.2-2.1-0.1c-0.3,0.1-0.4,0.3-0.6,1l-0.2,0.9l-1-0.1c0.2-1,0.4-2.1,0.5-3.1s0.2-2.1,0.3-3.1c1.1-0.3,3.2-1,4.4-1.4
		l9.1-2.9l-9.1-6.1c-0.9-0.6-1.9-1.2-2.7-1.7c0.2-1.3,0.4-2.2,0.5-3s0.2-1.7,0.3-3l1,0.1l-0.1,1c0,0.7,0.1,1,0.3,1.1
		c0.3,0.2,1,0.3,2.1,0.5L112.2,26.5z"/>
	<path fill="#01D4B4" d="M109.5,15.2c0.3-0.5,0.5-1.1,0.6-1.6l0.6-1.6c0.3-0.9,0.4-1.4,0-1.6l-1.3-0.7l0.4-1c0.9,0.3,1.7,0.7,2.6,1
		s1.8,0.6,2.7,0.9l-0.4,1l-1.3-0.3c-0.7-0.2-1.1,0.2-1.4,1.1l-0.6,1.6c-0.2,0.5-0.4,1.1-0.5,1.7l6.5,2.4c0.4-1,0.8-2.1,1.2-3.1
		c0.4-1.1,0.8-3,0.7-3.1l-2.1-1.4l0.3-1l3.8,1.7l0.2,0.2c-0.5,1.6-1.5,4.5-2.1,6c-0.4,1-0.8,2-1.2,3s-0.7,2-1,3l-0.6-0.2l-0.2-0.9
		c-0.1-0.5-0.5-0.7-1.2-1l-11-4c-1-0.4-1.7-0.6-2-0.5c-0.3,0-0.5,0.2-0.8,0.9l-0.4,0.6l-0.9-0.3c0.3-0.8,0.6-1.5,0.8-2.1
		c0.2-0.6,0.5-1.2,0.6-1.7c0.8-2.3,1.4-4,1.9-5.4s0.9-2.5,1.4-3.5l0.2-0.1l3.3,1.6L108,7.7l-1.9-0.5c-0.4-0.1-1.1,1.5-1.5,2.6
		s-0.7,2.1-1.1,3.2L109.5,15.2z"/>
	<path fill="#01D4B4" d="M110.8,0.9c-0.9-0.5-1.6-0.9-1.9-0.9c-0.3,0-0.5,0.1-0.9,0.7l-0.6,0.8L106.6,1c0.9-1.5,1.6-2.6,2.3-3.7
		c0.9-1.5,1.7-3.1,2.6-4.6c1.3-2.3,3.2-4,5.9-2.5c2,1.2,2.4,3.4,2,5.7l8.5-0.5c0.3,0,0.7-0.1,1.1-0.2c0.3-0.1,0.5-0.4,0.8-0.7
		l0.9,0.5c-0.4,0.7-0.9,1.4-1.3,2.1c-0.4,0.7-0.7,1.4-1.1,2.1l-10.7,0.5l-0.4-0.5c1.4-2,1-4.2-1.1-5.5c-1.8-1.1-3.6-0.4-4.6,1.4
		c-0.3,0.5-0.6,1.1-0.6,1.6l11,6.4c0.9,0.5,1.6,0.9,1.9,0.9c0.2,0,0.5-0.2,0.8-0.7l0.6-0.8l0.9,0.5c-0.6,0.9-1.3,2.1-2.1,3.5
		c-0.8,1.4-1.5,2.6-2,3.5l-0.9-0.5l0.4-0.9c0.3-0.6,0.3-0.9,0.2-1.1c-0.2-0.3-0.8-0.7-1.7-1.2L110.8,0.9z"/>
	<path fill="#01D4B4" d="M132.2-12.4c0.9,0.7,1.4,1.1,1.8,1.2c0.2,0,0.5-0.1,1-0.6l0.7-0.7l0.8,0.6c-0.7,0.8-1.6,1.9-2.6,3.1
		s-1.8,2.4-2.5,3.2l-0.8-0.6l0.5-0.8c0.4-0.6,0.5-0.9,0.4-1.1c-0.1-0.3-0.7-0.8-1.5-1.5l-8.3-6.6c-0.9-0.7-1.4-1.1-1.8-1.2
		c-0.2,0-0.5,0.1-0.9,0.6l-0.7,0.7l-0.8-0.6c0.7-0.8,1.6-1.9,2.6-3.1c1-1.2,1.8-2.4,2.5-3.2l0.8,0.6l-0.5,0.8
		c-0.4,0.6-0.5,0.9-0.4,1.1c0.1,0.3,0.7,0.8,1.5,1.5L132.2-12.4z"/>
	<path fill="#01D4B4" d="M148.4-25.1c-0.6,2-1.9,3.7-3.4,5.1c-4.3,4.1-9.8,4.6-14.1,0.1c-4.1-4.4-2.6-9.9,1.5-13.7
		c1.6-1.5,3-2.5,5.5-3.5l0.3,0.1c0.4,0.9,1.6,2.4,2.3,3.3l-0.7,0.7l-1.6-1.5c-1.8-0.1-3.4,0.7-4.6,1.9c-3.2,3-2.7,6.8,0.1,9.8
		c3.3,3.5,7.6,4.1,11.2,0.7c1.1-1,2.3-2.9,2.7-4.4h0.4L148.4-25.1z"/>
	<path fill="#01D4B4" d="M149.8-40.9l5.8,4.2l-4.5,2.8L149.8-40.9z M156.8-35.8l2.6,1.9c0.7,0.5,0.8,1.2,0.4,1.4l-1.1,0.8l0.5,0.8
		c1.4-0.9,2.5-1.7,3.4-2.2s2-1.2,3.5-2.1l-0.5-0.8l-0.6,0.3c-0.7,0.3-1.2,0.2-1.8-0.2l-14-9.8l-1.6,1l0.8,4.1l2,12.2
		c0.1,0.8,0.1,1.7-0.4,2.1l-0.6,0.5l0.5,0.8c1-0.7,1.8-1.2,2.5-1.6c0.6-0.4,1.5-0.8,2.5-1.5l-0.5-0.8l-1.1,0.6
		c-0.4,0.2-1.1,0.1-1.3-0.9l-0.6-3.1L156.8-35.8z"/>
	<path fill="#01D4B4" d="M163.8-49.5c-0.4-1-0.6-1.7-0.9-1.9c-0.2-0.2-0.5-0.2-1.2-0.1l-0.9,0.2l-0.3-0.9c1-0.3,2-0.6,3-1
		c0.7-0.2,1.4-0.5,2-0.8c1.2,0.8,2.4,1.6,3.7,2.4l10.8,6.2l-3.1-8.8c-0.4-1-0.6-1.7-0.9-1.9c-0.2-0.2-0.5-0.2-1.2-0.1l-0.9,0.2
		l-0.3-0.8c0.9-0.3,1.9-0.6,2.8-0.9c0.9-0.3,1.8-0.7,2.8-1.1l0.3,0.9l-0.9,0.4c-0.6,0.3-0.8,0.5-0.9,0.8c0,0.3,0.2,1,0.5,2l4,11.1
		c0.3,0.9,0.7,1.7,1,2.5l-0.1,0.2l-2.1,0.4c-1.4-0.8-2.8-1.6-4.2-2.3l-11.4-6.7l0,0l3.4,9.6c0.4,1,0.6,1.7,0.9,1.9
		c0.2,0.2,0.5,0.2,1.2,0.1l0.9-0.2l0.3,0.9c-0.9,0.3-1.9,0.6-2.8,0.9c-0.9,0.3-1.9,0.7-2.8,1.1l-0.3-0.9l0.9-0.4
		c0.6-0.3,0.8-0.5,0.9-0.8c0-0.3-0.2-1-0.5-2L163.8-49.5z"/>
	<path fill="#01D4B4" d="M193.6-57.7c-0.1-1.1-0.1-1.8-0.3-2.1c-0.1-0.2-0.4-0.3-1.1-0.3h-1l-0.1-1c1.1,0,2.5-0.1,4.1-0.2
		c1.5-0.1,3-0.2,4-0.3l0.1,1l-1,0.1c-0.7,0.1-1,0.2-1,0.4c-0.1,0.3-0.1,1,0,2.1l0.3,4.8c0,0.1,0.1,0.1,0.2,0.1l4.6-5.1
		c0.6-0.7,1.3-1.6,1.9-2.3c0.3-0.3,0.4-0.7,0.4-1v-0.7c0.8,0,1.6,0,2.4-0.1c0.8,0,1.6-0.2,2.4-0.2l0.1,1c-1.1,0.2-2.1,0.3-2.8,1.1
		l-5.4,5.7l7.4,7.7c0.6,0.6,1.3,1.2,2.4,1.2l0.1,1.1c-0.9,0-1.7,0-2.6,0.1c-0.9,0.1-1.8,0.2-2.6,0.2l-5.8-6.1
		c-0.6-0.7-1.6-1.7-2.1-1.9c-0.2,0-0.3,0.1-0.3,0.3l0.3,4.7c0.1,1.1,0.1,1.8,0.3,2.1c0.1,0.2,0.4,0.3,1.1,0.3h1l0.1,1
		c-1.1,0-2.5,0.1-4,0.2c-1.6,0.1-3,0.2-4.1,0.3l-0.1-1l1-0.1c0.7-0.1,1-0.2,1-0.4c0.1-0.3,0.1-1,0.1-2.1L193.6-57.7z"/>
	<path fill="#01D4B4" d="M218.6-53.5c0.6,0.1,1.2,0.2,1.7,0.3L222-53c0.9,0.1,1.4,0.1,1.5-0.4l0.3-1.5l1,0.1
		c-0.1,0.9-0.3,1.8-0.4,2.8c-0.1,0.9-0.2,1.9-0.3,2.8l-1-0.1v-1.3c0-0.7-0.5-1-1.4-1.1l-1.7-0.2c-0.6-0.1-1.1-0.1-1.7-0.1l-0.8,6.9
		c1.1,0.2,2.2,0.3,3.3,0.5c1.2,0.1,3.1,0.1,3.2-0.1l0.9-2.4l1,0.1l-0.8,4.1l-0.2,0.2c-1.7-0.1-4.7-0.4-6.4-0.7
		c-1.1-0.2-2.1-0.3-3.2-0.5c-1.1-0.1-2.2-0.2-3.1-0.3l0.1-0.6l0.9-0.4c0.4-0.2,0.6-0.6,0.7-1.4l1.4-11.6c0.1-1.1,0.2-1.8,0.1-2.1
		c-0.1-0.3-0.3-0.4-1-0.6l-0.9-0.2l0.1-1c0.9,0.1,1.6,0.2,2.3,0.3c0.7,0.1,1.3,0.2,1.8,0.2c2.4,0.3,4.2,0.4,5.7,0.6
		c1.5,0.1,2.6,0.3,3.8,0.5l0.1,0.2l-0.8,3.6l-0.9-0.1v-2c0-0.4-1.7-0.7-2.9-0.8c-1.1-0.1-2.2-0.2-3.3-0.3L218.6-53.5z"/>
	<path fill="#01D4B4" d="M233-55.6c0.3-1,0.5-1.7,0.5-2.1c0-0.3-0.3-0.5-0.9-0.7l-0.9-0.4l0.3-0.9c1,0.3,2,0.7,2.9,1
		c0.7,0.2,1.4,0.4,2.1,0.6c0.5,1.4,0.9,2.8,1.5,4.1l4.8,11.5l2.9-8.9c0.3-1,0.5-1.7,0.5-2.1c0-0.3-0.3-0.5-0.9-0.7l-0.9-0.4l0.3-0.9
		c0.9,0.3,1.9,0.7,2.8,1c0.9,0.3,1.9,0.6,2.9,0.8l-0.3,0.9l-0.9-0.2c-0.7-0.2-0.9-0.1-1.2,0.1c-0.2,0.3-0.5,0.9-0.8,2L244-39.6
		c-0.3,0.9-0.5,1.8-0.7,2.5h-0.2l-1.9-1c-0.6-1.5-1.3-3-1.9-4.4l-4.9-12.2l0,0l-3.1,9.7c-0.3,1-0.5,1.7-0.5,2.1
		c0,0.3,0.3,0.5,0.9,0.7l0.9,0.4l-0.3,0.9c-0.9-0.3-1.9-0.7-2.8-1c-0.9-0.3-1.9-0.6-2.9-0.8l0.3-0.9l0.9,0.2
		c0.7,0.2,0.9,0.1,1.2-0.1c0.2-0.2,0.5-0.9,0.8-2L233-55.6z"/>
	<path fill="#01D4B4" d="M255.3-47.4c0.6-0.9,0.9-1.6,0.9-1.9s-0.1-0.5-0.7-0.9l-0.8-0.6l0.5-0.8c0.9,0.6,1.8,1.1,2.7,1.7
		c0.6,0.4,1.3,0.7,1.9,1c0.2,1.4,0.3,2.9,0.6,4.3l2.2,12.3l4.7-8.1c0.6-0.9,0.9-1.6,0.9-1.9c0-0.3-0.1-0.5-0.7-0.9l-0.8-0.6l0.5-0.8
		c0.8,0.5,1.7,1.1,2.5,1.6c0.9,0.5,1.7,1,2.6,1.4l-0.5,0.8l-0.9-0.4c-0.6-0.3-0.9-0.3-1.1-0.2c-0.3,0.2-0.7,0.8-1.2,1.7l-6,10.2
		c-0.5,0.8-0.9,1.6-1.3,2.3h-0.2l-1.7-1.4c-0.3-1.6-0.6-3.2-0.9-4.7l-2.1-13l0,0l-5.2,8.8c-0.6,0.9-0.9,1.6-0.9,1.9
		c0,0.3,0.1,0.5,0.7,0.9l0.8,0.6l-0.5,0.8c-0.8-0.5-1.7-1.1-2.5-1.6c-0.9-0.5-1.8-1-2.6-1.5l0.5-0.8l0.9,0.4
		c0.6,0.3,0.9,0.3,1.1,0.2c0.3-0.2,0.7-0.8,1.2-1.7L255.3-47.4z"/>
	<path fill="#01D4B4" d="M274.9-29c0.4,0.4,0.8,0.8,1.3,1.2l1.3,1.1c0.7,0.6,1.1,0.9,1.5,0.6l1.1-1l0.8,0.7c-0.6,0.7-1.3,1.3-1.9,2
		c-0.6,0.7-1.2,1.4-1.8,2.2l-0.8-0.7l0.7-1.1c0.4-0.6,0.2-1.1-0.5-1.7l-1.3-1.1c-0.4-0.4-0.9-0.7-1.4-1.1l-4.6,5.2
		c0.8,0.8,1.6,1.5,2.5,2.3c0.9,0.8,2.5,1.9,2.7,1.8l2.1-1.4l0.8,0.7l-2.9,2.9l-0.2,0.1c-1.4-1-3.6-3-4.9-4.2
		c-0.8-0.7-1.6-1.5-2.4-2.2c-0.8-0.7-1.7-1.4-2.4-2l0.4-0.4l0.9,0.2c0.5,0.1,0.8-0.2,1.4-0.8l7.7-8.8c0.7-0.8,1.2-1.4,1.3-1.7
		s0-0.6-0.5-1l-0.7-0.7l0.6-0.7c0.6,0.6,1.2,1.1,1.7,1.6c0.5,0.4,0.9,0.9,1.3,1.2c1.8,1.6,3.2,2.7,4.3,3.7c1.1,0.9,2,1.7,2.8,2.6
		v0.2l-2.7,2.5l-0.7-0.6l1.1-1.6c0.2-0.3-1-1.6-1.9-2.3c-0.8-0.7-1.7-1.5-2.6-2.1L274.9-29z"/>
	<path fill="#01D4B4" d="M280.2-11.8c0.7,0.9,1.3,1.8,2.1,2.6c0.8,0.9,2.2,2.3,2.4,2.2l2.4-1.2l0.6,0.8l-3.5,2.5H284
		c-1.2-1.2-3.1-3.6-4.1-4.9c-0.7-0.8-1.3-1.7-2-2.5s-1.4-1.6-2-2.4l0.5-0.4l0.9,0.3c0.4,0.2,0.9,0,1.5-0.5l9-7.4
		c0.8-0.7,1.4-1.2,1.5-1.5c0.1-0.2,0-0.5-0.4-1.1l-0.6-0.8l0.8-0.7c0.7,0.8,1.5,2,2.5,3.2s1.9,2.3,2.6,3.1l-0.8,0.7l-0.7-0.7
		c-0.5-0.5-0.7-0.6-1-0.6c-0.3,0.1-0.9,0.5-1.7,1.2L280.2-11.8z"/>
	<path fill="#01D4B4" d="M296.1,15.5c-1.8-1.1-3-2.9-3.9-4.8c-2.6-5.3-1.5-10.7,4.1-13.4c5.4-2.6,10.2,0.5,12.6,5.4
		c0.9,1.9,1.5,3.6,1.7,6.3l-0.2,0.3c-1,0.2-2.8,0.8-3.8,1.2l-0.4-0.9l2-1.1c0.6-1.7,0.3-3.4-0.4-5c-1.9-3.9-5.7-4.6-9.4-2.8
		c-4.3,2.1-6.2,6.1-4,10.5c0.7,1.4,2.1,3,3.4,3.9l-0.1,0.4H296.1z"/>
	<path fill="#01D4B4" d="M298.8,22.6c0.2,1.1,0.5,2.2,0.8,3.2c0.3,1.2,1.1,2.9,1.3,2.9l2.7-0.1l0.3,1l-4.2,0.9l-0.2-0.1
		c-0.6-1.6-1.4-4.5-1.8-6.1c-0.3-1-0.5-2.1-0.8-3.1c-0.3-1.1-0.6-2.1-0.9-3l0.6-0.2l0.7,0.7c0.3,0.3,0.8,0.3,1.6,0.1l11.2-3.2
		c1.1-0.3,1.7-0.5,2-0.8c0.2-0.2,0.2-0.5,0.1-1.1l-0.2-0.9l1-0.3c0.3,1,0.6,2.4,1,3.9s0.9,2.8,1.2,3.9l-1,0.3l-0.3-0.9
		c-0.2-0.6-0.4-0.9-0.6-0.9c-0.3-0.1-1,0.1-2.1,0.4L298.8,22.6z"/>
	<path fill="#01D4B4" d="M314.1,32.5c1.1-0.1,1.8-0.2,2.1-0.4c0.2-0.2,0.4-0.4,0.3-1.1v-1l1-0.1c0.1,1.1,0.1,2.5,0.3,4.1
		c0.1,1.5,0.3,3,0.4,4l-1,0.1l-0.2-1c-0.1-0.7-0.3-0.9-0.5-1c-0.3-0.1-1-0.1-2.1,0l-6.4,0.6c-3.7,0.3-5.9,0.8-5.5,5.2
		c0.4,4.3,2.8,4.6,6.6,4.3l6.2-0.6c1.1-0.1,1.8-0.2,2.1-0.4c0.2-0.2,0.4-0.4,0.3-1.1v-1l1-0.1c0.1,1,0.1,2,0.2,3
		c0.1,1,0.2,2,0.3,2.9l-1,0.1l-0.2-0.9c-0.1-0.7-0.3-0.9-0.5-1c-0.3-0.1-1-0.1-2.1,0l-7.6,0.7c-4.7,0.4-7.2-1.9-7.6-6.6
		c-0.4-4.9,1.4-7.6,4.4-7.9L314.1,32.5z"/>
	<path fill="#01D4B4" d="M309.9,57.9l-0.1,0.8c-0.3,2.6-1.3,4.2-4.2,3.9c-2.3-0.2-3.8-1.3-3.6-4.1c0.1-0.5,0.1-0.9,0.2-1.4
		L309.9,57.9z M317.1,58.7c0,0.6,0,1.1-0.1,1.6c-0.2,1.9-1,2.9-3.1,2.7c-2.5-0.2-3.1-1.8-2.8-4.1l0.1-0.8L317.1,58.7z M318.1,52.8
		l-0.2,1c-0.1,0.7-0.3,0.9-0.5,1c-0.3,0.1-1,0.1-2.1,0l-11.6-1.1c-0.8-0.1-1.2-0.2-1.4-0.7l-0.4-0.9l-0.6-0.1c-0.1,1-0.1,2-0.2,3.1
		c-0.1,1.2-0.3,2.5-0.4,3.6c-0.5,4.2,1.7,7.4,4.8,7.7c3,0.3,4.4-1.5,4.8-4.8h0.1c0.6,2.5,1.2,4.8,3.9,5c2.9,0.3,3.8-2.2,4-4.6
		c0.2-2,0.3-3.5,0.4-5.3c0.1-1,0.3-2.3,0.5-4L318.1,52.8z"/>
</g>
<g>
	<path fill="#01D4B4" d="M137.7,121.6l6.7,5.9l-1,1.2L138,124l-2.6,2.9l4.8,4.2l-1,1.2l-4.8-4.2l-3.9,4.4l-1.3-1.2L137.7,121.6z"/>
	<path fill="#01D4B4" d="M155.3,137.2c0.1,1.4-0.4,2.9-1.3,4.4c-1.1,1.6-2.3,2.7-3.9,3.2c-1.8,0.6-3.6,0.4-5.3-0.8
		c-1.7-1.1-2.6-2.5-2.8-4.2c-0.2-1.6,0.3-3.2,1.4-4.8c1-1.5,2.1-2.5,3.5-3c1.8-0.7,3.6-0.5,5.4,0.7
		C154.2,133.8,155.2,135.4,155.3,137.2z M149.5,143.2c1.2-0.5,2.2-1.4,3-2.6c0.8-1.3,1.2-2.5,1-3.7s-0.8-2.2-2-2.9
		c-1.1-0.7-2.3-0.9-3.5-0.6c-1.2,0.3-2.3,1.2-3.3,2.7c-0.8,1.2-1.1,2.4-1.1,3.6c0.1,1.2,0.8,2.3,2.1,3.2
		C147.1,143.6,148.3,143.8,149.5,143.2z"/>
	<path fill="#01D4B4" d="M162.5,139l-3.4,7.2c-0.4,0.8-0.6,1.6-0.5,2.3c0.1,1.1,0.7,1.9,1.8,2.4c1.4,0.6,2.5,0.6,3.4-0.1
		c0.5-0.4,0.9-1,1.3-1.8l3.4-7.2l1.6,0.7l-3.1,6.6c-0.7,1.4-1.4,2.5-2.1,3c-1.4,1.1-3.1,1.2-5,0.2c-2-0.9-3-2.3-3-4
		c0-1,0.3-2.2,1-3.6l3.1-6.6L162.5,139z"/>
	<path fill="#01D4B4" d="M174.3,144.1l2,0.6l3.1,11.9l3.1-10l1.6,0.5l-3.8,12.3l-1.9-0.6l-3.2-11.9l-3.1,10l-1.6-0.5L174.3,144.1z"
		/>
	<path fill="#01D4B4" d="M188.6,148.2l5.1,0.8c1.7,0.3,3,1.1,3.7,2.5c0.7,1.3,0.9,2.8,0.6,4.5c-0.2,1.4-0.6,2.5-1.3,3.6
		c-1.2,1.8-2.9,2.5-5,2.2l-5.1-0.8L188.6,148.2z M191.6,160.2c0.6,0.1,1.1,0.1,1.4,0c0.7-0.1,1.3-0.5,1.8-1.1c0.4-0.5,0.8-1.1,1-1.9
		c0.2-0.5,0.3-0.9,0.3-1.3c0.2-1.6,0.1-2.9-0.4-3.8c-0.5-1-1.4-1.6-2.8-1.8l-3-0.5l-1.5,9.8L191.6,160.2z"/>
	<path fill="#01D4B4" d="M203,150l9.4-0.1v1.6l-7.7,0.1l0.1,3.9l7.1-0.1v1.5l-7.1,0.1l0.1,4.4l7.8-0.1v1.5l-9.5,0.1L203,150z"/>
	<path fill="#01D4B4" d="M216.9,149.6l5.1-0.7c1.7-0.2,3.2,0.2,4.3,1.3c1,1,1.6,2.4,1.9,4.1c0.2,1.4,0.1,2.6-0.2,3.8
		c-0.6,2.1-2,3.2-4.2,3.5l-5.1,0.7L216.9,149.6z M223.3,160.3c0.6-0.1,1-0.2,1.4-0.4c0.6-0.3,1.1-0.8,1.4-1.5
		c0.3-0.6,0.4-1.3,0.4-2.1c0-0.5,0-0.9-0.1-1.4c-0.2-1.6-0.7-2.8-1.4-3.6s-1.8-1.1-3.2-0.9l-3,0.4l1.4,9.8L223.3,160.3z"/>
	<path fill="#01D4B4" d="M240.7,148.8l-0.4-1.1c1-0.5,1.7-0.9,2.1-1.3s0.5-1.1,0.3-2.1l1.2-0.4l4.2,11.8l-1.6,0.6l-3-8.4
		L240.7,148.8z"/>
	<path fill="#01D4B4" d="M253,145.7c-0.6-0.2-1.1-0.7-1.4-1.3c-0.4-0.8-0.5-1.7-0.2-2.6c0.3-0.9,1-1.6,2.1-2.2
		c1.1-0.5,2.1-0.7,3-0.4c0.9,0.3,1.5,0.8,1.9,1.5c0.3,0.7,0.4,1.4,0.3,2c-0.1,0.3-0.3,0.7-0.6,1.2c0.6,0,1.1,0,1.5,0.2
		c0.8,0.3,1.3,0.8,1.8,1.7c0.5,1,0.6,2,0.2,3c-0.3,1-1.1,1.8-2.3,2.4c-1.1,0.5-2.2,0.7-3.2,0.5c-1.1-0.2-1.9-0.9-2.4-2
		c-0.3-0.7-0.4-1.3-0.4-2s0.4-1.3,0.9-1.8C253.8,145.9,253.4,145.8,253,145.7z M257.1,143.1c0.2-0.5,0.1-1-0.1-1.5
		c-0.2-0.4-0.6-0.7-1.1-0.9s-1.1-0.1-1.8,0.2s-1.1,0.8-1.2,1.3s-0.1,1,0.2,1.5s0.7,0.9,1.2,1s1.1,0,1.6-0.2
		C256.5,144.1,256.9,143.6,257.1,143.1z M260.1,148.6c0.3-0.6,0.2-1.2-0.1-1.9c-0.4-0.7-0.9-1.2-1.5-1.3c-0.6-0.2-1.3-0.1-2,0.3
		c-0.7,0.3-1.1,0.8-1.4,1.4c-0.2,0.6-0.2,1.2,0.1,1.9c0.3,0.6,0.7,1,1.3,1.2c0.6,0.2,1.3,0.2,2.1-0.3
		C259.4,149.6,259.9,149.1,260.1,148.6z"/>
	<path fill="#01D4B4" d="M264.3,139.8c-0.6-0.1-1.2-0.5-1.6-1.1c-0.5-0.8-0.7-1.6-0.5-2.6c0.2-0.9,0.8-1.7,1.9-2.4
		c1-0.7,2-0.9,2.9-0.8c0.9,0.2,1.6,0.6,2.1,1.3c0.4,0.7,0.6,1.3,0.6,1.9c0,0.4-0.2,0.8-0.4,1.2c0.6-0.1,1.1-0.1,1.5,0
		c0.8,0.2,1.4,0.7,2,1.4c0.6,0.9,0.8,1.9,0.6,3c-0.2,1.1-0.9,2-2,2.7c-1,0.7-2.1,1-3.1,0.9c-1.1-0.1-2-0.7-2.7-1.7
		c-0.4-0.6-0.6-1.3-0.6-1.9c0-0.7,0.2-1.3,0.7-1.9C265,139.9,264.6,139.9,264.3,139.8z M268,136.7c0.1-0.5,0-1-0.3-1.5
		c-0.3-0.4-0.7-0.6-1.2-0.8c-0.5-0.1-1.1,0-1.8,0.4c-0.6,0.4-1,0.9-1.1,1.4c-0.1,0.5,0,1,0.3,1.4c0.3,0.5,0.8,0.8,1.3,0.8
		c0.6,0,1.1-0.1,1.6-0.4C267.5,137.7,267.9,137.2,268,136.7z M271.7,141.7c0.2-0.6,0.1-1.2-0.4-1.9c-0.4-0.7-1-1.1-1.6-1.1
		c-0.6-0.1-1.3,0.1-1.9,0.5c-0.6,0.4-1,0.9-1.2,1.6c-0.2,0.6,0,1.3,0.4,1.9c0.4,0.5,0.9,0.9,1.5,1.1c0.6,0.2,1.3,0,2.1-0.5
		C271.1,142.8,271.5,142.3,271.7,141.7z"/>
	<path fill="#01D4B4" d="M282.6,135.3l-2-2.3l-4.2,3.6l-1-1.2l-0.9-9.8l1-0.9l5.3,6.2l1.4-1.2l0.9,1l-1.4,1.2l2,2.3L282.6,135.3z
		 M279.7,132l-3.7-4.3l0.7,7L279.7,132z"/>
</g>
<g>
	<path fill="#01D4B4" d="M208.1-24.7c-42.5,0-77,34.5-77,77s34.5,77,77,77s77-34.5,77-77C285.1,9.9,250.6-24.7,208.1-24.7z
		 M177.2,85.2L174.7,69h-11.1L161,85.2h-11l12-70.4h14.6l11.8,70.4H177.2z M218.2,85.2L207,56.6l-3.2,6.3v22.3h-10.6V14.7h10.6v25.1
		l13-25.1h11.3l-14.5,28.7l17,41.7h-12.4V85.2z M252.5,26.3c-1.2-1.2-2.6-1.8-4.3-1.8s-3.1,0.6-4.3,1.8c-1.2,1.2-1.8,2.6-1.8,4.3
		v38.6c0,1.7,0.6,3.1,1.8,4.3s2.6,1.8,4.3,1.8s3.1-0.6,4.3-1.8s1.8-2.6,1.8-4.3v-9.7h11v9.8c0,4.7-1.6,8.7-4.9,11.9
		c-3.3,3.3-7.2,4.9-11.9,4.9s-8.7-1.6-11.9-4.9c-3.3-3.3-4.9-7.2-4.9-11.9V30.9c0-4.7,1.6-8.7,4.9-11.9c3.3-3.3,7.3-4.9,11.9-4.9
		c4.7,0,8.7,1.6,11.9,4.9c3.3,3.3,4.9,7.3,4.9,11.9v8h-11v-8.3C254.3,29,253.7,27.5,252.5,26.3z"/>
	<polygon fill="#01D4B4" points="165.2,58.7 173.1,58.7 169.2,30.9 	"/>
	<path fill="#01D4B4" d="M208.1-31.7c-46.4,0-84,37.6-84,84s37.6,84,84,84s84-37.6,84-84S254.5-31.7,208.1-31.7z M208.1,131.3
		c-43.6,0-79-35.4-79-79s35.4-79,79-79s79,35.4,79,79S251.7,131.3,208.1,131.3z"/>
</g>
</svg>
