<?xml version="1.0" encoding="utf-8"?>
<!-- Generator: Adobe Illustrator 19.0.1, SVG Export Plug-In . SVG Version: 6.00 Build 0)  -->
<svg version="1.1" id="Layer_1" xmlns="http://www.w3.org/2000/svg" xmlns:xlink="http://www.w3.org/1999/xlink" x="0px" y="0px"
	 width="84.2px" height="21.5px" viewBox="0 0 84.2 21.5" enable-background="new 0 0 84.2 21.5" xml:space="preserve">
<g>
	<path fill-rule="evenodd" clip-rule="evenodd" fill="#474647" d="M11.5,21.5l3.1-3c-1.1-0.7-1.2-1.8-1.2-3.2l0-5.5
		c0-1.2,0-1.8-0.2-2.5c-0.6-1.9-2.7-2.9-5.8-2.9c-2.6,0-5.2,1.1-7.2,2.3L2.1,10c1.4-1,2.8-1.7,4.6-1.7C7.9,8.3,8,8.9,8,9.8v1
		c-0.1,0-0.7,0-0.9,0C2.6,10.8,0,12.9,0,16c0,2.9,1.5,5.2,5.5,5.2c1.9,0,3.3-0.7,4-1.3C9.8,20.4,10.8,21.2,11.5,21.5L11.5,21.5
		L11.5,21.5z M8,14.2V17c-0.2,0.2-0.8,0.5-1.3,0.5c-0.9,0-1.5-0.6-1.5-1.6C5.3,15,5.7,14.1,8,14.2L8,14.2L8,14.2z"/>
	<path fill-rule="evenodd" clip-rule="evenodd" fill="#474647" d="M27.4,4.8c-0.7-0.3-1.2-0.4-2-0.4c-1.7,0-2.7,1.1-3.3,2
		c0-0.7-0.2-1.4-0.3-1.9l-5,0.8C17.2,7,17.3,9,17.3,11v9.8h5.4v-11c0.4-0.6,1-1.1,1.9-1.1c0.6,0,1,0.1,1.6,0.4L27.4,4.8L27.4,4.8z"
		/>
	<path fill-rule="evenodd" clip-rule="evenodd" fill="#474647" d="M35.3,0l-5.4,0.8c-0.1,1.1-0.1,2.4-0.1,4h-1.3v3.6h1.3v9.1
		c0,3.1,2,3.9,5,3.9c1.4,0,2.7-0.3,4.1-0.9l-0.7-3.1c-0.3,0.2-0.8,0.3-1.4,0.3c-1.4,0-1.7-0.5-1.7-2.7V8.3h2.2l0.7-3.6h-3
		C35.1,3.3,35.1,1.7,35.3,0L35.3,0L35.3,0z"/>
	<path fill-rule="evenodd" clip-rule="evenodd" fill="#474647" d="M55.2,20.8v-12c0-2.2-0.8-4.4-4.5-4.4c-2.1,0-3.6,0.7-4.6,1.5
		c0-0.5-0.2-1.1-0.3-1.5l-5,0.8c0.4,1.7,0.5,3.5,0.5,5.4v10.2h5.4v-11c0.8-0.7,1.4-1,1.8-1c0.8,0,1.3,0,1.3,1.8v10.3H55.2L55.2,20.8
		z"/>
	<path fill-rule="evenodd" clip-rule="evenodd" fill="#474647" d="M63.4,14.5h9c0-0.3,0-0.7,0-1.3c0-5.5-2.1-8.8-7.3-8.8
		c-4.5,0-7.3,3.2-7.3,8.5c0,5.2,2.8,8.3,7.9,8.3c2.4,0,4.4-0.6,6.6-2.3l-2.1-3.1c-1.4,1.1-2.8,1.6-4.2,1.6
		C63.7,17.4,63.4,15.5,63.4,14.5L63.4,14.5L63.4,14.5z M67,11h-3.6c0-2.1,0.7-2.9,1.9-2.9C66.6,8.1,67,9.2,67,11L67,11L67,11z"/>
	<path fill-rule="evenodd" clip-rule="evenodd" fill="#474647" d="M80.7,0l-5.4,0.8c-0.1,1.1-0.2,2.4-0.2,4h-1.3v3.6h1.3v9.1
		c0,3.1,2,3.9,5.1,3.9c1.3,0,2.7-0.3,4.1-0.9l-0.7-3.1c-0.3,0.2-0.9,0.3-1.4,0.3c-1.4,0-1.7-0.5-1.7-2.7V8.3h2.3l0.7-3.6h-3
		C80.5,3.3,80.5,1.7,80.7,0L80.7,0L80.7,0z"/>
</g>
</svg>
