<?xml version="1.0" encoding="utf-8"?>
<!-- Generator: Adobe Illustrator 19.2.1, SVG Export Plug-In . SVG Version: 6.00 Build 0)  -->
<svg version="1.1" id="Layer_1" xmlns="http://www.w3.org/2000/svg" xmlns:xlink="http://www.w3.org/1999/xlink" x="0px" y="0px"
	 viewBox="0 0 275.8 70.5" style="enable-background:new 0 0 275.8 70.5;" xml:space="preserve">
<g>
	<path d="M24.8,16.3c0.1-3.1-0.2-6.2-1.6-8c-1.4-1.7-4.7-2.4-6.2-2.4c-5.8,0-8.1,3.5-8.3,4.3c-0.2,0.6-1.6,2-1.6,11.4v14.7
		c0,13.5,4.4,15,9.8,15c2.1,0,8.6-0.8,8.7-11.5h7.2c0.3,17.3-11.9,17.3-15.5,17.3C10.5,57.1,0,56.7,0,35.4V19.9C0,4.4,6.8,0,17.6,0
		c10.9,0,15,5.6,14.4,16.3H24.8z"/>
	<path d="M38.8,37.4c0-11.2,1.3-20.5,14.6-20.5S68,26.1,68,37.4c0,16.9-6.5,19.4-14.6,19.4C45.3,56.8,38.8,54.3,38.8,37.4z
		 M61.5,34.7c0-10.5-3.3-12.8-8.1-12.8c-4.8,0-8.1,2.3-8.1,12.8c0,12.5,1.6,16.9,8.1,16.9S61.5,47.2,61.5,34.7z"/>
	<path d="M95.9,17.6h6.2v42.2c0,8.6-5.7,10.6-14.1,10.6c-6.4,0-12.2-3.2-11.6-10.3h7c0.1,3.6,2.4,5.5,5.9,5.5c4.3,0,6.7-2.7,6.7-6.6
		v-8h-0.2c-1.6,3-5.1,4.8-8.4,4.8c-10.4,0-12.5-9-12.5-20.4c0-17.6,8.9-18.8,12-18.8c4,0,7.2,1.7,9,5.5h0.2V17.6z M88.6,22
		c-7.1,0-7.3,8.5-7.3,13.6c0,12.3,2.8,15.2,7.4,15.2c7.5,0,7.3-8.9,7.3-14.2C96.1,30.9,96.4,22,88.6,22z"/>
	<path d="M132.2,56V29.4c0-4.1-1.4-7.4-6.8-7.4c-6.8,0-7.8,6.1-7.8,11.3V56h-6.2V25.6c0-2.7-0.2-5.3-0.4-8h6.6v4.9h0.3
		c2.4-4.3,5.3-5.7,10.3-5.7c8.2,0,10.3,4.9,10.3,12.5V56H132.2z"/>
	<path d="M153.1,56h-6.2V17.6h6.2V56z M146.5,1.1h7v6.7h-7V1.1z"/>
	<path d="M182.5,23.3l-16.9,27.6h17.5V56h-24.2v-5.9l16.7-27.3v-0.2h-15.9v-5.1h22.9V23.3z"/>
	<path d="M208.7,50.5h-0.2c-1.9,4.4-4.9,6.3-9.7,6.3c-8.1,0-10.5-5.2-10.5-12.6c0-11.6,11.4-12.2,20.1-11.9
		c0.2-5.1,0.2-10.6-6.5-10.6c-4.2,0-6.4,2.8-6,6.8h-6.8c0.3-8.6,4.9-11.6,13-11.6c9.9,0,12.5,5.1,12.5,11.6v18.5
		c0,3,0.3,6.2,0.8,9.1h-6.8V50.5z M194.6,44.6c0,3.7,1.8,7.1,6,7.1c3.8,0,8.5-2.4,7.9-14.7C202.6,37,194.6,36.5,194.6,44.6z"/>
	<path d="M245.5,56V29.4c0-4.1-1.4-7.4-6.8-7.4c-6.8,0-7.8,6.1-7.8,11.3V56h-6.2V25.6c0-2.7-0.2-5.3-0.4-8h6.6v4.9h0.3
		c2.4-4.3,5.3-5.7,10.3-5.7c8.2,0,10.3,4.9,10.3,12.5V56H245.5z"/>
	<path d="M261,17.6v-7.4l6.2-2.8v10.2h8.4v4.7h-8.4v23.5c0,2.4,0,5.5,5.7,5.5c0.5,0,1.4-0.2,2.8-0.3v4.8c-2.1,0.2-4.1,0.6-6.2,0.6
		c-5.9,0-8.6-2.4-8.6-6.8V22.3h-6.3v-4.7H261z"/>
</g>
</svg>
