<?xml version="1.0" encoding="utf-8"?>
<!-- Generator: Adobe Illustrator 19.2.1, SVG Export Plug-In . SVG Version: 6.00 Build 0)  -->
<svg version="1.1" id="Layer_1" xmlns="http://www.w3.org/2000/svg" xmlns:xlink="http://www.w3.org/1999/xlink" x="0px" y="0px"
	 viewBox="0 0 187.3 187.3" style="enable-background:new 0 0 187.3 187.3;" xml:space="preserve">
<style type="text/css">
	.st0{fill:none;stroke:#000000;stroke-width:2;stroke-miterlimit:10;}
	.st1{fill:#404040;}
	.st2{display:none;}
	.st3{display:inline;}
</style>
<g>
	<g>
		<circle class="st0" cx="93.6" cy="93.6" r="92.6"/>
	</g>
	<g>
		<path class="st1" d="M100.9,146.7c0,4.4-1.9,9.4-7.2,9.4c-5.3,0-6.9-5-6.9-9.4v-13.3c-13.8-6.3-27.4-14.8-39.9-25.5v37.2
			c0,27,21.3,40.5,46.8,40.5c24.6,0,46.3-13,47.1-39c-12.6-0.3-26.1-2.8-39.8-7.6V146.7z"/>
		<path class="st1" d="M126,114.1h-25.1v0c6,3.2,11.8,4.9,17.1,4.9C123.8,119,126,117.1,126,114.1z"/>
		<path class="st1" d="M68.8,65c-16.4,0-4.6,16,6.6,28.2c3.7,4.1,7.5,7.8,11.4,11.1V70.7c-0.9-0.6-1.9-1.1-2.8-1.5
			C78.7,66.4,73.6,65,68.8,65z"/>
		<path class="st1" d="M86.7,40.6c0-4.4,1.6-9.4,6.9-9.4c5.3,0,7.2,5,7.2,9.4v10.1c8,3.7,15.9,8.3,23.6,13.8h16.3V42.1
			c0-27-22-40.5-47.1-40.5c-23.9,0-44.2,11.9-46.5,35.8c12.2,0.3,25.8,2.7,39.6,7.5V40.6z"/>
		<path class="st1" d="M165,103.6l-44,0.1c3,3.9,5,7.6,5,10.5h14.8v31c0,0.5,0,1,0,1.5c0.8,0,1.6,0,2.3,0c15.3,0,26.9-3,31.7-9.7
			C179.5,130,177.2,119.1,165,103.6z"/>
		<path class="st1" d="M47.1,37.5c-1.1,0-2.3,0-3.4,0C7.3,37.5-0.4,58,31.6,93.1c4.8,5.3,9.9,10.2,15.3,14.8V42.1
			C46.9,40.5,46.9,39,47.1,37.5z"/>
		<path class="st1" d="M100.9,50.7c-4.7-2.2-9.4-4.1-14.1-5.7v25.7c4,2.4,7.9,5.4,11.5,9.1l44.2-0.1c-5.8-5.7-11.8-10.7-18-15.2
			h-23.6V50.7z"/>
		<path class="st1" d="M100.9,139v-24.9c-4.6-2.5-9.4-5.8-14.1-9.8v29.1C91.4,135.5,96.1,137.4,100.9,139z"/>
		<path d="M86.7,104.3c-3.8-3.3-7.6-7-11.4-11.1C64.3,81,52.5,65,68.8,65c4.8,0,9.9,1.4,15.1,4.1c1,0.5,1.9,1,2.8,1.5V45
			c-13.9-4.8-27.5-7.1-39.6-7.5c-0.1,1.5-0.2,3.1-0.2,4.7v65.8c12.4,10.6,26,19.1,39.9,25.5V104.3z"/>
		<path d="M100.9,64.5h23.6c-7.7-5.5-15.6-10.1-23.6-13.8V64.5z"/>
		<path d="M140.7,114.1H126c0,3-2.2,4.9-8,4.9c-5.3,0-11.1-1.8-17.1-4.9V139c13.7,4.8,27.3,7.3,39.8,7.6c0-0.5,0-1,0-1.5V114.1z"/>
	</g>
</g>
<g class="st2">
	<path class="st3" d="M-20.2,235.9c0.1-3.1-0.2-6.2-1.6-8c-1.4-1.7-4.7-2.4-6.2-2.4c-5.8,0-8.1,3.5-8.3,4.3c-0.2,0.6-1.6,2-1.6,11.4
		v14.7c0,13.5,4.4,15,9.8,15c2.1,0,8.6-0.8,8.7-11.5h7.2c0.3,17.3-11.9,17.3-15.5,17.3c-6.8,0-17.3-0.5-17.3-21.7v-15.5
		c0-15.5,6.8-19.9,17.6-19.9c10.9,0,15,5.6,14.4,16.3H-20.2z"/>
	<path class="st3" d="M-6.1,257c0-11.2,1.3-20.5,14.6-20.5s14.6,9.3,14.6,20.5c0,16.9-6.5,19.4-14.6,19.4C0.3,276.4-6.1,274-6.1,257
		z M16.5,254.4c0-10.5-3.3-12.8-8.1-12.8c-4.8,0-8.1,2.3-8.1,12.8c0,12.5,1.6,16.9,8.1,16.9S16.5,266.8,16.5,254.4z"/>
	<path class="st3" d="M51,237.3h6.2v42.2c0,8.6-5.7,10.6-14.1,10.6c-6.4,0-12.2-3.2-11.6-10.3h7c0.1,3.6,2.4,5.5,5.9,5.5
		c4.3,0,6.7-2.7,6.7-6.6v-8h-0.2c-1.6,3-5.1,4.8-8.4,4.8c-10.4,0-12.5-9-12.5-20.4c0-17.6,8.9-18.8,12-18.8c4,0,7.2,1.7,9,5.5H51
		V237.3z M43.7,241.7c-7.1,0-7.3,8.5-7.3,13.6c0,12.3,2.8,15.2,7.4,15.2c7.5,0,7.3-8.9,7.3-14.2C51.1,250.6,51.5,241.7,43.7,241.7z"
		/>
	<path class="st3" d="M87.2,275.6V249c0-4.1-1.4-7.4-6.8-7.4c-6.8,0-7.8,6.1-7.8,11.3v22.7h-6.2v-30.4c0-2.7-0.2-5.3-0.4-8h6.6v4.9
		h0.3c2.4-4.3,5.3-5.7,10.3-5.7c8.2,0,10.3,4.9,10.3,12.5v26.6H87.2z"/>
	<path class="st3" d="M108.2,275.6H102v-38.4h6.2V275.6z M101.6,220.8h7v6.7h-7V220.8z"/>
	<path class="st3" d="M137.6,243l-16.9,27.6h17.5v5.1h-24.2v-5.9l16.7-27.3v-0.2h-15.9v-5.1h22.9V243z"/>
	<path class="st3" d="M163.7,270.1h-0.2c-1.9,4.4-4.9,6.3-9.7,6.3c-8.1,0-10.5-5.2-10.5-12.6c0-11.6,11.4-12.2,20.1-11.9
		c0.2-5.1,0.2-10.6-6.5-10.6c-4.2,0-6.4,2.8-6,6.8h-6.8c0.3-8.6,4.9-11.6,13-11.6c9.9,0,12.5,5.1,12.5,11.6v18.5
		c0,3,0.3,6.2,0.8,9.1h-6.8V270.1z M149.7,264.2c0,3.7,1.8,7.1,6,7.1c3.8,0,8.5-2.4,7.9-14.7C157.6,256.6,149.7,256.1,149.7,264.2z"
		/>
	<path class="st3" d="M200.5,275.6V249c0-4.1-1.4-7.4-6.8-7.4c-6.8,0-7.8,6.1-7.8,11.3v22.7h-6.2v-30.4c0-2.7-0.2-5.3-0.4-8h6.6v4.9
		h0.3c2.4-4.3,5.3-5.7,10.3-5.7c8.2,0,10.3,4.9,10.3,12.5v26.6H200.5z"/>
	<path class="st3" d="M216.1,237.3v-7.4l6.2-2.8v10.2h8.4v4.7h-8.4v23.5c0,2.4,0,5.5,5.7,5.5c0.5,0,1.4-0.2,2.8-0.3v4.8
		c-2.1,0.2-4.1,0.6-6.2,0.6c-5.9,0-8.6-2.4-8.6-6.8V242h-6.3v-4.7H216.1z"/>
</g>
</svg>
