<?xml version="1.0" encoding="utf-8"?>
<!-- Generator: Adobe Illustrator 19.0.1, SVG Export Plug-In . SVG Version: 6.00 Build 0)  -->
<svg version="1.1" id="Layer_1" xmlns="http://www.w3.org/2000/svg" xmlns:xlink="http://www.w3.org/1999/xlink" x="0px" y="0px"
	 width="97.4px" height="24.1px" viewBox="0 0 97.4 24.1" enable-background="new 0 0 97.4 24.1" xml:space="preserve">
<g>
	<path fill-rule="evenodd" clip-rule="evenodd" fill="#474647" d="M12.8,0.1c-1-0.2-7.2-0.7-10.5,3.7c-1.6,2-0.5,4.4,3.1,4.4
		C2,9.5-0.6,11.8,0.1,14.5c0.9,3.7,5.1,3.5,8.3,3.2c5.8-0.6,9.7-6,10.7-6.7c1.4,0.7,2.1,1.9,1.5,2.7c-1.5,0.1-5.6,0.4-5.4,2.5
		c0.2,2.1,6.6,1.9,10.1-0.5c0.5,0.2,1.5,0.7,2.1,1.1c0.5,0.4,1.1,0.1,1.1-1.7c-0.5-0.5-1.9-1-2.7-1c0.2-1.1,0.6-2.5-2.6-4.8
		c-0.5-0.3-0.5-0.6-0.1-0.9c0.4-0.3-0.1-1-1.1-1.3c-1.1-0.3-3.4-0.2-4.2,0.7c-0.3,0.3-0.3,1.5,0.2,1.9c-0.6,1-3.4,5.1-7.6,5.5
		c-1.5,0.2-3.3-0.1-3.1-2.3c0.1-1.9,3-3.5,4-4c0.6-0.3,0.5-1.2-0.3-1.4c-0.8-0.2-2.7-0.3-2.8-1.8C8.1,4.2,10,3.1,13,2.5
		C13.9,2.4,13.9,0.4,12.8,0.1L12.8,0.1z M20.3,15.4c-1-0.2-3.5-0.2-3.5,0.6C16.9,16.8,19.6,16.6,20.3,15.4L20.3,15.4z"/>
	<path fill-rule="evenodd" clip-rule="evenodd" fill="#474647" d="M37,10c-0.9-0.1-3.8-0.5-4.2,2.3c-0.4,2.8,1.9,3,2.8,2.9
		c0.9-0.1,2.8-1.1,2.8-4.4c-0.1-1.7,0.6-2.3,2.1-2.4c1.5-0.1,2.2,0.3,2.2,1.8c0,1.5,0.1,13.1,0.1,13.6c-1.1,0-3.9,0.1-5.1,0.3
		c0.1-2.7,0.5-8.3,0.5-9.1c-0.7,1.1-2.2,2.7-4.8,2.6c-2.7-0.1-5.1-1.3-5-4.8c0.2-3.5,3.8-6,9.3-5.2C38.6,7.7,38.7,10.1,37,10L37,10z
		"/>
	<path fill-rule="evenodd" clip-rule="evenodd" fill="#474647" d="M96.4,15.3c-1.3-0.1-2.2,0.2-3.2,0.3c-1,0.2-2.6,0.3-3.8,0.1
		c-1.2-0.3-1.5-1.5-1.2-2.2c0.3-0.7,1.5-1.1,2.2-1.4c0.7-0.2,0.7-1.1-0.1-1.3c-0.7-0.2-1.8-0.5-1.8-1.1c0-0.6,0.9-1.5,3.8-1.3
		c1.1,0.1,0.8-1.8-0.4-2.1C90.7,6.4,87,6.7,84.4,8c-1.3,0.7-1.5,2.6,1.9,3.2c-2.2,0.2-3.6,2.1-3.6,2.9c0,0.2,0,0.7,0.1,1.2
		c-0.6,0.4-1.3,0.5-2,0.4c-1.1-0.1-2.8-1.4-2.5-3.8c0.3-2.1,0.9-1.8,1.2-1.9c0.6,0,1.3-0.3,1.3-1.1c0-0.8,0.2-1-0.4-1
		c-0.6,0-4.5,0.6-7.4-0.1c-0.1-0.9-1.5-2.1-3-1.3c-1.5,0.8-1.1,2.6,0.6,3.1c0.1,0,0.3,0.1,0.4,0.1c-0.5,2.2-1.7,5.8-3.7,6.1
		c-1.1,0.2-1.8-0.5-1.7-2.3c0.1-1.8,0.5-5.1,0.5-5.1c0.1-1.4-5.1-1.4-5,0.4v5.6c0,0.1,0,0.3,0.1,0.5c-1.3,1-4.2,1.3-4-1.1l0.7-5.1
		c0.2-1.5-4.6-2-4.7,0.1L53.2,13c0,0.2,0,0.5,0,0.8c-0.4,0.7-1.1,1.4-2,1.4c-1.3,0.1-2.1-0.1-1.9-1.8c0.1-1.7,0.5-4.8,0.5-4.8
		c0.1-1.5-4.6-1.5-4.7-0.2c-0.1,1.1-0.3,5.1-0.4,6.3c-0.1,1.3,1.9,2.8,4.6,2.7c2.4-0.1,3.3-0.8,4.3-2.1c0.5,1.2,1.6,2.2,3.9,2.1
		c0.9-0.1,2.2,0.2,4.3-1.4c0.6,0.8,1.5,1.5,2.9,1.5c2.6,0.1,4.5-0.1,5.9-2.8c1.2-2.3,1.6-3.3,1.9-4.8c1.2,0.2,2.4,0.4,3.6,0.4
		c-1.4,1-1.9,1.8-1.8,3.4c0.1,1,0.7,3.7,5.1,3.7c2.5,0,3.6-0.5,4.4-1.1c1.1,0.8,3.2,1.3,7.8,0.9c1.5-0.2,3.7-0.2,5.1-0.1
		C97.6,17.3,97.7,15.4,96.4,15.3L96.4,15.3z"/>
	<path fill-rule="evenodd" clip-rule="evenodd" fill="#474647" d="M63.8,6c1.4,0,2.6-1,2.6-2.2c0-1.2-1.2-2.2-2.6-2.2
		c-1.4,0-2.6,1-2.6,2.2C61.2,5,62.3,6,63.8,6L63.8,6z"/>
</g>
</svg>
