<?xml version="1.0" encoding="utf-8"?>
<!-- Generator: Adobe Illustrator 19.1.0, SVG Export Plug-In . SVG Version: 6.00 Build 0)  -->
<svg version="1.1" id="Layer_1" xmlns:sketch="http://www.bohemiancoding.com/sketch/ns"
	 xmlns="http://www.w3.org/2000/svg" xmlns:xlink="http://www.w3.org/1999/xlink" x="0px" y="0px" width="32.2px" height="32.2px"
	 viewBox="-281.6 84.3 32.2 32.2" enable-background="new -281.6 84.3 32.2 32.2" xml:space="preserve">
<title>Slice 1</title>
<desc>Created with Sketch.</desc>
<g id="Page-1" sketch:type="MSPage">
	<g id="fa-glyph_60px_2pt">
		<path fill="#464646" d="M-265.5,116.6c-8.9,0-16.1-7.2-16.1-16.1s7.2-16.1,16.1-16.1c8.9,0,16.1,7.2,16.1,16.1
			S-256.7,116.6-265.5,116.6z M-280.2,98.2c-0.1,0.7-0.2,1.5-0.2,2.2c0,8.2,6.6,14.8,14.8,14.8c7.5,0,13.8-5.7,14.7-13h-7.6l2.5,4.4
			h-19.3l4.8-8.4H-280.2z M-272.9,105.4h14.8l-1.8-3.1h-11.3L-272.9,105.4z M-259.2,101h8.4c0-0.2,0-0.4,0-0.5
			c0-8.2-6.6-14.8-14.8-14.8c-7,0-12.8,4.8-14.4,11.3h10.3l4.1-7.1L-259.2,101z M-270.4,101h9.8l-1.6-2.8h-6.6L-270.4,101z
			 M-268.1,97h5.1l-2.5-4.5L-268.1,97z"/>
	</g>
</g>
</svg>
