<?xml version="1.0" encoding="utf-8"?>
<!-- Generator: Adobe Illustrator 19.1.0, SVG Export Plug-In . SVG Version: 6.00 Build 0)  -->
<svg version="1.1" id="Layer_1" xmlns="http://www.w3.org/2000/svg" xmlns:xlink="http://www.w3.org/1999/xlink" x="0px" y="0px"
	 viewBox="46 -91.6 192.6 282.6" style="enable-background:new 46 -91.6 192.6 282.6;" xml:space="preserve">
<style type="text/css">
	.st0{fill:none;stroke:#808080;stroke-width:0.9295;stroke-linecap:round;stroke-linejoin:round;stroke-miterlimit:10;}
	.st1{fill:none;stroke:#FE9088;stroke-width:0.9302;stroke-linecap:round;stroke-linejoin:round;}
	.st2{fill:none;stroke:#FE9088;stroke-width:0.9302;stroke-linecap:round;stroke-linejoin:round;stroke-dasharray:2.8865,2.8865;}
	
		.st3{fill:none;stroke:#FE9088;stroke-width:0.9302;stroke-linecap:round;stroke-linejoin:round;stroke-miterlimit:10;stroke-dasharray:2.9376;}
	.st4{fill:none;stroke:#094092;stroke-width:0.9779;stroke-linecap:round;stroke-linejoin:round;stroke-miterlimit:10;}
</style>
<g id="triangle">
	<polygon class="st0" points="174.8,101.4 178.9,98.2 172.2,93.2 	"/>
	<polygon class="st0" points="174.8,101.4 185.5,93.2 172.2,93.2 	"/>
	<polygon class="st0" points="178.7,114.2 185.5,93.2 172.2,93.2 	"/>
	<polygon class="st0" points="178.7,114.2 185.5,93.2 150.4,93.2 	"/>
	<polygon class="st0" points="178.7,114.2 196.6,58.2 150.4,93.2 	"/>
	<polygon class="st0" points="225.5,148.9 196.6,58.2 150.4,93.2 	"/>
	<polygon class="st0" points="225.5,148.9 196.6,58.2 76.7,148.9 	"/>
	<polygon class="st0" points="225.5,148.9 149.9,-88.4 76.7,148.9 	"/>
</g>
<g id="dashline">
	<g>
		<g>
			<line class="st1" x1="224.4" y1="148.1" x2="223.4" y2="147"/>
			<line class="st2" x1="221.4" y1="144.9" x2="115.2" y2="32.8"/>
			<line class="st1" x1="114.2" y1="31.7" x2="113.2" y2="30.7"/>
		</g>
	</g>
	<line class="st3" x1="196.6" y1="58.2" x2="154" y2="148.9"/>
</g>
<g id="spiral">
	<path class="st4" d="M175.1,97.2c0-1.2,1-2.2,2.2-2.2s2.2,1,2.2,2.2c-0.1,7.9-13.5,4.2-7.3-4.6s21.5,0.7,15,14.3
		c-6.5,13.7-34.2,11.7-36.2-13.8s25.4-39.2,45.6-34.9c19.6,4.1,58.3,39.1,28.9,90.7S73.4,218.5,51.2,86.2s98.7-174.6,98.7-174.6"/>
</g>
</svg>
