<?xml version="1.0" encoding="utf-8"?>
<!-- Generator: Adobe Illustrator 19.0.1, SVG Export Plug-In . SVG Version: 6.00 Build 0)  -->
<svg version="1.1" xmlns="http://www.w3.org/2000/svg" xmlns:xlink="http://www.w3.org/1999/xlink" x="0px" y="0px" width="193.5px"
	 height="284.9px" viewBox="0 0 193.5 284.9" enable-background="new 0 0 193.5 284.9" xml:space="preserve">
<g id="triangle">
	
		<polygon fill="none" stroke="#808080" stroke-width="0.9492" stroke-linecap="round" stroke-linejoin="round" stroke-miterlimit="10" points="
		129.4,194.9 133.6,191.7 126.8,186.6 	"/>
	
		<polygon fill="none" stroke="#808080" stroke-width="0.9492" stroke-linecap="round" stroke-linejoin="round" stroke-miterlimit="10" points="
		129.4,194.9 140.4,186.6 126.8,186.6 	"/>
	
		<polygon fill="none" stroke="#808080" stroke-width="0.9492" stroke-linecap="round" stroke-linejoin="round" stroke-miterlimit="10" points="
		133.5,208 140.4,186.6 126.8,186.6 	"/>
	
		<polygon fill="none" stroke="#808080" stroke-width="0.9492" stroke-linecap="round" stroke-linejoin="round" stroke-miterlimit="10" points="
		133.5,208 140.4,186.6 104.5,186.6 	"/>
	
		<polygon fill="none" stroke="#808080" stroke-width="0.9492" stroke-linecap="round" stroke-linejoin="round" stroke-miterlimit="10" points="
		133.5,208 151.7,150.8 104.5,186.6 	"/>
	
		<polygon fill="none" stroke="#808080" stroke-width="0.9492" stroke-linecap="round" stroke-linejoin="round" stroke-miterlimit="10" points="
		181.3,243.5 151.7,150.8 104.5,186.6 	"/>
	
		<polygon fill="none" stroke="#808080" stroke-width="0.9492" stroke-linecap="round" stroke-linejoin="round" stroke-miterlimit="10" points="
		181.3,243.5 151.7,150.8 29.3,243.5 	"/>
	
		<polygon fill="none" stroke="#808080" stroke-width="0.9492" stroke-linecap="round" stroke-linejoin="round" stroke-miterlimit="10" points="
		181.3,243.5 104,1.1 29.3,243.5 	"/>
</g>
<g id="spiral">
	
		<path fill="none" stroke="#FE9088" stroke-width="0.95" stroke-linecap="round" stroke-linejoin="round" stroke-miterlimit="10" d="
		M104,0.5C91.5,5.1,8.9,39.4,0.9,146.3c-8.7,115.6,111.4,188.6,180.8,96.5c0,0,10.5-15,11.2-34.5l0.1-1.2c1-28-20.7-51.6-48.5-52.7
		c-22.3-0.8-41,16.7-41.8,39.1c-0.7,17.9,13.2,33,31.1,33.7c14.3,0.5,26.2-10.7,26.8-25c0.4-11.5-8.5-21.1-19.9-21.6
		c-9.1-0.3-16.8,6.8-17.1,16c-0.3,7.4,5.4,13.5,12.7,13.8c5.8,0.2,10.8-4.4,11-10.2c0.2-4.7-3.5-8.7-8.1-8.8"/>
</g>
</svg>
