<?xml version="1.0" encoding="utf-8"?>
<!-- Generator: Adobe Illustrator 19.0.1, SVG Export Plug-In . SVG Version: 6.00 Build 0)  -->
<svg version="1.1" xmlns="http://www.w3.org/2000/svg" xmlns:xlink="http://www.w3.org/1999/xlink" x="0px" y="0px" width="192.6px"
	 height="282.6px" viewBox="0 0 192.6 282.6" enable-background="new 0 0 192.6 282.6" xml:space="preserve">
<g id="triangle">
	
		<polygon fill="none" stroke="#808080" stroke-width="0.9295" stroke-linecap="round" stroke-linejoin="round" stroke-miterlimit="10" points="
		128.8,193 132.9,189.8 126.2,184.8 	"/>
	
		<polygon fill="none" stroke="#808080" stroke-width="0.9295" stroke-linecap="round" stroke-linejoin="round" stroke-miterlimit="10" points="
		128.8,193 139.5,184.8 126.2,184.8 	"/>
	
		<polygon fill="none" stroke="#808080" stroke-width="0.9295" stroke-linecap="round" stroke-linejoin="round" stroke-miterlimit="10" points="
		132.7,205.8 139.5,184.8 126.2,184.8 	"/>
	
		<polygon fill="none" stroke="#808080" stroke-width="0.9295" stroke-linecap="round" stroke-linejoin="round" stroke-miterlimit="10" points="
		132.7,205.8 139.5,184.8 104.4,184.8 	"/>
	
		<polygon fill="none" stroke="#808080" stroke-width="0.9295" stroke-linecap="round" stroke-linejoin="round" stroke-miterlimit="10" points="
		132.7,205.8 150.6,149.8 104.4,184.8 	"/>
	
		<polygon fill="none" stroke="#808080" stroke-width="0.9295" stroke-linecap="round" stroke-linejoin="round" stroke-miterlimit="10" points="
		179.5,240.5 150.6,149.8 104.4,184.8 	"/>
	
		<polygon fill="none" stroke="#808080" stroke-width="0.9295" stroke-linecap="round" stroke-linejoin="round" stroke-miterlimit="10" points="
		179.5,240.5 150.6,149.8 30.7,240.5 	"/>
	
		<polygon fill="none" stroke="#808080" stroke-width="0.9295" stroke-linecap="round" stroke-linejoin="round" stroke-miterlimit="10" points="
		179.5,240.5 103.9,3.2 30.7,240.5 	"/>
</g>
<g id="dashline">
	<g>
		<g>
			
				<line fill="none" stroke="#FE9088" stroke-width="0.9302" stroke-linecap="round" stroke-linejoin="round" x1="178.4" y1="239.7" x2="177.4" y2="238.6"/>
			
				<line fill="none" stroke="#FE9088" stroke-width="0.9302" stroke-linecap="round" stroke-linejoin="round" stroke-dasharray="2.8865,2.8865" x1="175.4" y1="236.5" x2="69.2" y2="124.4"/>
			
				<line fill="none" stroke="#FE9088" stroke-width="0.9302" stroke-linecap="round" stroke-linejoin="round" x1="68.2" y1="123.3" x2="67.2" y2="122.3"/>
		</g>
	</g>
	
		<line fill="none" stroke="#FE9088" stroke-width="0.9302" stroke-linecap="round" stroke-linejoin="round" stroke-miterlimit="10" stroke-dasharray="2.9376" x1="150.6" y1="149.8" x2="108" y2="240.5"/>
</g>
<g id="spiral">
	
		<path fill="none" stroke="#FE9088" stroke-width="0.9779" stroke-linecap="round" stroke-linejoin="round" stroke-miterlimit="10" d="
		M129.1,188.8c0-1.2,1-2.2,2.2-2.2s2.2,1,2.2,2.2c-0.1,7.9-13.5,4.2-7.3-4.6c6.2-8.8,21.5,0.7,15,14.3
		c-6.5,13.7-34.2,11.7-36.2-13.8c-2-25.5,25.4-39.2,45.6-34.9c19.6,4.1,58.3,39.1,28.9,90.7S27.4,310.1,5.2,177.8
		S103.9,3.2,103.9,3.2"/>
</g>
</svg>
