<?xml version="1.0" encoding="utf-8"?>
<!-- Generator: Adobe Illustrator 19.0.1, SVG Export Plug-In . SVG Version: 6.00 Build 0)  -->
<svg version="1.1" id="Layer_1" xmlns="http://www.w3.org/2000/svg" xmlns:xlink="http://www.w3.org/1999/xlink" x="0px" y="0px"
	 viewBox="0 0 165.9 67.7" enable-background="new 0 0 165.9 67.7" xml:space="preserve">
<g>
	<path fill="#FDFDFE" d="M48.9,24.6c0-1,0.1-2,0.1-3.1c0-0.4,0.2-1-0.6-0.9c-3.9,0-7.8,0-11.8-0.1c-1.5,0-1.8,0.4-1.8,1.8
		c0.1,7.5,0.1,14.9,0,22.4c-0.1,5.3-3.7,9.1-9.1,9.6c-5.4,0.4-9.7-2.6-10.7-7.8c-0.4-2-0.2-4.1-0.2-6.1c0-0.8-0.2-1.2-1.1-1.2
		c-4,0-8,0-11.9,0c-0.8,0-1.2,0.3-1.2,1.2c0.1,1.4,0,2.9,0,4.3C1.2,52,3.6,58.3,9.6,62.8c5.9,4.5,12.6,5.5,19.8,4.5
		c10.5-1.5,18.7-10.1,19.4-20.7C49.2,39.3,49,31.9,48.9,24.6z M90.3,44.5c6.4,0,12.8,0,19.2,0c1.2,0,1.6-0.3,1.7-1.5
		c0-2.9,0-5.8-0.4-8.8c-1.7-13-11.6-22.7-24.4-23.9C67.4,8.6,51.9,26,55.9,44.8c3.4,16.2,18.7,26,34.9,22.1
		c9.2-2.2,15.5-7.6,18.7-16.6c0.3-0.9,0.5-1.4-0.8-1.4c-4.3,0-8.5,0-12.8,0c-0.7,0-1.1,0.2-1.5,0.8c-3.4,4.8-8.1,6.3-13.7,5.4
		c-5.4-0.9-8.8-4.2-10.8-9.2c-0.5-1.1-0.1-1.4,1-1.4C77.5,44.5,83.9,44.5,90.3,44.5z M117.7,25.2C117.7,25.2,117.7,25.2,117.7,25.2
		c0,6.3,0,12.6,0,18.9c0,6.4,2,12.1,6.6,16.7c5.7,5.7,12.8,7.5,20.5,6.7c6.7-0.6,12.4-3.5,16.5-9c4.2-5.6,4.9-12,4.6-18.7
		c0-0.8-0.5-0.7-1-0.7c-4,0-8,0-11.9,0c-0.9,0-1.1,0.4-1.1,1.2c0,1.3,0.1,2.7,0,4c-0.2,3.9-1.5,7.3-5.3,9.1
		c-7.2,3.5-14.8-1.2-14.8-9.2c0-5,0-9.9,0-14.9c0-1.3,0.3-1.7,1.6-1.7c5.7,0.1,11.4,0,17.1,0.1c1.1,0,1.5-0.3,1.5-1.5
		c-0.1-3.3-0.1-6.6,0-9.9c0-1.3-0.3-1.8-1.7-1.8c-5.6,0.1-11.3,0-16.9,0.1c-1.2,0-1.6-0.3-1.6-1.6c0.1-3,0-6,0.1-9
		c0-1-0.3-1.3-1.3-1.3c-3.7,0.1-7.4,0.1-11.1,0c-1.3,0-1.7,0.3-1.7,1.7C117.7,11.3,117.7,18.2,117.7,25.2z M7.8,0C3.5,0,0,3.4,0,7.7
		c0,4.3,3.4,7.8,7.7,7.9c4.3,0,7.8-3.4,7.9-7.7C15.6,3.5,12.1,0,7.8,0z M34.2,7.7c0,4.3,3.4,7.8,7.7,7.9c4.3,0,7.8-3.5,7.9-7.7
		C49.8,3.5,46.3,0,42,0C37.7,0,34.2,3.4,34.2,7.7z"/>
	<path fill="#323232" d="M90.3,44.5c-6.4,0-12.8,0-19.2,0c-1.1,0-1.5,0.2-1,1.4c2,5,5.4,8.4,10.8,9.2c5.5,0.9,10.3-0.6,13.7-5.4
		c0.4-0.6,0.8-0.8,1.5-0.8c4.3,0,8.5,0,12.8,0c1.3,0,1.1,0.6,0.8,1.4c-3.2,9-9.6,14.4-18.7,16.6C74.6,70.7,59.4,61,55.9,44.8
		C51.9,26,67.4,8.6,86.4,10.3c12.8,1.2,22.7,10.9,24.4,23.9c0.4,2.9,0.4,5.8,0.4,8.8c0,1.3-0.5,1.5-1.7,1.5
		C103.1,44.4,96.7,44.5,90.3,44.5z M83.4,32.9c3.9,0,7.8,0,11.8,0c1.9,0,1.9-0.1,1.2-1.8c-2.2-5.4-7.3-8.7-13.5-8.5
		c-5.6,0.1-10.7,3.9-12.6,9.2c-0.4,1.1,0,1.2,0.9,1.2C75.3,32.9,79.4,32.9,83.4,32.9z"/>
	<path fill="#323232" d="M117.7,25.2c0-7,0-13.9,0-20.9c0-1.3,0.3-1.7,1.7-1.7c3.7,0.1,7.4,0.1,11.1,0c1,0,1.3,0.2,1.3,1.3
		c-0.1,3,0,6-0.1,9c0,1.3,0.4,1.6,1.6,1.6c5.6-0.1,11.3,0,16.9-0.1c1.4,0,1.8,0.4,1.7,1.8c-0.1,3.3-0.1,6.6,0,9.9
		c0,1.2-0.4,1.5-1.5,1.5c-5.7-0.1-11.4,0-17.1-0.1c-1.4,0-1.6,0.4-1.6,1.7c0.1,5,0,9.9,0,14.9c0.1,8,7.6,12.7,14.8,9.2
		c3.8-1.8,5.1-5.2,5.3-9.1c0.1-1.3,0-2.7,0-4c0-0.8,0.1-1.2,1.1-1.2c4,0,8,0,11.9,0c0.5,0,1-0.1,1,0.7c0.3,6.7-0.4,13.1-4.6,18.7
		c-4.1,5.5-9.8,8.4-16.5,9c-7.8,0.7-14.9-1-20.5-6.7c-4.5-4.6-6.5-10.3-6.6-16.7C117.6,37.8,117.7,31.5,117.7,25.2
		C117.7,25.2,117.7,25.2,117.7,25.2z"/>
	<path fill="#323232" d="M48.9,24.6c0.1,7.3,0.3,14.7-0.1,22c-0.7,10.6-8.8,19.2-19.4,20.7c-7.2,1-13.9,0-19.8-4.5
		c-6-4.5-8.4-10.9-8.9-18.1c-0.1-1.4,0-2.9,0-4.3c0-0.9,0.3-1.2,1.2-1.2c4,0,8,0,11.9,0c0.9,0,1.1,0.4,1.1,1.2c0,2-0.2,4.1,0.2,6.1
		c1,5.2,5.3,8.2,10.7,7.8c5.3-0.4,9-4.2,9.1-9.6c0.1-7.5,0.1-14.9,0-22.4c0-1.5,0.3-1.9,1.8-1.8c3.9,0.1,7.8,0.1,11.8,0.1
		C48.7,22,47.9,23.4,48.9,24.6z"/>
	<path fill="#323232" d="M7.8,0c4.3,0,7.8,3.5,7.7,7.8c0,4.3-3.6,7.8-7.9,7.7C3.4,15.5,0,12,0,7.7C0,3.4,3.5,0,7.8,0z"/>
	<path fill="#323232" d="M34.2,7.7C34.2,3.4,37.7,0,42,0c4.3,0,7.8,3.5,7.7,7.8c0,4.3-3.6,7.8-7.9,7.7C37.6,15.5,34.1,12,34.2,7.7z"
		/>
	<path fill="#7C43F3" d="M48.9,24.6c-1-1.2-0.2-2.6-0.5-3.9c0.8-0.1,0.6,0.5,0.6,0.9C49,22.5,48.9,23.6,48.9,24.6z"/>
</g>
</svg>
