<?xml version="1.0" encoding="utf-8"?>
<!-- Generator: Adobe Illustrator 19.0.0, SVG Export Plug-In . SVG Version: 6.00 Build 0)  -->
<svg version="1.1" id="Layer_1" xmlns="http://www.w3.org/2000/svg" xmlns:xlink="http://www.w3.org/1999/xlink" x="0px" y="0px"
	 width="100px" height="100px" viewBox="-249 251 100 100" style="enable-background:new -249 251 100 100;" xml:space="preserve">
<style type="text/css">
	.st0{fill:#333333;}
	.st1{fill:url(#XMLID_9_);}
	.st2{fill:#FFFFFF;}
	.st3{fill:url(#XMLID_10_);}
	.st4{opacity:0.72;fill:url(#XMLID_11_);enable-background:new    ;}
	.st5{fill:url(#XMLID_12_);}
</style>
<g id="Layer_1_1_">
	<polygon id="XMLID_1_" class="st0" points="245.4,899.9 373.4,678.2 501.4,899.9 	"/>
	<polygon id="XMLID_5_" class="st0" points="580.4,899.9 708.4,678.2 836.4,899.9 	"/>
	<g id="XMLID_4_">
		
			<linearGradient id="XMLID_9_" gradientUnits="userSpaceOnUse" x1="658.0001" y1="-344.3001" x2="758.7501" y2="-243.55" gradientTransform="matrix(1 0 0 -1 0 604)">
			<stop  offset="0" style="stop-color:#ED1E79"/>
			<stop  offset="8.239225e-02" style="stop-color:#CF237E"/>
			<stop  offset="0.421" style="stop-color:#573590"/>
			<stop  offset="0.5705" style="stop-color:#273D97"/>
			<stop  offset="0.747" style="stop-color:#2D3868"/>
			<stop  offset="0.913" style="stop-color:#313442"/>
			<stop  offset="1" style="stop-color:#333333"/>
		</linearGradient>
		<polygon id="XMLID_27_" class="st1" points="634.6,924.9 708.4,797.2 782.1,924.9 		"/>
		<path id="XMLID_24_" class="st2" d="M708.4,799.2l72,124.7h-144L708.4,799.2 M708.4,795.2l-1.7,3l-72,124.7l-1.7,3h3.5h144h3.5
			l-1.7-3l-72-124.7L708.4,795.2L708.4,795.2z"/>
	</g>
	<polygon id="XMLID_7_" class="st0" points="898.4,899.9 1026.4,678.2 1154.4,899.9 	"/>
	<g id="XMLID_6_">
		
			<linearGradient id="XMLID_10_" gradientUnits="userSpaceOnUse" x1="920" y1="-322.3" x2="1020.75" y2="-221.55" gradientTransform="matrix(1 0 0 -1 0 604)">
			<stop  offset="0" style="stop-color:#ED1E79"/>
			<stop  offset="8.239225e-02" style="stop-color:#CF237E"/>
			<stop  offset="0.421" style="stop-color:#573590"/>
			<stop  offset="0.5705" style="stop-color:#273D97"/>
			<stop  offset="0.747" style="stop-color:#2D3868"/>
			<stop  offset="0.913" style="stop-color:#313442"/>
			<stop  offset="1" style="stop-color:#333333"/>
		</linearGradient>
		<polygon id="XMLID_23_" class="st3" points="896.6,902.9 970.4,775.2 1044.1,902.9 		"/>
		<path id="XMLID_20_" class="st2" d="M970.4,777.2l72,124.7h-144L970.4,777.2 M970.4,773.2l-1.7,3l-72,124.7l-1.7,3h3.5h144h3.5
			l-1.7-3l-72-124.7L970.4,773.2L970.4,773.2z"/>
	</g>
	<g id="XMLID_8_">
		
			<linearGradient id="XMLID_11_" gradientUnits="userSpaceOnUse" x1="395" y1="-223.3" x2="495.75" y2="-122.55" gradientTransform="matrix(1 0 0 -1 0 604)">
			<stop  offset="0" style="stop-color:#ED1E79"/>
			<stop  offset="8.239225e-02" style="stop-color:#CF237E"/>
			<stop  offset="0.421" style="stop-color:#573590"/>
			<stop  offset="0.5705" style="stop-color:#273D97"/>
			<stop  offset="0.747" style="stop-color:#2D3868"/>
			<stop  offset="0.913" style="stop-color:#313442"/>
			<stop  offset="1" style="stop-color:#333333"/>
		</linearGradient>
		<polygon id="XMLID_34_" class="st4" points="371.6,803.9 445.4,676.2 519.1,803.9 		"/>
		<path id="XMLID_31_" class="st2" d="M445.4,678.2l72,124.7h-144L445.4,678.2 M445.4,674.2l-1.7,3l-72,124.7l-1.7,3h3.5h144h3.5
			l-1.7-3l-72-124.7L445.4,674.2L445.4,674.2z"/>
	</g>
</g>
<g id="Layer_2">
	<polygon id="XMLID_90_" class="st0" points="-246.7,338.9 -201.8,261.1 -156.9,338.9 	"/>
	<g id="XMLID_88_">
		
			<linearGradient id="XMLID_12_" gradientUnits="userSpaceOnUse" x1="-194.425" y1="289.825" x2="-158.725" y2="325.525" gradientTransform="matrix(1 0 0 -1 0 604)">
			<stop  offset="0" style="stop-color:#F75067"/>
			<stop  offset="0.1283" style="stop-color:#CF237E"/>
			<stop  offset="0.4214" style="stop-color:#573590"/>
			<stop  offset="0.5909" style="stop-color:#273D97"/>
			<stop  offset="0.7733" style="stop-color:#2D3868"/>
			<stop  offset="0.913" style="stop-color:#313442"/>
			<stop  offset="1" style="stop-color:#333333"/>
		</linearGradient>
		<polygon id="XMLID_180_" class="st5" points="-202.7,305.9 -176.6,260.6 -150.4,305.9 		"/>
		<path id="XMLID_177_" class="st2" d="M-176.6,261.1l25.3,43.7h-50.5L-176.6,261.1 M-176.6,259.2l-0.9,1.5l-25.2,43.7l-0.9,1.5h1.7
			h50.5h1.7l-0.9-1.5l-25.1-43.7L-176.6,259.2L-176.6,259.2z"/>
	</g>
</g>
</svg>
