<?xml version="1.0" encoding="utf-8"?>
<!-- Generator: Adobe Illustrator 19.0.1, SVG Export Plug-In . SVG Version: 6.00 Build 0)  -->
<svg version="1.1" id="Layer_1" xmlns="http://www.w3.org/2000/svg" xmlns:xlink="http://www.w3.org/1999/xlink" x="0px" y="0px"
	 width="66.3px" height="66.3px" viewBox="0 0 66.3 66.3" enable-background="new 0 0 66.3 66.3" xml:space="preserve">
<g>
	<path fill="#464646" d="M60.5,26.6l4.3-3.3c-0.6-1.9-1.4-3.8-2.3-5.5l-5.3,0.7l-3.6-4.7l2.1-5c-1.5-1.4-3-2.6-4.7-3.6l-4.3,3.3
		l-5.5-2.3l-0.7-5.4c-1.9-0.4-3.9-0.7-5.9-0.8l-2.1,5l-5.9,0.8l-3.3-4.3c-1.9,0.6-3.8,1.3-5.5,2.3l0.7,5.3l-4.7,3.6l-5-2.1
		c-1.4,1.5-2.6,3-3.6,4.7l3.3,4.3l-2.3,5.5l-5.3,0.7c-0.4,1.9-0.7,3.9-0.8,5.9l5,2.1l0.8,5.9l-4.3,3.3c0.6,1.9,1.3,3.8,2.3,5.5
		l5.4-0.7l3.6,4.7l-2.1,5c1.5,1.4,3,2.6,4.7,3.6l4.3-3.3l5.5,2.3l0.7,5.3c1.9,0.4,3.9,0.7,5.9,0.8l2.1-5l5.9-0.8l3.3,4.3
		c1.9-0.6,3.8-1.4,5.5-2.3l-0.7-5.3l4.7-3.6l5,2.1c1.4-1.5,2.6-3,3.6-4.7l-3.3-4.3l2.3-5.5l5.3-0.7c0.4-1.9,0.7-3.9,0.8-5.9l-5-2.1
		L60.5,26.6z"/>
	<path fill="#FFFFFF" d="M36.3,58.1c13.8-1.8,23.5-14.4,21.7-28.2C56.3,16.2,43.7,6.4,29.9,8.2C16.2,9.9,6.4,22.6,8.2,36.3
		C9.9,50.1,22.6,59.8,36.3,58.1z M30.4,11.9c11.7-1.5,22.4,6.8,23.9,18.5c1.5,11.7-6.8,22.4-18.4,23.9c-11.7,1.5-22.4-6.8-23.9-18.5
		C10.4,24.2,18.7,13.4,30.4,11.9z"/>
	<path fill="#FFFFFF" d="M44.3,29.2c0.5-1.5,0.7-2.5,0.7-3.4c-0.1-1.4-0.9-2.7-2.4-2.7c-1.2,0-3.2,0.8-4.7,2.4
		c-0.2-1.3-1-2.4-2.4-2.4c-1.1,0-3.5,1.1-4.9,3.1L31,25c0.7-1.8-0.2-2-0.7-2c-0.2,0-1.9,0-1.9,0s-0.2,0-0.3,0.2
		c-0.9,2.4-11.1,3.9-10.8,7.6c0.2,2,2.6,1.7,4,1.3c0.5-0.1,0.3-0.3,0-0.4c-0.4-0.2-0.7-0.5-0.7-1.1c-0.1-1.7,2.9-2.4,6.5-3.6
		c0,0-2.5,9.4-4.3,12.8c-0.1,0.2-0.2,0.4-0.3,0.6c-0.4,0.5,0.1,0.5,0.1,0.5h0.7h3.1l3.7-11.7c1.1-1.3,2.2-2,2.9-2
		c0.3,0,0.6,0.2,0.6,0.5c0,0.5-0.4,1.7-0.9,3.2l-3.2,9.9h3.9l3.7-11.5c1.1-1.4,2.3-2.2,3-2.2c0.3,0,0.5,0.2,0.6,0.5
		c0,0.5-0.4,1.7-0.9,3.2c0,0-2.6,8.4-2.6,8.7c0,0-0.6,1.9-0.6,2.6c0,0,0,0.2,0,0.2c-0.2,2.5,0.8,3.8,2.7,3.8c2.8,0,3.4-2,3.4-2
		s-3.5,1.4-1.8-3.8L44.3,29.2z"/>
</g>
</svg>
