<?xml version="1.0" encoding="utf-8"?>
<!-- Generator: Adobe Illustrator 19.0.1, SVG Export Plug-In . SVG Version: 6.00 Build 0)  -->
<svg version="1.1" id="Layer_1" xmlns="http://www.w3.org/2000/svg" xmlns:xlink="http://www.w3.org/1999/xlink" x="0px" y="0px"
	 viewBox="0 0 347.3 254.8" enable-background="new 0 0 347.3 254.8" xml:space="preserve">
<path fill="#4D4D4E" d="M30.7,4.9c-0.5,1-1.2,0.3-1.8,0c-1.8-1-1.7-3.8-2.2-4.4C26.6,0.1,27-0.1,27.2,0C28.5,0.6,31.1,3.8,30.7,4.9z
	 M6.2,12.3c-1.8,0-1,1.2-0.4,2.2c0.5,1,1.9,3.9,4.4,3.5c1.3-0.3,0.7-1.4,0.9-2.2C11.6,14,7.9,12.4,6.2,12.3z M86.1,33.4
	c-1.2,1.6-0.6,3.7,0.4,4.8c3.3,4.5,2.6,10.6,3.9,15.8c0.6,2.2,2.6,4.6,0,7.1c-1.8,1.8-4.1,2.8-5.7,0.9c-3.5-4.9-8.6-15.8-9.2-15.4
	c-0.8,0.5-0.7,1.5-0.4,2.2c1.9,4.1,5.4,7.4,5.3,12.3c-0.2,2.3-7.6,4.5-8.3,2.6c-2.4-5.2-8-12.2-9.7-14.5c-1.7-2.3-2-0.1-0.9,1.3
	c1.1,1.4,5.9,6.7,7.9,11c1,2-5.6-1.3-5.7,0c0,0.5-0.1,1,0.4,1.3c1.3,0.7,1.4,7.9,0,5.7c-2.2-3.4-6-9.8-6.6-10.1
	c-3.5-1.6-2.1-6.6-5.7-6.6c-0.6,0-0.2,0.7,0,0.9c2.8,1.6,6,8.4,8.8,12.7c1.9,3,5.6,5.3,5.2,9.2c-0.1,1.2-1.9,3.6-3.1,2.6
	c-2.1-1.7-2.5,1.4-3.9,1.7c-1.4,0.2-2.6-0.9-3.1-2.2C53.1,70.6,47,68,44.8,61.5c-0.1-0.4-1.6-0.1-2.2-0.9c-0.5-0.7-0.4,0.3-0.4,0.4
	c0.6,4.9,4.5,7.6,7.4,10.1c2.3,1.8,2.7,5.1,4.9,7.4c0.9,0.9-0.1,2,0.4,3.1c0.5,1-0.1,3.7-1.8,4c-1.4,0.2-2.2-1.2-3.5-1.3
	c-4.4-0.5-6.4-7-11-7c-1.5,0,0.5,3.4,1.7,3.5c4.2,0.3,7.4,3.7,10.1,6.6c0.9,1.2-1.9,4.1-3.9,5.3c-2.5,1.3-4-2.6-6.2-3.1
	c-1.8-0.3-3.9-1.3-5.7-0.4C33.8,89.8,33,94,35.1,94c3.2-0.1,6.8,1.6,9.7,3.5c2.3,1.5-1,5.1-3.1,6.6c-4.3,2.9-7.8-2.1-11.4-2.6
	c-1.3-0.2-2.6-1.6-3.9-0.5c-0.3,0.3,0.1,0.9,0.4,1.3c2.3,2.8,5.1,0.1,7.4,1.7c1,0.7-2.8,0-2.2,0.5c2.6,1.6,6.1,1.4,8.8,3.1
	c0.8,0.6,0.1,2.8-1.3,3.1c-3.1,0.3-5.5-1.4-7.9-2.6c-0.6-0.4-0.1,1-0.1,1.3c0,0.6,3.9,1.9,6.2,2.2c1.8,0.2,2.5,1.5,1.8,3.1
	c-2.3,3.9-5.9,1.8-9.2,1.7c-1,0-1.4,1.5-0.4,1.8c3.3,0.6,9.7,0.4,9.2,3.9c-0.5,2.3-3,2.6-4.4,2.6c-0.8,0.1-4.8,0.1-3.1,1.8
	c1.7,1.7,2.5,4.6,1.8,4.4c-3.5-0.8-8.7-0.8-6.2,0.4c2.5,1.2,5.3-0.3,7.9-0.4c1.9-0.1,4-0.5,4,0.9c0,1.7-0.8,4.2,0,4.9
	c2.6,2.5-1.1,4.6-1.3,7c-0.1,0.8-1.7,0.5-2.6,0.4c-3.1,0-4.6,3.5-7.9,3.1c-1-0.2-1,1.3,0,1.3c3.8,0.1,7.9-1.9,12.3-1.8
	c1.2,0.1,1.2,1.5,0.9,2.2c-1,1.5-1.9,2.4-3.5,3.1c-1.9,0.7,5-0.1,5.3,2.6c0.1,2.8-3.2,5-5.3,6.2c-2.1,0.9-6,0.1-6.1,3.1
	c0,1.9,3.6-1.9,5.7-2.2c0.5-0.1,1.1,0,1.3-0.4c1.7-2.4,4.6-1.6,6.6-3.1c1.2-1,2.6,3.6,2.2,4.4c-0.7,2.3,1.1,6.2-1.7,7
	c-3.8,1.1-6,6-10.1,6.1c-1,0,1.5,3.2,2.2,2.6c3-2.3,7.9-7.4,10.1-7c3.1,0.7,6.1,1.9,8.4,4.4c3.6,3.9-4,5.7-5.3,8.8
	c-0.5,1.2,0.9,1.4,1.4,1.9c4.4,3.4,5.9-2.9,9.6-4.1c1.5-0.4,4,1.9,4.4,2.6c1.6,3.5,5.5,3.6,8.4,5.3c1.3,0.9-0.4,6.2-0.4,6.6
	c-0.1,0.4-1.3,2.5-1.8,2.6c-0.4,0.2-0.5-1.7-0.9-0.9c-0.3,0.8-0.9,3.2,0.4,2.6c1.3-0.5,3.2-6.7,6.6-8.8c1.4-0.5,6.9,3.9,6.6,4.8
	c-0.5,1.9,2.9,3.2,0.4,4.8c-0.6,0.3,0.6,1.2,0.4,1.7c-1,3.2-5.4,8.1-5.7,8.4c-0.2,0.3,0.9,0,0.9,0c2.5-0.6,4.2-3.7,6.6-3.5
	c4.3,0.8,2.6,8.1,6.2,7.4c3.1-0.5,3.9-5.9,7.9-5.2c0.8,0.1,0.2-3.6,1.3-4c1.3-0.3,4.5,1.6,4.8,0.9c0.5-1.2,0.1-2.6,0.9-2.6
	c2.6-0.1,7.1,2.8,6.1,3.5c-2,1.5-1.9,6.2-3.5,5.7c-1.5-0.6-3.3-1.9-4.4-1.8c-2.2,0.4-2.9,4.6-2.5,7c0.2,1-0.1,3.7,1.2,3.1
	c2.7-1.4,0.1-4.1,2.2-6.1c1.1-0.9,4.7-0.7,6.1,0.9c1.2,1.6-3.2,4.3-0.4,4.4c2.8,0.1,3.2,3.8,2.6,4.4c-1.3,1.6-2.7,4.2-2.6,5.2
	c0.1,1.1,2-1,3.5-0.4c1.5,0.5,3.9,3.9,3.1,4.9c-1,1-2.5,2.5-2.2,2.6c0.3,0.1,2,0.1,0.9,0.4c-0.2,0.1-0.9,0.5-0.4,0.4
	c1.8-0.2,4.5-5.2,4.4-3.1c0,3.9,5.6,3.1,4,7.9c-0.2,0.7-1.2,3.6,1.3,0c2.5-3.6,3.2,1.3,5.7,0.9c1.7-0.2-0.3,2.4,0.1,3.8
	c0.1,0.3,0.4-0.3,1.2-0.3c0.8,0,2.1,1.7,2.6,1.3c0.5-0.4,1.3-2.5,3.1-2.2c5.4,0.9-1.3,5.8,2.7,7.1c4.1,0.6,8-2.6,11.4-4
	c1.2-0.6,0.4,2.6,2.2,2.6c0.9,0-1.2-2.4-0.4-2.6c1.9-0.6,6.1-0.3,5.7-1.3c-0.8-2.2,1.4-2.5,2.6-3.1c2.2-1.1,3.7,1.5,4.4,1.8
	c0.7,0.3,2,1,1.3-0.5c-0.6-1.5-0.8-4,1.3-4.4c1.7-0.4,3.5,0.9,3.9,1.8c0.4,0.8,2,0.6,0-1.8c-2-2.4,1.3-4.2,2.6-4.8
	c2.2-1.1,4.8,2.2,4.8,1.3c0-2.1-0.3-5.7-0.4-6.2c-1.9-4.8,3.1-1.6,3.7-2.5c0.4-0.4,0.5-4.1,1.1-6.3c0.2-0.8,3.7,0.5,3.1,0
	c-1.5-1.3-2.7-2.7-2.2-4.8c1.4-4.1,4.1,1.1,5.7,0.4c0.6-0.3,1.3-1.1,0.4-1.3c-1.2-0.3-1.9-0.4-3.5-0.9c-2.3-0.7-2.5-3.5-1.7-5.3
	c1.1-1.9,3.3-3.1,5.7-3.1c2.4,0-2.9-2.1-3.5-2.2c-1.9-0.1-3-1.8-3.1-3.5c-0.1-2.3,3.1-2.1,3.5-3.1c0.2-0.5-0.9-0.3-1.7,0
	c-1.9,0.8-2.7-1.4-2.2-2.6c0.8-1.7,2.4-1.6,3.5-2.2c1.3-0.7,3.7-0.4,4.4,0.9c0.2,0.3,0.5,0.3,0.4-0.4c0-0.8-1.7-1.5-1.8-2.2
	c-0.2-2.7,1.8-3.2,4-3.5c1.4-0.1,4.2,0.7,5.2,3.5c0.6,1.6-1.5,2.9-0.9,3.6c1.1,0.8,2.8,0.4,3.5-0.9c0.5-1,1.8,1.4,1.3,2.2
	c-1,1.5-0.5,5.7,0.9,6.2c2.2,0.6,4.7-3.7,4.8-2.2c0.7,4.7,6.2-0.2,7.1,4.4c0.3,1.3-0.1,2.6-0.9,3.5c-0.6,0.8,0.3,1.7,1.4,2.2
	c3.4,1.3,2.2-3.2,4.4-4.4c0.9-0.3,4.6,0.2,6.2,2.2c1.1,1.6,0.6,6.7,2.2,6.1c1.6-0.5-0.5-2.5,0.4-3.5c1-1,3.3-2.4,5.3-1.8
	c2.5,1.3,1.8,4.4,1.7,4.9c-0.3,0.9-1,3.5-0.4,3.1c0.4-0.4,1.3-2.7,0.9-4.4c-0.4-1.5,3.3-1,4.4-1.3c5.5-1.5,3.1,5.1,4.4,7.4
	c0.2,0.3,0.5,0.4,0.9,0c0.6-0.5-1.1-2.3,0-3.1c1.1-0.8,1.9-4.2,4.4-3.9c2.8,0.5,2.1,7.5,2.6,7c1.9-1.6-0.3-3.8,0.4-6.1
	c0.8-2.1,3.8-2.8,5.3-2.2c1.6,0.7,2.5,2.5,3.1,4c0.4,1.2-0.9,5.1,1.7,3.9c0.5-0.2,0.1,0.4,0.4,0.4c0.3,0,0.9-0.9,0.4-1.3
	c-2-2.4-2.6-8-2.2-8.8c1.2-2.1,3.3-2.7,4.8-3.5c6.3-2.3,6.3,5.3,11,7c1.3,0.4,4.7,0.8,4.8-1.8c0.1-1.6,2.5-1.3,2.6-2.2
	c0.2-2.9-3.7-1.6-5.3-2.6c-2.5-2,0.5-5.9,2.2-5.3c3.3,1.4,3-3.2,6.1-2.2c2.8,0.8,4.7,3.8,5.7,3.9c2.3,0.2,2.3,2.9,4.8,2.6
	c2.5-0.3-0.1-2.1-0.9-2.6c-0.8-0.6-6.3-2.8-7.4-6.1c-0.8-3,1.8-7,3.1-6.6c3.6,1.3,6.4,4.3,7,4.8c0.6,0.5,3.2,4.7,2.6,2.6
	c-0.6-2-5.5-5.1-5.3-5.5c0.4-1.2-1.2-1.5-1.7-2.4c-1.3-2.2,2.5-5.5,3.1-5.3c1.6,0.5,2.4,2.9,4.4,2.6c2-0.3-2.2-1.6-2.6-2.6
	c-0.5-1-0.1-2.9,0.9-4.4c1.5-2.5,4.5,1.5,4.4,0.4c-0.2-1.9-3.5-4.1-0.4-5.7c1.1-0.4,4.3,2.4,4.4,1.4c0-1.6-2-2.5-2.7-3.6
	c-0.9-1.9,1.8-4.5,1.8-5.3c0.1-8,9.8-1.4,11.9-2.2c2.1-0.8-2.9-0.6-3.1-0.9c-0.8-1.5-3.8-2-5.7-2.6c-2.8-1-1.8-3.7-0.9-4.8
	c1.3-1.8,0.6-4.7,3.9-5.3c1.3-0.2,3.3-2.1,2.2-2.2c-1.6-0.1-3.7-0.3-4.8-0.4c-1.6-0.2-1.5-1.9-1.3-3.1c0.9-3.3,4.7-0.9,6.9-2.1
	c0.5-0.3,0.7-0.6,1.7-0.3c0.4,0.1,1.6-0.7,1.1-0.7c-1.9,0.1-4.1-0.4-5.7,0.4c-0.7,0.3-1.9-1.6-1.3-2.2c0.9-0.8,2.5-0.4,3.5-0.4
	c0.9-0.1,3-1.5,0-0.9c-3,0.6-3.2-2.9-4-4c-2.7-4.4-0.1-9.4-2.2-14c-0.3-0.9,4.6-2.1,4.8-2.6c0.2-0.5-0.3-0.5-0.9-0.4
	c-0.6,0.1,0.1-2.5-0.9-1.8c-0.9,0.7-4,2.5-4.8,1.8c-2.9-3.2,5-5.6,3.9-6.6c-1.2-1.3-2,0.7-3.5,0c-3-2-6.7-4.5-8.4-7.9
	c-0.2-0.7,2.4-2.3,2.2-3.5c-0.2-1.2-1-0.5-0.9,0c0.1,0.5-0.1,0.8-0.4,0.9c-1.3,0.1-3.7-0.1-3.5-0.9c0.7-3.1,5.4-5.8,3.5-8.8
	c-0.8-1.1-1.1,2-1.8,1.8c-2.6-0.8-5.5,2.1-7.9,1.3c-1.1-0.5-2.1-1.9-0.9-2.6c1-0.9,2.4-1.4,3.1-2.6c0.5-0.7,1-3.1,0-2.6
	c-1.2,0.6-3.2,0.4-3.5,2.2c-0.9,3.4-4.7,0-5.2,0.5c-1,1-3.4,1.1-3.1-0.5c0.4-1.9,3.5-5,2.6-5.2c-0.8-0.2-1.4,1.7-2.2,0.4
	c-1.2-1.9-1.5-5.3-1.3-6.6c0.1-1.2-1.1-1-1.3-0.4c-0.9,2.5-2.8,7.7-3.9,7c-2.2-1.3-5.2-1.1-7.1-2.6c-4.6-4.8,2.1-13.3,0.9-14.9
	c-0.4-0.5-3.1,12.4-8.8,13.2c-9.8-0.3-3-12.1-5.7-16.2c-0.3-0.7-0.7-0.6-0.9,0c-0.2,0.6-1.1,5.5-0.5,5c0.6-0.4,0.6-1.2,1-1
	c0.3,0.2,0.6,6,0,8.7c-0.4,1.5-2.8,2.6-3.5,1.8c-1.8-2.3,1.9-6.1,0.4-6.2c-3.9-0.2-2.2,6.1-3.9,6.2c-2.3,0.1-5.9,0-6.2-0.9
	c-0.6-2.9-2.2-7.4-2.2-7.9c0-0.5-1.3-2.5-1.3-1.7c0,0.8,1.2,5.5,0.9,8.7c-0.3,1.4-2.5,2.1-3.5,1.3c-2.4-2.7-1-7.4-1.3-8.8
	c-0.3-1.3-0.8-0.3-1.3,0.4c-0.5,0.7-0.5,9-1.8,8.8c-3.4-0.3-4.9,3.6-8.8,2.2c-1.8-0.7-3-3.5-3.5-4c-0.5-0.5-0.1,0.4-0.4,0.4
	c-0.3,0.1-0.8-0.9-0.9-0.4c-0.2,2.5,2.7,6.5,1.3,6.6c-2.5,0.1-6.4-1.1-6.6-1.7c-0.2-0.6-0.8,0.6-0.9,0.9c0,0.3,0.1,0.1,0.4,0.4
	c0.3,0.3-0.5,3.4-1.3,3.5c-1,0-2.3-2-3.1,0c-0.2,0.6,0.9,1.9,0.4,2.6c-3.3,3.3-5.1-2.1-8.4-3.1c-1.7-0.3,1.5,2.8,2.6,4
	c2.9,3-1.3,5.8-2.6,6.6c-4.9,2.3-7.4-5.2-9.2-5.3c-1.8-0.1,0.9,1,1.8,2.2c0.9,1.2-1.8-0.6-1.8,0c0,0.8,1.9,1.5,2.6,1.7
	c0.7,0.3,2.1,3.4,2.6,4.4c0.5,1-0.4,1.8-1.3,2.2c-1.5,0.6-2.2,0.7-3.9,0.4c-1.6-0.3-1.2-2.5-2.6-3.9c-1.1-1.6-3.8-5.1-4.8-4.4
	c-1.3,1.2,0.6,2.2,0.4,3.5c-0.4,2.1-3.5,4.2-5.7,3.5c-0.6-0.2-3.5,1-3.1-0.9c0.4-1.8,0.4-6,3.5-7c1.6-0.5,3-1.8,4.4-1.3
	c1.6,0.4,3.5-0.1,3.9-1.3c0.2-0.6,1.1-2.5,0-2.2c-5.6,1.8-10.5,5.1-15.8,7.4c-2.5,1.1-5.9-1.5-5.3-4.4c0.6-2.1-0.3-2.5,1.2-4.2
	c0.3-0.2,4.4,0.7,3.2-0.2c-8.3-6.3,3.2-9.5,5.7-15.8c0.2-1.3-0.4-1.1-1.3-0.4c-1.1,0.7-8.5,9.3-9.2,9.2c-2.3-0.3-7.5-0.5-6.1-2.6
	c1.1-1.8,2.9-3.3,4.9-3.9c0.5-0.1,1.2,3.2,2.4,3.5c0.2,0.1,0.1-0.8-0.2-1.2c-4-6.1,7.1-9.1,7-14.7c0.1-1.4-0.5-1.4-1.8,0
	c-1.2,1.4-6.4,6.3-6.8,9.2c-0.4,2.8-4.2,2.3-5.2,5c-0.5,1.4-1.4-1.7-2.9-1.5c-3.5,0.4-5.4-6-7.4-7.4c-5.8-4.6-0.4-11.1,0.4-16.2
	c0.1-1.1-1-2.4-1.3-1.3c-0.4,1.2-0.9,3.1-0.9,4c-0.6,4.4-2,8.4-3.9,12.3c-0.4,0.7-6.3-1.9-5.3-3.5c1.6-2.6,5.2-8.3,4-8.3
	c-1-0.1-1.5,1.5-1.8,2.6c-0.7,3.3-4.5,3.4-6.6,3.1c-2.5-0.6-0.8-8.4-0.4-8.8c1.9-1.7,3.3-7,1.7-6.6c-1.2,0.3-1.9,1.6-2.2,2.6
	c-0.2,0.5,0.4,0.6,0,1.8c-0.4,1.1-1,6.1-1.8,8.4c-0.4,1.1-1.8,2.4-3.1,1.7c-2.6-1.7-8.4-3.7-7.5-6.6c1.2-3.1,1.5-8.6,1.7-10.1
	c0.2-1.5-2.6-2.3-1.7,0c0.9,2.3-1.3,13.4-3.5,14.5c-2.3,0.9-2.9-3.2-4-3.1c-4,0.3-3.6-4.7-3.1-6.1c0.5-1.6,1.2-5.9-0.4-5.7
	c-4.7,0.8-0.3,8.2-2.2,9.2c-2.2,1.2-3.1,6-5.2,4.4c-1.3-1.1-4,1.1-4.4-0.4c-0.4-2.1-0.7-4.9-1.3-6.1c-0.7-1.5-1.1-5.8-2.2-4.4
	c-2.3,3.2,2.3,5.8,1.3,9.7c-0.7,2.7-4,2.8-5.7,1.7c-4.9-4.3-4.7-10.7-6.6-16.2C88.3,38,87.5,31.8,86.1,33.4z M37.8,39.1
	c-0.6,1.5,7.6,9.8,7.1,8.7c-2.1-2.9-5.6-8-6.2-8.7C38.2,38.5,37.9,38.8,37.8,39.1z M127.3,44.8h0.4v-1.3h-0.4V44.8z M148.4,54
	c0.3,0.9,4.1-6,2.6-5.7C148.8,48.9,148,52.2,148.4,54z M154.1,52.7V54c0-0.5-0.1-1,0.4-1.3H154.1z M41.8,58.4
	c-0.2,0.6-1.7-0.5-1.3-1.8C40.6,56.1,42.2,57.2,41.8,58.4z M215.6,79.5c-0.1,0.3-0.1,0.5,0,0.9c0.1,0.3,1.3,2.3,2.2,2.2
	c0.4,0,0.1-0.3,0.4-0.9c0.3-0.6-1.3-1.9-1.7-2.2C216,79.2,215.7,79.3,215.6,79.5z M299.4,82.6c0.2,0.7,3.7-0.6,3.1-0.9
	C301.7,81.2,298.9,80.4,299.4,82.6z M325.3,81.7c-1,1-3.2,1.2-3.1,3.1c0.8,0.8,2.1,0.3,3.1,0.4c1.2-0.3,1.9-1.6,2.2-2.6
	C327,81.8,326.2,81.6,325.3,81.7z M344.7,119c-0.9,1.6-0.5,3.7,0.9,4.8c1.9-0.5,1.8-2.7,1.7-4.4C346.8,118.4,345.3,118.3,344.7,119z
	 M345.5,119.9l0.4,2.6c0-0.5-0.1-1,0.4-1.3C346.1,120.8,345.4,120.5,345.5,119.9z M1.4,129.1c-0.9,0-2,1.6-0.9,1.3
	c3.1-0.8,5.8,1.7,8.4-0.4C9.8,129.2,3.4,129.1,1.4,129.1z M21.5,129.6c-3.7,2.4-7.8-1.8-10.5,0.9c-0.4,0.3,0.9,0.6,1.3,0.9
	c1.4,0.7,3.4-0.5,4.4-0.3c1.5,0.2,3.5-1,5.7-0.1c0.5,0.2,1-0.4,0.9-0.9C23.2,129.6,22.1,129.2,21.5,129.6z M29.9,153.7
	c0.3,1.5,2,3,3.1,2.2C33.4,155.5,29.7,152.4,29.9,153.7z M37.3,176.1h-1.7l0.9,0.9L37.3,176.1z M186.2,181.3
	c-0.3,0.6-0.8,0.4-1.3,0.4C185.5,182.1,185.5,181,186.2,181.3z M184,187.5c1,0.6,2.2,0.6,3.1,1.3C186.3,187.6,184.7,187.5,184,187.5
	z M183.1,191.4l1.3-0.9L183.1,191.4z M311.3,191c0.2,0.8,5.3,6,8.8,6.6c0.8,0.1,0.8-1.7,0-1.7c-0.8,0-1.2-1.3-1.8-1.3
	C315.6,194.3,311.1,189.9,311.3,191z M299.4,197.6c-0.2,0.5-0.3,2.9,0.4,4c0.6,0.9,1.9,2.5,3.1,1.3c1-1.3,0.1-4.1-0.9-5.7
	C301.8,196.8,300.1,196.1,299.4,197.6z M274.8,214.3c-0.2,1.4,0.4,3.7,1.3,3.5c0.6-0.1,1.6,1,1.7,0
	C278.1,216.1,275,213.2,274.8,214.3z M106.3,216.5l-0.9-1.3v0.4L106.3,216.5z M240.6,222.2c1.4-0.3-0.8,3.7-1.3,3.1
	c-0.6-0.9-0.1-4.6,0-3.5C239.4,222.4,240.1,222.3,240.6,222.2z M238.9,227c-0.7,0.7-0.6,2.6,0,3.1c0.2,0.2,0.4,0,0.4-0.4
	C239.4,229,239.3,226.6,238.9,227z M192.3,231.4c0.3,0.7,1,1.4,1.7,0.9c0.8-0.6,1.1-2.5,0.4-2.6
	C193.4,229.4,191.6,229.7,192.3,231.4"/>
<path fill="#FFFFFF" d="M233.2,124.1c3.8,6.9,1.4,15.8-2.6,21.8c-4.1,4.5-9.2,8.6-15.4,7.8c-1.9-1.6-4.7-2.7-5.5-5.3
	c-0.2-6.6,1.1-13,1.6-19.4c0-0.4-0.5-0.9-0.9-0.5c-0.7,0.4-1.3,1-2.3,0.7l-0.3-0.6c0.9-3.2-0.8-8.1,3.3-9.3
	C218.1,116,229.2,115.9,233.2,124.1"/>
<path fill="#FFFFFF" d="M314.2,104.4c-0.1,10.3-1.3,20-2.5,29.8c0.1,0.9,0.8,1.8,0.4,2.8c-2.4,1.6-6.1,1.3-8.8,0.3
	c-2.7-5-3.9-10.8-6.3-15.8l-1.3,17.3c-0.2,1.1-0.8,2-2,2.2c-2.2,0.1-5.7,0.8-6.8-1.6c0.9-10.9,1.2-22.2,3.3-32.7
	c0.3-2,2.5-1.3,3.8-1.7c2.7,0.4,5.8,0.9,6.9,3.9c1.5,2.7,2.5,5.7,3.7,8.6l0.4-0.5c0.2-4.7,0.3-9.4,1.3-13.8c2.1-1.5,5-0.5,7.1,0
	L314.2,104.4"/>
<path fill="#FFFFFF" d="M284.6,113.7c2.5,10.8,1.8,23.8-8.1,30.4c-2.7,1.6-6.8,1.9-9.7,0.3c-6.6-4-7.5-12-6.5-19.2
	c0.8-6.5,4.2-13.2,10.5-16.3c1-0.5,2.4-0.6,3.6-0.4c0.8,0.9,0.2,2.3,0.9,3.3c1.8-1.5,3-5.2,5.9-4
	C283.1,109.3,283.7,111.7,284.6,113.7"/>
<path fill="#FFFFFF" d="M259.7,112.2c0,2.8,0.4,5.9-1.8,7.6c-3.7,0.7-7.9,0.6-11.5,1.7c0.7,0.8,2.5,0.8,2.5,2.1
	c0.4,0.9-0.8,2.2,0.6,2.7c2.8-0.2,5.6-1.2,8.4-0.7c1.1,2.4,0.1,5.5-0.6,7.9l-1.1,0.7l-8,1l-0.5,0.5c-0.2,1.2-0.8,2.8,0,4l8.7-1
	c0.9,0.4,0.9,1.5,1,2.3c0,1.9-0.3,3.6-1.1,5.3l-1.6,0.8l-12,1.6c-2-0.4-3.7-2.5-4.4-4.2l0.2-7c-0.9-0.6-2-1.3-1.9-2.6
	c0.5-2.5-0.5-6.5,2.9-7c0.8-1.4,0.4-3.2,0.7-4.9c-0.7-0.8-2.3,0.1-2.6-1.2c0.8-2.8-0.9-7.6,2.8-8.3c5.4-1.2,11.1-1.8,16.8-2.4
	C258.1,110.9,259.7,110.8,259.7,112.2"/>
<path fill="#4D4D4E" d="M273.8,134.3c-0.6,0.7-1.4,1.5-2.4,1c-3.3-2.4-2-7.6-1.4-11.1c0.4-3.2,2.9-5.6,4.8-8.1
	C277.2,121.6,276.8,129.4,273.8,134.3"/>
<path fill="#FFFFFF" d="M206.1,126.4c2.2,9.9,1.9,21.7-5.8,29c-2.9,2.3-6.7,3.8-10.5,2.4c-5.5-1.9-8-7.8-8.2-13.2
	c-0.1-9.1,1.9-18.4,10.5-23c1.2-0.3,2.6-1.1,3.8-0.4c0.6,0.9,0.4,2.1,0.8,3c2-1.2,3.2-5.2,6-3.7
	C204.6,122.1,205.3,124.3,206.1,126.4"/>
<path fill="#FFFFFF" d="M174.7,127c-0.6,8.2-2.1,15.9-2.3,24.3l0.4,0.4c3.1-0.2,6.1-1.1,9.1-1.1c1,1.3,0.2,3.1,0.3,4.7
	c-0.2,1.4-0.3,2.9-1.3,4l-1.8,0.7l-10.3,1.3c-2.6-1-4.8-3.8-5.8-6.2c0.1-9.9,1.8-19.3,3.2-28.7c2-1.2,4.7-0.7,7.1-0.5
	C173.8,126.1,174.6,126.3,174.7,127"/>
<path fill="#4D4D4E" d="M223.6,127c2.5,2.1,2.7,5.4,2.4,8.3c-0.8,3.2-2.7,7.1-6.2,8.1c0-5,0.9-10,1-15c-0.5-1.9-2.5-2.2-4-2.5
	C219,125.2,221.8,125.5,223.6,127"/>
<path fill="#FFFFFF" d="M163,128.4c0.5,2.5-0.2,4.9-0.8,7.1l-1.4,0.7c-3.7,0.3-7.5,0.9-11.1,1.6c0.6,0.7,1.9,0.7,2.5,1.6
	c0.3,1.1-0.6,2.6,0.5,3.1c2.8-0.2,5.4-1.2,8.4-0.7c0.9,1.1,0.4,3,0.4,4.4c-0.2,1.4-0.4,2.9-1.3,4c-2.9,0.6-6,0.8-8.9,1.4
	c-0.8,1.1-0.7,2.6-0.8,3.9c0.3,1,1.5,0.3,2.2,0.4c2.4-0.3,4.7-1.1,7.3-0.8c1.5,2.1,0.5,5-0.1,7.1l-1,0.9l-12.4,2
	c-2.3-0.1-4.1-2.3-5-4.2c-0.1-2.3,0.1-4.7,0.2-7.1c-0.5-0.9-2-0.6-1.8-2c-0.1-2.3,0-4.6,0.9-6.6c0.6-0.8,1.9-0.3,2.2-1.5
	c-0.2-1.6,0.9-3.1,0-4.6c-1,0.1-2.4,0.1-2.4-1.2c0.6-2.8-0.4-6.8,2.7-7.9c5.3-1.2,10.8-1.8,16.4-2.5
	C160.8,127.6,162.6,127,163,128.4"/>
<path fill="#4D4D4E" d="M195.6,146.8c-0.7,0.8-1.4,1.6-2.5,1.3c-1.3-0.9-2-8.6-1.7-10.4c0.6-3.3,2.4-6.1,4.9-8.5
	C198.7,134.5,198.1,141.9,195.6,146.8"/>
<path fill="#FFFFFF" d="M77.3,133.1c-0.4,7.3-1.7,14.2-2.2,21.5l-1.9,18.5c0.1,1.2,1.2,2.3,0.3,3.5c-2.4,1.3-6.1,1.4-8.6,0.3
	l-1.1-1.6c-2.6-7.2-5.1-14.5-7.6-21.7l-0.4,0.9L54,179.3c-0.1,1.1-1.2,1.6-2.1,1.9c-2.5,0.3-5.9,0.8-7.5-1.3l-0.3-1.8
	c0.8-13.7,2-27.3,3.9-40.5c0.1-0.9,0.6-1.8,1.5-2.2c3.3-0.6,6.7,0.2,9.4,1.7c2.6,4.7,4.7,9.7,6.4,14.7l0.4-0.5l2.3-17.2
	c0.2-1,0.9-2,2-2.3C72.2,131.8,75.8,130.9,77.3,133.1"/>
<path fill="#FFFFFF" d="M140,133c-0.8,7.7-3.9,15.2-10.7,19.8c3,4.2,6.8,8.1,9.3,12.5c0,2.8-3,4.1-5,5.3c-2.7,1.1-3.4-2.3-4.9-3.5
	l-5.8-7.9l-0.4,0.9c-0.1,3-0.2,6-0.8,8.8c-1.2,1.4-3.7,0.6-5.4,0.7c-1.2-0.4-2.8-0.1-3.3-1.5l2.8-29.3c0.4-1.6,0.2-3.4,1.1-4.7
	c2.2-1,5.7-1.1,7.9,0c1,2.3-0.3,4.7-0.2,7.1c-0.2,1.4-0.6,2.7-0.6,4.1l0.3,0.4c5.2-3.1,6-8.9,7.7-13.8c1.2-0.9,3.1-0.4,4.5-0.4
	C138,131.7,139.2,132,140,133"/>
<path fill="#FFFFFF" d="M112.5,139c0.9,2.5,1.6,5.8,0.1,8.2c-1.7,1.7-4.3,2-6.5,1.6c-1.6-1.1,0.7-4.4-2-4c-2.9,3.5-3,8.1-3.5,12.5
	c0.3,1.9-0.2,4.2,1.4,5.4c2.9-0.3,1.5-3.7,3.5-5c1.7-1.3,4.3-1.9,6.4-0.9c1.1,1.3,0.6,3.6,0.5,5.2c-0.9,3.9-3.1,8-7.1,9.8
	c-2,1-4.5,1.5-6.9,0.9c-7-3.3-6.9-11.4-6.7-18.5c1.1-7.3,4.1-16.1,12.3-18.2C107.1,135.2,110.9,135.9,112.5,139"/>
<path fill="#FFFFFF" d="M91,141.2l-0.2,3.9l-3,29c-2.2,2-6.3,1.6-8.8,0.4c-1.5-1.4-0.3-3.5-0.7-5.4c1-9.3,1.7-18.9,3.6-28.2
	c1.8-1.9,5.2-1.7,7.7-1.2C90.2,140.1,91,140.4,91,141.2"/>
<path fill="#FFFFFF" d="M313.5,136c-0.1-0.9,0.4-1.6,1.3-1.8c0.8-0.1,1.6,0.4,1.7,1.3c0.1,0.9-0.4,1.6-1.3,1.8
	C314.4,137.4,313.7,136.9,313.5,136z M315.3,137.6c1-0.2,1.7-1.1,1.6-2.1c-0.2-1.1-1.2-1.7-2.2-1.6c-1,0.2-1.8,1.1-1.6,2.1
	C313.3,137.1,314.3,137.7,315.3,137.6z M314.7,136l0.4-0.1l0.7,0.9l0.4-0.1l-0.7-0.9c0.3-0.1,0.5-0.3,0.5-0.7
	c-0.1-0.4-0.3-0.6-0.9-0.5l-0.8,0.1l0.3,2.1l0.3-0.1L314.7,136z M314.6,135.7l-0.1-0.7l0.4-0.1c0.2,0,0.5,0,0.5,0.3
	c0.1,0.3-0.2,0.4-0.5,0.4L314.6,135.7"/>
<path fill="none" d="M30.7,4.9c-0.5,1-1.2,0.3-1.8,0c-1.8-1-1.7-3.8-2.2-4.4C26.6,0.1,27-0.1,27.2,0C28.5,0.6,31.1,3.8,30.7,4.9z
	 M6.2,12.3c-1.8,0-1,1.2-0.4,2.2c0.5,1,1.9,3.9,4.4,3.5c1.3-0.3,0.7-1.4,0.9-2.2C11.6,14,7.9,12.4,6.2,12.3z M86.1,33.4
	c-1.2,1.6-0.6,3.7,0.4,4.8c3.3,4.5,2.6,10.6,3.9,15.8c0.6,2.2,2.6,4.6,0,7.1c-1.8,1.8-4.1,2.8-5.7,0.9c-3.5-4.9-8.6-15.8-9.2-15.4
	c-0.8,0.5-0.7,1.5-0.4,2.2c1.9,4.1,5.4,7.4,5.3,12.3c-0.2,2.3-7.6,4.5-8.3,2.6c-2.4-5.2-8-12.2-9.7-14.5c-1.7-2.3-2-0.1-0.9,1.3
	c1.1,1.4,5.9,6.7,7.9,11c1,2-5.6-1.3-5.7,0c0,0.5-0.1,1,0.4,1.3c1.3,0.7,1.4,7.9,0,5.7c-2.2-3.4-6-9.8-6.6-10.1
	c-3.5-1.6-2.1-6.6-5.7-6.6c-0.6,0-0.2,0.7,0,0.9c2.8,1.6,6,8.4,8.8,12.7c1.9,3,5.6,5.3,5.2,9.2c-0.1,1.2-1.9,3.6-3.1,2.6
	c-2.1-1.7-2.5,1.4-3.9,1.7c-1.4,0.2-2.6-0.9-3.1-2.2C53.1,70.6,47,68,44.8,61.5c-0.1-0.4-1.6-0.1-2.2-0.9c-0.5-0.7-0.4,0.3-0.4,0.4
	c0.6,4.9,4.5,7.6,7.4,10.1c2.3,1.8,2.7,5.1,4.9,7.4c0.9,0.9-0.1,2,0.4,3.1c0.5,1-0.1,3.7-1.8,4c-1.4,0.2-2.2-1.2-3.5-1.3
	c-4.4-0.5-6.4-7-11-7c-1.5,0,0.5,3.4,1.7,3.5c4.2,0.3,7.4,3.7,10.1,6.6c0.9,1.2-1.9,4.1-3.9,5.3c-2.5,1.3-4-2.6-6.2-3.1
	c-1.8-0.3-3.9-1.3-5.7-0.4C33.8,89.8,33,94,35.1,94c3.2-0.1,6.8,1.6,9.7,3.5c2.3,1.5-1,5.1-3.1,6.6c-4.3,2.9-7.8-2.1-11.4-2.6
	c-1.3-0.2-2.6-1.6-3.9-0.5c-0.3,0.3,0.1,0.9,0.4,1.3c2.3,2.8,5.1,0.1,7.4,1.7c1,0.7-2.8,0-2.2,0.5c2.6,1.6,6.1,1.4,8.8,3.1
	c0.8,0.6,0.1,2.8-1.3,3.1c-3.1,0.3-5.5-1.4-7.9-2.6c-0.6-0.4-0.1,1-0.1,1.3c0,0.6,3.9,1.9,6.2,2.2c1.8,0.2,2.5,1.5,1.8,3.1
	c-2.3,3.9-5.9,1.8-9.2,1.7c-1,0-1.4,1.5-0.4,1.8c3.3,0.6,9.7,0.4,9.2,3.9c-0.5,2.3-3,2.6-4.4,2.6c-0.8,0.1-4.8,0.1-3.1,1.8
	c1.7,1.7,2.5,4.6,1.8,4.4c-3.5-0.8-8.7-0.8-6.2,0.4c2.5,1.2,5.3-0.3,7.9-0.4c1.9-0.1,4-0.5,4,0.9c0,1.7-0.8,4.2,0,4.9
	c2.6,2.5-1.1,4.6-1.3,7c-0.1,0.8-1.7,0.5-2.6,0.4c-3.1,0-4.6,3.5-7.9,3.1c-1-0.2-1,1.3,0,1.3c3.8,0.1,7.9-1.9,12.3-1.8
	c1.2,0.1,1.2,1.5,0.9,2.2c-1,1.5-1.9,2.4-3.5,3.1c-1.9,0.7,5-0.1,5.3,2.6c0.1,2.8-3.2,5-5.3,6.2c-2.1,0.9-6,0.1-6.1,3.1
	c0,1.9,3.6-1.9,5.7-2.2c0.5-0.1,1.1,0,1.3-0.4c1.7-2.4,4.6-1.6,6.6-3.1c1.2-1,2.6,3.6,2.2,4.4c-0.7,2.3,1.1,6.2-1.7,7
	c-3.8,1.1-6,6-10.1,6.1c-1,0,1.5,3.2,2.2,2.6c3-2.3,7.9-7.4,10.1-7c3.1,0.7,6.1,1.9,8.4,4.4c3.6,3.9-4,5.7-5.3,8.8
	c-0.5,1.2,0.9,1.4,1.4,1.9c4.4,3.4,5.9-2.9,9.6-4.1c1.5-0.4,4,1.9,4.4,2.6c1.6,3.5,5.5,3.6,8.4,5.3c1.3,0.9-0.4,6.2-0.4,6.6
	c-0.1,0.4-1.3,2.5-1.8,2.6c-0.4,0.2-0.5-1.7-0.9-0.9c-0.3,0.8-0.9,3.2,0.4,2.6c1.3-0.5,3.2-6.7,6.6-8.8c1.4-0.5,6.9,3.9,6.6,4.8
	c-0.5,1.9,2.9,3.2,0.4,4.8c-0.6,0.3,0.6,1.2,0.4,1.7c-1,3.2-5.4,8.1-5.7,8.4c-0.2,0.3,0.9,0,0.9,0c2.5-0.6,4.2-3.7,6.6-3.5
	c4.3,0.8,2.6,8.1,6.2,7.4c3.1-0.5,3.9-5.9,7.9-5.2c0.8,0.1,0.2-3.6,1.3-4c1.3-0.3,4.5,1.6,4.8,0.9c0.5-1.2,0.1-2.6,0.9-2.6
	c2.6-0.1,7.1,2.8,6.1,3.5c-2,1.5-1.9,6.2-3.5,5.7c-1.5-0.6-3.3-1.9-4.4-1.8c-2.2,0.4-2.9,4.6-2.5,7c0.2,1-0.1,3.7,1.2,3.1
	c2.7-1.4,0.1-4.1,2.2-6.1c1.1-0.9,4.7-0.7,6.1,0.9c1.2,1.6-3.2,4.3-0.4,4.4c2.8,0.1,3.2,3.8,2.6,4.4c-1.3,1.6-2.7,4.2-2.6,5.2
	c0.1,1.1,2-1,3.5-0.4c1.5,0.5,3.9,3.9,3.1,4.9c-1,1-2.5,2.5-2.2,2.6c0.3,0.1,2,0.1,0.9,0.4c-0.2,0.1-0.9,0.5-0.4,0.4
	c1.8-0.2,4.5-5.2,4.4-3.1c0,3.9,5.6,3.1,4,7.9c-0.2,0.7-1.2,3.6,1.3,0c2.5-3.6,3.2,1.3,5.7,0.9c1.7-0.2-0.3,2.4,0.1,3.8
	c0.1,0.3,0.4-0.3,1.2-0.3c0.8,0,2.1,1.7,2.6,1.3c0.5-0.4,1.3-2.5,3.1-2.2c5.4,0.9-1.3,5.8,2.7,7.1c4.1,0.6,8-2.6,11.4-4
	c1.2-0.6,0.4,2.6,2.2,2.6c0.9,0-1.2-2.4-0.4-2.6c1.9-0.6,6.1-0.3,5.7-1.3c-0.8-2.2,1.4-2.5,2.6-3.1c2.2-1.1,3.7,1.5,4.4,1.8
	c0.7,0.3,2,1,1.3-0.5c-0.6-1.5-0.8-4,1.3-4.4c1.7-0.4,3.5,0.9,3.9,1.8c0.4,0.8,2,0.6,0-1.8c-2-2.4,1.3-4.2,2.6-4.8
	c2.2-1.1,4.8,2.2,4.8,1.3c0-2.1-0.3-5.7-0.4-6.2c-1.9-4.8,3.1-1.6,3.7-2.5c0.4-0.4,0.5-4.1,1.1-6.3c0.2-0.8,3.7,0.5,3.1,0
	c-1.5-1.3-2.7-2.7-2.2-4.8c1.4-4.1,4.1,1.1,5.7,0.4c0.6-0.3,1.3-1.1,0.4-1.3c-1.2-0.3-1.9-0.4-3.5-0.9c-2.3-0.7-2.5-3.5-1.7-5.3
	c1.1-1.9,3.3-3.1,5.7-3.1c2.4,0-2.9-2.1-3.5-2.2c-1.9-0.1-3-1.8-3.1-3.5c-0.1-2.3,3.1-2.1,3.5-3.1c0.2-0.5-0.9-0.3-1.7,0
	c-1.9,0.8-2.7-1.4-2.2-2.6c0.8-1.7,2.4-1.6,3.5-2.2c1.3-0.7,3.7-0.4,4.4,0.9c0.2,0.3,0.5,0.3,0.4-0.4c0-0.8-1.7-1.5-1.8-2.2
	c-0.2-2.7,1.8-3.2,4-3.5c1.4-0.1,4.2,0.7,5.2,3.5c0.6,1.6-1.5,2.9-0.9,3.6c1.1,0.8,2.8,0.4,3.5-0.9c0.5-1,1.8,1.4,1.3,2.2
	c-1,1.5-0.5,5.7,0.9,6.2c2.2,0.6,4.7-3.7,4.8-2.2c0.7,4.7,6.2-0.2,7.1,4.4c0.3,1.3-0.1,2.6-0.9,3.5c-0.6,0.8,0.3,1.7,1.4,2.2
	c3.4,1.3,2.2-3.2,4.4-4.4c0.9-0.3,4.6,0.2,6.2,2.2c1.1,1.6,0.6,6.7,2.2,6.1c1.6-0.5-0.5-2.5,0.4-3.5c1-1,3.3-2.4,5.3-1.8
	c2.5,1.3,1.8,4.4,1.7,4.9c-0.3,0.9-1,3.5-0.4,3.1c0.4-0.4,1.3-2.7,0.9-4.4c-0.4-1.5,3.3-1,4.4-1.3c5.5-1.5,3.1,5.1,4.4,7.4
	c0.2,0.3,0.5,0.4,0.9,0c0.6-0.5-1.1-2.3,0-3.1c1.1-0.8,1.9-4.2,4.4-3.9c2.8,0.5,2.1,7.5,2.6,7c1.9-1.6-0.3-3.8,0.4-6.1
	c0.8-2.1,3.8-2.8,5.3-2.2c1.6,0.7,2.5,2.5,3.1,4c0.4,1.2-0.9,5.1,1.7,3.9c0.5-0.2,0.1,0.4,0.4,0.4c0.3,0,0.9-0.9,0.4-1.3
	c-2-2.4-2.6-8-2.2-8.8c1.2-2.1,3.3-2.7,4.8-3.5c6.3-2.3,6.3,5.3,11,7c1.3,0.4,4.7,0.8,4.8-1.8c0.1-1.6,2.5-1.3,2.6-2.2
	c0.2-2.9-3.7-1.6-5.3-2.6c-2.5-2,0.5-5.9,2.2-5.3c3.3,1.4,3-3.2,6.1-2.2c2.8,0.8,4.7,3.8,5.7,3.9c2.3,0.2,2.3,2.9,4.8,2.6
	c2.5-0.3-0.1-2.1-0.9-2.6c-0.8-0.6-6.3-2.8-7.4-6.1c-0.8-3,1.8-7,3.1-6.6c3.6,1.3,6.4,4.3,7,4.8c0.6,0.5,3.2,4.7,2.6,2.6
	c-0.6-2-5.5-5.1-5.3-5.5c0.4-1.2-1.2-1.5-1.7-2.4c-1.3-2.2,2.5-5.5,3.1-5.3c1.6,0.5,2.4,2.9,4.4,2.6c2-0.3-2.2-1.6-2.6-2.6
	c-0.5-1-0.1-2.9,0.9-4.4c1.5-2.5,4.5,1.5,4.4,0.4c-0.2-1.9-3.5-4.1-0.4-5.7c1.1-0.4,4.3,2.4,4.4,1.4c0-1.6-2-2.5-2.7-3.6
	c-0.9-1.9,1.8-4.5,1.8-5.3c0.1-8,9.8-1.4,11.9-2.2c2.1-0.8-2.9-0.6-3.1-0.9c-0.8-1.5-3.8-2-5.7-2.6c-2.8-1-1.8-3.7-0.9-4.8
	c1.3-1.8,0.6-4.7,3.9-5.3c1.3-0.2,3.3-2.1,2.2-2.2c-1.6-0.1-3.7-0.3-4.8-0.4c-1.6-0.2-1.5-1.9-1.3-3.1c0.9-3.3,4.7-0.9,6.9-2.1
	c0.5-0.3,0.7-0.6,1.7-0.3c0.4,0.1,1.6-0.7,1.1-0.7c-1.9,0.1-4.1-0.4-5.7,0.4c-0.7,0.3-1.9-1.6-1.3-2.2c0.9-0.8,2.5-0.4,3.5-0.4
	c0.9-0.1,3-1.5,0-0.9c-3,0.6-3.2-2.9-4-4c-2.7-4.4-0.1-9.4-2.2-14c-0.3-0.9,4.6-2.1,4.8-2.6c0.2-0.5-0.3-0.5-0.9-0.4
	c-0.6,0.1,0.1-2.5-0.9-1.8c-0.9,0.7-4,2.5-4.8,1.8c-2.9-3.2,5-5.6,3.9-6.6c-1.2-1.3-2,0.7-3.5,0c-3-2-6.7-4.5-8.4-7.9
	c-0.2-0.7,2.4-2.3,2.2-3.5c-0.2-1.2-1-0.5-0.9,0c0.1,0.5-0.1,0.8-0.4,0.9c-1.3,0.1-3.7-0.1-3.5-0.9c0.7-3.1,5.4-5.8,3.5-8.8
	c-0.8-1.1-1.1,2-1.8,1.8c-2.6-0.8-5.5,2.1-7.9,1.3c-1.1-0.5-2.1-1.9-0.9-2.6c1-0.9,2.4-1.4,3.1-2.6c0.5-0.7,1-3.1,0-2.6
	c-1.2,0.6-3.2,0.4-3.5,2.2c-0.9,3.4-4.7,0-5.2,0.5c-1,1-3.4,1.1-3.1-0.5c0.4-1.9,3.5-5,2.6-5.2c-0.8-0.2-1.4,1.7-2.2,0.4
	c-1.2-1.9-1.5-5.3-1.3-6.6c0.1-1.2-1.1-1-1.3-0.4c-0.9,2.5-2.8,7.7-3.9,7c-2.2-1.3-5.2-1.1-7.1-2.6c-4.6-4.8,2.1-13.3,0.9-14.9
	c-0.4-0.5-3.1,12.4-8.8,13.2c-9.8-0.3-3-12.1-5.7-16.2c-0.3-0.7-0.7-0.6-0.9,0c-0.2,0.6-1.1,5.5-0.5,5c0.6-0.4,0.6-1.2,1-1
	c0.3,0.2,0.6,6,0,8.7c-0.4,1.5-2.8,2.6-3.5,1.8c-1.8-2.3,1.9-6.1,0.4-6.2c-3.9-0.2-2.2,6.1-3.9,6.2c-2.3,0.1-5.9,0-6.2-0.9
	c-0.6-2.9-2.2-7.4-2.2-7.9c0-0.5-1.3-2.5-1.3-1.7c0,0.8,1.2,5.5,0.9,8.7c-0.3,1.4-2.5,2.1-3.5,1.3c-2.4-2.7-1-7.4-1.3-8.8
	c-0.3-1.3-0.8-0.3-1.3,0.4c-0.5,0.7-0.5,9-1.8,8.8c-3.4-0.3-4.9,3.6-8.8,2.2c-1.8-0.7-3-3.5-3.5-4c-0.5-0.5-0.1,0.4-0.4,0.4
	c-0.3,0.1-0.8-0.9-0.9-0.4c-0.2,2.5,2.7,6.5,1.3,6.6c-2.5,0.1-6.4-1.1-6.6-1.7c-0.2-0.6-0.8,0.6-0.9,0.9c0,0.3,0.1,0.1,0.4,0.4
	c0.3,0.3-0.5,3.4-1.3,3.5c-1,0-2.3-2-3.1,0c-0.2,0.6,0.9,1.9,0.4,2.6c-3.3,3.3-5.1-2.1-8.4-3.1c-1.7-0.3,1.5,2.8,2.6,4
	c2.9,3-1.3,5.8-2.6,6.6c-4.9,2.3-7.4-5.2-9.2-5.3c-1.8-0.1,0.9,1,1.8,2.2c0.9,1.2-1.8-0.6-1.8,0c0,0.8,1.9,1.5,2.6,1.7
	c0.7,0.3,2.1,3.4,2.6,4.4c0.5,1-0.4,1.8-1.3,2.2c-1.5,0.6-2.2,0.7-3.9,0.4c-1.6-0.3-1.2-2.5-2.6-3.9c-1.1-1.6-3.8-5.1-4.8-4.4
	c-1.3,1.2,0.6,2.2,0.4,3.5c-0.4,2.1-3.5,4.2-5.7,3.5c-0.6-0.2-3.5,1-3.1-0.9c0.4-1.8,0.4-6,3.5-7c1.6-0.5,3-1.8,4.4-1.3
	c1.6,0.4,3.5-0.1,3.9-1.3c0.2-0.6,1.1-2.5,0-2.2c-5.6,1.8-10.5,5.1-15.8,7.4c-2.5,1.1-5.9-1.5-5.3-4.4c0.6-2.1-0.3-2.5,1.2-4.2
	c0.3-0.2,4.4,0.7,3.2-0.2c-8.3-6.3,3.2-9.5,5.7-15.8c0.2-1.3-0.4-1.1-1.3-0.4c-1.1,0.7-8.5,9.3-9.2,9.2c-2.3-0.3-7.5-0.5-6.1-2.6
	c1.1-1.8,2.9-3.3,4.9-3.9c0.5-0.1,1.2,3.2,2.4,3.5c0.2,0.1,0.1-0.8-0.2-1.2c-4-6.1,7.1-9.1,7-14.7c0.1-1.4-0.5-1.4-1.8,0
	c-1.2,1.4-6.4,6.3-6.8,9.2c-0.4,2.8-4.2,2.3-5.2,5c-0.5,1.4-1.4-1.7-2.9-1.5c-3.5,0.4-5.4-6-7.4-7.4c-5.8-4.6-0.4-11.1,0.4-16.2
	c0.1-1.1-1-2.4-1.3-1.3c-0.4,1.2-0.9,3.1-0.9,4c-0.6,4.4-2,8.4-3.9,12.3c-0.4,0.7-6.3-1.9-5.3-3.5c1.6-2.6,5.2-8.3,4-8.3
	c-1-0.1-1.5,1.5-1.8,2.6c-0.7,3.3-4.5,3.4-6.6,3.1c-2.5-0.6-0.8-8.4-0.4-8.8c1.9-1.7,3.3-7,1.7-6.6c-1.2,0.3-1.9,1.6-2.2,2.6
	c-0.2,0.5,0.4,0.6,0,1.8c-0.4,1.1-1,6.1-1.8,8.4c-0.4,1.1-1.8,2.4-3.1,1.7c-2.6-1.7-8.4-3.7-7.5-6.6c1.2-3.1,1.5-8.6,1.7-10.1
	c0.2-1.5-2.6-2.3-1.7,0c0.9,2.3-1.3,13.4-3.5,14.5c-2.3,0.9-2.9-3.2-4-3.1c-4,0.3-3.6-4.7-3.1-6.1c0.5-1.6,1.2-5.9-0.4-5.7
	c-4.7,0.8-0.3,8.2-2.2,9.2c-2.2,1.2-3.1,6-5.2,4.4c-1.3-1.1-4,1.1-4.4-0.4c-0.4-2.1-0.7-4.9-1.3-6.1c-0.7-1.5-1.1-5.8-2.2-4.4
	c-2.3,3.2,2.3,5.8,1.3,9.7c-0.7,2.7-4,2.8-5.7,1.7c-4.9-4.3-4.7-10.7-6.6-16.2C88.3,38,87.5,31.8,86.1,33.4z M37.8,39.1
	c-0.6,1.5,7.6,9.8,7.1,8.7c-2.1-2.9-5.6-8-6.2-8.7C38.2,38.5,37.9,38.8,37.8,39.1z M127.3,44.8h0.4v-1.3h-0.4V44.8z M148.4,54
	c0.3,0.9,4.1-6,2.6-5.7C148.8,48.9,148,52.2,148.4,54z M154.1,52.7V54c0-0.5-0.1-1,0.4-1.3H154.1z M41.8,58.4
	c-0.2,0.6-1.7-0.5-1.3-1.8C40.6,56.1,42.2,57.2,41.8,58.4z M215.6,79.5c-0.1,0.3-0.1,0.5,0,0.9c0.1,0.3,1.3,2.3,2.2,2.2
	c0.4,0,0.1-0.3,0.4-0.9c0.3-0.6-1.3-1.9-1.7-2.2C216,79.2,215.7,79.3,215.6,79.5z M299.4,82.6c0.2,0.7,3.7-0.6,3.1-0.9
	C301.7,81.2,298.9,80.4,299.4,82.6z M325.3,81.7c-1,1-3.2,1.2-3.1,3.1c0.8,0.8,2.1,0.3,3.1,0.4c1.2-0.3,1.9-1.6,2.2-2.6
	C327,81.8,326.2,81.6,325.3,81.7z M344.7,119c-0.9,1.6-0.5,3.7,0.9,4.8c1.9-0.5,1.8-2.7,1.7-4.4C346.8,118.4,345.3,118.3,344.7,119z
	 M345.5,119.9l0.4,2.6c0-0.5-0.1-1,0.4-1.3C346.1,120.8,345.4,120.5,345.5,119.9z M1.4,129.1c-0.9,0-2,1.6-0.9,1.3
	c3.1-0.8,5.8,1.7,8.4-0.4C9.8,129.2,3.4,129.1,1.4,129.1z M21.5,129.6c-3.7,2.4-7.8-1.8-10.5,0.9c-0.4,0.3,0.9,0.6,1.3,0.9
	c1.4,0.7,3.4-0.5,4.4-0.3c1.5,0.2,3.5-1,5.7-0.1c0.5,0.2,1-0.4,0.9-0.9C23.2,129.6,22.1,129.2,21.5,129.6z M29.9,153.7
	c0.3,1.5,2,3,3.1,2.2C33.4,155.5,29.7,152.4,29.9,153.7z M37.3,176.1h-1.7l0.9,0.9L37.3,176.1z M186.2,181.3
	c-0.3,0.6-0.8,0.4-1.3,0.4C185.5,182.1,185.5,181,186.2,181.3z M184,187.5c1,0.6,2.2,0.6,3.1,1.3C186.3,187.6,184.7,187.5,184,187.5
	z M183.1,191.4l1.3-0.9L183.1,191.4z M311.3,191c0.2,0.8,5.3,6,8.8,6.6c0.8,0.1,0.8-1.7,0-1.7c-0.8,0-1.2-1.3-1.8-1.3
	C315.6,194.3,311.1,189.9,311.3,191z M299.4,197.6c-0.2,0.5-0.3,2.9,0.4,4c0.6,0.9,1.9,2.5,3.1,1.3c1-1.3,0.1-4.1-0.9-5.7
	C301.8,196.8,300.1,196.1,299.4,197.6z M274.8,214.3c-0.2,1.4,0.4,3.7,1.3,3.5c0.6-0.1,1.6,1,1.7,0
	C278.1,216.1,275,213.2,274.8,214.3z M106.3,216.5l-0.9-1.3v0.4L106.3,216.5z M240.6,222.2c1.4-0.3-0.8,3.7-1.3,3.1
	c-0.6-0.9-0.1-4.6,0-3.5C239.4,222.4,240.1,222.3,240.6,222.2z M238.9,227c-0.7,0.7-0.6,2.6,0,3.1c0.2,0.2,0.4,0,0.4-0.4
	C239.4,229,239.3,226.6,238.9,227z M192.3,231.4c0.3,0.7,1,1.4,1.7,0.9c0.8-0.6,1.1-2.5,0.4-2.6
	C193.4,229.4,191.6,229.7,192.3,231.4"/>
</svg>
