<?xml version="1.0" encoding="utf-8"?>
<!-- Generator: Adobe Illustrator 19.0.1, SVG Export Plug-In . SVG Version: 6.00 Build 0)  -->
<svg version="1.1" id="Layer_1" xmlns="http://www.w3.org/2000/svg" xmlns:xlink="http://www.w3.org/1999/xlink" x="0px" y="0px"
	 width="347.3px" height="221.5px" viewBox="124 -44.7 347.3 221.5" enable-background="new 124 -44.7 347.3 221.5"
	 xml:space="preserve">
<path fill="#4D4D4E" d="M210.1-44.4c-1.2,1.6-0.6,3.7,0.4,4.8c3.3,4.5,2.6,10.6,3.9,15.8c0.6,2.2,2.6,4.6,0,7.1
	c-1.8,1.8-4.1,2.8-5.7,0.9c-3.5-4.9-8.6-15.8-9.2-15.4c-0.8,0.5-0.7,1.5-0.4,2.2c1.9,4.1,5.4,7.4,5.3,12.3c-0.2,2.3-7.6,4.5-8.3,2.6
	c-2.4-5.2-8-12.2-9.7-14.5s-2-0.1-0.9,1.3c1.1,1.4,5.9,6.7,7.9,11c1,2-5.6-1.3-5.7,0c0,0.5-0.1,1,0.4,1.3c1.3,0.7,1.4,7.9,0,5.7
	c-2.2-3.4-6-9.8-6.6-10.1c-3.5-1.6-2.1-6.6-5.7-6.6c-0.6,0-0.2,0.7,0,0.9c2.8,1.6,6,8.4,8.8,12.7c1.9,3,5.6,5.3,5.2,9.2
	c-0.1,1.2-1.9,3.6-3.1,2.6c-2.1-1.7-2.5,1.4-3.9,1.7c-1.4,0.2-2.6-0.9-3.1-2.2c-2.6-6.1-8.7-8.7-10.9-15.2c-0.1-0.4-1.6-0.1-2.2-0.9
	c-0.5-0.7-0.4,0.3-0.4,0.4c0.6,4.9,4.5,7.6,7.4,10.1c2.3,1.8,2.7,5.1,4.9,7.4c0.9,0.9-0.1,2,0.4,3.1c0.5,1-0.1,3.7-1.8,4
	c-1.4,0.2-2.2-1.2-3.5-1.3c-4.4-0.5-6.4-7-11-7c-1.5,0,0.5,3.4,1.7,3.5c4.2,0.3,7.4,3.7,10.1,6.6c0.9,1.2-1.9,4.1-3.9,5.3
	c-2.5,1.3-4-2.6-6.2-3.1c-1.8-0.3-3.9-1.3-5.7-0.4c-0.8,0.6-1.6,4.8,0.5,4.8c3.2-0.1,6.8,1.6,9.7,3.5c2.3,1.5-1,5.1-3.1,6.6
	c-4.3,2.9-7.8-2.1-11.4-2.6c-1.3-0.2-2.6-1.6-3.9-0.5c-0.3,0.3,0.1,0.9,0.4,1.3c2.3,2.8,5.1,0.1,7.4,1.7c1,0.7-2.8,0-2.2,0.5
	c2.6,1.6,6.1,1.4,8.8,3.1c0.8,0.6,0.1,2.8-1.3,3.1c-3.1,0.3-5.5-1.4-7.9-2.6c-0.6-0.4-0.1,1-0.1,1.3c0,0.6,3.9,1.9,6.2,2.2
	c1.8,0.2,2.5,1.5,1.8,3.1c-2.3,3.9-5.9,1.8-9.2,1.7c-1,0-1.4,1.5-0.4,1.8c3.3,0.6,9.7,0.4,9.2,3.9c-0.5,2.3-3,2.6-4.4,2.6
	c-0.8,0.1-4.8,0.1-3.1,1.8c1.7,1.7,2.5,4.6,1.8,4.4c-3.5-0.8-8.7-0.8-6.2,0.4s5.3-0.3,7.9-0.4c1.9-0.1,4-0.5,4,0.9
	c0,1.7-0.8,4.2,0,4.9c2.6,2.5-1.1,4.6-1.3,7c-0.1,0.8-1.7,0.5-2.6,0.4c-3.1,0-4.6,3.5-7.9,3.1c-1-0.2-1,1.3,0,1.3
	c3.8,0.1,7.9-1.9,12.3-1.8c1.2,0.1,1.2,1.5,0.9,2.2c-1,1.5-1.9,2.4-3.5,3.1c-1.9,0.7,5-0.1,5.3,2.6c0.1,2.8-3.2,5-5.3,6.2
	c-2.1,0.9-6,0.1-6.1,3.1c0,1.9,3.6-1.9,5.7-2.2c0.5-0.1,1.1,0,1.3-0.4c1.7-2.4,4.6-1.6,6.6-3.1c1.2-1,2.6,3.6,2.2,4.4
	c-0.7,2.3,1.1,6.2-1.7,7c-3.8,1.1-6,6-10.1,6.1c-1,0,1.5,3.2,2.2,2.6c3-2.3,7.9-7.4,10.1-7c3.1,0.7,6.1,1.9,8.4,4.4
	c3.6,3.9-4,5.7-5.3,8.8c-0.5,1.2,0.9,1.4,1.4,1.9c4.4,3.4,5.9-2.9,9.6-4.1c1.5-0.4,4,1.9,4.4,2.6c1.6,3.5,5.5,3.6,8.4,5.3
	c1.3,0.9-0.4,6.2-0.4,6.6c-0.1,0.4-1.3,2.5-1.8,2.6c-0.4,0.2-0.5-1.7-0.9-0.9c-0.3,0.8-0.9,3.2,0.4,2.6c1.3-0.5,3.2-6.7,6.6-8.8
	c1.4-0.5,6.9,3.9,6.6,4.8c-0.5,1.9,2.9,3.2,0.4,4.8c-0.6,0.3,0.6,1.2,0.4,1.7c-1,3.2-5.4,8.1-5.7,8.4c-0.2,0.3,0.9,0,0.9,0
	c2.5-0.6,4.2-3.7,6.6-3.5c4.3,0.8,2.6,8.1,6.2,7.4c3.1-0.5,3.9-5.9,7.9-5.2c0.8,0.1,0.2-3.6,1.3-4c1.3-0.3,4.5,1.6,4.8,0.9
	c0.5-1.2,0.1-2.6,0.9-2.6c2.6-0.1,7.1,2.8,6.1,3.5c-2,1.5-1.9,6.2-3.5,5.7c-1.5-0.6-3.3-1.9-4.4-1.8c-2.2,0.4-2.9,4.6-2.5,7
	c0.2,1-0.1,3.7,1.2,3.1c2.7-1.4,0.1-4.1,2.2-6.1c1.1-0.9,4.7-0.7,6.1,0.9c1.2,1.6-3.2,4.3-0.4,4.4c2.8,0.1,3.2,3.8,2.6,4.4
	c-1.3,1.6-2.7,4.2-2.6,5.2c0.1,1.1,2-1,3.5-0.4c1.5,0.5,3.9,3.9,3.1,4.9c-1,1-2.5,2.5-2.2,2.6s2,0.1,0.9,0.4
	c-0.2,0.1-0.9,0.5-0.4,0.4c1.8-0.2,4.5-5.2,4.4-3.1c0,3.9,5.6,3.1,4,7.9c-0.2,0.7-1.2,3.6,1.3,0s3.2,1.3,5.7,0.9
	c1.7-0.2-0.3,2.4,0.1,3.8c0.1,0.3,0.4-0.3,1.2-0.3c0.8,0,2.1,1.7,2.6,1.3s1.3-2.5,3.1-2.2c5.4,0.9-1.3,5.8,2.7,7.1
	c4.1,0.6,8-2.6,11.4-4c1.2-0.6,0.4,2.6,2.2,2.6c0.9,0-1.2-2.4-0.4-2.6c1.9-0.6,6.1-0.3,5.7-1.3c-0.8-2.2,1.4-2.5,2.6-3.1
	c2.2-1.1,3.7,1.5,4.4,1.8c0.7,0.3,2,1,1.3-0.5c-0.6-1.5-0.8-4,1.3-4.4c1.7-0.4,3.5,0.9,3.9,1.8c0.4,0.8,2,0.6,0-1.8
	c-2-2.4,1.3-4.2,2.6-4.8c2.2-1.1,4.8,2.2,4.8,1.3c0-2.1-0.3-5.7-0.4-6.2c-1.9-4.8,3.1-1.6,3.7-2.5c0.4-0.4,0.5-4.1,1.1-6.3
	c0.2-0.8,3.7,0.5,3.1,0c-1.5-1.3-2.7-2.7-2.2-4.8c1.4-4.1,4.1,1.1,5.7,0.4c0.6-0.3,1.3-1.1,0.4-1.3c-1.2-0.3-1.9-0.4-3.5-0.9
	c-2.3-0.7-2.5-3.5-1.7-5.3c1.1-1.9,3.3-3.1,5.7-3.1s-2.9-2.1-3.5-2.2c-1.9-0.1-3-1.8-3.1-3.5c-0.1-2.3,3.1-2.1,3.5-3.1
	c0.2-0.5-0.9-0.3-1.7,0c-1.9,0.8-2.7-1.4-2.2-2.6c0.8-1.7,2.4-1.6,3.5-2.2c1.3-0.7,3.7-0.4,4.4,0.9c0.2,0.3,0.5,0.3,0.4-0.4
	c0-0.8-1.7-1.5-1.8-2.2c-0.2-2.7,1.8-3.2,4-3.5c1.4-0.1,4.2,0.7,5.2,3.5c0.6,1.6-1.5,2.9-0.9,3.6c1.1,0.8,2.8,0.4,3.5-0.9
	c0.5-1,1.8,1.4,1.3,2.2c-1,1.5-0.5,5.7,0.9,6.2c2.2,0.6,4.7-3.7,4.8-2.2c0.7,4.7,6.2-0.2,7.1,4.4c0.3,1.3-0.1,2.6-0.9,3.5
	c-0.6,0.8,0.3,1.7,1.4,2.2c3.4,1.3,2.2-3.2,4.4-4.4c0.9-0.3,4.6,0.2,6.2,2.2c1.1,1.6,0.6,6.7,2.2,6.1c1.6-0.5-0.5-2.5,0.4-3.5
	c1-1,3.3-2.4,5.3-1.8c2.5,1.3,1.8,4.4,1.7,4.9c-0.3,0.9-1,3.5-0.4,3.1c0.4-0.4,1.3-2.7,0.9-4.4c-0.4-1.5,3.3-1,4.4-1.3
	c5.5-1.5,3.1,5.1,4.4,7.4c0.2,0.3,0.5,0.4,0.9,0c0.6-0.5-1.1-2.3,0-3.1s1.9-4.2,4.4-3.9c2.8,0.5,2.1,7.5,2.6,7
	c1.9-1.6-0.3-3.8,0.4-6.1c0.8-2.1,3.8-2.8,5.3-2.2c1.6,0.7,2.5,2.5,3.1,4c0.4,1.2-0.9,5.1,1.7,3.9c0.5-0.2,0.1,0.4,0.4,0.4
	s0.9-0.9,0.4-1.3c-2-2.4-2.6-8-2.2-8.8c1.2-2.1,3.3-2.7,4.8-3.5c6.3-2.3,6.3,5.3,11,7c1.3,0.4,4.7,0.8,4.8-1.8
	c0.1-1.6,2.5-1.3,2.6-2.2c0.2-2.9-3.7-1.6-5.3-2.6c-2.5-2,0.5-5.9,2.2-5.3c3.3,1.4,3-3.2,6.1-2.2c2.8,0.8,4.7,3.8,5.7,3.9
	c2.3,0.2,2.3,2.9,4.8,2.6c2.5-0.3-0.1-2.1-0.9-2.6c-0.8-0.6-6.3-2.8-7.4-6.1c-0.8-3,1.8-7,3.1-6.6c3.6,1.3,6.4,4.3,7,4.8
	s3.2,4.7,2.6,2.6c-0.6-2-5.5-5.1-5.3-5.5c0.4-1.2-1.2-1.5-1.7-2.4c-1.3-2.2,2.5-5.5,3.1-5.3c1.6,0.5,2.4,2.9,4.4,2.6
	c2-0.3-2.2-1.6-2.6-2.6c-0.5-1-0.1-2.9,0.9-4.4c1.5-2.5,4.5,1.5,4.4,0.4c-0.2-1.9-3.5-4.1-0.4-5.7c1.1-0.4,4.3,2.4,4.4,1.4
	c0-1.6-2-2.5-2.7-3.6c-0.9-1.9,1.8-4.5,1.8-5.3c0.1-8,9.8-1.4,11.9-2.2s-2.9-0.6-3.1-0.9c-0.8-1.5-3.8-2-5.7-2.6
	c-2.8-1-1.8-3.7-0.9-4.8c1.3-1.8,0.6-4.7,3.9-5.3c1.3-0.2,3.3-2.1,2.2-2.2c-1.6-0.1-3.7-0.3-4.8-0.4c-1.6-0.2-1.5-1.9-1.3-3.1
	c0.9-3.3,4.7-0.9,6.9-2.1c0.5-0.3,0.7-0.6,1.7-0.3c0.4,0.1,1.6-0.7,1.1-0.7c-1.9,0.1-4.1-0.4-5.7,0.4c-0.7,0.3-1.9-1.6-1.3-2.2
	c0.9-0.8,2.5-0.4,3.5-0.4c0.9-0.1,3-1.5,0-0.9s-3.2-2.9-4-4c-2.7-4.4-0.1-9.4-2.2-14c-0.3-0.9,4.6-2.1,4.8-2.6
	c0.2-0.5-0.3-0.5-0.9-0.4s0.1-2.5-0.9-1.8c-0.9,0.7-4,2.5-4.8,1.8c-2.9-3.2,5-5.6,3.9-6.6c-1.2-1.3-2,0.7-3.5,0
	c-3-2-6.7-4.5-8.4-7.9c-0.2-0.7,2.4-2.3,2.2-3.5c-0.2-1.2-1-0.5-0.9,0s-0.1,0.8-0.4,0.9c-1.3,0.1-3.7-0.1-3.5-0.9
	c0.7-3.1,5.4-5.8,3.5-8.8c-0.8-1.1-1.1,2-1.8,1.8c-2.6-0.8-5.5,2.1-7.9,1.3c-1.1-0.5-2.1-1.9-0.9-2.6c1-0.9,2.4-1.4,3.1-2.6
	c0.5-0.7,1-3.1,0-2.6c-1.2,0.6-3.2,0.4-3.5,2.2c-0.9,3.4-4.7,0-5.2,0.5c-1,1-3.4,1.1-3.1-0.5c0.4-1.9,3.5-5,2.6-5.2
	c-0.8-0.2-1.4,1.7-2.2,0.4c-1.2-1.9-1.5-5.3-1.3-6.6c0.1-1.2-1.1-1-1.3-0.4c-0.9,2.5-2.8,7.7-3.9,7c-2.2-1.3-5.2-1.1-7.1-2.6
	c-4.6-4.8,2.1-13.3,0.9-14.9c-0.4-0.5-3.1,12.4-8.8,13.2c-9.8-0.3-3-12.1-5.7-16.2c-0.3-0.7-0.7-0.6-0.9,0c-0.2,0.6-1.1,5.5-0.5,5
	c0.6-0.4,0.6-1.2,1-1c0.3,0.2,0.6,6,0,8.7c-0.4,1.5-2.8,2.6-3.5,1.8c-1.8-2.3,1.9-6.1,0.4-6.2c-3.9-0.2-2.2,6.1-3.9,6.2
	c-2.3,0.1-5.9,0-6.2-0.9c-0.6-2.9-2.2-7.4-2.2-7.9s-1.3-2.5-1.3-1.7s1.2,5.5,0.9,8.7c-0.3,1.4-2.5,2.1-3.5,1.3
	c-2.4-2.7-1-7.4-1.3-8.8c-0.3-1.3-0.8-0.3-1.3,0.4c-0.5,0.7-0.5,9-1.8,8.8c-3.4-0.3-4.9,3.6-8.8,2.2c-1.8-0.7-3-3.5-3.5-4
	S349.3,1,349,1c-0.3,0.1-0.8-0.9-0.9-0.4c-0.2,2.5,2.7,6.5,1.3,6.6c-2.5,0.1-6.4-1.1-6.6-1.7c-0.2-0.6-0.8,0.6-0.9,0.9
	c0,0.3,0.1,0.1,0.4,0.4c0.3,0.3-0.5,3.4-1.3,3.5c-1,0-2.3-2-3.1,0c-0.2,0.6,0.9,1.9,0.4,2.6c-3.3,3.3-5.1-2.1-8.4-3.1
	c-1.7-0.3,1.5,2.8,2.6,4c2.9,3-1.3,5.8-2.6,6.6c-4.9,2.3-7.4-5.2-9.2-5.3c-1.8-0.1,0.9,1,1.8,2.2c0.9,1.2-1.8-0.6-1.8,0
	c0,0.8,1.9,1.5,2.6,1.7c0.7,0.3,2.1,3.4,2.6,4.4s-0.4,1.8-1.3,2.2c-1.5,0.6-2.2,0.7-3.9,0.4c-1.6-0.3-1.2-2.5-2.6-3.9
	c-1.1-1.6-3.8-5.1-4.8-4.4c-1.3,1.2,0.6,2.2,0.4,3.5c-0.4,2.1-3.5,4.2-5.7,3.5c-0.6-0.2-3.5,1-3.1-0.9c0.4-1.8,0.4-6,3.5-7
	c1.6-0.5,3-1.8,4.4-1.3c1.6,0.4,3.5-0.1,3.9-1.3c0.2-0.6,1.1-2.5,0-2.2c-5.6,1.8-10.5,5.1-15.8,7.4c-2.5,1.1-5.9-1.5-5.3-4.4
	c0.6-2.1-0.3-2.5,1.2-4.2c0.3-0.2,4.4,0.7,3.2-0.2c-8.3-6.3,3.2-9.5,5.7-15.8c0.2-1.3-0.4-1.1-1.3-0.4c-1.1,0.7-8.5,9.3-9.2,9.2
	c-2.3-0.3-7.5-0.5-6.1-2.6c1.1-1.8,2.9-3.3,4.9-3.9c0.5-0.1,1.2,3.2,2.4,3.5c0.2,0.1,0.1-0.8-0.2-1.2c-4-6.1,7.1-9.1,7-14.7
	c0.1-1.4-0.5-1.4-1.8,0c-1.2,1.4-6.4,6.3-6.8,9.2c-0.4,2.8-4.2,2.3-5.2,5c-0.5,1.4-1.4-1.7-2.9-1.5c-3.5,0.4-5.4-6-7.4-7.4
	c-5.8-4.6-0.4-11.1,0.4-16.2c0.1-1.1-1-2.4-1.3-1.3c-0.4,1.2-0.9,3.1-0.9,4c-0.6,4.4-2,8.4-3.9,12.3c-0.4,0.7-6.3-1.9-5.3-3.5
	c1.6-2.6,5.2-8.3,4-8.3c-1-0.1-1.5,1.5-1.8,2.6c-0.7,3.3-4.5,3.4-6.6,3.1c-2.5-0.6-0.8-8.4-0.4-8.8c1.9-1.7,3.3-7,1.7-6.6
	c-1.2,0.3-1.9,1.6-2.2,2.6c-0.2,0.5,0.4,0.6,0,1.8c-0.4,1.1-1,6.1-1.8,8.4c-0.4,1.1-1.8,2.4-3.1,1.7c-2.6-1.7-8.4-3.7-7.5-6.6
	c1.2-3.1,1.5-8.6,1.7-10.1s-2.6-2.3-1.7,0c0.9,2.3-1.3,13.4-3.5,14.5c-2.3,0.9-2.9-3.2-4-3.1c-4,0.3-3.6-4.7-3.1-6.1
	c0.5-1.6,1.2-5.9-0.4-5.7c-4.7,0.8-0.3,8.2-2.2,9.2c-2.2,1.2-3.1,6-5.2,4.4c-1.3-1.1-4,1.1-4.4-0.4c-0.4-2.1-0.7-4.9-1.3-6.1
	c-0.7-1.5-1.1-5.8-2.2-4.4c-2.3,3.2,2.3,5.8,1.3,9.7c-0.7,2.7-4,2.8-5.7,1.7c-4.9-4.3-4.7-10.7-6.6-16.2
	C212.3-39.8,211.5-46,210.1-44.4z M161.8-38.7c-0.6,1.5,7.6,9.8,7.1,8.7c-2.1-2.9-5.6-8-6.2-8.7C162.2-39.3,161.9-39,161.8-38.7z
	 M251.3-33h0.4v-1.3h-0.4V-33z M272.4-23.8c0.3,0.9,4.1-6,2.6-5.7C272.8-28.9,272-25.6,272.4-23.8z M278.1-25.1v1.3
	c0-0.5-0.1-1,0.4-1.3H278.1z M165.8-19.4c-0.2,0.6-1.7-0.5-1.3-1.8C164.6-21.7,166.2-20.6,165.8-19.4z M339.6,1.7
	c-0.1,0.3-0.1,0.5,0,0.9c0.1,0.3,1.3,2.3,2.2,2.2c0.4,0,0.1-0.3,0.4-0.9s-1.3-1.9-1.7-2.2C340,1.4,339.7,1.5,339.6,1.7z M423.4,4.8
	c0.2,0.7,3.7-0.6,3.1-0.9C425.7,3.4,422.9,2.6,423.4,4.8z M449.3,3.9c-1,1-3.2,1.2-3.1,3.1c0.8,0.8,2.1,0.3,3.1,0.4
	c1.2-0.3,1.9-1.6,2.2-2.6C451,4,450.2,3.8,449.3,3.9z M468.7,41.2c-0.9,1.6-0.5,3.7,0.9,4.8c1.9-0.5,1.8-2.7,1.7-4.4
	C470.8,40.6,469.3,40.5,468.7,41.2z M469.5,42.1l0.4,2.6c0-0.5-0.1-1,0.4-1.3C470.1,43,469.4,42.7,469.5,42.1z M125.4,51.3
	c-0.9,0-2,1.6-0.9,1.3c3.1-0.8,5.8,1.7,8.4-0.4C133.8,51.4,127.4,51.3,125.4,51.3z M145.5,51.8c-3.7,2.4-7.8-1.8-10.5,0.9
	c-0.4,0.3,0.9,0.6,1.3,0.9c1.4,0.7,3.4-0.5,4.4-0.3c1.5,0.2,3.5-1,5.7-0.1c0.5,0.2,1-0.4,0.9-0.9C147.2,51.8,146.1,51.4,145.5,51.8z
	 M153.9,75.9c0.3,1.5,2,3,3.1,2.2C157.4,77.7,153.7,74.6,153.9,75.9z M161.3,98.3h-1.7l0.9,0.9L161.3,98.3z M310.2,103.5
	c-0.3,0.6-0.8,0.4-1.3,0.4C309.5,104.3,309.5,103.2,310.2,103.5z M308,109.7c1,0.6,2.2,0.6,3.1,1.3
	C310.3,109.8,308.7,109.7,308,109.7z M307.1,113.6l1.3-0.9L307.1,113.6z M435.3,113.2c0.2,0.8,5.3,6,8.8,6.6c0.8,0.1,0.8-1.7,0-1.7
	s-1.2-1.3-1.8-1.3C439.6,116.5,435.1,112.1,435.3,113.2z M423.4,119.8c-0.2,0.5-0.3,2.9,0.4,4c0.6,0.9,1.9,2.5,3.1,1.3
	c1-1.3,0.1-4.1-0.9-5.7C425.8,119,424.1,118.3,423.4,119.8z M398.8,136.5c-0.2,1.4,0.4,3.7,1.3,3.5c0.6-0.1,1.6,1,1.7,0
	C402.1,138.3,399,135.4,398.8,136.5z M230.3,138.7l-0.9-1.3v0.4L230.3,138.7z M364.6,144.4c1.4-0.3-0.8,3.7-1.3,3.1
	c-0.6-0.9-0.1-4.6,0-3.5C363.4,144.6,364.1,144.5,364.6,144.4z M362.9,149.2c-0.7,0.7-0.6,2.6,0,3.1c0.2,0.2,0.4,0,0.4-0.4
	C363.4,151.2,363.3,148.8,362.9,149.2z M316.3,153.6c0.3,0.7,1,1.4,1.7,0.9c0.8-0.6,1.1-2.5,0.4-2.6
	C317.4,151.6,315.6,151.9,316.3,153.6"/>
<path fill="#FFFFFF" d="M357.2,46.3c3.8,6.9,1.4,15.8-2.6,21.8c-4.1,4.5-9.2,8.6-15.4,7.8c-1.9-1.6-4.7-2.7-5.5-5.3
	c-0.2-6.6,1.1-13,1.6-19.4c0-0.4-0.5-0.9-0.9-0.5c-0.7,0.4-1.3,1-2.3,0.7l-0.3-0.6c0.9-3.2-0.8-8.1,3.3-9.3
	C342.1,38.2,353.2,38.1,357.2,46.3"/>
<path fill="#FFFFFF" d="M438.2,26.6c-0.1,10.3-1.3,20-2.5,29.8c0.1,0.9,0.8,1.8,0.4,2.8c-2.4,1.6-6.1,1.3-8.8,0.3
	c-2.7-5-3.9-10.8-6.3-15.8L419.7,61c-0.2,1.1-0.8,2-2,2.2c-2.2,0.1-5.7,0.8-6.8-1.6c0.9-10.9,1.2-22.2,3.3-32.7
	c0.3-2,2.5-1.3,3.8-1.7c2.7,0.4,5.8,0.9,6.9,3.9c1.5,2.7,2.5,5.7,3.7,8.6l0.4-0.5c0.2-4.7,0.3-9.4,1.3-13.8c2.1-1.5,5-0.5,7.1,0
	L438.2,26.6"/>
<path fill="#FFFFFF" d="M408.6,35.9c2.5,10.8,1.8,23.8-8.1,30.4c-2.7,1.6-6.8,1.9-9.7,0.3c-6.6-4-7.5-12-6.5-19.2
	c0.8-6.5,4.2-13.2,10.5-16.3c1-0.5,2.4-0.6,3.6-0.4c0.8,0.9,0.2,2.3,0.9,3.3c1.8-1.5,3-5.2,5.9-4C407.1,31.5,407.7,33.9,408.6,35.9"
	/>
<path fill="#FFFFFF" d="M383.7,34.4c0,2.8,0.4,5.9-1.8,7.6c-3.7,0.7-7.9,0.6-11.5,1.7c0.7,0.8,2.5,0.8,2.5,2.1
	c0.4,0.9-0.8,2.2,0.6,2.7c2.8-0.2,5.6-1.2,8.4-0.7c1.1,2.4,0.1,5.5-0.6,7.9l-1.1,0.7l-8,1l-0.5,0.5c-0.2,1.2-0.8,2.8,0,4l8.7-1
	c0.9,0.4,0.9,1.5,1,2.3c0,1.9-0.3,3.6-1.1,5.3l-1.6,0.8l-12,1.6c-2-0.4-3.7-2.5-4.4-4.2l0.2-7c-0.9-0.6-2-1.3-1.9-2.6
	c0.5-2.5-0.5-6.5,2.9-7c0.8-1.4,0.4-3.2,0.7-4.9c-0.7-0.8-2.3,0.1-2.6-1.2c0.8-2.8-0.9-7.6,2.8-8.3c5.4-1.2,11.1-1.8,16.8-2.4
	C382.1,33.1,383.7,33,383.7,34.4"/>
<path fill="#4D4D4E" d="M397.8,56.5c-0.6,0.7-1.4,1.5-2.4,1c-3.3-2.4-2-7.6-1.4-11.1c0.4-3.2,2.9-5.6,4.8-8.1
	C401.2,43.8,400.8,51.6,397.8,56.5"/>
<path fill="#FFFFFF" d="M330.1,48.6c2.2,9.9,1.9,21.7-5.8,29c-2.9,2.3-6.7,3.8-10.5,2.4c-5.5-1.9-8-7.8-8.2-13.2
	c-0.1-9.1,1.9-18.4,10.5-23c1.2-0.3,2.6-1.1,3.8-0.4c0.6,0.9,0.4,2.1,0.8,3c2-1.2,3.2-5.2,6-3.7C328.6,44.3,329.3,46.5,330.1,48.6"
	/>
<path fill="#FFFFFF" d="M298.7,49.2c-0.6,8.2-2.1,15.9-2.3,24.3l0.4,0.4c3.1-0.2,6.1-1.1,9.1-1.1c1,1.3,0.2,3.1,0.3,4.7
	c-0.2,1.4-0.3,2.9-1.3,4l-1.8,0.7l-10.3,1.3c-2.6-1-4.8-3.8-5.8-6.2c0.1-9.9,1.8-19.3,3.2-28.7c2-1.2,4.7-0.7,7.1-0.5
	C297.8,48.3,298.6,48.5,298.7,49.2"/>
<path fill="#4D4D4E" d="M347.6,49.2c2.5,2.1,2.7,5.4,2.4,8.3c-0.8,3.2-2.7,7.1-6.2,8.1c0-5,0.9-10,1-15c-0.5-1.9-2.5-2.2-4-2.5
	C343,47.4,345.8,47.7,347.6,49.2"/>
<path fill="#FFFFFF" d="M287,50.6c0.5,2.5-0.2,4.9-0.8,7.1l-1.4,0.7c-3.7,0.3-7.5,0.9-11.1,1.6c0.6,0.7,1.9,0.7,2.5,1.6
	c0.3,1.1-0.6,2.6,0.5,3.1c2.8-0.2,5.4-1.2,8.4-0.7c0.9,1.1,0.4,3,0.4,4.4c-0.2,1.4-0.4,2.9-1.3,4c-2.9,0.6-6,0.8-8.9,1.4
	c-0.8,1.1-0.7,2.6-0.8,3.9c0.3,1,1.5,0.3,2.2,0.4c2.4-0.3,4.7-1.1,7.3-0.8c1.5,2.1,0.5,5-0.1,7.1l-1,0.9l-12.4,2
	c-2.3-0.1-4.1-2.3-5-4.2c-0.1-2.3,0.1-4.7,0.2-7.1c-0.5-0.9-2-0.6-1.8-2c-0.1-2.3,0-4.6,0.9-6.6c0.6-0.8,1.9-0.3,2.2-1.5
	c-0.2-1.6,0.9-3.1,0-4.6c-1,0.1-2.4,0.1-2.4-1.2c0.6-2.8-0.4-6.8,2.7-7.9c5.3-1.2,10.8-1.8,16.4-2.5C284.8,49.8,286.6,49.2,287,50.6
	"/>
<path fill="#4D4D4E" d="M319.6,69c-0.7,0.8-1.4,1.6-2.5,1.3c-1.3-0.9-2-8.6-1.7-10.4c0.6-3.3,2.4-6.1,4.9-8.5
	C322.7,56.7,322.1,64.1,319.6,69"/>
<path fill="#FFFFFF" d="M201.3,55.3c-0.4,7.3-1.7,14.2-2.2,21.5l-1.9,18.5c0.1,1.2,1.2,2.3,0.3,3.5c-2.4,1.3-6.1,1.4-8.6,0.3
	l-1.1-1.6c-2.6-7.2-5.1-14.5-7.6-21.7l-0.4,0.9l-1.8,24.8c-0.1,1.1-1.2,1.6-2.1,1.9c-2.5,0.3-5.9,0.8-7.5-1.3l-0.3-1.8
	c0.8-13.7,2-27.3,3.9-40.5c0.1-0.9,0.6-1.8,1.5-2.2c3.3-0.6,6.7,0.2,9.4,1.7c2.6,4.7,4.7,9.7,6.4,14.7l0.4-0.5l2.3-17.2
	c0.2-1,0.9-2,2-2.3C196.2,54,199.8,53.1,201.3,55.3"/>
<path fill="#FFFFFF" d="M264,55.2c-0.8,7.7-3.9,15.2-10.7,19.8c3,4.2,6.8,8.1,9.3,12.5c0,2.8-3,4.1-5,5.3c-2.7,1.1-3.4-2.3-4.9-3.5
	l-5.8-7.9l-0.4,0.9c-0.1,3-0.2,6-0.8,8.8c-1.2,1.4-3.7,0.6-5.4,0.7c-1.2-0.4-2.8-0.1-3.3-1.5l2.8-29.3c0.4-1.6,0.2-3.4,1.1-4.7
	c2.2-1,5.7-1.1,7.9,0c1,2.3-0.3,4.7-0.2,7.1c-0.2,1.4-0.6,2.7-0.6,4.1l0.3,0.4c5.2-3.1,6-8.9,7.7-13.8c1.2-0.9,3.1-0.4,4.5-0.4
	C262,53.9,263.2,54.2,264,55.2"/>
<path fill="#FFFFFF" d="M236.5,61.2c0.9,2.5,1.6,5.8,0.1,8.2c-1.7,1.7-4.3,2-6.5,1.6c-1.6-1.1,0.7-4.4-2-4c-2.9,3.5-3,8.1-3.5,12.5
	c0.3,1.9-0.2,4.2,1.4,5.4c2.9-0.3,1.5-3.7,3.5-5c1.7-1.3,4.3-1.9,6.4-0.9c1.1,1.3,0.6,3.6,0.5,5.2c-0.9,3.9-3.1,8-7.1,9.8
	c-2,1-4.5,1.5-6.9,0.9c-7-3.3-6.9-11.4-6.7-18.5c1.1-7.3,4.1-16.1,12.3-18.2C231.1,57.4,234.9,58.1,236.5,61.2"/>
<path fill="#FFFFFF" d="M215,63.4l-0.2,3.9l-3,29c-2.2,2-6.3,1.6-8.8,0.4c-1.5-1.4-0.3-3.5-0.7-5.4c1-9.3,1.7-18.9,3.6-28.2
	c1.8-1.9,5.2-1.7,7.7-1.2C214.2,62.3,215,62.6,215,63.4"/>
<path fill="#FFFFFF" d="M437.5,58.2c-0.1-0.9,0.4-1.6,1.3-1.8c0.8-0.1,1.6,0.4,1.7,1.3c0.1,0.9-0.4,1.6-1.3,1.8
	C438.4,59.6,437.7,59.1,437.5,58.2z M439.3,59.8c1-0.2,1.7-1.1,1.6-2.1c-0.2-1.1-1.2-1.7-2.2-1.6c-1,0.2-1.8,1.1-1.6,2.1
	C437.3,59.3,438.3,59.9,439.3,59.8z M438.7,58.2l0.4-0.1l0.7,0.9l0.4-0.1l-0.7-0.9c0.3-0.1,0.5-0.3,0.5-0.7
	c-0.1-0.4-0.3-0.6-0.9-0.5l-0.8,0.1l0.3,2.1l0.3-0.1L438.7,58.2z M438.6,57.9l-0.1-0.7l0.4-0.1c0.2,0,0.5,0,0.5,0.3
	c0.1,0.3-0.2,0.4-0.5,0.4L438.6,57.9"/>
<path fill="none" d="M210.1-44.4c-1.2,1.6-0.6,3.7,0.4,4.8c3.3,4.5,2.6,10.6,3.9,15.8c0.6,2.2,2.6,4.6,0,7.1
	c-1.8,1.8-4.1,2.8-5.7,0.9c-3.5-4.9-8.6-15.8-9.2-15.4c-0.8,0.5-0.7,1.5-0.4,2.2c1.9,4.1,5.4,7.4,5.3,12.3c-0.2,2.3-7.6,4.5-8.3,2.6
	c-2.4-5.2-8-12.2-9.7-14.5s-2-0.1-0.9,1.3c1.1,1.4,5.9,6.7,7.9,11c1,2-5.6-1.3-5.7,0c0,0.5-0.1,1,0.4,1.3c1.3,0.7,1.4,7.9,0,5.7
	c-2.2-3.4-6-9.8-6.6-10.1c-3.5-1.6-2.1-6.6-5.7-6.6c-0.6,0-0.2,0.7,0,0.9c2.8,1.6,6,8.4,8.8,12.7c1.9,3,5.6,5.3,5.2,9.2
	c-0.1,1.2-1.9,3.6-3.1,2.6c-2.1-1.7-2.5,1.4-3.9,1.7c-1.4,0.2-2.6-0.9-3.1-2.2c-2.6-6.1-8.7-8.7-10.9-15.2c-0.1-0.4-1.6-0.1-2.2-0.9
	c-0.5-0.7-0.4,0.3-0.4,0.4c0.6,4.9,4.5,7.6,7.4,10.1c2.3,1.8,2.7,5.1,4.9,7.4c0.9,0.9-0.1,2,0.4,3.1c0.5,1-0.1,3.7-1.8,4
	c-1.4,0.2-2.2-1.2-3.5-1.3c-4.4-0.5-6.4-7-11-7c-1.5,0,0.5,3.4,1.7,3.5c4.2,0.3,7.4,3.7,10.1,6.6c0.9,1.2-1.9,4.1-3.9,5.3
	c-2.5,1.3-4-2.6-6.2-3.1c-1.8-0.3-3.9-1.3-5.7-0.4c-0.8,0.6-1.6,4.8,0.5,4.8c3.2-0.1,6.8,1.6,9.7,3.5c2.3,1.5-1,5.1-3.1,6.6
	c-4.3,2.9-7.8-2.1-11.4-2.6c-1.3-0.2-2.6-1.6-3.9-0.5c-0.3,0.3,0.1,0.9,0.4,1.3c2.3,2.8,5.1,0.1,7.4,1.7c1,0.7-2.8,0-2.2,0.5
	c2.6,1.6,6.1,1.4,8.8,3.1c0.8,0.6,0.1,2.8-1.3,3.1c-3.1,0.3-5.5-1.4-7.9-2.6c-0.6-0.4-0.1,1-0.1,1.3c0,0.6,3.9,1.9,6.2,2.2
	c1.8,0.2,2.5,1.5,1.8,3.1c-2.3,3.9-5.9,1.8-9.2,1.7c-1,0-1.4,1.5-0.4,1.8c3.3,0.6,9.7,0.4,9.2,3.9c-0.5,2.3-3,2.6-4.4,2.6
	c-0.8,0.1-4.8,0.1-3.1,1.8c1.7,1.7,2.5,4.6,1.8,4.4c-3.5-0.8-8.7-0.8-6.2,0.4s5.3-0.3,7.9-0.4c1.9-0.1,4-0.5,4,0.9
	c0,1.7-0.8,4.2,0,4.9c2.6,2.5-1.1,4.6-1.3,7c-0.1,0.8-1.7,0.5-2.6,0.4c-3.1,0-4.6,3.5-7.9,3.1c-1-0.2-1,1.3,0,1.3
	c3.8,0.1,7.9-1.9,12.3-1.8c1.2,0.1,1.2,1.5,0.9,2.2c-1,1.5-1.9,2.4-3.5,3.1c-1.9,0.7,5-0.1,5.3,2.6c0.1,2.8-3.2,5-5.3,6.2
	c-2.1,0.9-6,0.1-6.1,3.1c0,1.9,3.6-1.9,5.7-2.2c0.5-0.1,1.1,0,1.3-0.4c1.7-2.4,4.6-1.6,6.6-3.1c1.2-1,2.6,3.6,2.2,4.4
	c-0.7,2.3,1.1,6.2-1.7,7c-3.8,1.1-6,6-10.1,6.1c-1,0,1.5,3.2,2.2,2.6c3-2.3,7.9-7.4,10.1-7c3.1,0.7,6.1,1.9,8.4,4.4
	c3.6,3.9-4,5.7-5.3,8.8c-0.5,1.2,0.9,1.4,1.4,1.9c4.4,3.4,5.9-2.9,9.6-4.1c1.5-0.4,4,1.9,4.4,2.6c1.6,3.5,5.5,3.6,8.4,5.3
	c1.3,0.9-0.4,6.2-0.4,6.6c-0.1,0.4-1.3,2.5-1.8,2.6c-0.4,0.2-0.5-1.7-0.9-0.9c-0.3,0.8-0.9,3.2,0.4,2.6c1.3-0.5,3.2-6.7,6.6-8.8
	c1.4-0.5,6.9,3.9,6.6,4.8c-0.5,1.9,2.9,3.2,0.4,4.8c-0.6,0.3,0.6,1.2,0.4,1.7c-1,3.2-5.4,8.1-5.7,8.4c-0.2,0.3,0.9,0,0.9,0
	c2.5-0.6,4.2-3.7,6.6-3.5c4.3,0.8,2.6,8.1,6.2,7.4c3.1-0.5,3.9-5.9,7.9-5.2c0.8,0.1,0.2-3.6,1.3-4c1.3-0.3,4.5,1.6,4.8,0.9
	c0.5-1.2,0.1-2.6,0.9-2.6c2.6-0.1,7.1,2.8,6.1,3.5c-2,1.5-1.9,6.2-3.5,5.7c-1.5-0.6-3.3-1.9-4.4-1.8c-2.2,0.4-2.9,4.6-2.5,7
	c0.2,1-0.1,3.7,1.2,3.1c2.7-1.4,0.1-4.1,2.2-6.1c1.1-0.9,4.7-0.7,6.1,0.9c1.2,1.6-3.2,4.3-0.4,4.4c2.8,0.1,3.2,3.8,2.6,4.4
	c-1.3,1.6-2.7,4.2-2.6,5.2c0.1,1.1,2-1,3.5-0.4c1.5,0.5,3.9,3.9,3.1,4.9c-1,1-2.5,2.5-2.2,2.6s2,0.1,0.9,0.4
	c-0.2,0.1-0.9,0.5-0.4,0.4c1.8-0.2,4.5-5.2,4.4-3.1c0,3.9,5.6,3.1,4,7.9c-0.2,0.7-1.2,3.6,1.3,0s3.2,1.3,5.7,0.9
	c1.7-0.2-0.3,2.4,0.1,3.8c0.1,0.3,0.4-0.3,1.2-0.3c0.8,0,2.1,1.7,2.6,1.3s1.3-2.5,3.1-2.2c5.4,0.9-1.3,5.8,2.7,7.1
	c4.1,0.6,8-2.6,11.4-4c1.2-0.6,0.4,2.6,2.2,2.6c0.9,0-1.2-2.4-0.4-2.6c1.9-0.6,6.1-0.3,5.7-1.3c-0.8-2.2,1.4-2.5,2.6-3.1
	c2.2-1.1,3.7,1.5,4.4,1.8c0.7,0.3,2,1,1.3-0.5c-0.6-1.5-0.8-4,1.3-4.4c1.7-0.4,3.5,0.9,3.9,1.8c0.4,0.8,2,0.6,0-1.8
	c-2-2.4,1.3-4.2,2.6-4.8c2.2-1.1,4.8,2.2,4.8,1.3c0-2.1-0.3-5.7-0.4-6.2c-1.9-4.8,3.1-1.6,3.7-2.5c0.4-0.4,0.5-4.1,1.1-6.3
	c0.2-0.8,3.7,0.5,3.1,0c-1.5-1.3-2.7-2.7-2.2-4.8c1.4-4.1,4.1,1.1,5.7,0.4c0.6-0.3,1.3-1.1,0.4-1.3c-1.2-0.3-1.9-0.4-3.5-0.9
	c-2.3-0.7-2.5-3.5-1.7-5.3c1.1-1.9,3.3-3.1,5.7-3.1s-2.9-2.1-3.5-2.2c-1.9-0.1-3-1.8-3.1-3.5c-0.1-2.3,3.1-2.1,3.5-3.1
	c0.2-0.5-0.9-0.3-1.7,0c-1.9,0.8-2.7-1.4-2.2-2.6c0.8-1.7,2.4-1.6,3.5-2.2c1.3-0.7,3.7-0.4,4.4,0.9c0.2,0.3,0.5,0.3,0.4-0.4
	c0-0.8-1.7-1.5-1.8-2.2c-0.2-2.7,1.8-3.2,4-3.5c1.4-0.1,4.2,0.7,5.2,3.5c0.6,1.6-1.5,2.9-0.9,3.6c1.1,0.8,2.8,0.4,3.5-0.9
	c0.5-1,1.8,1.4,1.3,2.2c-1,1.5-0.5,5.7,0.9,6.2c2.2,0.6,4.7-3.7,4.8-2.2c0.7,4.7,6.2-0.2,7.1,4.4c0.3,1.3-0.1,2.6-0.9,3.5
	c-0.6,0.8,0.3,1.7,1.4,2.2c3.4,1.3,2.2-3.2,4.4-4.4c0.9-0.3,4.6,0.2,6.2,2.2c1.1,1.6,0.6,6.7,2.2,6.1c1.6-0.5-0.5-2.5,0.4-3.5
	c1-1,3.3-2.4,5.3-1.8c2.5,1.3,1.8,4.4,1.7,4.9c-0.3,0.9-1,3.5-0.4,3.1c0.4-0.4,1.3-2.7,0.9-4.4c-0.4-1.5,3.3-1,4.4-1.3
	c5.5-1.5,3.1,5.1,4.4,7.4c0.2,0.3,0.5,0.4,0.9,0c0.6-0.5-1.1-2.3,0-3.1s1.9-4.2,4.4-3.9c2.8,0.5,2.1,7.5,2.6,7
	c1.9-1.6-0.3-3.8,0.4-6.1c0.8-2.1,3.8-2.8,5.3-2.2c1.6,0.7,2.5,2.5,3.1,4c0.4,1.2-0.9,5.1,1.7,3.9c0.5-0.2,0.1,0.4,0.4,0.4
	s0.9-0.9,0.4-1.3c-2-2.4-2.6-8-2.2-8.8c1.2-2.1,3.3-2.7,4.8-3.5c6.3-2.3,6.3,5.3,11,7c1.3,0.4,4.7,0.8,4.8-1.8
	c0.1-1.6,2.5-1.3,2.6-2.2c0.2-2.9-3.7-1.6-5.3-2.6c-2.5-2,0.5-5.9,2.2-5.3c3.3,1.4,3-3.2,6.1-2.2c2.8,0.8,4.7,3.8,5.7,3.9
	c2.3,0.2,2.3,2.9,4.8,2.6c2.5-0.3-0.1-2.1-0.9-2.6c-0.8-0.6-6.3-2.8-7.4-6.1c-0.8-3,1.8-7,3.1-6.6c3.6,1.3,6.4,4.3,7,4.8
	s3.2,4.7,2.6,2.6c-0.6-2-5.5-5.1-5.3-5.5c0.4-1.2-1.2-1.5-1.7-2.4c-1.3-2.2,2.5-5.5,3.1-5.3c1.6,0.5,2.4,2.9,4.4,2.6
	c2-0.3-2.2-1.6-2.6-2.6c-0.5-1-0.1-2.9,0.9-4.4c1.5-2.5,4.5,1.5,4.4,0.4c-0.2-1.9-3.5-4.1-0.4-5.7c1.1-0.4,4.3,2.4,4.4,1.4
	c0-1.6-2-2.5-2.7-3.6c-0.9-1.9,1.8-4.5,1.8-5.3c0.1-8,9.8-1.4,11.9-2.2s-2.9-0.6-3.1-0.9c-0.8-1.5-3.8-2-5.7-2.6
	c-2.8-1-1.8-3.7-0.9-4.8c1.3-1.8,0.6-4.7,3.9-5.3c1.3-0.2,3.3-2.1,2.2-2.2c-1.6-0.1-3.7-0.3-4.8-0.4c-1.6-0.2-1.5-1.9-1.3-3.1
	c0.9-3.3,4.7-0.9,6.9-2.1c0.5-0.3,0.7-0.6,1.7-0.3c0.4,0.1,1.6-0.7,1.1-0.7c-1.9,0.1-4.1-0.4-5.7,0.4c-0.7,0.3-1.9-1.6-1.3-2.2
	c0.9-0.8,2.5-0.4,3.5-0.4c0.9-0.1,3-1.5,0-0.9s-3.2-2.9-4-4c-2.7-4.4-0.1-9.4-2.2-14c-0.3-0.9,4.6-2.1,4.8-2.6
	c0.2-0.5-0.3-0.5-0.9-0.4s0.1-2.5-0.9-1.8c-0.9,0.7-4,2.5-4.8,1.8c-2.9-3.2,5-5.6,3.9-6.6c-1.2-1.3-2,0.7-3.5,0
	c-3-2-6.7-4.5-8.4-7.9c-0.2-0.7,2.4-2.3,2.2-3.5c-0.2-1.2-1-0.5-0.9,0s-0.1,0.8-0.4,0.9c-1.3,0.1-3.7-0.1-3.5-0.9
	c0.7-3.1,5.4-5.8,3.5-8.8c-0.8-1.1-1.1,2-1.8,1.8c-2.6-0.8-5.5,2.1-7.9,1.3c-1.1-0.5-2.1-1.9-0.9-2.6c1-0.9,2.4-1.4,3.1-2.6
	c0.5-0.7,1-3.1,0-2.6c-1.2,0.6-3.2,0.4-3.5,2.2c-0.9,3.4-4.7,0-5.2,0.5c-1,1-3.4,1.1-3.1-0.5c0.4-1.9,3.5-5,2.6-5.2
	c-0.8-0.2-1.4,1.7-2.2,0.4c-1.2-1.9-1.5-5.3-1.3-6.6c0.1-1.2-1.1-1-1.3-0.4c-0.9,2.5-2.8,7.7-3.9,7c-2.2-1.3-5.2-1.1-7.1-2.6
	c-4.6-4.8,2.1-13.3,0.9-14.9c-0.4-0.5-3.1,12.4-8.8,13.2c-9.8-0.3-3-12.1-5.7-16.2c-0.3-0.7-0.7-0.6-0.9,0c-0.2,0.6-1.1,5.5-0.5,5
	c0.6-0.4,0.6-1.2,1-1c0.3,0.2,0.6,6,0,8.7c-0.4,1.5-2.8,2.6-3.5,1.8c-1.8-2.3,1.9-6.1,0.4-6.2c-3.9-0.2-2.2,6.1-3.9,6.2
	c-2.3,0.1-5.9,0-6.2-0.9c-0.6-2.9-2.2-7.4-2.2-7.9s-1.3-2.5-1.3-1.7s1.2,5.5,0.9,8.7c-0.3,1.4-2.5,2.1-3.5,1.3
	c-2.4-2.7-1-7.4-1.3-8.8c-0.3-1.3-0.8-0.3-1.3,0.4c-0.5,0.7-0.5,9-1.8,8.8c-3.4-0.3-4.9,3.6-8.8,2.2c-1.8-0.7-3-3.5-3.5-4
	S349.3,1,349,1c-0.3,0.1-0.8-0.9-0.9-0.4c-0.2,2.5,2.7,6.5,1.3,6.6c-2.5,0.1-6.4-1.1-6.6-1.7c-0.2-0.6-0.8,0.6-0.9,0.9
	c0,0.3,0.1,0.1,0.4,0.4c0.3,0.3-0.5,3.4-1.3,3.5c-1,0-2.3-2-3.1,0c-0.2,0.6,0.9,1.9,0.4,2.6c-3.3,3.3-5.1-2.1-8.4-3.1
	c-1.7-0.3,1.5,2.8,2.6,4c2.9,3-1.3,5.8-2.6,6.6c-4.9,2.3-7.4-5.2-9.2-5.3c-1.8-0.1,0.9,1,1.8,2.2c0.9,1.2-1.8-0.6-1.8,0
	c0,0.8,1.9,1.5,2.6,1.7c0.7,0.3,2.1,3.4,2.6,4.4s-0.4,1.8-1.3,2.2c-1.5,0.6-2.2,0.7-3.9,0.4c-1.6-0.3-1.2-2.5-2.6-3.9
	c-1.1-1.6-3.8-5.1-4.8-4.4c-1.3,1.2,0.6,2.2,0.4,3.5c-0.4,2.1-3.5,4.2-5.7,3.5c-0.6-0.2-3.5,1-3.1-0.9c0.4-1.8,0.4-6,3.5-7
	c1.6-0.5,3-1.8,4.4-1.3c1.6,0.4,3.5-0.1,3.9-1.3c0.2-0.6,1.1-2.5,0-2.2c-5.6,1.8-10.5,5.1-15.8,7.4c-2.5,1.1-5.9-1.5-5.3-4.4
	c0.6-2.1-0.3-2.5,1.2-4.2c0.3-0.2,4.4,0.7,3.2-0.2c-8.3-6.3,3.2-9.5,5.7-15.8c0.2-1.3-0.4-1.1-1.3-0.4c-1.1,0.7-8.5,9.3-9.2,9.2
	c-2.3-0.3-7.5-0.5-6.1-2.6c1.1-1.8,2.9-3.3,4.9-3.9c0.5-0.1,1.2,3.2,2.4,3.5c0.2,0.1,0.1-0.8-0.2-1.2c-4-6.1,7.1-9.1,7-14.7
	c0.1-1.4-0.5-1.4-1.8,0c-1.2,1.4-6.4,6.3-6.8,9.2c-0.4,2.8-4.2,2.3-5.2,5c-0.5,1.4-1.4-1.7-2.9-1.5c-3.5,0.4-5.4-6-7.4-7.4
	c-5.8-4.6-0.4-11.1,0.4-16.2c0.1-1.1-1-2.4-1.3-1.3c-0.4,1.2-0.9,3.1-0.9,4c-0.6,4.4-2,8.4-3.9,12.3c-0.4,0.7-6.3-1.9-5.3-3.5
	c1.6-2.6,5.2-8.3,4-8.3c-1-0.1-1.5,1.5-1.8,2.6c-0.7,3.3-4.5,3.4-6.6,3.1c-2.5-0.6-0.8-8.4-0.4-8.8c1.9-1.7,3.3-7,1.7-6.6
	c-1.2,0.3-1.9,1.6-2.2,2.6c-0.2,0.5,0.4,0.6,0,1.8c-0.4,1.1-1,6.1-1.8,8.4c-0.4,1.1-1.8,2.4-3.1,1.7c-2.6-1.7-8.4-3.7-7.5-6.6
	c1.2-3.1,1.5-8.6,1.7-10.1s-2.6-2.3-1.7,0c0.9,2.3-1.3,13.4-3.5,14.5c-2.3,0.9-2.9-3.2-4-3.1c-4,0.3-3.6-4.7-3.1-6.1
	c0.5-1.6,1.2-5.9-0.4-5.7c-4.7,0.8-0.3,8.2-2.2,9.2c-2.2,1.2-3.1,6-5.2,4.4c-1.3-1.1-4,1.1-4.4-0.4c-0.4-2.1-0.7-4.9-1.3-6.1
	c-0.7-1.5-1.1-5.8-2.2-4.4c-2.3,3.2,2.3,5.8,1.3,9.7c-0.7,2.7-4,2.8-5.7,1.7c-4.9-4.3-4.7-10.7-6.6-16.2
	C212.3-39.8,211.5-46,210.1-44.4z M161.8-38.7c-0.6,1.5,7.6,9.8,7.1,8.7c-2.1-2.9-5.6-8-6.2-8.7C162.2-39.3,161.9-39,161.8-38.7z
	 M251.3-33h0.4v-1.3h-0.4V-33z M272.4-23.8c0.3,0.9,4.1-6,2.6-5.7C272.8-28.9,272-25.6,272.4-23.8z M278.1-25.1v1.3
	c0-0.5-0.1-1,0.4-1.3H278.1z M165.8-19.4c-0.2,0.6-1.7-0.5-1.3-1.8C164.6-21.7,166.2-20.6,165.8-19.4z M339.6,1.7
	c-0.1,0.3-0.1,0.5,0,0.9c0.1,0.3,1.3,2.3,2.2,2.2c0.4,0,0.1-0.3,0.4-0.9s-1.3-1.9-1.7-2.2C340,1.4,339.7,1.5,339.6,1.7z M423.4,4.8
	c0.2,0.7,3.7-0.6,3.1-0.9C425.7,3.4,422.9,2.6,423.4,4.8z M449.3,3.9c-1,1-3.2,1.2-3.1,3.1c0.8,0.8,2.1,0.3,3.1,0.4
	c1.2-0.3,1.9-1.6,2.2-2.6C451,4,450.2,3.8,449.3,3.9z M468.7,41.2c-0.9,1.6-0.5,3.7,0.9,4.8c1.9-0.5,1.8-2.7,1.7-4.4
	C470.8,40.6,469.3,40.5,468.7,41.2z M469.5,42.1l0.4,2.6c0-0.5-0.1-1,0.4-1.3C470.1,43,469.4,42.7,469.5,42.1z M125.4,51.3
	c-0.9,0-2,1.6-0.9,1.3c3.1-0.8,5.8,1.7,8.4-0.4C133.8,51.4,127.4,51.3,125.4,51.3z M145.5,51.8c-3.7,2.4-7.8-1.8-10.5,0.9
	c-0.4,0.3,0.9,0.6,1.3,0.9c1.4,0.7,3.4-0.5,4.4-0.3c1.5,0.2,3.5-1,5.7-0.1c0.5,0.2,1-0.4,0.9-0.9C147.2,51.8,146.1,51.4,145.5,51.8z
	 M153.9,75.9c0.3,1.5,2,3,3.1,2.2C157.4,77.7,153.7,74.6,153.9,75.9z M161.3,98.3h-1.7l0.9,0.9L161.3,98.3z M310.2,103.5
	c-0.3,0.6-0.8,0.4-1.3,0.4C309.5,104.3,309.5,103.2,310.2,103.5z M308,109.7c1,0.6,2.2,0.6,3.1,1.3
	C310.3,109.8,308.7,109.7,308,109.7z M307.1,113.6l1.3-0.9L307.1,113.6z M435.3,113.2c0.2,0.8,5.3,6,8.8,6.6c0.8,0.1,0.8-1.7,0-1.7
	s-1.2-1.3-1.8-1.3C439.6,116.5,435.1,112.1,435.3,113.2z M423.4,119.8c-0.2,0.5-0.3,2.9,0.4,4c0.6,0.9,1.9,2.5,3.1,1.3
	c1-1.3,0.1-4.1-0.9-5.7C425.8,119,424.1,118.3,423.4,119.8z M398.8,136.5c-0.2,1.4,0.4,3.7,1.3,3.5c0.6-0.1,1.6,1,1.7,0
	C402.1,138.3,399,135.4,398.8,136.5z M230.3,138.7l-0.9-1.3v0.4L230.3,138.7z M364.6,144.4c1.4-0.3-0.8,3.7-1.3,3.1
	c-0.6-0.9-0.1-4.6,0-3.5C363.4,144.6,364.1,144.5,364.6,144.4z M362.9,149.2c-0.7,0.7-0.6,2.6,0,3.1c0.2,0.2,0.4,0,0.4-0.4
	C363.4,151.2,363.3,148.8,362.9,149.2z M316.3,153.6c0.3,0.7,1,1.4,1.7,0.9c0.8-0.6,1.1-2.5,0.4-2.6
	C317.4,151.6,315.6,151.9,316.3,153.6"/>
</svg>
