<?xml version="1.0" encoding="utf-8"?>
<!-- Generator: Adobe Illustrator 19.0.1, SVG Export Plug-In . SVG Version: 6.00 Build 0)  -->
<svg version="1.1"
	 id="svg3029" xmlns:inkscape="http://www.inkscape.org/namespaces/inkscape" xmlns:dc="http://purl.org/dc/elements/1.1/" xmlns:cc="http://creativecommons.org/ns#" xmlns:svg="http://www.w3.org/2000/svg" xmlns:rdf="http://www.w3.org/1999/02/22-rdf-syntax-ns#" xmlns:sodipodi="http://sodipodi.sourceforge.net/DTD/sodipodi-0.dtd" sodipodi:docname="PRICELINELOGO1.svg" inkscape:version="0.48.1 "
	 xmlns="http://www.w3.org/2000/svg" xmlns:xlink="http://www.w3.org/1999/xlink" x="0px" y="0px" viewBox="70 77 209.3 52"
	 enable-background="new 70 77 209.3 52" xml:space="preserve">
<sodipodi:namedview  inkscape:current-layer="layer1" inkscape:document-units="px" inkscape:pageopacity="0.0" inkscape:pageshadow="2" id="base" inkscape:showpageshadow="false" fit-margin-left="0" fit-margin-top="0" showborder="false" showgrid="false" inkscape:cy="17.735109" inkscape:cx="176.62849" inkscape:zoom="1" pagecolor="#ffffff" bordercolor="#666666" borderopacity="1.0" inkscape:window-maximized="0" inkscape:window-y="50" inkscape:window-x="448" inkscape:window-height="458" inkscape:window-width="689" fit-margin-bottom="0" fit-margin-right="0">
	</sodipodi:namedview>
<g id="layer1" transform="matrix(0.99041534,0,0,0.95890411,-96.211779,-318.92265)" inkscape:label="Layer 1" inkscape:groupmode="layer">
	<path id="path2997" inkscape:connector-curvature="0" fill="#4D4D4D" d="M184.5,424c-2.9,0-5.5,1.3-7.7,3.5v-2.2h-9v39.1v2.4v0.3
		h8.9v-0.3h0v-12.6c2.1,2.2,4.8,3.5,7.7,3.5c7,0,12.6-7.5,12.6-16.8C197.1,431.6,191.5,424,184.5,424L184.5,424z M182.3,431.5
		c1.3,0,2.5,0.7,3.5,1.7c0.3,0.3,0.6,0.6,0.8,0.9c0,0,0.1,0.1,0.1,0.1c0,0,0,0,0,0c0.3,0.4,0.5,0.8,0.7,1.3c0,0,0,0.1,0,0.1
		c0,0.1,0.1,0.2,0.1,0.3c0.2,0.4,0.3,0.8,0.5,1.3c0.1,0.5,0.3,1.1,0.3,1.7c0,0,0,0,0,0c0.1,0.6,0.1,1.2,0.1,1.8c0,0,0,0,0,0
		c0,0.6-0.1,1.2-0.1,1.8c0,0,0,0,0,0c-0.1,0.6-0.2,1.1-0.3,1.7c0,0,0,0,0,0c-0.9,3.3-3.2,5.7-5.7,5.7c-0.4,0-0.9-0.1-1.3-0.2
		c-0.4-0.1-0.8-0.3-1.1-0.5c0,0,0,0,0,0c-0.4-0.2-0.7-0.5-1-0.9c-0.3-0.3-0.6-0.7-0.9-1.1c-0.2-0.3-0.4-0.7-0.6-1.1c0,0,0-0.1,0-0.1
		c-0.1-0.2-0.2-0.4-0.2-0.5c0-0.1-0.1-0.2-0.1-0.3v0c-0.5-1.3-0.8-2.8-0.8-4.4C176.1,435.6,178.8,431.5,182.3,431.5L182.3,431.5z"/>
	<path id="rect3031" inkscape:connector-curvature="0" fill="#4D4D4D" d="M199.7,425.2v28.1v2.9v0.3h9v-0.3h0v-19.3
		c1.2-1.9,4.3-3.4,8.2-3.8c0.2,0,0.3,0,0.5,0v-7.9H216c-0.4,0.1-0.8,0.1-1.3,0.2c-0.5,0.1-1.1,0.3-1.6,0.4c0,0-0.1,0-0.1,0l-2.2,1.2
		l-0.6,0.3l-1.5,0.8v-3L199.7,425.2L199.7,425.2z"/>
	<path id="rect3030" inkscape:connector-curvature="0" fill="#4D4D4D" d="M220.4,425.5h9v31h-9V425.5z"/>
	<path id="path3008" inkscape:connector-curvature="0" fill="#4D4D4D" d="M247.5,424.3c-8.5,0-15.4,7.4-15.4,16.6
		s6.9,16.6,15.4,16.6c3.9,0,7.5-1.6,10.2-4.2l-4.3-6.5c-1.3,2.2-3.2,3.6-5.4,3.6c-3.9,0-7.1-4.3-7.1-9.6s3.2-9.6,7.1-9.6
		c2.3,0,4.3,1.5,5.5,3.8l3.8-6.9C254.7,425.7,251.3,424.3,247.5,424.3L247.5,424.3z"/>
	<path id="rect3403" inkscape:connector-curvature="0" fill="#4D4D4D" d="M336,424.9c-3,0-5.7,1-7.6,2.7v-2.1h-9v31h9v-20.8
		c0.9-1.9,2.6-3.2,4.5-3.2c1.9,0,3.6,1.3,4.5,3.1v4.5v1.8v0.3v5.7v8.9h9v-21.4c0-0.5,0-0.9,0-1.4c0-0.1,0-0.2,0-0.3
		c0-0.3,0-0.6,0-0.8c0,0,0-0.1,0-0.1C345.9,428.4,341.4,424.9,336,424.9L336,424.9z"/>
	<path id="path3235" inkscape:connector-curvature="0" fill="#4D4D4D" d="M272.6,423.8c-6,0-11.2,3.7-13.7,9.2
		c0,0.1-0.1,0.2-0.1,0.3c-0.9,2.7-1.3,5.6-1.3,8.4c0,0.3,0,0.6,0,0.9c0.1,1.8,0.5,3.6,0.9,5.4c0.1,0.2,0.2,0.4,0.2,0.6
		c1,2.4,2.5,4.5,4.4,6.2c0,0,0.1,0.1,0.1,0.1c2.6,1.8,5.8,3,9.3,3c6.9,0,12.7-4.2,14.5-10l-6.2-2.7c-1.4,3.2-4,5.4-7.1,5.4
		c-3.4,0-6.3-2.7-7.4-6.5c0-0.1-0.1-0.3-0.1-0.4v-0.2c-0.1-0.3-0.2-0.6-0.2-1c0,0,0,0,0,0h0.2h0.3h14.6h6.8c0-2.1-0.1-4.3-0.5-6.5
		c0-0.1-0.1-0.3-0.1-0.4C285.4,428.8,279.6,423.8,272.6,423.8L272.6,423.8z M272.2,430.6c0.2,0,0.5,0,0.7,0c3.2,0,5.8,2.8,6.3,6.4
		h-12.8C267,433.6,269.3,430.9,272.2,430.6z"/>
	<path id="rect3035" inkscape:connector-curvature="0" fill="#4D4D4D" d="M290.9,412.9h9v43.7h-9V412.9z"/>
	<path id="rect3269" inkscape:connector-curvature="0" fill="#4D4D4D" d="M305.3,425.5h9v31h-9L305.3,425.5z"/>
	<path id="path3060" inkscape:connector-curvature="0" fill="#4D4D4D" d="M363.9,423.8c-6,0-11.2,3.7-13.7,9.2
		c0,0.1-0.1,0.2-0.1,0.3c-0.9,2.7-1.3,5.6-1.3,8.4c0,0.3,0,0.6,0,0.9c0.1,1.8,0.5,3.6,0.9,5.4c0.1,0.2,0.2,0.4,0.2,0.6
		c1,2.4,2.5,4.5,4.4,6.2c0,0,0.1,0.1,0.1,0.1c2.6,1.8,5.8,3,9.3,3c6.9,0,12.7-4.2,14.5-10l-6.2-2.7c-1.4,3.2-4,5.4-7.1,5.4
		c-3.4,0-6.3-2.7-7.4-6.5c0-0.1-0.1-0.3-0.1-0.4v-0.2c-0.1-0.3-0.2-0.6-0.2-1c0,0,0,0,0,0h0.2h0.3h14.6h6.8c0-2.1-0.1-4.3-0.5-6.5
		c0-0.1-0.1-0.3-0.1-0.4C376.6,428.8,370.8,423.8,363.9,423.8L363.9,423.8z M363.4,430.6c0.2,0,0.5,0,0.7,0c3.2,0,5.8,2.8,6.3,6.4
		h-12.8C358.2,433.6,360.5,430.9,363.4,430.6L363.4,430.6z"/>
	<path id="path3255" inkscape:connector-curvature="0" fill="#4D4D4D" d="M229.3,418.2c0,2.6-2,4.7-4.5,4.7c-2.5,0-4.5-2.1-4.5-4.7
		s2-4.7,4.5-4.7C227.3,413.5,229.3,415.6,229.3,418.2z"/>
	<path id="path3271" inkscape:connector-curvature="0" fill="#4D4D4D" d="M314.2,418.2c0,2.6-2,4.7-4.5,4.7c-2.5,0-4.5-2.1-4.5-4.7
		s2-4.7,4.5-4.7C312.1,413.5,314.2,415.6,314.2,418.2z"/>
</g>
</svg>
