<?xml version="1.0" encoding="utf-8"?>
<!-- Generator: Adobe Illustrator 19.0.1, SVG Export Plug-In . SVG Version: 6.00 Build 0)  -->
<svg version="1.1" id="Layer_1" xmlns="http://www.w3.org/2000/svg" xmlns:xlink="http://www.w3.org/1999/xlink" x="0px" y="0px"
	 width="249.6px" height="249.6px" viewBox="0 0 249.6 249.6" enable-background="new 0 0 249.6 249.6" xml:space="preserve">
<circle fill="#323232" cx="124.8" cy="124.8" r="124.8"/>
<g>
	<path fill="#FFFFFF" d="M205.1,88.5c-0.2-4.5-3.4-11.2-11.4-11.2c-7.9,0-11.9,6.7-12.9,10.2c0,0,0,0.1,0,0.1l-17.8,70.8
		c0,0.1,0,0.2-0.1,0.2c0,0-0.8,4-3.2,4c-2.4,0-3.2-4-3.2-4c0-0.1,0-0.2-0.1-0.3l-17.8-70.8c0,0,0-0.1,0-0.1c-1-3.5-5-10.2-12.9-10.2
		c-8.1,0-11.2,6.7-11.4,11.2c0,0.1,0,0.1,0,0.2v79.5c0,2.5,2,4.5,4.5,4.5s4.5-2,4.5-4.5V88.8c0.1-1,0.4-2.5,2.4-2.5
		c3,0,4.1,3.1,4.3,3.6l17.8,70.6c0.8,4,4.3,11.2,12,11.2c7.8,0,11.3-7.2,12-11.2l17.8-70.6c0.1-0.4,1.2-3.6,4.3-3.6
		c0.6,0,2.2,0,2.4,2.5v79.3c0,2.5,2,4.5,4.5,4.5s4.5-2,4.5-4.5V88.7C205.1,88.7,205.1,88.6,205.1,88.5z"/>
	<path fill="#FFFFFF" d="M81.6,145.2c11.8-5.9,19.9-18.1,19.9-32.2c0-19.9-16.1-36-36-36s-36,16.1-36,36c0,14.9,9.1,27.7,22,33.2
		v23.4c0,2.5,2,4.5,4.5,4.5s4.5-2,4.5-4.5v-20.9c1.6,0.2,3.3,0.4,5,0.4c2.2,0,4.4-0.2,6.5-0.6l21.8,21.8c0.9,0.9,2,1.3,3.2,1.3
		s2.3-0.4,3.2-1.3c1.8-1.8,1.8-4.6,0-6.4L81.6,145.2z M60.5,139.6V110c0-2.5-2-4.5-4.5-4.5s-4.5,2-4.5,4.5v26.1
		c-7.8-4.7-13-13.3-13-23.1c0-14.9,12.1-27,27-27s27,12.1,27,27s-12.1,27-27,27C63.8,140,62.1,139.9,60.5,139.6z"/>
</g>
</svg>
