<?xml version="1.0" encoding="utf-8"?>
<!-- Generator: Adobe Illustrator 19.0.1, SVG Export Plug-In . SVG Version: 6.00 Build 0)  -->
<svg version="1.1" id="Layer_1" xmlns="http://www.w3.org/2000/svg" xmlns:xlink="http://www.w3.org/1999/xlink" x="0px" y="0px"
	 width="288px" height="83.7px" viewBox="0 0 288 83.7" enable-background="new 0 0 288 83.7" xml:space="preserve">
<g>
	<path fill="#464646" d="M4.1,28.5c-2.1-2-3.3-4.7-3.3-7.6c0-0.6,0.5-1,1-1h3.7c0.6,0,1,0.5,1,1c0,1.3,0.6,2.8,1.6,3.7
		c1,0.9,2.6,1.4,4.6,1.4c2.1,0,3.5-0.4,4.5-1.4c0.8-0.7,1.1-1.5,1.1-2.6c0-2-1.3-3.1-3.8-3.5c-1.6-0.2-2.8-0.4-4.4-0.7
		C5,17.2,1.9,14.1,1.9,9.4c0-2.4,1-4.7,2.7-6.3C6.8,1,9.5,0,12.7,0c3.2,0,6,1,8,2.9c1.8,1.8,2.8,4,3,6.6c0,0.1,0,0.2,0,0.3
		c0,0.6-0.5,1-1,1c0,0,0,0,0,0h-3.7c-0.5,0-1-0.4-1-1c-0.1-1.1-0.4-2.1-1.1-2.9c-0.9-1.1-2.4-1.6-4.1-1.6c-1.8,0-3.1,0.5-4.1,1.6
		C7.9,7.7,7.7,8.4,7.7,9.3c0,2.2,2,2.8,3.3,3c1.1,0.1,2.1,0.3,3.1,0.5c0.5,0.1,1,0.2,1.5,0.3c5.3,0.8,8.7,4.2,8.7,9.1
		c0,2.4-0.9,4.5-2.7,6.3c-2,2-5.1,3.1-8.7,3.1C9.2,31.4,6.2,30.5,4.1,28.5z M25,81.8c0.1,0.3,0.1,0.7-0.1,0.9
		c-0.2,0.3-0.5,0.4-0.8,0.4h-3.7c-0.4,0-0.8-0.3-1-0.7l-2.1-6.6H7.7l-2.1,6.6c-0.1,0.4-0.5,0.7-1,0.7H1c-0.3,0-0.6-0.2-0.8-0.4
		c-0.2-0.3-0.2-0.6-0.1-0.9l9.3-28.3c0.1-0.4,0.5-0.7,1-0.7h4.3c0.4,0,0.8,0.3,1,0.7L25,81.8z M12.4,60.8l-3,9.6h6.1L12.4,60.8z
		 M56.3,31.4c6.9,0,11-4.4,11-11.9v-18c0-0.6-0.5-1-1-1h-3.6c-0.6,0-1,0.5-1,1v18.1c0,4.3-1.7,6.4-5.3,6.4c-3.6,0-5.4-2.1-5.4-6.4
		V1.6c0-0.6-0.5-1-1-1h-3.6c-0.6,0-1,0.5-1,1v18C45.4,27,49.5,31.4,56.3,31.4z M66.8,72h-3.7c-0.6,0-1,0.5-1,1
		c-0.1,3-2.4,5.2-5.5,5.2c-1.5,0-2.9-0.6-4.1-1.8c-2-2.1-2-5.5-2-8.5c0-3,0-6.4,2-8.5c1.2-1.2,2.5-1.8,4.1-1.8c1.6,0,3,0.6,4,1.7
		c0.8,0.8,1.3,2.1,1.4,3.3c0,0.6,0.5,1,1,1h3.7c0,0,0,0,0,0c0.6,0,1-0.5,1-1c0-0.1,0-0.2,0-0.3c-0.4-5.9-5-10.1-11.2-10.1
		c-3,0-5.8,1.2-8,3.3c-3.5,3.4-3.8,8-3.8,12.4c0,4.4,0.3,9,3.8,12.4c2.2,2.2,5,3.3,8,3.3c6.1,0,11-4.5,11.2-10.6
		c0-0.3-0.1-0.6-0.3-0.8C67.4,72.2,67.1,72,66.8,72z M100.5,31.5c6.1,0,11-4.5,11.2-10.6c0-0.3-0.1-0.6-0.3-0.8
		c-0.2-0.2-0.5-0.3-0.7-0.3H107c-0.6,0-1,0.4-1,1c-0.1,3-2.4,5.2-5.5,5.2c-1.5,0-2.8-0.6-4.1-1.8c-2-2.1-2-5.5-2-8.5
		c0-3,0-6.4,2-8.5c1.2-1.2,2.5-1.8,4.1-1.8c1.6,0,3,0.6,4,1.7c0.8,0.8,1.3,2.1,1.3,3.3c0,0.6,0.5,1,1,1h3.7c0,0,0,0,0,0
		c0.6,0,1-0.5,1-1c0-0.1,0-0.2,0-0.3c-0.4-5.9-5-10.1-11.2-10.1c-3,0-5.8,1.2-8,3.3c-3.5,3.4-3.8,8.2-3.8,12.4c0,4.2,0.3,9,3.8,12.4
		C94.7,30.3,97.4,31.5,100.5,31.5z M112.6,81.8c0.1,0.3,0.1,0.7-0.1,0.9c-0.2,0.3-0.5,0.4-0.8,0.4H108c-0.4,0-0.8-0.3-1-0.7
		l-2.1-6.6h-9.5l-2.1,6.6c-0.1,0.4-0.5,0.7-1,0.7h-3.6c-0.3,0-0.6-0.2-0.8-0.4c-0.2-0.3-0.2-0.6-0.1-0.9L97,53.4
		c0.1-0.4,0.5-0.7,1-0.7h4.3c0.4,0,0.8,0.3,1,0.7L112.6,81.8z M100.1,60.8l-3,9.6h6.1L100.1,60.8z M144.3,31.5
		c6.1,0,11-4.5,11.2-10.6c0-0.3-0.1-0.6-0.3-0.8c-0.2-0.2-0.5-0.3-0.7-0.3h-3.7c-0.6,0-1,0.5-1,1c-0.1,3-2.4,5.2-5.5,5.2
		c-1.5,0-2.8-0.6-4-1.8c-2-2.1-2-5.5-2-8.5c0-3,0-6.4,2-8.5c1.2-1.2,2.5-1.8,4-1.8c1.6,0,3,0.6,4,1.7c0.8,0.8,1.3,2.1,1.3,3.3
		c0,0.6,0.5,1,1,1h3.7c0,0,0,0,0,0c0.6,0,1-0.5,1-1c0-0.1,0-0.2,0-0.3c-0.4-5.9-5-10.1-11.2-10.1c-3,0-5.8,1.2-8,3.3
		c-3.5,3.4-3.8,8.2-3.8,12.4c0,4.2,0.3,9,3.8,12.4C138.5,30.3,141.3,31.5,144.3,31.5z M154.7,67.9c0,3.3-0.2,7.5-2.1,10.5
		c-1.9,3.1-5.4,4.8-9.9,4.8h-8.4c-0.6,0-1-0.5-1-1V53.8c0-0.6,0.5-1,1-1h8.4c4.5,0,8,1.7,10,4.9C154.5,60.5,154.7,64.3,154.7,67.9z
		 M147.3,76.1c1.6-1.7,1.7-4.8,1.7-8.2c0-3.4-0.1-6.5-1.8-8.2c-1-1-2.5-1.6-4.5-1.6h-3.8v19.7h3.8C144.7,77.8,146.3,77.2,147.3,76.1
		z M178.4,30.9h18.7c0.6,0,1-0.5,1-1v-3.3c0-0.6-0.5-1-1-1H183v-7.7h10.4c0.6,0,1-0.5,1-1v-3.4c0-0.6-0.5-1-1-1H183V5.9h14.2
		c0.6,0,1-0.5,1-1V1.6c0-0.6-0.5-1-1-1h-18.7c-0.6,0-1,0.5-1,1v28.3C177.4,30.5,177.9,30.9,178.4,30.9z M178.4,83.1h18.7
		c0.6,0,1-0.5,1-1v-3.3c0-0.6-0.5-1-1-1H183v-7.7h10.4c0.6,0,1-0.5,1-1v-3.4c0-0.6-0.5-1-1-1H183v-6.6h14.2c0.6,0,1-0.5,1-1v-3.3
		c0-0.6-0.5-1-1-1h-18.7c-0.6,0-1,0.5-1,1v28.3C177.4,82.7,177.9,83.1,178.4,83.1z M232,31.4c3.6,0,6.7-1.1,8.7-3.1
		c1.8-1.7,2.7-3.8,2.7-6.3c0-4.8-3.3-8.3-8.7-9.1c-0.5-0.1-1-0.2-1.5-0.3c-1-0.2-2-0.3-3.1-0.5c-1.2-0.2-3.3-0.8-3.3-3
		c0-1,0.2-1.7,0.8-2.3c1-1.1,2.3-1.6,4.1-1.6c1.8,0,3.2,0.6,4.1,1.6c0.7,0.8,1,1.7,1.1,2.9c0,0.5,0.5,1,1,1h3.7c0,0,0,0,0,0
		c0.6,0,1-0.5,1-1c0-0.1,0-0.2,0-0.3c-0.1-2.6-1.1-4.8-3-6.6c-2-1.9-4.8-2.9-8-2.9c-3.2,0-5.9,1-8,3.1C222,4.7,221,7,221,9.4
		c0,4.6,3,7.7,8.3,8.5c1.5,0.2,2.8,0.4,4.4,0.7c2.5,0.4,3.8,1.6,3.8,3.5c0,1.1-0.3,1.9-1.1,2.6c-1,0.9-2.4,1.4-4.5,1.4
		c-2,0-3.6-0.5-4.6-1.4c-1-1-1.6-2.4-1.6-3.7c0-0.6-0.5-1-1-1H221c-0.6,0-1,0.5-1,1c0,2.8,1.2,5.6,3.3,7.6
		C225.4,30.5,228.3,31.4,232,31.4z M226.2,82.1V65.8l2.9,8.1c0.1,0.4,0.5,0.7,1,0.7h3.2c0.4,0,0.8-0.3,1-0.7l2.9-8.1v16.4
		c0,0.6,0.5,1,1,1h3.4c0.6,0,1-0.5,1-1V53.8c0-0.6-0.5-1-1-1h-4.4c-0.4,0-0.8,0.3-1,0.7l-4.5,13.1l-4.6-13.1c-0.1-0.4-0.5-0.7-1-0.7
		h-4.4c-0.6,0-1,0.5-1,1v28.3c0,0.6,0.5,1,1,1h3.4C225.7,83.1,226.2,82.7,226.2,82.1z M275.8,31.4c3.6,0,6.7-1.1,8.7-3.1
		c1.8-1.7,2.7-3.8,2.7-6.3c0-4.8-3.3-8.3-8.7-9.1c-0.5-0.1-1-0.2-1.5-0.3c-1-0.2-2-0.3-3.1-0.5c-1.2-0.2-3.3-0.8-3.3-3
		c0-1,0.2-1.7,0.8-2.3c1-1.1,2.3-1.6,4.1-1.6c1.8,0,3.2,0.6,4.1,1.6c0.7,0.8,1,1.7,1.1,2.9c0,0.5,0.5,1,1,1h3.7c0,0,0,0,0,0
		c0.6,0,1-0.5,1-1c0-0.1,0-0.2,0-0.3c-0.1-2.6-1.1-4.8-3-6.6c-2-1.9-4.8-2.9-8-2.9c-3.2,0-5.9,1-8,3.1c-1.7,1.6-2.7,3.9-2.7,6.3
		c0,4.6,3,7.7,8.3,8.5c1.5,0.2,2.8,0.4,4.4,0.7c2.5,0.4,3.8,1.6,3.8,3.5c0,1.1-0.3,1.9-1.1,2.6c-1,0.9-2.4,1.4-4.5,1.4
		c-2,0-3.6-0.5-4.6-1.4c-1-1-1.6-2.4-1.6-3.7c0-0.6-0.5-1-1-1h-3.7c-0.6,0-1,0.5-1,1c0,2.8,1.2,5.6,3.3,7.6
		C269.2,30.5,272.1,31.4,275.8,31.4z M287.9,53.3c-0.2-0.3-0.5-0.5-0.9-0.5h-3.8c-0.4,0-0.7,0.2-0.9,0.5l-6.7,11.9l-6.7-11.9
		c-0.2-0.3-0.5-0.5-0.9-0.5h-4c-0.4,0-0.7,0.2-0.9,0.5c-0.2,0.3-0.2,0.7,0,1l9.6,16.6v11.2c0,0.6,0.5,1,1,1h3.6c0.6,0,1-0.5,1-1
		V70.9l9.6-16.6C288,54,288,53.6,287.9,53.3z M35.3,82.3v-81c0-0.5-0.4-0.8-0.8-0.8c-0.5,0-0.8,0.4-0.8,0.8v81
		c0,0.5,0.4,0.8,0.8,0.8C34.9,83.1,35.3,82.8,35.3,82.3z M79.1,82.3v-81c0-0.5-0.4-0.8-0.8-0.8c-0.5,0-0.8,0.4-0.8,0.8v81
		c0,0.5,0.4,0.8,0.8,0.8C78.7,83.1,79.1,82.8,79.1,82.3z M254.4,82.3v-81c0-0.5-0.4-0.8-0.8-0.8c-0.5,0-0.8,0.4-0.8,0.8v81
		c0,0.5,0.4,0.8,0.8,0.8C254,83.1,254.4,82.8,254.4,82.3z M210.6,82.3v-81c0-0.5-0.4-0.8-0.8-0.8c-0.5,0-0.8,0.4-0.8,0.8v81
		c0,0.5,0.4,0.8,0.8,0.8C210.2,83.1,210.6,82.8,210.6,82.3z M166.7,82.3v-81c0-0.5-0.4-0.8-0.8-0.8c-0.5,0-0.8,0.4-0.8,0.8v81
		c0,0.5,0.4,0.8,0.8,0.8C166.4,83.1,166.7,82.8,166.7,82.3z M122.9,82.3v-81c0-0.5-0.4-0.8-0.8-0.8c-0.5,0-0.8,0.4-0.8,0.8v81
		c0,0.5,0.4,0.8,0.8,0.8C122.5,83.1,122.9,82.8,122.9,82.3z"/>
</g>
</svg>
