<?xml version="1.0" encoding="utf-8"?>
<!-- Generator: Adobe Illustrator 19.0.1, SVG Export Plug-In . SVG Version: 6.00 Build 0)  -->
<svg version="1.1" id="The_Weather_Channel" xmlns="http://www.w3.org/2000/svg" xmlns:xlink="http://www.w3.org/1999/xlink"
	 x="0px" y="0px" width="89.9px" height="90.1px" viewBox="0 0 89.9 90.1" enable-background="new 0 0 89.9 90.1"
	 xml:space="preserve">
<rect fill="#474647" width="89.9" height="90.1"/>
<g>
	<path fill="#FFFFFF" d="M14,26.5v12.7h-2.7V26.5H6.5v-2.4H19v2.4H14z"/>
	<path fill="#FFFFFF" d="M27.7,39.1v-6.8c0-0.7-0.2-1.2-0.6-1.6c-0.4-0.4-1-0.6-1.7-0.6c-0.4,0-0.9,0.1-1.3,0.3
		c-0.4,0.2-0.7,0.5-0.9,0.8v7.9h-2.6V24l2.6-0.6v5.4c0.7-0.6,1.6-0.9,2.7-0.9c1.4,0,2.4,0.4,3.2,1.1c0.8,0.8,1.1,1.9,1.1,3.3v6.8
		H27.7z"/>
	<path fill="#FFFFFF" d="M40.7,38.2c0,0.1,0.1,0.2,0.1,0.2c0,0.6-2.2,1.3-3.9,1.3c-2.9,0-4.9-1.6-4.9-5.7c0-3.5,1.9-5.9,4.8-5.9
		c3.7,0,4.4,3.3,4.4,6c0,0.4-0.1,0.5-0.5,0.5h-5.9c0,1.2,0.3,2.7,2.4,2.7c1.6,0,2.5-0.7,2.8-0.7c0.1,0,0.2,0.1,0.2,0.2L40.7,38.2z
		 M38.1,32.6c0-0.9-0.1-2.4-1.6-2.4c-1.7,0-1.8,1.8-1.9,2.4H38.1z"/>
	<path fill="#FFFFFF" d="M32.8,59.1c0,0.1,0.1,0.2,0.1,0.2c0,0.6-2.2,1.3-3.9,1.3C26,60.6,24,59,24,54.9c0-3.5,1.9-5.9,4.8-5.9
		c3.7,0,4.4,3.3,4.4,6c0,0.4-0.1,0.5-0.5,0.5h-5.9c0,1.2,0.3,2.7,2.4,2.7c1.6,0,2.5-0.7,2.8-0.7c0.1,0,0.2,0.1,0.2,0.2L32.8,59.1z
		 M30.2,53.5c0-0.9-0.1-2.4-1.6-2.4c-1.7,0-1.8,1.8-1.9,2.4H30.2z"/>
	<path fill="#FFFFFF" d="M76.5,59.1c0,0.1,0.1,0.2,0.1,0.2c0,0.6-2.2,1.3-3.9,1.3c-2.9,0-4.9-1.6-4.9-5.7c0-3.5,1.9-5.9,4.8-5.9
		c3.7,0,4.4,3.3,4.4,6c0,0.4-0.1,0.5-0.5,0.5h-5.9c0,1.2,0.3,2.7,2.4,2.7c1.6,0,2.5-0.7,2.8-0.7c0.1,0,0.2,0.1,0.2,0.2L76.5,59.1z
		 M73.9,53.5c0-0.9-0.1-2.4-1.6-2.4c-1.7,0-1.8,1.8-1.9,2.4H73.9z"/>
	<path fill="#FFFFFF" d="M77.5,80.1c0,0.1,0.1,0.2,0.1,0.2c0,0.6-2.2,1.3-3.9,1.3c-2.9,0-4.9-1.6-4.9-5.7c0-3.5,1.9-5.9,4.8-5.9
		c3.7,0,4.4,3.3,4.4,6c0,0.4-0.1,0.5-0.5,0.5h-5.9c0,1.2,0.3,2.7,2.4,2.7c1.6,0,2.5-0.7,2.8-0.7c0.1,0,0.2,0.1,0.2,0.2L77.5,80.1z
		 M74.9,74.5c0-0.9-0.1-2.4-1.6-2.4c-1.7,0-1.8,1.8-1.9,2.4H74.9z"/>
	<path fill="#FFFFFF" d="M19.9,46c0.1-0.4,0.2-0.4,0.3-0.4c0.1,0,0.2,0,0.3,0l1.6,0.3c0.2,0,0.4,0.1,0.4,0.2c0,0.1-0.1,0.3-0.1,0.5
		l-3.1,13.4c-0.1,0.3-0.1,0.4-0.5,0.4h-1.8c-0.4,0-0.4-0.1-0.5-0.4l-1.4-7.1c-0.2-0.9-0.4-2.2-0.5-3.6h0c-0.1,1.4-0.3,2.7-0.5,3.6
		l-1.7,7.1c-0.1,0.3-0.1,0.4-0.5,0.4h-1.8c-0.3,0-0.4-0.1-0.5-0.4L7,46.6c0-0.1-0.1-0.3-0.1-0.5c0-0.1,0.2-0.2,0.4-0.2L9,45.6
		c0.1,0,0.2,0,0.3,0c0.1,0,0.2,0,0.3,0.4l1.3,6.8c0.2,1.2,0.4,2.9,0.5,4h0c0.1-1.2,0.4-2.9,0.7-4l1.5-6.4c0.1-0.4,0.1-0.6,0.6-0.6
		h1.4c0.3,0,0.4,0.2,0.5,0.6l1.5,6.4c0.3,1.1,0.5,2.8,0.6,4h0c0.1-1.1,0.3-2.8,0.5-4L19.9,46z"/>
	<path fill="#FFFFFF" d="M42.1,59c-0.2,0.4-0.6,0.7-1.2,0.9c-0.6,0.2-1.2,0.4-1.8,0.4c-1.2,0-2.1-0.3-2.8-0.9c-0.7-0.6-1-1.4-1-2.5
		c0-1.3,0.5-2.3,1.4-3c1-0.7,2.3-1.1,4.1-1.1c0.3,0,0.7,0.1,1.1,0.2c0-1.3-0.8-1.9-2.5-1.9c-1,0-1.8,0.2-2.4,0.5l-0.6-2
		c0.9-0.4,1.9-0.6,3.2-0.6c1.7,0,2.9,0.4,3.7,1.1c0.8,0.8,1.2,2.2,1.2,4.3v2.3c0,1.5,0.3,2.4,0.9,2.8c-0.2,0.4-0.4,0.6-0.7,0.7
		c-0.3,0.1-0.6,0.1-0.9,0.1c-0.4,0-0.7-0.1-1-0.4C42.4,59.6,42.2,59.3,42.1,59z M41.8,55c-0.4-0.1-0.8-0.1-1-0.1c-2,0-3,0.7-3,2
		c0,1,0.6,1.5,1.7,1.5c1.5,0,2.3-0.8,2.3-2.3V55z"/>
	<path fill="#FFFFFF" d="M47.5,51.2h-1.3v-2.1h1.3v-2.2l2.6-0.9v3.2h3v2.1h-3V56c0,0.8,0.1,1.3,0.4,1.7c0.2,0.3,0.7,0.5,1.3,0.5
		c0.6,0,1.2-0.2,1.7-0.5V60c-0.6,0.2-1.4,0.3-2.5,0.3c-1.1,0-1.9-0.3-2.5-0.9c-0.6-0.6-0.9-1.5-0.9-2.6V51.2z"/>
	<path fill="#FFFFFF" d="M62.6,60.1v-6.8c0-0.7-0.2-1.2-0.6-1.6c-0.4-0.4-1-0.6-1.7-0.6c-0.4,0-0.9,0.1-1.3,0.3
		c-0.4,0.2-0.7,0.5-0.9,0.8v7.9h-2.6V45l2.6-0.6v5.4c0.7-0.6,1.6-0.9,2.7-0.9c1.4,0,2.4,0.4,3.2,1.1c0.8,0.8,1.1,1.9,1.1,3.3v6.8
		H62.6z"/>
	<path fill="#FFFFFF" d="M85.8,51.5c-0.5-0.3-1-0.4-1.5-0.4c-0.6,0-1.1,0.3-1.6,0.8c-0.5,0.5-0.7,1.2-0.7,2v6.2h-2.6v-11H82v1
		c0.7-0.8,1.7-1.2,2.9-1.2c0.9,0,1.5,0.1,2,0.4L85.8,51.5z"/>
	<path fill="#FFFFFF" d="M18.2,66.9l-1.1,2.2c-0.6-0.6-1.5-0.9-2.9-0.9c-1.2,0-2.3,0.5-3.1,1.6c-0.8,1-1.2,2.4-1.2,4
		c0,1.6,0.4,2.9,1.1,3.8c0.7,0.9,1.7,1.4,3,1.4c1.4,0,2.5-0.5,3.3-1.5l1.2,2.2c-1.1,1.1-2.7,1.7-4.8,1.7s-3.7-0.7-4.9-2.1
		c-1.2-1.4-1.7-3.3-1.7-5.6c0-2.2,0.6-4.1,1.9-5.6c1.3-1.5,2.9-2.2,4.9-2.2C15.8,65.8,17.1,66.2,18.2,66.9z"/>
	<path fill="#FFFFFF" d="M27.7,81.1v-6.8c0-0.7-0.2-1.2-0.6-1.6c-0.4-0.4-1-0.6-1.7-0.6c-0.4,0-0.9,0.1-1.3,0.3
		c-0.4,0.2-0.7,0.5-0.9,0.8v7.9h-2.6V66l2.6-0.6v5.4c0.7-0.6,1.6-0.9,2.7-0.9c1.4,0,2.4,0.4,3.2,1.1c0.8,0.8,1.1,1.9,1.1,3.3v6.8
		H27.7z"/>
	<path fill="#FFFFFF" d="M39.2,80c-0.2,0.4-0.6,0.7-1.2,0.9c-0.6,0.2-1.2,0.4-1.8,0.4c-1.2,0-2.1-0.3-2.8-0.9c-0.7-0.6-1-1.4-1-2.5
		c0-1.3,0.5-2.3,1.4-3c1-0.7,2.3-1.1,4.1-1.1c0.3,0,0.7,0.1,1.1,0.2c0-1.3-0.8-1.9-2.5-1.9c-1,0-1.8,0.2-2.4,0.5l-0.6-2
		c0.9-0.4,1.9-0.6,3.2-0.6c1.7,0,2.9,0.4,3.7,1.1c0.8,0.8,1.2,2.2,1.2,4.3v2.3c0,1.5,0.3,2.4,0.9,2.8c-0.2,0.4-0.4,0.6-0.7,0.7
		c-0.3,0.1-0.6,0.1-0.9,0.1c-0.4,0-0.7-0.1-1-0.4C39.5,80.6,39.3,80.3,39.2,80z M38.9,76c-0.4-0.1-0.8-0.1-1-0.1c-2,0-3,0.7-3,2
		c0,1,0.6,1.5,1.7,1.5c1.5,0,2.3-0.8,2.3-2.3V76z"/>
	<path fill="#FFFFFF" d="M51.3,81.1v-6.3c0-0.9-0.2-1.6-0.5-2c-0.4-0.4-0.9-0.6-1.8-0.6c-0.4,0-0.8,0.1-1.2,0.3
		c-0.4,0.2-0.8,0.5-1,0.8v7.9h-2.6v-11h1.8l0.5,1c0.7-0.8,1.7-1.2,3.1-1.2c1.3,0,2.3,0.4,3.1,1.2c0.8,0.8,1.1,1.9,1.1,3.3v6.7H51.3z
		"/>
	<path fill="#FFFFFF" d="M63.7,81.1v-6.3c0-0.9-0.2-1.6-0.5-2c-0.4-0.4-0.9-0.6-1.8-0.6c-0.4,0-0.8,0.1-1.2,0.3
		c-0.4,0.2-0.8,0.5-1,0.8v7.9h-2.6v-11h1.8l0.5,1c0.7-0.8,1.7-1.2,3.1-1.2c1.3,0,2.3,0.4,3.1,1.2c0.8,0.8,1.1,1.9,1.1,3.3v6.7H63.7z
		"/>
	<path fill="#FFFFFF" d="M85.2,80.7c0,0.1,0,0.1,0,0.2c0,0.3-1.1,0.6-2.1,0.6c-2.6,0-2.6-2.1-2.6-4.1V66.7c0-0.3,0.1-0.3,0.4-0.4
		l1.8-0.4c0.1,0,0.3-0.1,0.3-0.1c0.2,0,0.2,0.1,0.2,0.4v11.4c0,0.7,0,1.3,0.6,1.3c0.4,0,0.7-0.2,0.8-0.2c0.1,0,0.1,0,0.2,0.1
		L85.2,80.7z"/>
</g>
</svg>
