<?xml version="1.0" encoding="utf-8"?>
<!-- Generator: Adobe Illustrator 19.0.1, SVG Export Plug-In . SVG Version: 6.00 Build 0)  -->
<svg version="1.1" id="Layer_1" xmlns="http://www.w3.org/2000/svg" xmlns:xlink="http://www.w3.org/1999/xlink" x="0px" y="0px"
	 width="180px" height="98.8px" viewBox="40 39.2 180 98.8" enable-background="new 40 39.2 180 98.8" xml:space="preserve">
<g>
	<path fill="#323232" d="M220,132.6c0,3-2.4,5.4-5.5,5.4H45.4c-3,0-5.4-2.4-5.4-5.4V44.7c0-3,2.4-5.4,5.4-5.4h169.1
		c3,0,5.5,2.4,5.5,5.4V132.6z"/>
	<polygon fill="#141414" points="162.4,132.6 157,132.6 157,127.2 151.6,127.2 151.6,121.8 146.2,121.8 146.2,116.4 140.8,116.4 
		140.8,111 140.8,105.6 146.2,105.6 146.2,100.2 146.2,94.8 140.8,94.8 140.8,89.4 140.8,84 135.4,84 130.1,84 124.6,84 124.6,78.6 
		119.2,78.6 119.2,84 119.2,89.4 119.2,94.8 113.8,94.8 113.8,89.4 108.5,89.4 108.5,94.8 103.1,94.8 103.1,100.2 103.1,105.6 
		108.5,105.6 113.8,105.6 113.8,100.2 119.2,100.2 119.2,105.6 124.6,105.6 130.1,105.6 130.1,111 124.6,111 124.6,116.4 
		119.2,116.4 113.8,116.4 108.5,116.4 108.5,121.8 113.8,121.8 113.8,127.2 108.5,127.2 108.5,132.6 103.1,132.6 103.1,138 
		108.5,138 113.8,138 119.2,138 124.6,138 130.1,138 135.4,138 140.8,138 146.2,138 151.6,138 157,138 162.4,138 167.8,138 
		167.8,132.6 	"/>
	<rect x="179" y="106.5" fill="#FFFFFF" width="5.1" height="5.1"/>
	<rect x="163.8" y="101.5" fill="#FFFFFF" width="5.1" height="5"/>
	<rect x="189.1" y="86.3" fill="#FFFFFF" width="5" height="5"/>
	<polygon fill="#FFFFFF" points="178.6,73.2 173.2,73.2 173.2,67.8 167.8,67.8 167.8,62.4 162.4,62.4 157,62.4 151.6,62.4 151.6,57 
		146.2,57 140.8,57 135.4,57 130.1,57 124.6,57 124.6,62.4 119.2,62.4 113.8,62.4 113.8,67.8 108.5,67.8 103.1,67.8 103.1,73.2 
		97.7,73.2 92.3,73.2 92.3,78.6 86.9,78.6 86.9,84 81.5,84 81.5,89.4 76.1,89.4 76.1,94.8 70.7,94.8 70.7,100.2 70.7,105.6 
		65.3,105.6 65.3,111 65.3,116.4 59.9,116.4 59.9,121.8 59.9,127.2 54.5,127.2 54.5,132.6 49.1,132.6 49.1,138 54.5,138 59.9,138 
		65.3,138 70.7,138 76.1,138 81.5,138 86.9,138 92.3,138 97.7,138 103.1,138 103.1,132.6 108.5,132.6 108.5,127.2 113.8,127.2 
		113.8,121.8 108.5,121.8 108.5,116.4 113.8,116.4 119.2,116.4 124.6,116.4 124.6,111 130.1,111 130.1,105.6 124.6,105.6 
		119.2,105.6 119.2,100.2 113.8,100.2 113.8,105.6 108.5,105.6 103.1,105.6 103.1,100.2 103.1,94.8 108.5,94.8 108.5,89.4 
		113.8,89.4 113.8,94.8 119.2,94.8 119.2,89.4 119.2,84 119.2,78.6 124.6,78.6 124.6,84 130.1,84 135.4,84 140.8,84 140.8,89.4 
		140.8,94.8 146.2,94.8 151.6,94.8 151.6,89.4 146.2,89.4 146.2,84 151.6,84 151.6,89.4 157,89.4 157,84 162.4,84 167.8,84 
		167.8,89.4 173.2,89.4 173.2,94.8 178.6,94.8 178.6,89.4 184,89.4 184,84 184,78.6 178.6,78.6 	"/>
</g>
</svg>
