<?xml version="1.0" encoding="UTF-8" standalone="no"?><svg xmlns="http://www.w3.org/2000/svg" xmlns:xlink="http://www.w3.org/1999/xlink" clip-rule="evenodd" stroke-miterlimit="4.00" viewBox="0 0 672 222"><desc>SVG generated by Keynote</desc><defs></defs><g transform="matrix(1.00, 0.00, -0.00, -1.00, 0.0, 222.0)"><text xml:space="preserve" font-family="AkkuratStd-Bold" font-weight="bold" font-size="111.0" fill="#A6AAA8" transform="matrix(1.00, 0.00, -0.00, -1.00, 0.0, 141.0)">U</text><text xml:space="preserve" font-family="AkkuratStd-Bold" font-weight="bold" font-size="111.0" fill="#A6AAA8" transform="matrix(1.00, 0.00, -0.00, -1.00, 72.4, 141.0)">s</text><text xml:space="preserve" font-family="AkkuratStd-Bold" font-weight="bold" font-size="111.0" fill="#A6AAA8" transform="matrix(1.00, 0.00, -0.00, -1.00, 126.9, 141.0)">e</text><text xml:space="preserve" font-family="AkkuratStd-Bold" font-weight="bold" font-size="111.0" fill="#A6AAA8" transform="matrix(1.00, 0.00, -0.00, -1.00, 185.4, 141.0)">r</text><text xml:space="preserve" font-family="AkkuratStd-Bold" font-weight="bold" font-size="111.0" fill="#A6AAA8" transform="matrix(1.00, 0.00, -0.00, -1.00, 225.9, 141.0)"> </text><text xml:space="preserve" font-family="AkkuratStd-Bold" font-weight="bold" font-size="111.0" fill="#A6AAA8" transform="matrix(1.00, 0.00, -0.00, -1.00, 245.8, 141.0)">A</text><text xml:space="preserve" font-family="AkkuratStd-Bold" font-weight="bold" font-size="111.0" fill="#A6AAA8" transform="matrix(1.00, 0.00, -0.00, -1.00, 312.8, 141.0)">c</text><text xml:space="preserve" font-family="AkkuratStd-Bold" font-weight="bold" font-size="111.0" fill="#A6AAA8" transform="matrix(1.00, 0.00, -0.00, -1.00, 368.4, 141.0)">c</text><text xml:space="preserve" font-family="AkkuratStd-Bold" font-weight="bold" font-size="111.0" fill="#A6AAA8" transform="matrix(1.00, 0.00, -0.00, -1.00, 424.0, 141.0)">o</text><text xml:space="preserve" font-family="AkkuratStd-Bold" font-weight="bold" font-size="111.0" fill="#A6AAA8" transform="matrix(1.00, 0.00, -0.00, -1.00, 484.0, 141.0)">u</text><text xml:space="preserve" font-family="AkkuratStd-Bold" font-weight="bold" font-size="111.0" fill="#A6AAA8" transform="matrix(1.00, 0.00, -0.00, -1.00, 546.1, 141.0)">n</text><text xml:space="preserve" font-family="AkkuratStd-Bold" font-weight="bold" font-size="111.0" fill="#A6AAA8" transform="matrix(1.00, 0.00, -0.00, -1.00, 608.4, 141.0)">t</text><text xml:space="preserve" font-family="AkkuratStd-Bold" font-weight="bold" font-size="111.0" fill="#A6AAA8" transform="matrix(1.00, 0.00, -0.00, -1.00, 649.5, 141.0)"> </text><text xml:space="preserve" font-family="AkkuratStd-Bold" font-weight="bold" font-size="111.0" fill="#A6AAA8" transform="matrix(1.00, 0.00, -0.00, -1.00, 669.3, 141.0)"> </text><text xml:space="preserve" font-family="AkkuratStd-Bold" font-weight="bold" font-size="50.0" fill="#A6AAA8" transform="matrix(1.00, 0.00, -0.00, -1.00, 167.0, 66.0)">R</text><text xml:space="preserve" font-family="AkkuratStd-Bold" font-weight="bold" font-size="50.0" fill="#A6AAA8" transform="matrix(1.00, 0.00, -0.00, -1.00, 198.0, 66.0)">e</text><text xml:space="preserve" font-family="AkkuratStd-Bold" font-weight="bold" font-size="50.0" fill="#A6AAA8" transform="matrix(1.00, 0.00, -0.00, -1.00, 224.3, 66.0)">c</text><text xml:space="preserve" font-family="AkkuratStd-Bold" font-weight="bold" font-size="50.0" fill="#A6AAA8" transform="matrix(1.00, 0.00, -0.00, -1.00, 249.4, 66.0)">r</text><text xml:space="preserve" font-family="AkkuratStd-Bold" font-weight="bold" font-size="50.0" fill="#A6AAA8" transform="matrix(1.00, 0.00, -0.00, -1.00, 267.1, 66.0)">u</text><text xml:space="preserve" font-family="AkkuratStd-Bold" font-weight="bold" font-size="50.0" fill="#A6AAA8" transform="matrix(1.00, 0.00, -0.00, -1.00, 295.1, 66.0)">i</text><text xml:space="preserve" font-family="AkkuratStd-Bold" font-weight="bold" font-size="50.0" fill="#A6AAA8" transform="matrix(1.00, 0.00, -0.00, -1.00, 307.9, 66.0)">t</text><text xml:space="preserve" font-family="AkkuratStd-Bold" font-weight="bold" font-size="50.0" fill="#A6AAA8" transform="matrix(1.00, 0.00, -0.00, -1.00, 325.9, 66.0)">e</text><text xml:space="preserve" font-family="AkkuratStd-Bold" font-weight="bold" font-size="50.0" fill="#A6AAA8" transform="matrix(1.00, 0.00, -0.00, -1.00, 352.3, 66.0)">r</text><text xml:space="preserve" font-family="AkkuratStd-Bold" font-weight="bold" font-size="50.0" fill="#A6AAA8" transform="matrix(1.00, 0.00, -0.00, -1.00, 370.5, 66.0)"> </text><text xml:space="preserve" font-family="AkkuratStd-Bold" font-weight="bold" font-size="50.0" fill="#A6AAA8" transform="matrix(1.00, 0.00, -0.00, -1.00, 378.7, 66.0)">V</text><text xml:space="preserve" font-family="AkkuratStd-Bold" font-weight="bold" font-size="50.0" fill="#A6AAA8" transform="matrix(1.00, 0.00, -0.00, -1.00, 407.7, 66.0)">i</text><text xml:space="preserve" font-family="AkkuratStd-Bold" font-weight="bold" font-size="50.0" fill="#A6AAA8" transform="matrix(1.00, 0.00, -0.00, -1.00, 420.5, 66.0)">e</text><text xml:space="preserve" font-family="AkkuratStd-Bold" font-weight="bold" font-size="50.0" fill="#A6AAA8" transform="matrix(1.00, 0.00, -0.00, -1.00, 446.6, 66.0)">w</text><text xml:space="preserve" font-family="AkkuratStd-Bold" font-weight="bold" font-size="50.0" fill="#A6AAA8" transform="matrix(1.00, 0.00, -0.00, -1.00, 483.7, 66.0)"> </text><text xml:space="preserve" font-family="AkkuratStd" font-size="22.0" fill="#A6AAA8" transform="matrix(1.00, 0.00, -0.00, -1.00, 0.0, 33.0)">U</text><text xml:space="preserve" font-family="AkkuratStd" font-size="22.0" fill="#A6AAA8" transform="matrix(1.00, 0.00, -0.00, -1.00, 14.5, 33.0)">s</text><text xml:space="preserve" font-family="AkkuratStd" font-size="22.0" fill="#A6AAA8" transform="matrix(1.00, 0.00, -0.00, -1.00, 25.5, 33.0)">e</text><text xml:space="preserve" font-family="AkkuratStd" font-size="22.0" fill="#A6AAA8" transform="matrix(1.00, 0.00, -0.00, -1.00, 37.2, 33.0)">r</text><text xml:space="preserve" font-family="AkkuratStd" font-size="22.0" fill="#A6AAA8" transform="matrix(1.00, 0.00, -0.00, -1.00, 45.2, 33.0)"> </text><text xml:space="preserve" font-family="AkkuratStd" font-size="22.0" fill="#A6AAA8" transform="matrix(1.00, 0.00, -0.00, -1.00, 49.8, 33.0)">a</text><text xml:space="preserve" font-family="AkkuratStd" font-size="22.0" fill="#A6AAA8" transform="matrix(1.00, 0.00, -0.00, -1.00, 61.7, 33.0)">c</text><text xml:space="preserve" font-family="AkkuratStd" font-size="22.0" fill="#A6AAA8" transform="matrix(1.00, 0.00, -0.00, -1.00, 72.9, 33.0)">c</text><text xml:space="preserve" font-family="AkkuratStd" font-size="22.0" fill="#A6AAA8" transform="matrix(1.00, 0.00, -0.00, -1.00, 84.2, 33.0)">o</text><text xml:space="preserve" font-family="AkkuratStd" font-size="22.0" fill="#A6AAA8" transform="matrix(1.00, 0.00, -0.00, -1.00, 96.0, 33.0)">u</text><text xml:space="preserve" font-family="AkkuratStd" font-size="22.0" fill="#A6AAA8" transform="matrix(1.00, 0.00, -0.00, -1.00, 108.4, 33.0)">n</text><text xml:space="preserve" font-family="AkkuratStd" font-size="22.0" fill="#A6AAA8" transform="matrix(1.00, 0.00, -0.00, -1.00, 120.8, 33.0)">t</text><text xml:space="preserve" font-family="AkkuratStd" font-size="22.0" fill="#A6AAA8" transform="matrix(1.00, 0.00, -0.00, -1.00, 128.9, 33.0)">s</text><text xml:space="preserve" font-family="AkkuratStd" font-size="22.0" fill="#A6AAA8" transform="matrix(1.00, 0.00, -0.00, -1.00, 139.9, 33.0)"> </text><text xml:space="preserve" font-family="AkkuratStd" font-size="22.0" fill="#A6AAA8" transform="matrix(1.00, 0.00, -0.00, -1.00, 144.5, 33.0)">c</text><text xml:space="preserve" font-family="AkkuratStd" font-size="22.0" fill="#A6AAA8" transform="matrix(1.00, 0.00, -0.00, -1.00, 155.8, 33.0)">r</text><text xml:space="preserve" font-family="AkkuratStd" font-size="22.0" fill="#A6AAA8" transform="matrix(1.00, 0.00, -0.00, -1.00, 163.5, 33.0)">e</text><text xml:space="preserve" font-family="AkkuratStd" font-size="22.0" fill="#A6AAA8" transform="matrix(1.00, 0.00, -0.00, -1.00, 175.2, 33.0)">a</text><text xml:space="preserve" font-family="AkkuratStd" font-size="22.0" fill="#A6AAA8" transform="matrix(1.00, 0.00, -0.00, -1.00, 187.0, 33.0)">t</text><text xml:space="preserve" font-family="AkkuratStd" font-size="22.0" fill="#A6AAA8" transform="matrix(1.00, 0.00, -0.00, -1.00, 194.8, 33.0)">e</text><text xml:space="preserve" font-family="AkkuratStd" font-size="22.0" fill="#A6AAA8" transform="matrix(1.00, 0.00, -0.00, -1.00, 206.5, 33.0)">s</text><text xml:space="preserve" font-family="AkkuratStd" font-size="22.0" fill="#A6AAA8" transform="matrix(1.00, 0.00, -0.00, -1.00, 217.5, 33.0)"> </text><text xml:space="preserve" font-family="AkkuratStd" font-size="22.0" fill="#A6AAA8" transform="matrix(1.00, 0.00, -0.00, -1.00, 222.1, 33.0)">a</text><text xml:space="preserve" font-family="AkkuratStd" font-size="22.0" fill="#A6AAA8" transform="matrix(1.00, 0.00, -0.00, -1.00, 234.0, 33.0)"> </text><text xml:space="preserve" font-family="AkkuratStd" font-size="22.0" fill="#A6AAA8" transform="matrix(1.00, 0.00, -0.00, -1.00, 238.6, 33.0)">u</text><text xml:space="preserve" font-family="AkkuratStd" font-size="22.0" fill="#A6AAA8" transform="matrix(1.00, 0.00, -0.00, -1.00, 251.0, 33.0)">n</text><text xml:space="preserve" font-family="AkkuratStd" font-size="22.0" fill="#A6AAA8" transform="matrix(1.00, 0.00, -0.00, -1.00, 263.4, 33.0)">i</text><text xml:space="preserve" font-family="AkkuratStd" font-size="22.0" fill="#A6AAA8" transform="matrix(1.00, 0.00, -0.00, -1.00, 269.0, 33.0)">f</text><text xml:space="preserve" font-family="AkkuratStd" font-size="22.0" fill="#A6AAA8" transform="matrix(1.00, 0.00, -0.00, -1.00, 276.6, 33.0)">i</text><text xml:space="preserve" font-family="AkkuratStd" font-size="22.0" fill="#A6AAA8" transform="matrix(1.00, 0.00, -0.00, -1.00, 282.1, 33.0)">e</text><text xml:space="preserve" font-family="AkkuratStd" font-size="22.0" fill="#A6AAA8" transform="matrix(1.00, 0.00, -0.00, -1.00, 293.8, 33.0)">d</text><text xml:space="preserve" font-family="AkkuratStd" font-size="22.0" fill="#A6AAA8" transform="matrix(1.00, 0.00, -0.00, -1.00, 306.5, 33.0)"> </text><text xml:space="preserve" font-family="AkkuratStd" font-size="22.0" fill="#A6AAA8" transform="matrix(1.00, 0.00, -0.00, -1.00, 311.1, 33.0)">a</text><text xml:space="preserve" font-family="AkkuratStd" font-size="22.0" fill="#A6AAA8" transform="matrix(1.00, 0.00, -0.00, -1.00, 322.9, 33.0)">n</text><text xml:space="preserve" font-family="AkkuratStd" font-size="22.0" fill="#A6AAA8" transform="matrix(1.00, 0.00, -0.00, -1.00, 335.4, 33.0)">d</text><text xml:space="preserve" font-family="AkkuratStd" font-size="22.0" fill="#A6AAA8" transform="matrix(1.00, 0.00, -0.00, -1.00, 348.0, 33.0)"> </text><text xml:space="preserve" font-family="AkkuratStd" font-size="22.0" fill="#A6AAA8" transform="matrix(1.00, 0.00, -0.00, -1.00, 352.6, 33.0)">s</text><text xml:space="preserve" font-family="AkkuratStd" font-size="22.0" fill="#A6AAA8" transform="matrix(1.00, 0.00, -0.00, -1.00, 363.6, 33.0)">t</text><text xml:space="preserve" font-family="AkkuratStd" font-size="22.0" fill="#A6AAA8" transform="matrix(1.00, 0.00, -0.00, -1.00, 371.6, 33.0)">a</text><text xml:space="preserve" font-family="AkkuratStd" font-size="22.0" fill="#A6AAA8" transform="matrix(1.00, 0.00, -0.00, -1.00, 383.4, 33.0)">n</text><text xml:space="preserve" font-family="AkkuratStd" font-size="22.0" fill="#A6AAA8" transform="matrix(1.00, 0.00, -0.00, -1.00, 395.9, 33.0)">d</text><text xml:space="preserve" font-family="AkkuratStd" font-size="22.0" fill="#A6AAA8" transform="matrix(1.00, 0.00, -0.00, -1.00, 408.5, 33.0)">a</text><text xml:space="preserve" font-family="AkkuratStd" font-size="22.0" fill="#A6AAA8" transform="matrix(1.00, 0.00, -0.00, -1.00, 420.4, 33.0)">r</text><text xml:space="preserve" font-family="AkkuratStd" font-size="22.0" fill="#A6AAA8" transform="matrix(1.00, 0.00, -0.00, -1.00, 428.0, 33.0)">d</text><text xml:space="preserve" font-family="AkkuratStd" font-size="22.0" fill="#A6AAA8" transform="matrix(1.00, 0.00, -0.00, -1.00, 440.6, 33.0)">i</text><text xml:space="preserve" font-family="AkkuratStd" font-size="22.0" fill="#A6AAA8" transform="matrix(1.00, 0.00, -0.00, -1.00, 446.2, 33.0)">z</text><text xml:space="preserve" font-family="AkkuratStd" font-size="22.0" fill="#A6AAA8" transform="matrix(1.00, 0.00, -0.00, -1.00, 456.6, 33.0)">e</text><text xml:space="preserve" font-family="AkkuratStd" font-size="22.0" fill="#A6AAA8" transform="matrix(1.00, 0.00, -0.00, -1.00, 468.2, 33.0)">d</text><text xml:space="preserve" font-family="AkkuratStd" font-size="22.0" fill="#A6AAA8" transform="matrix(1.00, 0.00, -0.00, -1.00, 480.9, 33.0)"> </text><text xml:space="preserve" font-family="AkkuratStd" font-size="22.0" fill="#A6AAA8" transform="matrix(1.00, 0.00, -0.00, -1.00, 485.5, 33.0)">m</text><text xml:space="preserve" font-family="AkkuratStd" font-size="22.0" fill="#A6AAA8" transform="matrix(1.00, 0.00, -0.00, -1.00, 504.4, 33.0)">e</text><text xml:space="preserve" font-family="AkkuratStd" font-size="22.0" fill="#A6AAA8" transform="matrix(1.00, 0.00, -0.00, -1.00, 516.0, 33.0)">t</text><text xml:space="preserve" font-family="AkkuratStd" font-size="22.0" fill="#A6AAA8" transform="matrix(1.00, 0.00, -0.00, -1.00, 524.0, 33.0)">h</text><text xml:space="preserve" font-family="AkkuratStd" font-size="22.0" fill="#A6AAA8" transform="matrix(1.00, 0.00, -0.00, -1.00, 536.5, 33.0)">o</text><text xml:space="preserve" font-family="AkkuratStd" font-size="22.0" fill="#A6AAA8" transform="matrix(1.00, 0.00, -0.00, -1.00, 548.3, 33.0)">d</text><text xml:space="preserve" font-family="AkkuratStd" font-size="22.0" fill="#A6AAA8" transform="matrix(1.00, 0.00, -0.00, -1.00, 561.0, 33.0)"> </text><text xml:space="preserve" font-family="AkkuratStd" font-size="22.0" fill="#A6AAA8" transform="matrix(1.00, 0.00, -0.00, -1.00, 565.6, 33.0)">o</text><text xml:space="preserve" font-family="AkkuratStd" font-size="22.0" fill="#A6AAA8" transform="matrix(1.00, 0.00, -0.00, -1.00, 577.3, 33.0)">f</text><text xml:space="preserve" font-family="AkkuratStd" font-size="22.0" fill="#A6AAA8" transform="matrix(1.00, 0.00, -0.00, -1.00, 584.9, 33.0)"> </text><text xml:space="preserve" font-family="AkkuratStd" font-size="22.0" fill="#A6AAA8" transform="matrix(1.00, 0.00, -0.00, -1.00, 589.5, 33.0)">h</text><text xml:space="preserve" font-family="AkkuratStd" font-size="22.0" fill="#A6AAA8" transform="matrix(1.00, 0.00, -0.00, -1.00, 602.0, 33.0)">i</text><text xml:space="preserve" font-family="AkkuratStd" font-size="22.0" fill="#A6AAA8" transform="matrix(1.00, 0.00, -0.00, -1.00, 607.6, 33.0)">r</text><text xml:space="preserve" font-family="AkkuratStd" font-size="22.0" fill="#A6AAA8" transform="matrix(1.00, 0.00, -0.00, -1.00, 615.6, 33.0)">i</text><text xml:space="preserve" font-family="AkkuratStd" font-size="22.0" fill="#A6AAA8" transform="matrix(1.00, 0.00, -0.00, -1.00, 621.1, 33.0)">n</text><text xml:space="preserve" font-family="AkkuratStd" font-size="22.0" fill="#A6AAA8" transform="matrix(1.00, 0.00, -0.00, -1.00, 633.6, 33.0)">g</text><text xml:space="preserve" font-family="AkkuratStd" font-size="22.0" fill="#A6AAA8" transform="matrix(1.00, 0.00, -0.00, -1.00, 645.0, 33.0)">,</text><text xml:space="preserve" font-family="AkkuratStd" font-size="22.0" fill="#A6AAA8" transform="matrix(1.00, 0.00, -0.00, -1.00, 649.9, 33.0)"> </text><text xml:space="preserve" font-family="AkkuratStd" font-size="22.0" fill="#A6AAA8" transform="matrix(1.00, 0.00, -0.00, -1.00, 83.0, 7.0)">m</text><text xml:space="preserve" font-family="AkkuratStd" font-size="22.0" fill="#A6AAA8" transform="matrix(1.00, 0.00, -0.00, -1.00, 101.9, 7.0)">a</text><text xml:space="preserve" font-family="AkkuratStd" font-size="22.0" fill="#A6AAA8" transform="matrix(1.00, 0.00, -0.00, -1.00, 113.7, 7.0)">k</text><text xml:space="preserve" font-family="AkkuratStd" font-size="22.0" fill="#A6AAA8" transform="matrix(1.00, 0.00, -0.00, -1.00, 125.3, 7.0)">i</text><text xml:space="preserve" font-family="AkkuratStd" font-size="22.0" fill="#A6AAA8" transform="matrix(1.00, 0.00, -0.00, -1.00, 130.9, 7.0)">n</text><text xml:space="preserve" font-family="AkkuratStd" font-size="22.0" fill="#A6AAA8" transform="matrix(1.00, 0.00, -0.00, -1.00, 143.3, 7.0)">g</text><text xml:space="preserve" font-family="AkkuratStd" font-size="22.0" fill="#A6AAA8" transform="matrix(1.00, 0.00, -0.00, -1.00, 154.7, 7.0)"> </text><text xml:space="preserve" font-family="AkkuratStd" font-size="22.0" fill="#A6AAA8" transform="matrix(1.00, 0.00, -0.00, -1.00, 159.3, 7.0)">t</text><text xml:space="preserve" font-family="AkkuratStd" font-size="22.0" fill="#A6AAA8" transform="matrix(1.00, 0.00, -0.00, -1.00, 167.4, 7.0)">h</text><text xml:space="preserve" font-family="AkkuratStd" font-size="22.0" fill="#A6AAA8" transform="matrix(1.00, 0.00, -0.00, -1.00, 179.8, 7.0)">e</text><text xml:space="preserve" font-family="AkkuratStd" font-size="22.0" fill="#A6AAA8" transform="matrix(1.00, 0.00, -0.00, -1.00, 191.5, 7.0)"> </text><text xml:space="preserve" font-family="AkkuratStd" font-size="22.0" fill="#A6AAA8" transform="matrix(1.00, 0.00, -0.00, -1.00, 196.1, 7.0)">r</text><text xml:space="preserve" font-family="AkkuratStd" font-size="22.0" fill="#A6AAA8" transform="matrix(1.00, 0.00, -0.00, -1.00, 203.9, 7.0)">e</text><text xml:space="preserve" font-family="AkkuratStd" font-size="22.0" fill="#A6AAA8" transform="matrix(1.00, 0.00, -0.00, -1.00, 215.6, 7.0)">c</text><text xml:space="preserve" font-family="AkkuratStd" font-size="22.0" fill="#A6AAA8" transform="matrix(1.00, 0.00, -0.00, -1.00, 226.9, 7.0)">r</text><text xml:space="preserve" font-family="AkkuratStd" font-size="22.0" fill="#A6AAA8" transform="matrix(1.00, 0.00, -0.00, -1.00, 234.7, 7.0)">u</text><text xml:space="preserve" font-family="AkkuratStd" font-size="22.0" fill="#A6AAA8" transform="matrix(1.00, 0.00, -0.00, -1.00, 247.0, 7.0)">i</text><text xml:space="preserve" font-family="AkkuratStd" font-size="22.0" fill="#A6AAA8" transform="matrix(1.00, 0.00, -0.00, -1.00, 252.6, 7.0)">t</text><text xml:space="preserve" font-family="AkkuratStd" font-size="22.0" fill="#A6AAA8" transform="matrix(1.00, 0.00, -0.00, -1.00, 260.4, 7.0)">e</text><text xml:space="preserve" font-family="AkkuratStd" font-size="22.0" fill="#A6AAA8" transform="matrix(1.00, 0.00, -0.00, -1.00, 272.1, 7.0)">r</text><text xml:space="preserve" font-family="AkkuratStd" font-size="22.0" fill="#A6AAA8" transform="matrix(1.00, 0.00, -0.00, -1.00, 279.9, 7.0)">s</text><text xml:space="preserve" font-family="AkkuratStd" font-size="22.0" fill="#A6AAA8" transform="matrix(1.00, 0.00, -0.00, -1.00, 290.9, 7.0)"> </text><text xml:space="preserve" font-family="AkkuratStd" font-size="22.0" fill="#A6AAA8" transform="matrix(1.00, 0.00, -0.00, -1.00, 295.5, 7.0)">w</text><text xml:space="preserve" font-family="AkkuratStd" font-size="22.0" fill="#A6AAA8" transform="matrix(1.00, 0.00, -0.00, -1.00, 311.8, 7.0)">o</text><text xml:space="preserve" font-family="AkkuratStd" font-size="22.0" fill="#A6AAA8" transform="matrix(1.00, 0.00, -0.00, -1.00, 323.7, 7.0)">r</text><text xml:space="preserve" font-family="AkkuratStd" font-size="22.0" fill="#A6AAA8" transform="matrix(1.00, 0.00, -0.00, -1.00, 331.7, 7.0)">k</text><text xml:space="preserve" font-family="AkkuratStd" font-size="22.0" fill="#A6AAA8" transform="matrix(1.00, 0.00, -0.00, -1.00, 343.2, 7.0)">f</text><text xml:space="preserve" font-family="AkkuratStd" font-size="22.0" fill="#A6AAA8" transform="matrix(1.00, 0.00, -0.00, -1.00, 350.9, 7.0)">l</text><text xml:space="preserve" font-family="AkkuratStd" font-size="22.0" fill="#A6AAA8" transform="matrix(1.00, 0.00, -0.00, -1.00, 356.7, 7.0)">o</text><text xml:space="preserve" font-family="AkkuratStd" font-size="22.0" fill="#A6AAA8" transform="matrix(1.00, 0.00, -0.00, -1.00, 368.4, 7.0)">w</text><text xml:space="preserve" font-family="AkkuratStd" font-size="22.0" fill="#A6AAA8" transform="matrix(1.00, 0.00, -0.00, -1.00, 384.9, 7.0)"> </text><text xml:space="preserve" font-family="AkkuratStd" font-size="22.0" fill="#A6AAA8" transform="matrix(1.00, 0.00, -0.00, -1.00, 389.5, 7.0)">m</text><text xml:space="preserve" font-family="AkkuratStd" font-size="22.0" fill="#A6AAA8" transform="matrix(1.00, 0.00, -0.00, -1.00, 408.4, 7.0)">o</text><text xml:space="preserve" font-family="AkkuratStd" font-size="22.0" fill="#A6AAA8" transform="matrix(1.00, 0.00, -0.00, -1.00, 420.2, 7.0)">r</text><text xml:space="preserve" font-family="AkkuratStd" font-size="22.0" fill="#A6AAA8" transform="matrix(1.00, 0.00, -0.00, -1.00, 428.0, 7.0)">e</text><text xml:space="preserve" font-family="AkkuratStd" font-size="22.0" fill="#A6AAA8" transform="matrix(1.00, 0.00, -0.00, -1.00, 439.7, 7.0)"> </text><text xml:space="preserve" font-family="AkkuratStd" font-size="22.0" fill="#A6AAA8" transform="matrix(1.00, 0.00, -0.00, -1.00, 444.3, 7.0)">s</text><text xml:space="preserve" font-family="AkkuratStd" font-size="22.0" fill="#A6AAA8" transform="matrix(1.00, 0.00, -0.00, -1.00, 455.2, 7.0)">t</text><text xml:space="preserve" font-family="AkkuratStd" font-size="22.0" fill="#A6AAA8" transform="matrix(1.00, 0.00, -0.00, -1.00, 463.2, 7.0)">r</text><text xml:space="preserve" font-family="AkkuratStd" font-size="22.0" fill="#A6AAA8" transform="matrix(1.00, 0.00, -0.00, -1.00, 471.0, 7.0)">e</text><text xml:space="preserve" font-family="AkkuratStd" font-size="22.0" fill="#A6AAA8" transform="matrix(1.00, 0.00, -0.00, -1.00, 482.7, 7.0)">a</text><text xml:space="preserve" font-family="AkkuratStd" font-size="22.0" fill="#A6AAA8" transform="matrix(1.00, 0.00, -0.00, -1.00, 494.6, 7.0)">m</text><text xml:space="preserve" font-family="AkkuratStd" font-size="22.0" fill="#A6AAA8" transform="matrix(1.00, 0.00, -0.00, -1.00, 513.4, 7.0)">l</text><text xml:space="preserve" font-family="AkkuratStd" font-size="22.0" fill="#A6AAA8" transform="matrix(1.00, 0.00, -0.00, -1.00, 519.4, 7.0)">i</text><text xml:space="preserve" font-family="AkkuratStd" font-size="22.0" fill="#A6AAA8" transform="matrix(1.00, 0.00, -0.00, -1.00, 525.0, 7.0)">n</text><text xml:space="preserve" font-family="AkkuratStd" font-size="22.0" fill="#A6AAA8" transform="matrix(1.00, 0.00, -0.00, -1.00, 537.4, 7.0)">e</text><text xml:space="preserve" font-family="AkkuratStd" font-size="22.0" fill="#A6AAA8" transform="matrix(1.00, 0.00, -0.00, -1.00, 549.1, 7.0)">d</text><text xml:space="preserve" font-family="AkkuratStd" font-size="22.0" fill="#A6AAA8" transform="matrix(1.00, 0.00, -0.00, -1.00, 561.7, 7.0)">.</text></g></svg>